
<svg enable-background="new 0 0 510.512 388.375" height="388.375"
     viewBox="0 0 510.512 388.375" width="510.512"
     xmlns="http://www.w3.org/2000/svg">
    <path d="m144.971 83.838s-1.25-87.5 103.75-61.25 86.25 70 87.5 70-18.75-53.75 61.25-63.75c72.5 6.25 106.25 20 102.5 66.25s-38.75 57.5-38.75 57.5 63.75 6.25 46.25 100c-27.5 65-27.5 58.75-91.25 66.25-28.75-11.25-30-21.25-30-21.25s52.5 48.75-26.25 80c-88.75 23.75-100 2.5-137.5-8.75-36.25-22.5-28.75-50-28.75-50s22.5 46.25-53.75 55-105-8.75-118.75-80c-3.75-53.75 63.75-58.75 63.75-58.75s-41.25 1.25-52.5-26.25-18.75-63.75 15-112.5c62.5-58.75 105-20 97.5-12.5z"
          opacity=".5"/>
    <path d="m128.901 69.902c-.018-1.27 17.148-82.899 103.75-61.25 105 26.25 86.25 70 87.5 70s-18.75-53.75 61.25-63.75c72.5 6.25 106.25 20 102.5 66.25s-38.75 57.5-38.75 57.5 63.75 6.25 46.25 100c-27.5 65-27.5 58.75-91.25 66.25-28.75-11.25-30-21.25-30-21.25s52.5 48.75-26.25 80c-88.75 23.75-100 2.5-137.5-8.75-36.25-22.5-28.75-50-28.75-50s22.5 46.25-53.75 55-105-8.75-118.75-80c-3.75-53.75 63.75-58.75 63.75-58.75s-41.25 1.25-52.5-26.25-18.75-63.75 15-112.5c62.5-58.75 105-20 97.5-12.5z"
          fill="#fff" stroke="#000" stroke-linejoin="bevel" stroke-width="10"/>
</svg>