
<svg height="400pt" width="400pt" xmlns="http://www.w3.org/2000/svg">
    <g fill-rule="evenodd">
        <path d="m294.18139 338.62106 67.98925 28.30251c15.589-14.389 7.32527-44.5411 22.91327-55.3341 20.386 5.996 76.38425 4.62289 84.77825 8.21989l-20.385-69.96812 39.26762-37.36165-36.03137-38.1989 12.77087-73.50905-64.57989 10.25734-63.554-41.969498-79.144 53.961598-74.347-49.165198-56.36 50.364198-82.740394-14.3899 34.7751 69.5499-40.7708 64.754 40.7708 41.97-21.945754 71.41414 73.508048-30.75888 93.69357 58.87374z"
              fill-opacity=".5" stroke-width="2.5"/>
        <path d="m285.87349 326.77459 63.13488 41.2475c15.589-14.389 15.41589-55.86797 31.00389-66.66097 20.386 5.996 68.29363 6.24102 76.68763 9.83802l-25.23937-66.73188 50.59448-45.45226-42.50386-33.34452 14.389-79.98155-67.81614 5.40297-63.554-41.9695-79.144 53.9616-74.347-49.1652-40.17877 55.21857-77.886031-14.389901 13.739501 64.695531-53.715784 64.754 53.715784 41.97-25.182 82.741 76.7443-32.377 83.98483 65.34623z"
              fill="#fff" stroke="#000" stroke-linejoin="round"
              stroke-width="10"/>
    </g>
</svg>