
<svg height="400pt" width="400pt" xmlns="http://www.w3.org/2000/svg">
    <g fill-rule="evenodd">
        <path d="m316.22076 307.19264 69.37821 52.6464-38.20652-91.64815 100.12799 22.91263-59.28685-51.55134h110.66761l-102.76262-31.50472 90.90569-39.99053-76.54598-16.12495 39.66996-49.35048-62.51366 9.22023 22.97665-62.703742-59.58898 38.896668-14.00705-57.781352-42.35512 51.785399c0-3.596855-24.86088-51.050981-26.17819-51.050981-1.31732 0-25.62446 50.084893-25.62446 50.084893l-44.35911-46.255174-11.13291 54.416166-41.55308-46.591931s-.90861 52.051699-3.54324 52.051699-62.923359-32.271385-62.923359-32.271385 14.46629 59.28124 14.46629 60.71305c0 1.43182-65.412854-10.32603-65.412854-10.32603l53.871464 42.76102-57.086195 19.51282s47.851039 36.20739 46.533506 37.6392c-1.317425 1.43182-42.304036 37.8243-42.304036 37.8243s73.053394-1.79126 71.736074-1.79126c-.14503 1.19895-69.851622 54.54275-69.851622 55.97456 0 1.43182 75.847102-19.08172 75.847102-19.08172l-51.1051 74.53324 85.21355-60.44556-18.00952 65.6032 50.20847-41.18948 2.79284 44.05311 48.76042-39.5248 28.93877 64.13225 18.92401-62.43175 35.11154 26.90477z"
              fill-opacity=".5" stroke-width="2.15822"/>
        <path d="m297.23444 289.39329 69.3782 52.6464-38.20652-91.64816 100.128 22.91264-59.28685-51.55134h110.66761l-102.76263-31.50473 90.9057-39.99053-76.54598-16.12494 39.66996-49.35048-62.51366 9.220226 22.97665-62.703741-59.58899 38.896668-14.00704-57.781352-42.35512 51.785399c0-3.596855-24.86089-51.050981-26.17819-51.050981-1.31732 0-25.62447 50.084894-25.62447 50.084894l-44.35911-46.255175-11.1329 54.416167-41.55309-46.591932s-.90861 52.0517-3.54323 52.0517c-2.63463 0-62.923364-32.271386-62.923364-32.271386s14.466289 59.281233 14.466289 60.713053c0 1.43181-65.4128532-10.326033-65.4128532-10.326033l53.8714642 42.761023-57.0861951 19.51282s47.8510391 36.20738 46.5335051 37.6392c-1.317424 1.43181-42.304035 37.8243-42.304035 37.8243s73.053387-1.79127 71.736072-1.79127c-.145025 1.19896-69.85162 54.54275-69.85162 55.97457 0 1.43181 75.847105-19.08172 75.847105-19.08172l-51.105104 74.53323 85.213546-60.44555-18.00952 65.6032 50.20847-41.18949 2.79284 44.05312 48.76042-39.52481 30.52097 54.42352 17.34183-52.72301 35.11154 26.90476z"
              fill="#fff" stroke="#000" stroke-linejoin="round"
              stroke-width="10"/>
    </g>
</svg>