
<svg enable-background="new 0 0 256 256" height="48pt" viewBox="0 0 256 256"
     width="48pt" xmlns="http://www.w3.org/2000/svg"
     xmlns:xlink="http://www.w3.org/1999/xlink">
    <radialGradient id="a" cx="116.8169" cy="47.0796"
                    gradientUnits="userSpaceOnUse" r="182.3371">
        <stop offset="0" stop-color="#fff"/>
        <stop offset=".5955" stop-color="#9cf"/>
        <stop offset=".9944" stop-color="#39f"/>
    </radialGradient>
    <linearGradient id="b"
                    gradientTransform="matrix(.996779 0 0 1.019239 .051571 -4.572054)"
                    gradientUnits="userSpaceOnUse" x1="125.8564" x2="125.8564"
                    y1="56.8018" y2="245.8628">
        <stop offset="0" stop-color="#06c"/>
        <stop offset=".9944" stop-color="#036"/>
    </linearGradient>
    <path d="m207.77691 48.674724c16.439 19.511 26.352 44.645 26.352 71.960996 0 61.922-50.264 112.395-112.223 112.395-27.129004 0-52.150004-9.819-71.649004-26.104 20.659 24.496 51.510004 40.104 85.714004 40.104 61.959 0 112.223-50.473 112.223-112.395-.001-34.409-15.724-65.358996-40.417-85.960996z"
          opacity=".2"/>
    <path d="m256 256h-256v-256h256z" fill="none" opacity=".2"/>
    <path d="m126.148 237.98c61.959 0 112.223-50.473 112.223-112.395 0-61.528-50.262-112.01-112.223-112.01-61.52.003-112.213 50.482-112.213 112.01.001 61.923 50.694 112.395 112.213 112.395z"
          fill="url(#a)"/>
    <path d="m126.148 7c-65.501.003-118.789 53.201-118.789 118.586 0 65.6 53.288 118.971 118.789 118.971 65.506 0 118.799-53.371 118.799-118.971 0-65.389-53.293-118.586-118.799-118.586zm0 230.98c-61.52 0-112.213-50.473-112.213-112.395 0-61.528 50.693-112.007 112.213-112.01 61.961 0 112.223 50.482 112.223 112.01 0 61.923-50.264 112.395-112.223 112.395z"
          fill="#808080"/>
    <path d="m88.64032 21.84559c-.553213 0-1.158257.233406-1.779251.592178 1.455298-.437254 2.140085-.592178 1.779251-.592178zm36.01363 7.185632.36283-5.386676-5.56103.357753.73562 5.029942h4.46258zm-62.746251 93.102348c-1.117389-1.0804-.369805-5.75462-.369805-5.75462s-16.710006-8.98052-34.902222-14.37636c-2.24375-.66557-1.110412-5.388718 1.108418-7.180539l-.740607-5.048289c-.367811-2.506308 3.715993-14.726978 7.799797-15.800236 4.085798-1.08447-.370802 7.183593-.370802 7.183593l-4.083804 2.5165s4.823414 5.746467 5.942797 5.746467c1.110412 0 2.967412-2.876291 2.967412-2.876291l-5.19621-3.583643 4.828399-2.163843.302024-1.894765.810381-.261944 7.990182-12.376613c5.523153-2.310614 12.309226-5.173655 13.173433-5.596639 1.485201-.714487 11.880611-6.818706 13.736614-8.259909 1.860987-1.443242 5.937814-1.077336 7.419028-1.077336 1.492178 0 3.718983-.721621 4.087791-4.681362.370802-3.952607 1.858993-4.67219 2.974389-3.590778 1.112406 1.073259-1.118386 2.872215 1.483207 3.590778 2.598604.72264 4.821421 2.519557 6.682408.72264 1.357613-1.317876-.458519-2.816156-1.682563-3.94853h20.614394l2.23278-6.480319-4.8264-.717544-17.828396-1.795898v-2.157728l-1.421407.245636c1.930761-10.843679 13.394723-9.056953 4.765601-15.334444-.524306-.385272-8.074908 12.165632-9.995701 11.921014-3.480753-.468849-7.978221-.505542-8.939116.650275-1.264913 1.527838 2.847798-5.257233 6.391348-7.315075-5.653731 1.704166-23.518008 7.953118-42.404979 28.52441-18.053665 19.665188-25.252404 46.158255-25.252404 47.085763 0 1.794879 3.715993 2.516499 4.087792 4.675249.371798 2.14651-7.051216 9.34336-7.051216 12.93719 0 1.65627-1.752338 23.81043 4.448625 42.06092 7.245588 21.29801 22.70962 39.08576 24.50781 40.25585l3.709015-1.80406s-8.53841-15.45165-8.909212-16.8949c-.367812-1.43101 9.652809-22.28157 14.482204-21.55689 4.823415.70633 3.713003 2.15569 6.683405.35673 2.968408-1.79386 4.824411-16.54122 8.165615-17.96815 3.344194-1.44528 7.054206-3.23914 6.689385-6.83196-.37778-3.60301-12.998998-10.06702-14.113397-11.14435zm80.567671-105.679752-10.02362-3.597912 1.857 5.756659zm-37.50183 13.300044c1.11739 0 23.39341-15.090846 21.16362-15.455733-2.22282-.356734-2.59761 0-8.54539-.718564-5.93582-.720601-12.2544 8.627855-13.73362 10.06702-1.48122 1.442222-.98183 6.107277 1.11539 6.107277zm102.22469 108.379708 2.87571-3.81399-2.87571-1.03554-2.15603 2.77334-2.51288 3.80176 2.15503 1.04269zm12.57337 12.47956-.71967-5.54568h-4.66194l-.36183 4.15238-4.31904-.68493-1.07154-4.50911-2.15404-1.38311-2.52185 3.11378-2.5079-.68901-.72366 2.41662 2.8777.70429v22.51294l10.16914 2.50223c-.23324.41585-.40967.76647-.46948.95605-.72466 2.42884 2.87172 3.4756 5.38161 2.42884.93897-.38221 3.89541-3.43993 5.75241-7.95923 2.58964-6.29686 4.85033-14.60976 5.30486-17.54823l1.16524-2.54402-7.18877 2.76723-3.95423-.68696zm15.09523-41.92332-1.87594-3.71512c-2.22182-12.813871-7.31935-29.221573-18.24106-46.17151-16.43988-25.481983-62.17908-40.180422-62.17908-40.180422l-2.50989 3.110716-1.44035-2.417634-3.59538-1.391261v3.117851l3.23953 2.777425-2.15703 1.037585-8.26729.689005-18.68562 10.397253 1.79121 8.31189-2.15902.699198-1.06855 1.727609 6.10627 9.348456.35984 3.123966-5.02975 1.037585v6.231624l-2.87272.692063.36183 4.852595-24.442018 17.327055.720671 9.689901c1.792209 2.42885 15.813897 16.98255 15.813897 16.98255s16.16577.68391 19.76215-1.38718c3.59339-2.07823 1.07652 2.07517 2.15703 3.11581 1.07652 1.04676 1.43636 8.31291 2.51188 9.00905 1.07652.69104 0 4.84444 1.43835 6.23774 1.43636 1.37597 1.43636 18.01606 1.43636 18.01606s8.62513 14.88802 8.62513 18.70507c0 3.80787-.35983 3.46133 6.47109 3.11785 6.82794-.34654 8.26231-3.11785 9.69667-4.15238 1.44334-1.04268 1.44334-3.46949 2.88269-5.54975 1.44034-2.08231 3.94625-10.0446 7.18677-12.81183 3.23057-2.77947 11.85669-4.85973 12.57138-9.70315.71868-4.85158 3.95323-8.66557 3.95323-8.66557l15.5368-16.80419-.43659 2.25966-.36183 8.65129 4.6729-1.72761-.35585-9.35966-1.68057-1.81323.23922-.26398s-1.0815-2.07517-2.51288-2.07517c-1.43735 0-10.06846 2.07517-11.49984 1.73168-1.44034-.34857-7.55359-16.978471-8.63011-17.664419-1.07852-.694101-7.90247-12.127919-7.90247-12.127919s15.80892 19.402228 18.32479 27.018998c1.45929 4.43776 6.94357.30781 11.40615-4.32463l1.18018 2.94356 2.87073-.70022-.35984-3.46235h3.23255v5.1971l-1.07652 2.77232-.3698 4.49994 2.87969 2.77845 1.44135-2.42171 4.66193-4.5081 5.39557-2.77334 1.43835 2.77334.72067 3.81298-1.44334 4.15441-2.87072 2.42477-1.43835 6.23774v3.1097l-3.22957-2.07415-.35983-6.57919-4.67091.35062-2.15404 5.88101 3.23355 4.86074 7.54363 1.03759 6.11324-5.89731.71569-11.42159 2.71722-3.67028c1.77128 4.65384 3.03619 9.52478 3.03619 14.0604 0 4.97388 2.22282-3.44605.33093-18.61538l1.10244-1.48095v-.00102zm-90.55938-35.334962-19.40331-.703274 8.25832-6.923688h4.31605l6.82794 4.84546v2.780483zm23.72234-2.423749v3.117851h-8.26429l.71768 2.081285-5.03473.697159-.35685 1.725571-3.59239-.686967-6.47109-1.394318 1.08051-1.72659 1.07951-2.087401 3.59139-3.805837 1.44035 2.773349 5.39257-.34858 2.87173-3.119889 11.13601 2.079246-3.5894.699198v-.004077zm.7117-4.509111-4.30708.692063-.71768-3.121928 5.38261-.690024.72366-3.115813 3.9602 4.162571-5.04171 2.068035zm20.84664 107.734532-2.51786 2.07823.35784 5.20321h3.23555v-4.49688l2.87969-3.82011v-7.96433l-1.79918-.35673-2.15205 9.35661zm-24.07122-10.38094s-2.51686.67677.35386 1.72353c2.87072 1.04472 14.37356-16.96523 14.37356-16.96523l-9.70365 6.22653-5.02775 9.01415h.00398zm-19.56278 66.39625-2.14906-2.09453-4.31406-.70226-.71569 2.09658-5.74743-.69105-.36083-2.79067h-4.31007l-4.66991 2.79067h-8.25932l-.71668-2.09657-13.28707-1.40145-2.159021 2.09249-5.383604-1.38514-.718678-4.89337-2.513877-.35673-2.873714 5.24908-9.694675-.35266c1.731406.83985 16.214607 9.67054 38.420849 11.51842 29.45184 2.43496 43.46057-4.88521 43.46057-4.88521l-1.07851-1.05084-12.93022-1.04268v-.00408z"
          fill="url(#b)"/>
</svg>