
<svg clip-rule="evenodd" fill-rule="evenodd" height=".24in"
     image-rendering="optimizeQuality" shape-rendering="geometricPrecision"
     text-rendering="geometricPrecision" viewBox="0 0 .24 .24" width=".24in"
     xmlns="http://www.w3.org/2000/svg"
     xmlns:xlink="http://www.w3.org/1999/xlink">
    <linearGradient id="a" gradientUnits="userSpaceOnUse" x1=".258909"
                    x2=".068161" y1=".158909" y2=".135067">
        <stop offset="0" stop-color="#fad3a2"/>
        <stop offset=".611765" stop-color="#fce951"/>
        <stop offset="1" stop-color="#ff0"/>
    </linearGradient>
    <linearGradient id="b" gradientUnits="userSpaceOnUse" x1=".004764"
                    x2=".132772" y1=".188106" y2=".074327">
        <stop offset="0" stop-color="#e1c19b"/>
        <stop offset=".611765" stop-color="#e4d45b"/>
        <stop offset="1" stop-color="#e7e71a"/>
    </linearGradient>
    <linearGradient id="c" gradientUnits="userSpaceOnUse" x1=".119295"
                    x2=".164949" y1=".17285" y2=".143638">
        <stop offset="0" stop-color="#0cf"/>
        <stop offset=".611765" stop-color="#4ccce6"/>
        <stop offset="1" stop-color="#9cc"/>
    </linearGradient>
    <linearGradient id="d" gradientUnits="userSpaceOnUse" x1=".122669"
                    x2=".213173" y1=".129988" y2=".020721">
        <stop offset="0" stop-color="#c93"/>
        <stop offset="1" stop-color="#f93"/>
    </linearGradient>
    <linearGradient id="e" gradientUnits="userSpaceOnUse" x1=".169465"
                    x2=".209732" xlink:href="#c" y1=".15828" y2=".132516"/>
    <g stroke-linecap="round" stroke-linejoin="round">
        <path d="m.0459685.0473543c-.013126.0152559-.0260866.0303031-.0388661.0451575.00582677-.00109843.0117362-.00222441.0176457-.00335827.010248-.0143858.0205748-.0289252.0309843-.043622-.00325197.00062205-.00650787.00124016-.00976378.00182283z"
              fill="#c30" stroke="#c30" stroke-width=".003"/>
        <path d="m.026748.167906c-.00037402-.0140039-.00072835-.0282087-.00109055-.0425709-.00017717-.00724803-.00038976-.0145827-.00056299-.0219449-.00017323-.00736614-.00037008-.0147795-.00054331-.0222047.00442913-.0050748.00914173-.0104409.0141496-.0161339.00532677-.00605118.011-.0125669.0170315-.0195197.00662205.00614567.0136417.0126772.0210748.0195551.00792126.00733071.0164331.0151654.0254724.0235039-.00007087.010752-.00015748.0214134-.00021654.0319803-.00006299.0106024-.0001378.0211024-.00020472.0314803-.00006299.0102047-.0001811.0203228-.00024803.0303465-.00007087.0100354-.00011811.0199882-.0001811.029815-.0166181-.00982283-.0311575-.0184803-.0439646-.0260866-.0113819-.00675984-.0215748-.0127795-.0307165-.0182205z"
              fill="url(#b)" stroke="#993" stroke-width=".003"/>
        <path d="m.0472559.132012c.00309055.00105512.00627953.00217717.00959449.00332283.00338976.00116929.00691339.00240551.0105945.00366535.00211811.00072441.0039252.00274016.00393307.0043937.00005906.00868504.00011024.0173583.00016142.0258858.00004331.00851575.00009055.0169528.00014961.0253268-.00494882-.00296063-.00968898-.0057874-.0142244-.00848031-.00434252-.0025748-.00850787-.00502362-.0124843-.0073937-.00014567-.00738583-.00028347-.0148386-.00041339-.0223465-.00013386-.00753543-.00026378-.0151693-.00038583-.0228031-.00002362-.00144488.00133465-.00216535.0030748-.00157087z"
              fill="#9f9" stroke="#696" stroke-width=".003"/>
        <path d="m.102.212c.0199173-.00782283.0388346-.0152165.0566929-.0222126.016937-.00663386.033063-.0129567.0483976-.0189646.00045276-.00844094.00090551-.0169488.00135827-.0255079.00045276-.0085315.00093307-.0171654.00140945-.0258661.00048032-.00879134.00095669-.017689.00142913-.0266654.0004685-.00893307.00098032-.0179528.00147638-.0270433-.0158937.00351969-.0326693.00724803-.050311.0111575-.00940157.00208661-.0190669.00422047-.0290197.00642126-.00983858.0021811-.0199606.00441732-.0303465.00672835-.00011811.0106339-.00024016.0211535-.00031102.0315709-.0000748.0104409-.00014961.0207874-.00025197.0310276-.00009843.0100748-.00019291.0200472-.00027165.0299331-.00007874.00989764-.00016535.0197165-.00025197.0294213z"
              fill="url(#a)" stroke="#ff6" stroke-width=".003"/>
        <path d="m.119539.130402c.0102402-.00245276.0204685-.00637795.0310472-.00892913.00166535-.00039764.0029685.00114173.00290551.00338189-.00021654.00748031-.00049213.014937-.00070866.0222992-.00022047.0073189-.00044488.0146457-.00064961.0218701-.00006299.00218898-.00148425.00442126-.00309449.00493307-.0104173.00329921-.0203228.00806299-.0303858.0112598-.00179921.00056693-.00325984-.00083071-.00322835-.0031378.00010236-.00759843.00022441-.0153071.00032677-.0230315.00010236-.00776772.00025591-.015622.00037008-.0234803.00003543-.0023937.00158268-.00472835.00341732-.00516535z"
              fill="url(#c)" stroke="#ccf" stroke-width=".003"/>
        <path d="m.170787.115878c.00916535-.00222047.0183976-.00550394.0277362-.00775984.00141732-.00034252.00251969.00112205.00241732.00322047-.00035039.0069685-.00067717.0139567-.00101969.0208701-.00033858.00684252-.00071654.0136654-.00103937.0204646-.00009449.00205512-.00133858.00411417-.00275591.00456693-.00916535.00292913-.0182559.00688976-.0272362.00975984-.00157087.0005-.00276772-.00083465-.00269685-.00298425.00025197-.00709843.00053543-.0142953.0007874-.0214961.00025984-.00722835.0005-.0145551.00077953-.0219055.00007874-.00220866.00147638-.0043622.00302756-.00473622z"
              fill="url(#e)" stroke="#ccf" stroke-width=".003"/>
        <path d="m.0459685.0473543c.0107283.0103071.0216457.0207441.0327008.0313228.0112126.0107244.022622.021626.0341654.032685.0189843-.00467717.0383858-.00948425.0581575-.014374.0201811-.00498819.0408268-.0100945.0619055-.0153425-.0105354-.00925984-.0209213-.018378-.0311772-.0274055-.0101181-.00890157-.0201102-.0177283-.03-.0264488-.0222008.00347244-.0438976.00684646-.0650748.0101339-.0206654.0032126-.0408976.00635433-.0606772.00942913z"
              fill="url(#d)" stroke="#c30" stroke-width=".003"/>
        <path d="m.0573307.0498425c.00930315.00906693.0187598.0182402.0282992.0275197.00965354.00938583.0194646.0188976.0293858.0285315"
              fill="none" stroke="#fc0" stroke-width=".006665"/>
        <path d="m.0837638.0755157c.0102874.00998425.020689.0201102.031252.030378"
              fill="none" stroke="#fc9" stroke-width=".006665"/>
        <path d="m.228815.0780748c-.0179685.0043937-.0356339.00871654-.0529488.012937-.0170039.00414173-.0337598.00823622-.0501575.0122244"
              fill="none" stroke="#f63" stroke-width=".006665"/>
        <path d="m.198362.0847008c-.0125118.00319291-.024874.00634646-.0370551.00945276-.0120118.00306299-.0238937.00610236-.0355984.00908268"
              fill="none" stroke="#fc0" stroke-width=".006665"/>
        <path d="m.161331.0941496c-.015685.00399213-.0311339.00791732-.046315.0117441"
              fill="none" stroke="#fc9" stroke-width=".006665"/>
    </g>
    <path d="m.102795.12126c-.00014173.0150315-.00028347.0301339-.00040551.0452047-.00011811.0151417-.00024409.0303307-.00038976.0455354"
          fill="none" stroke="#ff9" stroke-width=".003"/>
    <path d="m.10239.166445c-.00006299.00759843-.00012205.0151811-.0001811.0227559-.00005906.00759449-.00014567.0152047-.00020866.0227992"
          fill="none" stroke="#ffc" stroke-width=".003"/>
    <path d="m.207091.170823c.00074409-.0140512.00151181-.0280748.00225197-.0420748.00073228-.0139764.00149606-.0279134.00227165-.0418228.00702362-.00174803.0141063-.00350394.0212835-.00527953-.0105354-.00925984-.0209213-.018378-.0311772-.0274055-.0101181-.00890157-.0201102-.0177283-.03-.0264488-.0222008.00347244-.0438976.00684646-.0650748.0101339-.0206654.0032126-.0408976.00635433-.0606772.00942913-.013126.0152559-.0260866.0303031-.0388661.0451575.00582677-.00109843.0117362-.00222441.0176457-.00335827.00034252.0130433.00065748.0261339.00098819.0392165.00033071.0131299.00066535.0263307.00101181.0395354.0119528.00711024.024126.0143346.036437.0216457.0125276.00744094.0252992.015.0382441.0226614.0168228-.00656693.0339764-.0132874.0514094-.0201142.0177638-.00694882.0358386-.0140591.054252-.0212756z"
          fill="none" stroke="#4c4c4c" stroke-linecap="round"
          stroke-linejoin="round" stroke-width=".006665"/>
</svg>