
<svg clip-rule="evenodd" fill-rule="evenodd" height=".24in"
     image-rendering="optimizeQuality" shape-rendering="geometricPrecision"
     text-rendering="geometricPrecision" viewBox="0 0 .24 .24" width=".24in"
     xmlns="http://www.w3.org/2000/svg"
     xmlns:xlink="http://www.w3.org/1999/xlink">
    <linearGradient id="a" gradientUnits="userSpaceOnUse" x1=".002728"
                    x2=".242677" y1=".034764" y2=".21011">
        <stop offset="0" stop-color="#6d7175"/>
        <stop offset="1" stop-color="#93989f"/>
    </linearGradient>
    <linearGradient id="b" gradientUnits="userSpaceOnUse" x1=".025244"
                    x2=".214465" y1=".051004" y2=".18928">
        <stop offset="0" stop-color="#6d7175"/>
        <stop offset="1" stop-color="#dde2e9"/>
    </linearGradient>
    <linearGradient id="c" gradientUnits="userSpaceOnUse" x1="-.00289"
                    x2=".242598" y1=".030441" y2=".209843">
        <stop offset="0" stop-color="#e3e6eb"/>
        <stop offset="1" stop-color="#93989f"/>
    </linearGradient>
    <rect fill="url(#c)" height=".231413" rx=".015315" stroke="#4d5356"
          stroke-width=".003" width=".231523" x=".004093" y=".004437"/>
    <path d="m.231524.00902756-.0257795.0252677c.0022874.00248425.00340945.00516142.00334252.00802756v.155638c-.00032284.00738976-.00443307.0108543-.0114016.0113701h-.155661c-.00316929-.00037402-.00608661-.00161811-.00868504-.00401969l-.0235472.0274094c.00242126.00177559.00526772.00302362.00906299.00312992h.202c.00820866-.0007874.013563-.00515748.0147598-.0147638v-.201886c-.0001811-.00359843-.00138189-.00701575-.00409055-.0101732z"
          fill="url(#a)" stroke="#757b80" stroke-width=".003"/>
    <rect fill="url(#b)" height=".17837" rx=".015315" stroke="#757b80"
          stroke-width=".003" width=".178455" x=".030627" y=".030958"/>
    <g fill="none" stroke-width=".006665">
        <path d="m.204815.104811v.0865315c.00051969.00671654-.00267717.0109488-.00959449.0127165h-.0739882"
              stroke="#e7e8ea" stroke-linecap="round" stroke-linejoin="round"/>
        <path d="m.204815.128807v.0625354c.00051969.00671654-.00267717.0109488-.00959449.0127165h-.0502717"
              stroke="#fff" stroke-linecap="round" stroke-linejoin="round"/>
        <rect height=".231413" rx=".015315" stroke="#4d5356" width=".231523"
              x=".004093" y=".004437"/>
        <path d="m.01198.012496.01987.018099" stroke="#fff"
              stroke-linecap="round" stroke-linejoin="round"/>
    </g>
</svg>