
<svg enable-background="new 0 0 17.171 17.164" height="17.164"
     viewBox="0 0 17.171 17.164" width="17.171"
     xmlns="http://www.w3.org/2000/svg"
     xmlns:xlink="http://www.w3.org/1999/xlink">
    <linearGradient id="a" gradientUnits="userSpaceOnUse" x1="-.2392"
                    x2="17.4296" y1="2.185" y2="15.0946">
        <stop offset="0" stop-color="#e4e5e6"/>
        <stop offset="1" stop-color="#93989f"/>
    </linearGradient>
    <linearGradient id="b" gradientUnits="userSpaceOnUse" x1=".2504"
                    x2="17.5232" y1="2.5018" y2="15.1162">
        <stop offset="0" stop-color="#6d7175"/>
        <stop offset="1" stop-color="#93989f"/>
    </linearGradient>
    <path d="m1.353.25h14.465c.608 0 1.104.494 1.104 1.103v14.457c0 .607-.494 1.104-1.104 1.104h-14.465c-.608 0-1.103-.494-1.103-1.104v-14.457c0-.609.495-1.103 1.103-1.103z"
          fill="url(#a)" stroke="#4d5356" stroke-width=".003"/>
    <path d="m16.625.581-1.856 1.819c.165.179.246.372.241.578v11.206c-.022.532-.319.782-.821.819h-11.207c-.229-.027-.438-.117-.626-.291l-1.695 1.975c.175.128.38.219.652.227h14.544c.592-.058.977-.373 1.063-1.063v-14.538c-.012-.258-.098-.504-.295-.732z"
          fill="url(#b)" stroke="#757b80" stroke-width=".003"/>
    <path d="m3.263 2.16h10.645c.608 0 1.103.494 1.103 1.103v10.637c0 .609-.493 1.104-1.103 1.104h-10.645c-.608 0-1.103-.493-1.103-1.104v-10.637c.001-.609.495-1.103 1.103-1.103z"
          fill="#a5a7a9" stroke="#757b80" stroke-width=".003"/>
    <g fill="none">
        <path d="m14.703 7.477v6.231c.037.481-.192.787-.69.914h-5.329"
              stroke="#e8e8e8" stroke-linecap="round" stroke-linejoin="round"
              stroke-width=".0067"/>
        <path d="m14.703 9.205v4.504c.037.482-.192.787-.69.916h-3.619"
              stroke="#fff" stroke-linecap="round" stroke-linejoin="round"
              stroke-width=".0067"/>
        <path d="m1.353.25h14.465c.608 0 1.104.494 1.104 1.103v14.457c0 .607-.494 1.104-1.104 1.104h-14.465c-.608 0-1.103-.494-1.103-1.104v-14.457c0-.609.495-1.103 1.103-1.103z"
              stroke="#4d5356" stroke-width=".5"/>
        <path d="m.819.831 1.43 1.303" stroke="#fff" stroke-linecap="round"
              stroke-linejoin="round" stroke-width=".0067"/>
    </g>
</svg>