
<svg height="80pt" width="80pt" xmlns="http://www.w3.org/2000/svg"
     xmlns:xlink="http://www.w3.org/1999/xlink">
    <radialGradient id="a">
        <stop offset="0" stop-color="#fff"/>
        <stop offset="1" stop-color="#fff" stop-opacity="0"/>
    </radialGradient>
    <g fill-rule="evenodd">
        <g fill="#fb0" fill-opacity=".980769">
            <path d="m68.562931 51.180321c0 11.889027-9.649066 21.538093-21.538094 21.538093-11.889027 0-21.538093-9.649066-21.538093-21.538093 0-11.889028 9.649066-21.538094 21.538093-21.538094 11.889028 0 21.538094 9.649066 21.538094 21.538094z"
                  stroke-linejoin="round" stroke-width="1.308407"
                  transform="matrix(.964932 0 0 .945883 4.5275 -.755837)"/>
            <path d="m47.528593 16.16176c-1.63011 3.452297 2.325899 8.671223 5.419725 4.753249 1.192317-3.410291.345251-7.149161.748825-10.695373.790405-3.0982969-.441901-5.5863115-3.880618-5.9557921-1.98943.3900314-1.723144 7.8580851-2.287932 11.8979161z"/>
            <path d="m25.351361 9.6280267c-1.173808.0369742-2.218951.7385733-2.678449 1.7980283s-.24976 2.284035.537507 3.1383c0 0 2.44992 2.712919 10.071475 11.202806.694596.849229 1.80908 1.255587 2.900986 1.057743 1.091907-.197844 1.984567-.967878 2.323584-2.004389.339016-1.03651.069537-2.171792-.701452-2.955123-7.61916-8.487218-10.041321-11.202805-10.041321-11.202805-.599951-.688929-1.488994-1.0702073-2.41233-1.0345603z"/>
            <path d="m10.605997 24.850836c-.31152 1.093833-.7464239 2.900139 1.057838 3.595012 4.149063 2.767325 8.959171 3.979419 14.045246 6.039803 1.955837.767631 4.209276-1.006483 3.992549-3.028961-.091774-1.919385-2.15382-2.716617-3.732084-3.254243-3.96176-1.61642-8.019906-2.995016-12.06248-4.403386-1.195998-.119875-2.324944.437285-3.301069 1.051775z"/>
            <path d="m6.4751911 46.864567c.1293616 1.377117-.6017915 2.966392.7107835 3.773276 2.7443126.897493 9.2677224.864931 14.2018514.914164 2.390739-.18456 3.556045-3.507855 1.713113-5.0531-1.418014-1.320939-3.480228-.72722-5.22832-.911729-2.050293-.045207-11.8393721-.375139-11.3974279 1.277389z"/>
            <path d="m25.110128 56.833515c-.474485.011913-.939401.133443-1.356935.354706-5.704245 2.880541-8.626826 4.322813-10.10163 5.025006-.687085.327139-1.01334.461505-1.176011.532059-.011913.005167-.080784.025423-.090462.029559-1.416812.456688-2.280271 1.86001-2.031411 3.301516s1.535283 2.488184 3.026497 2.46246c0 0 .396038-.009109.51262-.029559s.206733-.042015.271387-.059117c.129309-.034205.204028-.064794.271387-.088677.134717-.047765.221696-.087908.36185-.147794.280307-.119774.699541-.309423 1.477551-.679854 1.55602-.740861 4.526109-2.192449 10.252401-5.084123 1.284016-.608102 1.958007-2.014707 1.615577-3.371674-.342431-1.356968-1.607672-2.293338-3.032821-2.244508z"/>
            <path d="m33.734206 68.036321c-.774323.02641-1.508571.343948-2.05048.886765-5.183853 5.08152-7.799673 7.549812-9.046236 8.690303-.485767.444432-.601916.54804-.723698.650295-.005283.004436-.025511.025681-.030155.029559-.925047.537638-1.488025 1.51748-1.477551 2.57162 0 0 .120577.886642.120616.886765.00004.000124.693387 1.123071.693545 1.123237.000158.000165 1.175653.768406 1.17601.76853s1.024607.177353 1.02524.177353c.000634 0 .47178-.025353.633237-.059118.161457-.033764.260776-.083007.361849-.118235.202148-.070455.325019-.126569.422158-.177353.388554-.203138.458088-.27056.603082-.384265.289989-.227411.651138-.534644 1.326782-1.152795 1.351286-1.236304 3.959308-3.703796 9.166852-8.808539.900845-.849931 1.173235-2.156624.684752-3.28485-.488484-1.128226-1.636517-1.843965-2.886003-1.799272z"/>
            <path d="m51.012516 71.760736c-.79993.030816-1.554537.372149-2.097533.948783-.542996.576633-.829818 1.341242-.797262 2.125338.124846 5.017636-1.023527 11.07868.530638 13.142157 1.790487.780063 2.816469.691386 2.816469.691386l2.418583-.83918c.596829-1.950158.611514-5.071406.265133-13.142157-.007588-.799704-.345386-1.562272-.936305-2.113677-.590918-.551404-1.38453-.84459-2.199723-.81265z"/>
            <path d="m66.391116 69.721175c-1.116945-.016118-2.151483.57431-2.688605 1.534433-.537122.960122-.488829 2.132638.125505 3.047189 3.153719 4.808941 4.912606 7.187949 6.030824 8.483391.55911.647721.938324 1.023316 1.447398 1.389266.254537.182976.531835.375861 1.055394.53206.26178.078099.597658.157784.995086.147794.198713-.004994.414593-.037359.633236-.088676.218643-.051318.633237-.236471.633237-.236471 1.018922-.483324 1.675929-1.485266 1.70136-2.594589.02543-1.109322-.584999-2.139184-1.580744-2.666887-.022523-.023957-.000147-.01092-.271387-.325148-.786871-.91158-2.497395-3.134862-5.578512-7.833096-.540738-.848361-1.482473-1.371105-2.502792-1.389266z"/>
            <path d="m75.678585 58.547929c-1.3285.148808-2.398408 1.137388-2.628399 2.428601-.229989 1.291215.434862 2.57671 1.633313 3.158022 3.490202 1.765834 7.811957 5.214356 10.704712 4.658767 2.393693-.453722 2.599013-2.077537 2.406447-3.701351-.397885-1.560125-1.787577-2.346345-10.33698-6.218892-.545088-.284368-1.166089-.397862-1.779093-.325147z"/>
            <path d="m91.961809 43.56159c-.329367.007055-.655329.066967-.964932.177353-.190571.017809-.380257.029036-1.055394.059118-1.813995.080827-5.579836.147794-13.17735.147794-1.087466-.015076-2.098972.544993-2.647193 1.465744s-.548221 2.059533 0 2.980284 1.559727 1.480819 2.647193 1.465743c7.643203 0 11.452554-.088409 13.448737-.177353.998092-.044473 1.544111-.06264 1.960018-.118236.207953-.027797.347499-.039862.693545-.147794.173022-.053966.398132-.106208.814161-.384265.104007-.069514.232651-.178535.361849-.295589.129199-.117054.421925-.443061.422158-.443382.000232-.000322.361791-.738808.361849-.738972.000058-.000163.180925-.975442.180925-.975442.016269-.799271-.298385-1.570926-.872203-2.138986-.573819-.56806-1.357875-.884089-2.173363-.876017z"/>
            <path d="m90.972605 27.977944c-3.183088 0-3.184103-.191169-14.600475 2.814222-1.084729.216998-1.960958.999167-2.282613 2.037585-.321655 1.038417-.037019 2.166114.741491 2.937699s1.925716 1.062994 2.988519.759133c5.220033-1.248046 13.699401-2.749787 14.003647-4.539804 1.506964-1.531293.228727-2.672556-.850569-4.008835z"/>
            <path d="m75.99152 10.632665c-1.790487.975078-3.972813 2.939085-9.751174 11.262286-.899298 1.379454-.487534 3.212357.919701 4.093901 1.407234.881545 3.277047.477909 4.176345-.901545 2.948929-4.5246 7.448468-9.762481 7.827678-11.62728-.261744-1.527501-1.717147-2.664971-3.17255-2.827362z"/>
        </g>
        <path d="m58.218067 41.781933c0 6.607478-5.606346 11.970069-12.514164 11.970069-6.907819 0-12.514164-5.362591-12.514164-11.970069 0-6.607479 5.606345-11.97007 12.514164-11.97007 6.907818 0 12.514164 5.362591 12.514164 11.97007z"
              fill="url(#a)" fill-opacity=".75"/>
    </g>
</svg>