<?xml version="1.0" encoding="UTF-8" standalone="no"?>
<!DOCTYPE svg PUBLIC "-//W3C//DTD SVG 1.0//EN"
"http://www.w3.org/TR/2001/REC-SVG-20010904/DTD/svg10.dtd">
<!-- Created with Inkscape (http://www.inkscape.org/) -->
<svg
   id="svg1"
   sodipodi:version="0.32"
   inkscape:version="0.38.1"
   xmlns="http://www.w3.org/2000/svg"
   xmlns:sodipodi="http://sodipodi.sourceforge.net/DTD/sodipodi-0.dtd"
   xmlns:inkscape="http://www.inkscape.org/namespaces/inkscape"
   xmlns:xlink="http://www.w3.org/1999/xlink"
   width="80.000000pt"
   height="80.000000pt"
   sodipodi:docbase="/home/nicu/Desktop/weather"
   sodipodi:docname="sun01.svg">
  <defs
     id="defs3">
    <linearGradient
       id="linearGradient912">
      <stop
         style="stop-color:#ffffff;stop-opacity:1.0000000;"
         offset="0.0000000"
         id="stop913" />
      <stop
         style="stop-color:#ffffff;stop-opacity:0.0000000;"
         offset="1.0000000"
         id="stop914" />
    </linearGradient>
    <radialGradient
       xlink:href="#linearGradient912"
       id="radialGradient915" />
  </defs>
  <sodipodi:namedview
     id="base"
     pagecolor="#ffffff"
     bordercolor="#666666"
     borderopacity="1.0"
     inkscape:pageopacity="0.0"
     inkscape:pageshadow="2"
     inkscape:zoom="2.2973967"
     inkscape:cx="34.232333"
     inkscape:cy="21.909431"
     inkscape:window-width="640"
     inkscape:window-height="500"
     inkscape:window-x="250"
     inkscape:window-y="126" />
  <g
     id="g916">
    <path
       transform="matrix(0.964932,0.000000,0.000000,0.945883,4.527500,-0.755837)"
       style="fill:#ffbb00;fill-opacity:0.98076922;fill-rule:evenodd;stroke-width:1.3084073;stroke-linejoin:round;"
       d="M 68.562931,51.180321 C 68.562931,63.069348 58.913865,72.718414 47.024837,72.718414 C 35.135810,72.718414 25.486744,63.069348 25.486744,51.180321 C 25.486744,39.291293 35.135810,29.642227 47.024837,29.642227 C 58.913865,29.642227 68.562931,39.291293 68.562931,51.180321 z "
       id="path910" />
    <path
       style="fill:#ffbb00;fill-opacity:0.98076922;fill-rule:evenodd;stroke:none;stroke-width:1.2500000;stroke-linecap:round;stroke-linejoin:round;stroke-dasharray:none;stroke-opacity:1.0000000;"
       d="M 47.528593,16.161760 C 45.898483,19.614057 49.854492,24.832983 52.948318,20.915009 C 54.140635,17.504718 53.293569,13.765848 53.697143,10.219636 C 54.487548,7.1213391 53.255242,4.6333245 49.816525,4.2638439 C 47.827095,4.6538753 48.093381,12.121929 47.528593,16.161760 z "
       id="path854"
       sodipodi:nodetypes="ccccc" />
    <path
       style="fill:#ffbb00;fill-opacity:0.98076922;fill-rule:evenodd;stroke:none;stroke-width:1.2500000;stroke-linecap:round;stroke-linejoin:round;stroke-dasharray:none;stroke-opacity:1.0000000;"
       d="M 25.351361,9.6280267 C 24.177553,9.6650009 23.132410,10.366600 22.672912,11.426055 C 22.213414,12.485510 22.423152,13.710090 23.210419,14.564355 C 23.210419,14.564355 25.660339,17.277274 33.281894,25.767161 C 33.976490,26.616390 35.090974,27.022748 36.182880,26.824904 C 37.274787,26.627060 38.167447,25.857026 38.506464,24.820515 C 38.845480,23.784005 38.576001,22.648723 37.805012,21.865392 C 30.185852,13.378174 27.763691,10.662587 27.763691,10.662587 C 27.163740,9.9736580 26.274697,9.5923797 25.351361,9.6280267 L 25.351361,9.6280267 z "
       id="path855" />
    <path
       style="fill:#ffbb00;fill-opacity:0.98076922;fill-rule:evenodd;stroke:none;stroke-width:1.2500000;stroke-linecap:round;stroke-linejoin:round;stroke-dasharray:none;stroke-opacity:1.0000000;"
       d="M 10.605997,24.850836 C 10.294477,25.944669 9.8595731,27.750975 11.663835,28.445848 C 15.812898,31.213173 20.623006,32.425267 25.709081,34.485651 C 27.664918,35.253282 29.918357,33.479168 29.701630,31.456690 C 29.609856,29.537305 27.547810,28.740073 25.969546,28.202447 C 22.007786,26.586027 17.949640,25.207431 13.907066,23.799061 C 12.711068,23.679186 11.582122,24.236346 10.605997,24.850836 z "
       id="path870"
       sodipodi:nodetypes="ccccccc" />
    <path
       style="fill:#ffbb00;fill-opacity:0.98076922;fill-rule:evenodd;stroke:none;stroke-width:1.2500000;stroke-linecap:round;stroke-linejoin:round;stroke-dasharray:none;stroke-opacity:1.0000000;"
       d="M 6.4751911,46.864567 C 6.6045527,48.241684 5.8733996,49.830959 7.1859746,50.637843 C 9.9302872,51.535336 16.453697,51.502774 21.387826,51.552007 C 23.778565,51.367447 24.943871,48.044152 23.100939,46.498907 C 21.682925,45.177968 19.620711,45.771687 17.872619,45.587178 C 15.822326,45.541971 6.0332469,45.212039 6.4751911,46.864567 z "
       id="path873"
       sodipodi:nodetypes="cccccc" />
    <path
       style="fill:#ffbb00;fill-opacity:0.98076922;fill-rule:evenodd;stroke:none;stroke-width:1.2500000;stroke-linecap:round;stroke-linejoin:round;stroke-dasharray:none;stroke-opacity:1.0000000;"
       d="M 25.110128,56.833515 C 24.635643,56.845428 24.170727,56.966958 23.753193,57.188221 C 18.048948,60.068762 15.126367,61.511034 13.651563,62.213227 C 12.964478,62.540366 12.638223,62.674732 12.475552,62.745286 C 12.463639,62.750453 12.394768,62.770709 12.385090,62.774845 C 10.968278,63.231533 10.104819,64.634855 10.353679,66.076361 C 10.602539,67.517867 11.888962,68.564545 13.380176,68.538821 C 13.380176,68.538821 13.776214,68.529712 13.892796,68.509262 C 14.009378,68.488812 14.099529,68.467247 14.164183,68.450145 C 14.293492,68.415940 14.368211,68.385351 14.435570,68.361468 C 14.570287,68.313703 14.657266,68.273560 14.797420,68.213674 C 15.077727,68.093900 15.496961,67.904251 16.274971,67.533820 C 17.830991,66.792959 20.801080,65.341371 26.527372,62.449697 C 27.811388,61.841595 28.485379,60.434990 28.142949,59.078023 C 27.800518,57.721055 26.535277,56.784685 25.110128,56.833515 L 25.110128,56.833515 z "
       id="path858" />
    <path
       style="fill:#ffbb00;fill-opacity:0.98076922;fill-rule:evenodd;stroke:none;stroke-width:1.2500000;stroke-linecap:round;stroke-linejoin:round;stroke-dasharray:none;stroke-opacity:1.0000000;"
       d="M 33.734206,68.036321 C 32.959883,68.062731 32.225635,68.380269 31.683726,68.923086 C 26.499873,74.004606 23.884053,76.472898 22.637490,77.613389 C 22.151723,78.057821 22.035574,78.161429 21.913792,78.263684 C 21.908509,78.268120 21.888281,78.289365 21.883637,78.293243 C 20.958590,78.830881 20.395612,79.810723 20.406086,80.864863 C 20.406086,80.864863 20.526663,81.751505 20.526702,81.751628 C 20.526742,81.751752 21.220089,82.874699 21.220247,82.874865 C 21.220405,82.875030 22.395900,83.643271 22.396257,83.643395 C 22.396614,83.643519 23.420864,83.820748 23.421497,83.820748 C 23.422131,83.820748 23.893277,83.795395 24.054734,83.761630 C 24.216191,83.727866 24.315510,83.678623 24.416583,83.643395 C 24.618731,83.572940 24.741602,83.516826 24.838741,83.466042 C 25.227295,83.262904 25.296829,83.195482 25.441823,83.081777 C 25.731812,82.854366 26.092961,82.547133 26.768605,81.928982 C 28.119891,80.692678 30.727913,78.225186 35.935457,73.120443 C 36.836302,72.270512 37.108692,70.963819 36.620209,69.835593 C 36.131725,68.707367 34.983692,67.991628 33.734206,68.036321 L 33.734206,68.036321 z "
       id="path859" />
    <path
       style="fill:#ffbb00;fill-opacity:0.98076922;fill-rule:evenodd;stroke:none;stroke-width:1.2500000;stroke-linecap:round;stroke-linejoin:round;stroke-dasharray:none;stroke-opacity:1.0000000;"
       d="M 51.012516,71.760736 C 50.212586,71.791552 49.457979,72.132885 48.914983,72.709519 C 48.371987,73.286152 48.085165,74.050761 48.117721,74.834857 C 48.242567,79.852493 47.094194,85.913537 48.648359,87.977014 C 50.438846,88.757077 51.464828,88.668400 51.464828,88.668400 L 53.883411,87.829220 C 54.480240,85.879062 54.494925,82.757814 54.148544,74.687063 C 54.140956,73.887359 53.803158,73.124791 53.212239,72.573386 C 52.621321,72.021982 51.827709,71.728796 51.012516,71.760736 L 51.012516,71.760736 z "
       id="path860"
       sodipodi:nodetypes="cccccccccc" />
    <path
       style="fill:#ffbb00;fill-opacity:0.98076922;fill-rule:evenodd;stroke:none;stroke-width:1.2500000;stroke-linecap:round;stroke-linejoin:round;stroke-dasharray:none;stroke-opacity:1.0000000;"
       d="M 66.391116,69.721175 C 65.274171,69.705057 64.239633,70.295485 63.702511,71.255608 C 63.165389,72.215730 63.213682,73.388246 63.828016,74.302797 C 66.981735,79.111738 68.740622,81.490746 69.858840,82.786188 C 70.417950,83.433909 70.797164,83.809504 71.306238,84.175454 C 71.560775,84.358430 71.838073,84.551315 72.361632,84.707514 C 72.623412,84.785613 72.959290,84.865298 73.356718,84.855308 C 73.555431,84.850314 73.771311,84.817949 73.989954,84.766632 C 74.208597,84.715314 74.623191,84.530161 74.623191,84.530161 C 75.642113,84.046837 76.299120,83.044895 76.324551,81.935572 C 76.349981,80.826250 75.739552,79.796388 74.743807,79.268685 C 74.721284,79.244728 74.743660,79.257765 74.472420,78.943537 C 73.685549,78.031957 71.975025,75.808675 68.893908,71.110441 C 68.353170,70.262080 67.411435,69.739336 66.391116,69.721175 z "
       id="path861" />
    <path
       style="fill:#ffbb00;fill-opacity:0.98076922;fill-rule:evenodd;stroke:none;stroke-width:1.2500000;stroke-linecap:round;stroke-linejoin:round;stroke-dasharray:none;stroke-opacity:1.0000000;"
       d="M 75.678585,58.547929 C 74.350085,58.696737 73.280177,59.685317 73.050186,60.976530 C 72.820197,62.267745 73.485048,63.553240 74.683499,64.134552 C 78.173701,65.900386 82.495456,69.348908 85.388211,68.793319 C 87.781904,68.339597 87.987224,66.715782 87.794658,65.091968 C 87.396773,63.531843 86.007081,62.745623 77.457678,58.873076 C 76.912590,58.588708 76.291589,58.475214 75.678585,58.547929 z "
       id="path862"
       sodipodi:nodetypes="ccccccc" />
    <path
       style="fill:#ffbb00;fill-opacity:0.98076922;fill-rule:evenodd;stroke:none;stroke-width:1.2500000;stroke-linecap:round;stroke-linejoin:round;stroke-dasharray:none;stroke-opacity:1.0000000;"
       d="M 91.961809,43.561590 C 91.632442,43.568645 91.306480,43.628557 90.996877,43.738943 C 90.806306,43.756752 90.616620,43.767979 89.941483,43.798061 C 88.127488,43.878888 84.361647,43.945855 76.764133,43.945855 C 75.676667,43.930779 74.665161,44.490848 74.116940,45.411599 C 73.568719,46.332350 73.568719,47.471132 74.116940,48.391883 C 74.665161,49.312634 75.676667,49.872702 76.764133,49.857626 C 84.407336,49.857626 88.216687,49.769217 90.212870,49.680273 C 91.210962,49.635800 91.756981,49.617633 92.172888,49.562037 C 92.380841,49.534240 92.520387,49.522175 92.866433,49.414243 C 93.039455,49.360277 93.264565,49.308035 93.680594,49.029978 C 93.784601,48.960464 93.913245,48.851443 94.042443,48.734389 C 94.171642,48.617335 94.464368,48.291328 94.464601,48.291007 C 94.464833,48.290685 94.826392,47.552199 94.826450,47.552035 C 94.826508,47.551872 95.007375,46.576593 95.007375,46.576593 C 95.023644,45.777322 94.708990,45.005667 94.135172,44.437607 C 93.561353,43.869547 92.777297,43.553518 91.961809,43.561590 z "
       id="path863" />
    <path
       style="fill:#ffbb00;fill-opacity:0.98076922;fill-rule:evenodd;stroke:none;stroke-width:1.2500000;stroke-linecap:round;stroke-linejoin:round;stroke-dasharray:none;stroke-opacity:1.0000000;"
       d="M 90.972605,27.977944 C 87.789517,27.977944 87.788502,27.786775 76.372130,30.792166 C 75.287401,31.009164 74.411172,31.791333 74.089517,32.829751 C 73.767862,33.868168 74.052498,34.995865 74.831008,35.767450 C 75.609518,36.539035 76.756724,36.830444 77.819527,36.526583 C 83.039560,35.278537 91.518928,33.776796 91.823174,31.986779 C 93.330138,30.455486 92.051901,29.314223 90.972605,27.977944 z "
       id="path864"
       sodipodi:nodetypes="ccccccc" />
    <path
       style="fill:#ffbb00;fill-opacity:0.98076922;fill-rule:evenodd;stroke:none;stroke-width:1.2500000;stroke-linecap:round;stroke-linejoin:round;stroke-dasharray:none;stroke-opacity:1.0000000;"
       d="M 75.991520,10.632665 C 74.201033,11.607743 72.018707,13.571750 66.240346,21.894951 C 65.341048,23.274405 65.752812,25.107308 67.160047,25.988852 C 68.567281,26.870397 70.437094,26.466761 71.336392,25.087307 C 74.285321,20.562707 78.784860,15.324826 79.164070,13.460027 C 78.902326,11.932526 77.446923,10.795056 75.991520,10.632665 z "
       id="path865"
       sodipodi:nodetypes="cccccc" />
    <path
       style="fill:url(#radialGradient915);fill-opacity:0.75000000;fill-rule:evenodd;stroke:none;stroke-width:1.0000000pt;"
       d="M 58.218067,41.781933 C 58.218067,48.389411 52.611721,53.752002 45.703903,53.752002 C 38.796084,53.752002 33.189739,48.389411 33.189739,41.781933 C 33.189739,35.174454 38.796084,29.811863 45.703903,29.811863 C 52.611721,29.811863 58.218067,35.174454 58.218067,41.781933 z "
       id="path911" />
  </g>

  <rdf:RDF 
   xmlns="http://web.resource.org/cc/"
   xmlns:dc="http://purl.org/dc/elements/1.1/"
   xmlns:rdf="http://www.w3.org/1999/02/22-rdf-syntax-ns#">
  <Work rdf:about="">
    <dc:title>Clipart by Nicu Buculei - w_cloud</dc:title>
    <dc:rights>
       <Agent>
         <dc:title>Nicu Buculei</dc:title>
       </Agent>
    </dc:rights>
    <dc:type rdf:resource="http://purl.org/dc/dcmitype/StillImage" />
    <license rdf:resource="http://web.resource.org/cc/PublicDomain" />
  </Work>
   
  <License rdf:about="http://web.resource.org/cc/PublicDomain">
     <permits rdf:resource="http://web.resource.org/cc/Reproduction" />
     <permits rdf:resource="http://web.resource.org/cc/Distribution" />
     <permits rdf:resource="http://web.resource.org/cc/DerivativeWorks" />
  </License>

</rdf:RDF>
</svg>
