
<svg clip-rule="evenodd" fill-rule="evenodd" height=".24in"
     image-rendering="optimizeQuality" shape-rendering="geometricPrecision"
     text-rendering="geometricPrecision" viewBox="0 0 .24 .24" width=".24in"
     xmlns="http://www.w3.org/2000/svg"
     xmlns:xlink="http://www.w3.org/1999/xlink">
    <linearGradient id="a" gradientUnits="userSpaceOnUse" x1=".159465"
                    x2=".074134" y1=".098878" y2=".088217">
        <stop offset="0" stop-color="#fad3a2"/>
        <stop offset=".611765" stop-color="#fce951"/>
        <stop offset="1" stop-color="#ff0"/>
    </linearGradient>
    <linearGradient id="b" gradientUnits="userSpaceOnUse" x1=".254559"
                    x2=".085685" xlink:href="#a" y1=".170555" y2=".149445"/>
    <linearGradient id="c" gradientUnits="userSpaceOnUse" x1=".014189"
                    x2=".088146" y1=".115488" y2=".049756">
        <stop offset="0" stop-color="#e1c19b"/>
        <stop offset=".611765" stop-color="#e4d45b"/>
        <stop offset="1" stop-color="#e7e71a"/>
    </linearGradient>
    <linearGradient id="d" gradientUnits="userSpaceOnUse" x1=".029555"
                    x2=".142886" xlink:href="#c" y1=".196398" y2=".095665"/>
    <linearGradient id="e" gradientUnits="userSpaceOnUse" x1=".087409"
                    x2=".116555" y1=".110709" y2=".092059">
        <stop offset="0" stop-color="#0cf"/>
        <stop offset=".611765" stop-color="#4ccce6"/>
        <stop offset="1" stop-color="#9cc"/>
    </linearGradient>
    <linearGradient id="f" gradientUnits="userSpaceOnUse" x1=".121941"
                    x2=".14778" xlink:href="#e" y1=".100744" y2=".084213"/>
    <linearGradient id="g" gradientUnits="userSpaceOnUse" x1=".077354"
                    x2=".128331" y1=".07861" y2=".017059">
        <stop offset="0" stop-color="#c93"/>
        <stop offset="1" stop-color="#f93"/>
    </linearGradient>
    <linearGradient id="h" gradientUnits="userSpaceOnUse" x1=".130957"
                    x2=".171366" xlink:href="#e" y1=".18289" y2=".157031"/>
    <linearGradient id="i" gradientUnits="userSpaceOnUse" x1=".133945"
                    x2=".214071" xlink:href="#g" y1=".144945" y2=".048205"/>
    <linearGradient id="j" gradientUnits="userSpaceOnUse" x1=".175374"
                    x2=".21102" xlink:href="#e" y1=".169992" y2=".147181"/>
    <path d="m.0388189.0271496-.03035433.0290512.01390943-.0014646.0238701-.0282086z"
          fill="#c30" stroke="#c30" stroke-linecap="round"
          stroke-linejoin="round" stroke-width=".003"/>
    <path d="m.0237992.108732c-.00025197-.00953543-.00050787-.0192362-.00076772-.0290709-.00026378-.00998425-.0005315-.0201457-.00080709-.0304528.00346063-.00325591.00711811-.00670866.0109764-.0103465.00409449-.00385433.00843307-.00796457.0130433-.0123346.00493307.00461811.010126.00947244.0155866.0145394.00575984.00534646.0118504.0110039.0182795.0169567-.00024803.0141732-.00049213.0280669-.00072835.0416378-.00023228.0132795-.00046457.026315-.00068898.0390512-.0117717-.00642913-.0222756-.0121654-.031689-.0173071-.00848425-.00463386-.0161929-.00884252-.0232047-.0126732z"
          fill="url(#c)" stroke="#993" stroke-linecap="round"
          stroke-linejoin="round" stroke-width=".003"/>
    <path d="m.0395354.0849134c.00232677.0008189.00472441.00166535.00718898.00252756.00253543.00088976.00514567.00181102.00785433.00275984.0015748.00055118.00288189.00192126.00288189.00302756v.0171811c0 .00562205-.00000394.0112047-.00000394.0167087-.00362598-.00198425-.00711024-.00388583-.0104528-.0057126-.00322441-.00176378-.00632677-.00345669-.00932677-.00509449-.0000748-.00495276-.00016142-.00997244-.00023622-.0150197-.00007874-.00508661-.00016142-.0102362-.00024016-.0154055-.00001575-.00098819.00102756-.00143307.00233465-.00097244z"
          fill="#9f9" stroke="#696" stroke-linecap="round"
          stroke-linejoin="round" stroke-width=".003"/>
    <path d="m.0790984.138567c.0139606-.00499213.0269173-.00962992.0389567-.0139291.0112126-.00401181.0217047-.00775984.0315315-.0112677.00078347-.0103504.00157874-.0208858.0023937-.0315945.00082284-.0108858.00166535-.0219685.00252362-.033252-.010185.00144882-.0210984.003-.0327992.00466535-.0126299.00179528-.0262717.00373622-.0410394.00583465-.00027559.0139843-.00054724.0276575-.00081102.0410354-.00025591.0131063-.00050787.0259409-.00075591.0385079z"
          fill="url(#a)" stroke="#ff6" stroke-linecap="round"
          stroke-linejoin="round" stroke-width=".003"/>
    <path d="m.0919685.0860276c.00710236-.00128346.0141457-.00348425.0213346-.00480315.00112205-.00020472.00198031.00081102.00191339.00224803-.00022047.00475197-.00045276.00948425-.00067323.0141614-.00022047.00464567-.00044095.00927559-.00065748.0138465-.00006299.00138583-.00102362.00276772-.00211811.00307087-.00706693.00197244-.0138622.00490551-.0208268.00685039-.00125197.00034646-.00225984-.00057087-.00221654-.00204724.00013386-.00490157.00026378-.00987008.00039764-.0148583.0001378-.00502756.00027953-.0101102.00041732-.0152126.00004331-.00155118.00114961-.00302362.00242913-.00325591z"
          fill="url(#e)" stroke="#ccf" stroke-linecap="round"
          stroke-linejoin="round" stroke-width=".003"/>
    <path d="m.126823.0783228c.00602362-.00110236.0120551-.00285433.0180787-.00394882.00092913-.00016535.00161024.00077953.00151575.00208268-.00030315.00433465-.00061417.00865748-.00091732.0129331-.00030315.00424409-.0006063.00847244-.00090158.0126654-.00009055.00126378-.00089764.00251575-.00181496.00277165-.00591732.00166142-.0118465.00397638-.0177598.0056378-.00103543.0002874-.00181102-.0005748-.00174016-.00192126.00024409-.00446063.00049213-.00898031.00074016-.0135079.00024803-.00456693.00049606-.00917717.00074803-.0138071.0000748-.00140551.00100787-.00271654.00205118-.00290551z"
          fill="url(#f)" stroke="#ccf" stroke-linecap="round"
          stroke-linejoin="round" stroke-width=".003"/>
    <path d="m.0388189.0271496.0486181.0462717.079429-.0141457-.038488-.0370236z"
          fill="url(#g)" stroke="#c30" stroke-linecap="round"
          stroke-linejoin="round" stroke-width=".003"/>
    <path d="m.047421.029587.041583.040338" fill="none" stroke="#fc0"
          stroke-linecap="round" stroke-linejoin="round" stroke-width=".006665"/>
    <path d="m.066858.048441.022146.021484" fill="none" stroke="#fc9"
          stroke-linecap="round" stroke-linejoin="round" stroke-width=".006665"/>
    <path d="m.164402.056909-.067937.011697" fill="none" stroke="#f63"
          stroke-linecap="round" stroke-linejoin="round" stroke-width=".006665"/>
    <path d="m.145091.059728-.048626.008878" fill="none" stroke="#fc0"
          stroke-linecap="round" stroke-linejoin="round" stroke-width=".006665"/>
    <path d="m.120776.064169-.031772.005756" fill="none" stroke="#fc9"
          stroke-linecap="round" stroke-linejoin="round" stroke-width=".006665"/>
    <path d="m.080264.079543-.001166.059024" fill="none" stroke="#ff9"
          stroke-width=".003"/>
    <path d="m.079681.109055-.000583.029512" fill="none" stroke="#ffc"
          stroke-width=".003"/>
    <g stroke-linecap="round" stroke-linejoin="round">
        <path d="m.149587.11337.003917-.0517125.013362-.0023819-.038488-.0370236-.0895591.0048976-.03035433.0290512.01390943-.0014646.0014252.0539958.0548937.029981z"
              fill="none" stroke="#4c4c4c" stroke-width=".006665"/>
        <path d="m.0660354.0717874c-.011622.0135079-.0230945.0268307-.0344094.0399803.00515748-.00097244.0103898-.0019685.015622-.00297244.0090748-.0127362.0182165-.0256102.0274331-.038622-.00288189.00055118-.00576378.00109843-.00864567.00161417z"
              fill="#c30" stroke="#c30" stroke-width=".003"/>
        <path d="m.0490197.178516c-.00033071-.0123976-.00064567-.0249724-.00096457-.037689-.00015748-.00641732-.00034646-.0129094-.0005-.0194291-.00015354-.00651969-.00032677-.0130827-.00048032-.0196575.00392126-.00449213.00809449-.00924409.0125276-.0142835.00471654-.00535827.00973622-.011126.0150787-.0172835.0058622.00544094.0120748.0112244.0186575.017315.00701181.00648819.0145472.0134252.0225512.0208071-.00006299.00951969-.0001378.0189606-.00019291.028315-.00005512.00938583-.00012205.0186811-.0001811.0278701-.00005512.00903543-.00015748.0179921-.00021654.0268661-.00006299.00888583-.0001063.0176969-.00016142.0263976-.0147126-.00869685-.0275866-.0163622-.0389252-.0230945-.0100748-.00598425-.0190984-.011315-.0271929-.0161339z"
              fill="url(#d)" stroke="#993" stroke-width=".003"/>
        <path d="m.0671772.14674c.00273622.00093307.00555906.0019252.00849213.00294094.003.00103543.00612205.00212992.00938189.00324409.00187402.00064173.00347244.0024252.00348031.00388976.00005118.00768898.00009843.0153701.00014173.0229173.00003937.00753937.00008268.0150118.00013386.0224252-.00438189-.00262205-.00857874-.00512598-.0125945-.00750787-.00384252-.00227953-.0075315-.00444882-.0110512-.00654724-.00012992-.00653937-.00025197-.0131378-.00036614-.0197835-.00011811-.00667323-.00023228-.0134291-.00034252-.020189-.00001968-.00127953.0011811-.00191732.00272441-.00138976z"
              fill="#9f9" stroke="#696" stroke-width=".003"/>
        <path d="m.115642.217555c.0176339-.0069252.0343819-.0134724.0501929-.0196654.0149961-.00587402.0292717-.0114724.0428504-.0167913.00039764-.00747244.00079921-.0150039.00120079-.0225827.00040158-.00755118.00082677-.0151969.00124803-.0228976.0004252-.00778346.00084646-.0156614.00126378-.0236102.00041732-.00790945.00087008-.0158937.00130709-.0239409-.0140709.00311417-.0289213.00641732-.0445394.00987795-.00832677.00184646-.0168819.00373622-.0256929.00568504-.0087126.00192913-.0176732.00390945-.0268661.00595669-.0001063.00941339-.0002126.0187283-.00027559.0279488-.00006693.00924409-.00013386.0184055-.00022441.0274724-.00008661.00891732-.00016929.017748-.00024016.0265-.00007087.00876378-.00014567.0174567-.00022441.0260472z"
              fill="url(#b)" stroke="#ff6" stroke-width=".003"/>
        <path d="m.131169.145315c.00906693-.00217323.018122-.00564961.0274882-.00790551.00147638-.00035433.00262992.00100787.0025748.00299213-.00019291.00662205-.00043701.0132244-.00062992.0197441-.00019291.00648031-.0003937.0129646-.0005748.0193622-.00005512.00193701-.00131496.00391339-.00274016.00436614-.00922047.00292126-.0179921.0071378-.0269016.0099685-.00159055.00050394-.00288583-.00073622-.00285827-.00277559.00009055-.00672835.00020079-.0135551.00029134-.0203937.00009055-.00687402.00022441-.0138307.00032677-.0207874.0000315-.00211811.00140157-.00418504.00302362-.00457087z"
              fill="url(#h)" stroke="#ccf" stroke-width=".003"/>
        <path d="m.176543.132457c.00811417-.0019685.0162874-.00487402.0245551-.00687008.00125591-.00030315.00223228.00099213.00214173.00285039-.00031102.00616929-.00060236.0123543-.00090551.0184764-.00029921.00605906-.00063386.0120984-.00091732.0181181-.00008661.0018189-.00118504.00364173-.00244094.00404331-.00811417.00259449-.0161614.00609843-.0241142.00864173-.00138976.00044095-.00244882-.00074016-.00238583-.00264173.00022047-.0062874.00047244-.0126575.00069685-.0190315.00022835-.00640157.00044095-.0128858.00068898-.0193937.00007087-.00195669.00130709-.0038622.0026811-.00419291z"
              fill="url(#j)" stroke="#ccf" stroke-width=".003"/>
        <path d="m.0660354.0717874c.0095.00912598.0191654.0183661.0289528.0277323.0099252.00949606.0200276.0191457.030248.028937.0168071-.00414173.0339843-.00839764.0514882-.0127244.0178661-.00441732.0361457-.00893701.0548071-.0135827-.00932677-.00820079-.0185236-.0162717-.0276024-.0242638-.00895669-.00788189-.0178031-.0156969-.0265591-.0234173-.0196575.0030748-.0388661.00606299-.0576142.00897244-.0182953.00284252-.0362087.00562598-.0537205.00834646z"
              fill="url(#i)" stroke="#c30" stroke-width=".003"/>
        <path d="m.0760945.0739921c.00823622.00802756.0166102.0161496.0250551.0243622.00854724.00831102.0172323.0167323.0260157.0252598"
              fill="none" stroke="#fc0" stroke-width=".006665"/>
        <path d="m.0994961.0967205c.00911024.00883858.0183189.0178031.0276693.0268937"
              fill="none" stroke="#fc9" stroke-width=".006665"/>
        <path d="m.227917.0989882c-.0159094.00388976-.0315472.00771654-.046878.0114528-.0150551.00366535-.0298898.00729134-.0444055.0108228"
              fill="none" stroke="#f63" stroke-width=".006665"/>
        <path d="m.200957.104854c-.0110787.00282677-.0220236.00561811-.0328071.00836614-.0106339.0027126-.0211535.00540551-.0315157.00804331"
              fill="none" stroke="#fc0" stroke-width=".006665"/>
        <path d="m.168169.113217c-.0138858.00353543-.027563.00701181-.0410039.0103976"
              fill="none" stroke="#fc9" stroke-width=".006665"/>
    </g>
    <path d="m.116346.13722c-.00012598.0133071-.00025197.0266772-.00035827.0400197-.0001063.0134055-.00021654.0268543-.00034646.040315"
          fill="none" stroke="#ff9" stroke-width=".003"/>
    <path d="m.115988.177224c-.00005512.00672835-.00011024.0134409-.00016142.0201457-.00005118.00672441-.00012992.0134606-.00018504.020185"
          fill="none" stroke="#ffc" stroke-width=".003"/>
    <path d="m.208685.181098c.00065748-.012437.00133858-.0248543.00199213-.037248.00064961-.012374.00132283-.0247126.00201181-.0370276.00621654-.00154724.0124882-.00310236.0188425-.00467323-.00932677-.00820079-.0185236-.0162717-.0276024-.0242638-.00895669-.00788189-.0178031-.0156969-.0265591-.0234173-.0196575.0030748-.0388661.00606299-.0576142.00897244-.0182953.00284252-.0362087.00562598-.0537205.00834646-.011622.0135079-.0230945.0268307-.0344094.0399803.00515748-.00097244.0103898-.0019685.015622-.00297244.00030315.0115472.00058268.0231378.00087402.0347205.00029528.011622.00059055.023311.00089764.035.0105827.00629528.0213583.0126929.0322598.0191654.0110906.00658661.0223976.0132795.0338583.020063.0148937-.00581496.0300787-.0117638.0455157-.0178071.0157244-.00615354.0317283-.0124488.0480315-.0188386z"
          fill="none" stroke="#4c4c4c" stroke-linecap="round"
          stroke-linejoin="round" stroke-width=".006665"/>
</svg>