<?xml version="1.0" encoding="utf-8" standalone="no"?>
<!DOCTYPE svg PUBLIC "-//W3C//DTD SVG 1.1//EN"
  "http://www.w3.org/Graphics/SVG/1.1/DTD/svg11.dtd">
<!-- Created with matplotlib (https://matplotlib.org/) -->
<svg height="288pt" version="1.1" viewBox="0 0 432 288" width="432pt" xmlns="http://www.w3.org/2000/svg" xmlns:xlink="http://www.w3.org/1999/xlink">
 <defs>
  <style type="text/css">
*{stroke-linecap:butt;stroke-linejoin:round;}
  </style>
 </defs>
 <g id="figure_1">
  <g id="patch_1">
   <path d="M 0 288 
L 432 288 
L 432 0 
L 0 0 
z
" style="fill:#ffffff;"/>
  </g>
  <g id="axes_1">
   <g id="patch_2">
    <path d="M 56.55 253.033333 
L 419.5125 253.033333 
L 419.5125 22.4 
L 56.55 22.4 
z
" style="fill:#ffffff;"/>
   </g>
   <g id="patch_3">
    <path clip-path="url(#p6f4a59d327)" d="M 99.029863 253.033333 
L 110.721569 253.033333 
L 110.721569 201.860352 
L 99.029863 201.860352 
z
" style="fill:#2ca02c;"/>
   </g>
   <g id="patch_4">
    <path clip-path="url(#p6f4a59d327)" d="M 147.745302 253.033333 
L 159.437008 253.033333 
L 159.437008 90.940911 
L 147.745302 90.940911 
z
" style="fill:#2ca02c;"/>
   </g>
   <g id="patch_5">
    <path clip-path="url(#p6f4a59d327)" d="M 196.460742 253.033333 
L 208.152447 253.033333 
L 208.152447 50.944318 
L 196.460742 50.944318 
z
" style="fill:#2ca02c;"/>
   </g>
   <g id="patch_6">
    <path clip-path="url(#p6f4a59d327)" d="M 245.176181 253.033333 
L 256.867887 253.033333 
L 256.867887 43.830747 
L 245.176181 43.830747 
z
" style="fill:#2ca02c;"/>
   </g>
   <g id="patch_7">
    <path clip-path="url(#p6f4a59d327)" d="M 293.89162 253.033333 
L 305.583326 253.033333 
L 305.583326 51.201234 
L 293.89162 51.201234 
z
" style="fill:#2ca02c;"/>
   </g>
   <g id="patch_8">
    <path clip-path="url(#p6f4a59d327)" d="M 342.60706 253.033333 
L 354.298765 253.033333 
L 354.298765 72.845229 
L 342.60706 72.845229 
z
" style="fill:#2ca02c;"/>
   </g>
   <g id="patch_9">
    <path clip-path="url(#p6f4a59d327)" d="M 391.322499 253.033333 
L 403.014205 253.033333 
L 403.014205 96.428569 
L 391.322499 96.428569 
z
" style="fill:#2ca02c;"/>
   </g>
   <g id="patch_10">
    <path clip-path="url(#p6f4a59d327)" d="M 86.039079 253.033333 
L 97.730785 253.033333 
L 97.730785 154.678692 
L 86.039079 154.678692 
z
" style="fill:#ff7f0e;"/>
   </g>
   <g id="patch_11">
    <path clip-path="url(#p6f4a59d327)" d="M 134.754519 253.033333 
L 146.446224 253.033333 
L 146.446224 57.333889 
L 134.754519 57.333889 
z
" style="fill:#ff7f0e;"/>
   </g>
   <g id="patch_12">
    <path clip-path="url(#p6f4a59d327)" d="M 183.469958 253.033333 
L 195.161663 253.033333 
L 195.161663 42.601384 
L 183.469958 42.601384 
z
" style="fill:#ff7f0e;"/>
   </g>
   <g id="patch_13">
    <path clip-path="url(#p6f4a59d327)" d="M 232.185397 253.033333 
L 243.877103 253.033333 
L 243.877103 52.758668 
L 232.185397 52.758668 
z
" style="fill:#ff7f0e;"/>
   </g>
   <g id="patch_14">
    <path clip-path="url(#p6f4a59d327)" d="M 280.900837 253.033333 
L 292.592542 253.033333 
L 292.592542 67.635593 
L 280.900837 67.635593 
z
" style="fill:#ff7f0e;"/>
   </g>
   <g id="patch_15">
    <path clip-path="url(#p6f4a59d327)" d="M 329.616276 253.033333 
L 341.307981 253.033333 
L 341.307981 97.54061 
L 329.616276 97.54061 
z
" style="fill:#ff7f0e;"/>
   </g>
   <g id="patch_16">
    <path clip-path="url(#p6f4a59d327)" d="M 378.331715 253.033333 
L 390.023421 253.033333 
L 390.023421 120.340233 
L 378.331715 120.340233 
z
" style="fill:#ff7f0e;"/>
   </g>
   <g id="patch_17">
    <path clip-path="url(#p6f4a59d327)" d="M 73.048295 253.033333 
L 84.740001 253.033333 
L 84.740001 81.546515 
L 73.048295 81.546515 
z
" style="fill:#1f77b4;"/>
   </g>
   <g id="patch_18">
    <path clip-path="url(#p6f4a59d327)" d="M 121.763735 253.033333 
L 133.45544 253.033333 
L 133.45544 39.035314 
L 121.763735 39.035314 
z
" style="fill:#1f77b4;"/>
   </g>
   <g id="patch_19">
    <path clip-path="url(#p6f4a59d327)" d="M 170.479174 253.033333 
L 182.17088 253.033333 
L 182.17088 59.352592 
L 170.479174 59.352592 
z
" style="fill:#1f77b4;"/>
   </g>
   <g id="patch_20">
    <path clip-path="url(#p6f4a59d327)" d="M 219.194613 253.033333 
L 230.886319 253.033333 
L 230.886319 84.344719 
L 219.194613 84.344719 
z
" style="fill:#1f77b4;"/>
   </g>
   <g id="patch_21">
    <path clip-path="url(#p6f4a59d327)" d="M 267.910053 253.033333 
L 279.601758 253.033333 
L 279.601758 102.548083 
L 267.910053 102.548083 
z
" style="fill:#1f77b4;"/>
   </g>
   <g id="patch_22">
    <path clip-path="url(#p6f4a59d327)" d="M 316.625492 253.033333 
L 328.317198 253.033333 
L 328.317198 132.992717 
L 316.625492 132.992717 
z
" style="fill:#1f77b4;"/>
   </g>
   <g id="patch_23">
    <path clip-path="url(#p6f4a59d327)" d="M 365.340931 253.033333 
L 377.032637 253.033333 
L 377.032637 154.548528 
L 365.340931 154.548528 
z
" style="fill:#1f77b4;"/>
   </g>
   <g id="matplotlib.axis_1">
    <g id="xtick_1">
     <g id="line2d_1">
      <path clip-path="url(#p6f4a59d327)" d="M 91.884932 253.033333 
L 91.884932 22.4 
" style="fill:none;stroke:#b0b0b0;stroke-linecap:square;stroke-width:0.8;"/>
     </g>
     <g id="line2d_2">
      <defs>
       <path d="M 0 0 
L 0 3.5 
" id="m653e069e9d" style="stroke:#000000;stroke-width:0.8;"/>
      </defs>
      <g>
       <use style="stroke:#000000;stroke-width:0.8;" x="91.884932" xlink:href="#m653e069e9d" y="253.033333"/>
      </g>
     </g>
     <g id="text_1">
      <!-- 1 -->
      <defs>
       <path d="M 12.40625 8.296875 
L 28.515625 8.296875 
L 28.515625 63.921875 
L 10.984375 60.40625 
L 10.984375 69.390625 
L 28.421875 72.90625 
L 38.28125 72.90625 
L 38.28125 8.296875 
L 54.390625 8.296875 
L 54.390625 0 
L 12.40625 0 
z
" id="DejaVuSans-49"/>
      </defs>
      <g transform="translate(88.703682 267.631771)scale(0.1 -0.1)">
       <use xlink:href="#DejaVuSans-49"/>
      </g>
     </g>
    </g>
    <g id="xtick_2">
     <g id="line2d_3">
      <path clip-path="url(#p6f4a59d327)" d="M 140.600371 253.033333 
L 140.600371 22.4 
" style="fill:none;stroke:#b0b0b0;stroke-linecap:square;stroke-width:0.8;"/>
     </g>
     <g id="line2d_4">
      <g>
       <use style="stroke:#000000;stroke-width:0.8;" x="140.600371" xlink:href="#m653e069e9d" y="253.033333"/>
      </g>
     </g>
     <g id="text_2">
      <!-- 2 -->
      <defs>
       <path d="M 19.1875 8.296875 
L 53.609375 8.296875 
L 53.609375 0 
L 7.328125 0 
L 7.328125 8.296875 
Q 12.9375 14.109375 22.625 23.890625 
Q 32.328125 33.6875 34.8125 36.53125 
Q 39.546875 41.84375 41.421875 45.53125 
Q 43.3125 49.21875 43.3125 52.78125 
Q 43.3125 58.59375 39.234375 62.25 
Q 35.15625 65.921875 28.609375 65.921875 
Q 23.96875 65.921875 18.8125 64.3125 
Q 13.671875 62.703125 7.8125 59.421875 
L 7.8125 69.390625 
Q 13.765625 71.78125 18.9375 73 
Q 24.125 74.21875 28.421875 74.21875 
Q 39.75 74.21875 46.484375 68.546875 
Q 53.21875 62.890625 53.21875 53.421875 
Q 53.21875 48.921875 51.53125 44.890625 
Q 49.859375 40.875 45.40625 35.40625 
Q 44.1875 33.984375 37.640625 27.21875 
Q 31.109375 20.453125 19.1875 8.296875 
z
" id="DejaVuSans-50"/>
      </defs>
      <g transform="translate(137.419121 267.631771)scale(0.1 -0.1)">
       <use xlink:href="#DejaVuSans-50"/>
      </g>
     </g>
    </g>
    <g id="xtick_3">
     <g id="line2d_5">
      <path clip-path="url(#p6f4a59d327)" d="M 189.315811 253.033333 
L 189.315811 22.4 
" style="fill:none;stroke:#b0b0b0;stroke-linecap:square;stroke-width:0.8;"/>
     </g>
     <g id="line2d_6">
      <g>
       <use style="stroke:#000000;stroke-width:0.8;" x="189.315811" xlink:href="#m653e069e9d" y="253.033333"/>
      </g>
     </g>
     <g id="text_3">
      <!-- 3 -->
      <defs>
       <path d="M 40.578125 39.3125 
Q 47.65625 37.796875 51.625 33 
Q 55.609375 28.21875 55.609375 21.1875 
Q 55.609375 10.40625 48.1875 4.484375 
Q 40.765625 -1.421875 27.09375 -1.421875 
Q 22.515625 -1.421875 17.65625 -0.515625 
Q 12.796875 0.390625 7.625 2.203125 
L 7.625 11.71875 
Q 11.71875 9.328125 16.59375 8.109375 
Q 21.484375 6.890625 26.8125 6.890625 
Q 36.078125 6.890625 40.9375 10.546875 
Q 45.796875 14.203125 45.796875 21.1875 
Q 45.796875 27.640625 41.28125 31.265625 
Q 36.765625 34.90625 28.71875 34.90625 
L 20.21875 34.90625 
L 20.21875 43.015625 
L 29.109375 43.015625 
Q 36.375 43.015625 40.234375 45.921875 
Q 44.09375 48.828125 44.09375 54.296875 
Q 44.09375 59.90625 40.109375 62.90625 
Q 36.140625 65.921875 28.71875 65.921875 
Q 24.65625 65.921875 20.015625 65.03125 
Q 15.375 64.15625 9.8125 62.3125 
L 9.8125 71.09375 
Q 15.4375 72.65625 20.34375 73.4375 
Q 25.25 74.21875 29.59375 74.21875 
Q 40.828125 74.21875 47.359375 69.109375 
Q 53.90625 64.015625 53.90625 55.328125 
Q 53.90625 49.265625 50.4375 45.09375 
Q 46.96875 40.921875 40.578125 39.3125 
z
" id="DejaVuSans-51"/>
      </defs>
      <g transform="translate(186.134561 267.631771)scale(0.1 -0.1)">
       <use xlink:href="#DejaVuSans-51"/>
      </g>
     </g>
    </g>
    <g id="xtick_4">
     <g id="line2d_7">
      <path clip-path="url(#p6f4a59d327)" d="M 238.03125 253.033333 
L 238.03125 22.4 
" style="fill:none;stroke:#b0b0b0;stroke-linecap:square;stroke-width:0.8;"/>
     </g>
     <g id="line2d_8">
      <g>
       <use style="stroke:#000000;stroke-width:0.8;" x="238.03125" xlink:href="#m653e069e9d" y="253.033333"/>
      </g>
     </g>
     <g id="text_4">
      <!-- 4 -->
      <defs>
       <path d="M 37.796875 64.3125 
L 12.890625 25.390625 
L 37.796875 25.390625 
z
M 35.203125 72.90625 
L 47.609375 72.90625 
L 47.609375 25.390625 
L 58.015625 25.390625 
L 58.015625 17.1875 
L 47.609375 17.1875 
L 47.609375 0 
L 37.796875 0 
L 37.796875 17.1875 
L 4.890625 17.1875 
L 4.890625 26.703125 
z
" id="DejaVuSans-52"/>
      </defs>
      <g transform="translate(234.85 267.631771)scale(0.1 -0.1)">
       <use xlink:href="#DejaVuSans-52"/>
      </g>
     </g>
    </g>
    <g id="xtick_5">
     <g id="line2d_9">
      <path clip-path="url(#p6f4a59d327)" d="M 286.746689 253.033333 
L 286.746689 22.4 
" style="fill:none;stroke:#b0b0b0;stroke-linecap:square;stroke-width:0.8;"/>
     </g>
     <g id="line2d_10">
      <g>
       <use style="stroke:#000000;stroke-width:0.8;" x="286.746689" xlink:href="#m653e069e9d" y="253.033333"/>
      </g>
     </g>
     <g id="text_5">
      <!-- 5 -->
      <defs>
       <path d="M 10.796875 72.90625 
L 49.515625 72.90625 
L 49.515625 64.59375 
L 19.828125 64.59375 
L 19.828125 46.734375 
Q 21.96875 47.46875 24.109375 47.828125 
Q 26.265625 48.1875 28.421875 48.1875 
Q 40.625 48.1875 47.75 41.5 
Q 54.890625 34.8125 54.890625 23.390625 
Q 54.890625 11.625 47.5625 5.09375 
Q 40.234375 -1.421875 26.90625 -1.421875 
Q 22.3125 -1.421875 17.546875 -0.640625 
Q 12.796875 0.140625 7.71875 1.703125 
L 7.71875 11.625 
Q 12.109375 9.234375 16.796875 8.0625 
Q 21.484375 6.890625 26.703125 6.890625 
Q 35.15625 6.890625 40.078125 11.328125 
Q 45.015625 15.765625 45.015625 23.390625 
Q 45.015625 31 40.078125 35.4375 
Q 35.15625 39.890625 26.703125 39.890625 
Q 22.75 39.890625 18.8125 39.015625 
Q 14.890625 38.140625 10.796875 36.28125 
z
" id="DejaVuSans-53"/>
      </defs>
      <g transform="translate(283.565439 267.631771)scale(0.1 -0.1)">
       <use xlink:href="#DejaVuSans-53"/>
      </g>
     </g>
    </g>
    <g id="xtick_6">
     <g id="line2d_11">
      <path clip-path="url(#p6f4a59d327)" d="M 335.462129 253.033333 
L 335.462129 22.4 
" style="fill:none;stroke:#b0b0b0;stroke-linecap:square;stroke-width:0.8;"/>
     </g>
     <g id="line2d_12">
      <g>
       <use style="stroke:#000000;stroke-width:0.8;" x="335.462129" xlink:href="#m653e069e9d" y="253.033333"/>
      </g>
     </g>
     <g id="text_6">
      <!-- 7 -->
      <defs>
       <path d="M 8.203125 72.90625 
L 55.078125 72.90625 
L 55.078125 68.703125 
L 28.609375 0 
L 18.3125 0 
L 43.21875 64.59375 
L 8.203125 64.59375 
z
" id="DejaVuSans-55"/>
      </defs>
      <g transform="translate(332.280879 267.631771)scale(0.1 -0.1)">
       <use xlink:href="#DejaVuSans-55"/>
      </g>
     </g>
    </g>
    <g id="xtick_7">
     <g id="line2d_13">
      <path clip-path="url(#p6f4a59d327)" d="M 384.177568 253.033333 
L 384.177568 22.4 
" style="fill:none;stroke:#b0b0b0;stroke-linecap:square;stroke-width:0.8;"/>
     </g>
     <g id="line2d_14">
      <g>
       <use style="stroke:#000000;stroke-width:0.8;" x="384.177568" xlink:href="#m653e069e9d" y="253.033333"/>
      </g>
     </g>
     <g id="text_7">
      <!-- 9 -->
      <defs>
       <path d="M 10.984375 1.515625 
L 10.984375 10.5 
Q 14.703125 8.734375 18.5 7.8125 
Q 22.3125 6.890625 25.984375 6.890625 
Q 35.75 6.890625 40.890625 13.453125 
Q 46.046875 20.015625 46.78125 33.40625 
Q 43.953125 29.203125 39.59375 26.953125 
Q 35.25 24.703125 29.984375 24.703125 
Q 19.046875 24.703125 12.671875 31.3125 
Q 6.296875 37.9375 6.296875 49.421875 
Q 6.296875 60.640625 12.9375 67.421875 
Q 19.578125 74.21875 30.609375 74.21875 
Q 43.265625 74.21875 49.921875 64.515625 
Q 56.59375 54.828125 56.59375 36.375 
Q 56.59375 19.140625 48.40625 8.859375 
Q 40.234375 -1.421875 26.421875 -1.421875 
Q 22.703125 -1.421875 18.890625 -0.6875 
Q 15.09375 0.046875 10.984375 1.515625 
z
M 30.609375 32.421875 
Q 37.25 32.421875 41.125 36.953125 
Q 45.015625 41.5 45.015625 49.421875 
Q 45.015625 57.28125 41.125 61.84375 
Q 37.25 66.40625 30.609375 66.40625 
Q 23.96875 66.40625 20.09375 61.84375 
Q 16.21875 57.28125 16.21875 49.421875 
Q 16.21875 41.5 20.09375 36.953125 
Q 23.96875 32.421875 30.609375 32.421875 
z
" id="DejaVuSans-57"/>
      </defs>
      <g transform="translate(380.996318 267.631771)scale(0.1 -0.1)">
       <use xlink:href="#DejaVuSans-57"/>
      </g>
     </g>
    </g>
    <g id="text_8">
     <!-- iaMean -->
     <defs>
      <path d="M 9.421875 54.6875 
L 18.40625 54.6875 
L 18.40625 0 
L 9.421875 0 
z
M 9.421875 75.984375 
L 18.40625 75.984375 
L 18.40625 64.59375 
L 9.421875 64.59375 
z
" id="DejaVuSans-105"/>
      <path d="M 34.28125 27.484375 
Q 23.390625 27.484375 19.1875 25 
Q 14.984375 22.515625 14.984375 16.5 
Q 14.984375 11.71875 18.140625 8.90625 
Q 21.296875 6.109375 26.703125 6.109375 
Q 34.1875 6.109375 38.703125 11.40625 
Q 43.21875 16.703125 43.21875 25.484375 
L 43.21875 27.484375 
z
M 52.203125 31.203125 
L 52.203125 0 
L 43.21875 0 
L 43.21875 8.296875 
Q 40.140625 3.328125 35.546875 0.953125 
Q 30.953125 -1.421875 24.3125 -1.421875 
Q 15.921875 -1.421875 10.953125 3.296875 
Q 6 8.015625 6 15.921875 
Q 6 25.140625 12.171875 29.828125 
Q 18.359375 34.515625 30.609375 34.515625 
L 43.21875 34.515625 
L 43.21875 35.40625 
Q 43.21875 41.609375 39.140625 45 
Q 35.0625 48.390625 27.6875 48.390625 
Q 23 48.390625 18.546875 47.265625 
Q 14.109375 46.140625 10.015625 43.890625 
L 10.015625 52.203125 
Q 14.9375 54.109375 19.578125 55.046875 
Q 24.21875 56 28.609375 56 
Q 40.484375 56 46.34375 49.84375 
Q 52.203125 43.703125 52.203125 31.203125 
z
" id="DejaVuSans-97"/>
      <path d="M 9.8125 72.90625 
L 24.515625 72.90625 
L 43.109375 23.296875 
L 61.8125 72.90625 
L 76.515625 72.90625 
L 76.515625 0 
L 66.890625 0 
L 66.890625 64.015625 
L 48.09375 14.015625 
L 38.1875 14.015625 
L 19.390625 64.015625 
L 19.390625 0 
L 9.8125 0 
z
" id="DejaVuSans-77"/>
      <path d="M 56.203125 29.59375 
L 56.203125 25.203125 
L 14.890625 25.203125 
Q 15.484375 15.921875 20.484375 11.0625 
Q 25.484375 6.203125 34.421875 6.203125 
Q 39.59375 6.203125 44.453125 7.46875 
Q 49.3125 8.734375 54.109375 11.28125 
L 54.109375 2.78125 
Q 49.265625 0.734375 44.1875 -0.34375 
Q 39.109375 -1.421875 33.890625 -1.421875 
Q 20.796875 -1.421875 13.15625 6.1875 
Q 5.515625 13.8125 5.515625 26.8125 
Q 5.515625 40.234375 12.765625 48.109375 
Q 20.015625 56 32.328125 56 
Q 43.359375 56 49.78125 48.890625 
Q 56.203125 41.796875 56.203125 29.59375 
z
M 47.21875 32.234375 
Q 47.125 39.59375 43.09375 43.984375 
Q 39.0625 48.390625 32.421875 48.390625 
Q 24.90625 48.390625 20.390625 44.140625 
Q 15.875 39.890625 15.1875 32.171875 
z
" id="DejaVuSans-101"/>
      <path d="M 54.890625 33.015625 
L 54.890625 0 
L 45.90625 0 
L 45.90625 32.71875 
Q 45.90625 40.484375 42.875 44.328125 
Q 39.84375 48.1875 33.796875 48.1875 
Q 26.515625 48.1875 22.3125 43.546875 
Q 18.109375 38.921875 18.109375 30.90625 
L 18.109375 0 
L 9.078125 0 
L 9.078125 54.6875 
L 18.109375 54.6875 
L 18.109375 46.1875 
Q 21.34375 51.125 25.703125 53.5625 
Q 30.078125 56 35.796875 56 
Q 45.21875 56 50.046875 50.171875 
Q 54.890625 44.34375 54.890625 33.015625 
z
" id="DejaVuSans-110"/>
     </defs>
     <g transform="translate(219.954688 281.309896)scale(0.1 -0.1)">
      <use xlink:href="#DejaVuSans-105"/>
      <use x="27.783203" xlink:href="#DejaVuSans-97"/>
      <use x="89.0625" xlink:href="#DejaVuSans-77"/>
      <use x="175.341797" xlink:href="#DejaVuSans-101"/>
      <use x="236.865234" xlink:href="#DejaVuSans-97"/>
      <use x="298.144531" xlink:href="#DejaVuSans-110"/>
     </g>
    </g>
   </g>
   <g id="matplotlib.axis_2">
    <g id="ytick_1">
     <g id="line2d_15">
      <path clip-path="url(#p6f4a59d327)" d="M 56.55 253.033333 
L 419.5125 253.033333 
" style="fill:none;stroke:#b0b0b0;stroke-linecap:square;stroke-width:0.8;"/>
     </g>
     <g id="line2d_16">
      <defs>
       <path d="M 0 0 
L -3.5 0 
" id="m45e20e0cf1" style="stroke:#000000;stroke-width:0.8;"/>
      </defs>
      <g>
       <use style="stroke:#000000;stroke-width:0.8;" x="56.55" xlink:href="#m45e20e0cf1" y="253.033333"/>
      </g>
     </g>
     <g id="text_9">
      <!-- 0.000 -->
      <defs>
       <path d="M 31.78125 66.40625 
Q 24.171875 66.40625 20.328125 58.90625 
Q 16.5 51.421875 16.5 36.375 
Q 16.5 21.390625 20.328125 13.890625 
Q 24.171875 6.390625 31.78125 6.390625 
Q 39.453125 6.390625 43.28125 13.890625 
Q 47.125 21.390625 47.125 36.375 
Q 47.125 51.421875 43.28125 58.90625 
Q 39.453125 66.40625 31.78125 66.40625 
z
M 31.78125 74.21875 
Q 44.046875 74.21875 50.515625 64.515625 
Q 56.984375 54.828125 56.984375 36.375 
Q 56.984375 17.96875 50.515625 8.265625 
Q 44.046875 -1.421875 31.78125 -1.421875 
Q 19.53125 -1.421875 13.0625 8.265625 
Q 6.59375 17.96875 6.59375 36.375 
Q 6.59375 54.828125 13.0625 64.515625 
Q 19.53125 74.21875 31.78125 74.21875 
z
" id="DejaVuSans-48"/>
       <path d="M 10.6875 12.40625 
L 21 12.40625 
L 21 0 
L 10.6875 0 
z
" id="DejaVuSans-46"/>
      </defs>
      <g transform="translate(20.921875 256.832552)scale(0.1 -0.1)">
       <use xlink:href="#DejaVuSans-48"/>
       <use x="63.623047" xlink:href="#DejaVuSans-46"/>
       <use x="95.410156" xlink:href="#DejaVuSans-48"/>
       <use x="159.033203" xlink:href="#DejaVuSans-48"/>
       <use x="222.65625" xlink:href="#DejaVuSans-48"/>
      </g>
     </g>
    </g>
    <g id="ytick_2">
     <g id="line2d_17">
      <path clip-path="url(#p6f4a59d327)" d="M 56.55 225.57196 
L 419.5125 225.57196 
" style="fill:none;stroke:#b0b0b0;stroke-linecap:square;stroke-width:0.8;"/>
     </g>
     <g id="line2d_18">
      <g>
       <use style="stroke:#000000;stroke-width:0.8;" x="56.55" xlink:href="#m45e20e0cf1" y="225.57196"/>
      </g>
     </g>
     <g id="text_10">
      <!-- 0.025 -->
      <g transform="translate(20.921875 229.371178)scale(0.1 -0.1)">
       <use xlink:href="#DejaVuSans-48"/>
       <use x="63.623047" xlink:href="#DejaVuSans-46"/>
       <use x="95.410156" xlink:href="#DejaVuSans-48"/>
       <use x="159.033203" xlink:href="#DejaVuSans-50"/>
       <use x="222.65625" xlink:href="#DejaVuSans-53"/>
      </g>
     </g>
    </g>
    <g id="ytick_3">
     <g id="line2d_19">
      <path clip-path="url(#p6f4a59d327)" d="M 56.55 198.110586 
L 419.5125 198.110586 
" style="fill:none;stroke:#b0b0b0;stroke-linecap:square;stroke-width:0.8;"/>
     </g>
     <g id="line2d_20">
      <g>
       <use style="stroke:#000000;stroke-width:0.8;" x="56.55" xlink:href="#m45e20e0cf1" y="198.110586"/>
      </g>
     </g>
     <g id="text_11">
      <!-- 0.050 -->
      <g transform="translate(20.921875 201.909805)scale(0.1 -0.1)">
       <use xlink:href="#DejaVuSans-48"/>
       <use x="63.623047" xlink:href="#DejaVuSans-46"/>
       <use x="95.410156" xlink:href="#DejaVuSans-48"/>
       <use x="159.033203" xlink:href="#DejaVuSans-53"/>
       <use x="222.65625" xlink:href="#DejaVuSans-48"/>
      </g>
     </g>
    </g>
    <g id="ytick_4">
     <g id="line2d_21">
      <path clip-path="url(#p6f4a59d327)" d="M 56.55 170.649212 
L 419.5125 170.649212 
" style="fill:none;stroke:#b0b0b0;stroke-linecap:square;stroke-width:0.8;"/>
     </g>
     <g id="line2d_22">
      <g>
       <use style="stroke:#000000;stroke-width:0.8;" x="56.55" xlink:href="#m45e20e0cf1" y="170.649212"/>
      </g>
     </g>
     <g id="text_12">
      <!-- 0.075 -->
      <g transform="translate(20.921875 174.448431)scale(0.1 -0.1)">
       <use xlink:href="#DejaVuSans-48"/>
       <use x="63.623047" xlink:href="#DejaVuSans-46"/>
       <use x="95.410156" xlink:href="#DejaVuSans-48"/>
       <use x="159.033203" xlink:href="#DejaVuSans-55"/>
       <use x="222.65625" xlink:href="#DejaVuSans-53"/>
      </g>
     </g>
    </g>
    <g id="ytick_5">
     <g id="line2d_23">
      <path clip-path="url(#p6f4a59d327)" d="M 56.55 143.187839 
L 419.5125 143.187839 
" style="fill:none;stroke:#b0b0b0;stroke-linecap:square;stroke-width:0.8;"/>
     </g>
     <g id="line2d_24">
      <g>
       <use style="stroke:#000000;stroke-width:0.8;" x="56.55" xlink:href="#m45e20e0cf1" y="143.187839"/>
      </g>
     </g>
     <g id="text_13">
      <!-- 0.100 -->
      <g transform="translate(20.921875 146.987058)scale(0.1 -0.1)">
       <use xlink:href="#DejaVuSans-48"/>
       <use x="63.623047" xlink:href="#DejaVuSans-46"/>
       <use x="95.410156" xlink:href="#DejaVuSans-49"/>
       <use x="159.033203" xlink:href="#DejaVuSans-48"/>
       <use x="222.65625" xlink:href="#DejaVuSans-48"/>
      </g>
     </g>
    </g>
    <g id="ytick_6">
     <g id="line2d_25">
      <path clip-path="url(#p6f4a59d327)" d="M 56.55 115.726465 
L 419.5125 115.726465 
" style="fill:none;stroke:#b0b0b0;stroke-linecap:square;stroke-width:0.8;"/>
     </g>
     <g id="line2d_26">
      <g>
       <use style="stroke:#000000;stroke-width:0.8;" x="56.55" xlink:href="#m45e20e0cf1" y="115.726465"/>
      </g>
     </g>
     <g id="text_14">
      <!-- 0.125 -->
      <g transform="translate(20.921875 119.525684)scale(0.1 -0.1)">
       <use xlink:href="#DejaVuSans-48"/>
       <use x="63.623047" xlink:href="#DejaVuSans-46"/>
       <use x="95.410156" xlink:href="#DejaVuSans-49"/>
       <use x="159.033203" xlink:href="#DejaVuSans-50"/>
       <use x="222.65625" xlink:href="#DejaVuSans-53"/>
      </g>
     </g>
    </g>
    <g id="ytick_7">
     <g id="line2d_27">
      <path clip-path="url(#p6f4a59d327)" d="M 56.55 88.265092 
L 419.5125 88.265092 
" style="fill:none;stroke:#b0b0b0;stroke-linecap:square;stroke-width:0.8;"/>
     </g>
     <g id="line2d_28">
      <g>
       <use style="stroke:#000000;stroke-width:0.8;" x="56.55" xlink:href="#m45e20e0cf1" y="88.265092"/>
      </g>
     </g>
     <g id="text_15">
      <!-- 0.150 -->
      <g transform="translate(20.921875 92.06431)scale(0.1 -0.1)">
       <use xlink:href="#DejaVuSans-48"/>
       <use x="63.623047" xlink:href="#DejaVuSans-46"/>
       <use x="95.410156" xlink:href="#DejaVuSans-49"/>
       <use x="159.033203" xlink:href="#DejaVuSans-53"/>
       <use x="222.65625" xlink:href="#DejaVuSans-48"/>
      </g>
     </g>
    </g>
    <g id="ytick_8">
     <g id="line2d_29">
      <path clip-path="url(#p6f4a59d327)" d="M 56.55 60.803718 
L 419.5125 60.803718 
" style="fill:none;stroke:#b0b0b0;stroke-linecap:square;stroke-width:0.8;"/>
     </g>
     <g id="line2d_30">
      <g>
       <use style="stroke:#000000;stroke-width:0.8;" x="56.55" xlink:href="#m45e20e0cf1" y="60.803718"/>
      </g>
     </g>
     <g id="text_16">
      <!-- 0.175 -->
      <g transform="translate(20.921875 64.602937)scale(0.1 -0.1)">
       <use xlink:href="#DejaVuSans-48"/>
       <use x="63.623047" xlink:href="#DejaVuSans-46"/>
       <use x="95.410156" xlink:href="#DejaVuSans-49"/>
       <use x="159.033203" xlink:href="#DejaVuSans-55"/>
       <use x="222.65625" xlink:href="#DejaVuSans-53"/>
      </g>
     </g>
    </g>
    <g id="ytick_9">
     <g id="line2d_31">
      <path clip-path="url(#p6f4a59d327)" d="M 56.55 33.342344 
L 419.5125 33.342344 
" style="fill:none;stroke:#b0b0b0;stroke-linecap:square;stroke-width:0.8;"/>
     </g>
     <g id="line2d_32">
      <g>
       <use style="stroke:#000000;stroke-width:0.8;" x="56.55" xlink:href="#m45e20e0cf1" y="33.342344"/>
      </g>
     </g>
     <g id="text_17">
      <!-- 0.200 -->
      <g transform="translate(20.921875 37.141563)scale(0.1 -0.1)">
       <use xlink:href="#DejaVuSans-48"/>
       <use x="63.623047" xlink:href="#DejaVuSans-46"/>
       <use x="95.410156" xlink:href="#DejaVuSans-50"/>
       <use x="159.033203" xlink:href="#DejaVuSans-48"/>
       <use x="222.65625" xlink:href="#DejaVuSans-48"/>
      </g>
     </g>
    </g>
    <g id="text_18">
     <!-- channel utilization, last -->
     <defs>
      <path d="M 48.78125 52.59375 
L 48.78125 44.1875 
Q 44.96875 46.296875 41.140625 47.34375 
Q 37.3125 48.390625 33.40625 48.390625 
Q 24.65625 48.390625 19.8125 42.84375 
Q 14.984375 37.3125 14.984375 27.296875 
Q 14.984375 17.28125 19.8125 11.734375 
Q 24.65625 6.203125 33.40625 6.203125 
Q 37.3125 6.203125 41.140625 7.25 
Q 44.96875 8.296875 48.78125 10.40625 
L 48.78125 2.09375 
Q 45.015625 0.34375 40.984375 -0.53125 
Q 36.96875 -1.421875 32.421875 -1.421875 
Q 20.0625 -1.421875 12.78125 6.34375 
Q 5.515625 14.109375 5.515625 27.296875 
Q 5.515625 40.671875 12.859375 48.328125 
Q 20.21875 56 33.015625 56 
Q 37.15625 56 41.109375 55.140625 
Q 45.0625 54.296875 48.78125 52.59375 
z
" id="DejaVuSans-99"/>
      <path d="M 54.890625 33.015625 
L 54.890625 0 
L 45.90625 0 
L 45.90625 32.71875 
Q 45.90625 40.484375 42.875 44.328125 
Q 39.84375 48.1875 33.796875 48.1875 
Q 26.515625 48.1875 22.3125 43.546875 
Q 18.109375 38.921875 18.109375 30.90625 
L 18.109375 0 
L 9.078125 0 
L 9.078125 75.984375 
L 18.109375 75.984375 
L 18.109375 46.1875 
Q 21.34375 51.125 25.703125 53.5625 
Q 30.078125 56 35.796875 56 
Q 45.21875 56 50.046875 50.171875 
Q 54.890625 44.34375 54.890625 33.015625 
z
" id="DejaVuSans-104"/>
      <path d="M 9.421875 75.984375 
L 18.40625 75.984375 
L 18.40625 0 
L 9.421875 0 
z
" id="DejaVuSans-108"/>
      <path id="DejaVuSans-32"/>
      <path d="M 8.5 21.578125 
L 8.5 54.6875 
L 17.484375 54.6875 
L 17.484375 21.921875 
Q 17.484375 14.15625 20.5 10.265625 
Q 23.53125 6.390625 29.59375 6.390625 
Q 36.859375 6.390625 41.078125 11.03125 
Q 45.3125 15.671875 45.3125 23.6875 
L 45.3125 54.6875 
L 54.296875 54.6875 
L 54.296875 0 
L 45.3125 0 
L 45.3125 8.40625 
Q 42.046875 3.421875 37.71875 1 
Q 33.40625 -1.421875 27.6875 -1.421875 
Q 18.265625 -1.421875 13.375 4.4375 
Q 8.5 10.296875 8.5 21.578125 
z
M 31.109375 56 
z
" id="DejaVuSans-117"/>
      <path d="M 18.3125 70.21875 
L 18.3125 54.6875 
L 36.8125 54.6875 
L 36.8125 47.703125 
L 18.3125 47.703125 
L 18.3125 18.015625 
Q 18.3125 11.328125 20.140625 9.421875 
Q 21.96875 7.515625 27.59375 7.515625 
L 36.8125 7.515625 
L 36.8125 0 
L 27.59375 0 
Q 17.1875 0 13.234375 3.875 
Q 9.28125 7.765625 9.28125 18.015625 
L 9.28125 47.703125 
L 2.6875 47.703125 
L 2.6875 54.6875 
L 9.28125 54.6875 
L 9.28125 70.21875 
z
" id="DejaVuSans-116"/>
      <path d="M 5.515625 54.6875 
L 48.1875 54.6875 
L 48.1875 46.484375 
L 14.40625 7.171875 
L 48.1875 7.171875 
L 48.1875 0 
L 4.296875 0 
L 4.296875 8.203125 
L 38.09375 47.515625 
L 5.515625 47.515625 
z
" id="DejaVuSans-122"/>
      <path d="M 30.609375 48.390625 
Q 23.390625 48.390625 19.1875 42.75 
Q 14.984375 37.109375 14.984375 27.296875 
Q 14.984375 17.484375 19.15625 11.84375 
Q 23.34375 6.203125 30.609375 6.203125 
Q 37.796875 6.203125 41.984375 11.859375 
Q 46.1875 17.53125 46.1875 27.296875 
Q 46.1875 37.015625 41.984375 42.703125 
Q 37.796875 48.390625 30.609375 48.390625 
z
M 30.609375 56 
Q 42.328125 56 49.015625 48.375 
Q 55.71875 40.765625 55.71875 27.296875 
Q 55.71875 13.875 49.015625 6.21875 
Q 42.328125 -1.421875 30.609375 -1.421875 
Q 18.84375 -1.421875 12.171875 6.21875 
Q 5.515625 13.875 5.515625 27.296875 
Q 5.515625 40.765625 12.171875 48.375 
Q 18.84375 56 30.609375 56 
z
" id="DejaVuSans-111"/>
      <path d="M 11.71875 12.40625 
L 22.015625 12.40625 
L 22.015625 4 
L 14.015625 -11.625 
L 7.71875 -11.625 
L 11.71875 4 
z
" id="DejaVuSans-44"/>
      <path d="M 44.28125 53.078125 
L 44.28125 44.578125 
Q 40.484375 46.53125 36.375 47.5 
Q 32.28125 48.484375 27.875 48.484375 
Q 21.1875 48.484375 17.84375 46.4375 
Q 14.5 44.390625 14.5 40.28125 
Q 14.5 37.15625 16.890625 35.375 
Q 19.28125 33.59375 26.515625 31.984375 
L 29.59375 31.296875 
Q 39.15625 29.25 43.1875 25.515625 
Q 47.21875 21.78125 47.21875 15.09375 
Q 47.21875 7.46875 41.1875 3.015625 
Q 35.15625 -1.421875 24.609375 -1.421875 
Q 20.21875 -1.421875 15.453125 -0.5625 
Q 10.6875 0.296875 5.421875 2 
L 5.421875 11.28125 
Q 10.40625 8.6875 15.234375 7.390625 
Q 20.0625 6.109375 24.8125 6.109375 
Q 31.15625 6.109375 34.5625 8.28125 
Q 37.984375 10.453125 37.984375 14.40625 
Q 37.984375 18.0625 35.515625 20.015625 
Q 33.0625 21.96875 24.703125 23.78125 
L 21.578125 24.515625 
Q 13.234375 26.265625 9.515625 29.90625 
Q 5.8125 33.546875 5.8125 39.890625 
Q 5.8125 47.609375 11.28125 51.796875 
Q 16.75 56 26.8125 56 
Q 31.78125 56 36.171875 55.265625 
Q 40.578125 54.546875 44.28125 53.078125 
z
" id="DejaVuSans-115"/>
     </defs>
     <g transform="translate(14.842188 195.848698)rotate(-90)scale(0.1 -0.1)">
      <use xlink:href="#DejaVuSans-99"/>
      <use x="54.980469" xlink:href="#DejaVuSans-104"/>
      <use x="118.359375" xlink:href="#DejaVuSans-97"/>
      <use x="179.638672" xlink:href="#DejaVuSans-110"/>
      <use x="243.017578" xlink:href="#DejaVuSans-110"/>
      <use x="306.396484" xlink:href="#DejaVuSans-101"/>
      <use x="367.919922" xlink:href="#DejaVuSans-108"/>
      <use x="395.703125" xlink:href="#DejaVuSans-32"/>
      <use x="427.490234" xlink:href="#DejaVuSans-117"/>
      <use x="490.869141" xlink:href="#DejaVuSans-116"/>
      <use x="530.078125" xlink:href="#DejaVuSans-105"/>
      <use x="557.861328" xlink:href="#DejaVuSans-108"/>
      <use x="585.644531" xlink:href="#DejaVuSans-105"/>
      <use x="613.427734" xlink:href="#DejaVuSans-122"/>
      <use x="665.917969" xlink:href="#DejaVuSans-97"/>
      <use x="727.197266" xlink:href="#DejaVuSans-116"/>
      <use x="766.40625" xlink:href="#DejaVuSans-105"/>
      <use x="794.189453" xlink:href="#DejaVuSans-111"/>
      <use x="855.371094" xlink:href="#DejaVuSans-110"/>
      <use x="918.75" xlink:href="#DejaVuSans-44"/>
      <use x="950.537109" xlink:href="#DejaVuSans-32"/>
      <use x="982.324219" xlink:href="#DejaVuSans-108"/>
      <use x="1010.107422" xlink:href="#DejaVuSans-97"/>
      <use x="1071.386719" xlink:href="#DejaVuSans-115"/>
      <use x="1123.486328" xlink:href="#DejaVuSans-116"/>
     </g>
    </g>
   </g>
   <g id="LineCollection_1">
    <path clip-path="url(#p6f4a59d327)" d="M 78.894148 81.761428 
L 78.894148 81.331603 
" style="fill:none;stroke:#000000;stroke-width:1.5;"/>
    <path clip-path="url(#p6f4a59d327)" d="M 127.609588 44.688089 
L 127.609588 33.38254 
" style="fill:none;stroke:#000000;stroke-width:1.5;"/>
    <path clip-path="url(#p6f4a59d327)" d="M 176.325027 60.023187 
L 176.325027 58.681998 
" style="fill:none;stroke:#000000;stroke-width:1.5;"/>
    <path clip-path="url(#p6f4a59d327)" d="M 225.040466 88.313832 
L 225.040466 80.375605 
" style="fill:none;stroke:#000000;stroke-width:1.5;"/>
    <path clip-path="url(#p6f4a59d327)" d="M 273.755906 106.957998 
L 273.755906 98.138167 
" style="fill:none;stroke:#000000;stroke-width:1.5;"/>
    <path clip-path="url(#p6f4a59d327)" d="M 322.471345 134.03965 
L 322.471345 131.945783 
" style="fill:none;stroke:#000000;stroke-width:1.5;"/>
    <path clip-path="url(#p6f4a59d327)" d="M 371.186784 157.538452 
L 371.186784 151.558603 
" style="fill:none;stroke:#000000;stroke-width:1.5;"/>
   </g>
   <g id="LineCollection_2">
    <path clip-path="url(#p6f4a59d327)" d="M 91.884932 157.658213 
L 91.884932 151.699171 
" style="fill:none;stroke:#000000;stroke-width:1.5;"/>
    <path clip-path="url(#p6f4a59d327)" d="M 140.600371 58.475868 
L 140.600371 56.191911 
" style="fill:none;stroke:#000000;stroke-width:1.5;"/>
    <path clip-path="url(#p6f4a59d327)" d="M 189.315811 45.231475 
L 189.315811 39.971293 
" style="fill:none;stroke:#000000;stroke-width:1.5;"/>
    <path clip-path="url(#p6f4a59d327)" d="M 238.03125 54.451215 
L 238.03125 51.066122 
" style="fill:none;stroke:#000000;stroke-width:1.5;"/>
    <path clip-path="url(#p6f4a59d327)" d="M 286.746689 68.392924 
L 286.746689 66.878262 
" style="fill:none;stroke:#000000;stroke-width:1.5;"/>
    <path clip-path="url(#p6f4a59d327)" d="M 335.462129 100.728274 
L 335.462129 94.352945 
" style="fill:none;stroke:#000000;stroke-width:1.5;"/>
    <path clip-path="url(#p6f4a59d327)" d="M 384.177568 124.738058 
L 384.177568 115.942408 
" style="fill:none;stroke:#000000;stroke-width:1.5;"/>
   </g>
   <g id="LineCollection_3">
    <path clip-path="url(#p6f4a59d327)" d="M 104.875716 205.489288 
L 104.875716 198.231416 
" style="fill:none;stroke:#000000;stroke-width:1.5;"/>
    <path clip-path="url(#p6f4a59d327)" d="M 153.591155 94.927647 
L 153.591155 86.954175 
" style="fill:none;stroke:#000000;stroke-width:1.5;"/>
    <path clip-path="url(#p6f4a59d327)" d="M 202.306594 54.086413 
L 202.306594 47.802222 
" style="fill:none;stroke:#000000;stroke-width:1.5;"/>
    <path clip-path="url(#p6f4a59d327)" d="M 251.022034 47.740782 
L 251.022034 39.920712 
" style="fill:none;stroke:#000000;stroke-width:1.5;"/>
    <path clip-path="url(#p6f4a59d327)" d="M 299.737473 52.354474 
L 299.737473 50.047993 
" style="fill:none;stroke:#000000;stroke-width:1.5;"/>
    <path clip-path="url(#p6f4a59d327)" d="M 348.452912 76.941164 
L 348.452912 68.749294 
" style="fill:none;stroke:#000000;stroke-width:1.5;"/>
    <path clip-path="url(#p6f4a59d327)" d="M 397.168352 96.906169 
L 397.168352 95.950968 
" style="fill:none;stroke:#000000;stroke-width:1.5;"/>
   </g>
   <g id="line2d_33">
    <defs>
     <path d="M 4 0 
L -4 -0 
" id="m38c6f02aef" style="stroke:#000000;"/>
    </defs>
    <g clip-path="url(#p6f4a59d327)">
     <use style="stroke:#000000;" x="78.894148" xlink:href="#m38c6f02aef" y="81.761428"/>
     <use style="stroke:#000000;" x="127.609588" xlink:href="#m38c6f02aef" y="44.688089"/>
     <use style="stroke:#000000;" x="176.325027" xlink:href="#m38c6f02aef" y="60.023187"/>
     <use style="stroke:#000000;" x="225.040466" xlink:href="#m38c6f02aef" y="88.313832"/>
     <use style="stroke:#000000;" x="273.755906" xlink:href="#m38c6f02aef" y="106.957998"/>
     <use style="stroke:#000000;" x="322.471345" xlink:href="#m38c6f02aef" y="134.03965"/>
     <use style="stroke:#000000;" x="371.186784" xlink:href="#m38c6f02aef" y="157.538452"/>
    </g>
   </g>
   <g id="line2d_34">
    <g clip-path="url(#p6f4a59d327)">
     <use style="stroke:#000000;" x="78.894148" xlink:href="#m38c6f02aef" y="81.331603"/>
     <use style="stroke:#000000;" x="127.609588" xlink:href="#m38c6f02aef" y="33.38254"/>
     <use style="stroke:#000000;" x="176.325027" xlink:href="#m38c6f02aef" y="58.681998"/>
     <use style="stroke:#000000;" x="225.040466" xlink:href="#m38c6f02aef" y="80.375605"/>
     <use style="stroke:#000000;" x="273.755906" xlink:href="#m38c6f02aef" y="98.138167"/>
     <use style="stroke:#000000;" x="322.471345" xlink:href="#m38c6f02aef" y="131.945783"/>
     <use style="stroke:#000000;" x="371.186784" xlink:href="#m38c6f02aef" y="151.558603"/>
    </g>
   </g>
   <g id="line2d_35">
    <g clip-path="url(#p6f4a59d327)">
     <use style="stroke:#000000;" x="91.884932" xlink:href="#m38c6f02aef" y="157.658213"/>
     <use style="stroke:#000000;" x="140.600371" xlink:href="#m38c6f02aef" y="58.475868"/>
     <use style="stroke:#000000;" x="189.315811" xlink:href="#m38c6f02aef" y="45.231475"/>
     <use style="stroke:#000000;" x="238.03125" xlink:href="#m38c6f02aef" y="54.451215"/>
     <use style="stroke:#000000;" x="286.746689" xlink:href="#m38c6f02aef" y="68.392924"/>
     <use style="stroke:#000000;" x="335.462129" xlink:href="#m38c6f02aef" y="100.728274"/>
     <use style="stroke:#000000;" x="384.177568" xlink:href="#m38c6f02aef" y="124.738058"/>
    </g>
   </g>
   <g id="line2d_36">
    <g clip-path="url(#p6f4a59d327)">
     <use style="stroke:#000000;" x="91.884932" xlink:href="#m38c6f02aef" y="151.699171"/>
     <use style="stroke:#000000;" x="140.600371" xlink:href="#m38c6f02aef" y="56.191911"/>
     <use style="stroke:#000000;" x="189.315811" xlink:href="#m38c6f02aef" y="39.971293"/>
     <use style="stroke:#000000;" x="238.03125" xlink:href="#m38c6f02aef" y="51.066122"/>
     <use style="stroke:#000000;" x="286.746689" xlink:href="#m38c6f02aef" y="66.878262"/>
     <use style="stroke:#000000;" x="335.462129" xlink:href="#m38c6f02aef" y="94.352945"/>
     <use style="stroke:#000000;" x="384.177568" xlink:href="#m38c6f02aef" y="115.942408"/>
    </g>
   </g>
   <g id="line2d_37">
    <g clip-path="url(#p6f4a59d327)">
     <use style="stroke:#000000;" x="104.875716" xlink:href="#m38c6f02aef" y="205.489288"/>
     <use style="stroke:#000000;" x="153.591155" xlink:href="#m38c6f02aef" y="94.927647"/>
     <use style="stroke:#000000;" x="202.306594" xlink:href="#m38c6f02aef" y="54.086413"/>
     <use style="stroke:#000000;" x="251.022034" xlink:href="#m38c6f02aef" y="47.740782"/>
     <use style="stroke:#000000;" x="299.737473" xlink:href="#m38c6f02aef" y="52.354474"/>
     <use style="stroke:#000000;" x="348.452912" xlink:href="#m38c6f02aef" y="76.941164"/>
     <use style="stroke:#000000;" x="397.168352" xlink:href="#m38c6f02aef" y="96.906169"/>
    </g>
   </g>
   <g id="line2d_38">
    <g clip-path="url(#p6f4a59d327)">
     <use style="stroke:#000000;" x="104.875716" xlink:href="#m38c6f02aef" y="198.231416"/>
     <use style="stroke:#000000;" x="153.591155" xlink:href="#m38c6f02aef" y="86.954175"/>
     <use style="stroke:#000000;" x="202.306594" xlink:href="#m38c6f02aef" y="47.802222"/>
     <use style="stroke:#000000;" x="251.022034" xlink:href="#m38c6f02aef" y="39.920712"/>
     <use style="stroke:#000000;" x="299.737473" xlink:href="#m38c6f02aef" y="50.047993"/>
     <use style="stroke:#000000;" x="348.452912" xlink:href="#m38c6f02aef" y="68.749294"/>
     <use style="stroke:#000000;" x="397.168352" xlink:href="#m38c6f02aef" y="95.950968"/>
    </g>
   </g>
   <g id="line2d_39"/>
   <g id="line2d_40"/>
   <g id="line2d_41"/>
   <g id="patch_24">
    <path d="M 56.55 253.033333 
L 56.55 22.4 
" style="fill:none;stroke:#000000;stroke-linecap:square;stroke-linejoin:miter;stroke-width:0.8;"/>
   </g>
   <g id="patch_25">
    <path d="M 419.5125 253.033333 
L 419.5125 22.4 
" style="fill:none;stroke:#000000;stroke-linecap:square;stroke-linejoin:miter;stroke-width:0.8;"/>
   </g>
   <g id="patch_26">
    <path d="M 56.55 253.033333 
L 419.5125 253.033333 
" style="fill:none;stroke:#000000;stroke-linecap:square;stroke-linejoin:miter;stroke-width:0.8;"/>
   </g>
   <g id="patch_27">
    <path d="M 56.55 22.4 
L 419.5125 22.4 
" style="fill:none;stroke:#000000;stroke-linecap:square;stroke-linejoin:miter;stroke-width:0.8;"/>
   </g>
   <g id="text_19">
    <!-- Aloha channel utilization -->
    <defs>
     <path d="M 34.1875 63.1875 
L 20.796875 26.90625 
L 47.609375 26.90625 
z
M 28.609375 72.90625 
L 39.796875 72.90625 
L 67.578125 0 
L 57.328125 0 
L 50.6875 18.703125 
L 17.828125 18.703125 
L 11.1875 0 
L 0.78125 0 
z
" id="DejaVuSans-65"/>
    </defs>
    <g transform="translate(164.079375 16.4)scale(0.12 -0.12)">
     <use xlink:href="#DejaVuSans-65"/>
     <use x="68.408203" xlink:href="#DejaVuSans-108"/>
     <use x="96.191406" xlink:href="#DejaVuSans-111"/>
     <use x="157.373047" xlink:href="#DejaVuSans-104"/>
     <use x="220.751953" xlink:href="#DejaVuSans-97"/>
     <use x="282.03125" xlink:href="#DejaVuSans-32"/>
     <use x="313.818359" xlink:href="#DejaVuSans-99"/>
     <use x="368.798828" xlink:href="#DejaVuSans-104"/>
     <use x="432.177734" xlink:href="#DejaVuSans-97"/>
     <use x="493.457031" xlink:href="#DejaVuSans-110"/>
     <use x="556.835938" xlink:href="#DejaVuSans-110"/>
     <use x="620.214844" xlink:href="#DejaVuSans-101"/>
     <use x="681.738281" xlink:href="#DejaVuSans-108"/>
     <use x="709.521484" xlink:href="#DejaVuSans-32"/>
     <use x="741.308594" xlink:href="#DejaVuSans-117"/>
     <use x="804.6875" xlink:href="#DejaVuSans-116"/>
     <use x="843.896484" xlink:href="#DejaVuSans-105"/>
     <use x="871.679688" xlink:href="#DejaVuSans-108"/>
     <use x="899.462891" xlink:href="#DejaVuSans-105"/>
     <use x="927.246094" xlink:href="#DejaVuSans-122"/>
     <use x="979.736328" xlink:href="#DejaVuSans-97"/>
     <use x="1041.015625" xlink:href="#DejaVuSans-116"/>
     <use x="1080.224609" xlink:href="#DejaVuSans-105"/>
     <use x="1108.007812" xlink:href="#DejaVuSans-111"/>
     <use x="1169.189453" xlink:href="#DejaVuSans-110"/>
    </g>
   </g>
   <g id="legend_1">
    <g id="patch_28">
     <path d="M 307.014062 74.434375 
L 414.5125 74.434375 
L 414.5125 27.4 
L 307.014062 27.4 
z
" style="fill:#ffffff;opacity:0.8;stroke:#cccccc;stroke-linejoin:miter;"/>
    </g>
    <g id="patch_29">
     <path d="M 311.014062 38.998437 
L 331.014062 38.998437 
L 331.014062 31.998437 
L 311.014062 31.998437 
z
" style="fill:#1f77b4;"/>
    </g>
    <g id="text_20">
     <!-- numHosts=10 -->
     <defs>
      <path d="M 52 44.1875 
Q 55.375 50.25 60.0625 53.125 
Q 64.75 56 71.09375 56 
Q 79.640625 56 84.28125 50.015625 
Q 88.921875 44.046875 88.921875 33.015625 
L 88.921875 0 
L 79.890625 0 
L 79.890625 32.71875 
Q 79.890625 40.578125 77.09375 44.375 
Q 74.3125 48.1875 68.609375 48.1875 
Q 61.625 48.1875 57.5625 43.546875 
Q 53.515625 38.921875 53.515625 30.90625 
L 53.515625 0 
L 44.484375 0 
L 44.484375 32.71875 
Q 44.484375 40.625 41.703125 44.40625 
Q 38.921875 48.1875 33.109375 48.1875 
Q 26.21875 48.1875 22.15625 43.53125 
Q 18.109375 38.875 18.109375 30.90625 
L 18.109375 0 
L 9.078125 0 
L 9.078125 54.6875 
L 18.109375 54.6875 
L 18.109375 46.1875 
Q 21.1875 51.21875 25.484375 53.609375 
Q 29.78125 56 35.6875 56 
Q 41.65625 56 45.828125 52.96875 
Q 50 49.953125 52 44.1875 
z
" id="DejaVuSans-109"/>
      <path d="M 9.8125 72.90625 
L 19.671875 72.90625 
L 19.671875 43.015625 
L 55.515625 43.015625 
L 55.515625 72.90625 
L 65.375 72.90625 
L 65.375 0 
L 55.515625 0 
L 55.515625 34.71875 
L 19.671875 34.71875 
L 19.671875 0 
L 9.8125 0 
z
" id="DejaVuSans-72"/>
      <path d="M 10.59375 45.40625 
L 73.1875 45.40625 
L 73.1875 37.203125 
L 10.59375 37.203125 
z
M 10.59375 25.484375 
L 73.1875 25.484375 
L 73.1875 17.1875 
L 10.59375 17.1875 
z
" id="DejaVuSans-61"/>
     </defs>
     <g transform="translate(339.014062 38.998437)scale(0.1 -0.1)">
      <use xlink:href="#DejaVuSans-110"/>
      <use x="63.378906" xlink:href="#DejaVuSans-117"/>
      <use x="126.757812" xlink:href="#DejaVuSans-109"/>
      <use x="224.169922" xlink:href="#DejaVuSans-72"/>
      <use x="299.365234" xlink:href="#DejaVuSans-111"/>
      <use x="360.546875" xlink:href="#DejaVuSans-115"/>
      <use x="412.646484" xlink:href="#DejaVuSans-116"/>
      <use x="451.855469" xlink:href="#DejaVuSans-115"/>
      <use x="503.955078" xlink:href="#DejaVuSans-61"/>
      <use x="587.744141" xlink:href="#DejaVuSans-49"/>
      <use x="651.367188" xlink:href="#DejaVuSans-48"/>
     </g>
    </g>
    <g id="patch_30">
     <path d="M 311.014062 53.676562 
L 331.014062 53.676562 
L 331.014062 46.676562 
L 311.014062 46.676562 
z
" style="fill:#ff7f0e;"/>
    </g>
    <g id="text_21">
     <!-- numHosts=15 -->
     <g transform="translate(339.014062 53.676562)scale(0.1 -0.1)">
      <use xlink:href="#DejaVuSans-110"/>
      <use x="63.378906" xlink:href="#DejaVuSans-117"/>
      <use x="126.757812" xlink:href="#DejaVuSans-109"/>
      <use x="224.169922" xlink:href="#DejaVuSans-72"/>
      <use x="299.365234" xlink:href="#DejaVuSans-111"/>
      <use x="360.546875" xlink:href="#DejaVuSans-115"/>
      <use x="412.646484" xlink:href="#DejaVuSans-116"/>
      <use x="451.855469" xlink:href="#DejaVuSans-115"/>
      <use x="503.955078" xlink:href="#DejaVuSans-61"/>
      <use x="587.744141" xlink:href="#DejaVuSans-49"/>
      <use x="651.367188" xlink:href="#DejaVuSans-53"/>
     </g>
    </g>
    <g id="patch_31">
     <path d="M 311.014062 68.354688 
L 331.014062 68.354688 
L 331.014062 61.354688 
L 311.014062 61.354688 
z
" style="fill:#2ca02c;"/>
    </g>
    <g id="text_22">
     <!-- numHosts=20 -->
     <g transform="translate(339.014062 68.354688)scale(0.1 -0.1)">
      <use xlink:href="#DejaVuSans-110"/>
      <use x="63.378906" xlink:href="#DejaVuSans-117"/>
      <use x="126.757812" xlink:href="#DejaVuSans-109"/>
      <use x="224.169922" xlink:href="#DejaVuSans-72"/>
      <use x="299.365234" xlink:href="#DejaVuSans-111"/>
      <use x="360.546875" xlink:href="#DejaVuSans-115"/>
      <use x="412.646484" xlink:href="#DejaVuSans-116"/>
      <use x="451.855469" xlink:href="#DejaVuSans-115"/>
      <use x="503.955078" xlink:href="#DejaVuSans-61"/>
      <use x="587.744141" xlink:href="#DejaVuSans-50"/>
      <use x="651.367188" xlink:href="#DejaVuSans-48"/>
     </g>
    </g>
   </g>
  </g>
 </g>
 <defs>
  <clipPath id="p6f4a59d327">
   <rect height="230.633333" width="362.9625" x="56.55" y="22.4"/>
  </clipPath>
 </defs>
</svg>
