<?xml version="1.0" encoding="UTF-8" standalone="no"?>
<!-- Created with Inkscape (http://www.inkscape.org/) -->

<svg
   xmlns:dc="http://purl.org/dc/elements/1.1/"
   xmlns:cc="http://creativecommons.org/ns#"
   xmlns:rdf="http://www.w3.org/1999/02/22-rdf-syntax-ns#"
   xmlns:svg="http://www.w3.org/2000/svg"
   xmlns="http://www.w3.org/2000/svg"
   xmlns:sodipodi="http://sodipodi.sourceforge.net/DTD/sodipodi-0.dtd"
   xmlns:inkscape="http://www.inkscape.org/namespaces/inkscape"
   width="59.028671"
   height="19.875"
   id="svg3761"
   version="1.1"
   inkscape:version="0.48.4 r9939"
   sodipodi:docname="figure-polygons.svg">
  <defs
     id="defs3763" />
  <sodipodi:namedview
     id="base"
     pagecolor="#ffffff"
     bordercolor="#666666"
     borderopacity="1.0"
     inkscape:pageopacity="0.0"
     inkscape:pageshadow="2"
     inkscape:zoom="22.197802"
     inkscape:cx="23.46875"
     inkscape:cy="6.0312494"
     inkscape:current-layer="layer1"
     showgrid="true"
     inkscape:grid-bbox="true"
     inkscape:document-units="px"
     fit-margin-top="0"
     fit-margin-left="0"
     fit-margin-right="0"
     fit-margin-bottom="0"
     inkscape:window-width="1164"
     inkscape:window-height="746"
     inkscape:window-x="65"
     inkscape:window-y="24"
     inkscape:window-maximized="0" />
  <metadata
     id="metadata3766">
    <rdf:RDF>
      <cc:Work
         rdf:about="">
        <dc:format>image/svg+xml</dc:format>
        <dc:type
           rdf:resource="http://purl.org/dc/dcmitype/StillImage" />
        <dc:title></dc:title>
      </cc:Work>
    </rdf:RDF>
  </metadata>
  <g
     id="layer1"
     inkscape:label="Layer 1"
     inkscape:groupmode="layer"
     transform="translate(15.46875,5.84375)">
    <path
       inkscape:connector-curvature="0"
       id="path3157"
       style="fill:none;stroke:#000000;stroke-width:0.35594743;stroke-linecap:butt;stroke-linejoin:miter;stroke-miterlimit:10;stroke-opacity:1;stroke-dasharray:none"
       d="m -1.0383334,1.5070808 0.80728795,1.586125 -2.90203795,1.2916998 -3.177612,-3.72006231 3.084475,-5.93216249 8.494112,0.496025 3.840763,9.6051498 L 0.87241655,13.817844 -12.586595,9.8350806 -15.28107,-5.8215567" />
    <path
       inkscape:connector-curvature="0"
       id="path3161"
       style="fill:none;stroke:#000000;stroke-width:0.35594743;stroke-linecap:butt;stroke-linejoin:miter;stroke-miterlimit:10;stroke-opacity:1;stroke-dasharray:none"
       d="m 34.556405,1.5070808 c 0.5382,1.0574125 0.323612,1.8014 -0.643738,2.231975 -0.967337,0.4305628 -1.980612,0.025875 -3.039812,-1.214175 -1.0592,-1.240025 -1.074725,-2.84872501 -0.04662,-4.8261125 1.028162,-1.9774 2.957937,-2.8834125 5.7893,-2.718075 2.831375,0.1653375 4.887187,1.848875 6.167437,5.05058749 C 44.063222,3.2329933 43.330647,6.3311936 40.585235,9.3258436 37.839822,12.320519 34.22396,13.154044 29.73761,11.826456 25.251272,10.498869 22.109947,4.6161936 20.313622,-5.8215567" />
  </g>
</svg>
