<?xml version="1.0" encoding="UTF-8" standalone="no"?>
<svg
   xmlns:dc="http://purl.org/dc/elements/1.1/"
   xmlns:cc="http://creativecommons.org/ns#"
   xmlns:rdf="http://www.w3.org/1999/02/22-rdf-syntax-ns#"
   xmlns:svg="http://www.w3.org/2000/svg"
   xmlns="http://www.w3.org/2000/svg"
   version="1.1"
   id="svg3761"
   height="79.487129"
   width="236.09598">
  <defs
     id="defs3763" />
  <metadata
     id="metadata3766">
    <rdf:RDF>
      <cc:Work
         rdf:about="">
        <dc:format>image/svg+xml</dc:format>
        <dc:type
           rdf:resource="http://purl.org/dc/dcmitype/StillImage" />
        <dc:title></dc:title>
      </cc:Work>
    </rdf:RDF>
  </metadata>
  <g
     transform="translate(103.99246,35.659416)"
     id="layer1">
    <path
       d="m -46.319929,-6.2241253 3.229151,6.3445 -11.608151,5.1667992 -12.710448,-14.8802492 12.3379,-23.7286497 33.976448,1.9841 L -5.7319773,7.0829739 -38.67693,43.018927 -92.512976,27.087874 -103.29088,-35.538675"
       style="fill:none;stroke:#000000;stroke-width:1.42378974;stroke-linecap:butt;stroke-linejoin:miter;stroke-miterlimit:10;stroke-dasharray:none;stroke-opacity:1"
       id="path3157" />
    <path
       d="m 96.059024,-6.2241253 c 2.1528,4.22965 1.294448,7.2056 -2.574952,8.9279 -3.869348,1.7222512 -7.922448,0.1035 -12.159248,-4.8567 -4.2368,-4.9601 -4.2989,-11.3948997 -0.18648,-19.3044497 4.112648,-7.9096 11.831748,-11.53365 23.157196,-10.8723 11.3255,0.66135 19.54875,7.3955 24.66975,20.20235 5.121,12.8068497 2.1907,25.199651 -8.79095,37.178251 C 109.19269,37.029627 94.729244,40.363727 76.783844,35.053375 58.838492,29.743027 46.273192,6.2123259 39.087892,-35.538675"
       style="fill:none;stroke:#000000;stroke-width:1.42378974;stroke-linecap:butt;stroke-linejoin:miter;stroke-miterlimit:10;stroke-dasharray:none;stroke-opacity:1"
       id="path3161" />
  </g>
</svg>
