<?xml version="1.0" encoding="UTF-8" standalone="no"?>
<!-- Created with Inkscape (http://www.inkscape.org/) -->

<svg
   xmlns:dc="http://purl.org/dc/elements/1.1/"
   xmlns:cc="http://creativecommons.org/ns#"
   xmlns:rdf="http://www.w3.org/1999/02/22-rdf-syntax-ns#"
   xmlns:svg="http://www.w3.org/2000/svg"
   xmlns="http://www.w3.org/2000/svg"
   xmlns:sodipodi="http://sodipodi.sourceforge.net/DTD/sodipodi-0.dtd"
   xmlns:inkscape="http://www.inkscape.org/namespaces/inkscape"
   width="531.49603"
   height="166.55255"
   id="svg2"
   sodipodi:version="0.32"
   inkscape:version="0.47 r22583"
   version="1.0"
   sodipodi:docname="simlib-queue.svg"
   inkscape:output_extension="org.inkscape.output.svg.inkscape">
  <defs
     id="defs4">
    <inkscape:perspective
       sodipodi:type="inkscape:persp3d"
       inkscape:vp_x="0 : 83.276276 : 1"
       inkscape:vp_y="0 : 1000 : 0"
       inkscape:vp_z="531.49603 : 83.276276 : 1"
       inkscape:persp3d-origin="265.74802 : 55.517517 : 1"
       id="perspective268" />
  </defs>
  <sodipodi:namedview
     id="base"
     pagecolor="#ffffff"
     bordercolor="#666666"
     borderopacity="1.0"
     gridtolerance="10000"
     guidetolerance="10"
     objecttolerance="10"
     inkscape:pageopacity="0.0"
     inkscape:pageshadow="2"
     inkscape:zoom="2.2257926"
     inkscape:cx="267.38309"
     inkscape:cy="83.276551"
     inkscape:document-units="px"
     inkscape:current-layer="layer1"
     showgrid="false"
     inkscape:window-width="1280"
     inkscape:window-height="750"
     inkscape:window-x="0"
     inkscape:window-y="0"
     inkscape:window-maximized="0" />
  <metadata
     id="metadata7">
    <rdf:RDF>
      <cc:Work
         rdf:about="">
        <dc:format>image/svg+xml</dc:format>
        <dc:type
           rdf:resource="http://purl.org/dc/dcmitype/StillImage" />
      </cc:Work>
    </rdf:RDF>
  </metadata>
  <g
     inkscape:label="Layer 1"
     inkscape:groupmode="layer"
     id="layer1"
     transform="translate(36679.544,-11977.427)">
    <g
       id="g14964"
       transform="matrix(0.00499635,0,0,0.00598138,-36417.671,12057.647)">
      <g
         transform="matrix(7.9124105,0,0,7.9124105,-53401.099,-30331.557)"
         id="g222"
         style="fill-rule:evenodd;visibility:visible">
        <desc
           id="desc224">Drawing</desc>
        <g
           id="g226">
          <g
             id="g228" />
        </g>
      </g>
      <g
         transform="matrix(7.9124105,0,0,7.9124105,-53401.099,-30331.557)"
         id="g230"
         style="fill-rule:evenodd;stroke:#000000;stroke-width:17.6223011;stroke-miterlimit:4;stroke-opacity:1;stroke-dasharray:none;visibility:visible">
        <desc
           id="desc232">Group</desc>
        <g
           style="stroke:#000000;stroke-width:17.6223011;stroke-miterlimit:4;stroke-opacity:1;stroke-dasharray:none"
           id="g234">
          <desc
             id="desc236">Drawing</desc>
          <g
             style="stroke:#000000;stroke-width:17.6223011;stroke-miterlimit:4;stroke-opacity:1;stroke-dasharray:none"
             id="g238">
            <g
               id="g240"
               style="fill:none;stroke:#000000;stroke-width:17.6223011;stroke-miterlimit:4;stroke-opacity:1;stroke-dasharray:none">
              <path
                 id="path242"
                 d="m 9440,4132 -5772,4"
                 style="fill:none;stroke:#000000;stroke-width:17.6223011;stroke-miterlimit:4;stroke-opacity:1;stroke-dasharray:none" />
            </g>
            <g
               style="stroke:#000000;stroke-width:17.6223011;stroke-miterlimit:4;stroke-opacity:1;stroke-dasharray:none"
               id="g244" />
          </g>
        </g>
        <g
           style="stroke:#000000;stroke-width:17.6223011;stroke-miterlimit:4;stroke-opacity:1;stroke-dasharray:none"
           id="g246">
          <desc
             id="desc248">Drawing</desc>
          <g
             style="stroke:#000000;stroke-width:17.6223011;stroke-miterlimit:4;stroke-opacity:1;stroke-dasharray:none"
             id="g250">
            <g
               id="g252"
               style="fill:none;stroke:#000000;stroke-width:17.6223011;stroke-miterlimit:4;stroke-opacity:1;stroke-dasharray:none">
              <path
                 id="path254"
                 d="m 9440,2950 -5644,5"
                 style="fill:none;stroke:#000000;stroke-width:17.6223011;stroke-miterlimit:4;stroke-opacity:1;stroke-dasharray:none" />
            </g>
            <g
               style="stroke:#000000;stroke-width:17.6223011;stroke-miterlimit:4;stroke-opacity:1;stroke-dasharray:none"
               id="g256" />
          </g>
        </g>
        <g
           style="stroke:#000000;stroke-width:17.6223011;stroke-miterlimit:4;stroke-opacity:1;stroke-dasharray:none"
           id="g258">
          <desc
             id="desc260">Drawing</desc>
          <g
             style="stroke:#000000;stroke-width:17.6223011;stroke-miterlimit:4;stroke-opacity:1;stroke-dasharray:none"
             id="g262">
            <g
               id="g264"
               style="fill:none;stroke:#000000;stroke-width:17.6223011;stroke-miterlimit:4;stroke-opacity:1;stroke-dasharray:none">
              <path
                 id="path266"
                 d="m 8669,2950 -5,1182"
                 style="fill:none;stroke:#000000;stroke-width:17.6223011;stroke-miterlimit:4;stroke-opacity:1;stroke-dasharray:none" />
            </g>
            <g
               style="stroke:#000000;stroke-width:17.6223011;stroke-miterlimit:4;stroke-opacity:1;stroke-dasharray:none"
               id="g268" />
          </g>
        </g>
        <g
           style="stroke:#000000;stroke-width:17.6223011;stroke-miterlimit:4;stroke-opacity:1;stroke-dasharray:none"
           id="g270">
          <desc
             id="desc272">Drawing</desc>
          <g
             style="stroke:#000000;stroke-width:17.6223011;stroke-miterlimit:4;stroke-opacity:1;stroke-dasharray:none"
             id="g274">
            <g
               id="g276"
               style="fill:none;stroke:#000000;stroke-width:17.6223011;stroke-miterlimit:4;stroke-opacity:1;stroke-dasharray:none">
              <path
                 id="path278"
                 d="m 8157,2950 -4,1182"
                 style="fill:none;stroke:#000000;stroke-width:17.6223011;stroke-miterlimit:4;stroke-opacity:1;stroke-dasharray:none" />
            </g>
            <g
               style="stroke:#000000;stroke-width:17.6223011;stroke-miterlimit:4;stroke-opacity:1;stroke-dasharray:none"
               id="g280" />
          </g>
        </g>
        <g
           style="stroke:#000000;stroke-width:17.6223011;stroke-miterlimit:4;stroke-opacity:1;stroke-dasharray:none"
           id="g282">
          <desc
             id="desc284">Drawing</desc>
          <g
             style="stroke:#000000;stroke-width:17.6223011;stroke-miterlimit:4;stroke-opacity:1;stroke-dasharray:none"
             id="g286">
            <g
               id="g288"
               style="fill:none;stroke:#000000;stroke-width:17.6223011;stroke-miterlimit:4;stroke-opacity:1;stroke-dasharray:none">
              <path
                 id="path290"
                 d="m 7646,2950 -5,1182"
                 style="fill:none;stroke:#000000;stroke-width:17.6223011;stroke-miterlimit:4;stroke-opacity:1;stroke-dasharray:none" />
            </g>
            <g
               style="stroke:#000000;stroke-width:17.6223011;stroke-miterlimit:4;stroke-opacity:1;stroke-dasharray:none"
               id="g292" />
          </g>
        </g>
        <g
           style="stroke:#000000;stroke-width:17.6223011;stroke-miterlimit:4;stroke-opacity:1;stroke-dasharray:none"
           id="g294">
          <desc
             id="desc296">Drawing</desc>
          <g
             style="stroke:#000000;stroke-width:17.6223011;stroke-miterlimit:4;stroke-opacity:1;stroke-dasharray:none"
             id="g298">
            <g
               id="g300"
               style="fill:none;stroke:#000000;stroke-width:17.6223011;stroke-miterlimit:4;stroke-opacity:1;stroke-dasharray:none">
              <path
                 id="path302"
                 d="m 7130,2950 -5,1182"
                 style="fill:none;stroke:#000000;stroke-width:17.6223011;stroke-miterlimit:4;stroke-opacity:1;stroke-dasharray:none" />
            </g>
            <g
               style="stroke:#000000;stroke-width:17.6223011;stroke-miterlimit:4;stroke-opacity:1;stroke-dasharray:none"
               id="g304" />
          </g>
        </g>
        <g
           style="stroke:#000000;stroke-width:17.6223011;stroke-miterlimit:4;stroke-opacity:1;stroke-dasharray:none"
           id="g306">
          <desc
             id="desc308">Drawing</desc>
          <g
             style="stroke:#000000;stroke-width:17.6223011;stroke-miterlimit:4;stroke-opacity:1;stroke-dasharray:none"
             id="g310">
            <g
               id="g312"
               style="fill:none;stroke:#000000;stroke-width:17.6223011;stroke-miterlimit:4;stroke-opacity:1;stroke-dasharray:none">
              <path
                 id="path314"
                 d="m 6618,2950 -4,1182"
                 style="fill:none;stroke:#000000;stroke-width:17.6223011;stroke-miterlimit:4;stroke-opacity:1;stroke-dasharray:none" />
            </g>
            <g
               style="stroke:#000000;stroke-width:17.6223011;stroke-miterlimit:4;stroke-opacity:1;stroke-dasharray:none"
               id="g316" />
          </g>
        </g>
        <g
           style="stroke:#000000;stroke-width:17.6223011;stroke-miterlimit:4;stroke-opacity:1;stroke-dasharray:none"
           id="g318">
          <desc
             id="desc320">Drawing</desc>
          <g
             style="stroke:#000000;stroke-width:17.6223011;stroke-miterlimit:4;stroke-opacity:1;stroke-dasharray:none"
             id="g322">
            <g
               id="g324"
               style="fill:none;stroke:#000000;stroke-width:17.6223011;stroke-miterlimit:4;stroke-opacity:1;stroke-dasharray:none">
              <path
                 id="path326"
                 d="m 6107,2950 -5,1182"
                 style="fill:none;stroke:#000000;stroke-width:17.6223011;stroke-miterlimit:4;stroke-opacity:1;stroke-dasharray:none" />
            </g>
            <g
               style="stroke:#000000;stroke-width:17.6223011;stroke-miterlimit:4;stroke-opacity:1;stroke-dasharray:none"
               id="g328" />
          </g>
        </g>
        <g
           style="stroke:#000000;stroke-width:17.6223011;stroke-miterlimit:4;stroke-opacity:1;stroke-dasharray:none"
           id="g330">
          <desc
             id="desc332">Drawing</desc>
          <g
             style="stroke:#000000;stroke-width:17.6223011;stroke-miterlimit:4;stroke-opacity:1;stroke-dasharray:none"
             id="g334">
            <g
               id="g336"
               style="fill:none;stroke:#000000;stroke-width:17.6223011;stroke-miterlimit:4;stroke-opacity:1;stroke-dasharray:none">
              <path
                 id="path338"
                 d="m 5591,2950 -5,1182"
                 style="fill:none;stroke:#000000;stroke-width:17.6223011;stroke-miterlimit:4;stroke-opacity:1;stroke-dasharray:none" />
            </g>
            <g
               style="stroke:#000000;stroke-width:17.6223011;stroke-miterlimit:4;stroke-opacity:1;stroke-dasharray:none"
               id="g340" />
          </g>
        </g>
        <g
           style="stroke:#000000;stroke-width:17.6223011;stroke-miterlimit:4;stroke-opacity:1;stroke-dasharray:none"
           id="g342">
          <desc
             id="desc344">Drawing</desc>
          <g
             style="stroke:#000000;stroke-width:17.6223011;stroke-miterlimit:4;stroke-opacity:1;stroke-dasharray:none"
             id="g346">
            <g
               id="g348"
               style="fill:none;stroke:#000000;stroke-width:17.6223011;stroke-miterlimit:4;stroke-opacity:1;stroke-dasharray:none">
              <path
                 id="path350"
                 d="m 5079,2950 -4,1182"
                 style="fill:none;stroke:#000000;stroke-width:17.6223011;stroke-miterlimit:4;stroke-opacity:1;stroke-dasharray:none" />
            </g>
            <g
               style="stroke:#000000;stroke-width:17.6223011;stroke-miterlimit:4;stroke-opacity:1;stroke-dasharray:none"
               id="g352" />
          </g>
        </g>
        <g
           style="stroke:#000000;stroke-width:17.6223011;stroke-miterlimit:4;stroke-opacity:1;stroke-dasharray:none"
           id="g354">
          <desc
             id="desc356">Drawing</desc>
          <g
             style="stroke:#000000;stroke-width:17.6223011;stroke-miterlimit:4;stroke-opacity:1;stroke-dasharray:none"
             id="g358">
            <g
               id="g360"
               style="fill:none;stroke:#000000;stroke-width:17.6223011;stroke-miterlimit:4;stroke-opacity:1;stroke-dasharray:none">
              <path
                 id="path362"
                 d="m 4568,2950 -5,1182"
                 style="fill:none;stroke:#000000;stroke-width:17.6223011;stroke-miterlimit:4;stroke-opacity:1;stroke-dasharray:none" />
            </g>
            <g
               style="stroke:#000000;stroke-width:17.6223011;stroke-miterlimit:4;stroke-opacity:1;stroke-dasharray:none"
               id="g364" />
          </g>
        </g>
      </g>
      <text
         y="-30017.422"
         x="-55757.109"
         style="font-size:3346.94970703px;font-weight:700;fill:#000000;fill-rule:evenodd;visibility:visible;font-family:Times New Roman embedded"
         id="text462">
        <tspan
           id="tspan464" />
      </text>
      <text
         xml:space="preserve"
         style="font-size:40px;font-style:normal;font-weight:normal;fill:#000000;fill-opacity:1;fill-rule:evenodd;stroke:none;visibility:visible;font-family:Bitstream Vera Sans"
         x="-3805.6895"
         y="-9812.6953"
         id="text3348"><tspan
           sodipodi:role="line"
           id="tspan3350"
           x="-3805.6895"
           y="-9812.6953">FRONT</tspan></text>
      <flowRoot
         transform="matrix(7.9124105,0,0,7.9124105,-55757.108,-30017.422)"
         xml:space="preserve"
         id="flowRoot3352"
         style="font-size:40px;font-style:normal;font-weight:normal;fill:#000000;fill-opacity:1;fill-rule:evenodd;stroke:none;visibility:visible;font-family:Bitstream Vera Sans"><flowRegion
           id="flowRegion3354"><rect
             id="rect3356"
             width="27722.377"
             height="8638.7012"
             x="-17843.975"
             y="-5385.5972" /></flowRegion><flowPara
           id="flowPara3358" /></flowRoot>      <text
         xml:space="preserve"
         style="font-size:8276.60253906px;font-style:normal;font-weight:normal;fill:#000000;fill-opacity:1;fill-rule:evenodd;stroke:none;visibility:visible;font-family:Bitstream Vera Sans"
         x="-20219.221"
         y="-11305.838"
         id="text3364"><tspan
           sodipodi:role="line"
           id="tspan3366"
           x="-20219.221"
           y="-11305.838" /></text>
      <text
         xml:space="preserve"
         style="font-size:40px;font-style:normal;font-weight:normal;fill:#000000;fill-opacity:1;fill-rule:evenodd;stroke:none;visibility:visible;font-family:Bitstream Vera Sans"
         x="-26737.514"
         y="8249.0391"
         id="text3368"><tspan
           sodipodi:role="line"
           id="tspan3370"
           x="-26737.514"
           y="8249.0391" /></text>
      <text
         xml:space="preserve"
         style="font-size:3346.43701172px;font-style:normal;font-weight:normal;fill:#000000;fill-opacity:1;fill-rule:evenodd;stroke:none;visibility:visible;font-family:Bitstream Vera Sans"
         x="-24067.371"
         y="-8622.1377"
         id="text3372"><tspan
           sodipodi:role="line"
           id="tspan3374"
           x="-24067.371"
           y="-8622.1377"
           style="font-size:3346.43701172px;font-style:normal;font-variant:normal;font-weight:normal;font-stretch:normal;font-family:Arial;-inkscape-font-specification:Arial">FRONT</tspan></text>
      <text
         xml:space="preserve"
         style="font-size:3310.64013672px;font-style:normal;font-weight:normal;fill:#000000;fill-opacity:1;fill-rule:evenodd;stroke:none;visibility:visible;font-family:Bitstream Vera Sans"
         x="8825.3838"
         y="-8622.1377"
         id="text3376"><tspan
           sodipodi:role="line"
           id="tspan3378"
           x="8825.3838"
           y="-8622.1377"
           style="font-style:normal;font-variant:normal;font-weight:normal;font-stretch:normal;font-family:Arial;-inkscape-font-specification:Arial">BACK</tspan></text>
      <g
         transform="matrix(7.9124105,0,0,7.9124105,-53401.099,-30331.557)"
         id="g466"
         style="fill-rule:evenodd;visibility:visible">
        <desc
           id="desc468">Group</desc>
        <g
           id="g470">
          <desc
             id="desc472">Drawing</desc>
          <g
             id="g474">
            <g
               id="g476"
               style="fill:#000000;stroke:none">
              <path
                 id="path478"
                 d="m 10553,4661 -2,-62 35,-1 35,-1 2,62 -35,1 -35,1 z" />
              <path
                 id="path480"
                 d="m 10586,4598 35,-2 0,0 0,1 -35,1 z" />
              <path
                 id="path482"
                 d="m 10551,4600 -4,-61 35,-2 35,-2 4,61 -35,2 -35,2 z" />
              <path
                 id="path484"
                 d="m 10582,4537 35,-3 0,0 0,1 -35,2 z" />
              <path
                 id="path486"
                 d="m 10547,4540 -6,-61 35,-3 35,-3 6,61 -35,3 -35,3 z" />
              <path
                 id="path488"
                 d="m 10576,4476 35,-5 0,1 0,1 -35,3 z" />
              <path
                 id="path490"
                 d="m 10541,4481 -9,-61 35,-5 35,-5 9,61 -35,5 -35,5 z" />
              <path
                 id="path492"
                 d="m 10567,4415 35,-6 0,0 0,1 -35,5 z" />
              <path
                 id="path494"
                 d="m 10532,4421 -11,-60 35,-6 35,-6 11,60 -35,6 -35,6 z" />
              <path
                 id="path496"
                 d="m 10556,4355 35,-8 0,1 0,1 -35,6 z" />
              <path
                 id="path498"
                 d="m 10521,4363 -14,-59 35,-8 35,-8 14,59 -35,8 -35,8 z" />
              <path
                 id="path500"
                 d="m 10542,4296 34,-9 0,0 1,1 -35,8 z" />
              <path
                 id="path502"
                 d="m 10508,4305 -16,-58 34,-9 34,-9 16,58 -34,9 -34,9 z" />
              <path
                 id="path504"
                 d="m 10526,4238 34,-11 0,1 0,1 -34,9 z" />
              <path
                 id="path506"
                 d="m 10492,4249 -18,-57 34,-11 34,-11 18,57 -34,11 -34,11 z" />
              <path
                 id="path508"
                 d="m 10508,4181 33,-12 1,1 0,0 -34,11 z" />
              <path
                 id="path510"
                 d="m 10475,4193 -20,-56 33,-12 33,-12 20,56 -33,12 -33,12 z" />
              <path
                 id="path512"
                 d="m 10488,4125 33,-14 0,1 0,1 -33,12 z" />
              <path
                 id="path514"
                 d="m 10455,4139 -23,-54 33,-14 33,-14 23,54 -33,14 -33,14 z" />
              <path
                 id="path516"
                 d="m 10465,4071 32,-15 1,1 0,0 -33,14 z" />
              <path
                 id="path518"
                 d="m 10433,4086 -24,-53 32,-15 32,-15 24,53 -32,15 -32,15 z" />
              <path
                 id="path520"
                 d="m 10441,4018 31,-17 1,1 0,1 -32,15 z" />
              <path
                 id="path522"
                 d="m 10410,4035 -27,-50 31,-17 31,-17 27,50 -31,17 -31,17 z" />
              <path
                 id="path524"
                 d="m 10414,3968 31,-18 0,1 0,0 -31,17 z" />
              <path
                 id="path526"
                 d="m 10383,3986 -29,-49 31,-18 31,-18 29,49 -31,18 -31,18 z" />
              <path
                 id="path528"
                 d="m 10385,3919 30,-19 0,0 1,1 -31,18 z" />
              <path
                 id="path530"
                 d="m 10355,3938 -30,-47 30,-19 30,-19 30,47 -30,19 -30,19 z" />
              <path
                 id="path532"
                 d="m 10355,3872 29,-21 0,1 1,1 -30,19 z" />
              <path
                 id="path534"
                 d="m 10326,3893 -33,-45 29,-21 29,-21 33,45 -29,21 -29,21 z" />
              <path
                 id="path536"
                 d="m 10322,3827 28,-22 0,0 1,1 -29,21 z" />
              <path
                 id="path538"
                 d="m 10294,3849 -34,-43 28,-22 28,-22 34,43 -28,22 -28,22 z" />
              <path
                 id="path540"
                 d="m 10288,3784 26,-24 1,1 1,1 -28,22 z" />
              <path
                 id="path542"
                 d="m 10262,3808 -36,-40 26,-24 26,-24 36,40 -26,24 -26,24 z" />
              <path
                 id="path544"
                 d="m 10252,3744 25,-25 1,1 0,0 -26,24 z" />
              <path
                 id="path546"
                 d="m 10227,3769 -37,-38 25,-25 25,-25 37,38 -25,25 -25,25 z" />
              <path
                 id="path548"
                 d="m 10215,3706 24,-26 1,0 0,1 -25,25 z" />
              <path
                 id="path550"
                 d="m 10191,3732 -39,-35 24,-26 24,-26 39,35 -24,26 -24,26 z" />
              <path
                 id="path552"
                 d="m 10176,3671 22,-28 1,1 1,1 -24,26 z" />
              <path
                 id="path554"
                 d="m 10154,3699 -40,-32 22,-28 22,-28 40,32 -22,28 -22,28 z" />
              <path
                 id="path556"
                 d="m 10136,3639 21,-29 1,1 0,0 -22,28 z" />
              <path
                 id="path558"
                 d="m 10115,3668 -41,-30 21,-29 21,-29 41,30 -21,29 -21,29 z" />
              <path
                 id="path560"
                 d="m 10095,3609 19,-30 1,1 1,0 -21,29 z" />
              <path
                 id="path562"
                 d="m 10076,3639 -42,-27 19,-30 19,-30 42,27 -19,30 -19,30 z" />
              <path
                 id="path564"
                 d="m 10053,3582 17,-31 1,0 1,1 -19,30 z" />
              <path
                 id="path566"
                 d="m 10036,3613 -44,-24 17,-31 17,-31 44,24 -17,31 -17,31 z" />
              <path
                 id="path568"
                 d="m 10009,3558 15,-32 1,0 1,1 -17,31 z" />
              <path
                 id="path570"
                 d="m 9994,3590 -44,-20 15,-32 15,-32 44,20 -15,32 -15,32 z" />
              <path
                 id="path572"
                 d="m 9965,3538 13,-33 1,0 1,1 -15,32 z" />
              <path
                 id="path574"
                 d="m 9952,3571 -45,-18 13,-33 13,-33 45,18 -13,33 -13,33 z" />
              <path
                 id="path576"
                 d="m 9920,3520 11,-34 1,1 1,0 -13,33 z" />
              <path
                 id="path578"
                 d="m 9909,3554 -46,-15 11,-34 11,-34 46,15 -11,34 -11,34 z" />
              <path
                 id="path580"
                 d="m 9874,3505 9,-34 1,0 1,0 -11,34 z" />
              <path
                 id="path582"
                 d="m 9865,3539 -46,-12 9,-34 9,-34 46,12 -9,34 -9,34 z" />
              <path
                 id="path584"
                 d="m 9828,3493 6,-35 1,0 2,1 -9,34 z" />
              <path
                 id="path586"
                 d="m 9822,3528 -47,-8 6,-35 6,-35 47,8 -6,35 -6,35 z" />
              <path
                 id="path588"
                 d="m 9781,3485 4,-35 1,0 1,0 -6,35 z" />
              <path
                 id="path590"
                 d="m 9777,3520 -47,-6 4,-35 4,-35 47,6 -4,35 -4,35 z" />
              <path
                 id="path592"
                 d="m 9734,3479 2,-35 1,0 1,0 -4,35 z" />
              <path
                 id="path594"
                 d="m 9732,3514 -47,-2 2,-35 2,-35 47,2 -2,35 -2,35 z" />
            </g>
            <g
               id="g596" />
          </g>
        </g>
        <g
           id="g598">
          <desc
             id="desc600">Drawing</desc>
          <g
             id="g602">
            <g
               id="g604"
               style="fill:#000000;stroke:none">
              <path
                 id="path606"
                 d="m 9698,3510 -93,4 -4,-70 93,-4 4,70 z" />
            </g>
            <g
               id="g608" />
          </g>
        </g>
        <g
           id="g610">
          <desc
             id="desc612">Drawing</desc>
          <g
             id="g614">
            <g
               id="g616"
               style="fill:#000000;stroke:none">
              <path
                 id="path618"
                 d="m 9652,3364 0,226 -213,-116 213,-110 0,0 z" />
            </g>
            <g
               id="g620"
               style="fill:none;stroke:#000000">
              <path
                 id="path622"
                 d="m 9652,3364 0,226 -213,-116 213,-110"
                 style="fill:none" />
            </g>
            <g
               id="g624" />
          </g>
        </g>
      </g>
      <g
         transform="matrix(7.9124105,0,0,7.9124105,-53401.099,-30331.557)"
         id="g626"
         style="fill-rule:evenodd;visibility:visible">
        <desc
           id="desc628">Group</desc>
        <g
           id="g630">
          <desc
             id="desc632">Drawing</desc>
          <g
             id="g634">
            <g
               id="g636"
               style="fill:#000000;stroke:none">
              <path
                 id="path638"
                 d="m 4037,3510 -60,1 -1,-35 -1,-35 60,-1 1,35 1,35 z" />
              <path
                 id="path640"
                 d="m 3976,3476 -2,-35 1,0 0,0 1,35 z" />
              <path
                 id="path642"
                 d="m 3978,3511 -59,4 -2,-35 -2,-35 59,-4 2,35 2,35 z" />
              <path
                 id="path644"
                 d="m 3917,3480 -4,-35 1,0 1,0 2,35 z" />
              <path
                 id="path646"
                 d="m 3921,3515 -59,6 -4,-35 -4,-35 59,-6 4,35 4,35 z" />
              <path
                 id="path648"
                 d="m 3858,3486 -5,-35 1,0 0,0 4,35 z" />
              <path
                 id="path650"
                 d="m 3863,3521 -59,8 -5,-35 -5,-35 59,-8 5,35 5,35 z" />
              <path
                 id="path652"
                 d="m 3799,3494 -7,-35 1,0 1,0 5,35 z" />
              <path
                 id="path654"
                 d="m 3806,3529 -58,12 -7,-35 -7,-35 58,-12 7,35 7,35 z" />
              <path
                 id="path656"
                 d="m 3741,3506 -8,-35 1,0 0,0 7,35 z" />
              <path
                 id="path658"
                 d="m 3749,3541 -58,13 -8,-35 -8,-35 58,-13 8,35 8,35 z" />
              <path
                 id="path660"
                 d="m 3683,3519 -10,-34 1,0 1,-1 8,35 z" />
              <path
                 id="path662"
                 d="m 3693,3553 -56,16 -10,-34 -10,-34 56,-16 10,34 10,34 z" />
              <path
                 id="path664"
                 d="m 3627,3535 -12,-34 1,0 1,0 10,34 z" />
              <path
                 id="path666"
                 d="m 3639,3569 -55,19 -12,-34 -12,-34 55,-19 12,34 12,34 z" />
              <path
                 id="path668"
                 d="m 3572,3554 -13,-33 1,0 0,-1 12,34 z" />
              <path
                 id="path670"
                 d="m 3585,3587 -54,21 -13,-33 -13,-33 54,-21 13,33 13,33 z" />
              <path
                 id="path672"
                 d="m 3518,3575 -14,-33 0,0 1,0 13,33 z" />
              <path
                 id="path674"
                 d="m 3532,3608 -53,23 -14,-33 -14,-33 53,-23 14,33 14,33 z" />
              <path
                 id="path676"
                 d="m 3465,3598 -16,-32 1,0 1,-1 14,33 z" />
              <path
                 id="path678"
                 d="m 3481,3630 -51,25 -16,-32 -16,-32 51,-25 16,32 16,32 z" />
              <path
                 id="path680"
                 d="m 3414,3623 -17,-31 1,-1 0,0 16,32 z" />
              <path
                 id="path682"
                 d="m 3431,3654 -49,27 -17,-31 -17,-31 49,-27 17,31 17,31 z" />
              <path
                 id="path684"
                 d="m 3365,3650 -19,-30 1,-1 1,0 17,31 z" />
              <path
                 id="path686"
                 d="m 3384,3680 -48,30 -19,-30 -19,-30 48,-30 19,30 19,30 z" />
              <path
                 id="path688"
                 d="m 3317,3680 -20,-29 1,-1 0,0 19,30 z" />
              <path
                 id="path690"
                 d="m 3337,3709 -45,31 -20,-29 -20,-29 45,-31 20,29 20,29 z" />
              <path
                 id="path692"
                 d="m 3272,3711 -22,-28 1,-1 1,0 20,29 z" />
              <path
                 id="path694"
                 d="m 3294,3739 -44,34 -22,-28 -22,-28 44,-34 22,28 22,28 z" />
              <path
                 id="path696"
                 d="m 3228,3745 -23,-27 1,-1 0,0 22,28 z" />
              <path
                 id="path698"
                 d="m 3251,3772 -41,35 -23,-27 -23,-27 41,-35 23,27 23,27 z" />
              <path
                 id="path700"
                 d="m 3187,3780 -24,-26 0,0 1,-1 23,27 z" />
              <path
                 id="path702"
                 d="m 3211,3806 -39,37 -24,-26 -24,-26 39,-37 24,26 24,26 z" />
              <path
                 id="path704"
                 d="m 3148,3817 -26,-24 1,-1 1,-1 24,26 z" />
              <path
                 id="path706"
                 d="m 3174,3841 -36,38 -26,-24 -26,-24 36,-38 26,24 26,24 z" />
              <path
                 id="path708"
                 d="m 3112,3855 -27,-23 1,-1 0,0 26,24 z" />
              <path
                 id="path710"
                 d="m 3139,3878 -34,40 -27,-23 -27,-23 34,-40 27,23 27,23 z" />
              <path
                 id="path712"
                 d="m 3078,3895 -28,-22 0,0 1,-1 27,23 z" />
              <path
                 id="path714"
                 d="m 3106,3917 -32,42 -28,-22 -28,-22 32,-42 28,22 28,22 z" />
              <path
                 id="path716"
                 d="m 3046,3937 -29,-20 0,-1 1,-1 28,22 z" />
              <path
                 id="path718"
                 d="m 3075,3957 -29,42 -29,-20 -29,-20 29,-42 29,20 29,20 z" />
              <path
                 id="path720"
                 d="m 3017,3979 -31,-18 1,-1 1,-1 29,20 z" />
              <path
                 id="path722"
                 d="m 3048,3997 -25,44 -31,-18 -31,-18 25,-44 31,18 31,18 z" />
              <path
                 id="path724"
                 d="m 2992,4023 -31,-17 0,0 0,-1 31,18 z" />
              <path
                 id="path726"
                 d="m 3023,4040 -24,45 -31,-17 -31,-17 24,-45 31,17 31,17 z" />
              <path
                 id="path728"
                 d="m 2968,4068 -33,-14 1,-1 1,-2 31,17 z" />
              <path
                 id="path730"
                 d="m 3001,4082 -20,46 -33,-14 -33,-14 20,-46 33,14 33,14 z" />
              <path
                 id="path732"
                 d="m 2948,4114 -33,-12 0,-1 0,-1 33,14 z" />
              <path
                 id="path734"
                 d="m 2981,4126 -17,46 -33,-12 -33,-12 17,-46 33,12 33,12 z" />
              <path
                 id="path736"
                 d="m 2931,4160 -34,-10 0,-1 1,-1 33,12 z" />
              <path
                 id="path738"
                 d="m 2965,4170 -14,48 -34,-10 -34,-10 14,-48 34,10 34,10 z" />
              <path
                 id="path740"
                 d="m 2917,4208 -35,-8 1,-1 0,-1 34,10 z" />
              <path
                 id="path742"
                 d="m 2952,4216 -11,48 -35,-8 -35,-8 11,-48 35,8 35,8 z" />
              <path
                 id="path744"
                 d="m 2906,4256 -35,-6 0,-1 0,-1 35,8 z" />
              <path
                 id="path746"
                 d="m 2941,4262 -8,48 -35,-6 -35,-6 8,-48 35,6 35,6 z" />
              <path
                 id="path748"
                 d="m 2898,4304 -35,-4 0,-1 0,-1 35,6 z" />
              <path
                 id="path750"
                 d="m 2933,4308 -5,48 -35,-4 -35,-4 5,-48 35,4 35,4 z" />
              <path
                 id="path752"
                 d="m 2893,4352 -35,-1 0,-2 0,-1 35,4 z" />
              <path
                 id="path754"
                 d="m 2928,4353 -2,49 -35,-1 -35,-1 2,-49 35,1 35,1 z" />
            </g>
            <g
               id="g756" />
          </g>
        </g>
        <g
           id="g758">
          <desc
             id="desc760">Drawing</desc>
          <g
             id="g762">
            <g
               id="g764"
               style="fill:#000000;stroke:none">
              <path
                 id="path766"
                 d="m 2936,4394 -5,97 -70,-4 5,-97 70,4 z" />
            </g>
            <g
               id="g768" />
          </g>
        </g>
        <g
           id="g770">
          <desc
             id="desc772">Drawing</desc>
          <g
             id="g774">
            <g
               id="g776"
               style="fill:#000000;stroke:none">
              <path
                 id="path778"
                 d="m 2785,4436 226,0 -110,217 -116,-217 0,0 z" />
            </g>
            <g
               id="g780"
               style="fill:none;stroke:#000000">
              <path
                 id="path782"
                 d="m 2785,4436 226,0 -110,217 -116,-217"
                 style="fill:none" />
            </g>
            <g
               id="g784" />
          </g>
        </g>
      </g>
      <text
         id="text3397"
         y="8641.707"
         x="-36795.934"
         style="font-size:3310.64013672px;font-style:normal;font-weight:normal;fill:#000000;fill-opacity:1;fill-rule:evenodd;stroke:none;font-family:Bitstream Vera Sans"
         xml:space="preserve"><tspan
           style="font-style:italic;font-variant:normal;font-weight:normal;font-stretch:normal;font-family:Arial;-inkscape-font-specification:Arial Italic"
           y="8641.707"
           x="-36795.934"
           id="tspan3399"
           sodipodi:role="line">removal</tspan></text>
      <text
         id="text3401"
         y="8933.5195"
         x="23166.955"
         style="font-size:3310.64013672px;font-style:normal;font-weight:normal;fill:#000000;fill-opacity:1;fill-rule:evenodd;stroke:none;font-family:Bitstream Vera Sans"
         xml:space="preserve"><tspan
           style="font-style:italic;font-variant:normal;font-weight:normal;font-stretch:normal;font-family:Arial;-inkscape-font-specification:Arial Italic"
           y="8933.5195"
           x="23166.955"
           id="tspan3403"
           sodipodi:role="line">insertion</tspan></text>
      <text
         id="text3405"
         y="10605.047"
         x="-32313.404"
         style="font-size:16px;font-style:normal;font-weight:normal;fill:#000000;fill-opacity:1;fill-rule:evenodd;stroke:none;font-family:Bitstream Vera Sans"
         xml:space="preserve"><tspan
           style="font-size:0.077326px;font-style:italic"
           y="10605.047"
           x="-32313.404"
           id="tspan3407"
           sodipodi:role="line">pop()</tspan></text>
      <text
         id="text3409"
         y="10683.582"
         x="-32234.869"
         style="font-size:16px;font-style:normal;font-weight:normal;fill:#000000;fill-opacity:1;fill-rule:evenodd;stroke:none;font-family:Bitstream Vera Sans"
         xml:space="preserve"><tspan
           y="10683.582"
           x="-32234.869"
           id="tspan3411"
           sodipodi:role="line">hhh</tspan></text>
      <text
         id="text3413"
         y="11233.318"
         x="-33612.266"
         style="font-size:2482.91674805px;font-style:normal;font-weight:normal;fill:#000000;fill-opacity:1;fill-rule:evenodd;stroke:none;font-family:Bitstream Vera Sans"
         xml:space="preserve"><tspan
           style="font-size:2482.91674805px;font-style:italic;font-variant:normal;font-weight:normal;font-stretch:normal;font-family:Arial;-inkscape-font-specification:Arial Italic"
           y="11233.318"
           x="-33612.266"
           id="tspan3415"
           sodipodi:role="line">pop()</tspan></text>
      <text
         id="text3417"
         y="11816.633"
         x="25910.377"
         style="font-size:2482.98022461px;font-style:normal;font-weight:normal;fill:#000000;fill-opacity:1;fill-rule:evenodd;stroke:none;font-family:Bitstream Vera Sans"
         xml:space="preserve"><tspan
           style="font-size:2482.98022461px;font-style:italic;font-variant:normal;font-weight:normal;font-stretch:normal;font-family:Arial;-inkscape-font-specification:Arial Italic"
           y="11816.633"
           x="25910.377"
           id="tspan3419"
           sodipodi:role="line">insert()</tspan></text>
    </g>
  </g>
</svg>
