<?xml version="1.0" encoding="UTF-8" standalone="no"?>
<!-- Created with Inkscape (http://www.inkscape.org/) -->
<svg
   xmlns:dc="http://purl.org/dc/elements/1.1/"
   xmlns:cc="http://creativecommons.org/ns#"
   xmlns:rdf="http://www.w3.org/1999/02/22-rdf-syntax-ns#"
   xmlns:svg="http://www.w3.org/2000/svg"
   xmlns="http://www.w3.org/2000/svg"
   xmlns:sodipodi="http://sodipodi.sourceforge.net/DTD/sodipodi-0.dtd"
   xmlns:inkscape="http://www.inkscape.org/namespaces/inkscape"
   width="531.49603"
   height="166.55255"
   id="svg2"
   sodipodi:version="0.32"
   inkscape:version="0.46"
   version="1.0"
   sodipodi:docname="simlib-queue.svg"
   inkscape:output_extension="org.inkscape.output.svg.inkscape">
  <defs
     id="defs4" />
  <sodipodi:namedview
     id="base"
     pagecolor="#ffffff"
     bordercolor="#666666"
     borderopacity="1.0"
     gridtolerance="10000"
     guidetolerance="10"
     objecttolerance="10"
     inkscape:pageopacity="0.0"
     inkscape:pageshadow="2"
     inkscape:zoom="2.2257926"
     inkscape:cx="267.38309"
     inkscape:cy="83.276551"
     inkscape:document-units="px"
     inkscape:current-layer="layer1"
     showgrid="false"
     inkscape:window-width="1280"
     inkscape:window-height="750"
     inkscape:window-x="0"
     inkscape:window-y="0" />
  <metadata
     id="metadata7">
    <rdf:RDF>
      <cc:Work
         rdf:about="">
        <dc:format>image/svg+xml</dc:format>
        <dc:type
           rdf:resource="http://purl.org/dc/dcmitype/StillImage" />
      </cc:Work>
    </rdf:RDF>
  </metadata>
  <g
     inkscape:label="Layer 1"
     inkscape:groupmode="layer"
     id="layer1"
     transform="translate(36679.544,-11977.427)">
    <g
       id="g14964"
       transform="matrix(7.171807e-3,0,0,7.171807e-3,-36416.485,12056.885)">
      <g
         transform="matrix(7.9124105,0,0,7.9124105,-53401.099,-30331.557)"
         id="g222"
         style="fill-rule:evenodd;visibility:visible">
        <desc
           id="desc224">Drawing</desc>
        <g
           id="g226">
          <g
             id="g228" />
        </g>
      </g>
      <g
         transform="matrix(7.9124105,0,0,7.9124105,-53401.099,-30331.557)"
         id="g230"
         style="fill-rule:evenodd;stroke:#000000;stroke-width:17.62230021;stroke-miterlimit:4;stroke-dasharray:none;stroke-opacity:1;visibility:visible">
        <desc
           id="desc232">Group</desc>
        <g
           style="stroke:#000000;stroke-width:17.62230021;stroke-miterlimit:4;stroke-dasharray:none;stroke-opacity:1"
           id="g234">
          <desc
             id="desc236">Drawing</desc>
          <g
             style="stroke:#000000;stroke-width:17.62230021;stroke-miterlimit:4;stroke-dasharray:none;stroke-opacity:1"
             id="g238">
            <g
               id="g240"
               style="fill:none;stroke:#000000;stroke-width:17.62230021;stroke-miterlimit:4;stroke-dasharray:none;stroke-opacity:1">
              <path
                 id="path242"
                 d="M 9440,4132 L 3668,4136"
                 style="fill:none;stroke:#000000;stroke-width:17.62230021;stroke-miterlimit:4;stroke-dasharray:none;stroke-opacity:1" />
            </g>
            <g
               style="stroke:#000000;stroke-width:17.62230021;stroke-miterlimit:4;stroke-dasharray:none;stroke-opacity:1"
               id="g244" />
          </g>
        </g>
        <g
           style="stroke:#000000;stroke-width:17.62230021;stroke-miterlimit:4;stroke-dasharray:none;stroke-opacity:1"
           id="g246">
          <desc
             id="desc248">Drawing</desc>
          <g
             style="stroke:#000000;stroke-width:17.62230021;stroke-miterlimit:4;stroke-dasharray:none;stroke-opacity:1"
             id="g250">
            <g
               id="g252"
               style="fill:none;stroke:#000000;stroke-width:17.62230021;stroke-miterlimit:4;stroke-dasharray:none;stroke-opacity:1">
              <path
                 id="path254"
                 d="M 9440,2950 L 3796,2955"
                 style="fill:none;stroke:#000000;stroke-width:17.62230021;stroke-miterlimit:4;stroke-dasharray:none;stroke-opacity:1" />
            </g>
            <g
               style="stroke:#000000;stroke-width:17.62230021;stroke-miterlimit:4;stroke-dasharray:none;stroke-opacity:1"
               id="g256" />
          </g>
        </g>
        <g
           style="stroke:#000000;stroke-width:17.62230021;stroke-miterlimit:4;stroke-dasharray:none;stroke-opacity:1"
           id="g258">
          <desc
             id="desc260">Drawing</desc>
          <g
             style="stroke:#000000;stroke-width:17.62230021;stroke-miterlimit:4;stroke-dasharray:none;stroke-opacity:1"
             id="g262">
            <g
               id="g264"
               style="fill:none;stroke:#000000;stroke-width:17.62230021;stroke-miterlimit:4;stroke-dasharray:none;stroke-opacity:1">
              <path
                 id="path266"
                 d="M 8669,2950 L 8664,4132"
                 style="fill:none;stroke:#000000;stroke-width:17.62230021;stroke-miterlimit:4;stroke-dasharray:none;stroke-opacity:1" />
            </g>
            <g
               style="stroke:#000000;stroke-width:17.62230021;stroke-miterlimit:4;stroke-dasharray:none;stroke-opacity:1"
               id="g268" />
          </g>
        </g>
        <g
           style="stroke:#000000;stroke-width:17.62230021;stroke-miterlimit:4;stroke-dasharray:none;stroke-opacity:1"
           id="g270">
          <desc
             id="desc272">Drawing</desc>
          <g
             style="stroke:#000000;stroke-width:17.62230021;stroke-miterlimit:4;stroke-dasharray:none;stroke-opacity:1"
             id="g274">
            <g
               id="g276"
               style="fill:none;stroke:#000000;stroke-width:17.62230021;stroke-miterlimit:4;stroke-dasharray:none;stroke-opacity:1">
              <path
                 id="path278"
                 d="M 8157,2950 L 8153,4132"
                 style="fill:none;stroke:#000000;stroke-width:17.62230021;stroke-miterlimit:4;stroke-dasharray:none;stroke-opacity:1" />
            </g>
            <g
               style="stroke:#000000;stroke-width:17.62230021;stroke-miterlimit:4;stroke-dasharray:none;stroke-opacity:1"
               id="g280" />
          </g>
        </g>
        <g
           style="stroke:#000000;stroke-width:17.62230021;stroke-miterlimit:4;stroke-dasharray:none;stroke-opacity:1"
           id="g282">
          <desc
             id="desc284">Drawing</desc>
          <g
             style="stroke:#000000;stroke-width:17.62230021;stroke-miterlimit:4;stroke-dasharray:none;stroke-opacity:1"
             id="g286">
            <g
               id="g288"
               style="fill:none;stroke:#000000;stroke-width:17.62230021;stroke-miterlimit:4;stroke-dasharray:none;stroke-opacity:1">
              <path
                 id="path290"
                 d="M 7646,2950 L 7641,4132"
                 style="fill:none;stroke:#000000;stroke-width:17.62230021;stroke-miterlimit:4;stroke-dasharray:none;stroke-opacity:1" />
            </g>
            <g
               style="stroke:#000000;stroke-width:17.62230021;stroke-miterlimit:4;stroke-dasharray:none;stroke-opacity:1"
               id="g292" />
          </g>
        </g>
        <g
           style="stroke:#000000;stroke-width:17.62230021;stroke-miterlimit:4;stroke-dasharray:none;stroke-opacity:1"
           id="g294">
          <desc
             id="desc296">Drawing</desc>
          <g
             style="stroke:#000000;stroke-width:17.62230021;stroke-miterlimit:4;stroke-dasharray:none;stroke-opacity:1"
             id="g298">
            <g
               id="g300"
               style="fill:none;stroke:#000000;stroke-width:17.62230021;stroke-miterlimit:4;stroke-dasharray:none;stroke-opacity:1">
              <path
                 id="path302"
                 d="M 7130,2950 L 7125,4132"
                 style="fill:none;stroke:#000000;stroke-width:17.62230021;stroke-miterlimit:4;stroke-dasharray:none;stroke-opacity:1" />
            </g>
            <g
               style="stroke:#000000;stroke-width:17.62230021;stroke-miterlimit:4;stroke-dasharray:none;stroke-opacity:1"
               id="g304" />
          </g>
        </g>
        <g
           style="stroke:#000000;stroke-width:17.62230021;stroke-miterlimit:4;stroke-dasharray:none;stroke-opacity:1"
           id="g306">
          <desc
             id="desc308">Drawing</desc>
          <g
             style="stroke:#000000;stroke-width:17.62230021;stroke-miterlimit:4;stroke-dasharray:none;stroke-opacity:1"
             id="g310">
            <g
               id="g312"
               style="fill:none;stroke:#000000;stroke-width:17.62230021;stroke-miterlimit:4;stroke-dasharray:none;stroke-opacity:1">
              <path
                 id="path314"
                 d="M 6618,2950 L 6614,4132"
                 style="fill:none;stroke:#000000;stroke-width:17.62230021;stroke-miterlimit:4;stroke-dasharray:none;stroke-opacity:1" />
            </g>
            <g
               style="stroke:#000000;stroke-width:17.62230021;stroke-miterlimit:4;stroke-dasharray:none;stroke-opacity:1"
               id="g316" />
          </g>
        </g>
        <g
           style="stroke:#000000;stroke-width:17.62230021;stroke-miterlimit:4;stroke-dasharray:none;stroke-opacity:1"
           id="g318">
          <desc
             id="desc320">Drawing</desc>
          <g
             style="stroke:#000000;stroke-width:17.62230021;stroke-miterlimit:4;stroke-dasharray:none;stroke-opacity:1"
             id="g322">
            <g
               id="g324"
               style="fill:none;stroke:#000000;stroke-width:17.62230021;stroke-miterlimit:4;stroke-dasharray:none;stroke-opacity:1">
              <path
                 id="path326"
                 d="M 6107,2950 L 6102,4132"
                 style="fill:none;stroke:#000000;stroke-width:17.62230021;stroke-miterlimit:4;stroke-dasharray:none;stroke-opacity:1" />
            </g>
            <g
               style="stroke:#000000;stroke-width:17.62230021;stroke-miterlimit:4;stroke-dasharray:none;stroke-opacity:1"
               id="g328" />
          </g>
        </g>
        <g
           style="stroke:#000000;stroke-width:17.62230021;stroke-miterlimit:4;stroke-dasharray:none;stroke-opacity:1"
           id="g330">
          <desc
             id="desc332">Drawing</desc>
          <g
             style="stroke:#000000;stroke-width:17.62230021;stroke-miterlimit:4;stroke-dasharray:none;stroke-opacity:1"
             id="g334">
            <g
               id="g336"
               style="fill:none;stroke:#000000;stroke-width:17.62230021;stroke-miterlimit:4;stroke-dasharray:none;stroke-opacity:1">
              <path
                 id="path338"
                 d="M 5591,2950 L 5586,4132"
                 style="fill:none;stroke:#000000;stroke-width:17.62230021;stroke-miterlimit:4;stroke-dasharray:none;stroke-opacity:1" />
            </g>
            <g
               style="stroke:#000000;stroke-width:17.62230021;stroke-miterlimit:4;stroke-dasharray:none;stroke-opacity:1"
               id="g340" />
          </g>
        </g>
        <g
           style="stroke:#000000;stroke-width:17.62230021;stroke-miterlimit:4;stroke-dasharray:none;stroke-opacity:1"
           id="g342">
          <desc
             id="desc344">Drawing</desc>
          <g
             style="stroke:#000000;stroke-width:17.62230021;stroke-miterlimit:4;stroke-dasharray:none;stroke-opacity:1"
             id="g346">
            <g
               id="g348"
               style="fill:none;stroke:#000000;stroke-width:17.62230021;stroke-miterlimit:4;stroke-dasharray:none;stroke-opacity:1">
              <path
                 id="path350"
                 d="M 5079,2950 L 5075,4132"
                 style="fill:none;stroke:#000000;stroke-width:17.62230021;stroke-miterlimit:4;stroke-dasharray:none;stroke-opacity:1" />
            </g>
            <g
               style="stroke:#000000;stroke-width:17.62230021;stroke-miterlimit:4;stroke-dasharray:none;stroke-opacity:1"
               id="g352" />
          </g>
        </g>
        <g
           style="stroke:#000000;stroke-width:17.62230021;stroke-miterlimit:4;stroke-dasharray:none;stroke-opacity:1"
           id="g354">
          <desc
             id="desc356">Drawing</desc>
          <g
             style="stroke:#000000;stroke-width:17.62230021;stroke-miterlimit:4;stroke-dasharray:none;stroke-opacity:1"
             id="g358">
            <g
               id="g360"
               style="fill:none;stroke:#000000;stroke-width:17.62230021;stroke-miterlimit:4;stroke-dasharray:none;stroke-opacity:1">
              <path
                 id="path362"
                 d="M 4568,2950 L 4563,4132"
                 style="fill:none;stroke:#000000;stroke-width:17.62230021;stroke-miterlimit:4;stroke-dasharray:none;stroke-opacity:1" />
            </g>
            <g
               style="stroke:#000000;stroke-width:17.62230021;stroke-miterlimit:4;stroke-dasharray:none;stroke-opacity:1"
               id="g364" />
          </g>
        </g>
      </g>
      <text
         y="-30017.422"
         x="-55757.109"
         style="font-size:3346.94970703px;font-weight:700;fill:#000000;fill-rule:evenodd;visibility:visible;font-family:Times New Roman embedded"
         id="text462">
        <tspan
           id="tspan464" />
      </text>
      <text
         xml:space="preserve"
         style="font-size:40px;font-style:normal;font-weight:normal;fill:#000000;fill-opacity:1;fill-rule:evenodd;stroke:none;stroke-width:1px;stroke-linecap:butt;stroke-linejoin:miter;stroke-opacity:1;visibility:visible;font-family:Bitstream Vera Sans"
         x="-3805.6895"
         y="-9812.6953"
         id="text3348"><tspan
           sodipodi:role="line"
           id="tspan3350"
           x="-3805.6895"
           y="-9812.6953">FRONT</tspan></text>
      <flowRoot
         transform="matrix(7.9124105,0,0,7.9124105,-55757.108,-30017.422)"
         xml:space="preserve"
         id="flowRoot3352"
         style="font-size:40px;font-style:normal;font-weight:normal;fill:#000000;fill-opacity:1;fill-rule:evenodd;stroke:none;stroke-width:1px;stroke-linecap:butt;stroke-linejoin:miter;stroke-opacity:1;visibility:visible;font-family:Bitstream Vera Sans"><flowRegion
           id="flowRegion3354"><rect
             id="rect3356"
             width="27722.377"
             height="8638.7012"
             x="-17843.975"
             y="-5385.5972" /></flowRegion><flowPara
           id="flowPara3358" /></flowRoot>      <text
         xml:space="preserve"
         style="font-size:8276.60253906px;font-style:normal;font-weight:normal;fill:#000000;fill-opacity:1;fill-rule:evenodd;stroke:none;stroke-width:1px;stroke-linecap:butt;stroke-linejoin:miter;stroke-opacity:1;visibility:visible;font-family:Bitstream Vera Sans"
         x="-20219.221"
         y="-11305.838"
         id="text3364"><tspan
           sodipodi:role="line"
           id="tspan3366"
           x="-20219.221"
           y="-11305.838" /></text>
      <text
         xml:space="preserve"
         style="font-size:40px;font-style:normal;font-weight:normal;fill:#000000;fill-opacity:1;fill-rule:evenodd;stroke:none;stroke-width:1px;stroke-linecap:butt;stroke-linejoin:miter;stroke-opacity:1;visibility:visible;font-family:Bitstream Vera Sans"
         x="-26737.514"
         y="8249.0391"
         id="text3368"><tspan
           sodipodi:role="line"
           id="tspan3370"
           x="-26737.514"
           y="8249.0391" /></text>
      <text
         xml:space="preserve"
         style="font-size:3346.43695794;font-style:normal;font-weight:normal;fill:#000000;fill-opacity:1;fill-rule:evenodd;stroke:none;stroke-width:1px;stroke-linecap:butt;stroke-linejoin:miter;stroke-opacity:1;visibility:visible;font-family:Bitstream Vera Sans"
         x="-24067.371"
         y="-8622.1377"
         id="text3372"><tspan
           sodipodi:role="line"
           id="tspan3374"
           x="-24067.371"
           y="-8622.1377"
           style="-inkscape-font-specification:Arial;font-family:Arial;font-weight:normal;font-style:normal;font-stretch:normal;font-variant:normal;font-size:3346.43695794">FRONT</tspan></text>
      <text
         xml:space="preserve"
         style="font-size:3310.64013672px;font-style:normal;font-weight:normal;fill:#000000;fill-opacity:1;fill-rule:evenodd;stroke:none;stroke-width:1px;stroke-linecap:butt;stroke-linejoin:miter;stroke-opacity:1;visibility:visible;font-family:Bitstream Vera Sans"
         x="8825.3838"
         y="-8622.1377"
         id="text3376"><tspan
           sodipodi:role="line"
           id="tspan3378"
           x="8825.3838"
           y="-8622.1377"
           style="-inkscape-font-specification:Arial;font-family:Arial;font-weight:normal;font-style:normal;font-stretch:normal;font-variant:normal">BACK</tspan></text>
      <g
         transform="matrix(7.9124105,0,0,7.9124105,-53401.099,-30331.557)"
         id="g466"
         style="fill-rule:evenodd;visibility:visible">
        <desc
           id="desc468">Group</desc>
        <g
           id="g470">
          <desc
             id="desc472">Drawing</desc>
          <g
             id="g474">
            <g
               id="g476"
               style="fill:#000000;stroke:none">
              <path
                 id="path478"
                 d="M 10553,4661 L 10551,4599 L 10586,4598 L 10621,4597 L 10623,4659 L 10588,4660 L 10553,4661 z" />
              <path
                 id="path480"
                 d="M 10586,4598 L 10621,4596 L 10621,4596 L 10621,4597 L 10586,4598 z" />
              <path
                 id="path482"
                 d="M 10551,4600 L 10547,4539 L 10582,4537 L 10617,4535 L 10621,4596 L 10586,4598 L 10551,4600 z" />
              <path
                 id="path484"
                 d="M 10582,4537 L 10617,4534 L 10617,4534 L 10617,4535 L 10582,4537 z" />
              <path
                 id="path486"
                 d="M 10547,4540 L 10541,4479 L 10576,4476 L 10611,4473 L 10617,4534 L 10582,4537 L 10547,4540 z" />
              <path
                 id="path488"
                 d="M 10576,4476 L 10611,4471 L 10611,4472 L 10611,4473 L 10576,4476 z" />
              <path
                 id="path490"
                 d="M 10541,4481 L 10532,4420 L 10567,4415 L 10602,4410 L 10611,4471 L 10576,4476 L 10541,4481 z" />
              <path
                 id="path492"
                 d="M 10567,4415 L 10602,4409 L 10602,4409 L 10602,4410 L 10567,4415 z" />
              <path
                 id="path494"
                 d="M 10532,4421 L 10521,4361 L 10556,4355 L 10591,4349 L 10602,4409 L 10567,4415 L 10532,4421 z" />
              <path
                 id="path496"
                 d="M 10556,4355 L 10591,4347 L 10591,4348 L 10591,4349 L 10556,4355 z" />
              <path
                 id="path498"
                 d="M 10521,4363 L 10507,4304 L 10542,4296 L 10577,4288 L 10591,4347 L 10556,4355 L 10521,4363 z" />
              <path
                 id="path500"
                 d="M 10542,4296 L 10576,4287 L 10576,4287 L 10577,4288 L 10542,4296 z" />
              <path
                 id="path502"
                 d="M 10508,4305 L 10492,4247 L 10526,4238 L 10560,4229 L 10576,4287 L 10542,4296 L 10508,4305 z" />
              <path
                 id="path504"
                 d="M 10526,4238 L 10560,4227 L 10560,4228 L 10560,4229 L 10526,4238 z" />
              <path
                 id="path506"
                 d="M 10492,4249 L 10474,4192 L 10508,4181 L 10542,4170 L 10560,4227 L 10526,4238 L 10492,4249 z" />
              <path
                 id="path508"
                 d="M 10508,4181 L 10541,4169 L 10542,4170 L 10542,4170 L 10508,4181 z" />
              <path
                 id="path510"
                 d="M 10475,4193 L 10455,4137 L 10488,4125 L 10521,4113 L 10541,4169 L 10508,4181 L 10475,4193 z" />
              <path
                 id="path512"
                 d="M 10488,4125 L 10521,4111 L 10521,4112 L 10521,4113 L 10488,4125 z" />
              <path
                 id="path514"
                 d="M 10455,4139 L 10432,4085 L 10465,4071 L 10498,4057 L 10521,4111 L 10488,4125 L 10455,4139 z" />
              <path
                 id="path516"
                 d="M 10465,4071 L 10497,4056 L 10498,4057 L 10498,4057 L 10465,4071 z" />
              <path
                 id="path518"
                 d="M 10433,4086 L 10409,4033 L 10441,4018 L 10473,4003 L 10497,4056 L 10465,4071 L 10433,4086 z" />
              <path
                 id="path520"
                 d="M 10441,4018 L 10472,4001 L 10473,4002 L 10473,4003 L 10441,4018 z" />
              <path
                 id="path522"
                 d="M 10410,4035 L 10383,3985 L 10414,3968 L 10445,3951 L 10472,4001 L 10441,4018 L 10410,4035 z" />
              <path
                 id="path524"
                 d="M 10414,3968 L 10445,3950 L 10445,3951 L 10445,3951 L 10414,3968 z" />
              <path
                 id="path526"
                 d="M 10383,3986 L 10354,3937 L 10385,3919 L 10416,3901 L 10445,3950 L 10414,3968 L 10383,3986 z" />
              <path
                 id="path528"
                 d="M 10385,3919 L 10415,3900 L 10415,3900 L 10416,3901 L 10385,3919 z" />
              <path
                 id="path530"
                 d="M 10355,3938 L 10325,3891 L 10355,3872 L 10385,3853 L 10415,3900 L 10385,3919 L 10355,3938 z" />
              <path
                 id="path532"
                 d="M 10355,3872 L 10384,3851 L 10384,3852 L 10385,3853 L 10355,3872 z" />
              <path
                 id="path534"
                 d="M 10326,3893 L 10293,3848 L 10322,3827 L 10351,3806 L 10384,3851 L 10355,3872 L 10326,3893 z" />
              <path
                 id="path536"
                 d="M 10322,3827 L 10350,3805 L 10350,3805 L 10351,3806 L 10322,3827 z" />
              <path
                 id="path538"
                 d="M 10294,3849 L 10260,3806 L 10288,3784 L 10316,3762 L 10350,3805 L 10322,3827 L 10294,3849 z" />
              <path
                 id="path540"
                 d="M 10288,3784 L 10314,3760 L 10315,3761 L 10316,3762 L 10288,3784 z" />
              <path
                 id="path542"
                 d="M 10262,3808 L 10226,3768 L 10252,3744 L 10278,3720 L 10314,3760 L 10288,3784 L 10262,3808 z" />
              <path
                 id="path544"
                 d="M 10252,3744 L 10277,3719 L 10278,3720 L 10278,3720 L 10252,3744 z" />
              <path
                 id="path546"
                 d="M 10227,3769 L 10190,3731 L 10215,3706 L 10240,3681 L 10277,3719 L 10252,3744 L 10227,3769 z" />
              <path
                 id="path548"
                 d="M 10215,3706 L 10239,3680 L 10240,3680 L 10240,3681 L 10215,3706 z" />
              <path
                 id="path550"
                 d="M 10191,3732 L 10152,3697 L 10176,3671 L 10200,3645 L 10239,3680 L 10215,3706 L 10191,3732 z" />
              <path
                 id="path552"
                 d="M 10176,3671 L 10198,3643 L 10199,3644 L 10200,3645 L 10176,3671 z" />
              <path
                 id="path554"
                 d="M 10154,3699 L 10114,3667 L 10136,3639 L 10158,3611 L 10198,3643 L 10176,3671 L 10154,3699 z" />
              <path
                 id="path556"
                 d="M 10136,3639 L 10157,3610 L 10158,3611 L 10158,3611 L 10136,3639 z" />
              <path
                 id="path558"
                 d="M 10115,3668 L 10074,3638 L 10095,3609 L 10116,3580 L 10157,3610 L 10136,3639 L 10115,3668 z" />
              <path
                 id="path560"
                 d="M 10095,3609 L 10114,3579 L 10115,3580 L 10116,3580 L 10095,3609 z" />
              <path
                 id="path562"
                 d="M 10076,3639 L 10034,3612 L 10053,3582 L 10072,3552 L 10114,3579 L 10095,3609 L 10076,3639 z" />
              <path
                 id="path564"
                 d="M 10053,3582 L 10070,3551 L 10071,3551 L 10072,3552 L 10053,3582 z" />
              <path
                 id="path566"
                 d="M 10036,3613 L 9992,3589 L 10009,3558 L 10026,3527 L 10070,3551 L 10053,3582 L 10036,3613 z" />
              <path
                 id="path568"
                 d="M 10009,3558 L 10024,3526 L 10025,3526 L 10026,3527 L 10009,3558 z" />
              <path
                 id="path570"
                 d="M 9994,3590 L 9950,3570 L 9965,3538 L 9980,3506 L 10024,3526 L 10009,3558 L 9994,3590 z" />
              <path
                 id="path572"
                 d="M 9965,3538 L 9978,3505 L 9979,3505 L 9980,3506 L 9965,3538 z" />
              <path
                 id="path574"
                 d="M 9952,3571 L 9907,3553 L 9920,3520 L 9933,3487 L 9978,3505 L 9965,3538 L 9952,3571 z" />
              <path
                 id="path576"
                 d="M 9920,3520 L 9931,3486 L 9932,3487 L 9933,3487 L 9920,3520 z" />
              <path
                 id="path578"
                 d="M 9909,3554 L 9863,3539 L 9874,3505 L 9885,3471 L 9931,3486 L 9920,3520 L 9909,3554 z" />
              <path
                 id="path580"
                 d="M 9874,3505 L 9883,3471 L 9884,3471 L 9885,3471 L 9874,3505 z" />
              <path
                 id="path582"
                 d="M 9865,3539 L 9819,3527 L 9828,3493 L 9837,3459 L 9883,3471 L 9874,3505 L 9865,3539 z" />
              <path
                 id="path584"
                 d="M 9828,3493 L 9834,3458 L 9835,3458 L 9837,3459 L 9828,3493 z" />
              <path
                 id="path586"
                 d="M 9822,3528 L 9775,3520 L 9781,3485 L 9787,3450 L 9834,3458 L 9828,3493 L 9822,3528 z" />
              <path
                 id="path588"
                 d="M 9781,3485 L 9785,3450 L 9786,3450 L 9787,3450 L 9781,3485 z" />
              <path
                 id="path590"
                 d="M 9777,3520 L 9730,3514 L 9734,3479 L 9738,3444 L 9785,3450 L 9781,3485 L 9777,3520 z" />
              <path
                 id="path592"
                 d="M 9734,3479 L 9736,3444 L 9737,3444 L 9738,3444 L 9734,3479 z" />
              <path
                 id="path594"
                 d="M 9732,3514 L 9685,3512 L 9687,3477 L 9689,3442 L 9736,3444 L 9734,3479 L 9732,3514 z" />
            </g>
            <g
               id="g596" />
          </g>
        </g>
        <g
           id="g598">
          <desc
             id="desc600">Drawing</desc>
          <g
             id="g602">
            <g
               id="g604"
               style="fill:#000000;stroke:none">
              <path
                 id="path606"
                 d="M 9698,3510 L 9605,3514 L 9601,3444 L 9694,3440 L 9698,3510 z" />
            </g>
            <g
               id="g608" />
          </g>
        </g>
        <g
           id="g610">
          <desc
             id="desc612">Drawing</desc>
          <g
             id="g614">
            <g
               id="g616"
               style="fill:#000000;stroke:none">
              <path
                 id="path618"
                 d="M 9652,3364 L 9652,3590 L 9439,3474 L 9652,3364 L 9652,3364 z" />
            </g>
            <g
               id="g620"
               style="fill:none;stroke:#000000">
              <path
                 id="path622"
                 d="M 9652,3364 L 9652,3590 L 9439,3474 L 9652,3364"
                 style="fill:none" />
            </g>
            <g
               id="g624" />
          </g>
        </g>
      </g>
      <g
         transform="matrix(7.9124105,0,0,7.9124105,-53401.099,-30331.557)"
         id="g626"
         style="fill-rule:evenodd;visibility:visible">
        <desc
           id="desc628">Group</desc>
        <g
           id="g630">
          <desc
             id="desc632">Drawing</desc>
          <g
             id="g634">
            <g
               id="g636"
               style="fill:#000000;stroke:none">
              <path
                 id="path638"
                 d="M 4037,3510 L 3977,3511 L 3976,3476 L 3975,3441 L 4035,3440 L 4036,3475 L 4037,3510 z" />
              <path
                 id="path640"
                 d="M 3976,3476 L 3974,3441 L 3975,3441 L 3975,3441 L 3976,3476 z" />
              <path
                 id="path642"
                 d="M 3978,3511 L 3919,3515 L 3917,3480 L 3915,3445 L 3974,3441 L 3976,3476 L 3978,3511 z" />
              <path
                 id="path644"
                 d="M 3917,3480 L 3913,3445 L 3914,3445 L 3915,3445 L 3917,3480 z" />
              <path
                 id="path646"
                 d="M 3921,3515 L 3862,3521 L 3858,3486 L 3854,3451 L 3913,3445 L 3917,3480 L 3921,3515 z" />
              <path
                 id="path648"
                 d="M 3858,3486 L 3853,3451 L 3854,3451 L 3854,3451 L 3858,3486 z" />
              <path
                 id="path650"
                 d="M 3863,3521 L 3804,3529 L 3799,3494 L 3794,3459 L 3853,3451 L 3858,3486 L 3863,3521 z" />
              <path
                 id="path652"
                 d="M 3799,3494 L 3792,3459 L 3793,3459 L 3794,3459 L 3799,3494 z" />
              <path
                 id="path654"
                 d="M 3806,3529 L 3748,3541 L 3741,3506 L 3734,3471 L 3792,3459 L 3799,3494 L 3806,3529 z" />
              <path
                 id="path656"
                 d="M 3741,3506 L 3733,3471 L 3734,3471 L 3734,3471 L 3741,3506 z" />
              <path
                 id="path658"
                 d="M 3749,3541 L 3691,3554 L 3683,3519 L 3675,3484 L 3733,3471 L 3741,3506 L 3749,3541 z" />
              <path
                 id="path660"
                 d="M 3683,3519 L 3673,3485 L 3674,3485 L 3675,3484 L 3683,3519 z" />
              <path
                 id="path662"
                 d="M 3693,3553 L 3637,3569 L 3627,3535 L 3617,3501 L 3673,3485 L 3683,3519 L 3693,3553 z" />
              <path
                 id="path664"
                 d="M 3627,3535 L 3615,3501 L 3616,3501 L 3617,3501 L 3627,3535 z" />
              <path
                 id="path666"
                 d="M 3639,3569 L 3584,3588 L 3572,3554 L 3560,3520 L 3615,3501 L 3627,3535 L 3639,3569 z" />
              <path
                 id="path668"
                 d="M 3572,3554 L 3559,3521 L 3560,3521 L 3560,3520 L 3572,3554 z" />
              <path
                 id="path670"
                 d="M 3585,3587 L 3531,3608 L 3518,3575 L 3505,3542 L 3559,3521 L 3572,3554 L 3585,3587 z" />
              <path
                 id="path672"
                 d="M 3518,3575 L 3504,3542 L 3504,3542 L 3505,3542 L 3518,3575 z" />
              <path
                 id="path674"
                 d="M 3532,3608 L 3479,3631 L 3465,3598 L 3451,3565 L 3504,3542 L 3518,3575 L 3532,3608 z" />
              <path
                 id="path676"
                 d="M 3465,3598 L 3449,3566 L 3450,3566 L 3451,3565 L 3465,3598 z" />
              <path
                 id="path678"
                 d="M 3481,3630 L 3430,3655 L 3414,3623 L 3398,3591 L 3449,3566 L 3465,3598 L 3481,3630 z" />
              <path
                 id="path680"
                 d="M 3414,3623 L 3397,3592 L 3398,3591 L 3398,3591 L 3414,3623 z" />
              <path
                 id="path682"
                 d="M 3431,3654 L 3382,3681 L 3365,3650 L 3348,3619 L 3397,3592 L 3414,3623 L 3431,3654 z" />
              <path
                 id="path684"
                 d="M 3365,3650 L 3346,3620 L 3347,3619 L 3348,3619 L 3365,3650 z" />
              <path
                 id="path686"
                 d="M 3384,3680 L 3336,3710 L 3317,3680 L 3298,3650 L 3346,3620 L 3365,3650 L 3384,3680 z" />
              <path
                 id="path688"
                 d="M 3317,3680 L 3297,3651 L 3298,3650 L 3298,3650 L 3317,3680 z" />
              <path
                 id="path690"
                 d="M 3337,3709 L 3292,3740 L 3272,3711 L 3252,3682 L 3297,3651 L 3317,3680 L 3337,3709 z" />
              <path
                 id="path692"
                 d="M 3272,3711 L 3250,3683 L 3251,3682 L 3252,3682 L 3272,3711 z" />
              <path
                 id="path694"
                 d="M 3294,3739 L 3250,3773 L 3228,3745 L 3206,3717 L 3250,3683 L 3272,3711 L 3294,3739 z" />
              <path
                 id="path696"
                 d="M 3228,3745 L 3205,3718 L 3206,3717 L 3206,3717 L 3228,3745 z" />
              <path
                 id="path698"
                 d="M 3251,3772 L 3210,3807 L 3187,3780 L 3164,3753 L 3205,3718 L 3228,3745 L 3251,3772 z" />
              <path
                 id="path700"
                 d="M 3187,3780 L 3163,3754 L 3163,3754 L 3164,3753 L 3187,3780 z" />
              <path
                 id="path702"
                 d="M 3211,3806 L 3172,3843 L 3148,3817 L 3124,3791 L 3163,3754 L 3187,3780 L 3211,3806 z" />
              <path
                 id="path704"
                 d="M 3148,3817 L 3122,3793 L 3123,3792 L 3124,3791 L 3148,3817 z" />
              <path
                 id="path706"
                 d="M 3174,3841 L 3138,3879 L 3112,3855 L 3086,3831 L 3122,3793 L 3148,3817 L 3174,3841 z" />
              <path
                 id="path708"
                 d="M 3112,3855 L 3085,3832 L 3086,3831 L 3086,3831 L 3112,3855 z" />
              <path
                 id="path710"
                 d="M 3139,3878 L 3105,3918 L 3078,3895 L 3051,3872 L 3085,3832 L 3112,3855 L 3139,3878 z" />
              <path
                 id="path712"
                 d="M 3078,3895 L 3050,3873 L 3050,3873 L 3051,3872 L 3078,3895 z" />
              <path
                 id="path714"
                 d="M 3106,3917 L 3074,3959 L 3046,3937 L 3018,3915 L 3050,3873 L 3078,3895 L 3106,3917 z" />
              <path
                 id="path716"
                 d="M 3046,3937 L 3017,3917 L 3017,3916 L 3018,3915 L 3046,3937 z" />
              <path
                 id="path718"
                 d="M 3075,3957 L 3046,3999 L 3017,3979 L 2988,3959 L 3017,3917 L 3046,3937 L 3075,3957 z" />
              <path
                 id="path720"
                 d="M 3017,3979 L 2986,3961 L 2987,3960 L 2988,3959 L 3017,3979 z" />
              <path
                 id="path722"
                 d="M 3048,3997 L 3023,4041 L 2992,4023 L 2961,4005 L 2986,3961 L 3017,3979 L 3048,3997 z" />
              <path
                 id="path724"
                 d="M 2992,4023 L 2961,4006 L 2961,4006 L 2961,4005 L 2992,4023 z" />
              <path
                 id="path726"
                 d="M 3023,4040 L 2999,4085 L 2968,4068 L 2937,4051 L 2961,4006 L 2992,4023 L 3023,4040 z" />
              <path
                 id="path728"
                 d="M 2968,4068 L 2935,4054 L 2936,4053 L 2937,4051 L 2968,4068 z" />
              <path
                 id="path730"
                 d="M 3001,4082 L 2981,4128 L 2948,4114 L 2915,4100 L 2935,4054 L 2968,4068 L 3001,4082 z" />
              <path
                 id="path732"
                 d="M 2948,4114 L 2915,4102 L 2915,4101 L 2915,4100 L 2948,4114 z" />
              <path
                 id="path734"
                 d="M 2981,4126 L 2964,4172 L 2931,4160 L 2898,4148 L 2915,4102 L 2948,4114 L 2981,4126 z" />
              <path
                 id="path736"
                 d="M 2931,4160 L 2897,4150 L 2897,4149 L 2898,4148 L 2931,4160 z" />
              <path
                 id="path738"
                 d="M 2965,4170 L 2951,4218 L 2917,4208 L 2883,4198 L 2897,4150 L 2931,4160 L 2965,4170 z" />
              <path
                 id="path740"
                 d="M 2917,4208 L 2882,4200 L 2883,4199 L 2883,4198 L 2917,4208 z" />
              <path
                 id="path742"
                 d="M 2952,4216 L 2941,4264 L 2906,4256 L 2871,4248 L 2882,4200 L 2917,4208 L 2952,4216 z" />
              <path
                 id="path744"
                 d="M 2906,4256 L 2871,4250 L 2871,4249 L 2871,4248 L 2906,4256 z" />
              <path
                 id="path746"
                 d="M 2941,4262 L 2933,4310 L 2898,4304 L 2863,4298 L 2871,4250 L 2906,4256 L 2941,4262 z" />
              <path
                 id="path748"
                 d="M 2898,4304 L 2863,4300 L 2863,4299 L 2863,4298 L 2898,4304 z" />
              <path
                 id="path750"
                 d="M 2933,4308 L 2928,4356 L 2893,4352 L 2858,4348 L 2863,4300 L 2898,4304 L 2933,4308 z" />
              <path
                 id="path752"
                 d="M 2893,4352 L 2858,4351 L 2858,4349 L 2858,4348 L 2893,4352 z" />
              <path
                 id="path754"
                 d="M 2928,4353 L 2926,4402 L 2891,4401 L 2856,4400 L 2858,4351 L 2893,4352 L 2928,4353 z" />
            </g>
            <g
               id="g756" />
          </g>
        </g>
        <g
           id="g758">
          <desc
             id="desc760">Drawing</desc>
          <g
             id="g762">
            <g
               id="g764"
               style="fill:#000000;stroke:none">
              <path
                 id="path766"
                 d="M 2936,4394 L 2931,4491 L 2861,4487 L 2866,4390 L 2936,4394 z" />
            </g>
            <g
               id="g768" />
          </g>
        </g>
        <g
           id="g770">
          <desc
             id="desc772">Drawing</desc>
          <g
             id="g774">
            <g
               id="g776"
               style="fill:#000000;stroke:none">
              <path
                 id="path778"
                 d="M 2785,4436 L 3011,4436 L 2901,4653 L 2785,4436 L 2785,4436 z" />
            </g>
            <g
               id="g780"
               style="fill:none;stroke:#000000">
              <path
                 id="path782"
                 d="M 2785,4436 L 3011,4436 L 2901,4653 L 2785,4436"
                 style="fill:none" />
            </g>
            <g
               id="g784" />
          </g>
        </g>
      </g>
      <text
         id="text3397"
         y="8641.707"
         x="-36795.934"
         style="font-size:3310.64013672px;font-style:normal;font-weight:normal;fill:#000000;fill-opacity:1;fill-rule:evenodd;stroke:none;stroke-width:1px;stroke-linecap:butt;stroke-linejoin:miter;stroke-opacity:1;font-family:Bitstream Vera Sans"
         xml:space="preserve"><tspan
           style="font-style:italic;-inkscape-font-specification:Arial Italic;font-family:Arial;font-weight:normal;font-stretch:normal;font-variant:normal"
           y="8641.707"
           x="-36795.934"
           id="tspan3399"
           sodipodi:role="line">removal</tspan></text>
      <text
         id="text3401"
         y="8933.5195"
         x="23166.955"
         style="font-size:3310.64013672px;font-style:normal;font-weight:normal;fill:#000000;fill-opacity:1;fill-rule:evenodd;stroke:none;stroke-width:1px;stroke-linecap:butt;stroke-linejoin:miter;stroke-opacity:1;font-family:Bitstream Vera Sans"
         xml:space="preserve"><tspan
           style="font-style:italic;-inkscape-font-specification:Arial Italic;font-family:Arial;font-weight:normal;font-stretch:normal;font-variant:normal"
           y="8933.5195"
           x="23166.955"
           id="tspan3403"
           sodipodi:role="line">insertion</tspan></text>
      <text
         id="text3405"
         y="10605.047"
         x="-32313.404"
         style="font-size:16px;font-style:normal;font-weight:normal;fill:#000000;fill-opacity:1;fill-rule:evenodd;stroke:none;stroke-width:1px;stroke-linecap:butt;stroke-linejoin:miter;stroke-opacity:1;font-family:Bitstream Vera Sans"
         xml:space="preserve"><tspan
           style="font-size:0.077326px;font-style:italic"
           y="10605.047"
           x="-32313.404"
           id="tspan3407"
           sodipodi:role="line">pop()</tspan></text>
      <text
         id="text3409"
         y="10683.582"
         x="-32234.869"
         style="font-size:16px;font-style:normal;font-weight:normal;fill:#000000;fill-opacity:1;fill-rule:evenodd;stroke:none;stroke-width:1px;stroke-linecap:butt;stroke-linejoin:miter;stroke-opacity:1;font-family:Bitstream Vera Sans"
         xml:space="preserve"><tspan
           y="10683.582"
           x="-32234.869"
           id="tspan3411"
           sodipodi:role="line">hhh</tspan></text>
      <text
         id="text3413"
         y="11233.318"
         x="-33612.266"
         style="font-size:2482.91678792;font-style:normal;font-weight:normal;fill:#000000;fill-opacity:1;fill-rule:evenodd;stroke:none;stroke-width:1px;stroke-linecap:butt;stroke-linejoin:miter;stroke-opacity:1;font-family:Bitstream Vera Sans"
         xml:space="preserve"><tspan
           style="font-size:2482.91678792;font-style:italic;-inkscape-font-specification:Arial Italic;font-family:Arial;font-weight:normal;font-stretch:normal;font-variant:normal"
           y="11233.318"
           x="-33612.266"
           id="tspan3415"
           sodipodi:role="line">pop()</tspan></text>
      <text
         id="text3417"
         y="11816.633"
         x="25910.377"
         style="font-size:2482.98022461px;font-style:normal;font-weight:normal;fill:#000000;fill-opacity:1;fill-rule:evenodd;stroke:none;stroke-width:1px;stroke-linecap:butt;stroke-linejoin:miter;stroke-opacity:1;font-family:Bitstream Vera Sans"
         xml:space="preserve"><tspan
           style="font-size:2482.98022460999982286px;font-style:italic;-inkscape-font-specification:Arial Italic;font-family:Arial;font-weight:normal;font-stretch:normal;font-variant:normal"
           y="11816.633"
           x="25910.377"
           id="tspan3419"
           sodipodi:role="line">insert()</tspan></text>
    </g>
  </g>
</svg>
