
<svg xmlns="http://www.w3.org/2000/svg" height="48pt" viewBox="0 0 48 48"
     width="48pt" xmlns:xlink="http://www.w3.org/1999/xlink">
    <linearGradient id="a" gradientUnits="userSpaceOnUse" x1="23.124"
                    x2="26.4785" y1="43.165" y2="43.165">
        <stop offset=".005618" stop-color="#686868"/>
        <stop offset=".03012137" stop-color="#777"/>
        <stop offset=".08366583" stop-color="#929292"/>
        <stop offset=".1422" stop-color="#a7a7a7"/>
        <stop offset=".2074" stop-color="#b6b6b6"/>
        <stop offset=".2846" stop-color="#bebebe"/>
        <stop offset=".4045" stop-color="#c1c1c1"/>
        <stop offset=".4962" stop-color="#bcbcbc"/>
        <stop offset=".6057" stop-color="#adadad"/>
        <stop offset=".7245" stop-color="#959595"/>
        <stop offset=".8497" stop-color="#747474"/>
        <stop offset=".9789" stop-color="#494949"/>
        <stop offset="1" stop-color="#414141"/>
    </linearGradient>
    <radialGradient id="b" cx="17.8335" cy="11.4873"
                    gradientUnits="userSpaceOnUse" r="22.7093">
        <stop offset="0" stop-color="#fff"/>
        <stop offset="1" stop-color="#c2b9da"/>
    </radialGradient>
    <linearGradient id="c">
        <stop offset=".005618" stop-color="#c7c7c7"/>
        <stop offset=".02916075" stop-color="#d0d0d0"/>
        <stop offset=".09728914" stop-color="#e5e5e5"/>
        <stop offset=".1736" stop-color="#f4f4f4"/>
        <stop offset=".2641" stop-color="#fcfcfc"/>
        <stop offset=".4045" stop-color="#fff"/>
        <stop offset=".4996" stop-color="#fafafa"/>
        <stop offset=".6134" stop-color="#ebebeb"/>
        <stop offset=".7366" stop-color="#d3d3d3"/>
        <stop offset=".8666" stop-color="#b2b2b2"/>
        <stop offset="1" stop-color="#878787"/>
    </linearGradient>
    <linearGradient id="d" gradientUnits="userSpaceOnUse" x1="18.9951"
                    x2="30.1699" xlink:href="#c" y1="40.4961" y2="40.4961"/>
    <linearGradient id="e" gradientUnits="userSpaceOnUse" x1="14.0552"
                    x2="32.5805" y1="38.2676" y2="36.4343">
        <stop offset=".005618" stop-color="#c7c7c7"/>
        <stop offset=".4045" stop-color="#fff"/>
        <stop offset="1" stop-color="#878787"/>
    </linearGradient>
    <linearGradient id="f" gradientUnits="userSpaceOnUse" x1="18.9951"
                    x2="30.1699" xlink:href="#c" y1="33.9561" y2="33.9561"/>
    <radialGradient id="g" cx="17.8335" cy="11.4873"
                    gradientUnits="userSpaceOnUse" r="22.7093">
        <stop offset="0" stop-color="#fff"/>
        <stop offset=".882" stop-color="#9891ab"/>
        <stop offset="1" stop-color="#b7adb9"/>
    </radialGradient>
    <linearGradient id="h">
        <stop offset=".005618" stop-color="#a3a349"/>
        <stop offset=".02078677" stop-color="#acac54"/>
        <stop offset=".06600059" stop-color="#c1c172"/>
        <stop offset=".1148" stop-color="#d4d68e"/>
        <stop offset=".1677" stop-color="#e2e4a6"/>
        <stop offset=".2265" stop-color="#edf0b8"/>
        <stop offset=".2963" stop-color="#f3f6c3"/>
        <stop offset=".4045" stop-color="#f5f8c7"/>
        <stop offset=".5239" stop-color="#eef0be"/>
        <stop offset=".6666" stop-color="#dbdda9"/>
        <stop offset=".8211" stop-color="#bebd88"/>
        <stop offset=".9832" stop-color="#989564"/>
        <stop offset="1" stop-color="#949160"/>
    </linearGradient>
    <linearGradient id="i" gradientUnits="userSpaceOnUse" x1="18.9951"
                    x2="30.1699" xlink:href="#h" y1="40.4961" y2="40.4961"/>
    <linearGradient id="j" gradientUnits="userSpaceOnUse" x1="18.9951"
                    x2="30.1699" xlink:href="#h" y1="37.2266" y2="37.2266"/>
    <linearGradient id="k" gradientUnits="userSpaceOnUse" x1="18.9951"
                    x2="30.1699" xlink:href="#h" y1="33.9561" y2="33.9561"/>
    <linearGradient id="l" gradientUnits="userSpaceOnUse" x1="18.0376"
                    x2="22.7676" y1="22.9609" y2="22.9609">
        <stop offset="0" stop-color="#fff"/>
        <stop offset="1" stop-color="#f1f53d"/>
    </linearGradient>
    <linearGradient id="m"
                    gradientTransform="matrix(.843 -.843 .7071 .7071 104.3129 -24.8984)"
                    gradientUnits="userSpaceOnUse" x1="-73.2363" x2="-73.2363"
                    y1="-37.9189" y2="-1.6937">
        <stop offset="0" stop-color="#fff"/>
        <stop offset="1" stop-color="#fff"/>
    </linearGradient>
    <g fill="#fff" stroke="#000">
        <path d="m23.1 41.9v.9c0 .9.8 1.7 1.7 1.7s1.7-.8 1.7-1.7v-.9z"
              fill="url(#a)" stroke-width="5.4335"/>
        <path d="m24 3.6c-8.2 0-14.9 6.7-14.9 14.9s6.7 14.9 14.9 14.9 14.9-6.7 14.9-14.9-6.7-14.9-14.9-14.9z"
              fill="url(#b)" stroke-width="5.4335"/>
        <path d="m28.3 38.4-7.8.9c-.9.1-1.6.9-1.5 1.8s.9 1.6 1.8 1.5l7.8-.9c.9-.1 1.6-.9 1.5-1.8s-.9-1.6-1.8-1.5z"
              fill="url(#d)" stroke-width="5.4335"/>
        <path d="m28.3 35.1-7.8.9c-.9.1-1.6.9-1.5 1.8s.9 1.6 1.8 1.5l7.8-.9c.9-.1 1.6-.9 1.5-1.8s-.9-1.6-1.8-1.5z"
              fill="url(#e)" stroke-width="5.4335"/>
        <path d="m28.3 31.9-7.8.9c-.9.1-1.6.9-1.5 1.9.1.9.9 1.6 1.8 1.5l7.8-.9c.9-.1 1.6-.9 1.5-1.8s-.9-1.6-1.8-1.5z"
              fill="url(#f)" stroke-width="5.4335"/>
        <path d="m23.1 41.9v.9c0 .9.8 1.7 1.7 1.7s1.7-.8 1.7-1.7v-.9z"
              fill="url(#a)" stroke="none"/>
        <path d="m24 3.6c-8.2 0-14.9 6.7-14.9 14.9s6.7 14.9 14.9 14.9 14.9-6.7 14.9-14.9-6.7-14.9-14.9-14.9z"
              fill="url(#g)" stroke="none"/>
        <path d="m28.3 38.4-7.8.9c-.9.1-1.6.9-1.5 1.8s.9 1.6 1.8 1.5l7.8-.9c.9-.1 1.6-.9 1.5-1.8s-.9-1.6-1.8-1.5z"
              fill="url(#i)" stroke="none"/>
        <path d="m28.3 35.1-7.8.9c-.9.1-1.6.9-1.5 1.8s.9 1.6 1.8 1.5l7.8-.9c.9-.1 1.6-.9 1.5-1.8s-.9-1.6-1.8-1.5z"
              fill="url(#j)" stroke="none"/>
        <path d="m28.3 31.9-7.8.9c-.9.1-1.6.9-1.5 1.9.1.9.9 1.6 1.8 1.5l7.8-.9c.9-.1 1.6-.9 1.5-1.8s-.9-1.6-1.8-1.5z"
              fill="url(#k)" stroke="none"/>
        <path d="m18.4 16.9c-.3.1-.5.4-.4.7l3.7 11.1c.1.3.4.5.7.4s.5-.4.4-.7l-3.7-11.1c-.1-.3-.4-.5-.7-.4z"
              fill="url(#l)" stroke="none"/>
        <path d="m18.6 17.4s6.8 4 10.9 0" fill="none" stroke="#fff"
              stroke-linecap="round" stroke-linejoin="round"
              stroke-width="1.1287"/>
        <g stroke="none">
            <path d="m18.4 14.1h-.1-.1-.1-.1-.1-.1l-.2.1s-.1.1-.1.1-.1.1-.1.1h-.1l-.3.2s0 0-.1.1c0 0-.2.1-.2.1l-.3.2-.1.1s0 0-.1.1c0 0-.2.2-.2.2s0 0-.1.1c0 0-.1.1-.1.1l-.1.1-.1.1v.1.1.1.1l.1-.1-.1.4v.1.1.2.1.2.1.2.1.1.1.1-.1.1.1.1.1l3.7 11.1c.6 1.7 2.4 2.7 4.1 2.1.8-.3 1.5-.9 1.9-1.6.2-.5.4-1 .4-1.5 0-.3-.1-.7-.2-1 0 0-.9-2.7-1.7-5 3.2.3 6-.6 8.1-2.7.6-.6 1-1.4 1-2.3s-.3-1.7-1-2.3-1.4-1-2.3-1-1.7.3-2.3 1c-2.1 2.1-6.9-.5-6.9-.5l-1.6-.9s-.2.3-.3.5z"
                  fill="#f7fae2" opacity=".36"/>
            <path d="m29.8 17c-.2-.2-.6-.2-.8 0-3.7 3.7-10.1 0-10.2-.1l3.7 11.1c.1.3.4.5.7.4s.5-.4.4-.7l-3.2-9.8c.7.3 1.7.7 2.8 1 3.1.7 5.7.1 7.5-1.7.2-.2.2-.6 0-.8z"/>
            <path d="m28.7 38.5-7.8.9s8.6-1 9.3-2.4c0 0-.2 1.4-1.5 1.5z"
                  fill="#000" opacity=".46"/>
            <path d="m20.5 39.2 7.8-.9s-8.6 1-9.3 2.4c0 0 .2-1.4 1.5-1.5z"
                  opacity=".81"/>
            <path d="m20.5 36 7.8-.9s-8.6 1-9.3 2.4c0 0 .2-1.4 1.5-1.5z"
                  opacity=".81"/>
            <path d="m20.5 32.7 7.8-.9s-8.6 1-9.3 2.4c0 0 .2-1.4 1.5-1.5z"
                  opacity=".81"/>
            <path d="m28.7 35.2-7.9.8s8.6-1 9.3-2.4c0 0-.2 1.4-1.5 1.5z"
                  fill="#000" opacity=".46"/>
            <path d="m28.7 41.7-7.8.9s8.6-1 9.3-2.4c0 0-.2 1.4-1.5 1.5z"
                  fill="#000" opacity=".46"/>
        </g>
    </g>
    <g stroke="none">
        <path d="m28 7.9c3.3 3.3-11 17.7-14.3 14.3-3.3-3.3-2.8-9.2 1.2-13.2s9.9-4.5 13.2-1.2z"
              fill="url(#m)" opacity=".5"/>
        <path d="m48 48h-48v-48h48z" fill="none"/>
    </g>
</svg>