
<svg enable-background="new 0 0 70.131 70.131" height="70.131"
     viewBox="0 0 70.131 70.131" width="70.131"
     xmlns="http://www.w3.org/2000/svg"
     xmlns:xlink="http://www.w3.org/1999/xlink">
    <linearGradient id="a" gradientUnits="userSpaceOnUse" x1="5.5591"
                    x2="64.5723" y1="18.0298" y2="52.1011">
        <stop offset="0" stop-color="#bac1d3"/>
        <stop offset="1" stop-color="#8397a5"/>
    </linearGradient>
    <linearGradient id="b" gradientUnits="userSpaceOnUse" x1="33.022"
                    x2="33.022" y1="35.7402" y2="59.7048">
        <stop offset="0" stop-color="#89e23b"/>
        <stop offset="1" stop-color="#238918"/>
    </linearGradient>
    <circle cx="35.065" cy="35.065" fill="url(#a)" r="34.065" stroke="#333"
            stroke-miterlimit="3.8637" stroke-width="2"/>
    <path d="m31.7 51.466c-3.955-4.426-13.05-14.604-13.05-14.604l-4.024 3.597 19.022 21.285 17.772-47.959-5.062-1.875s-12.113 32.689-14.658 39.556z"
          fill="url(#b)"/>
    <path d="m32.638 48.936c-.516 1.392-1.747 1.625-2.736.518l-9.454-10.578c-.989-1.107-2.704-1.203-3.811-.214-1.107.988-1.203 2.703-.214 3.811l15.426 17.26c.989 1.107 2.22.874 2.736-.518l15.897-42.898c.516-1.392-.201-2.953-1.593-3.468h-.001c-1.392-.516-2.952.201-3.468 1.593z"
          fill="none" stroke="#000" stroke-width="1.7992"/>
</svg>