
<svg xmlns="http://www.w3.org/2000/svg" height="24pt" viewBox="0 0 24 24"
     width="24pt" xmlns:xlink="http://www.w3.org/1999/xlink">
    <linearGradient id="a">
        <stop offset="0" stop-color="#e7e7e7"/>
        <stop offset=".2978" stop-color="#fff"/>
        <stop offset="1" stop-color="#cfcfcf"/>
    </linearGradient>
    <linearGradient id="b" gradientUnits="userSpaceOnUse" x1="18.0889"
                    x2="18.0889" xlink:href="#a" y1="14.4111" y2="15.6547"/>
    <linearGradient id="c" gradientUnits="userSpaceOnUse" x1="18.0889"
                    x2="18.0889" xlink:href="#a" y1="8.6021" y2="9.8452"/>
    <radialGradient id="d" cx="9.6968" cy="7.9351"
                    gradientUnits="userSpaceOnUse" r="11.2688">
        <stop offset="0" stop-color="#ececec"/>
        <stop offset="1" stop-color="#8b8b8b"/>
    </radialGradient>
    <linearGradient id="e" gradientUnits="userSpaceOnUse" x1="14.1074"
                    x2="14.9229" y1="12.0601" y2="12.0601">
        <stop offset="0" stop-color="#959595"/>
        <stop offset="1" stop-color="#fff"/>
    </linearGradient>
    <g clip-rule="evenodd">
        <g fill-rule="evenodd" stroke="#000">
            <path d="m15.2 5.1c-.4 0-.7.2-.9.5-.8 0-2.8 0-2.8 0-1.1 0-2.3.8-3.5 2.4-.6.8-1.1 1.6-1.4 2-.4 0-5.4 0-5.4 0v5.3h5.4c.2.3.7 1 1.4 1.7 1.3 1.3 2.4 2 3.5 2h2.9c.2.3.6.5 1 .5h1.1c.5 0 1.1-.3 1.1-1.2 0 0 0-1.1 0-1.9h3.8c.7 0 1.2-.5 1.2-1.2v-.6c0-.7-.5-1.2-1.2-1.2 0 0-2.8 0-3.8 0 0-.8 0-1.9 0-2.7h3.8c.7 0 1.2-.5 1.2-1.2v-.6c0-.7-.5-1.2-1.2-1.2 0 0-2.8 0-3.8 0 0-.7 0-1.5 0-1.5 0-.6-.5-1.1-1.1-1.1h-1.2z"
                  stroke-width=".7751"/>
            <g stroke="none">
                <path d="m21.8 15.4c0 .2-.2.4-.4.4h-6.6c-.2 0-.4-.2-.4-.4v-.6c0-.2.2-.4.4-.4h6.6c.2 0 .4.2.4.4z"
                      fill="url(#b)"/>
                <path d="m21.8 9.6c0 .2-.2.4-.4.4h-6.6c-.2 0-.4-.2-.4-.4v-.7c0-.2.2-.4.4-.4h6.6c.2 0 .4.2.4.4v.6z"
                      fill="url(#c)"/>
                <path d="m2 10.8h4.8c.1 0 .3 0 .3-.2 0 0 2.3-4.2 4.4-4.2h3.5v-.3c0-.1.1-.3.3-.3h1.2c.2 0 .3.2.3.3v12.3c0 .3-.1.4-.3.4h-1.1c-.3 0-.4-.2-.4-.4v-.2h-3.5c-2 0-4.4-3.5-4.4-3.5s-.1-.2-.3-.2h-4.8z"
                      fill="url(#d)"/>
                <path d="m2 10.8h4.9c.2 0 .2-.2.2-.2.2-.4 2.5-4.2 4.3-4.2h3.5l-3.5.2c-2.4.4-3.3 5-4.7 5h-4.8v-.8z"
                      fill="#fff" opacity=".5"/>
                <path d="m14.9 6.4-.8 11.3h.8z" fill="url(#e)" opacity=".5"/>
            </g>
        </g>
        <path d="m24 24h-24v-24h24z" fill="none"/>
    </g>
</svg>