
<svg xmlns="http://www.w3.org/2000/svg" height="48pt" viewBox="0 0 48 48"
     width="48pt" xmlns:xlink="http://www.w3.org/1999/xlink">
    <linearGradient id="a" gradientUnits="userSpaceOnUse" x1="15.9819"
                    x2="32.382" y1="11.6323" y2="39.2639">
        <stop offset="0" stop-color="#f55354"/>
        <stop offset="1" stop-color="#8f1008"/>
    </linearGradient>
    <linearGradient id="b">
        <stop offset="0" stop-color="#e2e2e2"/>
        <stop offset="1" stop-color="#fff"/>
    </linearGradient>
    <linearGradient id="c" gradientUnits="userSpaceOnUse" x1="34.8418"
                    x2="13.8911" xlink:href="#b" y1="28.9932" y2="19.9713"/>
    <linearGradient id="d" gradientUnits="userSpaceOnUse" x1="33.625"
                    x2="14.8906" xlink:href="#b" y1="32.1094" y2="24.0419"/>
    <g stroke="#000">
        <path d="m43.2 24c0 11-8.9 19.8-19.8 19.8-11 .1-19.9-8.8-19.9-19.8s8.9-19.8 19.8-19.8c11 0 19.8 8.9 19.8 19.8z"
              fill="url(#a)" stroke-width="5.0583"/>
        <g stroke="none">
            <path d="m43.2 24c0 11-8.9 19.8-19.8 19.8-11 .1-19.9-8.8-19.9-19.8s8.9-19.8 19.8-19.8c11 0 19.8 8.9 19.8 19.8z"
                  fill="url(#a)"/>
            <path d="m36.6 27.7h-26.5v-7.3h26.5z" fill="url(#c)"/>
            <path d="m4.4 24.9c0-11 8.9-19.8 19.8-19.8 5.2 0 10 2 13.6 5.4-3.6-4-8.8-6.4-14.5-6.4-11 0-19.9 8.9-19.9 19.9 0 5.7 2.4 10.9 6.3 14.5-3.3-3.5-5.4-8.3-5.4-13.6z"
                  fill="#fff" opacity=".32"/>
            <path d="m36.9 9.5c3.3 3.5 5.4 8.3 5.4 13.6 0 11-8.9 19.8-19.8 19.8-5.2 0-10-2-13.6-5.4 3.6 3.9 8.8 6.3 14.5 6.3 11 0 19.8-8.9 19.8-19.8 0-5.7-2.4-10.9-6.3-14.5z"
                  opacity=".68"/>
            <path d="m36.6 20.4v7.3h-26.5l25.5-.9z" fill="#fff"/>
            <path d="m10.1 27.7v-7.3h26.5l-25.5.9z" opacity=".23"/>
            <path d="m36.6 27.7h-26.5" fill="url(#d)"/>
        </g>
    </g>
    <path d="m48 48h-48v-48h48z" fill="none"/>
</svg>