
<svg xmlns="http://www.w3.org/2000/svg" height="48pt" viewBox="0 0 48 48"
     width="48pt" xmlns:xlink="http://www.w3.org/1999/xlink">
    <linearGradient id="a" gradientUnits="userSpaceOnUse" x1="4.1914"
                    x2="47.3197" y1="11.1133" y2="56.0523">
        <stop offset="0" stop-color="#d4d4d4"/>
        <stop offset=".3982" stop-color="#e2e2e2"/>
        <stop offset="1" stop-color="#fff"/>
    </linearGradient>
    <path d="m48 48h-48v-48h48z" fill="none"/>
    <g stroke="#000">
        <path d="m43.8 38.5-17.4-32.4c-.5-.9-1.4-1.4-2.4-1.4s-1.9.6-2.4 1.5l-17 32.4c-.4.8-.4 1.9.1 2.7s1.3 1.2 2.3 1.2h34.4c1 0 1.9-.5 2.3-1.3.5-.8.5-1.8.1-2.7z"
              fill="none" stroke-width="4"/>
        <g stroke="none">
            <path d="m43.8 38.5-17.4-32.4c-.5-.9-1.4-1.4-2.4-1.4s-1.9.6-2.4 1.5l-17 32.4c-.4.8-.4 1.9.1 2.7s1.3 1.2 2.3 1.2h34.4c1 0 1.9-.5 2.3-1.3.5-.8.5-1.8.1-2.7z"
                  fill="#930"/>
            <path d="m9.5 37.6c-.3.5 0 .9.5.9h28.2c.5 0 .8-.4.5-.9l-14.3-26.6c-.3-.5-.7-.5-.9 0z"
                  fill="url(#a)"/>
            <path d="m23.9 36.5c-1.3 0-2.3-1-2.3-2.3 0-1.4.9-2.3 2.3-2.3s2.2.9 2.3 2.3c0 1.3-.9 2.3-2.3 2.3zm-1.4-5.9-.6-11.5h4l-.6 11.5h-2.9z"/>
        </g>
    </g>
</svg>