
<svg xmlns="http://www.w3.org/2000/svg" height="24pt" viewBox="0 0 24 24"
     width="24pt" xmlns:xlink="http://www.w3.org/1999/xlink">
    <linearGradient id="a">
        <stop offset="0" stop-color="#bbb"/>
        <stop offset="1" stop-color="#d2d2d2"/>
    </linearGradient>
    <linearGradient id="b" gradientUnits="userSpaceOnUse" x1="12.6045"
                    x2="18.4857" xlink:href="#a" y1="12.1245" y2="19.1925"/>
    <linearGradient id="c"
                    gradientTransform="matrix(.9625 .2714 -.2714 .9625 -49.4545 35.6615)"
                    gradientUnits="userSpaceOnUse" x1="44.0933" x2="47.8155"
                    xlink:href="#a" y1="-45.21" y2="-40.7366"/>
    <g fill="#fff" stroke="#000">
        <path d="m21.6 16.3v-2.2h-1.4c-.1-.6-.4-1.1-.7-1.6l1-1-1.6-1.6-1 1c-.5-.3-1-.5-1.6-.7v-1.4h-2.2v1.4c-.6.1-1.1.4-1.6.7l-1-1-1.6 1.6 1 1c-.3.5-.5 1-.7 1.6h-1.4v2.2h1.4c.1.6.4 1.1.7 1.6l-1 1 1.6 1.6 1-1c.5.3 1 .5 1.6.7v1.4h2.2v-1.4c.6-.1 1.1-.4 1.6-.7l1 1 1.6-1.6-1-1c.3-.5.5-1 .7-1.6zm-6.4.1c-.6 0-1.1-.5-1.1-1.1s.5-1.1 1.1-1.1 1.1.5 1.1 1.1-.5 1.1-1.1 1.1z"
              fill="none" stroke-linecap="round" stroke-linejoin="round"
              stroke-width="2.4724"/>
        <path d="m21.6 16.3v-2.2h-1.4c-.1-.6-.4-1.1-.7-1.6l1-1-1.6-1.6-1 1c-.5-.3-1-.5-1.6-.7v-1.4h-2.2v1.4c-.6.1-1.1.4-1.6.7l-1-1-1.6 1.6 1 1c-.3.5-.5 1-.7 1.6h-1.4v2.2h1.4c.1.6.4 1.1.7 1.6l-1 1 1.6 1.6 1-1c.5.3 1 .5 1.6.7v1.4h2.2v-1.4c.6-.1 1.1-.4 1.6-.7l1 1 1.6-1.6-1-1c.3-.5.5-1 .7-1.6zm-6.4.1c-.6 0-1.1-.5-1.1-1.1s.5-1.1 1.1-1.1 1.1.5 1.1 1.1-.5 1.1-1.1 1.1z"
              fill="url(#b)" stroke="none"/>
        <g stroke="none">
            <path d="m11.5 12.5-1-1 1.3-1.3-.3-.3-1.6 1.6 1 1c-.3.5-.5 1-.7 1.6h.6c.1-.6.4-1.1.7-1.6z"
                  opacity=".59"/>
            <path d="m13.1 19.5-.2.2c.4.2.8.4 1.2.5v1.4h.6v-1.4c-.6-.1-1.1-.4-1.6-.7z"
                  opacity=".59"/>
            <path d="m11.5 17.9c-.3-.5-.5-1-.7-1.6h-.6c.1.6.4 1.1.7 1.6l-1 1 1.6 1.6.3-.3-1.3-1.3z"
                  opacity=".59"/>
            <path d="m8.8 14.1v2.2h.6v-2.2z" opacity=".59"/>
            <path d="m14.7 10.2v-1.4h-.6v1.4c-.4.1-.8.2-1.2.4l.2.2c.5-.3 1-.5 1.6-.7z"
                  opacity=".59"/>
        </g>
        <path d="m10 8.2.4-1.4-.9-.2c0-.4 0-.7-.1-1.1l.8-.4-.7-1.3-.8.5c-.3-.3-.5-.5-.9-.7l.2-.9-1.3-.4-.2.9c-.4 0-.7 0-1.1.1l-.5-.7-1.2.7.4.7c-.2.3-.5.6-.6.9l-.9-.2-.4 1.3.9.2c0 .4 0 .7.1 1.1l-.8.5.7 1.2.8-.4c.2.3.5.5.9.7l-.2.9 1.4.4.2-.9c.4 0 .7 0 1.1-.1l.4.8 1.2-.7-.4-.9c.2-.2.5-.5.6-.8zm-3.9-1.1c-.4-.1-.6-.5-.5-.8.1-.4.5-.6.9-.5s.6.5.5.8c-.1.4-.5.6-.9.5z"
              fill="none" stroke-linecap="round" stroke-linejoin="round"
              stroke-width="2.4724"/>
        <g stroke="none">
            <path d="m10 8.2.4-1.4-.9-.2c0-.4 0-.7-.1-1.1l.8-.4-.7-1.3-.8.5c-.3-.3-.5-.5-.9-.7l.2-.9-1.3-.4-.2.9c-.4 0-.7 0-1.1.1l-.5-.7-1.2.7.4.7c-.2.3-.5.6-.6.9l-.9-.2-.4 1.3.9.2c0 .4 0 .7.1 1.1l-.8.5.7 1.2.8-.4c.2.3.5.5.9.7l-.2.9 1.4.4.2-.9c.4 0 .7 0 1.1-.1l.4.8 1.2-.7-.4-.9c.2-.2.5-.5.6-.8zm-3.9-1.1c-.4-.1-.6-.5-.5-.8.1-.4.5-.6.9-.5s.6.5.5.8c-.1.4-.5.6-.9.5z"
                  fill="url(#c)"/>
            <g>
                <path d="m4.5 4.1-.4-.8 1-.6-.1-.2-1.3.7.5.8c-.3.3-.5.6-.7.9l.3.1c.2-.3.5-.6.7-.9z"
                      opacity=".59"/>
                <path d="m4.3 8.7-.2.1c.2.2.4.3.7.5l-.2.9.4.1.2-.9c-.4-.2-.7-.4-.9-.7z"
                      opacity=".59"/>
                <path d="m3.6 7.5c-.1-.4-.2-.8-.1-1.1l-.4-.1c0 .4 0 .7.1 1.1l-.7.4.6 1.2.2-.1-.6-1 .8-.4z"
                      opacity=".59"/>
                <path d="m2.6 4.6-.4 1.4.4.1.4-1.4z" opacity=".59"/>
                <path d="m6.9 3.3.2-.9-.3-.1-.3.9c-.3 0-.6 0-.8.1l.1.2c.3-.1.7-.1 1.1-.1z"
                      opacity=".59"/>
            </g>
        </g>
    </g>
    <path d="m24 24h-24v-24h24z" fill="none"/>
</svg>