<?xml version="1.0" encoding="iso-8859-1"?>
<!-- Generator: Adobe Illustrator 9.0, SVG Export Plug-In  -->
<!DOCTYPE svg PUBLIC "-//W3C//DTD SVG 20000303 Stylable//EN"   "http://www.w3.org/TR/2000/03/WD-SVG-20000303/DTD/svg-20000303-stylable.dtd" [
	<!ENTITY st0 "fill:url(#aigrd1);stroke:none;">
	<!ENTITY st1 "opacity:0.59;">
	<!ENTITY st2 "fill:none;stroke-width:2.4724;stroke-linecap:round;stroke-linejoin:round;">
	<!ENTITY st3 "fill-rule:nonzero;clip-rule:nonzero;fill:#FFFFFF;stroke:#000000;stroke-miterlimit:4;">
	<!ENTITY st4 "fill:url(#aigrd2);stroke:none;">
	<!ENTITY st5 "fill:none;stroke:none;">
	<!ENTITY st6 "fill-rule:nonzero;clip-rule:nonzero;stroke:#000000;stroke-miterlimit:4;">
	<!ENTITY st7 "stroke:none;">
]>
<svg  width="24pt" height="24pt" viewBox="0 0 24 24" xml:space="preserve">
	<g id="Layer_x0020_2" style="&st3;">
		<path style="&st2;" d="M21.6,16.3v-2.2h-1.4c-0.1-0.6-0.4-1.1-0.7-1.6l1-1l-1.6-1.6l-1,1c-0.5-0.3-1-0.5-1.6-0.7V8.8h-2.2v1.4c-0.6,0.1-1.1,0.4-1.6,0.7l-1-1l-1.6,1.6l1,1c-0.3,0.5-0.5,1-0.7,1.6H8.8v2.2h1.4c0.1,0.6,0.4,1.1,0.7,1.6l-1,1l1.6,1.6l1-1
			c0.5,0.3,1,0.5,1.6,0.7v1.4h2.2v-1.4c0.6-0.1,1.1-0.4,1.6-0.7l1,1l1.6-1.6l-1-1c0.3-0.5,0.5-1,0.7-1.6h1.4z M15.2,16.4c-0.6,0-1.1-0.5-1.1-1.1c0-0.6,0.5-1.1,1.1-1.1c0.6,0,1.1,0.5,1.1,1.1c0,0.6-0.5,1.1-1.1,1.1z"/>
		<linearGradient id="aigrd1" gradientUnits="userSpaceOnUse" x1="12.6045" y1="12.1245" x2="18.4857" y2="19.1925">
			<stop  offset="0" style="stop-color:#BBBBBB"/>
			<stop  offset="1" style="stop-color:#D2D2D2"/>
		</linearGradient>
		<path style="&st0;" d="M21.6,16.3v-2.2h-1.4c-0.1-0.6-0.4-1.1-0.7-1.6l1-1l-1.6-1.6l-1,1c-0.5-0.3-1-0.5-1.6-0.7V8.8h-2.2v1.4c-0.6,0.1-1.1,0.4-1.6,0.7l-1-1l-1.6,1.6l1,1c-0.3,0.5-0.5,1-0.7,1.6H8.8v2.2h1.4c0.1,0.6,0.4,1.1,0.7,1.6l-1,1l1.6,1.6l1-1
			c0.5,0.3,1,0.5,1.6,0.7v1.4h2.2v-1.4c0.6-0.1,1.1-0.4,1.6-0.7l1,1l1.6-1.6l-1-1c0.3-0.5,0.5-1,0.7-1.6h1.4z M15.2,16.4c-0.6,0-1.1-0.5-1.1-1.1c0-0.6,0.5-1.1,1.1-1.1c0.6,0,1.1,0.5,1.1,1.1c0,0.6-0.5,1.1-1.1,1.1z"/>
		<g style="&st7;">
			<path style="&st1;" d="M11.5,12.5l-1-1l1.3-1.3l-0.3-0.3l-1.6,1.6l1,1c-0.3,0.5-0.5,1-0.7,1.6h0.6c0.1-0.6,0.4-1.1,0.7-1.6z"/>
			<path style="&st1;" d="M13.1,19.5l-0.2,0.2c0.4,0.2,0.8,0.4,1.2,0.5v1.4h0.6v-1.4c-0.6-0.1-1.1-0.4-1.6-0.7z"/>
			<path style="&st1;" d="M11.5,17.9c-0.3-0.5-0.5-1-0.7-1.6h-0.6c0.1,0.6,0.4,1.1,0.7,1.6l-1,1l1.6,1.6l0.3-0.3l-1.3-1.3l1-1z"/>
			<path style="&st1;" d="M8.8,14.1v2.2h0.6l0-2.2H8.8z"/>
			<path style="&st1;" d="M14.7,10.2V8.8h-0.6v1.4c-0.4,0.1-0.8,0.2-1.2,0.4l0.2,0.2c0.5-0.3,1-0.5,1.6-0.7z"/>
		</g>
		<path style="&st2;" d="M10,8.2l0.4-1.4L9.5,6.6c0-0.4,0-0.7-0.1-1.1l0.8-0.4L9.5,3.8L8.7,4.3C8.4,4,8.2,3.8,7.8,3.6l0.2-0.9L6.7,2.3L6.5,3.2c-0.4,0-0.7,0-1.1,0.1L4.9,2.6L3.7,3.3L4.1,4C3.9,4.3,3.6,4.6,3.5,4.9L2.6,4.7L2.2,6l0.9,0.2c0,0.4,0,0.7,0.1,1.1L2.4,7.8
			L3.1,9l0.8-0.4c0.2,0.3,0.5,0.5,0.9,0.7l-0.2,0.9l1.4,0.4l0.2-0.9c0.4,0,0.7,0,1.1-0.1l0.4,0.8l1.2-0.7L8.5,8.8C8.7,8.6,9,8.3,9.1,8L10,8.2z M6.1,7.1C5.7,7,5.5,6.6,5.6,6.3c0.1-0.4,0.5-0.6,0.9-0.5C6.9,5.9,7.1,6.3,7,6.6C6.9,7,6.5,7.2,6.1,7.1z"/>
		<linearGradient id="aigrd2" gradientUnits="userSpaceOnUse" x1="44.0933" y1="-45.21" x2="47.8155" y2="-40.7366" gradientTransform="matrix(0.9625 0.2714 -0.2714 0.9625 -49.4545 35.6615)">
			<stop  offset="0" style="stop-color:#BBBBBB"/>
			<stop  offset="1" style="stop-color:#D2D2D2"/>
		</linearGradient>
		<path style="&st4;" d="M10,8.2l0.4-1.4L9.5,6.6c0-0.4,0-0.7-0.1-1.1l0.8-0.4L9.5,3.8L8.7,4.3C8.4,4,8.2,3.8,7.8,3.6l0.2-0.9L6.7,2.3L6.5,3.2c-0.4,0-0.7,0-1.1,0.1L4.9,2.6L3.7,3.3L4.1,4C3.9,4.3,3.6,4.6,3.5,4.9L2.6,4.7L2.2,6l0.9,0.2c0,0.4,0,0.7,0.1,1.1L2.4,7.8
			L3.1,9l0.8-0.4c0.2,0.3,0.5,0.5,0.9,0.7l-0.2,0.9l1.4,0.4l0.2-0.9c0.4,0,0.7,0,1.1-0.1l0.4,0.8l1.2-0.7L8.5,8.8C8.7,8.6,9,8.3,9.1,8L10,8.2z M6.1,7.1C5.7,7,5.5,6.6,5.6,6.3c0.1-0.4,0.5-0.6,0.9-0.5C6.9,5.9,7.1,6.3,7,6.6C6.9,7,6.5,7.2,6.1,7.1z"/>
		<g style="&st7;">
			<path style="&st1;" d="M4.5,4.1L4.1,3.3l1-0.6L5,2.5L3.7,3.2L4.2,4C3.9,4.3,3.7,4.6,3.5,4.9L3.8,5C4,4.7,4.3,4.4,4.5,4.1z"/>
			<path style="&st1;" d="M4.3,8.7L4.1,8.8C4.3,9,4.5,9.1,4.8,9.3l-0.2,0.9l0.4,0.1l0.2-0.9C4.8,9.2,4.5,9,4.3,8.7z"/>
			<path style="&st1;" d="M3.6,7.5C3.5,7.1,3.4,6.7,3.5,6.4L3.1,6.3c0,0.4,0,0.7,0.1,1.1L2.5,7.8L3.1,9l0.2-0.1l-0.6-1l0.8-0.4z"/>
			<path style="&st1;" d="M2.6,4.6L2.2,6l0.4,0.1L3,4.7L2.6,4.6z"/>
			<path style="&st1;" d="M6.9,3.3l0.2-0.9L6.8,2.3L6.5,3.2c-0.3,0-0.6,0-0.8,0.1l0.1,0.2c0.3-0.1,0.7-0.1,1.1-0.1z"/>
		</g>
	</g>
	<g id="Layer_x0020_3" style="&st6;">
		<path style="&st5;" d="M24,24H0V0h24v24z"/>
	</g>
</svg>
