
<svg height="48pt" viewBox="0 0 48 48" width="48pt"
     xmlns="http://www.w3.org/2000/svg"
     xmlns:xlink="http://www.w3.org/1999/xlink">
    <linearGradient id="a"
                    gradientTransform="matrix(.843 -.843 .7071 .7071 104.3129 -24.8984)"
                    gradientUnits="userSpaceOnUse" x1="-73.2363" x2="-73.2363"
                    y1="-37.9189" y2="-1.6937">
        <stop offset="0" stop-color="#fff"/>
        <stop offset="1" stop-color="#fff"/>
    </linearGradient>
    <linearGradient id="b" gradientUnits="userSpaceOnUse" x1="17.6689"
                    x2="36.7195" y1="3.5522" y2="31.8561">
        <stop offset="0" stop-color="#ce1209"/>
        <stop offset="1" stop-color="#850e05"/>
    </linearGradient>
    <linearGradient id="c" gradientUnits="userSpaceOnUse" x1="22.5063"
                    x2="33.7732" y1="9.9277" y2="28.7674">
        <stop offset="0" stop-color="#fff"/>
        <stop offset="1" stop-color="#bfbfbf"/>
    </linearGradient>
    <g fill="#fff" stroke="#000">
        <path d="m28 7.9c3.3 3.3-11 17.7-14.3 14.3-3.3-3.3-2.8-9.2 1.2-13.2s9.9-4.5 13.2-1.2z"
              fill="url(#a)" opacity=".5" stroke="none"/>
        <path d="m43.4 12.1-16.8 28.8c-.7 1.1-1.9 1.8-3.2 1.8s-2.5-.7-3.2-1.9l-16-28.8c-.6-1.1-.6-2.5 0-3.6.7-1.1 1.9-1.8 3.2-1.8h32.8c1.3 0 2.5.7 3.2 1.8s.7 2.5 0 3.7z"
              fill="#a70f18" stroke-width="5.2005"/>
        <g stroke="none">
            <path d="m43.4 12.1-16.8 28.8c-.7 1.1-1.9 1.8-3.2 1.8s-2.5-.7-3.2-1.9l-16-28.8c-.6-1.1-.6-2.5 0-3.6.7-1.1 1.9-1.8 3.2-1.8h32.8c1.3 0 2.5.7 3.2 1.8s.7 2.5 0 3.7z"
                  fill="url(#b)"/>
            <path d="m23.7 37.8-14.7-26.3h30z" fill="url(#c)"/>
            <path d="m24 38.3-14.9-26.7 29.7-.1-27.8 1.4 13 25.5z"
                  fill="#737373" opacity=".65"/>
            <path d="m23.6 37.6 15.2-25.9h-1.1z"/>
            <path d="m43.5 8.4c-.3-.5-.7-1-1.2-1.3.1.1.2.3.3.4.7 1.1.6 2.5 0 3.7l-16.8 28.8c-.7 1.1-1.9 1.8-3.2 1.8-.7 0-1.4-.2-1.9-.6.7.9 1.7 1.4 2.9 1.4 1.3 0 2.5-.7 3.2-1.8l16.8-28.8c.7-1.1.7-2.5 0-3.7z"
                  fill="#000" opacity=".54"/>
            <path d="m21.2 41.7-16.1-28.8c-.6-1.1-.6-2.5 0-3.6s1.9-1.9 3.2-1.9h32.8c.7 0 1.4.2 2 .6-.7-.9-1.8-1.4-2.9-1.4h-32.9c-1.3 0-2.5.7-3.1 1.8-.7 1.1-.7 2.5 0 3.6l16.1 28.8c.3.5.7 1 1.3 1.3-.1-.1-.2-.3-.3-.4z"
                  opacity=".27"/>
            <path d="m22.2 26.2-.1-.6c0-1.3.3-2.6 1.5-3.9.8-.9 1.4-1.8 1.4-2.6s-.6-1.4-1.8-1.5c-.8 0-1.8.3-2.5.7l-.7-2.7c.9-.5 2.4-1 4.2-1 3.3 0 4.8 1.8 4.8 3.9 0 1.9-1.2 3.1-2.1 4.2-.9 1-1.3 2-1.3 3.1v.4h-3.3zm1.5 5.7c-1.3 0-2.2-1-2.2-2.3s.9-2.3 2.2-2.3 2.2.9 2.2 2.3c0 1.3-.9 2.3-2.2 2.3z"
                  fill="#000"/>
        </g>
    </g>
    <path d="m48 48h-48v-48h48z" fill="none"/>
</svg>