
<svg enable-background="new 0 0 256 256" height="48pt" viewBox="0 0 256 256"
     width="48pt" xmlns="http://www.w3.org/2000/svg"
     xmlns:xlink="http://www.w3.org/1999/xlink">
    <linearGradient id="a" gradientUnits="userSpaceOnUse" x1="126.6685"
                    x2="126.6684" y1="12.998" y2="101.9984">
        <stop offset=".0056" stop-color="#fff"/>
        <stop offset="1" stop-color="#f66"/>
    </linearGradient>
    <radialGradient id="b" cx="49.7393" cy="55.0098"
                    gradientUnits="userSpaceOnUse" r="259.5079">
        <stop offset=".0056" stop-color="#f99"/>
        <stop offset=".5843" stop-color="#f00"/>
        <stop offset="1" stop-color="#900"/>
    </radialGradient>
    <path d="m256 256h-256v-256h256z" fill="none"/>
    <g stroke="none">
        <path d="m8.285 130.645c0 67.466 54.889 122.355 122.358 122.355 67.467 0 122.357-54.889 122.357-122.355 0-67.47-54.89-122.359-122.357-122.359-67.469 0-122.358 54.889-122.358 122.359z"
              opacity=".2"/>
        <path d="m5.603 125.798c0 67.467 54.889 122.356 122.357 122.356s122.357-54.889 122.357-122.356c0-67.469-54.89-122.358-122.357-122.358-67.468 0-122.357 54.89-122.357 122.358z"
              fill="#600"/>
        <path d="m127.96 5.44c-66.365 0-120.357 53.993-120.357 120.358 0 66.364 53.992 120.356 120.357 120.356s120.357-53.992 120.357-120.356c0-66.365-53.992-120.358-120.357-120.358z"
              fill="#600"/>
        <path d="m13.603 125.798c0 63.157 51.199 114.356 114.357 114.356s114.357-51.199 114.357-114.356c0-63.158-51.199-114.358-114.357-114.358s-114.357 51.2-114.357 114.358z"
              fill="url(#b)"/>
        <path d="m16.603 129.813c0-63.158 51.199-114.358 114.357-114.358 36.628 0 69.23 17.222 90.16 44.007-20.735-29.068-54.733-48.022-93.16-48.022-63.158 0-114.357 51.2-114.357 114.358 0 26.53 9.037 50.946 24.196 70.348-13.345-18.707-21.196-41.603-21.196-66.333z"
              fill="#fff" opacity=".5"/>
    </g>
    <path d="m157.198 67.811c.001 0-24.052 24.051-29.698 29.698-5.646-5.647-29.698-29.699-29.698-29.699-3.898-3.898-10.243-3.898-14.142 0l-14.85 14.85c-1.889 1.89-2.929 4.401-2.929 7.071s1.04 5.181 2.928 7.07c0 0 24.053 24.053 29.7 29.699-5.647 5.646-29.699 29.699-29.699 29.699-1.888 1.887-2.929 4.398-2.929 7.07s1.041 5.184 2.93 7.071l14.848 14.849c1.887 1.889 4.398 2.93 7.071 2.93 2.672 0 5.184-1.041 7.072-2.931 0 0 21.147-21.146 29.697-29.696 5.646 5.646 29.699 29.697 29.699 29.697 1.888 1.889 4.398 2.93 7.07 2.93s5.183-1.041 7.071-2.931l14.849-14.849c1.889-1.886 2.93-4.397 2.93-7.07s-1.041-5.185-2.931-7.072c0 0-24.05-24.051-29.696-29.697 5.646-5.646 29.697-29.698 29.697-29.698 1.889-1.888 2.93-4.399 2.93-7.071s-1.041-5.184-2.931-7.072l-14.847-14.849c-1.888-1.889-4.399-2.929-7.07-2.929s-5.183 1.04-7.072 2.93z"
          fill="#600"/>
    <path d="m83.66 67.81c3.899-3.898 10.244-3.898 14.142 0 0 0 11.229 11.229 20.144 20.144 1.349.02 2.694.046 4.054.046 5.232 0 10.384-.15 15.44-.432 8.851-8.85 19.759-19.758 19.759-19.758-.001 0-.001 0-.001 0 1.889-1.889 4.4-2.929 7.071-2.929s5.183 1.04 7.07 2.929l12.696 12.696c13.383-3.509 25.097-8.114 34.476-13.539-18.02-31.361-51.86-52.527-90.552-52.527-40.628 0-75.903 23.339-93.134 57.313 9.753 4.438 21.26 8.127 34.024 10.867z"
          fill="url(#a)"/>
    <path d="m149.421 126.5c5.776-5.776 33.233-33.234 33.233-33.234.938-.938 1.465-2.209 1.465-3.536s-.526-2.598-1.465-3.536l-14.85-14.849c-1.952-1.953-5.118-1.953-7.07 0 0 0-27.458 27.458-33.234 33.234-5.776-5.776-33.234-33.234-33.234-33.234-1.953-1.953-5.119-1.952-7.071 0l-14.849 14.85c-.976.977-1.464 2.256-1.464 3.536s.488 2.559 1.464 3.536c0 0 27.458 27.458 33.234 33.234-5.776 5.776-33.234 33.234-33.234 33.234-.976.976-1.464 2.256-1.464 3.535s.488 2.56 1.464 3.535l14.849 14.85c.938.938 2.209 1.465 3.536 1.465s2.598-.526 3.536-1.465c0 0 27.458-27.457 33.234-33.233 5.776 5.776 33.234 33.233 33.234 33.233 1.952 1.953 5.118 1.953 7.07 0l14.85-14.85c.977-.976 1.465-2.256 1.465-3.535s-.488-2.56-1.465-3.535c-.001-.001-27.458-27.459-33.234-33.235z"
          fill="#fff"/>
</svg>