/* XPM */
static char * omnest_xpm[] = {
"48 48 191 2",
"  	c None",
". 	c #F03513",
"+ 	c #F53311",
"@ 	c #F62D0A",
"# 	c #EF3716",
"$ 	c #DD371A",
"% 	c #F23A19",
"& 	c #FE2601",
"* 	c #FF2500",
"= 	c #F7300E",
"- 	c #F43311",
"; 	c #FE2400",
"> 	c #FD2400",
", 	c #FC2905",
"' 	c #B83D26",
") 	c #EC3D1E",
"! 	c #F62F0C",
"~ 	c #12807F",
"{ 	c #1C8684",
"] 	c #1C8583",
"^ 	c #1D8584",
"/ 	c #FA2C0A",
"( 	c #BD3A23",
"_ 	c #0A7F7F",
": 	c #007B7B",
"< 	c #017B7B",
"[ 	c #FE2500",
"} 	c #DE3315",
"| 	c #007A7A",
"1 	c #067D7D",
"2 	c #414D4C",
"3 	c #9E4534",
"4 	c #E72809",
"5 	c #258482",
"6 	c #047C7C",
"7 	c #3F4D4B",
"8 	c #964B3A",
"9 	c #E52D0D",
"0 	c #278382",
"a 	c #485B58",
"b 	c #CF381D",
"c 	c #278281",
"d 	c #2F8F8D",
"e 	c #8AB6AE",
"f 	c #8BB5AC",
"g 	c #906355",
"h 	c #E93718",
"i 	c #8C3C2E",
"j 	c #429793",
"k 	c #C1CDC1",
"l 	c #BFCBBF",
"m 	c #D29F8C",
"n 	c #ED3110",
"o 	c #D7371B",
"p 	c #43403F",
"q 	c #C1CBBF",
"r 	c #F24829",
"s 	c #CA3C23",
"t 	c #B83923",
"u 	c #FC2804",
"v 	c #E53718",
"w 	c #603F39",
"x 	c #D5937F",
"y 	c #FE2702",
"z 	c #AC3823",
"A 	c #9F3F2E",
"B 	c #E73819",
"C 	c #FD2500",
"D 	c #F82C09",
"E 	c #BE3B24",
"F 	c #4F3F3D",
"G 	c #C4C4B6",
"H 	c #F73917",
"I 	c #FD2702",
"J 	c #D03E23",
"K 	c #75443B",
"L 	c #8E4435",
"M 	c #8D3F30",
"N 	c #7D463B",
"O 	c #51423F",
"P 	c #E37056",
"Q 	c #F2300E",
"R 	c #BE4830",
"S 	c #366865",
"T 	c #CFA695",
"U 	c #FD2804",
"V 	c #FD2803",
"W 	c #DC826B",
"X 	c #2E8D8A",
"Y 	c #077E7E",
"Z 	c #037C7C",
"` 	c #C4C3B6",
" .	c #F53D1C",
"..	c #F93310",
"+.	c #D0A18F",
"@.	c #2D8E8C",
"#.	c #265858",
"$.	c #C1CCBF",
"%.	c #E96044",
"&.	c #F34424",
"*.	c #C9B6A7",
"=.	c #285656",
"-.	c #DB846E",
";.	c #EB5B3E",
">.	c #C3C3B7",
",.	c #295555",
"'.	c #D29D8A",
").	c #E07A62",
"!.	c #CCAD9C",
"~.	c #FB2F0C",
"{.	c #FA300C",
"].	c #D49A86",
"^.	c #CAB5A5",
"/.	c #F83614",
"(.	c #F44322",
"_.	c #CAB3A3",
":.	c #C7B8A9",
"<.	c #F73A19",
"[.	c #E76347",
"}.	c #C4C5B8",
"|.	c #CAB4A5",
"1.	c #F63B1A",
"2.	c #FC2C08",
"3.	c #D98B75",
"4.	c #C1CCC0",
"5.	c #CBAF9F",
"6.	c #F83815",
"7.	c #CBAF9E",
"8.	c #D0A492",
"9.	c #FA310E",
"0.	c #E56C52",
"a.	c #C3C6B9",
"b.	c #D68F7A",
"c.	c #FD2A06",
"d.	c #F73715",
"e.	c #D39C89",
"f.	c #C0CBBF",
"g.	c #C2CABD",
"h.	c #E2745B",
"i.	c #E96144",
"j.	c #C6BFB1",
"k.	c #C6BEAF",
"l.	c #ED5335",
"m.	c #F83714",
"n.	c #D49783",
"o.	c #D29F8D",
"p.	c #F83613",
"q.	c #E46D53",
"r.	c #C4C2B5",
"s.	c #C2C4B8",
"t.	c #E46F55",
"u.	c #ED5133",
"v.	c #CDAD9C",
"w.	c #D1A290",
"x.	c #F53E1D",
"y.	c #F44222",
"z.	c #D39B87",
"A.	c #C8BAAB",
"B.	c #E76246",
"C.	c #F34121",
"D.	c #D6927E",
"E.	c #C0CABE",
"F.	c #507167",
"G.	c #FB2E0B",
"H.	c #F14A2A",
"I.	c #D59682",
"J.	c #2C817E",
"K.	c #4D7971",
"L.	c #CFA694",
"M.	c #C0CABF",
"N.	c #447872",
"O.	c #E85B3F",
"P.	c #DC5337",
"Q.	c #7D6353",
"R.	c #41716C",
"S.	c #2D7C79",
"T.	c #389390",
"U.	c #A5C2B7",
"V.	c #A5C0B7",
"W.	c #268C89",
"X.	c #28817F",
"Y.	c #268180",
"Z.	c #2A5656",
"`.	c #057B7B",
" +	c #097C7B",
".+	c #384C4B",
"++	c #107A79",
"@+	c #067676",
"#+	c #067575",
"$+	c #137978",
"%+	c #2E5757",
"                                                                                                ",
"                                                                          . + @ # $             ",
"                                                                      % & * * * * * =           ",
"                                                                    - ; * > * > * > * , '       ",
"                                                                  ) * * * * * * * * * * !       ",
"        ~ { ] ] ] ] ] ] ] ] ] ] ] ] ] ] ] ] ] ] ] ] ] ] ] ] ^     / * > * > * > * > * > * (     ",
"      _ : : : : : : : : : : : : : : : : : : : : : : : : : : <     [ * * * * * * * * * * * }     ",
"      | : | : | : | : | : | : | : | : | : | : | : | : | : | 1 2 3 ; * > * > * > * > * > * 4     ",
"    5 : : : : : : : : : : : : : : : : : : : : : : : : : : : 6 7 8 * * * * * * * * * * * * 9     ",
"    0 | : | : | : | : | : | : | : | : | : | : | : | : | : | : a   & * > * > * > * > * > * b     ",
"    c : : : : d e e e e e e e e e e e e e e e e e e e e e e f g   h * * * * * * * * * * [ i     ",
"    c | : | : j k l k l k l k l k l k l k l k l k l k l k l m n     , > * > * > * > * > o p     ",
"    c : : : : j k k k k k k k k k k k k k k k k k k k k k q r * s   t u * * * * * * * v w       ",
"    c | : | : j k l k l k l k l k l k l k l k l k l k l k x * > y z   A B C * > [ D E F         ",
"    c : : : : j k k k k k k k k k k k k k k k k k k k k G H * * * I J     K L M N O             ",
"    c | : | : j k l k l k l k l k l k l k l k l k l k l P > * > * > * Q R         S             ",
"    c : : : : j k k k k k k k k k k k k k k k k k k k T U * * * * * * V W X 1 Y Z :             ",
"    c | : | : j k l k l k l k l k l k l k l k l k l `  .* > * > * > ..+.k @.: | : | #.          ",
"    c : : : : j k k k k k k k k k k k k k k k k k $.%.* * * * * * &.*.k k @.: : : : =.          ",
"    c | : | : j k l k l k l k l k l k l k l k l k -.[ > * > * > ;.>.k l k @.: | : | ,.          ",
"    c : : : : j k k k k k k k k k k k k k k k k '.U * * * * y ).q k k k k @.: : : : =.          ",
"    c | : | : j k l k l k l k l k l k l k l k !.~.> * > * {.].l k l k l k @.: | : | ,.          ",
"    c : : : : j k k k k k k k k k k k k k k ^./.* * * * (._.k k k k k k k @.: : : : =.          ",
"    c | : | : j k l k l k l k l k l k l k :.<.> * > [ [.}.l k l k l k l k @.: | : | ,.          ",
"    c : : : : j k k k k k k k k k k k k |.1.* * * 2.3.4.k k k k k k k k k @.: : : : =.          ",
"    c | : | : j k l k l k l k l k l k 5.6.> * > (.7.k l k l k l k l k l k @.: | : | ,.          ",
"    c : : : : j k k k k k k k k k 4.8.9.* * & 0.a.k k k k k k k k k k k k @.: : : : =.          ",
"    c | : | : j k l k l k l k l 4.b.c.> * d.e.f.k l k l k l k l k l k l k @.: | : | ,.          ",
"    c : : : : j k k k k k k k g.h.& * [ i.j.k k k k k k k k k k k k k k k @.: : : : =.          ",
"    c | : | : j k l k l k l k.l.[ > m.n.4.l k l k l k l k l k l k l k l k @.: | : | ,.          ",
"    c : : : : j k k k k 4.o.p.* V q.r.k k k k k k k k k k k k k k k k k k @.: : : : =.          ",
"    c | : | : j k l k s.t.I [ u.v.l k l k l k l k l k l k l k l k l k l k @.: | : | ,.          ",
"    c : : : : j k k w.x.* y.z.q k k k k k k k k k k k k k k k k k k k k k @.: : : : =.          ",
"    c | : | : j A.B.[ C.D.E.k l k l k l k l k l k l k l k l k l k l k l k @.: | : | ,.          ",
"    c : : : : F.G.H.I.g.k k k k k k k k k k k k k k k k k k k k k k k k k @.: : : : =.          ",
"    J.| : | : K.L.M.k l k l k l k l k l k l k l k l k l k l k l k l k l k @.: | : | ,.          ",
"    N.: : : : j k k k k k k k k k k k k k k k k k k k k k k k k k k k k k @.: : : : =.          ",
"O.P.Q.| : | : j k l k l k l k l k l k l k l k l k l k l k l k l k l k l k @.: | : | ,.          ",
"    R.: : : : j k k k k k k k k k k k k k k k k k k k k k k k k k k k k k @.: : : : =.          ",
"    S.| : | : T.U.V.U.V.U.V.U.V.U.V.U.V.U.V.U.V.U.V.U.V.U.V.U.V.U.V.U.V.U.W.: | : | ,.          ",
"    X.: : : : : : : : : : : : : : : : : : : : : : : : : : : : : : : : : : : : : : : =.          ",
"    Y.| : | : | : | : | : | : | : | : | : | : | : | : | : | : | : | : | : | : | : | ,.          ",
"      : : : : : : : : : : : : : : : : : : : : : : : : : : : : : : : : : : : : : : : Z.          ",
"      `.: | : | : | : | : | : | : | : | : | : | : | : | : | : | : | : | : | : | :  +.+          ",
"        ++@+@+#+#+#+#+#+#+#+#+#+#+#+#+#+#+#+#+#+#+#+#+#+#+#+#+#+#+#+#+#+#+#+#+#+$+%+            ",
"                                                                                                ",
"                                                                                                ",
"                                                                                                "};
