<?xml version="1.0" encoding="iso-8859-1"?>
<!-- Generator: Adobe Illustrator 9.0, SVG Export Plug-In  -->
<!DOCTYPE svg PUBLIC "-//W3C//DTD SVG 20000303 Stylable//EN"   "http://www.w3.org/TR/2000/03/WD-SVG-20000303/DTD/svg-20000303-stylable.dtd" [
	<!ENTITY st0 "fill:none;stroke:#FFFFFF;stroke-width:1.1287;stroke-linecap:round;stroke-linejoin:round;">
	<!ENTITY st1 "fill:url(#aigrd1);stroke:none;">
	<!ENTITY st2 "fill:url(#aigrd11);stroke:none;">
	<!ENTITY st3 "fill:url(#aigrd9);stroke:none;">
	<!ENTITY st4 "fill:url(#aigrd2);stroke-width:5.4335;">
	<!ENTITY st5 "opacity:0.36;fill:#F7FAE2;stroke:none;">
	<!ENTITY st6 "opacity:0.5;fill:url(#aigrd12);stroke:none;">
	<!ENTITY st7 "fill:url(#aigrd1);stroke-width:5.4335;">
	<!ENTITY st8 "fill-rule:nonzero;clip-rule:nonzero;fill:#FFFFFF;stroke:#000000;stroke-miterlimit:4;">
	<!ENTITY st9 "fill:url(#aigrd10);stroke:none;">
	<!ENTITY st10 "fill:url(#aigrd8);stroke:none;">
	<!ENTITY st11 "fill:url(#aigrd5);stroke-width:5.4335;">
	<!ENTITY st12 "opacity:0.81;stroke:none;">
	<!ENTITY st13 "opacity:0.46;fill:#000000;stroke:none;">
	<!ENTITY st14 "fill:none;stroke:none;">
	<!ENTITY st15 "fill:url(#aigrd4);stroke-width:5.4335;">
	<!ENTITY st16 "fill-rule:nonzero;clip-rule:nonzero;stroke:#000000;stroke-miterlimit:4;">
	<!ENTITY st17 "fill:url(#aigrd7);stroke:none;">
	<!ENTITY st18 "stroke:none;">
	<!ENTITY st19 "fill:url(#aigrd3);stroke-width:5.4335;">
]>
<svg  width="48pt" height="48pt" viewBox="0 0 48 48" xml:space="preserve">
	<g id="Layer_x0020_4" style="&st8;">
		<linearGradient id="aigrd1" gradientUnits="userSpaceOnUse" x1="23.124" y1="43.165" x2="26.4785" y2="43.165">
			<stop  offset="5.618000e-003" style="stop-color:#686868"/>
			<stop  offset="3.012137e-002" style="stop-color:#777777"/>
			<stop  offset="8.366583e-002" style="stop-color:#929292"/>
			<stop  offset="0.1422" style="stop-color:#A7A7A7"/>
			<stop  offset="0.2074" style="stop-color:#B6B6B6"/>
			<stop  offset="0.2846" style="stop-color:#BEBEBE"/>
			<stop  offset="0.4045" style="stop-color:#C1C1C1"/>
			<stop  offset="0.4962" style="stop-color:#BCBCBC"/>
			<stop  offset="0.6057" style="stop-color:#ADADAD"/>
			<stop  offset="0.7245" style="stop-color:#959595"/>
			<stop  offset="0.8497" style="stop-color:#747474"/>
			<stop  offset="0.9789" style="stop-color:#494949"/>
			<stop  offset="1" style="stop-color:#414141"/>
		</linearGradient>
		<path style="&st7;" d="M23.1,41.9v0.9c0,0.9,0.8,1.7,1.7,1.7s1.7-0.8,1.7-1.7v-0.9h-3.4z"/>
		<radialGradient id="aigrd2" cx="17.8335" cy="11.4873" r="22.7093" fx="17.8335" fy="11.4873" gradientUnits="userSpaceOnUse">
			<stop  offset="0" style="stop-color:#FFFFFF"/>
			<stop  offset="1" style="stop-color:#C2B9DA"/>
		</radialGradient>
		<path style="&st4;" d="M24,3.6c-8.2,0-14.9,6.7-14.9,14.9c0,8.2,6.7,14.9,14.9,14.9c8.2,0,14.9-6.7,14.9-14.9c0-8.2-6.7-14.9-14.9-14.9z"/>
		<linearGradient id="aigrd3" gradientUnits="userSpaceOnUse" x1="18.9951" y1="40.4961" x2="30.1699" y2="40.4961">
			<stop  offset="5.618000e-003" style="stop-color:#C7C7C7"/>
			<stop  offset="2.916075e-002" style="stop-color:#D0D0D0"/>
			<stop  offset="9.728914e-002" style="stop-color:#E5E5E5"/>
			<stop  offset="0.1736" style="stop-color:#F4F4F4"/>
			<stop  offset="0.2641" style="stop-color:#FCFCFC"/>
			<stop  offset="0.4045" style="stop-color:#FFFFFF"/>
			<stop  offset="0.4996" style="stop-color:#FAFAFA"/>
			<stop  offset="0.6134" style="stop-color:#EBEBEB"/>
			<stop  offset="0.7366" style="stop-color:#D3D3D3"/>
			<stop  offset="0.8666" style="stop-color:#B2B2B2"/>
			<stop  offset="1" style="stop-color:#878787"/>
		</linearGradient>
		<path style="&st19;" d="M28.3,38.4l-7.8,0.9c-0.9,0.1-1.6,0.9-1.5,1.8c0.1,0.9,0.9,1.6,1.8,1.5l7.8-0.9c0.9-0.1,1.6-0.9,1.5-1.8c-0.1-0.9-0.9-1.6-1.8-1.5z"/>
		<linearGradient id="aigrd4" gradientUnits="userSpaceOnUse" x1="14.0552" y1="38.2676" x2="32.5805" y2="36.4343">
			<stop  offset="5.618000e-003" style="stop-color:#C7C7C7"/>
			<stop  offset="0.4045" style="stop-color:#FFFFFF"/>
			<stop  offset="1" style="stop-color:#878787"/>
		</linearGradient>
		<path style="&st15;" d="M28.3,35.1L20.5,36c-0.9,0.1-1.6,0.9-1.5,1.8c0.1,0.9,0.9,1.6,1.8,1.5l7.8-0.9c0.9-0.1,1.6-0.9,1.5-1.8c-0.1-0.9-0.9-1.6-1.8-1.5z"/>
		<linearGradient id="aigrd5" gradientUnits="userSpaceOnUse" x1="18.9951" y1="33.9561" x2="30.1699" y2="33.9561">
			<stop  offset="5.618000e-003" style="stop-color:#C7C7C7"/>
			<stop  offset="2.916075e-002" style="stop-color:#D0D0D0"/>
			<stop  offset="9.728914e-002" style="stop-color:#E5E5E5"/>
			<stop  offset="0.1736" style="stop-color:#F4F4F4"/>
			<stop  offset="0.2641" style="stop-color:#FCFCFC"/>
			<stop  offset="0.4045" style="stop-color:#FFFFFF"/>
			<stop  offset="0.4996" style="stop-color:#FAFAFA"/>
			<stop  offset="0.6134" style="stop-color:#EBEBEB"/>
			<stop  offset="0.7366" style="stop-color:#D3D3D3"/>
			<stop  offset="0.8666" style="stop-color:#B2B2B2"/>
			<stop  offset="1" style="stop-color:#878787"/>
		</linearGradient>
		<path style="&st11;" d="M28.3,31.9l-7.8,0.9c-0.9,0.1-1.6,0.9-1.5,1.9c0.1,0.9,0.9,1.6,1.8,1.5l7.8-0.9c0.9-0.1,1.6-0.9,1.5-1.8c-0.1-0.9-0.9-1.6-1.8-1.5z"/>
		<path style="&st1;" d="M23.1,41.9v0.9c0,0.9,0.8,1.7,1.7,1.7s1.7-0.8,1.7-1.7v-0.9h-3.4z"/>
		<radialGradient id="aigrd7" cx="17.8335" cy="11.4873" r="22.7093" fx="17.8335" fy="11.4873" gradientUnits="userSpaceOnUse">
			<stop  offset="0" style="stop-color:#FFFFFF"/>
			<stop  offset="0.882" style="stop-color:#9891AB"/>
			<stop  offset="1" style="stop-color:#B7ADB9"/>
		</radialGradient>
		<path style="&st17;" d="M24,3.6c-8.2,0-14.9,6.7-14.9,14.9c0,8.2,6.7,14.9,14.9,14.9c8.2,0,14.9-6.7,14.9-14.9c0-8.2-6.7-14.9-14.9-14.9z"/>
		<linearGradient id="aigrd8" gradientUnits="userSpaceOnUse" x1="18.9951" y1="40.4961" x2="30.1699" y2="40.4961">
			<stop  offset="5.618000e-003" style="stop-color:#A3A349"/>
			<stop  offset="2.078677e-002" style="stop-color:#ACAC54"/>
			<stop  offset="6.600059e-002" style="stop-color:#C1C172"/>
			<stop  offset="0.1148" style="stop-color:#D4D68E"/>
			<stop  offset="0.1677" style="stop-color:#E2E4A6"/>
			<stop  offset="0.2265" style="stop-color:#EDF0B8"/>
			<stop  offset="0.2963" style="stop-color:#F3F6C3"/>
			<stop  offset="0.4045" style="stop-color:#F5F8C7"/>
			<stop  offset="0.5239" style="stop-color:#EEF0BE"/>
			<stop  offset="0.6666" style="stop-color:#DBDDA9"/>
			<stop  offset="0.8211" style="stop-color:#BEBD88"/>
			<stop  offset="0.9832" style="stop-color:#989564"/>
			<stop  offset="1" style="stop-color:#949160"/>
		</linearGradient>
		<path style="&st10;" d="M28.3,38.4l-7.8,0.9c-0.9,0.1-1.6,0.9-1.5,1.8c0.1,0.9,0.9,1.6,1.8,1.5l7.8-0.9c0.9-0.1,1.6-0.9,1.5-1.8c-0.1-0.9-0.9-1.6-1.8-1.5z"/>
		<linearGradient id="aigrd9" gradientUnits="userSpaceOnUse" x1="18.9951" y1="37.2266" x2="30.1699" y2="37.2266">
			<stop  offset="5.618000e-003" style="stop-color:#A3A349"/>
			<stop  offset="2.078677e-002" style="stop-color:#ACAC54"/>
			<stop  offset="6.600059e-002" style="stop-color:#C1C172"/>
			<stop  offset="0.1148" style="stop-color:#D4D68E"/>
			<stop  offset="0.1677" style="stop-color:#E2E4A6"/>
			<stop  offset="0.2265" style="stop-color:#EDF0B8"/>
			<stop  offset="0.2963" style="stop-color:#F3F6C3"/>
			<stop  offset="0.4045" style="stop-color:#F5F8C7"/>
			<stop  offset="0.5239" style="stop-color:#EEF0BE"/>
			<stop  offset="0.6666" style="stop-color:#DBDDA9"/>
			<stop  offset="0.8211" style="stop-color:#BEBD88"/>
			<stop  offset="0.9832" style="stop-color:#989564"/>
			<stop  offset="1" style="stop-color:#949160"/>
		</linearGradient>
		<path style="&st3;" d="M28.3,35.1L20.5,36c-0.9,0.1-1.6,0.9-1.5,1.8c0.1,0.9,0.9,1.6,1.8,1.5l7.8-0.9c0.9-0.1,1.6-0.9,1.5-1.8c-0.1-0.9-0.9-1.6-1.8-1.5z"/>
		<linearGradient id="aigrd10" gradientUnits="userSpaceOnUse" x1="18.9951" y1="33.9561" x2="30.1699" y2="33.9561">
			<stop  offset="5.618000e-003" style="stop-color:#A3A349"/>
			<stop  offset="2.078677e-002" style="stop-color:#ACAC54"/>
			<stop  offset="6.600059e-002" style="stop-color:#C1C172"/>
			<stop  offset="0.1148" style="stop-color:#D4D68E"/>
			<stop  offset="0.1677" style="stop-color:#E2E4A6"/>
			<stop  offset="0.2265" style="stop-color:#EDF0B8"/>
			<stop  offset="0.2963" style="stop-color:#F3F6C3"/>
			<stop  offset="0.4045" style="stop-color:#F5F8C7"/>
			<stop  offset="0.5239" style="stop-color:#EEF0BE"/>
			<stop  offset="0.6666" style="stop-color:#DBDDA9"/>
			<stop  offset="0.8211" style="stop-color:#BEBD88"/>
			<stop  offset="0.9832" style="stop-color:#989564"/>
			<stop  offset="1" style="stop-color:#949160"/>
		</linearGradient>
		<path style="&st9;" d="M28.3,31.9l-7.8,0.9c-0.9,0.1-1.6,0.9-1.5,1.9c0.1,0.9,0.9,1.6,1.8,1.5l7.8-0.9c0.9-0.1,1.6-0.9,1.5-1.8c-0.1-0.9-0.9-1.6-1.8-1.5z"/>
		<linearGradient id="aigrd11" gradientUnits="userSpaceOnUse" x1="18.0376" y1="22.9609" x2="22.7676" y2="22.9609">
			<stop  offset="0" style="stop-color:#FFFFFF"/>
			<stop  offset="1" style="stop-color:#F1F53D"/>
		</linearGradient>
		<path style="&st2;" d="M18.4,16.9c-0.3,0.1-0.5,0.4-0.4,0.7l3.7,11.1c0.1,0.3,0.4,0.5,0.7,0.4c0.3-0.1,0.5-0.4,0.4-0.7l-3.7-11.1c-0.1-0.3-0.4-0.5-0.7-0.4z"/>
		<path style="&st0;" d="M18.6,17.4c0,0,6.8,4,10.9,0"/>
		<path style="&st5;" d="M18.4,14.1c0,0-0.1,0-0.1,0l-0.1,0c0,0-0.1,0-0.1,0l-0.1,0l0,0l-0.1,0l-0.1,0l-0.2,0.1c0,0-0.1,0.1-0.1,0.1c0,0-0.1,0.1-0.1,0.1l0,0l-0.1,0l-0.3,0.2c0,0,0,0-0.1,0.1c0,0-0.2,0.1-0.2,0.1L16.4,15l-0.1,0.1c0,0,0,0-0.1,0.1
			c0,0-0.2,0.2-0.2,0.2s0,0-0.1,0.1c0,0-0.1,0.1-0.1,0.1l0,0l-0.1,0.1l-0.1,0.1l0,0.1L15.6,16l0,0l0,0.1l0,0.1l0.1-0.1l-0.1,0.4l0,0l0,0.1h0l0,0.1l0,0l0,0.2l0,0l0,0.1l0,0l0,0.2v0l0,0.1l0,0.2l0,0l0,0.1l0,0l0,0.1l0,0l0,0.1l0,0l0,0.1c0,0,0-0.1,0-0.1l0,0.1l0,0.1
			l0,0.1l0,0.1l3.7,11.1c0.6,1.7,2.4,2.7,4.1,2.1c0.8-0.3,1.5-0.9,1.9-1.6c0.2-0.5,0.4-1,0.4-1.5c0-0.3-0.1-0.7-0.2-1c0,0-0.9-2.7-1.7-5c3.2,0.3,6-0.6,8.1-2.7c0.6-0.6,1-1.4,1-2.3c0-0.9-0.3-1.7-1-2.3s-1.4-1-2.3-1c-0.9,0-1.7,0.3-2.3,1v0c-2.1,2.1-6.9-0.5-6.9-0.5
			l-1.6-0.9c0,0-0.2,0.3-0.3,0.5z M19.9,14.4l0,0c0,0,0,0,0,0c0,0,0,0,0,0z"/>
		<path style="&st18;" d="M29.8,17c-0.2-0.2-0.6-0.2-0.8,0c-3.7,3.7-10.1,0-10.2-0.1c0,0,0,0,0,0c0,0,0,0,0,0c0,0,0,0,0,0c0,0,0,0,0,0c0,0,0,0,0,0c0,0,0,0,0,0c0,0,0,0,0,0c0,0,0,0,0,0c0,0,0,0,0,0c0,0,0,0,0,0c0,0,0,0,0,0c0,0,0,0,0,0c0,0,0,0,0,0c0,0,0,0,0,0
			c0,0,0,0,0,0c0,0,0,0,0,0c0,0,0,0,0,0c0,0,0,0,0,0c0,0,0,0,0,0c0,0,0,0,0,0c0,0,0,0,0,0c0,0,0,0,0,0c0,0,0,0,0,0c0,0,0,0,0,0c0,0,0,0,0,0c0,0,0,0,0,0c0,0,0,0,0,0c0,0,0,0,0,0c0,0,0,0,0,0c0,0,0,0,0,0c0,0,0,0,0,0c0,0,0,0,0,0c0,0,0,0,0,0c0,0,0,0,0,0c0,0,0,0,0,0
			c0,0,0,0,0,0c0,0,0,0,0,0c0,0,0,0,0,0c0,0,0,0,0,0c0,0,0,0,0,0c0,0,0,0,0,0c0,0,0,0,0,0c0,0,0,0,0,0c0,0,0,0,0,0c0,0,0,0,0,0c0,0,0,0,0,0c0,0,0,0,0,0c0,0,0,0,0,0c0,0,0,0,0,0c0,0,0,0,0,0c0,0,0,0,0,0c0,0,0,0,0,0l3.7,11.1c0.1,0.3,0.4,0.5,0.7,0.4
			c0.3-0.1,0.5-0.4,0.4-0.7l-3.2-9.8c0.7,0.3,1.7,0.7,2.8,1c3.1,0.7,5.7,0.1,7.5-1.7c0.2-0.2,0.2-0.6,0-0.8z"/>
		<path style="&st13;" d="M28.7,38.5l-7.8,0.9c0,0,8.6-1,9.3-2.4c0,0-0.2,1.4-1.5,1.5z"/>
		<path style="&st12;" d="M20.5,39.2l7.8-0.9c0,0-8.6,1-9.3,2.4c0,0,0.2-1.4,1.5-1.5z"/>
		<path style="&st12;" d="M20.5,36l7.8-0.9c0,0-8.6,1-9.3,2.4c0,0,0.2-1.4,1.5-1.5z"/>
		<path style="&st12;" d="M20.5,32.7l7.8-0.9c0,0-8.6,1-9.3,2.4c0,0,0.2-1.4,1.5-1.5z"/>
		<path style="&st13;" d="M28.7,35.2L20.8,36c0,0,8.6-1,9.3-2.4c0,0-0.2,1.4-1.5,1.5z"/>
		<path style="&st13;" d="M28.7,41.7l-7.8,0.9c0,0,8.6-1,9.3-2.4c0,0-0.2,1.4-1.5,1.5z"/>
	</g>
	<g id="Layer_x0020_2" style="&st16;">
		<linearGradient id="aigrd12" gradientUnits="userSpaceOnUse" x1="-73.2363" y1="-37.9189" x2="-73.2363" y2="-1.6937" gradientTransform="matrix(0.843 -0.843 0.7071 0.7071 104.3129 -24.8984)">
			<stop  offset="0" style="stop-color:#FFFFFF"/>
			<stop  offset="1" style="stop-color:#FFFFFF"/>
		</linearGradient>
		<path style="&st6;" d="M28,7.9c3.3,3.3-11,17.7-14.3,14.3c-3.3-3.3-2.8-9.2,1.2-13.2c4-4,9.9-4.5,13.2-1.2z"/>
		<path style="&st14;" d="M48,48H0V0h48v48z"/>
	</g>
</svg>
