<?xml version="1.0" encoding="iso-8859-1"?>
<!-- Generator: Adobe Illustrator 9.0, SVG Export Plug-In  -->
<!DOCTYPE svg PUBLIC "-//W3C//DTD SVG 20000303 Stylable//EN"   "http://www.w3.org/TR/2000/03/WD-SVG-20000303/DTD/svg-20000303-stylable.dtd" [
	<!ENTITY st0 "fill-rule:evenodd;clip-rule:evenodd;stroke-width:0.7751;">
	<!ENTITY st1 "fill-rule:evenodd;clip-rule:evenodd;fill:url(#aigrd1);stroke:none;">
	<!ENTITY st2 "fill-rule:evenodd;clip-rule:evenodd;fill:url(#aigrd3);stroke:none;">
	<!ENTITY st3 "fill-rule:evenodd;clip-rule:evenodd;fill:url(#aigrd2);stroke:none;">
	<!ENTITY st4 "opacity:0.5;fill-rule:evenodd;clip-rule:evenodd;fill:url(#aigrd4);stroke:none;">
	<!ENTITY st5 "fill-rule:nonzero;clip-rule:nonzero;stroke:#000000;stroke-miterlimit:4;">
	<!ENTITY st6 "fill-rule:evenodd;clip-rule:evenodd;fill:none;stroke:none;">
	<!ENTITY st7 "opacity:0.5;fill-rule:evenodd;clip-rule:evenodd;fill:#FFFFFF;stroke:none;">
]>
<svg  width="24pt" height="24pt" viewBox="0 0 24 24" xml:space="preserve">
	<g id="Layer_x0020_2" style="&st5;">
		<g>
			<path style="&st0;" d="M15.2,5.1c-0.4,0-0.7,0.2-0.9,0.5c-0.8,0-2.8,0-2.8,0c-1.1,0-2.3,0.8-3.5,2.4c-0.6,0.8-1.1,1.6-1.4,2c-0.4,0-5.4,0-5.4,0v5.3c0,0,5,0,5.4,0c0.2,0.3,0.7,1,1.4,1.7c1.3,1.3,2.4,2,3.5,2c0,0,2,0,2.9,0c0.2,0.3,0.6,0.5,1,0.5h1.1
				c0.5,0,1.1-0.3,1.1-1.2c0,0,0-1.1,0-1.9c1.1,0,3.8,0,3.8,0c0.7,0,1.2-0.5,1.2-1.2v-0.6c0-0.7-0.5-1.2-1.2-1.2c0,0-2.8,0-3.8,0c0-0.8,0-1.9,0-2.7c1.1,0,3.8,0,3.8,0c0.7,0,1.2-0.5,1.2-1.2V8.9c0-0.7-0.5-1.2-1.2-1.2c0,0-2.8,0-3.8,0c0-0.7,0-1.5,0-1.5
				c0-0.6-0.5-1.1-1.1-1.1h-1.2z"/>
			<linearGradient id="aigrd1" gradientUnits="userSpaceOnUse" x1="18.0889" y1="14.4111" x2="18.0889" y2="15.6547">
				<stop  offset="0" style="stop-color:#E7E7E7"/>
				<stop  offset="0.2978" style="stop-color:#FFFFFF"/>
				<stop  offset="1" style="stop-color:#CFCFCF"/>
			</linearGradient>
			<path style="&st1;" d="M21.8,15.4c0,0.2-0.2,0.4-0.4,0.4h-6.6c-0.2,0-0.4-0.2-0.4-0.4v-0.6c0-0.2,0.2-0.4,0.4-0.4h6.6c0.2,0,0.4,0.2,0.4,0.4v0.6z"/>
			<linearGradient id="aigrd2" gradientUnits="userSpaceOnUse" x1="18.0889" y1="8.6021" x2="18.0889" y2="9.8452">
				<stop  offset="0" style="stop-color:#E7E7E7"/>
				<stop  offset="0.2978" style="stop-color:#FFFFFF"/>
				<stop  offset="1" style="stop-color:#CFCFCF"/>
			</linearGradient>
			<path style="&st3;" d="M21.8,9.6c0,0.2-0.2,0.4-0.4,0.4h-6.6c-0.2,0-0.4-0.2-0.4-0.4V8.9c0-0.2,0.2-0.4,0.4-0.4h6.6c0.2,0,0.4,0.2,0.4,0.4v0.6z"/>
			<radialGradient id="aigrd3" cx="9.6968" cy="7.9351" r="11.2688" fx="9.6968" fy="7.9351" gradientUnits="userSpaceOnUse">
				<stop  offset="0" style="stop-color:#ECECEC"/>
				<stop  offset="1" style="stop-color:#8B8B8B"/>
			</radialGradient>
			<path style="&st2;" d="M2,10.8h4.8c0.1,0,0.3,0,0.3-0.2c0,0,2.3-4.2,4.4-4.2h3.5V6.1c0-0.1,0.1-0.3,0.3-0.3h1.2c0.2,0,0.3,0.2,0.3,0.3v12.3c0,0.3-0.1,0.4-0.3,0.4h-1.1c-0.3,0-0.4-0.2-0.4-0.4v-0.2h-3.5c-2,0-4.4-3.5-4.4-3.5S7,14.5,6.8,14.5H2v-3.7z"/>
			<path style="&st7;" d="M2,10.8h4.9c0.2,0,0.2-0.2,0.2-0.2c0.2-0.4,2.5-4.2,4.3-4.2l3.5,0l-3.5,0.2c-2.4,0.4-3.3,5-4.7,5l-4.8,0v-0.8z"/>
			<linearGradient id="aigrd4" gradientUnits="userSpaceOnUse" x1="14.1074" y1="12.0601" x2="14.9229" y2="12.0601">
				<stop  offset="0" style="stop-color:#959595"/>
				<stop  offset="1" style="stop-color:#FFFFFF"/>
			</linearGradient>
			<path style="&st4;" d="M14.9,6.4l-0.8,11.3h0.8l0-11.3z"/>
		</g>
	</g>
	<g id="Layer_x0020_3" style="&st5;">
		<path style="&st6;" d="M24,24H0V0h24v24z"/>
	</g>
</svg>
