<?xml version="1.0" encoding="iso-8859-1"?>
<!-- Generator: Adobe Illustrator 9.0, SVG Export Plug-In  -->
<!DOCTYPE svg PUBLIC "-//W3C//DTD SVG 20000303 Stylable//EN"   "http://www.w3.org/TR/2000/03/WD-SVG-20000303/DTD/svg-20000303-stylable.dtd" [
	<!ENTITY st0 "fill:url(#aigrd1);stroke:none;">
	<!ENTITY st1 "opacity:0.23;stroke:none;">
	<!ENTITY st2 "fill:url(#aigrd3);stroke:none;">
	<!ENTITY st3 "opacity:0.32;fill:#FFFFFF;stroke:none;">
	<!ENTITY st4 "fill:url(#aigrd1);stroke-width:5.0583;">
	<!ENTITY st5 "fill:#FFFFFF;stroke:none;">
	<!ENTITY st6 "fill:none;stroke:none;">
	<!ENTITY st7 "fill-rule:nonzero;clip-rule:nonzero;stroke:#000000;stroke-miterlimit:4;">
	<!ENTITY st8 "opacity:0.68;stroke:none;">
	<!ENTITY st9 "fill:url(#aigrd4);stroke:none;">
]>
<svg  width="48pt" height="48pt" viewBox="0 0 48 48" xml:space="preserve">
	<g id="Layer_x0020_3" style="&st7;">
		<linearGradient id="aigrd1" gradientUnits="userSpaceOnUse" x1="15.9819" y1="11.6323" x2="32.382" y2="39.2639">
			<stop  offset="0" style="stop-color:#F55354"/>
			<stop  offset="1" style="stop-color:#8F1008"/>
		</linearGradient>
		<path style="&st4;" d="M43.2,24c0,11-8.9,19.8-19.8,19.8C12.4,43.9,3.5,35,3.5,24c0-11,8.9-19.8,19.8-19.8c11,0,19.8,8.9,19.8,19.8z"/>
		<path style="&st0;" d="M43.2,24c0,11-8.9,19.8-19.8,19.8C12.4,43.9,3.5,35,3.5,24c0-11,8.9-19.8,19.8-19.8c11,0,19.8,8.9,19.8,19.8z"/>
		<linearGradient id="aigrd3" gradientUnits="userSpaceOnUse" x1="34.8418" y1="28.9932" x2="13.8911" y2="19.9713">
			<stop  offset="0" style="stop-color:#E2E2E2"/>
			<stop  offset="1" style="stop-color:#FFFFFF"/>
		</linearGradient>
		<path style="&st2;" d="M36.6,27.7H10.1v-7.3h26.5v7.3z"/>
		<path style="&st3;" d="M4.4,24.9c0-11,8.9-19.8,19.8-19.8c5.2,0,10,2,13.6,5.4C34.2,6.5,29,4.1,23.3,4.1C12.3,4.1,3.4,13,3.4,24c0,5.7,2.4,10.9,6.3,14.5c-3.3-3.5-5.4-8.3-5.4-13.6z"/>
		<path style="&st8;" d="M36.9,9.5c3.3,3.5,5.4,8.3,5.4,13.6c0,11-8.9,19.8-19.8,19.8c-5.2,0-10-2-13.6-5.4c3.6,3.9,8.8,6.3,14.5,6.3c11,0,19.8-8.9,19.8-19.8c0-5.7-2.4-10.9-6.3-14.5z"/>
		<path style="&st5;" d="M36.6,20.4v7.3H10.1l25.5-0.9l1-6.4z"/>
		<path style="&st1;" d="M10.1,27.7v-7.3h26.5l-25.5,0.9l-1,6.4z"/>
		<linearGradient id="aigrd4" gradientUnits="userSpaceOnUse" x1="33.625" y1="32.1094" x2="14.8906" y2="24.0419">
			<stop  offset="0" style="stop-color:#E2E2E2"/>
			<stop  offset="1" style="stop-color:#FFFFFF"/>
		</linearGradient>
		<path style="&st9;" d="M36.6,27.7H10.1"/>
	</g>
	<g id="Layer_x0020_2" style="&st7;">
		<path style="&st6;" d="M48,48H0V0h48v48z"/>
	</g>
</svg>
