<?xml version="1.0" encoding="iso-8859-1"?>
<!-- Generator: Adobe Illustrator 9.0, SVG Export Plug-In  -->
<!DOCTYPE svg PUBLIC "-//W3C//DTD SVG 20000303 Stylable//EN"   "http://www.w3.org/TR/2000/03/WD-SVG-20000303/DTD/svg-20000303-stylable.dtd" [
	<!ENTITY st0 "fill:url(#aigrd1);stroke:none;">
	<!ENTITY st1 "fill:none;stroke-width:4;">
	<!ENTITY st2 "fill:#993300;stroke:none;">
	<!ENTITY st3 "fill:none;stroke:none;">
	<!ENTITY st4 "fill-rule:nonzero;clip-rule:nonzero;stroke:#000000;stroke-miterlimit:4;">
	<!ENTITY st5 "stroke:none;">
]>
<svg  width="48pt" height="48pt" viewBox="0 0 48 48" xml:space="preserve">
	<g id="Layer_x0020_2" style="&st4;">
		<path style="&st3;" d="M48,48H0V0h48v48z"/>
	</g>
	<g id="Layer_x0020_3" style="&st4;">
		<path style="&st1;" d="M43.8,38.5L26.4,6.1c-0.5-0.9-1.4-1.4-2.4-1.4c-1,0-1.9,0.6-2.4,1.5l-17,32.4c-0.4,0.8-0.4,1.9,0.1,2.7S6,42.5,7,42.5h34.4c1,0,1.9-0.5,2.3-1.3c0.5-0.8,0.5-1.8,0.1-2.7z"/>
		<path style="&st2;" d="M43.8,38.5L26.4,6.1c-0.5-0.9-1.4-1.4-2.4-1.4c-1,0-1.9,0.6-2.4,1.5l-17,32.4c-0.4,0.8-0.4,1.9,0.1,2.7S6,42.5,7,42.5h34.4c1,0,1.9-0.5,2.3-1.3c0.5-0.8,0.5-1.8,0.1-2.7z"/>
		<g>
			<linearGradient id="aigrd1" gradientUnits="userSpaceOnUse" x1="4.1914" y1="11.1133" x2="47.3197" y2="56.0523">
				<stop  offset="0" style="stop-color:#D4D4D4"/>
				<stop  offset="0.3982" style="stop-color:#E2E2E2"/>
				<stop  offset="1" style="stop-color:#FFFFFF"/>
			</linearGradient>
			<path style="&st0;" d="M9.5,37.6c-0.3,0.5,0,0.9,0.5,0.9h28.2c0.5,0,0.8-0.4,0.5-0.9L24.4,11c-0.3-0.5-0.7-0.5-0.9,0L9.5,37.6z"/>
		</g>
		<g>
			<path style="&st5;" d="M23.9,36.5c-1.3,0-2.3-1-2.3-2.3c0-1.4,0.9-2.3,2.3-2.3s2.2,0.9,2.3,2.3c0,1.3-0.9,2.3-2.3,2.3h0z M22.5,30.6l-0.6-11.5h4l-0.6,11.5h-2.9z"/>
		</g>
	</g>
</svg>
