<?xml version="1.0" encoding="UTF-8" standalone="no"?>
<!DOCTYPE svg PUBLIC "-//W3C//DTD SVG 20010904//EN"
"http://www.w3.org/TR/2001/REC-SVG-20010904/DTD/svg10.dtd">
<!-- Created with Sodipodi ("http://www.sodipodi.com/") -->
<svg
   width="48pt"
   height="48pt"
   viewBox="0 0 256 256"
   overflow="visible"
   enable-background="new 0 0 256 256"
   xml:space="preserve"
   id="svg153"
   sodipodi:version="0.32pre"
   sodipodi:docname="/home/cschalle/gnome-themes-extras/Nuvola/icons/scalable/stock/stop.svg"
   sodipodi:docbase="/home/cschalle/gnome-themes-extras/Nuvola/icons/scalable/stock/"
   xmlns="http://www.w3.org/2000/svg"
   xmlns:sodipodi="http://sodipodi.sourceforge.net/DTD/sodipodi-0.dtd"
   xmlns:xml="http://www.w3.org/XML/1998/namespace"
   xmlns:xlink="http://www.w3.org/1999/xlink">
  <defs
     id="defs204">
    <linearGradient
       id="XMLID_4_"
       gradientUnits="userSpaceOnUse"
       x1="126.6685"
       y1="12.998"
       x2="126.6684"
       y2="101.9984">
      <stop
         offset="0.0056"
         style="stop-color:#FFFFFF"
         id="stop196" />
      <stop
         offset="1"
         style="stop-color:#FF6666"
         id="stop197" />
    </linearGradient>
  </defs>
  <sodipodi:namedview
     id="base" />
  <g
     id="Layer_1"
     stroke="#000000">
    <path
       fill="none"
       stroke="none"
       d="M256,256H0V0h256V256z"
       id="path155" />
  </g>
  <g
     id="g157"
     style="font-size:12;stroke:#000000;">
    <path
       opacity="0.2"
       stroke="none"
       d="M8.285,130.645C8.285,198.111,63.174,253,130.643,253C198.11,253,253,198.111,253,130.645     C253,63.175,198.11,8.286,130.643,8.286C63.174,8.286,8.285,63.175,8.285,130.645z"
       id="path158" />
    <path
       fill="#660000"
       stroke="none"
       d="M5.603,125.798c0,67.467,54.889,122.356,122.357,122.356     c67.468,0,122.357-54.889,122.357-122.356c0-67.469-54.89-122.358-122.357-122.358C60.492,3.44,5.603,58.33,5.603,125.798z"
       id="path159" />
    <path
       fill="#660000"
       stroke="none"
       d="M127.96,5.44C61.595,5.44,7.603,59.433,7.603,125.798     c0,66.364,53.992,120.356,120.357,120.356s120.357-53.992,120.357-120.356C248.317,59.433,194.325,5.44,127.96,5.44z"
       id="path160" />
    <radialGradient
       id="XMLID_1_"
       cx="49.7393"
       cy="55.0098"
       r="259.5079"
       fx="49.7393"
       fy="55.0098"
       gradientUnits="userSpaceOnUse">
      <stop
         offset="0.0056"
         style="stop-color:#FF9999"
         id="stop162" />
      <stop
         offset="0.5843"
         style="stop-color:#FF0000"
         id="stop163" />
      <stop
         offset="1"
         style="stop-color:#990000"
         id="stop164" />
    </radialGradient>
    <path
       fill="url(#XMLID_1_)"
       stroke="none"
       d="M13.603,125.798c0,63.157,51.199,114.356,114.357,114.356     s114.357-51.199,114.357-114.356c0-63.158-51.199-114.358-114.357-114.358S13.603,62.64,13.603,125.798z"
       id="path170" />
    <path
       opacity="0.5"
       fill="#FFFFFF"
       stroke="none"
       d="M16.603,129.813c0-63.158,51.199-114.358,114.357-114.358     c36.628,0,69.23,17.222,90.16,44.007c-20.735-29.068-54.733-48.022-93.16-48.022c-63.158,0-114.357,51.2-114.357,114.358     c0,26.53,9.037,50.946,24.196,70.348C24.454,177.439,16.603,154.543,16.603,129.813z"
       id="path171" />
  </g>
  <path
     fill="#660000"
     stroke="none"
     d="M157.198,67.811C157.198,67.811,157.198,67.811,157.198,67.811    c0.001,0-24.052,24.051-29.698,29.698c-5.646-5.647-29.698-29.699-29.698-29.699c-3.898-3.898-10.243-3.898-14.142,0l-14.85,14.85    c-1.889,1.89-2.929,4.401-2.929,7.071s1.04,5.181,2.928,7.07c0,0,24.053,24.053,29.7,29.699    c-5.647,5.646-29.699,29.699-29.699,29.699c-1.888,1.887-2.929,4.398-2.929,7.07c0,2.672,1.041,5.184,2.93,7.071l14.848,14.849    c1.887,1.889,4.398,2.93,7.071,2.93c2.672,0,5.184-1.041,7.072-2.931c0,0,21.147-21.146,29.697-29.696    c5.646,5.646,29.699,29.697,29.699,29.697c1.888,1.889,4.398,2.93,7.07,2.93s5.183-1.041,7.071-2.931l14.849-14.849    c1.889-1.886,2.93-4.397,2.93-7.07s-1.041-5.185-2.931-7.072c0,0-24.05-24.051-29.696-29.697    c5.646-5.646,29.697-29.698,29.697-29.698c1.889-1.888,2.93-4.399,2.93-7.071s-1.041-5.184-2.931-7.072L171.34,67.81    c-1.888-1.889-4.399-2.929-7.07-2.929S159.087,65.921,157.198,67.811z"
     id="path194"
     style="font-size:12;fill:#660000;" />
  <path
     fill="url(#XMLID_4_)"
     stroke="none"
     d="M83.66,67.81c3.899-3.898,10.244-3.898,14.142,0c0,0,11.229,11.229,20.144,20.144    C119.295,87.974,120.64,88,122,88c5.232,0,10.384-0.15,15.44-0.432c8.851-8.85,19.759-19.758,19.759-19.758    c-0.001,0-0.001,0-0.001,0c1.889-1.889,4.4-2.929,7.071-2.929s5.183,1.04,7.07,2.929l12.696,12.696    c13.383-3.509,25.097-8.114,34.476-13.539c-18.02-31.361-51.86-52.527-90.552-52.527c-40.628,0-75.903,23.339-93.134,57.313    c9.753,4.438,21.26,8.127,34.024,10.867L83.66,67.81z"
     id="path201"
     style="font-size:12;fill:url(#XMLID_4_);" />
  <path
     fill="#FFFFFF"
     stroke="none"
     d="M149.421,126.5c5.776-5.776,33.233-33.234,33.233-33.234    c0.938-0.938,1.465-2.209,1.465-3.536s-0.526-2.598-1.465-3.536l-14.85-14.849c-1.952-1.953-5.118-1.953-7.07,0    c0,0-27.458,27.458-33.234,33.234c-5.776-5.776-33.234-33.234-33.234-33.234c-1.953-1.953-5.119-1.952-7.071,0L72.346,86.195    c-0.976,0.977-1.464,2.256-1.464,3.536s0.488,2.559,1.464,3.536c0,0,27.458,27.458,33.234,33.234    c-5.776,5.776-33.234,33.234-33.234,33.234c-0.976,0.976-1.464,2.256-1.464,3.535s0.488,2.56,1.464,3.535l14.849,14.85    c0.938,0.938,2.209,1.465,3.536,1.465s2.598-0.526,3.536-1.465c0,0,27.458-27.457,33.234-33.233    c5.776,5.776,33.234,33.233,33.234,33.233c1.952,1.953,5.118,1.953,7.07,0l14.85-14.85c0.977-0.976,1.465-2.256,1.465-3.535    s-0.488-2.56-1.465-3.535C182.654,159.734,155.197,132.276,149.421,126.5z"
     id="path202"
     style="font-size:12;fill:#ffffff;" />
</svg>
