<?xml version="1.0" encoding="UTF-8"?>
<!DOCTYPE svg PUBLIC "-//W3C//DTD SVG 1.1//EN" "http://www.w3.org/Graphics/SVG/1.1/DTD/svg11.dtd">
<!-- Creator: CorelDRAW -->
<svg xmlns="http://www.w3.org/2000/svg" xml:space="preserve" width="0.24in" height="0.24in" style="shape-rendering:geometricPrecision; text-rendering:geometricPrecision; image-rendering:optimizeQuality; fill-rule:evenodd; clip-rule:evenodd"
viewBox="0 0 0.24 0.24">
 <defs>
  <style type="text/css">
   <![CDATA[
    .str2 {stroke:#4D5356;stroke-width:0.003;stroke-linecap:round;stroke-linejoin:round}
    .str1 {stroke:#868B92;stroke-width:0.003;stroke-linecap:round;stroke-linejoin:round}
    .str3 {stroke:#8E939B;stroke-width:0.003;stroke-linecap:round;stroke-linejoin:round}
    .str7 {stroke:#979CA5;stroke-width:0.003;stroke-linecap:round;stroke-linejoin:round}
    .str0 {stroke:#9FA2A7;stroke-width:0.003;stroke-linecap:round;stroke-linejoin:round}
    .str4 {stroke:#A6ADB7;stroke-width:0.003;stroke-linecap:round;stroke-linejoin:round}
    .str5 {stroke:#B8C2CE;stroke-width:0.003;stroke-linecap:round;stroke-linejoin:round}
    .str6 {stroke:#CDD5DE;stroke-width:0.003;stroke-linecap:round;stroke-linejoin:round}
    .str8 {stroke:#D1D7E0;stroke-width:0.003;stroke-linecap:round;stroke-linejoin:round}
    .str9 {stroke:#4D5356;stroke-width:0.00666535;stroke-linecap:round;stroke-linejoin:round}
    .fil3 {fill:none}
    .fil4 {fill:#6D7175}
    .fil2 {fill:url(#id0)}
    .fil0 {fill:url(#id1)}
    .fil1 {fill:url(#id2)}
   ]]>
  </style>
  <linearGradient id="id0" gradientUnits="userSpaceOnUse" x1="0.240157" y1="0.156921" x2="0.158787" y2="0.190067">
   <stop offset="0" style="stop-color:#9A9FA7"/>
   <stop offset="1" style="stop-color:#7D8288"/>
  </linearGradient>
  <linearGradient id="id1" gradientUnits="userSpaceOnUse" x1="0.114898" y1="0.110543" x2="0.124709" y2="0.218469">
   <stop offset="0" style="stop-color:#B8C2CE"/>
   <stop offset="1" style="stop-color:#F7F8F9"/>
  </linearGradient>
  <linearGradient id="id2" gradientUnits="userSpaceOnUse" x1="0.00708661" y1="0.174626" x2="0.166929" y2="0.174626">
   <stop offset="0" style="stop-color:#B8C2CE"/>
   <stop offset="1" style="stop-color:#9A9FA7"/>
  </linearGradient>
 </defs>
 <g id="Layer_x0020_1">
  <metadata id="CorelCorpID_0Corel-Layer"/>
  <g id="_123841656">
   <path id="_125665144" class="fil0 str0" d="M0.0154331 0.180303l0.144531 0.0272677c0.0057874,0.00106693 0.0115787,0.000279528 0.017378,-0.00235827l0.0480039 -0.0264094c0.00358268,-0.0022874 0.00624409,-0.00573622 0.00687402,-0.0117362l0.000653543 -0.0231102c-0.00179921,-0.00530315 -0.00433465,-0.00838189 -0.0076063,-0.00924409l-0.127862 -0.0142323c-0.00657874,-0.000110236 -0.012878,0.000358268 -0.0189016,0.00138583l-0.0639409 0.0164567c-0.00620866,0.00168898 -0.00782677,0.00541339 -0.00736614,0.0100591l0.00114961 0.0228543c-0.00023622,0.00338976 0.00212598,0.00641732 0.00708661,0.00906693z"/>
   <path id="_124488216" class="fil1 str1" d="M0.166929 0.207957l-0.000854331 -0.032252c-0.000940945,-0.00547244 -0.00447638,-0.00909449 -0.010622,-0.0108622l-0.146339 -0.0235472c-0.00138976,0.00242126 -0.00202756,0.00478346 -0.00191732,0.00708661l0.00114961 0.0228543c0.000255906,0.00359843 0.00262598,0.00662205 0.00708661,0.00906693l0.144531 0.0272677 0.00696457 0.000385827z"/>
   <path id="_125697112" class="fil2 str2" d="M0.166929 0.207957l0.0104134 -0.00274409 0.0480039 -0.0264094c0.00462992,-0.00362992 0.00691732,-0.00754331 0.00687402,-0.0117362l0.000653543 -0.0231102 -0.00226772 -0.0049252 -0.0561575 0.0244134c-0.00502756,0.00148819 -0.00781102,0.0055748 -0.00837402,0.0122598l0.000854331 0.032252z"/>
   <path id="_124488416" class="fil3 str3" d="M0.230606 0.139031l-0.0561575 0.0244134c-0.00499213,0.00225197 -0.00777953,0.00633858 -0.00837402,0.0122598l0.000468504 0.0175591 0.000385827 0.0146929"/>
   <path id="_157836752" class="fil3 str4" d="M0.206551 0.149484l-0.0321024 0.0139606c-0.00499213,0.00225197 -0.00777953,0.00633858 -0.00837402,0.0122598l0.000523622 0.019752"/>
   <path id="_125701480" class="fil3 str5" d="M0.192559 0.155567l-0.0181102 0.00787795c-0.00499213,0.00225197 -0.00777953,0.00633858 -0.00837402,0.0122598l0.000259843 0.00987402"/>
   <path id="_157836680" class="fil3 str6" d="M0.180724 0.160717l-0.00627559 0.00272835c-0.00499213,0.00225197 -0.00777953,0.00633858 -0.00837402,0.0122598l0.000129921 0.00493701"/>
   <path id="_125052152" class="fil3 str7" d="M0.0413819 0.146484l0.114071 0.0183583c0.00617717,0.00273228 0.00971654,0.00635039 0.010622,0.0108622"/>
   <path id="_124469192" class="fil3 str4" d="M0.0770472 0.152224l0.0784055 0.0126181c0.00617717,0.00273228 0.00971654,0.00635039 0.010622,0.0108622"/>
   <path id="_157836800" class="fil3 str5" d="M0.103768 0.156528l0.051685 0.00831496c0.00617717,0.00273228 0.00971654,0.00635039 0.010622,0.0108622"/>
   <path id="_157836256" class="fil3 str8" d="M0.133335 0.161283l0.0221181 0.00355906c0.00617717,0.00273228 0.00971654,0.00635039 0.010622,0.0108622"/>
   <path id="_19841384" class="fil4 str2" d="M0.193772 0.131209l0.00152756 -0.093122c0.00343307,-0.0042126 0.00621654,-0.00255118 0.00890945,-5.90551e-005l0.0016811 0.0945276 -0.0121181 -0.00134646z"/>
   <path id="_157836728" class="fil4 str2" d="M0.110362 0.121925l0.00168504 -0.0872717c0.00343307,-0.0042126 0.00621654,-0.00254724 0.00890945,-5.51181e-005l0.00152362 0.0886732 -0.0121181 -0.00134646z"/>
   <path id="_123358872" class="fil3 str9" d="M0.0154331 0.180303l0.144531 0.0272677c0.0057874,0.00106693 0.0115787,0.000279528 0.017378,-0.00235827l0.0480039 -0.0264094c0.00358268,-0.0022874 0.00624409,-0.00573622 0.00687402,-0.0117362l0.000653543 -0.0231102c-0.00179921,-0.00530315 -0.00433465,-0.00838189 -0.0076063,-0.00924409l-0.019378 -0.00215748 -0.0016811 -0.0945276c-0.00296063,-0.00304331 -0.00593307,-0.00301969 -0.00890945,5.90551e-005l-0.00152756 0.093122 -0.0712913 -0.00793701 -0.00152362 -0.0886732c-0.0033189,-0.0035315 -0.00629134,-0.00350787 -0.00890945,5.51181e-005l-0.00168504 0.0872717 -0.0129567 -0.00144488c-0.00657874,-0.000110236 -0.012878,0.000358268 -0.0189016,0.00138583l-0.0639409 0.0164567c-0.00620866,0.00168898 -0.00782677,0.00541339 -0.00736614,0.0100591l0.00114961 0.0228543c-0.00023622,0.00338976 0.00212598,0.00641732 0.00708661,0.00906693z"/>
  </g>
 </g>
</svg>
