<?xml version="1.0" encoding="UTF-8"?>
<!DOCTYPE svg PUBLIC "-//W3C//DTD SVG 1.1//EN" "http://www.w3.org/Graphics/SVG/1.1/DTD/svg11.dtd">
<!-- Creator: CorelDRAW -->
<svg xmlns="http://www.w3.org/2000/svg" xml:space="preserve" width="0.24in" height="0.24in" style="shape-rendering:geometricPrecision; text-rendering:geometricPrecision; image-rendering:optimizeQuality; fill-rule:evenodd; clip-rule:evenodd"
viewBox="0 0 0.24 0.24">
 <defs>
  <style type="text/css">
   <![CDATA[
    .str0 {stroke:#1F1A17;stroke-width:0.003;stroke-linecap:round;stroke-linejoin:round}
    .str2 {stroke:#656B6F;stroke-width:0.003;stroke-linecap:round;stroke-linejoin:round}
    .str4 {stroke:#8E939B;stroke-width:0.003}
    .str1 {stroke:#9D9C37;stroke-width:0.003;stroke-linecap:round;stroke-linejoin:round}
    .str5 {stroke:#9EA5AE;stroke-width:0.003}
    .str6 {stroke:#B3BCC8;stroke-width:0.003}
    .str7 {stroke:#CDD4DE;stroke-width:0.003}
    .str3 {stroke:#CECD29;stroke-width:0.003;stroke-linecap:round;stroke-linejoin:round}
    .str8 {stroke:#BEC8D5;stroke-width:0.00666535;stroke-linecap:round;stroke-linejoin:round}
    .str9 {stroke:#4D5356;stroke-width:0.00666535;stroke-linecap:round;stroke-linejoin:round}
    .fil5 {fill:none}
    .fil1 {fill:#F0EB51}
    .fil4 {fill:#F8F5C1}
    .fil3 {fill:#B2B4B7;fill-rule:nonzero}
    .fil2 {fill:url(#id0)}
    .fil0 {fill:url(#id1)}
   ]]>
  </style>
  <linearGradient id="id0" gradientUnits="userSpaceOnUse" x1="0.104996" y1="0.0373465" x2="0.126484" y2="0.18774">
   <stop offset="0" style="stop-color:#1F1A17"/>
   <stop offset="1" style="stop-color:#B9C2CF"/>
  </linearGradient>
  <linearGradient id="id1" gradientUnits="userSpaceOnUse" x1="0.0265197" y1="0.177236" x2="0.206843" y2="0.0838031">
   <stop offset="0" style="stop-color:#1F1A17"/>
   <stop offset="0.54902" style="stop-color:#6C6E73"/>
   <stop offset="1" style="stop-color:#B9C2CF"/>
  </linearGradient>
 </defs>
 <g id="Layer_x0020_1">
  <metadata id="CorelCorpID_0Corel-Layer"/>
  <path class="fil0 str0" d="M0.0134449 0.143087l0.00381102 0.0113858c0.00110236,0.00367323 0.00185039,0.0059685 0.00579134,0.00792126l0.148343 0.0379094c0.0076811,0.000145669 0.0144724,-0.00148425 0.0190906,-0.00750787l0.0294409 -0.113441 -0.000389764 -0.0187677 -0.0295394 0.11302c-0.00316142,0.00758268 -0.00979921,0.0102913 -0.0204291,0.00898819l-0.149618 -0.034811c-0.0036811,-0.000964567 -0.00585039,-0.0025315 -0.0065,-0.00469685z"/>
  <path class="fil1 str1" d="M0.2185 0.0657362c0.00311417,0.000322835 0.00628346,0.000665354 0.0094685,0.000992126 -0.000732283,0.00298425 -0.0014685,0.00598425 -0.00221654,0.00901181 -0.00322047,-0.000370079 -0.00644488,-0.00073622 -0.00959843,-0.00109843 0.000783465,-0.00298819 0.0015748,-0.00596063 0.00234646,-0.00890551z"/>
  <path class="fil1 str1" d="M0.19902 0.139386c0.00350394,0.000633858 0.00704724,0.00127559 0.0106063,0.00193307 -0.000948819,0.0038622 -0.00191339,0.00777953 -0.00288583,0.0117441 -0.00362598,-0.000692913 -0.00723228,-0.00140551 -0.0107795,-0.00208661 0.00103543,-0.00391339 0.00206299,-0.00777953 0.00305906,-0.0115906z"/>
  <path class="fil1 str1" d="M0.203441 0.122673c0.00340157,0.000574803 0.00687795,0.00114173 0.0103504,0.00170866 -0.000901575,0.0036811 -0.00181102,0.00737795 -0.00273228,0.0111181 -0.00353937,-0.000614173 -0.00705906,-0.00123228 -0.0105236,-0.00185433 0.000984252,-0.00369291 0.00194094,-0.00733858 0.00290551,-0.0109724z"/>
  <path class="fil1 str1" d="M0.207433 0.107531c0.00334252,0.000492126 0.00673622,0.00100394 0.0101339,0.00150394 -0.000858268,0.00348819 -0.00172047,0.00699213 -0.00259055,0.0105236 -0.00345669,-0.000543307 -0.0068937,-0.00109055 -0.0102756,-0.00162992 0.000913386,-0.0035 0.00183465,-0.00695669 0.00273228,-0.0103976z"/>
  <path class="fil1 str1" d="M0.211469 0.092311c0.00325984,0.000425197 0.0065748,0.000870079 0.00988976,0.00130315 -0.000807087,0.00329528 -0.00162205,0.00660236 -0.00244882,0.00996063 -0.00337402,-0.000476378 -0.00672835,-0.000952756 -0.0100512,-0.00143701 0.000885827,-0.00331102 0.00175984,-0.0065748 0.00261024,-0.00982677z"/>
  <path class="fil1 str1" d="M0.215055 0.0787717c0.00318898,0.00038189 0.00642913,0.000767717 0.00967323,0.0011378 -0.000771654,0.00314961 -0.00154724,0.00629528 -0.00233465,0.00948819 -0.00329528,-0.000413386 -0.00659449,-0.00084252 -0.00982283,-0.00124803 0.00084252,-0.00316535 0.00165748,-0.00627165 0.00248425,-0.00937795z"/>
  <path class="fil1 str1" d="M0.194398 0.156965c0.00357087,0.000712598 0.00720079,0.00144882 0.0108465,0.00218504 -0.00100787,0.00408268 -0.0020315,0.00825197 -0.00306693,0.0124528 -0.00369685,-0.000791339 -0.00738976,-0.00157874 -0.0110276,-0.00234646 0.00108268,-0.00415748 0.00216929,-0.00825984 0.00324803,-0.0122913z"/>
  <path class="fil1 str1" d="M0.0566929 0.0488937c0.00217323,0.00023622 0.00436614,0.00046063 0.00659449,0.000688976 -0.00138583,0.00241339 -0.00279134,0.00482677 -0.00419291,0.00726772 -0.00225197,-0.000255906 -0.00447244,-0.000503937 -0.00665748,-0.000740157 0.00142913,-0.0024252 0.00284252,-0.00482677 0.00425591,-0.00721654z"/>
  <path class="fil1 str1" d="M0.0222283 0.107315c0.00232283,0.000417323 0.00466535,0.000850394 0.00704331,0.00127559 -0.00172835,0.00298031 -0.00346063,0.006 -0.00520472,0.00905512 -0.00240945,-0.000456693 -0.00478346,-0.00092126 -0.00711811,-0.00137008 0.00177559,-0.00301969 0.00353543,-0.00600787 0.00527953,-0.00896063z"/>
  <path class="fil1 str1" d="M0.0299094 0.0943031c0.00227953,0.000370079 0.00459843,0.000744094 0.00695276,0.00112205 -0.00166142,0.00285433 -0.00331496,0.00574409 -0.00500394,0.00866142 -0.0023622,-0.000409449 -0.00469291,-0.000826772 -0.007,-0.00122835 0.00170079,-0.00288189 0.00338189,-0.00573228 0.00505118,-0.00855512z"/>
  <path class="fil1 str1" d="M0.0369449 0.0823661c0.00225591,0.00034252 0.0045315,0.000673228 0.00684646,0.00100787 -0.0015748,0.00274016 -0.00315748,0.00550394 -0.00477165,0.00827953 -0.00232283,-0.000366142 -0.00462598,-0.000728346 -0.00691339,-0.00108661 0.00162598,-0.00275591 0.00323622,-0.00547638 0.00483858,-0.00820079z"/>
  <path class="fil1 str1" d="M0.0440827 0.0702717c0.00223622,0.000287402 0.00448819,0.000586614 0.00675591,0.000877953 -0.0015,0.00261417 -0.00300787,0.00524803 -0.00455118,0.00790551 -0.00229921,-0.000318898 -0.00457874,-0.000633858 -0.0068189,-0.00096063 0.00155512,-0.00262992 0.00309055,-0.00524016 0.00461417,-0.00782283z"/>
  <path class="fil1 str1" d="M0.0504764 0.0594291c0.00219685,0.000259843 0.0044252,0.000519685 0.00667323,0.000787402 -0.00144094,0.00250787 -0.00290945,0.00503543 -0.00437008,0.00759055 -0.00227559,-0.000291339 -0.00451575,-0.00057874 -0.00673622,-0.000854331 0.00148819,-0.00252756 0.00296457,-0.0050315 0.00443307,-0.00752362z"/>
  <path class="fil1 str1" d="M0.0142362 0.120866c0.00235039,0.000464567 0.00473622,0.000944882 0.00714567,0.00142913 -0.00181496,0.00312205 -0.00363386,0.00629134 -0.00547244,0.00949606 -0.00243701,-0.000519685 -0.00483465,-0.0010315 -0.00721654,-0.00153937 0.00186614,-0.00316142 0.00371654,-0.00629528 0.00554331,-0.00938583z"/>
  <path class="fil1 str1" d="M0.083252 0.0412165c0.000811024,-0.00149606 0.00162992,-0.00298031 0.00244882,-0.00448031 0.00352756,0.000307087 0.0070748,0.000614173 0.010689,0.000925197 -0.000791339,0.00151181 -0.00158268,0.00301969 -0.00238189,0.00454331 -0.00362598,-0.000322835 -0.00721654,-0.00065748 -0.0107559,-0.000988189z"/>
  <path class="fil1 str1" d="M0.16948 0.0491575c0.000629921,-0.0016811 0.00125197,-0.00333858 0.00185827,-0.00500787 0.00426772,0.000370079 0.00856693,0.000744094 0.0129173,0.00111811 -0.000590551,0.00168898 -0.00116535,0.00337795 -0.00176378,0.00507874 -0.00438189,-0.000393701 -0.0087126,-0.000799213 -0.0130118,-0.00118898z"/>
  <path class="fil1 str1" d="M0.150453 0.0473976c0.000677165,-0.0016378 0.00134646,-0.00325984 0.00201575,-0.00488189 0.00409843,0.000354331 0.00822835,0.000716535 0.0124134,0.00107874 -0.000637795,0.00165354 -0.00125984,0.00329134 -0.00190551,0.00495669 -0.00423228,-0.000377953 -0.0083937,-0.000771654 -0.0125236,-0.00115354z"/>
  <path class="fil1 str1" d="M0.132937 0.0457835c0.000724409,-0.00160236 0.00141732,-0.0031811 0.00212992,-0.00477559 0.00394882,0.00034252 0.00792913,0.000688976 0.0119646,0.00103937 -0.000685039,0.00161024 -0.00136614,0.00321654 -0.00205906,0.00485433 -0.00404331,-0.00038189 -0.00805512,-0.000744094 -0.0120354,-0.00111811z"/>
  <path class="fil1 str1" d="M0.115039 0.0441417c0.00076378,-0.00155906 0.00150394,-0.00311024 0.00225984,-0.00466929 0.00377953,0.000330709 0.00761417,0.00065748 0.0115118,0.000996063 -0.000728346,0.0015748 -0.00145669,0.00315354 -0.00219291,0.00474016 -0.00390945,-0.000362205 -0.00775197,-0.000708661 -0.0115787,-0.00106693z"/>
  <path class="fil1 str1" d="M0.0989606 0.0426693c0.000791339,-0.00153543 0.00157087,-0.00305906 0.00236614,-0.00458268 0.00364567,0.000318898 0.00734252,0.000637795 0.0110748,0.00096063 -0.000751969,0.00155118 -0.00151969,0.00308661 -0.00227953,0.00464961 -0.00375984,-0.000350394 -0.00748425,-0.00069685 -0.0111614,-0.00102756z"/>
  <path class="fil1 str1" d="M0.189169 0.0509685c0.000562992,-0.00171654 0.0011378,-0.00342126 0.00169291,-0.00512598 0.00445276,0.00038189 0.00893701,0.000771654 0.0134685,0.00116535 -0.000523622,0.00173622 -0.00104724,0.00346063 -0.00157874,0.00521654 -0.00456693,-0.000429134 -0.00910236,-0.000850394 -0.0135827,-0.00125591z"/>
  <path class="fil1 str1" d="M0.0208268 0.155535c0.00122441,-0.00222441 0.00245276,-0.0044685 0.00364567,-0.00668898 0.00403543,0.000929134 0.00809055,0.00187008 0.0122087,0.00283465 -0.0011811,0.00225984 -0.00237402,0.00455512 -0.00356299,0.00682677 -0.00414961,-0.00100394 -0.00824016,-0.00199213 -0.0122913,-0.00297244z"/>
  <path class="fil1 str1" d="M0.121295 0.179854c0.000964567,-0.0026063 0.00192913,-0.00523622 0.0028622,-0.00783071 0.00509843,0.0011811 0.0102402,0.00238583 0.015437,0.00359055 -0.000909449,0.00265748 -0.00181102,0.00533858 -0.00272835,0.00801181 -0.00524409,-0.00127165 -0.0104252,-0.00252756 -0.0155709,-0.00377165z"/>
  <path class="fil1 str1" d="M0.0987244 0.17439c0.00102362,-0.00251575 0.00203543,-0.00506299 0.00305118,-0.00756693 0.00484252,0.00111811 0.00974409,0.00226378 0.0147008,0.00341732 -0.000972441,0.00256693 -0.00193701,0.00516142 -0.00292126,0.00774016 -0.00502362,-0.0012126 -0.00994488,-0.00240945 -0.0148307,-0.00359055z"/>
  <path class="fil1 str1" d="M0.0781535 0.169409c0.00106299,-0.00243701 0.00214961,-0.00490551 0.00322047,-0.00734252 0.00462992,0.00108268 0.00929528,0.00216142 0.0140197,0.00327165 -0.0010315,0.00248425 -0.00207874,0.00499606 -0.00312205,0.00749213 -0.00474803,-0.00115354 -0.00945276,-0.00229134 -0.0141181,-0.00342126z"/>
  <path class="fil1 str1" d="M0.0573425 0.164374c0.00114173,-0.00235827 0.00226772,-0.00474409 0.00339764,-0.0071063 0.00438976,0.00102756 0.00884252,0.00205906 0.0133504,0.00310236 -0.00109449,0.00241339 -0.00220079,0.00484252 -0.00328346,0.00725984 -0.00454724,-0.00109843 -0.00903543,-0.00218504 -0.0134646,-0.00325591z"/>
  <path class="fil1 str1" d="M0.0387992 0.159886c0.00116929,-0.00229134 0.00235039,-0.0046063 0.00351181,-0.00689764 0.0042126,0.000976378 0.00846457,0.00197244 0.0127598,0.00296457 -0.00114567,0.00234252 -0.00229134,0.00470079 -0.00344488,0.00704331 -0.00431102,-0.00104724 -0.00859843,-0.00208268 -0.0128268,-0.00311024z"/>
  <path class="fil1 str1" d="M0.144886 0.185563c0.000874016,-0.00269685 0.00177559,-0.00542126 0.00264173,-0.00810236 0.00535827,0.00125591 0.0107913,0.00251575 0.0162835,0.00378346 -0.000818898,0.00275197 -0.00165354,0.0055315 -0.00248425,0.00829921 -0.00553937,-0.00134252 -0.0110197,-0.00266929 -0.0164409,-0.00398031z"/>
  <path class="fil2 str2" d="M0.0792402 0.0408543c0.0189961,0.00174409 0.0388661,0.00358268 0.0596654,0.00549213 0.0217717,0.00199606 0.0446142,0.00409843 0.0686339,0.00630709 0.00771654,0.000708661 0.0130827,0.00508268 0.0118386,0.0097874 -0.00416929,0.0157441 -0.00858661,0.0324803 -0.0132913,0.0502598 -0.00501575,0.0189528 -0.010378,0.0392126 -0.0160945,0.0609055 -0.0018622,0.00705906 -0.0111378,0.0111496 -0.0204291,0.00898819 -0.0287441,-0.00669291 -0.0557835,-0.0129843 -0.0812362,-0.0189016 -0.024063,-0.00559055 -0.0468268,-0.0108937 -0.0683819,-0.0159094 -0.00646063,-0.0015 -0.00908661,-0.00722047 -0.00597638,-0.012626 0.00965354,-0.0167835 0.0188071,-0.0326535 0.0274606,-0.0476732 0.00819685,-0.0142323 0.0159921,-0.027748 0.0234094,-0.0406063 0.00222835,-0.00386614 0.00866142,-0.00654724 0.0144016,-0.00602362z"/>
  <path class="fil3" d="M0.0960315 0.0867008c0.00253937,0.00100394 0.0051378,0.00204331 0.00774409,0.00306693 -0.00138976,0.00164567 -0.00299213,0.0029685 -0.00479921,0.00397244 -0.00179134,0.000992126 -0.0037874,0.00162992 -0.00590945,0.00194488 -0.00213386,0.000314961 -0.00462205,0.000248031 -0.00744094,-0.000185039 -0.00338583,-0.000523622 -0.00597638,-0.00130709 -0.00773622,-0.00235039 -0.00174803,-0.0010315 -0.00294094,-0.00254724 -0.00353937,-0.00455118 -0.000586614,-0.00195669 -0.000181102,-0.00429528 0.00121654,-0.00698425 0.00184252,-0.00353937 0.00454331,-0.00606299 0.00811417,-0.00758661 0.00357874,-0.00152362 0.00779528,-0.00198819 0.0126732,-0.00137402 0.00384252,0.000480315 0.00664173,0.00141339 0.00837795,0.00279134 0.00174409,0.00138976 0.00262205,0.00332677 0.00265748,0.00577165 -0.00308268,5.90551e-005 -0.00617323,0.000129921 -0.00923228,0.000185039 2.75591e-005,-0.000704724 -4.33071e-005,-0.00124409 -0.000224409,-0.00159449 -0.000291339,-0.000566929 -0.000751969,-0.00105906 -0.00138583,-0.00143701 -0.000645669,-0.00038189 -0.00144094,-0.000637795 -0.00237795,-0.000759843 -0.00214567,-0.000283465 -0.00408661,0.000122047 -0.00581102,0.00116535 -0.00130709,0.000791339 -0.00246457,0.00214961 -0.00344094,0.00409449 -0.00121654,0.0024252 -0.00154331,0.00418898 -0.00096063,0.00525591 0.00057874,0.00105906 0.00181102,0.00173228 0.00368898,0.00201181 0.00185827,0.000275591 0.0034252,0.000110236 0.00475591,-0.000503937 0.00131102,-0.000606299 0.00250787,-0.00158661 0.00362992,-0.00293307zm0.0171299 -0.0115433c0.00544488,0.000688976 0.0109803,0.0013937 0.0165669,0.00210236 0.0036811,0.000468504 0.00622835,0.00142913 0.00761417,0.00287008 0.00138583,0.00143701 0.00162598,0.00328346 0.000724409,0.00552362 -0.000940945,0.00234252 -0.00272047,0.00403937 -0.00533858,0.0050748 -0.00261811,0.00103543 -0.0060315,0.00124803 -0.0102008,0.000645669 -0.00190157,-0.000275591 -0.00375984,-0.000535433 -0.00562992,-0.00080315 -0.00124409,0.00287795 -0.00251575,0.00578346 -0.00380709,0.0087126 -0.00343701,-0.000535433 -0.00685827,-0.00104724 -0.0102402,-0.00157087 0.00352756,-0.00772441 0.00696063,-0.0152283 0.010311,-0.0225551zm0.00577559 0.0107795c0.000822835,0.000106299 0.00164961,0.000224409 0.00248425,0.000338583 0.00198425,0.000267717 0.00345276,0.000240157 0.00445276,-0.000122047 0.00100394,-0.000366142 0.00165748,-0.000925197 0.00196457,-0.00165748 0.000291339,-0.000700787 0.000216535,-0.00135827 -0.000259843,-0.00194488 -0.000468504,-0.000582677 -0.00168898,-0.00100394 -0.00357087,-0.00124803 -0.000952756,-0.000125984 -0.00193307,-0.000255906 -0.00288976,-0.000377953 -0.000716535,0.00165354 -0.00146063,0.00333071 -0.0021811,0.00501181zm0.0476732 -0.00399213c0.0036811,0.000480315 0.00738583,0.000948819 0.011122,0.00142126 -0.00156693,0.00474803 -0.00317717,0.00954724 -0.0047874,0.0144331 -0.000484252,0.00146457 -0.00129134,0.00281496 -0.00241732,0.00402756 -0.00112598,0.00121654 -0.00260236,0.0022126 -0.00442126,0.00299213 -0.00180315,0.000771654 -0.0035748,0.00124409 -0.00532677,0.00140551 -0.00240945,0.000220472 -0.00516142,9.05512e-005 -0.00825591,-0.000389764 -0.00174409,-0.000267717 -0.00366535,-0.000653543 -0.00566142,-0.00114173 -0.00201181,-0.000492126 -0.00361024,-0.0010748 -0.00479921,-0.00179528 -0.0011811,-0.000712598 -0.00215354,-0.00162205 -0.00293307,-0.00270866 -0.00076378,-0.00107087 -0.00116142,-0.00212992 -0.00119291,-0.0031378 -5.51181e-005,-0.00162205 0.000114173,-0.00301969 0.000574803,-0.00417717 0.00185827,-0.00466929 0.00368504,-0.00925984 0.00548031,-0.0137992 0.00350787,0.000444882 0.0070315,0.000889764 0.0105945,0.00133858 -0.00176772,0.00470472 -0.00357087,0.00948425 -0.00540157,0.0143346 -0.0005,0.00132283 -0.000326772,0.00245669 0.000468504,0.00334646 0.000799213,0.000901575 0.00216929,0.0015 0.00411811,0.00179134 0.00191732,0.000283465 0.00356299,0.000145669 0.00493701,-0.000440945 0.00135039,-0.00057874 0.00226772,-0.00156299 0.00275197,-0.00293307 0.00174016,-0.00493307 0.00346063,-0.00978346 0.00514961,-0.0145669z"/>
  <path class="fil3" d="M0.0437087 0.112142c0.0030315,-0.00170866 0.00608661,-0.00340945 0.00912598,-0.00511811 -0.000720472,-0.00215354 -0.00140945,-0.00429528 -0.00209055,-0.00640945 0.000775591,0.000133858 0.00155118,0.000259843 0.00232677,0.000393701 0.000362205,0.0011378 0.000751969,0.00227953 0.00112598,0.00342126 0.00023622,0.000720472 0.000374016,0.00126378 0.000444882,0.00162992 0.000551181,-0.000358268 0.00118504,-0.000732283 0.00189764,-0.00111417 0.00155906,-0.000838583 0.00312205,-0.00172047 0.00468898,-0.00257874 0.000720472,0.000114173 0.00144094,0.000240157 0.0021811,0.000358268 -0.00275591,0.00154331 -0.0055,0.0030748 -0.00824016,0.00460236 0.000795276,0.00242126 0.00162992,0.00487795 0.00248031,0.00733858 -0.000862205,-0.000149606 -0.00170866,-0.000299213 -0.00251575,-0.000452756 -0.000555118,-0.00165748 -0.00106693,-0.0033189 -0.00160236,-0.00494488 -9.05512e-005,-0.000283465 -0.000165354,-0.000582677 -0.000244094,-0.000901575 -0.00057874,0.000370079 -0.000972441,0.000614173 -0.00120866,0.000751969 -0.00199606,0.00115354 -0.004,0.00230315 -0.00600787,0.00344882 -0.000787402,-0.000141732 -0.0015748,-0.000291339 -0.0023622,-0.000425197zm0.0258268 0.00312205c-0.000255906,0.000476378 -0.000492126,0.000968504 -0.000724409,0.00143701 -0.00350787,-0.000637795 -0.00696063,-0.00125984 -0.010374,-0.00188583 0.000165354,-0.000366142 0.000429134,-0.000692913 0.000767717,-0.000996063 0.000535433,-0.000488189 0.00122441,-0.000944882 0.00206693,-0.00137008 0.000866142,-0.000437008 0.002,-0.000877953 0.00343307,-0.00137402 0.00223622,-0.000771654 0.0038189,-0.0014252 0.00472835,-0.00194882 0.000893701,-0.000519685 0.00150394,-0.00107087 0.00177559,-0.00161024 0.000291339,-0.000574803 0.00026378,-0.00109843 -7.87402e-005,-0.00160236 -0.000330709,-0.000480315 -0.000929134,-0.00080315 -0.00181102,-0.000948819 -0.000909449,-0.000153543 -0.00175984,-7.48031e-005 -0.00251969,0.000255906 -0.000744094,0.000322835 -0.00133465,0.000866142 -0.00170866,0.0016063 -0.000622047,-0.000165354 -0.00124803,-0.000330709 -0.00187008,-0.000480315 0.000708661,-0.00109449 0.00164173,-0.00185433 0.00281496,-0.0022874 0.00114173,-0.000425197 0.0024685,-0.000519685 0.00394488,-0.000271654 0.00147638,0.000248031 0.00251181,0.000744094 0.00306693,0.00151575 0.000562992,0.000787402 0.000606299,0.00165354 0.000145669,0.00258268 -0.000240157,0.000480315 -0.000610236,0.000929134 -0.00109449,0.00134646 -0.000484252,0.00042126 -0.00116929,0.00084252 -0.00202362,0.00125197 -0.000858268,0.000413386 -0.0022126,0.000940945 -0.00404331,0.00158661 -0.00153543,0.000543307 -0.0025315,0.000937008 -0.00298425,0.0011378 -0.000464567,0.000208661 -0.000885827,0.00042126 -0.00122835,0.000661417 0.00254724,0.000456693 0.00511024,0.000929134 0.00771654,0.0013937zm0.00514961 0.00250394c-2.3622e-005,-0.00324016 -5.51181e-005,-0.00643307 -5.90551e-005,-0.00959843 0.000665354,0.000110236 0.00135433,0.000232283 0.00203937,0.00034252 -3.54331e-005,0.00188189 -3.93701e-005,0.00379921 -7.08661e-005,0.00570079 -7.87402e-006,0.00061811 -5.51181e-005,0.00127559 -0.000145669,0.00193701 0.000413386,-0.000452756 0.000933071,-0.000972441 0.0015748,-0.00157874 0.00172835,-0.00163386 0.00345669,-0.00329528 0.00518898,-0.00493701 0.000685039,0.000110236 0.00135039,0.000232283 0.00205512,0.00034252 -0.00291339,0.00270866 -0.00582283,0.00540551 -0.00872441,0.00812992 -0.000637795,-0.000106299 -0.00125591,-0.000224409 -0.00185827,-0.000338583zm0.0104291 -0.00474409c0.000692913,-0.00146063 0.00143307,-0.00260236 0.00224016,-0.00340551 0.000818898,-0.000811024 0.00172441,-0.00138976 0.00274016,-0.00173228 0.000984252,-0.000334646 0.00209055,-0.000401575 0.00327165,-0.000204724 0.00088189,0.000145669 0.00160236,0.000413386 0.00213386,0.000775591 0.000547244,0.000374016 0.000925197,0.000850394 0.0011378,0.00142126 0.000212598,0.000574803 0.000271654,0.00124409 0.000192913,0.00201575 -7.87402e-005,0.000771654 -0.000393701,0.00175984 -0.000956693,0.00300787 -0.00065748,0.00144882 -0.00140945,0.00259449 -0.00223622,0.00345276 -0.000799213,0.000834646 -0.00174016,0.00144094 -0.00277165,0.00179134 -0.00101575,0.00034252 -0.00214961,0.000409449 -0.00337008,0.000185039 -0.00159055,-0.000295276 -0.00264567,-0.000944882 -0.00314173,-0.00198031 -0.000590551,-0.00123228 -0.000334646,-0.00301575 0.000759843,-0.00532677zm0.00206693 0.000354331c-0.000952756,0.00202362 -0.00127559,0.00344488 -0.000956693,0.00424409 0.000314961,0.000783465 0.000929134,0.0012874 0.0018622,0.00144488 0.000937008,0.000161417 0.00188189,-3.93701e-005 0.00284252,-0.000614173 0.00096063,-0.000574803 0.00190945,-0.00188976 0.00284252,-0.00392126 0.000944882,-0.00205512 0.00123622,-0.00345669 0.000909449,-0.00423622 -0.000318898,-0.000759843 -0.000964567,-0.00123228 -0.00190157,-0.00138976 -0.000925197,-0.00015748 -0.0017874,2.3622e-005 -0.00262205,0.000515748 -0.00103543,0.000606299 -0.00202756,0.00193307 -0.00297638,0.00395669zm0.0107598 0.00187795c0.000677165,-0.00149606 0.00142913,-0.00262598 0.00223228,-0.00345276 0.000795276,-0.000814961 0.00172047,-0.00141339 0.00274409,-0.00176378 0.00101181,-0.000350394 0.0021378,-0.000413386 0.00335039,-0.000208661 0.000925197,0.000153543 0.00166929,0.000409449 0.00223622,0.000795276 0.000555118,0.000377953 0.000944882,0.000866142 0.00117323,0.00146063 0.000228346,0.000586614 0.000326772,0.00125984 0.00026378,0.00203937 -6.29921e-005,0.000787402 -0.000370079,0.00179528 -0.000909449,0.00306693 -0.000633858,0.00148819 -0.00135433,0.00266142 -0.00217323,0.00352756 -0.000811024,0.000854331 -0.00175591,0.00146063 -0.00281102,0.0018189 -0.00101181,0.000346457 -0.00219291,0.000417323 -0.00344882,0.000185039 -0.00164961,-0.00030315 -0.00274016,-0.000976378 -0.00327559,-0.0020315 -0.000641732,-0.00125984 -0.000444882,-0.00309055 0.00061811,-0.00543701zm0.0021378 0.000377953c-0.00092126,0.00206299 -0.00121654,0.00350787 -0.000866142,0.0043189 0.00034252,0.000795276 0.000976378,0.00131496 0.00195276,0.00148425 0.000988189,0.000169291 0.00194882,-4.72441e-005 0.00289764,-0.000625984 0.000964567,-0.000590551 0.00191339,-0.00191732 0.00281102,-0.00398819 0.000909449,-0.00209055 0.00115748,-0.00352362 0.00080315,-0.00431496 -0.000350394,-0.000779528 -0.00101181,-0.00127165 -0.00197638,-0.00143307 -0.000956693,-0.000161417 -0.00185039,1.9685e-005 -0.00267717,0.000519685 -0.00103937,0.000629921 -0.00201575,0.0019685 -0.00294488,0.00403937zm0.0111142 0.00194488c0.000653543,-0.00152362 0.00136614,-0.00270472 0.00216929,-0.0035315 0.00080315,-0.000826772 0.00170472,-0.00144488 0.00274409,-0.00179528 0.00103937,-0.000350394 0.00219291,-0.000397638 0.00344882,-0.000192913 0.000937008,0.000149606 0.00170472,0.000425197 0.00229528,0.000811024 0.000594488,0.000385827 0.00103937,0.000885827 0.0012874,0.00148425 0.000248031,0.000590551 0.000346457,0.00129528 0.000314961,0.00209449 -3.14961e-005,0.00080315 -0.000326772,0.00182283 -0.000854331,0.00311811 -0.00061811,0.00151575 -0.00129921,0.00272835 -0.00211417,0.00359843 -0.000818898,0.000877953 -0.00177953,0.00149213 -0.00284646,0.00185039 -0.00105906,0.000354331 -0.00224016,0.00042126 -0.00352756,0.000188976 -0.00170866,-0.000307087 -0.00287008,-0.00100787 -0.00342913,-0.00209055 -0.000669291,-0.0012874 -0.000507874,-0.00314961 0.000511811,-0.00553543zm0.00219685 0.000385827c-0.000877953,0.00209843 -0.00116535,0.00357874 -0.000799213,0.00439764 0.000370079,0.000826772 0.00107087,0.00134646 0.00206299,0.00151969 0.00100394,0.000177165 0.00198031,-3.54331e-005 0.00295276,-0.000629921 0.000976378,-0.000594488 0.00190945,-0.00197244 0.00277559,-0.0040748 0.000870079,-0.00211811 0.00110236,-0.00358661 0.000716535,-0.0043937 -0.00038189,-0.000795276 -0.00109449,-0.00129528 -0.00208661,-0.00145669 -0.000980315,-0.00015748 -0.00190157,1.5748e-005 -0.00274016,0.000523622 -0.00104331,0.000637795 -0.002,0.00200787 -0.00288189,0.00411417zm0.00801181 0.0083189c0.00222835,-0.00137402 0.00447244,-0.00274803 0.00672441,-0.00411417 -0.00088189,-0.00177953 -0.00175591,-0.00354331 -0.00258661,-0.0052874 0.000889764,0.000145669 0.00179921,0.000311024 0.00272441,0.00046063 0.000370079,0.000850394 0.00076378,0.00170079 0.0011378,0.00254331 0.000208661,0.000472441 0.000354331,0.000909449 0.000472441,0.00123228 0.000519685,-0.000334646 0.000988189,-0.000629921 0.00141732,-0.000885827 0.00101969,-0.000606299 0.00203937,-0.00122835 0.0030748,-0.00184646 0.000870079,0.00015748 0.00175984,0.00030315 0.00264961,0.000464567 -0.00208268,0.0012126 -0.0041811,0.00245276 -0.00626378,0.00367717 0.000956693,0.00198425 0.00195276,0.004 0.00295669,0.00600787 -0.000917323,-0.000165354 -0.00185827,-0.000338583 -0.00275984,-0.0005 -0.000547244,-0.0011811 -0.00105118,-0.00234252 -0.00155906,-0.0035 -0.000141732,-0.000326772 -0.00026378,-0.000637795 -0.000385827,-0.000944882 -0.00167323,0.00106299 -0.00331496,0.00212598 -0.00495669,0.00318504 -0.00088189,-0.000169291 -0.00176378,-0.000322835 -0.00264567,-0.000492126zm0.0160669 -0.00411811c0.000590551,-0.0015748 0.00126378,-0.00279528 0.00206693,-0.0036378 0.000818898,-0.000866142 0.00174803,-0.00150787 0.00282283,-0.00186614 0.00105906,-0.000354331 0.00228346,-0.000401575 0.00359055,-0.000188976 0.00101181,0.000165354 0.00182283,0.000444882 0.00247638,0.000854331 0.000641732,0.000401575 0.00112598,0.000925197 0.00142126,0.00154724 0.000291339,0.000610236 0.000452756,0.00134646 0.000452756,0.00217717 0,0.000830709 -0.00023622,0.00190157 -0.000712598,0.00324016 -0.000555118,0.0015748 -0.00122835,0.00280709 -0.00204331,0.00372441 -0.000795276,0.000893701 -0.00175984,0.00155512 -0.00286614,0.0019252 -0.00107874,0.000358268 -0.00232677,0.00042126 -0.0037126,0.000165354 -0.00179921,-0.000334646 -0.00302756,-0.00104724 -0.00370079,-0.00216929 -0.000807087,-0.00135433 -0.000728346,-0.00327559 0.000204724,-0.00577165zm0.00232677 0.000413386c-0.000814961,0.00217717 -0.00101181,0.00372441 -0.000562992,0.00458661 0.000444882,0.000854331 0.00120079,0.0013937 0.00223228,0.00157874 0.00106299,0.000192913 0.00208268,-1.9685e-005 0.00308661,-0.000637795 0.000988189,-0.000606299 0.00188976,-0.00203937 0.00266929,-0.00422047 0.000795276,-0.0022126 0.000964567,-0.00372835 0.000496063,-0.00457874 -0.000452756,-0.000814961 -0.00119685,-0.00134646 -0.00226772,-0.00151969 -0.0010315,-0.000169291 -0.00198819,7.87402e-006 -0.00283858,0.00053937 -0.00105906,0.00065748 -0.00199213,0.00206299 -0.00281496,0.00425197zm0.0159882 0.00208268c-0.000901575,-0.000425197 -0.00149213,-0.000909449 -0.00179528,-0.00145276 -0.000295276,-0.000531496 -0.000334646,-0.00114567 -0.000110236,-0.00179134 0.000334646,-0.00096063 0.00112598,-0.00170079 0.00233858,-0.00218504 0.00121654,-0.000484252 0.00264173,-0.000602362 0.00429921,-0.000326772 0.00164173,0.000275591 0.00288976,0.000830709 0.00367717,0.00169291 0.000783465,0.000858268 0.00102362,0.00179134 0.00069685,0.00277165 -0.000204724,0.000622047 -0.00061811,0.00114567 -0.00124803,0.00151969 -0.000629921,0.000370079 -0.00145276,0.000622047 -0.00250394,0.000708661 0.0011063,0.000484252 0.0018622,0.00107874 0.00227559,0.00180709 0.000417323,0.000728346 0.000503937,0.00150394 0.000216535,0.00237008 -0.000397638,0.00118504 -0.00132283,0.00209449 -0.00275591,0.00268504 -0.00146457,0.000606299 -0.0031378,0.000732283 -0.00504724,0.00038189 -0.00193307,-0.000350394 -0.00330709,-0.00105512 -0.00417323,-0.00205906 -0.000877953,-0.00101575 -0.00111024,-0.00211811 -0.000692913,-0.00333071 0.00030315,-0.000874016 0.000858268,-0.00157874 0.00170079,-0.00205512 0.000834646,-0.000472441 0.00188189,-0.000724409 0.00312205,-0.00073622zm0.000488189 -0.00288583c-0.000224409,0.000645669 -0.00011811,0.00121654 0.000314961,0.0017126 0.000448819,0.000515748 0.00113386,0.000846457 0.00206299,0.00100787 0.000909449,0.00015748 0.00173622,7.08661e-005 0.00244882,-0.000232283 0.000716535,-0.000307087 0.00118504,-0.000748031 0.00136614,-0.0013189 0.00019685,-0.000606299 8.26772e-005,-0.00116929 -0.000374016,-0.00168504 -0.000468504,-0.000527559 -0.00115354,-0.000850394 -0.00201575,-0.000996063 -0.000905512,-0.000149606 -0.00171654,-8.66142e-005 -0.00243701,0.000216535 -0.000728346,0.00030315 -0.00117717,0.000744094 -0.00136614,0.00129528zm-0.00290551 0.00612598c-0.000165354,0.000468504 -0.000169291,0.000988189 -1.5748e-005,0.00148425 0.00015748,0.000515748 0.000519685,0.000948819 0.00105512,0.00129921 0.000555118,0.000366142 0.00118504,0.000633858 0.00191732,0.00076378 0.0011378,0.000204724 0.00216535,9.44882e-005 0.00306299,-0.000291339 0.00092126,-0.000401575 0.00151969,-0.000992126 0.00179134,-0.00181102 0.000267717,-0.000807087 0.000114173,-0.0015315 -0.000472441,-0.00221654 -0.000574803,-0.000665354 -0.00144094,-0.00109055 -0.00257087,-0.0012874 -0.00111811,-0.00019685 -0.00210236,-9.44882e-005 -0.00301575,0.000299213 -0.000901575,0.000385827 -0.00148031,0.000980315 -0.00175197,0.00175984zm0.0272559 -0.00201575c-0.000826772,-9.05512e-005 -0.00165354,-0.000192913 -0.00248425,-0.000279528 -3.93701e-006,-0.000708661 -0.000169291,-0.00124016 -0.000476378,-0.00159843 -0.000507874,-0.000590551 -0.00122835,-0.000980315 -0.00218898,-0.00114173 -0.000755906,-0.000125984 -0.00148425,-9.44882e-005 -0.00216929,0.000106299 -0.000874016,0.000259843 -0.00164567,0.000720472 -0.00233465,0.00138583 -0.000669291,0.000649606 -0.00120079,0.00166929 -0.00166929,0.00305906 0.000748031,-0.000515748 0.00162205,-0.000870079 0.00256693,-0.00101969 0.000940945,-0.000145669 0.00188976,-0.000149606 0.00279528,0 0.00163386,0.000275591 0.00288189,0.000948819 0.00376378,0.00198819 0.000901575,0.00105512 0.00115354,0.00224409 0.000751969,0.00358661 -0.00026378,0.000877953 -0.000807087,0.00167323 -0.00157087,0.00233858 -0.000767717,0.000665354 -0.0017126,0.0011378 -0.00279134,0.00136614 -0.00107087,0.000228346 -0.00220866,0.000228346 -0.00340945,1.1811e-005 -0.00206299,-0.000374016 -0.00355512,-0.00120866 -0.00449606,-0.00251575 -0.00092126,-0.00127559 -0.000980315,-0.0031378 -0.000216535,-0.00551969 0.000850394,-0.00264961 0.00217717,-0.00444882 0.00395276,-0.00540945 0.00154331,-0.000834646 0.00334252,-0.00106693 0.00542913,-0.000720472 0.00152756,0.000255906 0.00270866,0.000759843 0.00351575,0.00153543 0.000822835,0.000783465 0.00116535,0.00170866 0.0010315,0.00282677zm-0.0118228 0.00424409c-0.000188976,0.000586614 -0.000161417,0.00120079 1.1811e-005,0.00180315 0.000177165,0.000610236 0.000555118,0.00112205 0.00109843,0.00152362 0.000547244,0.000401575 0.00119685,0.000681102 0.00188976,0.000807087 0.00102756,0.000185039 0.00201969,3.14961e-005 0.00292913,-0.000417323 0.000940945,-0.00046063 0.00158661,-0.00119291 0.00189764,-0.00221654 0.000295276,-0.000976378 0.00015748,-0.00180315 -0.000417323,-0.00249213 -0.000562992,-0.000669291 -0.00139764,-0.00110236 -0.00250787,-0.00129921 -0.00107874,-0.000188976 -0.00211811,-9.44882e-005 -0.00305906,0.000318898 -0.000937008,0.000409449 -0.00155906,0.00108268 -0.00184252,0.00197244z"/>
  <polygon class="fil4 str3" points="0.0208268,0.155535 0.0243307,0.167063 0.0357323,0.170118 0.0331181,0.158508 "/>
  <polygon class="fil4 str3" points="0.0387992,0.159886 0.051626,0.162996 0.0539291,0.17489 0.0411772,0.171209 "/>
  <polygon class="fil4 str3" points="0.0573425,0.164374 0.0708071,0.16763 0.0732559,0.179791 0.0598701,0.176307 "/>
  <polygon class="fil4 str3" points="0.0781535,0.169409 0.0922717,0.172831 0.0945197,0.185327 0.0806929,0.181724 "/>
  <polygon class="fil4 str3" points="0.0987244,0.17439 0.113555,0.17798 0.115673,0.190831 0.101626,0.187177 "/>
  <polygon class="fil4 str3" points="0.121295,0.179854 0.136866,0.183626 0.13913,0.196937 0.124067,0.193016 "/>
  <polygon class="fil4 str3" points="0.144886,0.185563 0.161327,0.189543 0.163453,0.203268 0.147535,0.199122 "/>
  <polygon class="fil4 str3" points="0.202177,0.171602 0.201839,0.183917 0.204504,0.173016 0.205244,0.15915 "/>
  <polygon class="fil4 str3" points="0.20674,0.153063 0.209626,0.141319 0.208327,0.157378 0.206709,0.164 "/>
  <polygon class="fil4 str3" points="0.211059,0.1355 0.213791,0.124382 0.212736,0.13935 0.210354,0.149091 "/>
  <polygon class="fil4 str3" points="0.214976,0.119559 0.217567,0.109035 0.216386,0.124429 0.214457,0.132311 "/>
  <polygon class="fil4 str3" points="0.221358,0.0936142 0.218685,0.115028 0.218909,0.103575 "/>
  <polygon class="fil4 str3" points="0.222394,0.0893976 0.224728,0.0799094 0.222075,0.101165 "/>
  <polyline class="fil5 str3" points="0.225752,0.0757402 0.227969,0.0667283 0.226378,0.0835709 "/>
  <path class="fil5 str4" d="M0.042311 0.152988l0.1215 0.0282559c0.0129134,0.00387402 0.0217126,0.00231102 0.0261811,-0.0076378l0.0188661 -0.0714685"/>
  <path class="fil5 str5" d="M0.0607402 0.157268l0.103071 0.0239764c0.0129134,0.00387402 0.0217126,0.00231102 0.0261811,-0.0076378l0.0147087 -0.0556772"/>
  <path class="fil5 str6" d="M0.0819488 0.162201l0.0818622 0.0190433c0.0129134,0.00387402 0.0217126,0.00231102 0.0261811,-0.0076378l0.0100984 -0.0386378"/>
  <path class="fil5 str7" d="M0.0980315 0.165949l0.0657795 0.0152953c0.00726378,0.00217717 0.0132244,0.00263386 0.0178465,0.000850394 0.00359449,-0.00138976 0.00638189,-0.0041378 0.00833465,-0.00848819l0.00699213 -0.0264803"/>
  <line class="fil5 str8" x1="0.182937" y1="0.194118" x2="0.181976" y2= "0.185138" />
  <path class="fil5 str9" d="M0.167287 0.199335l-0.00299213 0.00858268 -0.142705 -0.036622 -0.0164843 -0.0418898 0.0475787 -0.0809331 0.0106024 0.00111024c0.00309055,-0.00585827 0.00910236,-0.00973622 0.0199646,-0.00836614l0.00266142 -0.00680315 0.120102 0.00963386 -0.0021811 0.00826772c0.00925591,0.000413386 0.0155945,0.00294488 0.0155433,0.010126l0.0145472 0.00131102 -0.00395276 0.0179252 -0.024122 0.106992 -0.0133819 -0.00353937 -0.00198819 0.00766535c-0.00451969,0.00638583 -0.0112913,0.00802756 -0.0190906,0.00750787l-0.00410236 -0.000968504z"/>
 </g>
</svg>
