<?xml version="1.0" encoding="UTF-8"?>
<!DOCTYPE svg PUBLIC "-//W3C//DTD SVG 1.1//EN" "http://www.w3.org/Graphics/SVG/1.1/DTD/svg11.dtd">
<!-- Creator: CorelDRAW -->
<svg xmlns="http://www.w3.org/2000/svg" xml:space="preserve" width="0.24in" height="0.24in" style="shape-rendering:geometricPrecision; text-rendering:geometricPrecision; image-rendering:optimizeQuality; fill-rule:evenodd; clip-rule:evenodd"
viewBox="0 0 0.24 0.24">
 <defs>
  <style type="text/css">
   <![CDATA[
    .str10 {stroke:#333333;stroke-width:0.003;stroke-linecap:round;stroke-linejoin:round}
    .str2 {stroke:#4C4C4C;stroke-width:0.003;stroke-linecap:round;stroke-linejoin:round}
    .str1 {stroke:#87888C;stroke-width:0.003;stroke-linecap:round;stroke-linejoin:round}
    .str3 {stroke:#8F9196;stroke-width:0.003;stroke-linecap:round;stroke-linejoin:round}
    .str7 {stroke:#989AA0;stroke-width:0.003;stroke-linecap:round;stroke-linejoin:round}
    .str0 {stroke:#A0A0A1;stroke-width:0.003;stroke-linecap:round;stroke-linejoin:round}
    .str4 {stroke:#A9ADB5;stroke-width:0.003;stroke-linecap:round;stroke-linejoin:round}
    .str11 {stroke:#AFB0BF;stroke-width:0.003;stroke-linecap:round;stroke-linejoin:round}
    .str5 {stroke:#C2C8D4;stroke-width:0.003;stroke-linecap:round;stroke-linejoin:round}
    .str12 {stroke:#D2D3E2;stroke-width:0.003;stroke-linecap:round;stroke-linejoin:round}
    .str6 {stroke:#D9DFE7;stroke-width:0.003;stroke-linecap:round;stroke-linejoin:round}
    .str8 {stroke:#DCE0E7;stroke-width:0.003;stroke-linecap:round;stroke-linejoin:round}
    .str13 {stroke:#EEEFFE;stroke-width:0.003;stroke-linecap:round;stroke-linejoin:round}
    .str9 {stroke:#4C4C4C;stroke-width:0.00666535;stroke-linecap:round;stroke-linejoin:round}
    .fil3 {fill:none}
    .fil6 {fill:#00CCFF}
    .fil4 {fill:#74757F}
    .fil9 {fill:#CCCCFF}
    .fil1 {fill:url(#id0)}
    .fil5 {fill:url(#id1)}
    .fil10 {fill:url(#id2)}
    .fil7 {fill:url(#id3)}
    .fil11 {fill:url(#id4)}
    .fil2 {fill:url(#id5)}
    .fil0 {fill:url(#id6)}
    .fil8 {fill:url(#id7)}
    .fil12 {fill:url(#id8)}
   ]]>
  </style>
  <linearGradient id="id0" gradientUnits="userSpaceOnUse" x1="0.0110394" y1="0.145965" x2="0.0844331" y2="0.145965">
   <stop offset="0" style="stop-color:#C2C8D4"/>
   <stop offset="1" style="stop-color:#9B9DA2"/>
  </linearGradient>
  <linearGradient id="id1" gradientUnits="userSpaceOnUse" x1="0.0267402" y1="0.115476" x2="0.088252" y2="0.062752">
   <stop offset="0" style="stop-color:#74757F"/>
   <stop offset="1" style="stop-color:#BFC0D1"/>
  </linearGradient>
  <linearGradient id="id2" gradientUnits="userSpaceOnUse" xlink:href="#id1" x1="0.109122" y1="0.126528" x2="0.192894" y2="0.0547244">
  </linearGradient>
  <linearGradient id="id3" gradientUnits="userSpaceOnUse" x1="0.0996732" y1="0.11013" x2="0.0315945" y2="0.0647441">
   <stop offset="0" style="stop-color:#74757F"/>
   <stop offset="1" style="stop-color:#C8CADB"/>
  </linearGradient>
  <linearGradient id="id4" gradientUnits="userSpaceOnUse" xlink:href="#id3" x1="0.208453" y1="0.119248" x2="0.115736" y2="0.057437">
  </linearGradient>
  <linearGradient id="id5" gradientUnits="userSpaceOnUse" x1="0.115815" y1="0.138748" x2="0.0829331" y2="0.152142">
   <stop offset="0" style="stop-color:#9B9DA2"/>
   <stop offset="1" style="stop-color:#7E7F81"/>
  </linearGradient>
  <linearGradient id="id6" gradientUnits="userSpaceOnUse" x1="0.0608543" y1="0.120012" x2="0.0647323" y2="0.162626">
   <stop offset="0" style="stop-color:#C2C8D4"/>
   <stop offset="1" style="stop-color:#F9FAFB"/>
  </linearGradient>
  <linearGradient id="id7" gradientUnits="userSpaceOnUse" xlink:href="#id3" x1="0.0723228" y1="0.136039" x2="0.0475512" y2="0.119528">
  </linearGradient>
  <linearGradient id="id8" gradientUnits="userSpaceOnUse" xlink:href="#id3" x1="0.171209" y1="0.154539" x2="0.137469" y2="0.132043">
  </linearGradient>
 </defs>
 <g id="Layer_x0020_1">
  <metadata id="CorelCorpID_0Corel-Layer"/>
  <g id="_159844360">
   <g>
    <path id="_159201624" class="fil0 str0" d="M0.0148701 0.148571l0.0663622 0.0125197c0.00265748,0.000492126 0.0053189,0.000129921 0.00798031,-0.00108268l0.0220433 -0.012126c0.00164173,-0.00105118 0.0028622,-0.00263386 0.00315354,-0.00538976l0.000299213 -0.0106102c-0.000826772,-0.00243307 -0.00198819,-0.00384646 -0.00349213,-0.00424409l-0.0587087 -0.00653543c-0.00301969,-4.72441e-005 -0.00590945,0.000165354 -0.00867717,0.000637795l-0.0293583 0.00755512c-0.00285039,0.000775591 -0.00359449,0.00248819 -0.00338189,0.00462205l0.000527559 0.0104921c-0.000106299,0.00155512 0.000976378,0.00294488 0.00325197,0.00416142z"/>
    <path id="_159323160" class="fil1 str1" d="M0.0844331 0.161268l-0.000393701 -0.0148071c-0.000433071,-0.00251181 -0.00205512,-0.00417717 -0.00487795,-0.00498819l-0.067189 -0.010811c-0.000637795,0.00111024 -0.000933071,0.00219685 -0.00088189,0.00325591l0.000527559 0.0104921c0.00011811,0.00164961 0.00120472,0.00303937 0.00325197,0.00416142l0.0663622 0.0125197 0.00320079 0.000177165z"/>
    <path id="_159008392" class="fil2 str2" d="M0.0844331 0.161268l0.00477953 -0.00125984 0.0220433 -0.012126c0.00212205,-0.00166535 0.00317323,-0.00346457 0.00315354,-0.00538976l0.000299213 -0.0106102 -0.00103937 -0.00225984 -0.0257874 0.0112087c-0.00230709,0.000685039 -0.00358268,0.00255906 -0.00384252,0.00562992l0.000393701 0.0148071z"/>
    <path id="_159401488" class="fil3 str3" d="M0.113669 0.129622l-0.0257874 0.0112087c-0.00229134,0.00103543 -0.00357087,0.00290945 -0.00384252,0.00562992l0.000216535 0.00806299 0.000177165 0.00674409"/>
    <path id="_160683464" class="fil3 str4" d="M0.102622 0.134421l-0.0147402 0.00640945c-0.00229134,0.00103543 -0.00357087,0.00290945 -0.00384252,0.00562992l0.000240157 0.00906693"/>
    <path id="_160683384" class="fil3 str5" d="M0.0962008 0.137213l-0.0083189 0.00361811c-0.00229134,0.00103543 -0.00357087,0.00290945 -0.00384252,0.00562992l0.00011811 0.0045315"/>
    <path id="_160199136" class="fil3 str6" d="M0.0907638 0.139579l-0.00288189 0.00125197c-0.00229134,0.00103543 -0.00357087,0.00290945 -0.00384252,0.00562992l5.90551e-005 0.00226772"/>
    <path id="_160732176" class="fil3 str7" d="M0.0267874 0.133043l0.052374 0.00842913c0.00283858,0.00125591 0.00446063,0.00291732 0.00487795,0.00498819"/>
    <path id="_161135632" class="fil3 str4" d="M0.0431614 0.135677l0.036 0.00579528c0.00283858,0.00125591 0.00446063,0.00291732 0.00487795,0.00498819"/>
    <path id="_160835280" class="fil3 str5" d="M0.0554291 0.137654l0.0237323 0.0038189c0.00283858,0.00125591 0.00446063,0.00291732 0.00487795,0.00498819"/>
    <path id="_160182736" class="fil3 str8" d="M0.0690079 0.139839l0.0101535 0.00163386c0.00283858,0.00125591 0.00446063,0.00291732 0.00487795,0.00498819"/>
    <path id="_160888000" class="fil3 str9" d="M0.0148701 0.148571l0.0663622 0.0125197c0.00265748,0.000492126 0.0053189,0.000129921 0.00798031,-0.00108268l0.0220433 -0.012126c0.00164173,-0.00105118 0.0028622,-0.00263386 0.00315354,-0.00538976l0.000299213 -0.0106102c-0.000826772,-0.00243307 -0.00198819,-0.00384646 -0.00349213,-0.00424409 -0.0407087,-0.00453543 0.0205827,0.00229528 -0.0587087,-0.00653543 -0.00301969,-4.72441e-005 -0.00590945,0.000165354 -0.00867717,0.000637795l-0.0293583 0.00755512c-0.00285039,0.000775591 -0.00359449,0.00248819 -0.00338189,0.00462205l0.000527559 0.0104921c-0.000106299,0.00155512 0.000976378,0.00294488 0.00325197,0.00416142z"/>
   </g>
   <g>
    <path id="_160880664" class="fil4 str2" d="M0.0604016 0.136154c0.00395669,-0.00309055 0.00810236,-0.00559055 0.0125394,-0.00708268 0.00443701,-0.00148819 0.00916929,-0.00201969 0.0143071,-0.00120079 -0.00742913,-0.0032126 -0.0124724,-0.00721654 -0.0122008,-0.0129843 -0.00170079,0.000208661 -0.00340551,0.000417323 -0.0051063,0.000629921 -0.000874016,0.00438976 -0.00228346,0.0084685 -0.00395276,0.0119764 -0.00166929,0.0035 -0.00362992,0.00647638 -0.00558661,0.00866142z"/>
    <path id="_160881072" class="fil5 str2" d="M0.0778386 0.0654173c-0.0036378,-0.000122047 -0.00721654,-0.000248031 -0.0107047,-0.000358268 -0.0035,-0.000110236 -0.00693701,-0.000240157 -0.0103031,-0.000346457 -0.00322835,-0.000102362 -0.00640945,-0.000200787 -0.00952362,-0.00030315 -0.00311811,-0.000102362 -0.00617717,-0.000220472 -0.0091811,-0.000318898 -0.00241339,-7.87402e-005 -0.00447638,0.00231102 -0.00462205,0.00529528 -0.000283465,0.0056378 -0.000586614,0.0112913 -0.000870079,0.0169055 -0.000287402,0.00561811 -0.000586614,0.0112283 -0.000862205,0.0168071 -0.000145669,0.00294094 0.00163386,0.00567717 0.004,0.00608661 0.00295669,0.000515748 0.00598031,0.00104724 0.00903937,0.0015748 0.00305906,0.000523622 0.00620079,0.00106693 0.00938583,0.00161417 0.00330315,0.000570866 0.0066811,0.00116535 0.0101181,0.00175984 0.00342913,0.000590551 0.00694488,0.00119685 0.0105157,0.00181102 0.00302362,0.000519685 0.00572441,-0.00180315 0.0059252,-0.00519685 0.000188976,-0.00320472 0.000393701,-0.00643701 0.000586614,-0.00965748 0.000192913,-0.00322441 0.000401575,-0.0064685 0.000590551,-0.00970472 0.000192913,-0.00323228 0.000397638,-0.00648819 0.000590551,-0.00973622 0.000188976,-0.00324409 0.000397638,-0.00650787 0.000594488,-0.00976378 0.000204724,-0.00344488 -0.00220079,-0.0063622 -0.00527953,-0.0064685z"/>
    <path id="_160881864" class="fil6 str10" d="M0.0737953 0.0696142c-0.00296457,-0.000129921 -0.00588583,-0.000275591 -0.00875197,-0.000397638 -0.00287008,-0.000122047 -0.00570079,-0.00026378 -0.00847638,-0.000389764 -0.00268504,-0.00011811 -0.00533465,-0.000244094 -0.00794488,-0.000354331 -0.00261417,-0.000106299 -0.00518898,-0.000232283 -0.00770866,-0.000346457 -0.00203543,-9.05512e-005 -0.00379921,0.00188189 -0.0039252,0.00437795 -0.000240157,0.00473622 -0.000492126,0.00947244 -0.000732283,0.0141811 -0.00023622,0.00470079 -0.0005,0.00941339 -0.000740157,0.0141063 -0.000122047,0.00246457 0.00138583,0.00475197 0.00340551,0.00507874 0.00249606,0.000401575 0.00503543,0.000822835 0.0076063,0.00123228 0.00257087,0.000405512 0.00519685,0.000826772 0.00784646,0.00124409 0.00274016,0.000433071 0.00552756,0.000897638 0.00835433,0.00135039 0.00282677,0.000448819 0.00570866,0.000917323 0.00862598,0.00138189 0.00246457,0.000389764 0.00464567,-0.00154724 0.00480709,-0.00432677 0.000311024,-0.00526772 0.000633858,-0.0105669 0.000944882,-0.0158583 0.000311024,-0.00530315 0.000633858,-0.010626 0.000948819,-0.0159567 0.000169291,-0.00279921 -0.00175984,-0.00521654 -0.00425984,-0.00532283z"/>
    <path id="_160882296" class="fil7 str2" d="M0.0380276 0.0642087c0.00344882,-0.00105906 0.00688976,-0.00212205 0.0103307,-0.00317717 0.00228346,-0.00057874 0.00455118,-0.000897638 0.00683858,-0.000838583 0.00561417,0.000212598 0.0112244,0.000440945 0.0168189,0.000641732 0.00557874,0.000200787 0.0111693,0.000417323 0.0167362,0.000622047 0.00236614,0.00157087 0.00388189,0.00335039 0.0035,0.00555512 -0.00042126,0.00637402 -0.00084252,0.012748 -0.00125591,0.0191063 -0.000409449,0.00635433 -0.000830709,0.0127323 -0.00124016,0.0190827 -0.000523622,0.00268504 -0.00118504,0.00436614 -0.00322047,0.00561417 -0.00296457,0.00157874 -0.00593307,0.00314567 -0.00890551,0.00470866 0.00176378,-0.00137795 0.00272047,-0.00295276 0.00285039,-0.00470866 0.000385827,-0.00644488 0.000783465,-0.0129173 0.00117323,-0.0193858 0.000385827,-0.00647244 0.000783465,-0.012937 0.00117717,-0.0194213 3.54331e-005,-0.00333465 -0.00172441,-0.00548031 -0.00525591,-0.00646063 -0.00655906,-0.000216535 -0.0131378,-0.000452756 -0.0197244,-0.000665354 -0.00658661,-0.000212598 -0.0132008,-0.000440945 -0.0198228,-0.000673228z"/>
    <path id="_160883088" class="fil8 str2" d="M0.0627126 0.114256c-0.00171654,0.00867717 -0.00537795,0.0156378 -0.0125039,0.0195354 0.00340157,0.000795276 0.00679921,0.00157874 0.0101929,0.0023622 0.00259449,-0.002 0.00427953,-0.00475197 0.00566142,-0.00818898 0.00138583,-0.00344094 0.00247244,-0.00761024 0.00387795,-0.0124488 -0.00241732,-0.000417323 -0.0048189,-0.000838583 -0.00722835,-0.00125984z"/>
    <path id="_160883640" class="fil9 str2" d="M0.0502126 0.133795c0.00432677,-0.00404331 0.00746457,-0.00788583 0.00383071,-0.0105039 0.00417717,-0.00149606 0.00723228,-0.00430315 0.00866929,-0.00902756 -0.00073622,0.00776772 -0.00489764,0.0142835 -0.0125,0.0195315z"/>
    <path id="_160884168" class="fil3 str11" d="M0.0432126 0.0642677c0.00579134,0.000200787 0.0115748,0.000389764 0.0173465,0.00057874 0.00576378,0.000188976 0.0115197,0.000377953 0.0172559,0.000574803 0.00353937,0.000633858 0.00529921,0.0027874 0.00529134,0.0064685 -0.000401575,0.00648425 -0.000795276,0.0129685 -0.00118504,0.0194449 -0.000389764,0.00648031 -0.000787402,0.0129567 -0.0011811,0.0194134"/>
    <path id="_160884696" class="fil3 str12" d="M0.0517047 0.0645512c0.00435433,0.000145669 0.00872835,0.000299213 0.0130787,0.000440945 0.00434252,0.000133858 0.00869685,0.000283465 0.0130315,0.000429134 0.00353937,0.000633858 0.00529921,0.0027874 0.00529134,0.0064685 -0.00019685,0.00324016 -0.000401575,0.00649606 -0.000594488,0.00972441 -0.000192913,0.00323228 -0.000397638,0.00648031 -0.000582677,0.00971654"/>
    <path id="_160885728" class="fil3 str13" d="M0.0657992 0.0650236c0.00400787,0.000129921 0.00801575,0.000259843 0.0120157,0.000397638 0.00353937,0.000633858 0.00529921,0.0027874 0.00529134,0.0064685 -0.000259843,0.00416535 -0.000511811,0.00831102 -0.00076378,0.0124646"/>
    <path id="_160886256" class="fil3 str9" d="M0.055437 0.060063c0.00557874,0.000212598 0.0111614,0.000444882 0.0167205,0.000649606 0.00553937,0.000204724 0.0111063,0.000433071 0.0166378,0.000637795 0.00249213,0.00142126 0.00383858,0.00322441 0.00348031,0.00556693 -0.000425197,0.00638189 -0.000838583,0.0127559 -0.00125197,0.0191299 -0.000409449,0.00636614 -0.000822835,0.012748 -0.00122835,0.0191102 -0.00011811,0.00230709 -0.00119291,0.00417717 -0.00319685,0.00561417 -0.00294882,0.0015748 -0.00590551,0.00314567 -0.00885827,0.00470866 -0.00101181,0.00015748 -0.00201969,0.000314961 -0.0030315,0.000472441 0,0 0,0 0,0 -4.72441e-005,0.00405512 0.00454331,0.0080315 0.0123031,0.0119449 -0.00445276,-0.000744094 -0.00890157,-0.000417323 -0.0133189,0.000948819 -0.00442913,0.00137008 -0.00884252,0.00381102 -0.0132362,0.00729921 -0.00335433,-0.000787402 -0.00670866,-0.0015748 -0.0100748,-0.00237402 0.0052126,-0.00439764 0.00700394,-0.00801969 0.00379134,-0.0104961 0.00400787,-0.00190157 0.00738976,-0.00438976 0.0085748,-0.00902756 -0.00443307,-0.00084252 -0.00888583,-0.00168898 -0.0133346,-0.00253543 -0.00444882,-0.000846457 -0.00891339,-0.00170866 -0.0133819,-0.00255906 -0.00309055,-0.00160236 -0.00440945,-0.0036378 -0.00396457,-0.00609055 0.000283465,-0.00561024 0.00057874,-0.0112283 0.000858268,-0.0168465 0.000279528,-0.00561417 0.000574803,-0.0112323 0.000858268,-0.0168622 -0.000149606,-0.00287795 0.00138189,-0.00464173 0.00458268,-0.0052874 0.00342913,-0.00105906 0.00685039,-0.00212205 0.0102677,-0.00317717 0.00226772,-0.000271654 0.0045315,-0.000547244 0.00680315,-0.000826772z"/>
   </g>
   <g>
    <path id="_160750920" class="fil0 str0" d="M0.0929646 0.171602l0.090378 0.0170512c0.00361811,0.000665354 0.00724016,0.000173228 0.0108661,-0.00147638l0.0300197 -0.0165118c0.00224016,-0.00142913 0.00390157,-0.00358661 0.00429528,-0.00733858l0.000409449 -0.0144528c-0.00112598,-0.00331496 -0.00270866,-0.00524016 -0.00475591,-0.00577953l-0.0799528 -0.00889764c-0.00411417,-7.08661e-005 -0.00805512,0.000220472 -0.0118189,0.000866142l-0.0399843 0.0102913c-0.00388189,0.00105512 -0.0048937,0.00338189 -0.00460236,0.0062874l0.000716535 0.0142913c-0.000145669,0.00211811 0.00132677,0.00401181 0.00442913,0.00566929z"/>
    <path id="_160833240" class="fil1 str1" d="M0.187697 0.188894l-0.000535433 -0.0201654c-0.000586614,-0.00342126 -0.00279921,-0.00568898 -0.0066378,-0.00679134l-0.0915079 -0.0147244c-0.000870079,0.00151181 -0.00127165,0.00298819 -0.00119685,0.00442913l0.000716535 0.0142913c0.000161417,0.00224803 0.00164173,0.0041378 0.00442913,0.00566929l0.090378 0.0170512 0.00435433 0.000240157z"/>
    <path id="_160833072" class="fil2 str2" d="M0.187697 0.188894l0.00651181 -0.00171654 0.0300197 -0.0165118c0.0028937,-0.00227165 0.00432283,-0.00471654 0.00429528,-0.00733858l0.000409449 -0.0144528 -0.00142126 -0.00307874 -0.0351142 0.0152677c-0.00314173,0.000929134 -0.00488189,0.00348425 -0.00523622,0.00766535l0.000535433 0.0201654z"/>
    <path id="_160206632" class="fil3 str3" d="M0.227512 0.145795l-0.0351142 0.0152677c-0.00312205,0.00140551 -0.0048622,0.00396063 -0.00523622,0.00766535l0.000295276 0.0109803 0.000240157 0.00918504"/>
    <path id="_160793080" class="fil3 str4" d="M0.212472 0.152331l-0.0200748 0.00873228c-0.00312205,0.00140551 -0.0048622,0.00396063 -0.00523622,0.00766535l0.000326772 0.0123504"/>
    <path id="_161090584" class="fil3 str5" d="M0.203724 0.156134l-0.0113268 0.00492913c-0.00312205,0.00140551 -0.0048622,0.00396063 -0.00523622,0.00766535l0.000165354 0.00617323"/>
    <path id="_161090016" class="fil3 str6" d="M0.196323 0.159354l-0.0039252 0.00170866c-0.00312205,0.00140551 -0.0048622,0.00396063 -0.00523622,0.00766535l8.26772e-005 0.00308661"/>
    <path id="_161011112" class="fil3 str7" d="M0.109193 0.150457l0.0713307 0.0114803c0.0038622,0.00170472 0.0060748,0.0039685 0.0066378,0.00679134"/>
    <path id="_161189872" class="fil3 str4" d="M0.131492 0.154043l0.0490315 0.0078937c0.0038622,0.00170472 0.0060748,0.0039685 0.0066378,0.00679134"/>
    <path id="_161078192" class="fil3 str5" d="M0.148201 0.156736l0.0323228 0.00520079c0.0038622,0.00170472 0.0060748,0.0039685 0.0066378,0.00679134"/>
    <path id="_160735016" class="fil3 str8" d="M0.166693 0.159709l0.0138307 0.00222835c0.0038622,0.00170472 0.0060748,0.0039685 0.0066378,0.00679134"/>
    <path id="_161064736" class="fil3 str9" d="M0.0929646 0.171602l0.090378 0.0170512c0.00361811,0.000665354 0.00724016,0.000173228 0.0108661,-0.00147638l0.0300197 -0.0165118c0.00224016,-0.00142913 0.00390157,-0.00358661 0.00429528,-0.00733858l0.000409449 -0.0144528c-0.00112598,-0.00331496 -0.00270866,-0.00524016 -0.00475591,-0.00577953 -0.0554409,-0.00617717 0.0280276,0.00312598 -0.0799528,-0.00889764 -0.00411417,-7.08661e-005 -0.00805512,0.000220472 -0.0118189,0.000866142l-0.0399843 0.0102913c-0.00388189,0.00105512 -0.0048937,0.00338189 -0.00460236,0.0062874l0.000716535 0.0142913c-0.000145669,0.00211811 0.00132677,0.00401181 0.00442913,0.00566929z"/>
   </g>
   <g>
    <path id="_159007024" class="fil4 str2" d="M0.154972 0.154689c0.00538583,-0.00420866 0.0110354,-0.00761024 0.0170787,-0.00964173 0.00603937,-0.00202756 0.0124843,-0.00275197 0.0194803,-0.0016378 -0.0101142,-0.00437402 -0.0169843,-0.00982677 -0.0166142,-0.017685 -0.0023189,0.000287402 -0.0046378,0.000570866 -0.00695669,0.000858268 -0.00118898,0.00598031 -0.0031063,0.0115354 -0.00538189,0.016311 -0.00227165,0.00476772 -0.00494094,0.00882283 -0.0076063,0.0117953z"/>
    <path id="_161068352" class="fil10 str2" d="M0.178717 0.0583583c-0.00495276,-0.000165354 -0.00982677,-0.000338583 -0.0145787,-0.000488189 -0.00476378,-0.000149606 -0.00944488,-0.000326772 -0.0140276,-0.000472441 -0.00439764,-0.000141732 -0.00873228,-0.000275591 -0.0129724,-0.000413386 -0.00424409,-0.000141732 -0.00841339,-0.000299213 -0.0125039,-0.000433071 -0.0032874,-0.000106299 -0.00609449,0.00314567 -0.00629528,0.00720866 -0.00038189,0.0076811 -0.000795276,0.015378 -0.00118504,0.0230236 -0.000389764,0.00764961 -0.000799213,0.0152913 -0.00117323,0.0228898 -0.00019685,0.00400394 0.00222835,0.00773228 0.00544882,0.00829134 0.00402756,0.000700787 0.00814173,0.0014252 0.012311,0.00214173 0.00416535,0.000716535 0.00844488,0.00145276 0.0127795,0.00220079 0.0045,0.000775591 0.00909843,0.00158661 0.0137795,0.0023937 0.00467323,0.000807087 0.00946063,0.00162992 0.0143228,0.0024685 0.00411811,0.000708661 0.00779528,-0.00245669 0.00806693,-0.00707874 0.000259843,-0.00436614 0.00053937,-0.00876378 0.000799213,-0.0131535 0.00026378,-0.00438976 0.000547244,-0.00880709 0.000807087,-0.0132126 0.00026378,-0.00440551 0.00053937,-0.00883858 0.00080315,-0.0132598 0.000259843,-0.00442126 0.000543307,-0.00886614 0.000811024,-0.0132992 0.000279528,-0.00468898 -0.00299606,-0.00866535 -0.00719291,-0.00880709z"/>
    <path id="_159476160" class="fil6 str10" d="M0.173213 0.0640709c-0.00403543,-0.000177165 -0.00801575,-0.000374016 -0.0119213,-0.00053937 -0.00390551,-0.000169291 -0.00775984,-0.000362205 -0.0115433,-0.000531496 -0.00365748,-0.000161417 -0.00726378,-0.000334646 -0.0108189,-0.000480315 -0.00355906,-0.000145669 -0.00706693,-0.000318898 -0.0104961,-0.000472441 -0.00277559,-0.000125984 -0.00517717,0.00256299 -0.00535039,0.00596063 -0.000326772,0.00645276 -0.000669291,0.0128976 -0.000996063,0.019315 -0.000322835,0.00640157 -0.000681102,0.0128189 -0.00100394,0.0192087 -0.000169291,0.00335827 0.00188583,0.00647244 0.00463386,0.00691732 0.00340157,0.000547244 0.00685827,0.00112205 0.0103583,0.00167717 0.00350394,0.000555118 0.00707874,0.00112598 0.010689,0.00169685 0.00372835,0.000586614 0.00752756,0.00122047 0.011378,0.00183465 0.00385039,0.000614173 0.00777559,0.00125197 0.011748,0.00188583 0.00335433,0.000531496 0.00632677,-0.0021063 0.00654724,-0.0058937 0.00042126,-0.00717323 0.000862205,-0.0143898 0.00128346,-0.0215984 0.000425197,-0.00722047 0.000862205,-0.0144685 0.00129528,-0.0217283 0.000228346,-0.00381496 -0.00240157,-0.0071063 -0.00580315,-0.00725197z"/>
    <path id="_123236816" class="fil11 str2" d="M0.1245 0.0567126c0.00469685,-0.00144488 0.00938189,-0.0028937 0.0140709,-0.00433071 0.0031063,-0.000787402 0.00619685,-0.00122047 0.00931496,-0.0011378 0.00764567,0.000287402 0.0152835,0.000598425 0.0229016,0.000874016 0.00759843,0.000271654 0.0152126,0.000566929 0.0227953,0.00084252 0.00322047,0.00214173 0.00528346,0.00456299 0.00476378,0.00756693 -0.000574803,0.0086811 -0.00114567,0.0173622 -0.00170866,0.0260236 -0.000559055,0.00864961 -0.00112992,0.0173386 -0.00168898,0.0259843 -0.000712598,0.00365748 -0.00161417,0.00594882 -0.00438583,0.00764961 -0.00403543,0.00214567 -0.00808268,0.00427953 -0.012126,0.00640945 0.00239764,-0.00187402 0.00370079,-0.00401969 0.00387795,-0.00640945 0.000527559,-0.00877953 0.00107087,-0.0175945 0.00159843,-0.0264055 0.000527559,-0.00881496 0.00106693,-0.0176181 0.0016063,-0.0264449 4.72441e-005,-0.00454331 -0.00235039,-0.0074685 -0.00716142,-0.00879921 -0.00893307,-0.000299213 -0.0178937,-0.00061811 -0.0268622,-0.000905512 -0.0089685,-0.000291339 -0.0179764,-0.000602362 -0.0269961,-0.000917323z"/>
    <path id="_160319080" class="fil12 str2" d="M0.158118 0.124866c-0.00233858,0.0118189 -0.00732283,0.0212992 -0.0170276,0.0266063 0.00463386,0.00108661 0.00925984,0.00214961 0.0138819,0.00321654 0.0035315,-0.00272047 0.00582677,-0.0064685 0.00770866,-0.0111496 0.00188583,-0.00468898 0.00337008,-0.0103661 0.00527953,-0.0169567 -0.0032874,-0.000566929 -0.00656299,-0.00114173 -0.00984252,-0.00171654z"/>
    <path id="_160887976" class="fil9 str2" d="M0.141094 0.15148c0.0058937,-0.00550787 0.0101654,-0.0107402 0.00521654,-0.0143071 0.00568898,-0.00203937 0.00985039,-0.00585827 0.0118071,-0.0122953 -0.00100394,0.0105787 -0.00666929,0.0194528 -0.0170236,0.0266024z"/>
    <path id="_124726544" class="fil3 str11" d="M0.131563 0.0567913c0.00788583,0.000271654 0.0157638,0.000531496 0.023622,0.000787402 0.00785039,0.000255906 0.015689,0.000515748 0.0235039,0.000783465 0.0048189,0.000862205 0.00721654,0.00379528 0.00720472,0.00880709 -0.000547244,0.00883465 -0.00108268,0.0176654 -0.00161417,0.0264843 -0.000531496,0.00882677 -0.00107087,0.0176457 -0.00161024,0.026437"/>
    <path id="_160836624" class="fil3 str12" d="M0.143126 0.0571772c0.00593307,0.000200787 0.0118898,0.000409449 0.017811,0.000598425 0.00591732,0.000185039 0.0118465,0.000385827 0.017752,0.000586614 0.0048189,0.000862205 0.00721654,0.00379528 0.00720472,0.00880709 -0.000271654,0.00441339 -0.000547244,0.00884646 -0.000811024,0.013248 -0.00026378,0.00440157 -0.00053937,0.00882283 -0.000795276,0.0132283"/>
    <path id="_160464144" class="fil3 str13" d="M0.162323 0.0578189c0.00545669,0.000181102 0.0109173,0.000354331 0.0163661,0.000543307 0.0048189,0.000862205 0.00721654,0.00379528 0.00720472,0.00880709 -0.000354331,0.00567323 -0.000700787,0.0113228 -0.00104331,0.0169764"/>
    <path id="_158767064" class="fil3 str9" d="M0.148213 0.051063c0.00759449,0.000291339 0.0151969,0.000606299 0.0227677,0.000885827 0.00754724,0.000279528 0.015126,0.000590551 0.0226614,0.000870079 0.0033937,0.00193701 0.00522441,0.00438976 0.00473622,0.00757874 -0.000574803,0.00869291 -0.0011378,0.017374 -0.00170079,0.0260551 -0.000559055,0.00866929 -0.00112205,0.0173583 -0.00167717,0.0260236 -0.000161417,0.00314567 -0.00162205,0.00568898 -0.00435433,0.00764961 -0.00401181,0.00214173 -0.00803937,0.00428346 -0.0120591,0.00640945 -0.00137795,0.000216535 -0.00275197,0.000429134 -0.00412992,0.000645669 0,0 0,0 0,0 -6.69291e-005,0.00552362 0.00618504,0.010937 0.016752,0.0162677 -0.00605906,-0.00101575 -0.0121181,-0.000570866 -0.0181378,0.00129134 -0.00602756,0.00186614 -0.0120394,0.00518898 -0.0180236,0.00994094 -0.00456693,-0.0010748 -0.0091378,-0.00214567 -0.0137205,-0.00323622 0.00709843,-0.00598819 0.00953543,-0.0109213 0.00516142,-0.0142913 0.00546063,-0.00259055 0.010063,-0.00598031 0.0116811,-0.0122953 -0.00603937,-0.00114961 -0.0121024,-0.00229921 -0.0181614,-0.00345276 -0.00605906,-0.00115354 -0.0121378,-0.00232677 -0.0182244,-0.00348425 -0.0042126,-0.0021811 -0.00600394,-0.00495669 -0.00539764,-0.00829528 0.00038189,-0.00764173 0.000783465,-0.0152913 0.00116535,-0.0229409 0.00038189,-0.00764567 0.000783465,-0.0152992 0.00116929,-0.0229685 -0.000200787,-0.00391732 0.00188189,-0.0063189 0.00624409,-0.00720079 0.00466535,-0.00144094 0.00932677,-0.00288976 0.0139803,-0.00432283 0.00309055,-0.000374016 0.00617323,-0.000748031 0.00926772,-0.00112992z"/>
   </g>
  </g>
 </g>
</svg>
