<?xml version="1.0" encoding="UTF-8"?>
<!DOCTYPE svg PUBLIC "-//W3C//DTD SVG 1.1//EN" "http://www.w3.org/Graphics/SVG/1.1/DTD/svg11.dtd">
<!-- Creator: CorelDRAW -->
<svg xmlns="http://www.w3.org/2000/svg" xml:space="preserve" width="0.24in" height="0.24in" style="shape-rendering:geometricPrecision; text-rendering:geometricPrecision; image-rendering:optimizeQuality; fill-rule:evenodd; clip-rule:evenodd"
viewBox="0 0 0.24 0.24">
 <defs>
  <style type="text/css">
   <![CDATA[
    .str7 {stroke:black;stroke-width:0.003}
    .str3 {stroke:#333333;stroke-width:0.003}
    .str20 {stroke:#3D3D3D;stroke-width:0.003}
    .str28 {stroke:#4C4C4C;stroke-width:0.003}
    .str24 {stroke:#4C4C4C;stroke-width:0.003;stroke-linecap:round;stroke-linejoin:round}
    .str8 {stroke:#4C819D;stroke-width:0.003}
    .str14 {stroke:#515151;stroke-width:0.003}
    .str4 {stroke:#666666;stroke-width:0.003}
    .str10 {stroke:#6693AB;stroke-width:0.003}
    .str23 {stroke:#676767;stroke-width:0.003}
    .str22 {stroke:#686868;stroke-width:0.003}
    .str21 {stroke:dimgray;stroke-width:0.003}
    .str9 {stroke:#7FA4B9;stroke-width:0.003}
    .str19 {stroke:#878787;stroke-width:0.003}
    .str18 {stroke:#8A8A8A;stroke-width:0.003}
    .str17 {stroke:#8C8C8C;stroke-width:0.003}
    .str16 {stroke:#8E8E8E;stroke-width:0.003}
    .str15 {stroke:#909090;stroke-width:0.003}
    .str0 {stroke:#999999;stroke-width:0.003;stroke-linejoin:bevel}
    .str25 {stroke:#B2B2B2;stroke-width:0.003}
    .str12 {stroke:#B2B2B2;stroke-width:0.003;stroke-linecap:round}
    .str11 {stroke:#B2C8D5;stroke-width:0.003}
    .str26 {stroke:#CCCCCC;stroke-width:0.003}
    .str1 {stroke:#E0E0E0;stroke-width:0.003;stroke-linecap:round;stroke-linejoin:round}
    .str27 {stroke:#E5E5E5;stroke-width:0.003}
    .str2 {stroke:#F4F4F4;stroke-width:0.003;stroke-linecap:round;stroke-linejoin:round}
    .str29 {stroke:white;stroke-width:0.003}
    .str13 {stroke:white;stroke-width:0.003;stroke-linecap:round;stroke-linejoin:round}
    .str6 {stroke:#1F1A17;stroke-width:0.003}
    .str5 {stroke:#1F1A17;stroke-width:0.003}
    .str31 {stroke:#4C4C4C;stroke-width:0.00666535}
    .str30 {stroke:#4C4C4C;stroke-width:0.00666535;stroke-linecap:round;stroke-linejoin:round}
    .fil0 {fill:none}
    .fil4 {fill:#006699}
    .fil1 {fill:#333333}
    .fil48 {fill:#3D3D3D}
    .fil58 {fill:#4C4C4C}
    .fil42 {fill:#515151}
    .fil52 {fill:#666666}
    .fil5 {fill:#6693AB}
    .fil51 {fill:#676767}
    .fil50 {fill:#686868}
    .fil49 {fill:dimgray}
    .fil47 {fill:#878787}
    .fil46 {fill:#8A8A8A}
    .fil45 {fill:#8C8C8C}
    .fil44 {fill:#8E8E8E}
    .fil43 {fill:#909090}
    .fil70 {fill:#999999}
    .fil6 {fill:#A3C8DA}
    .fil2 {fill:#CC3300}
    .fil41 {fill:#CCCCCC}
    .fil3 {fill:#FF6600}
    .fil8 {fill:#005776}
    .fil9 {fill:#025A78}
    .fil10 {fill:#195D7B}
    .fil11 {fill:#25607D}
    .fil12 {fill:#2E637F}
    .fil13 {fill:#366683}
    .fil14 {fill:#3D6985}
    .fil15 {fill:#446D88}
    .fil16 {fill:#4A708B}
    .fil17 {fill:#4F738E}
    .fil18 {fill:#557691}
    .fil19 {fill:#5B7A95}
    .fil20 {fill:#607E97}
    .fil21 {fill:#66829B}
    .fil22 {fill:#6B859E}
    .fil23 {fill:#718AA1}
    .fil24 {fill:#768DA5}
    .fil25 {fill:#7B91A9}
    .fil26 {fill:#8196AC}
    .fil27 {fill:#869AB0}
    .fil28 {fill:#8D9FB5}
    .fil29 {fill:#94A4B8}
    .fil30 {fill:#9AA9BD}
    .fil31 {fill:#A1AFC2}
    .fil32 {fill:#A7B4C6}
    .fil33 {fill:#AFBACC}
    .fil34 {fill:#B8C2D1}
    .fil35 {fill:#C0C9D7}
    .fil36 {fill:#C9D1DE}
    .fil37 {fill:#D4D9E4}
    .fil38 {fill:#DEE3EB}
    .fil39 {fill:#EAEDF3}
    .fil40 {fill:#F5F7F9}
    .fil7 {fill:white}
    .fil64 {fill:url(#id0)}
    .fil53 {fill:url(#id1)}
    .fil54 {fill:url(#id2)}
    .fil55 {fill:url(#id3)}
    .fil56 {fill:url(#id4)}
    .fil57 {fill:url(#id5)}
    .fil63 {fill:url(#id6)}
    .fil61 {fill:url(#id7)}
    .fil62 {fill:url(#id8)}
    .fil65 {fill:url(#id9)}
    .fil69 {fill:url(#id10)}
    .fil68 {fill:url(#id11)}
    .fil67 {fill:url(#id12)}
    .fil59 {fill:url(#id13)}
    .fil60 {fill:url(#id14)}
    .fil66 {fill:url(#id15)}
   ]]>
  </style>
  <linearGradient id="id0" gradientUnits="userSpaceOnUse" x1="0.164669" y1="0.143409" x2="0.155614" y2="0.207654">
   <stop offset="0" style="stop-color:#999999"/>
   <stop offset="1" style="stop-color:#E5E5E5"/>
  </linearGradient>
  <linearGradient id="id1" gradientUnits="userSpaceOnUse" x1="-0.00522835" y1="0.0116535" x2="0.124366" y2="0.164803">
   <stop offset="0" style="stop-color:#CCCCCC"/>
   <stop offset="1" style="stop-color:#E5E5E5"/>
  </linearGradient>
  <linearGradient id="id2" gradientUnits="userSpaceOnUse" xlink:href="#id0" x1="0.0425315" y1="0.108677" x2="0.13924" y2="0.070689">
  </linearGradient>
  <linearGradient id="id3" gradientUnits="userSpaceOnUse" xlink:href="#id0" x1="-0.0141457" y1="0.155846" x2="0.0896181" y2="0.0420394">
  </linearGradient>
  <linearGradient id="id4" gradientUnits="userSpaceOnUse" xlink:href="#id0" x1="0.0218268" y1="0.068626" x2="0.0423858" y2="0.0292244">
  </linearGradient>
  <linearGradient id="id5" gradientUnits="userSpaceOnUse" xlink:href="#id0" x1="0.0225315" y1="0.087311" x2="0.0435079" y2="0.0471063">
  </linearGradient>
  <linearGradient id="id6" gradientUnits="userSpaceOnUse" x1="0.0842008" y1="0.230839" x2="0.0923346" y2="0.201571">
   <stop offset="0" style="stop-color:#999999"/>
   <stop offset="1" style="stop-color:#E5E5E5"/>
  </linearGradient>
  <linearGradient id="id7" gradientUnits="userSpaceOnUse" xlink:href="#id6" x1="0.0552283" y1="0.246902" x2="0.0775236" y2="0.166642">
  </linearGradient>
  <linearGradient id="id8" gradientUnits="userSpaceOnUse" xlink:href="#id6" x1="0.0490079" y1="0.22735" x2="0.0625984" y2="0.178413">
  </linearGradient>
  <linearGradient id="id9" gradientUnits="userSpaceOnUse" xlink:href="#id0" x1="0.180114" y1="0.0656929" x2="0.0653819" y2="0.180425">
  </linearGradient>
  <linearGradient id="id10" gradientUnits="userSpaceOnUse" xlink:href="#id0" x1="0.186197" y1="0.15452" x2="0.17437" y2="0.0480472">
  </linearGradient>
  <linearGradient id="id11" gradientUnits="userSpaceOnUse" xlink:href="#id0" x1="0.153783" y1="0.188933" x2="0.125823" y2="0.0491299">
  </linearGradient>
  <linearGradient id="id12" gradientUnits="userSpaceOnUse" xlink:href="#id0" x1="0.123122" y1="0.192378" x2="0.119461" y2="0.159394">
  </linearGradient>
  <radialGradient id="id13" gradientUnits="userSpaceOnUse" cx="0.0446339" cy="0.144291" r="0.00698031" fx="0.0446339" fy="0.144291">
   <stop offset="0" style="stop-color:#FFFF99"/>
   <stop offset="1" style="stop-color:lime"/>
  </radialGradient>
  <radialGradient id="id14" gradientUnits="userSpaceOnUse" cx="0.0317126" cy="0.131843" r="0.00698031" fx="0.0317126" fy="0.131843">
   <stop offset="0" style="stop-color:#FFFF99"/>
   <stop offset="1" style="stop-color:#FF6600"/>
  </radialGradient>
  <radialGradient id="id15" gradientUnits="userSpaceOnUse" cx="0.160043" cy="0.0890866" r="0.0502087" fx="0.160043" fy="0.0890866">
   <stop offset="0" style="stop-color:white"/>
   <stop offset="0.988235" style="stop-color:#7FE5FF"/>
   <stop offset="1" style="stop-color:#00CCFF"/>
  </radialGradient>
 </defs>
 <g id="Foreground" visibility="hidden">
  <metadata id="CorelCorpID_0Corel-Layer"/>
  <g id="_124818752">
   <path id="_124818808" class="fil0 str0" d="M0.0879843 0.0587087c-5.11811e-005,-0.00517717 0.00361811,-0.010189 0.00646457,-0.0119764 0.0131181,-0.00662598 0.0464331,-0.0229331 0.0464488,-0.0238228 0,0 -0.00239764,0.117083 -0.00266535,0.123051 -0.000625984,0.000708661 -0.023315,0.0214488 -0.0418661,0.0294646 -0.00174803,0.00109449 -0.00383071,-0.000228346 -0.00387402,-0.00459843"/>
   <line id="_124819312" class="fil0 str0" x1="0.0924921" y1="0.170827" x2="0.0879843" y2= "0.0587087" />
  </g>
  <g id="_124820840">
   <line id="_124821008" class="fil0 str1" x1="0.088689" y1="0.118331" x2="0.0876024" y2= "0.061248" />
   <path id="_124820864" class="fil0 str1" d="M0.0876024 0.061248c-0.000948819,-0.00509055 0.00120079,-0.0100945 0.00369685,-0.0123465 0.00538583,-0.0033937 0.016815,-0.00889764 0.0219252,-0.0116535"/>
  </g>
  <g id="_124824120">
   <line id="_124824312" class="fil0 str2" x1="0.0903504" y1="0.172531" x2="0.0873268" y2= "0.0606732" />
   <path id="_124824168" class="fil0 str2" d="M0.0873268 0.0606732c5.11811e-005,-0.00517717 -0.0046378,-0.0102362 -0.00748819,-0.0120236 -0.0104094,-0.00263386 -0.0207087,-0.0050315 -0.0207087,-0.0050315"/>
  </g>
  <line class="fil0 str3" x1="0.043752" y1="0.154181" x2="0.0361339" y2= "0.0494252" />
  <path class="fil0 str3" d="M0.0361339 0.0494252c0,0 -0.000586614,-0.00772047 0.00334646,-0.0129291 0.00356299,-0.00470866 0.0468268,-0.0207717 0.0468268,-0.0207717 0.00537402,-0.00238189 0.0110197,-0.000968504 0.0110197,-0.000968504"/>
  <line class="fil0 str3" x1="0.0973268" y1="0.0147559" x2="0.135941" y2= "0.0194449" />
  <path class="fil0 str3" d="M0.135941 0.0194449c0.00409055,0.000496063 0.00543307,0.00873622 0.00543307,0.00873622"/>
  <line class="fil0 str3" x1="0.141374" y1="0.0281811" x2="0.137996" y2= "0.138059" />
  <path class="fil0 str3" d="M0.137996 0.138059c0,0 0.00042126,0.00862205 -0.00494882,0.0123858 -0.00122835,0.00308661 -0.0326693,0.0229016 -0.0326693,0.0229016 0,0 -0.00479134,0.00412205 -0.0132953,0.00235827 -0.0085,-0.00175984 -0.0392795,-0.0146614 -0.0390827,-0.0148898 -0.00164173,-0.0011811 -0.0030315,-0.00331102 -0.00424803,-0.00663386"/>
  <path class="fil0 str4" d="M0.072 0.151157c-0.000724409,-0.00357874 0.00111811,-0.00666142 0.00411024,-0.00688583 0.00299606,-0.000220472 0.00601181,0.00249606 0.00673228,0.00607874 0.000724409,0.00357874 -0.00111417,0.00666142 -0.00411024,0.00688583 -0.00299213,0.000220472 -0.00600787,-0.0025 -0.00673228,-0.00607874"/>
  <polygon class="fil0 str5" points="0.0398583,0.0450551 0.0827165,0.0539173 0.0834331,0.071752 0.0410551,0.0618189 "/>
  <polygon class="fil0 str5" points="0.0415354,0.0637362 0.0831929,0.0736693 0.0839094,0.0915039 0.0427323,0.0808543 "/>
  <polygon class="fil1 str6" points="0.0482402,0.10348 0.0689488,0.109469 0.0689488,0.112579 0.0482402,0.106591 "/>
  <polygon class="fil0 str5" points="0.0482402,0.10348 0.0689488,0.109469 0.0689488,0.112579 0.0482402,0.106591 "/>
  <path class="fil2 str7" d="M0.0606024 0.139685c-0.000448819,-0.00223228 0.00069685,-0.00415748 0.00256693,-0.00429528 0.00186614,-0.000137795 0.00374803,0.00155906 0.00419685,0.00379134 0.000452756,0.00223228 -0.00069685,0.00415354 -0.00256299,0.00429528 -0.00186614,0.000137795 -0.00374803,-0.00155906 -0.00420079,-0.00379134z"/>
  <path class="fil2 str7" d="M0.0671772 0.141665c-0.000795276,0.000641732 -0.00181102,0.0010315 -0.00291339,0.0010315 -0.000988189,0 -0.00190551,-0.000311024 -0.00265748,-0.00084252 -0.000476378,-0.000610236 -0.000838583,-0.00135039 -0.00100394,-0.00216929 -0.000448819,-0.00223228 0.00069685,-0.00415748 0.00256693,-0.00429528 0.00186614,-0.000137795 0.00374803,0.00155906 0.00419685,0.00379134 0.000185039,0.000913386 0.000106299,0.00177559 -0.000188976,0.00248425z"/>
  <path class="fil2 str7" d="M0.0607835 0.138055c0,-0.0005 0.000110236,-0.000976378 0.000299213,-0.00140551 0.000464567,-0.000720472 0.00119291,-0.00119291 0.00208661,-0.00125984 0.00186614,-0.000137795 0.00374803,0.00155906 0.00419685,0.00379134 2.3622e-005,0.000110236 4.33071e-005,0.000220472 5.90551e-005,0.000330709 -0.000551181,0.00119291 -0.00175984,0.00202362 -0.00316142,0.00202362 -0.00192126,0 -0.00348031,-0.00155906 -0.00348031,-0.00348031z"/>
  <path class="fil3 str7" d="M0.0625236 0.138055c0,-0.00096063 0.000779528,-0.00174016 0.00174016,-0.00174016 0.00096063,0 0.00174016,0.000779528 0.00174016,0.00174016 0,0.00096063 -0.000779528,0.00174016 -0.00174016,0.00174016 -0.00096063,0 -0.00174016,-0.000779528 -0.00174016,-0.00174016z"/>
  <path class="fil0 str4" d="M0.0606024 0.139685c-0.000448819,-0.00223228 0.00069685,-0.00415748 0.00256693,-0.00429528 0.00186614,-0.000137795 0.00374803,0.00155906 0.00419685,0.00379134 0.000452756,0.00223228 -0.00069685,0.00415354 -0.00256299,0.00429528 -0.00186614,0.000137795 -0.00374803,-0.00155906 -0.00420079,-0.00379134"/>
  <g id="_124854976">
   <path id="_124850376" class="fil4 str6" d="M0.155425 0.14239l-0.00088189 0.0252638 -0.0204252 0.0112283c0,0 -0.0028937,0.00202362 -0.00294094,0.00343307 -5.11811e-005,0.00140945 0.00588976,0.00316929 0.00588976,0.00316929l0.0255591 -0.00623622 0.0228031 0.0100669 0.00540551 -0.00366142c0,0 0.000858268,-0.00209449 -0.000968504,-0.00372835 -0.00182283,-0.00163386 -0.0159252,-0.0117126 -0.0159252,-0.0117126l0.000358268 -0.0217441 -0.018874 -0.00607874z"/>
   <polyline id="_124855760" class="fil0 str5" points="0.155425,0.14239 0.154543,0.167654 0.134118,0.178882 "/>
   <path id="_124856424" class="fil0 str5" d="M0.134118 0.178882c0,0 -0.0028937,0.00202362 -0.00294094,0.00343307 -5.11811e-005,0.00140945 0.00588976,0.00316929 0.00588976,0.00316929"/>
   <polyline id="_124857280" class="fil0 str5" points="0.137067,0.185484 0.162626,0.179248 0.185429,0.189315 0.190835,0.185654 "/>
   <path id="_124858096" class="fil0 str5" d="M0.190835 0.185654c0,0 0.000858268,-0.00209449 -0.000968504,-0.00372835 -0.00182283,-0.00163386 -0.0159252,-0.0117126 -0.0159252,-0.0117126"/>
   <polyline id="_124858952" class="fil0 str5" points="0.173941,0.170213 0.174299,0.148469 0.155425,0.14239 "/>
  </g>
  <g id="_124859320">
   <path id="_124859344" class="fil5 str6" d="M0.13135 0.182201c4.72441e-005,-0.00140945 0.00294094,-0.00343307 0.00294094,-0.00343307l0.0200906 -0.0110512 0.00387008 0.00137008 -0.0213622 0.0117283c0,0 -0.000216535,0.00273228 -0.00026378,0.00414173 -5.11811e-005,0.00140945 -0.00527559,-0.00275591 -0.00527559,-0.00275591z"/>
   <path id="_124860560" class="fil0 str8" d="M0.13135 0.182201c4.72441e-005,-0.00140945 0.00294094,-0.00343307 0.00294094,-0.00343307"/>
   <polyline id="_124861472" class="fil0 str8" points="0.134291,0.178768 0.154382,0.167717 0.158252,0.169087 0.13689,0.180815 "/>
   <path id="_124862344" class="fil0 str8" d="M0.13689 0.180815c0,0 -0.000216535,0.00273228 -0.00026378,0.00414173 -5.11811e-005,0.00140945 -0.00527559,-0.00275591 -0.00527559,-0.00275591"/>
  </g>
  <g id="_124863328">
   <path id="_124863664" class="fil6 str6" d="M0.185992 0.189181c0,0 0.000464567,-0.00392126 -0.0013622,-0.00555512 -0.00182677,-0.00163386 -0.0159252,-0.0117126 -0.0159252,-0.0117126l0.000358268 -0.0217441 0.00530709 -0.00122441 -0.000358268 0.0217402c0,0 0.0141024,0.0100827 0.0159252,0.0117165 0.00182677,0.00162992 0.000909449,0.00294094 0.000909449,0.00294094l-0.00485433 0.00383858z"/>
   <path id="_124864416" class="fil0 str9" d="M0.185992 0.189181c0,0 0.000464567,-0.00392126 -0.0013622,-0.00555512 -0.00182677,-0.00163386 -0.0159252,-0.0117126 -0.0159252,-0.0117126"/>
   <polyline id="_124865296" class="fil0 str9" points="0.168705,0.171913 0.169063,0.150169 0.17437,0.148945 0.174012,0.170685 "/>
   <path id="_124865968" class="fil0 str9" d="M0.174012 0.170685c0,0 0.0141024,0.0100827 0.0159252,0.0117165 0.00182677,0.00162992 0.000909449,0.00294094 0.000909449,0.00294094"/>
   <line id="_124866568" class="fil0 str9" x1="0.190846" y1="0.185343" x2="0.185992" y2= "0.189181" />
  </g>
  <polyline class="fil0 str3" points="0.155425,0.14239 0.154543,0.167654 0.134118,0.178882 "/>
  <path class="fil0 str3" d="M0.134118 0.178882c0,0 -0.0028937,0.00202362 -0.00294094,0.00343307 -5.11811e-005,0.00140945 0.00588976,0.00316929 0.00588976,0.00316929"/>
  <polyline class="fil0 str3" points="0.137067,0.185484 0.162626,0.179248 0.185429,0.189315 0.190835,0.185654 "/>
  <path class="fil0 str3" d="M0.190835 0.185654c0,0 0.000858268,-0.00209449 -0.000968504,-0.00372835 -0.00182283,-0.00163386 -0.0159252,-0.0117126 -0.0159252,-0.0117126"/>
  <polyline class="fil0 str3" points="0.173941,0.170213 0.174299,0.148469 0.155425,0.14239 "/>
  <g id="_124897312">
   <g>
    <g>
     <g>
      <path id="_124898544" class="fil7 str7" d="M0.201126 0.0835984l0.00400394 0.00616535c-3.93701e-006,0.000114173 -3.93701e-006,0.000232283 -1.5748e-005,0.000350394l-0.000185039 0.00272047 -0.00628346 -0.00967323 0.00185039 0.000287402c0.000216535,3.54331e-005 0.000425197,8.66142e-005 0.000629921,0.000149606z"/>
      <path id="_124901112" class="fil7 str7" d="M0.20513 0.0897598l-0.00400394 -0.00616142c0.00234252,0.000724409 0.00405512,0.00331102 0.00400394,0.00616142z"/>
     </g>
     <g>
      <path id="_124901960" class="fil4 str7" d="M0.125465 0.135067l0.00474409 0.00730709 -0.0013189 -0.00042126c-0.00201969,-0.000641732 -0.00355906,-0.00329921 -0.00346063,-0.00594882l3.54331e-005 -0.000937008z"/>
      <polygon id="_124903712" class="fil8 str7" points="0.125638,0.130409 0.134236,0.143657 0.130209,0.142374 0.125465,0.135067 "/>
      <polygon id="_124904376" class="fil9 str7" points="0.125811,0.125756 0.138268,0.144937 0.13424,0.143657 0.125638,0.130409 "/>
      <polygon id="_124905056" class="fil10 str7" points="0.125984,0.121094 0.142299,0.14622 0.138268,0.144937 0.125811,0.125756 "/>
      <polygon id="_124905672" class="fil11 str7" points="0.126157,0.116441 0.146331,0.1475 0.142299,0.14622 0.125984,0.121094 "/>
      <polygon id="_124906456" class="fil12 str7" points="0.126331,0.111783 0.150362,0.148783 0.146331,0.147504 0.126157,0.116441 "/>
      <polygon id="_124907240" class="fil13 str7" points="0.126508,0.107126 0.154394,0.150067 0.150362,0.148783 0.126331,0.111783 "/>
      <polygon id="_124907856" class="fil14 str7" points="0.126681,0.102469 0.158421,0.15135 0.154394,0.150067 0.126508,0.107126 "/>
      <polygon id="_124908808" class="fil15 str7" points="0.126854,0.097811 0.162453,0.15263 0.158421,0.15135 0.126681,0.102469 "/>
      <polygon id="_124909592" class="fil16 str7" points="0.127028,0.0931575 0.166484,0.153913 0.162453,0.15263 0.126854,0.097811 "/>
      <polygon id="_124910208" class="fil17 str7" points="0.127201,0.0884961 0.170516,0.155197 0.166484,0.153913 0.127028,0.0931535 "/>
      <polygon id="_124911160" class="fil18 str7" points="0.127374,0.0838425 0.174543,0.156476 0.170516,0.155197 0.127201,0.0884961 "/>
      <path id="_124912016" class="fil19 str7" d="M0.127776 0.0795354l0.0507992 0.0782244 -0.0040315 -0.00128346 -0.0471693 -0.0726339 0.000122047 -0.00330315c7.87402e-006,-0.00023622 9.84252e-005,-0.000582677 0.000279528,-0.00100394z"/>
      <path id="_124912968" class="fil20 str7" d="M0.129441 0.0771732l0.0531654 0.0818701 -0.0040315 -0.00128346 -0.0507992 -0.0782244c0.000295276,-0.000673228 0.000830709,-0.00152756 0.00166535,-0.0023622z"/>
      <path id="_124914104" class="fil21 str7" d="M0.131587 0.0755512l0.0548622 0.0844843c-0.000452756,3.93701e-006 -0.000826772,-3.54331e-005 -0.00109843,-0.000122047l-0.00274409 -0.000870079 -0.0531654 -0.0818701c0.000566929,-0.000566929 0.00127953,-0.00112992 0.00214567,-0.00162205z"/>
      <path id="_124915104" class="fil22 str7" d="M0.134102 0.0745039l0.055311 0.0851732c-0.00114567,0.000224409 -0.00217323,0.000354331 -0.00296457,0.000358268l-0.0548622 -0.0844843c0.000724409,-0.000409449 0.00155906,-0.000771654 0.00251575,-0.00104724z"/>
      <path id="_124916288" class="fil23 str7" d="M0.136976 0.0740039l0.0552008 0.0850039c-0.000948819,0.000271654 -0.00188976,0.0005 -0.00276378,0.000669291l-0.055311 -0.0851732c0.000858268,-0.000244094 0.00181496,-0.00042126 0.00287402,-0.0005z"/>
      <path id="_124917872" class="fil24 str7" d="M0.140197 0.0740433l0.054622 0.0841063c-0.000862205,0.000318898 -0.00175591,0.000606299 -0.00264173,0.000858268l-0.0552008 -0.0850039c0.000980315,-7.48031e-005 0.00205118,-7.08661e-005 0.00322047,3.93701e-005z"/>
      <path id="_124918664" class="fil25 str7" d="M0.143724 0.0745472l0.0536063 0.0825433c-0.000767717,0.000374016 -0.00162205,0.000732283 -0.00251181,0.00105906l-0.054622 -0.0841063c0.000468504,4.33071e-005 0.000956693,0.000102362 0.00145669,0.000177165l0.00207087 0.000326772z"/>
      <path id="_124919560" class="fil26 str7" d="M0.147283 0.0751063l0.0523386 0.0805906c-0.000590551,0.000476378 -0.00138189,0.000948819 -0.00229134,0.0013937l-0.0536063 -0.0825433 0.00355906 0.000559055z"/>
      <path id="_124920512" class="fil27 str7" d="M0.150846 0.0756654l0.0499724 0.0769528 -9.84252e-005 0.00148031c-3.54331e-005,0.000527559 -0.000444882,0.00106693 -0.00109843,0.00159843l-0.0523386 -0.0805906 0.00356299 0.000559055z"/>
      <polygon id="_124921288" class="fil28 str7" points="0.154406,0.0762244 0.201126,0.148165 0.200819,0.152618 0.150846,0.0756654 "/>
      <polygon id="_124922032" class="fil29 str7" points="0.157969,0.0767795 0.201433,0.143713 0.201126,0.148165 0.154406,0.0762244 "/>
      <polygon id="_124922832" class="fil30 str7" points="0.161528,0.0773386 0.20174,0.13926 0.201433,0.143713 0.157969,0.0767795 "/>
      <polygon id="_124923616" class="fil31 str7" points="0.165087,0.0778976 0.202043,0.134807 0.20174,0.13926 0.161528,0.0773386 "/>
      <polygon id="_124924528" class="fil32 str7" points="0.16865,0.0784567 0.20235,0.13035 0.202043,0.134807 0.165087,0.0778976 "/>
      <polygon id="_124925224" class="fil33 str7" points="0.172209,0.0790157 0.202657,0.125902 0.20235,0.13035 0.16865,0.0784567 "/>
      <polygon id="_124926048" class="fil34 str7" points="0.175768,0.0795748 0.202965,0.121445 0.202657,0.125902 0.172209,0.0790157 "/>
      <polygon id="_124926984" class="fil35 str7" points="0.179331,0.0801299 0.203268,0.116992 0.202965,0.121445 0.175772,0.0795748 "/>
      <polygon id="_124927696" class="fil36 str7" points="0.18289,0.080689 0.203575,0.112539 0.203268,0.116992 0.179331,0.0801299 "/>
      <polygon id="_124928520" class="fil37 str7" points="0.186453,0.081248 0.203882,0.108087 0.203575,0.112539 0.18289,0.080689 "/>
      <polygon id="_124929456" class="fil38 str7" points="0.190012,0.0818071 0.204185,0.103634 0.203882,0.108087 0.186453,0.081248 "/>
      <polygon id="_124930168" class="fil39 str7" points="0.193575,0.0823661 0.204492,0.0991811 0.204185,0.103634 0.190012,0.0818071 "/>
      <polygon id="_124930992" class="fil40 str7" points="0.197134,0.0829213 0.204799,0.0947244 0.204492,0.0991811 0.193575,0.0823661 "/>
      <path id="_124932504" class="fil7 str7" d="M0.200701 0.0834921l0.00440551 0.00678346 -0.000307087 0.00444882 -0.00766535 -0.0118031 0.0033622 0.000527559c7.08661e-005,1.1811e-005 0.000137795,2.75591e-005 0.000204724,4.33071e-005z"/>
     </g>
    </g>
    <line id="_124897704" class="fil0 str4" x1="0.141654" y1="0.0742205" x2="0.200496" y2= "0.0834488" />
    <path id="_124898968" class="fil0 str4" d="M0.200496 0.0834488c0.00275984,0.000433071 0.00484252,0.0034252 0.00461811,0.00666535"/>
    <line id="_124914080" class="fil0 str4" x1="0.205114" y1="0.0901142" x2="0.20072" y2= "0.154098" />
    <path id="_124930144" class="fil0 str4" d="M0.20072 0.154098c-0.000208661,0.00304331 -0.0127323,0.00665748 -0.0153701,0.00581496"/>
    <line id="_124924552" class="fil0 str4" x1="0.18535" y1="0.159913" x2="0.12889" y2= "0.141953" />
    <path id="_124926072" class="fil0 str4" d="M0.12889 0.141953c-0.00201969,-0.000641732 -0.00355906,-0.00329921 -0.00346063,-0.00594882"/>
    <line id="_124931016" class="fil0 str4" x1="0.125429" y1="0.136004" x2="0.127496" y2= "0.0805394" />
    <path id="_124936120" class="fil0 str4" d="M0.127496 0.0805394c5.90551e-005,-0.00152362 0.0035,-0.00798819 0.0141575,-0.0063189"/>
   </g>
   <g>
    <path id="_124937680" class="fil4 str6" d="M0.127323 0.0839646c-3.54331e-005,-0.00344882 0.00197638,-0.00590157 0.0047126,-0.00545276l0.0576732 0.00947638c0.00327559,0.00053937 0.00327953,0.00377953 0.0031063,0.00755906l-0.00405118 0.0590276c-0.00015748,0.0034252 -0.00279921,0.00552756 -0.00588189,0.00472441l-0.0523543 -0.016752c-0.00260236,-0.000681102 -0.00472047,-0.00377165 -0.00475591,-0.0069252l0.00155118 -0.0516575z"/>
    <path id="_124938744" class="fil0 str10" d="M0.127323 0.0839646c-3.54331e-005,-0.00344882 0.00197638,-0.00590157 0.0047126,-0.00545276"/>
    <line id="_124939392" class="fil0 str10" x1="0.132035" y1="0.0785118" x2="0.189709" y2= "0.0879882" />
    <path id="_124940024" class="fil0 str10" d="M0.189709 0.0879882c0.00327559,0.00053937 0.00327953,0.00377953 0.0031063,0.00755906"/>
    <line id="_124940656" class="fil0 str10" x1="0.192815" y1="0.0955472" x2="0.188764" y2= "0.154575" />
    <path id="_124941288" class="fil0 str10" d="M0.188764 0.154575c-0.00015748,0.0034252 -0.00279921,0.00552756 -0.00588189,0.00472441"/>
    <line id="_124941912" class="fil0 str10" x1="0.182882" y1="0.159299" x2="0.130528" y2= "0.142547" />
    <path id="_124942664" class="fil0 str10" d="M0.130528 0.142547c-0.00260236,-0.000681102 -0.00472047,-0.00377165 -0.00475591,-0.0069252"/>
    <line id="_124943288" class="fil0 str10" x1="0.125772" y1="0.135622" x2="0.127323" y2= "0.0839646" />
   </g>
   <g>
    <line id="_124944152" class="fil0 str3" x1="0.141654" y1="0.0742205" x2="0.200496" y2= "0.0834488" />
    <path id="_124944784" class="fil0 str3" d="M0.200496 0.0834488c0.00275984,0.000433071 0.00484252,0.0034252 0.00461811,0.00666535"/>
    <line id="_124945504" class="fil0 str3" x1="0.205114" y1="0.0901142" x2="0.20072" y2= "0.154098" />
    <path id="_124945688" class="fil0 str3" d="M0.20072 0.154098c-0.000208661,0.00304331 -0.0127323,0.00665748 -0.0153701,0.00581496"/>
    <line id="_124947096" class="fil0 str3" x1="0.18535" y1="0.159913" x2="0.12889" y2= "0.141953" />
    <path id="_124947280" class="fil0 str3" d="M0.12889 0.141953c-0.00201969,-0.000641732 -0.00355906,-0.00329921 -0.00346063,-0.00594882"/>
    <line id="_124948528" class="fil0 str3" x1="0.125429" y1="0.136004" x2="0.127496" y2= "0.0805394" />
    <path id="_124949144" class="fil0 str3" d="M0.127496 0.0805394c5.90551e-005,-0.00152362 0.0035,-0.00798819 0.0141575,-0.0063189"/>
   </g>
   <g>
    <line id="_124950160" class="fil0 str9" x1="0.202941" y1="0.086626" x2="0.197878" y2= "0.0878622" />
    <path id="_124950344" class="fil0 str9" d="M0.197878 0.0878622c-0.00278346,0.000240157 -0.00507087,0.0030748 -0.0050748,0.00632283"/>
    <line id="_124951592" class="fil0 str9" x1="0.192803" y1="0.094185" x2="0.189346" y2= "0.142945" />
   </g>
   <g>
    <line id="_124951792" class="fil0 str11" x1="0.148543" y1="0.080874" x2="0.188098" y2= "0.0872638" />
    <path id="_124953240" class="fil0 str11" d="M0.188098 0.0872638c0.00563386,0.000885827 0.00462598,0.00655118 0.00461811,0.00666142"/>
    <line id="_124954224" class="fil0 str11" x1="0.192717" y1="0.0939252" x2="0.188933" y2= "0.150323" />
   </g>
   <g>
    <path id="_124955248" class="fil0 str5" d="M0.130039 0.0865906c-3.14961e-005,-0.00302362 0.00173228,-0.00517323 0.00412992,-0.00477953"/>
    <line id="_124954856" class="fil0 str5" x1="0.134169" y1="0.081811" x2="0.184673" y2= "0.0907598" />
    <path id="_124956624" class="fil0 str5" d="M0.184673 0.0907598c0.00287402,0.000476378 0.00287402,0.00331496 0.00272441,0.00662992"/>
    <line id="_124957568" class="fil0 str5" x1="0.187398" y1="0.0973898" x2="0.183843" y2= "0.149138" />
    <path id="_124957752" class="fil0 str5" d="M0.183843 0.149138c-0.000133858,0.003 -0.00244882,0.00484252 -0.00515354,0.0041378"/>
    <line id="_124959072" class="fil0 str5" x1="0.178689" y1="0.153276" x2="0.132673" y2= "0.139398" />
    <path id="_124959256" class="fil0 str5" d="M0.132673 0.139398c-0.00227559,-0.000594488 -0.00413386,-0.00330709 -0.00416535,-0.00607087"/>
    <line id="_124960664" class="fil0 str5" x1="0.128508" y1="0.133327" x2="0.130039" y2= "0.0865906" />
   </g>
  </g>
  <g id="_124960848">
   <path id="_124961616" class="fil41 str6" d="M0.0517087 0.175906c0.00119685,-0.00239764 0.00522835,-0.0048189 0.0071811,-0.0040748l0.0652441 0.0250236c0.00204724,0.000779528 0.00168898,0.00646063 0.00170079,0.00888189l-0.0197323 0.0179173c-0.00330315,0.00275984 -0.00567717,0.00213386 -0.00770866,0.00133465l-0.0599646 -0.0237205c-0.00193701,-0.00076378 -0.00456693,-0.00282283 -0.0031811,-0.00585039 0.00744488,-0.00663386 0.0129331,-0.0131417 0.0164606,-0.0195118z"/>
   <path id="_124962288" class="fil0 str5" d="M0.0517087 0.175906c0.00119685,-0.00239764 0.00522835,-0.0048189 0.0071811,-0.0040748"/>
   <line id="_124962704" class="fil0 str5" x1="0.0588898" y1="0.171831" x2="0.124134" y2= "0.196854" />
   <path id="_124963392" class="fil0 str5" d="M0.124134 0.196854c0.00204724,0.000779528 0.00168898,0.00646063 0.00170079,0.00888189"/>
   <line id="_124964800" class="fil0 str5" x1="0.125835" y1="0.205736" x2="0.106102" y2= "0.223654" />
   <path id="_124965416" class="fil0 str5" d="M0.106102 0.223654c-0.00330315,0.00275984 -0.00567717,0.00213386 -0.00770866,0.00133465"/>
   <line id="_124965816" class="fil0 str5" x1="0.0983937" y1="0.224988" x2="0.0384291" y2= "0.201268" />
   <path id="_124966456" class="fil0 str5" d="M0.0384291 0.201268c-0.00193701,-0.00076378 -0.00456693,-0.00282283 -0.0031811,-0.00585039 0.00744488,-0.00663386 0.0129331,-0.0131417 0.0164606,-0.0195118"/>
  </g>
  <line class="fil0 str12" x1="0.122457" y1="0.20087" x2="0.104" y2= "0.219909" />
  <path class="fil0 str12" d="M0.104 0.219909c-0.00330315,0.00276378 -0.00567717,0.0021378 -0.00770472,0.00133465"/>
  <line class="fil0 str12" x1="0.0962953" y1="0.221244" x2="0.0417559" y2= "0.199311" />
  <line class="fil0 str13" x1="0.115346" y1="0.208331" x2="0.104" y2= "0.219909" />
  <path class="fil0 str13" d="M0.104 0.219909c-0.00330315,0.00276378 -0.00567717,0.0021378 -0.00770472,0.00133465"/>
  <line class="fil0 str13" x1="0.0962953" y1="0.221244" x2="0.0799331" y2= "0.214819" />
  <path class="fil0 str3" d="M0.0517087 0.175906c0.00119685,-0.00239764 0.00522835,-0.0048189 0.0071811,-0.0040748"/>
  <line class="fil0 str3" x1="0.0588898" y1="0.171831" x2="0.124134" y2= "0.196854" />
  <path class="fil0 str3" d="M0.124134 0.196854c0.00204724,0.000779528 0.00168898,0.00646063 0.00170079,0.00888189"/>
  <line class="fil0 str3" x1="0.125835" y1="0.205736" x2="0.106102" y2= "0.223654" />
  <path class="fil0 str3" d="M0.106102 0.223654c-0.00330315,0.00275984 -0.00567717,0.00213386 -0.00770866,0.00133465"/>
  <line class="fil0 str3" x1="0.0983937" y1="0.224988" x2="0.0384291" y2= "0.201268" />
  <path class="fil0 str3" d="M0.0384291 0.201268c-0.00193701,-0.00076378 -0.00456693,-0.00282283 -0.0031811,-0.00585039 0.0081063,-0.00765748 0.0135945,-0.0141654 0.0164606,-0.0195118"/>
  <g id="_124978056">
   <g>
    <polygon id="_124978376" class="fil42 str6" points="0.0846299,0.209547 0.0420157,0.192909 0.0421102,0.192961 "/>
    <polygon id="_124979056" class="fil0 str14" points="0.0846299,0.209547 0.0420157,0.192909 0.0421102,0.192961 "/>
    <polygon id="_124979384" class="fil42 str6" points="0.0846299,0.209547 0.0421102,0.192961 0.0846417,0.209563 "/>
    <polygon id="_124980792" class="fil0 str14" points="0.0846299,0.209547 0.0421102,0.192961 0.0846417,0.209563 "/>
    <polygon id="_124981688" class="fil43 str6" points="0.100551,0.192909 0.0971378,0.196992 0.097122,0.197035 "/>
    <polygon id="_124982440" class="fil0 str15" points="0.100551,0.192909 0.0971378,0.196992 0.097122,0.197035 "/>
    <polygon id="_124983384" class="fil43 str6" points="0.100551,0.192909 0.097122,0.197035 0.100528,0.192961 "/>
    <polygon id="_124983776" class="fil0 str15" points="0.100551,0.192909 0.097122,0.197035 0.100528,0.192961 "/>
    <polygon id="_124985224" class="fil44 str6" points="0.0971378,0.196992 0.0938386,0.200701 0.0938307,0.200732 "/>
    <polygon id="_124986072" class="fil0 str16" points="0.0971378,0.196992 0.0938386,0.200701 0.0938307,0.200732 "/>
    <polygon id="_124986584" class="fil44 str6" points="0.0971378,0.196992 0.0938307,0.200732 0.097122,0.197035 "/>
    <polygon id="_124988000" class="fil0 str16" points="0.0971378,0.196992 0.0938307,0.200732 0.097122,0.197035 "/>
    <polygon id="_124988824" class="fil45 str6" points="0.0938386,0.200701 0.0906535,0.204028 0.0906535,0.204055 "/>
    <polygon id="_124989752" class="fil0 str17" points="0.0938386,0.200701 0.0906535,0.204028 0.0906535,0.204055 "/>
    <polygon id="_124990624" class="fil45 str6" points="0.0938386,0.200701 0.0906535,0.204055 0.0938307,0.200732 "/>
    <polygon id="_124991608" class="fil0 str17" points="0.0938386,0.200701 0.0906535,0.204055 0.0938307,0.200732 "/>
    <polygon id="_124992000" class="fil46 str6" points="0.0906535,0.204028 0.0875866,0.206976 0.0875906,0.207 "/>
    <polygon id="_124993256" class="fil0 str18" points="0.0906535,0.204028 0.0875866,0.206976 0.0875906,0.207 "/>
    <polygon id="_124994200" class="fil46 str6" points="0.0906535,0.204028 0.0875906,0.207 0.0906535,0.204055 "/>
    <polygon id="_124994592" class="fil0 str18" points="0.0906535,0.204028 0.0875906,0.207 0.0906535,0.204055 "/>
    <polygon id="_124996040" class="fil47 str6" points="0.0875866,0.206976 0.0846299,0.209547 0.0846417,0.209563 "/>
    <polygon id="_124996888" class="fil0 str19" points="0.0875866,0.206976 0.0846299,0.209547 0.0846417,0.209563 "/>
    <polygon id="_124997400" class="fil47 str6" points="0.0875866,0.206976 0.0846417,0.209563 0.0875906,0.207 "/>
    <polygon id="_124998816" class="fil0 str19" points="0.0875866,0.206976 0.0846417,0.209563 0.0875906,0.207 "/>
    <path id="_124999888" class="fil0 str5" d="M0.100551 0.192909c-0.00483071,0.00594882 -0.00998819,0.0117598 -0.0159213,0.0166378"/>
    <line id="_124999672" class="fil0 str5" x1="0.0846299" y1="0.209547" x2="0.0420157" y2= "0.192909" />
    <path id="_124999616" class="fil0 str5" d="M0.0420157 0.192909c0.00554331,-0.00493307 0.0104173,-0.0106378 0.0142402,-0.0170039"/>
    <line id="_125001288" class="fil0 str5" x1="0.0562559" y1="0.175906" x2="0.100551" y2= "0.192909" />
   </g>
  </g>
  <polygon class="fil48 str6" points="0.100035,0.215382 0.0872835,0.210406 0.0873583,0.210457 "/>
  <polygon class="fil0 str20" points="0.100035,0.215382 0.0872835,0.210406 0.0873583,0.210457 "/>
  <polygon class="fil48 str6" points="0.100035,0.215382 0.0873583,0.210457 0.100083,0.215425 "/>
  <polygon class="fil0 str20" points="0.100035,0.215382 0.0873583,0.210457 0.100083,0.215425 "/>
  <polygon class="fil49 str6" points="0.116756,0.198925 0.114492,0.201343 0.114508,0.201413 "/>
  <polygon class="fil0 str21" points="0.116756,0.198925 0.114492,0.201343 0.114508,0.201413 "/>
  <polygon class="fil49 str6" points="0.116756,0.198925 0.114508,0.201413 0.116772,0.199 "/>
  <polygon class="fil0 str21" points="0.116756,0.198925 0.114508,0.201413 0.116772,0.199 "/>
  <polygon class="fil50 str6" points="0.114492,0.201343 0.110539,0.205295 0.110567,0.205358 "/>
  <polygon class="fil0 str22" points="0.114492,0.201343 0.110539,0.205295 0.110567,0.205358 "/>
  <polygon class="fil50 str6" points="0.114492,0.201343 0.110567,0.205358 0.114508,0.201413 "/>
  <polygon class="fil0 str22" points="0.114492,0.201343 0.110567,0.205358 0.114508,0.201413 "/>
  <polygon class="fil51 str6" points="0.110539,0.205295 0.106047,0.209689 0.106083,0.209744 "/>
  <polygon class="fil0 str23" points="0.110539,0.205295 0.106047,0.209689 0.106083,0.209744 "/>
  <polygon class="fil51 str6" points="0.110539,0.205295 0.106083,0.209744 0.110567,0.205358 "/>
  <polygon class="fil0 str23" points="0.110539,0.205295 0.106083,0.209744 0.110567,0.205358 "/>
  <polygon class="fil51 str6" points="0.106047,0.209689 0.102165,0.213421 0.102205,0.213465 "/>
  <polygon class="fil0 str23" points="0.106047,0.209689 0.102165,0.213421 0.102205,0.213465 "/>
  <polygon class="fil51 str6" points="0.106047,0.209689 0.102205,0.213465 0.106083,0.209744 "/>
  <polygon class="fil0 str23" points="0.106047,0.209689 0.102205,0.213465 0.106083,0.209744 "/>
  <polygon class="fil52 str6" points="0.102165,0.213421 0.100035,0.215382 0.100083,0.215425 "/>
  <polygon class="fil0 str4" points="0.102165,0.213421 0.100035,0.215382 0.100083,0.215425 "/>
  <polygon class="fil52 str6" points="0.102165,0.213421 0.100083,0.215425 0.102205,0.213465 "/>
  <polygon class="fil0 str4" points="0.102165,0.213421 0.100083,0.215425 0.102205,0.213465 "/>
  <path class="fil0 str5" d="M0.116756 0.198925c-0.00462205,0.00566929 -0.0110709,0.0117913 -0.0167205,0.0164567"/>
  <line class="fil0 str5" x1="0.100035" y1="0.215382" x2="0.0872835" y2= "0.210406" />
  <path class="fil0 str5" d="M0.0872835 0.210406c0.00607874,-0.00475197 0.011374,-0.0105945 0.0162205,-0.0165669"/>
  <line class="fil0 str5" x1="0.103504" y1="0.193839" x2="0.116756" y2= "0.198925" />
 </g>
 <g id="Layer_x0020_1">
  <metadata id="CorelCorpID_1Corel-Layer"/>
  <g id="_19886928">
   <path id="_124793896" class="fil53 str24" d="M0.0546929 0.00503543c0.00432677,-0.000708661 0.0081811,-0.00104724 0.011563,-0.00102756l0.0452638 0.00614567c0.00347638,0.00277953 0.0028189,0.00342913 0.00312992,0.00674803l0.00065748 0.111969c-0.000110236,0.00427953 -0.00104724,0.00865748 -0.00520472,0.0129882l-0.0384528 0.0273543c-0.00465354,0.00243701 -0.00931102,0.00325591 -0.0139567,0.0024685l-0.0409882 -0.0155984c-0.00236614,-0.00146457 -0.00385827,-0.00379134 -0.00448031,-0.00697638l-0.00799213 -0.109898c-0.000401575,-0.00478346 -7.87402e-006,-0.0102992 0.00354724,-0.0135591 0.015185,-0.00884646 0.0299567,-0.0147323 0.0469134,-0.0206142z"/>
   <path id="_124947496" class="fil54 str25" d="M0.0716496 0.169213l-0.00517717 -0.123228c-0.00015748,-0.00527165 0.00128346,-0.0103898 0.00622835,-0.0152087l0.0388189 -0.020622c0.00392126,0.00253937 0.00294882,0.00763386 0.00305512,0.0111339l0.000732283 0.107583c0.000149606,0.00512205 -0.00200394,0.00927165 -0.00520472,0.0129882l-0.0384528 0.0273543z"/>
   <path id="_125384816" class="fil0 str26" d="M0.0693543 0.114504l-0.00288189 -0.0685197c-0.00015748,-0.00527165 0.00128346,-0.0103898 0.00622835,-0.0152087l0.0169331 -0.00899213"/>
   <path id="_124789936" class="fil55 str26" d="M0.0167047 0.156083c-0.00292913,-0.00218898 -0.00442126,-0.00451575 -0.00448031,-0.00697638l-0.00799213 -0.109898c-0.000409449,-0.00564961 0.000669291,-0.0103504 0.00354724,-0.0135591l0.0483701 0.00904331c0.00506693,0.00190157 0.00850787,0.00566535 0.0103228,0.0112913l0.00517717 0.123228c-0.00372835,0.00220079 -0.00838583,0.00301969 -0.0139567,0.0024685l-0.0409882 -0.0155984z"/>
   <path id="_124791080" class="fil0 str27" d="M0.0689173 0.104043l-0.00244488 -0.0580591c-0.00015748,-0.00527165 0.00128346,-0.0103898 0.00622835,-0.0152087l0.00846457 -0.00449213"/>
   <polygon id="_124961112" class="fil56 str28" points="0.0103346,0.0352205 0.0116063,0.0528071 0.0538819,0.0626299 0.0531142,0.0439055 "/>
   <polygon id="_125041928" class="fil57 str28" points="0.0116063,0.0528071 0.0131535,0.0702126 0.054437,0.0816142 0.0538819,0.0626299 "/>
   <polygon id="_124789888" class="fil58 str28" points="0.0169409,0.0959094 0.0172283,0.0989764 0.0386811,0.105457 0.0386811,0.102181 "/>
   <ellipse id="_124794552" class="fil59 str28" transform="matrix(0.871682 -0.583757 0.583757 0.871682 0.0475664 0.145499)" rx="0.0056063" ry="0.00697638"/>
   <ellipse id="_125037168" class="fil60 str28" transform="matrix(0.557741 -0.373513 0.373513 0.557741 0.0335869 0.132617)" rx="0.0056063" ry="0.00697638"/>
   <path id="_125096224" class="fil0 str27" d="M0.0319646 0.0301732l0.024185 0.00451969c0.00506693,0.00190157 0.00850787,0.00566535 0.0103228,0.0112913l0.00205118 0.0488228"/>
   <path id="_124840856" class="fil0 str29" d="M0.0440591 0.0324331l0.0120906 0.00225984c0.00506693,0.00190157 0.00850787,0.00566535 0.0103228,0.0112913l0.000897638 0.0213898"/>
   <path id="_125391376" class="fil0 str27" d="M0.0319646 0.0301732l0.024185 0.00451969c0.00506693,0.00190157 0.00850787,0.00566535 0.0103228,0.0112913l0.00205118 0.0488228"/>
   <path id="_125392392" class="fil0 str29" d="M0.0460906 0.032811l0.0100591 0.00188189c0.00506693,0.00190157 0.00850787,0.00566535 0.0103228,0.0112913l0.00117323 0.0278622"/>
   <path id="_125111520" class="fil0 str30" d="M0.0546929 0.00503543c0.00432677,-0.000708661 0.0081811,-0.00104724 0.011563,-0.00102756l0.0452638 0.00614567c0.00347638,0.00277953 0.0028189,0.00342913 0.00312992,0.00674803l0.00065748 0.111969c-0.000110236,0.00427953 -0.00104724,0.00865748 -0.00520472,0.0129882l-0.0384528 0.0273543c-0.00465354,0.00243701 -0.00931102,0.00325591 -0.0139567,0.0024685l-0.0409882 -0.0155984c-0.00236614,-0.00146457 -0.00385827,-0.00379134 -0.00448031,-0.00697638l-0.00799213 -0.109898c-0.000401575,-0.00478346 -7.87402e-006,-0.0102992 0.00354724,-0.0135591 0.015185,-0.00884646 0.0299567,-0.0147323 0.0469134,-0.0206142z"/>
  </g>
  <g id="_125101944">
   <path id="_124813416" class="fil61 str28" d="M0.0213661 0.208228l0.062315 0.0279252c0.00268504,0.000409449 0.00537795,-7.87402e-006 0.0080748,-0.00140157l0.0212953 -0.0218346c0.00168898,-0.00311811 -0.000295276,-0.00620866 -0.00174803,-0.00932283l-0.0684764 -0.0262126c-0.00341732,-0.000401575 -0.00592913,0.00101969 -0.0075315,0.00425591 -0.0026063,0.00682283 -0.0092126,0.0136496 -0.0172598,0.0204724 -2.75591e-005,0.00270866 0.000409449,0.00468504 0.00333071,0.00611811z"/>
   <g>
    <path id="_125036800" class="fil62 str28" d="M0.0407953 0.184839c0.00687795,0.00269291 0.014,0.00548425 0.0213386,0.00835827 0.00759055,0.0029685 0.0154606,0.00605512 0.0235906,0.00923622 -0.00265748,0.00306299 -0.00533071,0.00612992 -0.00800787,0.00920472 -0.00268504,0.00308268 -0.00537795,0.00618504 -0.0080748,0.0092874 -0.00793307,-0.00353937 -0.0155945,-0.00696457 -0.0229961,-0.0102598 -0.00714173,-0.00318504 -0.0140748,-0.00627165 -0.0207677,-0.00925984 0.00250787,-0.00277953 0.005,-0.00555512 0.00749213,-0.0083189 0.00247638,-0.00275197 0.00496063,-0.0055 0.0074252,-0.00824803z"/>
    <path id="_124947520" class="fil63 str28" d="M0.0905157 0.204315c0.00383465,0.0015 0.00773228,0.00302362 0.0117047,0.00457874 -0.00272835,0.00317717 -0.0054685,0.0063622 -0.00820866,0.00955512 -0.00275591,0.00320472 -0.00552362,0.0064252 -0.00829134,0.00964567 -0.0038622,-0.00172441 -0.00766929,-0.00341732 -0.0114094,-0.00508661 0.00272441,-0.00313386 0.00543701,-0.00627165 0.00814173,-0.00938976 0.00269291,-0.00311024 0.00538189,-0.00620866 0.00806299,-0.00930315z"/>
   </g>
   <path id="_125115464" class="fil0 str27" d="M0.0457835 0.21272l0.0357087 0.0166181c0.00299213,0.00144094 0.00581102,0.000838583 0.00852362,-0.00115748l0.0179724 -0.0182323"/>
   <path id="_122958264" class="fil0 str31" d="M0.0213661 0.208228l0.062315 0.0279252c0.00268504,0.000409449 0.00537795,-7.87402e-006 0.0080748,-0.00140157l0.0212953 -0.0218346c0.00168898,-0.00311811 -0.000295276,-0.00620866 -0.00174803,-0.00932283l-0.0684764 -0.0262126c-0.00341732,-0.000401575 -0.00592913,0.00101969 -0.0075315,0.00425591 -0.0026063,0.00682283 -0.0092126,0.0136496 -0.0172598,0.0204724 -2.75591e-005,0.00270866 0.000409449,0.00468504 0.00333071,0.00611811z"/>
  </g>
  <g id="_125115536">
   <ellipse id="_124849888" class="fil64 str28" cx="0.160142" cy="0.175531" rx="0.0572244" ry="0.024496"/>
   <path id="_122958488" class="fil65 str28" d="M0.0744055 0.0576496c0.0137598,0.00209843 0.028248,0.00431496 0.0434843,0.00664173 0.0160748,0.00245276 0.0330748,0.00505512 0.0510472,0.00779921 0.00411417,0.000625984 0.00747244,0.00503937 0.00740945,0.00978346 -0.000232283,0.0168386 -0.000464567,0.0336142 -0.000692913,0.0502795 -0.000228346,0.0165906 -0.00046063,0.0331339 -0.000685039,0.0495551 -6.29921e-005,0.00458661 -0.00346457,0.00720866 -0.00750787,0.00585827 -0.0176378,-0.0058937 -0.0343465,-0.0114921 -0.0501496,-0.0167756 -0.0150079,-0.00501575 -0.0292717,-0.00979134 -0.0428228,-0.0143228 -0.00291339,-0.000972441 -0.00526772,-0.00490945 -0.00527165,-0.00875197 -1.1811e-005,-0.0137992 -4.33071e-005,-0.0276732 -5.90551e-005,-0.0415827 -1.9685e-005,-0.0139606 -4.72441e-005,-0.028 -6.29921e-005,-0.0420827 -3.93701e-006,-0.00396063 0.00237402,-0.00685039 0.00531102,-0.00640157z"/>
   <path id="_123881624" class="fil66 str28" d="M0.0814134 0.0714567c0.0116063,0.00203937 0.023752,0.0041811 0.0363937,0.00640157 0.0132362,0.00232283 0.0270787,0.00476772 0.0415748,0.00731496 0.00329134,0.000574803 0.00597244,0.00390551 0.00593307,0.00737402 -0.000141732,0.0123701 -0.00030315,0.0247047 -0.000448819,0.0369685 -0.000145669,0.0122441 -0.000295276,0.0244409 -0.000448819,0.0365827 -3.93701e-005,0.00340157 -0.00275197,0.00533071 -0.00600394,0.0043189 -0.0143071,-0.00445669 -0.0279685,-0.00873622 -0.0410315,-0.0128031 -0.0125079,-0.0038937 -0.0245039,-0.00764567 -0.0359882,-0.0112244 -0.00247244,-0.000771654 -0.00448819,-0.00379528 -0.00448819,-0.00673622 0,-0.0105118 -1.5748e-005,-0.0210512 -1.9685e-005,-0.0316299 -7.87402e-006,-0.0106102 3.93701e-006,-0.0212362 0,-0.0319252 0,-0.00298819 0.00202362,-0.00508268 0.00452756,-0.00464173z"/>
   <polygon id="_122904448" class="fil67 str28" points="0.0862008,0.160386 0.0860551,0.165921 0.156528,0.191386 0.156512,0.183902 "/>
   <path id="_124813328" class="fil68 str28" d="M0.0745945 0.0576299l0.0323504 -0.00633465 0.0904252 0.0125984c0.00477953,0.00215748 0.00650787,0.00291339 0.00764173,0.00975591l-0.00155512 0.0918465c-0.000314961,0.0036378 -0.00227953,0.00617323 -0.00588583,0.0076063l-0.0247441 0.0136654c0.00171654,-0.00185039 0.00242913,-0.00353937 0.00214173,-0.00505906l0.00137795 -0.0998346c-0.000602362,-0.00541732 -0.00307087,-0.00867717 -0.00740945,-0.00978346l-0.0943425 -0.0144606z"/>
   <path id="_123337792" class="fil69 str28" d="M0.203654 0.153744l0.0296496 -0.0193425 0.00204724 -0.0766732 -0.0713307 -0.00890551 -0.0388071 0.00501969 0.0721575 0.0100512c0.00483858,0.00115354 0.00738583,0.00440551 0.00764173,0.00975591l-0.00135827 0.0800945z"/>
   <path id="_125092320" class="fil70 str28" d="M0.156528 0.191386c0,0 0.00779921,-0.00486614 0.00761024,-0.00492913 -0.000188976,-6.29921e-005 -0.00762598,-0.00255512 -0.00762598,-0.00255512l1.5748e-005 0.00748425z"/>
   <path id="_125050792" class="fil0 str25" d="M0.0866102 0.0595157l0.0823268 0.0125748c0.00492126,0.00198031 0.00738976,0.00523622 0.00740945,0.00978346l-0.00137795 0.0998346"/>
   <path id="_125051040" class="fil0 str26" d="M0.110996 0.0632126l0.0579409 0.00887795c0.00492126,0.00198031 0.00738976,0.00523622 0.00740945,0.00978346l-0.00103937 0.0750551"/>
   <path id="_125051288" class="fil0 str27" d="M0.133677 0.0667087l0.0352598 0.00538189c0.00492126,0.00198031 0.00738976,0.00523622 0.00740945,0.00978346l-0.000625984 0.0451457"/>
   <path id="_125051536" class="fil0 str29" d="M0.155276 0.0700079l0.0136614 0.00208268c0.00492126,0.00198031 0.00738976,0.00523622 0.00740945,0.00978346l-0.000279528 0.0200591"/>
   <line id="_19886832" class="fil0 str27" x1="0.174354" y1="0.0756417" x2="0.198646" y2= "0.0677165" />
   <line id="_125016072" class="fil0 str29" x1="0.174354" y1="0.0756417" x2="0.190535" y2= "0.0703622" />
   <line id="_125384568" class="fil0 str29" x1="0.207319" y1="0.0673425" x2="0.228516" y2= "0.0600748" />
   <path id="_124755544" class="fil0 str29" d="M0.116433 0.187862c0.0243622,0.0127992 0.0662244,0.0116811 0.0874606,-0.000114173"/>
   <path id="_125392144" class="fil0 str31" d="M0.0692165 0.147717l-0.000122047 -0.0836654c0.000637795,-0.0033189 0.000562992,-0.00570079 0.0055,-0.00642126l0.0323504 -0.00633465 0.0182677 0.00254724 0.0388071 -0.00501969 0.0713307 0.00890551 -0.00204724 0.0766732 -0.0296496 0.0193425 -9.84252e-005 0.00582677c0.00858268,0.00497244 0.0137126,0.0102441 0.013811,0.0159606 -0.00192126,0.0157835 -0.0257087,0.0231535 -0.0572244,0.0245 -0.0357559,-0.0010315 -0.0557008,-0.0106457 -0.0572244,-0.0245l0.000527559 -0.00332677 -0.0173898 -0.00628346 0.000145669 -0.00553543 -0.0117126 -0.00391732c-0.00381102,-0.00136614 -0.00556299,-0.00428346 -0.00527165,-0.00875197z"/>
  </g>
 </g>
</svg>
