<?xml version="1.0" encoding="UTF-8"?>
<!DOCTYPE svg PUBLIC "-//W3C//DTD SVG 1.1//EN" "http://www.w3.org/Graphics/SVG/1.1/DTD/svg11.dtd">
<!-- Creator: CorelDRAW -->
<svg xmlns="http://www.w3.org/2000/svg" xml:space="preserve" width="0.24in" height="0.24in" style="shape-rendering:geometricPrecision; text-rendering:geometricPrecision; image-rendering:optimizeQuality; fill-rule:evenodd; clip-rule:evenodd"
viewBox="0 0 0.24 0.24">
 <defs>
  <style type="text/css">
   <![CDATA[
    .str0 {stroke:#4D5356;stroke-width:0.003;stroke-linecap:round;stroke-linejoin:round}
    .str3 {stroke:#E0E3E8;stroke-width:0.003}
    .str1 {stroke:#E7E8EA;stroke-width:0.003;stroke-linecap:round;stroke-linejoin:round}
    .str2 {stroke:#4D5356;stroke-width:0.00666535;stroke-linecap:round;stroke-linejoin:round}
    .fil3 {fill:none}
    .fil0 {fill:url(#id0)}
    .fil2 {fill:url(#id1)}
    .fil1 {fill:url(#id2)}
   ]]>
  </style>
  <linearGradient id="id0" gradientUnits="userSpaceOnUse" x1="0.114677" y1="0.120138" x2="0.146417" y2="0.120138">
   <stop offset="0" style="stop-color:#BEC8D5"/>
   <stop offset="0.588235" style="stop-color:#6D7175"/>
   <stop offset="1" style="stop-color:#B8C2CE"/>
  </linearGradient>
  <linearGradient id="id1" gradientUnits="userSpaceOnUse" x1="0.187661" y1="0.137122" x2="0.195283" y2="0.100933">
   <stop offset="0" style="stop-color:#00A5DE"/>
   <stop offset="1" style="stop-color:white"/>
  </linearGradient>
  <linearGradient id="id2" gradientUnits="userSpaceOnUse" xlink:href="#id1" x1="0.0576929" y1="0.149272" x2="0.0676299" y2="0.102083">
  </linearGradient>
 </defs>
 <g id="Layer_x0020_1">
  <metadata id="CorelCorpID_0Corel-Layer"/>
  <g id="_124579872">
   <path id="_124796608" class="fil0 str0" d="M0.147803 0.161035c-0.00520472,0.00244488 -0.0105748,0.00425591 -0.0161339,0.00495276 -0.00574016,0.000720472 -0.0116732,0.000279528 -0.0177992,-0.00185827 -0.00131496,-0.000456693 -0.00267717,-0.00248031 -0.00267717,-0.00579921 0,-0.0134843 0,-0.0267874 0,-0.0399134 0,-0.0129606 0,-0.0257402 0,-0.0383819 0,-0.00304331 0.00126378,-0.0049252 0.00256693,-0.00517323 0.00583071,-0.00112992 0.0114961,-0.00114173 0.0169803,-0.00026378 0.00532283,0.000854331 0.0105236,0.00256299 0.0155827,0.0049252 0.0011063,0.000511811 0.00217323,0.00256693 0.00222047,0.00533465 0.000220472,0.0114252 0.000440945,0.0229685 0.000665354,0.0346614 0.000224409,0.011811 0.000464567,0.0237874 0.000692913,0.0359094 5.11811e-005,0.00295669 -0.000984252,0.00508268 -0.00209843,0.0056063z"/>
   <g>
    <path id="_124655024" class="fil1 str0" d="M0.00655118 0.109563c0.016874,-0.000397638 0.0329921,-0.000775591 0.0483976,-0.00113386 0.0147323,-0.000338583 0.0288858,-0.000669291 0.0424409,-0.000984252 0.00338976,0.00467323 0.00685827,0.00944094 0.010374,0.0143268 0.00358268,0.00498425 0.00725591,0.0100984 0.0110079,0.0153189 -0.014,0.00100787 -0.0286575,0.00206693 -0.044,0.00316929 -0.0160787,0.00115354 -0.0329488,0.00237402 -0.0506614,0.00365354 -0.00311417,-0.00609055 -0.00615354,-0.0120315 -0.0091063,-0.017815 -0.00288583,-0.00564567 -0.00570079,-0.0111614 -0.00845276,-0.0165354z"/>
    <path id="_124960816" class="fil2 str0" d="M0.149504 0.106224c0.0109567,-0.000255906 0.0215669,-0.000511811 0.031748,-0.000744094 0.00985433,-0.000224409 0.0193504,-0.000444882 0.028563,-0.000661417 0.00375984,0.00382677 0.00759843,0.00772441 0.0114961,0.011689 0.0039685,0.0040315 0.00801575,0.0081378 0.0121339,0.0123228 -0.00927559,0.000669291 -0.0189055,0.00136614 -0.0288465,0.00207874 -0.0103583,0.000744094 -0.021126,0.00152362 -0.0323425,0.00232677 -0.0039685,-0.00473622 -0.00788583,-0.00938189 -0.0117047,-0.0139173 -0.00375984,-0.00445669 -0.00744094,-0.00881496 -0.0110472,-0.0130945z"/>
   </g>
   <line id="_124942904" class="fil3 str1" x1="0.122055" y1="0.0769016" x2="0.14072" y2= "0.0809213" />
   <line id="_123353992" class="fil3 str0" x1="0.107622" y1="0.121571" x2="0.115807" y2= "0.12113" />
   <line id="_124716944" class="fil3 str0" x1="0.159587" y1="0.118177" x2="0.148839" y2= "0.118984" />
   <path id="_124961328" class="fil3 str2" d="M0.0241102 0.143913l0.0870827 -0.00627953 0 0.0206969c0.000551181,0.00330709 0.00038189,0.00462205 0.00267717,0.00579921 0.0103622,0.00337795 0.0214724,0.00325197 0.0339331,-0.00309449 0.00069685,-0.00187402 0.00170866,-0.00252756 0.00209843,-0.00561417l-0.000692913 -0.0359016 0.010378 -0.00134252 0.0126693 0.0150591 0.061189 -0.00440551 -0.0236299 -0.0240118 -0.060311 0.00140551 -0.000956693 -0.0213661c4.33071e-005,-0.00200394 -0.00069685,-0.00377953 -0.00222441,-0.00533071 -0.0107323,-0.00532283 -0.0215748,-0.00738189 -0.032563,-0.00466535 -0.00202362,0.00117717 -0.00288189,0.00290945 -0.00256693,0.00517717l-0.000523622 0.0413661 -0.00290551 0.000366142 -0.010374 -0.0143268 -0.0908386 0.00211811 0.0175591 0.0343504z"/>
   <line id="_122891104" class="fil3 str3" x1="0.143228" y1="0.0833504" x2="0.144287" y2= "0.155984" />
  </g>
 </g>
</svg>
