<?xml version="1.0" encoding="UTF-8"?>
<!DOCTYPE svg PUBLIC "-//W3C//DTD SVG 1.1//EN" "http://www.w3.org/Graphics/SVG/1.1/DTD/svg11.dtd">
<!-- Creator: CorelDRAW -->
<svg xmlns="http://www.w3.org/2000/svg" xml:space="preserve" width="0.24in" height="0.24in" style="shape-rendering:geometricPrecision; text-rendering:geometricPrecision; image-rendering:optimizeQuality; fill-rule:evenodd; clip-rule:evenodd"
viewBox="0 0 0.24 0.24">
 <defs>
  <style type="text/css">
   <![CDATA[
    .str6 {stroke:#4C4C4C;stroke-width:0.003}
    .str0 {stroke:#4C4C4C;stroke-width:0.003;stroke-linecap:round;stroke-linejoin:round}
    .str1 {stroke:#B2B2B2;stroke-width:0.003}
    .str2 {stroke:#CCCCCC;stroke-width:0.003}
    .str3 {stroke:#E5E5E5;stroke-width:0.003}
    .str4 {stroke:white;stroke-width:0.003}
    .str5 {stroke:#4C4C4C;stroke-width:0.00666535;stroke-linecap:round;stroke-linejoin:round}
    .fil2 {fill:none}
    .fil4 {fill:url(#id0)}
    .fil10 {fill:url(#id1)}
    .fil9 {fill:url(#id2)}
    .fil8 {fill:url(#id3)}
    .fil7 {fill:url(#id4)}
    .fil6 {fill:url(#id5)}
    .fil5 {fill:url(#id6)}
    .fil0 {fill:url(#id7)}
    .fil3 {fill:url(#id8)}
    .fil1 {fill:url(#id9)}
   ]]>
  </style>
  <linearGradient id="id0" gradientUnits="userSpaceOnUse" x1="0.0763583" y1="0.041437" x2="0.11098" y2="0.0854606">
   <stop offset="0" style="stop-color:#CCCCCC"/>
   <stop offset="1" style="stop-color:#E5E5E5"/>
  </linearGradient>
  <linearGradient id="id1" gradientUnits="userSpaceOnUse" xlink:href="#id0" x1="0.0769685" y1="0.0597008" x2="0.111276" y2="0.103323">
  </linearGradient>
  <linearGradient id="id2" gradientUnits="userSpaceOnUse" xlink:href="#id0" x1="0.0775236" y1="0.076622" x2="0.111547" y2="0.119874">
  </linearGradient>
  <linearGradient id="id3" gradientUnits="userSpaceOnUse" xlink:href="#id0" x1="0.0780984" y1="0.0937047" x2="0.111815" y2="0.136571">
  </linearGradient>
  <linearGradient id="id4" gradientUnits="userSpaceOnUse" xlink:href="#id0" x1="0.0786378" y1="0.109791" x2="0.112063" y2="0.152295">
  </linearGradient>
  <linearGradient id="id5" gradientUnits="userSpaceOnUse" xlink:href="#id0" x1="0.0791929" y1="0.126319" x2="0.112327" y2="0.168445">
  </linearGradient>
  <linearGradient id="id6" gradientUnits="userSpaceOnUse" xlink:href="#id0" x1="0.0797126" y1="0.141646" x2="0.112563" y2="0.183409">
  </linearGradient>
  <linearGradient id="id7" gradientUnits="userSpaceOnUse" xlink:href="#id0" x1="0.0274685" y1="0.0100315" x2="0.206315" y2="0.23026">
  </linearGradient>
  <linearGradient id="id8" gradientUnits="userSpaceOnUse" x1="0.0097874" y1="0.196201" x2="0.155705" y2="0.0715472">
   <stop offset="0" style="stop-color:#999999"/>
   <stop offset="1" style="stop-color:#E5E5E5"/>
  </linearGradient>
  <linearGradient id="id9" gradientUnits="userSpaceOnUse" xlink:href="#id8" x1="0.111071" y1="0.138823" x2="0.218803" y2="0.108559">
  </linearGradient>
 </defs>
 <g id="Layer_x0020_1">
  <metadata id="CorelCorpID_0Corel-Layer"/>
  <path class="fil0 str0" d="M0.114016 0.00499213c0.00668898,-0.000767717 0.0126299,-0.00104724 0.0178268,-0.000854331l0.0692165 0.0107126c0.00519291,0.00400787 0.00414173,0.00487402 0.00443701,0.00947638l-0.00520472 0.154693c-0.000409449,0.00590551 -0.00209449,0.0119055 -0.00872047,0.0176811l-0.0606102 0.0358976c-0.0072874,0.0031378 -0.0144882,0.00404724 -0.0215827,0.00272835l-0.062126 -0.0235591c-0.00355512,-0.00213386 -0.00571654,-0.0054252 -0.00649606,-0.00985433l-0.0061811 -0.152193c-0.000350394,-0.00662992 0.000559055,-0.0142283 0.00620472,-0.0185551 0.0238268,-0.0114764 0.0468543,-0.0188819 0.0732362,-0.0261732z"/>
  <path class="fil1 str1" d="M0.130961 0.232598l-0.00111811 -0.170469c5.11811e-005,-0.0072874 0.00255118,-0.0142835 0.0104173,-0.0207008l0.0607992 -0.0265787c0.00588583,0.00370079 0.00411024,0.010685 0.00407874,0.0155315l-0.00484646 0.148638c-5.51181e-005,0.00708268 -0.00359449,0.0127087 -0.00872047,0.0176811l-0.0606102 0.0358976z"/>
  <path class="fil2 str2" d="M0.130469 0.156921l-0.000625984 -0.0947913c5.11811e-005,-0.0072874 0.00255118,-0.0142835 0.0104173,-0.0207008l0.0265197 -0.0115866"/>
  <path class="fil3 str2" d="M0.047252 0.211768c-0.00437795,-0.00316929 -0.00653937,-0.00645276 -0.00649606,-0.00985433l-0.0061811 -0.152193c-0.000314961,-0.00782283 0.00160236,-0.0142638 0.00620472,-0.0185551l0.0738268 0.0148622c0.00768504,0.00287795 0.0127638,0.00824409 0.0152362,0.0161024l0.00111811 0.170469c-0.00585433,0.00285827 -0.0130512,0.00375984 -0.0215827,0.00272835l-0.062126 -0.0235591z"/>
  <path class="fil2 str3" d="M0.130378 0.142449l-0.000535433 -0.0803189c5.11811e-005,-0.0072874 0.00255118,-0.0142835 0.0104173,-0.0207008l0.0132598 -0.00579134"/>
  <path class="fil2 str3" d="M0.0776969 0.0385984l0.0369094 0.00742913c0.00768504,0.00287795 0.0127638,0.00824409 0.0152362,0.0161024l0.000444882 0.0675433"/>
  <path class="fil2 str4" d="M0.0961535 0.042315l0.0184528 0.0037126c0.00768504,0.00287795 0.0127638,0.00824409 0.0152362,0.0161024l0.00019685 0.0295945"/>
  <path class="fil2 str3" d="M0.0776969 0.0385984l0.0369094 0.00742913c0.00768504,0.00287795 0.0127638,0.00824409 0.0152362,0.0161024l0.000444882 0.0675433"/>
  <path class="fil2 str4" d="M0.0992559 0.042937l0.0153504 0.00309055c0.00768504,0.00287795 0.0127638,0.00824409 0.0152362,0.0161024l0.000255906 0.0385472"/>
  <path class="fil2 str5" d="M0.114016 0.00499213c0.00668898,-0.000767717 0.0126299,-0.00104724 0.0178268,-0.000854331l0.0692165 0.0107126c0.00519291,0.00400787 0.00414173,0.00487402 0.00443701,0.00947638l-0.00520472 0.154693c-0.000409449,0.00590551 -0.00209449,0.0119055 -0.00872047,0.0176811l-0.0606102 0.0358976c-0.0072874,0.0031378 -0.0144882,0.00404724 -0.0215827,0.00272835l-0.062126 -0.0235591c-0.00355512,-0.00213386 -0.00571654,-0.0054252 -0.00649606,-0.00985433l-0.0061811 -0.152193c-0.000350394,-0.00662992 0.000559055,-0.0142283 0.00620472,-0.0185551 0.0238268,-0.0114764 0.0468543,-0.0188819 0.0732362,-0.0261732z"/>
  <polyline class="fil2 str6" points="0.0743228,0.222035 0.0671811,0.0398228 0.0380079,0.0340118 "/>
  <line class="fil2 str3" x1="0.0640276" y1="0.042" x2="0.0712047" y2= "0.215008" />
  <g id="_126166872">
   <path id="_125729704" class="fil4 str6" d="M0.0674921 0.0476772c0.00848819,0.00222441 0.0170669,0.00446063 0.0257323,0.00672441 0.00874016,0.00227953 0.0175787,0.00459843 0.0265118,0.00692913 3.93701e-005,0.00601575 7.48031e-005,0.0119843 0.000110236,0.0178858 -0.0088189,-0.00238583 -0.0175512,-0.00475591 -0.0261811,-0.00709449 -0.00855512,-0.0023189 -0.0170236,-0.00461811 -0.0254055,-0.00689764 -0.000251969,-0.0057874 -0.000507874,-0.0116417 -0.000767717,-0.0175472z"/>
   <path id="_126481048" class="fil5 str6" d="M0.0718268 0.147157c0.00789764,0.00251181 0.015874,0.00504724 0.0239252,0.00760236 0.00811417,0.0025748 0.0163228,0.0051811 0.0245984,0.00779921 3.14961e-005,0.00516535 6.29921e-005,0.0102795 9.44882e-005,0.0153425 -0.0081811,-0.00266535 -0.0162913,-0.00530315 -0.024315,-0.00792126 -0.00795276,-0.00259055 -0.0158386,-0.00516535 -0.0236457,-0.00770472 -0.000216535,-0.00498819 -0.000437008,-0.0100276 -0.00065748,-0.0151181z"/>
   <path id="_126167096" class="fil6 str6" d="M0.0711654 0.131941c0.00798031,0.00246457 0.0160591,0.00495669 0.0242008,0.0074685 0.0082126,0.0025315 0.0165157,0.0051063 0.0248898,0.0076811 3.14961e-005,0.00527953 6.69291e-005,0.0105276 9.44882e-005,0.0157362 -0.00827165,-0.00262992 -0.0164764,-0.00523622 -0.0245945,-0.00781496 -0.00804331,-0.00255512 -0.0160236,-0.00509055 -0.0239173,-0.00759055 -0.000224409,-0.00512205 -0.000448819,-0.0102913 -0.000673228,-0.0154803z"/>
   <path id="_125728928" class="fil7 str6" d="M0.0704488 0.115531c0.00808268,0.0024252 0.0162559,0.00487008 0.0244961,0.00733858 0.00832283,0.00248819 0.0167283,0.00501181 0.0252087,0.00755118 3.14961e-005,0.00542126 6.69291e-005,0.0107953 9.84252e-005,0.0161339 -0.00837795,-0.00258661 -0.016685,-0.00514173 -0.0249016,-0.00767717 -0.00814567,-0.00251575 -0.0162244,-0.005 -0.0242087,-0.00746457 -0.000228346,-0.00525984 -0.00046063,-0.0105433 -0.000692913,-0.0158819z"/>
   <path id="_123479528" class="fil8 str6" d="M0.069752 0.0995591c0.00817323,0.00237795 0.0164488,0.00477953 0.0247874,0.00720079 0.00842126,0.00244488 0.0169291,0.00492126 0.0255157,0.00741339 3.54331e-005,0.00555118 7.08661e-005,0.0110709 0.000102362,0.0165394 -0.00848031,-0.00254331 -0.0168858,-0.00506299 -0.0252047,-0.00755512 -0.00824016,-0.0024685 -0.0164094,-0.00491732 -0.0244921,-0.00733858 -0.000232283,-0.00538583 -0.000472441,-0.0108071 -0.000708661,-0.0162598z"/>
   <path id="_126377296" class="fil9 str6" d="M0.0690157 0.0825984c0.00827559,0.00233071 0.0166496,0.0046811 0.0250906,0.00705512 0.00852756,0.0023937 0.0171417,0.00482283 0.0258504,0.00726772 3.54331e-005,0.00570079 6.29921e-005,0.0113661 9.84252e-005,0.0169724 -0.00859055,-0.00249213 -0.0171024,-0.00497638 -0.0255236,-0.00742126 -0.00834252,-0.00241732 -0.0166142,-0.00482283 -0.0247913,-0.00720079 -0.000240157,-0.00551181 -0.000480315,-0.0110709 -0.000724409,-0.0166732z"/>
   <path id="_126166424" class="fil10 str6" d="M0.0682835 0.0658071c0.00837795,0.00228346 0.0168465,0.00458268 0.0253976,0.00690157 0.00862598,0.00233858 0.0173543,0.00471654 0.0261693,0.00710236 3.54331e-005,0.00585039 7.08661e-005,0.0116535 0.000106299,0.0174016 -0.00870472,-0.00244488 -0.0173189,-0.00487008 -0.0258425,-0.00726772 -0.00844488,-0.00237402 -0.016811,-0.00473228 -0.0250866,-0.00706299 -0.000244094,-0.0056378 -0.000492126,-0.0113307 -0.000744094,-0.0170748z"/>
  </g>
 </g>
</svg>
