<?xml version="1.0" encoding="UTF-8" standalone="no"?>
<!DOCTYPE svg PUBLIC "-//W3C//DTD SVG 20010904//EN"
"http://www.w3.org/TR/2001/REC-SVG-20010904/DTD/svg10.dtd">
<!-- Created with Inkscape (http://www.inkscape.org/) -->
<svg
   id="svg1"
   sodipodi:version="0.32"
   inkscape:version="0.38.1"
   width="128.00000pt"
   height="128.00000pt"
   sodipodi:docname="usb.svg"
   sodipodi:docbase="/home/andy/andy/SVG/svgart"
   xmlns="http://www.w3.org/2000/svg"
   xmlns:inkscape="http://www.inkscape.org/namespaces/inkscape"
   xmlns:sodipodi="http://sodipodi.sourceforge.net/DTD/sodipodi-0.dtd"
   xmlns:xml="http://www.w3.org/XML/1998/namespace"
   xmlns:xlink="http://www.w3.org/1999/xlink">
  <defs
     id="defs3">
    <linearGradient
       xlink:href="#linearGradient882"
       id="linearGradient1064"
       x1="-1.1108099"
       y1="3.3240275"
       x2="0.90986663"
       y2="-0.11480361" />
    <linearGradient
       xlink:href="#linearGradient882"
       id="linearGradient881"
       x1="0.58098590"
       y1="2.0080366"
       x2="0.58098590"
       y2="-6.6841485e-006" />
    <linearGradient
       xlink:href="#linearGradient832"
       id="linearGradient921"
       x1="0.59630799"
       y1="0.73598528"
       x2="-0.055982146"
       y2="0.37869984" />
    <linearGradient
       id="linearGradient850">
      <stop
         style="stop-color:#071422;stop-opacity:1.0000000;"
         offset="0.00000000"
         id="stop851" />
      <stop
         style="stop-color:#2c528a;stop-opacity:1.0000000;"
         offset="0.50000000"
         id="stop853" />
      <stop
         style="stop-color:#a3bfdf;stop-opacity:1.0000000;"
         offset="0.75000000"
         id="stop854" />
      <stop
         style="stop-color:#59708a;stop-opacity:1.0000000;"
         offset="1.0000000"
         id="stop852" />
    </linearGradient>
    <linearGradient
       xlink:href="#linearGradient850"
       id="linearGradient849"
       x1="0.63380283"
       y1="0.47435898"
       x2="0.54577464"
       y2="0.38461539" />
    <linearGradient
       id="linearGradient838">
      <stop
         style="stop-color:#a5a5a5;stop-opacity:1.0000000;"
         offset="0.00000000"
         id="stop839" />
      <stop
         style="stop-color:#dadada;stop-opacity:1.0000000;"
         offset="0.17875445"
         id="stop885" />
      <stop
         style="stop-color:#656565;stop-opacity:1.0000000;"
         offset="0.48317710"
         id="stop842" />
      <stop
         style="stop-color:#d5d5d5;stop-opacity:1.0000000;"
         offset="0.61641997"
         id="stop841" />
      <stop
         style="stop-color:#454545;stop-opacity:1.0000000;"
         offset="1.0000000"
         id="stop840" />
    </linearGradient>
    <linearGradient
       xlink:href="#linearGradient838"
       id="linearGradient837"
       x1="0.50352114"
       y1="0.22395833"
       x2="0.77464789"
       y2="0.54166669" />
    <linearGradient
       xlink:href="#linearGradient832"
       id="linearGradient835"
       x1="0.78521127"
       y1="0.28160921"
       x2="1.1725352"
       y2="1.1954023" />
    <linearGradient
       xlink:href="#linearGradient844"
       id="linearGradient843"
       x1="0.71830988"
       y1="0.012500000"
       x2="0.57394367"
       y2="0.80000001" />
    <linearGradient
       id="linearGradient832">
      <stop
         style="stop-color:#000;stop-opacity:1;"
         offset="0"
         id="stop833" />
      <stop
         style="stop-color:#fff;stop-opacity:1;"
         offset="1"
         id="stop834" />
    </linearGradient>
    <linearGradient
       xlink:href="#linearGradient832"
       id="linearGradient836"
       x1="0.40492958"
       y1="1.5392157"
       x2="0.43309858"
       y2="-0.18627451" />
    <linearGradient
       xlink:href="#linearGradient844"
       id="linearGradient880"
       x1="0.86538464"
       y1="0.047619049"
       x2="0.46666667"
       y2="0.43650794" />
    <linearGradient
       xlink:href="#linearGradient882"
       id="linearGradient889"
       x1="0.12264151"
       y1="0.66666669"
       x2="0.52358490"
       y2="0.33730158" />
    <linearGradient
       id="linearGradient844">
      <stop
         style="stop-color:#ffffff;stop-opacity:1.0000000;"
         offset="0.00000000"
         id="stop845" />
      <stop
         style="stop-color:#ffffff;stop-opacity:0.00000000;"
         offset="1.0000000"
         id="stop848" />
    </linearGradient>
    <linearGradient
       xlink:href="#linearGradient844"
       id="linearGradient890"
       x1="0.68877554"
       y1="0.087301590"
       x2="0.44897959"
       y2="0.51984125" />
    <linearGradient
       id="linearGradient882">
      <stop
         style="stop-color:#000000;stop-opacity:0.33333334;"
         offset="0.00000000"
         id="stop883" />
      <stop
         style="stop-color:#000000;stop-opacity:0.00000000;"
         offset="1.0000000"
         id="stop884" />
    </linearGradient>
    <linearGradient
       xlink:href="#linearGradient882"
       id="linearGradient1063"
       x1="-0.012500000"
       y1="0.39583334"
       x2="0.30833334"
       y2="0.38194445" />
    <linearGradient
       id="linearGradient1105">
      <stop
         style="stop-color:#ffffff;stop-opacity:1.0000000;"
         offset="0.00000000"
         id="stop1106" />
      <stop
         style="stop-color:#ffffff;stop-opacity:0.00000000;"
         offset="1.0000000"
         id="stop1107" />
    </linearGradient>
    <linearGradient
       id="linearGradient897">
      <stop
         style="stop-color:#121212;stop-opacity:1.0000000;"
         offset="0.00000000"
         id="stop898" />
      <stop
         style="stop-color:#3f3f3f;stop-opacity:0.00000000;"
         offset="1.0000000"
         id="stop900" />
    </linearGradient>
    <linearGradient
       id="linearGradient848">
      <stop
         style="stop-color:#575757;stop-opacity:1.0000000;"
         offset="0.00000000"
         id="stop849" />
      <stop
         style="stop-color:#b8b8b8;stop-opacity:1.0000000;"
         offset="0.50000000"
         id="stop862" />
      <stop
         style="stop-color:#fff;stop-opacity:1;"
         offset="1"
         id="stop850" />
    </linearGradient>
    <linearGradient
       xlink:href="#linearGradient848"
       id="linearGradient851"
       x1="1.1139240"
       y1="0.28402367"
       x2="0.53797466"
       y2="0.68639052" />
    <linearGradient
       xlink:href="#linearGradient848"
       id="linearGradient852"
       x1="0.45901638"
       y1="0.52071005"
       x2="0.37295082"
       y2="-0.36094674" />
    <linearGradient
       xlink:href="#linearGradient848"
       id="linearGradient853"
       x1="0.74553573"
       y1="0.73372781"
       x2="-0.49553570"
       y2="0.91124260" />
    <linearGradient
       xlink:href="#linearGradient1105"
       id="linearGradient854"
       x1="0.26056337"
       y1="2.5148516"
       x2="0.43661973"
       y2="0.33663365" />
    <linearGradient
       xlink:href="#linearGradient848"
       id="linearGradient855"
       x1="0.60000002"
       y1="0.61538464"
       x2="0.92261887"
       y2="-0.22656278" />
    <linearGradient
       xlink:href="#linearGradient850"
       id="linearGradient856"
       x1="0.51724136"
       y1="0.64062500"
       x2="0.62758619"
       y2="0.52343750" />
    <linearGradient
       xlink:href="#linearGradient848"
       id="linearGradient858"
       x1="0.21311475"
       y1="0.59763312"
       x2="1.7622951"
       y2="-0.34319526" />
    <linearGradient
       xlink:href="#linearGradient848"
       id="linearGradient859"
       x1="1.2007042"
       y1="1.7862595"
       x2="0.088028170"
       y2="0.22137405" />
    <linearGradient
       xlink:href="#linearGradient897"
       id="linearGradient860"
       x1="1.0281690"
       y1="5.0784321"
       x2="0.47183096"
       y2="0.23529410" />
    <linearGradient
       xlink:href="#linearGradient848"
       id="linearGradient861"
       x1="-0.25378788"
       y1="0.83431953"
       x2="0.76893938"
       y2="0.37278107" />
    <linearGradient
       xlink:href="#linearGradient1105"
       id="linearGradient863"
       x1="-0.27856418"
       y1="2.3524966"
       x2="1.4514663"
       y2="1.3220640" />
    <linearGradient
       xlink:href="#linearGradient848"
       id="linearGradient864"
       x1="-0.73591548"
       y1="0.89473683"
       x2="0.88380283"
       y2="0.36842105" />
    <linearGradient
       xlink:href="#linearGradient848"
       id="linearGradient865"
       x1="0.35211268"
       y1="-0.15862069"
       x2="0.72535211"
       y2="0.44966444" />
    <linearGradient
       xlink:href="#linearGradient897"
       id="linearGradient896"
       x1="0.41901410"
       y1="0.33333334"
       x2="0.57042253"
       y2="0.49494949" />
    <linearGradient
       xlink:href="#linearGradient848"
       id="linearGradient903"
       x1="0.51470590"
       y1="0.39053255"
       x2="1.2279412"
       y2="0.42603549" />
    <linearGradient
       xlink:href="#linearGradient1105"
       id="linearGradient904"
       x1="-1.4016554"
       y1="0.22688310"
       x2="0.069653213"
       y2="-0.64945078"
       gradientTransform="scale(1.020544,0.979869)" />
    <linearGradient
       xlink:href="#linearGradient838"
       id="linearGradient1750"
       x1="0.28467155"
       y1="0.53906250"
       x2="0.57664233"
       y2="0.22656250" />
  </defs>
  <sodipodi:namedview
     id="base"
     pagecolor="#ffffff"
     bordercolor="#666666"
     borderopacity="1.0"
     inkscape:pageopacity="0.0"
     inkscape:pageshadow="2"
     inkscape:zoom="1.4142136"
     inkscape:cx="37.470314"
     inkscape:cy="64.256558"
     inkscape:window-width="303"
     inkscape:window-height="496"
     inkscape:window-x="85"
     inkscape:window-y="23"
     showborder="false"
     showgrid="false"
     snaptogrid="false" />
  <g
     id="g1052"
     transform="matrix(0.961080,0.000000,0.000000,0.786809,-241.6574,-62.79527)"
     style="fill:url(#linearGradient860);">
    <path
       style="fill:url(#linearGradient860);fill-rule:evenodd;stroke:none;stroke-width:0.60933900pt;fill-opacity:0.11570248;"
       d="M 365.49843,164.09490 C 351.57920,163.76700 337.57728,164.72226 324.16697,168.71161 C 308.77904,172.53396 293.16205,176.87934 279.76938,185.65481 C 274.10509,188.60712 264.63121,188.95381 262.16980,181.68942 C 258.67488,172.37720 270.16811,169.17370 277.14797,171.15484 C 283.85315,171.39918 292.93435,172.98147 298.14049,168.71106 C 291.42497,165.90815 283.81367,167.89327 276.71076,167.22728 C 271.39144,167.37978 265.50707,166.74169 260.63588,168.93783 C 253.41529,176.39897 259.68871,189.30367 268.26389,192.58139 C 278.13558,195.03995 285.69913,186.41567 294.23371,183.17810 C 312.06483,175.42374 331.00233,170.06913 350.21737,167.12898 C 363.23190,166.20575 376.17346,168.93637 388.76777,171.88767 C 394.62674,171.33235 400.36959,183.39178 394.21585,183.26597 C 392.03340,181.98400 389.96956,180.00692 387.33889,181.35244 C 383.18959,182.38914 378.66119,182.79769 374.74309,184.21746 C 372.30977,183.33435 370.03959,179.81111 366.89032,179.41506 C 359.18830,177.95703 351.60746,180.99055 344.02022,182.02445 C 336.24278,183.64807 328.67851,184.55017 320.88633,186.17818 C 318.67409,187.08412 316.14356,185.80318 315.97312,188.11954 C 315.76927,192.46273 313.18712,194.18133 308.91469,194.20249 C 299.43569,196.23025 289.28573,199.09922 280.31363,201.44175 C 280.64720,201.55290 278.48635,205.18297 278.18813,207.00419 C 276.21940,210.40608 277.75198,214.13261 280.19749,216.81487 C 287.04779,226.37696 293.89812,235.93906 300.74843,245.50115 C 303.52965,245.91612 306.14371,243.06598 309.30998,242.67421 C 318.90405,239.36653 328.49811,236.05884 338.09218,232.75115 C 340.07968,236.36408 344.03777,238.94282 348.21718,236.90740 C 362.80799,229.70052 377.49200,222.66685 392.02458,215.35177 C 396.20566,212.26514 399.89315,204.25364 394.59218,200.56365 C 402.05125,200.84122 403.43544,191.25557 399.92871,186.72277 C 405.08031,181.47382 400.52212,171.77502 393.52219,169.77463 C 384.87834,165.41597 375.02404,164.49901 365.49843,164.09490 z "
       id="path1025" />
    <path
       style="fill:url(#linearGradient860);fill-rule:evenodd;stroke:none;stroke-width:0.60933900pt;fill-opacity:0.11570248;"
       d="M 340.56250 163.71875 C 323.21107 166.77612 305.85107 171.20094 289.78469 178.40489 C 282.83367 181.47797 275.23255 188.18410 267.31250 185.00000 C 261.73311 182.56499 262.30135 174.08599 268.43750 172.90625 C 279.23586 171.13838 291.93075 176.71424 301.24408 168.64810 C 301.69599 167.07153 293.84236 166.26860 290.74813 165.79814 C 281.47060 165.68568 271.87306 164.73812 262.77717 166.60598 C 253.68598 169.22928 254.70306 181.87737 259.82249 187.77770 C 264.30576 194.83341 274.25820 196.57767 281.12448 191.89728 C 291.40626 186.21818 301.95373 181.25862 313.19699 177.86966 C 332.93190 171.38856 354.24156 165.84817 375.01463 170.72675 C 380.83443 172.68703 387.99002 171.97717 392.90625 175.75000 C 396.68676 180.00716 394.39457 182.19019 389.96875 179.59375 C 383.50094 178.69125 376.49192 185.18938 370.96875 179.68750 C 365.85022 175.72902 358.96156 178.31161 353.09380 178.57884 C 340.93508 181.23912 328.53464 182.73263 316.39222 185.55789 C 313.56504 187.10266 313.85124 193.76062 308.62500 192.59375 C 298.70238 195.10659 288.18718 197.24457 278.81250 200.84375 C 276.07759 206.24111 274.02023 213.57771 279.16945 218.25991 C 286.11767 227.94808 293.11039 237.60541 300.03125 247.31250 C 312.74012 243.86939 324.94132 238.74800 337.46875 234.68750 C 340.99923 240.67447 349.26101 239.42329 354.08791 235.81536 C 367.53281 229.05667 381.47354 222.86900 394.34829 215.23050 C 397.78174 211.88064 400.31198 206.07406 397.59375 201.59375 C 403.52448 199.77968 404.69928 191.56446 401.81250 186.78125 C 407.48094 178.47285 398.99732 167.99977 390.26466 166.83698 C 374.49586 160.96496 357.00745 162.17392 340.56250 163.71875 z "
       id="path1031" />
    <path
       style="fill:url(#linearGradient860);fill-rule:evenodd;stroke:none;stroke-width:0.60933900pt;fill-opacity:0.11570248;"
       d="M 353.06250 160.28125 C 335.67243 161.74979 318.54797 165.43054 302.06250 171.15625 C 307.00973 169.13906 300.85041 164.62929 297.76114 164.38490 C 286.50859 162.96530 274.74138 162.15615 263.53374 164.39522 C 253.60970 165.80707 251.38447 178.43379 255.78125 186.03125 C 259.94664 195.30862 271.79889 199.77230 280.84011 194.76707 C 295.51148 187.62663 310.43622 180.42635 326.41324 176.69826 C 343.70628 171.94423 362.10821 169.56120 379.70102 174.23705 C 383.09134 175.17599 388.45788 176.03256 390.43750 177.53125 C 383.93470 175.75606 376.94485 182.22603 370.99986 177.04448 C 359.26972 172.60991 346.84273 178.06787 335.00075 179.45222 C 328.14243 180.78450 321.05887 182.07284 314.46875 184.06250 C 312.37200 187.86967 309.39842 190.86018 304.91841 191.01381 C 295.39613 193.57270 285.09082 195.09074 276.56250 199.93750 C 272.72387 207.08726 272.66772 216.89559 279.22473 222.50540 C 285.84422 231.74566 292.49095 240.96677 299.09375 250.21875 C 311.65739 245.99299 324.21856 241.75985 336.78125 237.53125 C 343.02393 244.50884 353.01045 239.56554 359.61893 235.81488 C 372.48262 229.15093 386.43569 223.83874 397.74518 214.73698 C 400.37749 211.45295 401.81994 206.89664 400.46875 202.78125 C 405.69251 199.58327 406.59120 192.23353 404.43750 186.90625 C 409.69683 176.25147 399.13184 164.62833 388.49307 163.82649 C 377.04721 160.18370 364.96814 159.95011 353.06250 160.28125 z M 274.15625 175.09375 C 280.36199 175.31251 286.64399 175.88976 292.81250 174.93750 C 285.13605 177.05038 278.60882 183.44002 270.37500 183.06250 C 264.35966 182.73971 265.26342 174.86417 270.87375 174.85557 C 271.96407 174.90835 273.06270 175.01773 274.15625 175.09375 z "
       id="path1037" />
    <path
       style="fill:url(#linearGradient860);fill-rule:evenodd;stroke:none;stroke-width:0.60933900pt;fill-opacity:0.11570248;"
       d="M 355.12500 164.93750 C 335.40296 165.53436 316.14758 170.99345 297.70261 177.64133 C 287.54039 180.33110 279.22534 190.51305 268.01022 187.90040 C 260.03562 186.62485 257.83756 173.63501 266.19779 171.14576 C 275.78340 167.43692 286.64127 173.66078 296.12500 169.03125 C 287.12459 166.94324 277.68318 168.59391 268.50000 168.12500 C 263.47504 167.82171 258.10564 170.49842 258.39022 176.22045 C 257.79719 185.78263 267.98139 195.76881 277.50754 191.01588 C 286.42172 186.71178 294.86725 181.21762 304.50834 178.24541 C 320.03768 172.59690 336.20468 167.96610 352.66173 166.29684 C 365.98428 165.81271 379.30517 168.66881 392.04204 171.95023 C 395.70658 173.93422 399.78007 180.00412 396.21875 183.56250 C 392.43093 184.85806 389.24476 179.92960 385.10716 182.64889 C 380.39882 182.75984 374.90612 187.29622 371.16045 182.73216 C 363.66526 176.83013 353.51461 181.63278 345.11693 182.65889 C 335.78343 184.34568 326.44491 186.09267 317.09375 187.62500 C 316.78489 191.87530 313.48459 195.40133 309.00000 195.00000 C 299.60174 197.24665 290.23225 199.59439 280.90625 202.12500 C 278.89714 206.65748 276.37424 212.33801 280.84375 216.34375 C 287.60417 225.77083 294.36458 235.19792 301.12500 244.62500 C 313.42277 240.45787 325.94589 236.01110 338.37500 231.78125 C 340.58920 236.72036 346.64494 238.11884 350.82888 234.71796 C 364.52508 227.76555 378.68007 221.43542 392.09077 214.09582 C 396.36707 210.69598 398.45003 203.19334 392.81250 199.96875 C 399.66693 201.05226 403.20735 192.64983 399.46511 187.57292 C 399.84241 184.53630 402.93566 180.17759 400.10633 176.53714 C 395.95041 169.23128 386.40057 168.00850 378.94217 166.14725 C 371.05525 164.88082 363.09256 164.80227 355.12500 164.93750 z "
       id="path1039" />
    <path
       style="fill:url(#linearGradient860);fill-rule:evenodd;stroke:none;stroke-width:0.60933900pt;fill-opacity:0.11570248;"
       d="M 340.81250 159.28125 C 328.89327 161.16961 317.13381 163.92192 305.59375 167.46875 C 301.39243 159.63821 290.99660 161.66598 283.58825 160.95815 C 274.42252 161.00856 263.76578 159.84809 256.17261 165.81811 C 246.01658 175.71815 253.26966 194.41035 266.06357 198.12143 C 268.26180 199.76651 273.78559 198.34583 274.25000 199.50000 C 270.11204 207.46198 271.03768 217.70122 277.21875 224.40625 C 284.72316 233.56954 291.10010 243.60898 298.15625 253.12500 C 310.88645 248.84683 323.61441 244.56199 336.34375 240.28125 C 344.80484 247.12363 355.56852 240.59366 363.66749 236.51408 C 376.48360 229.71918 390.98662 224.64569 401.09421 213.91949 C 404.22562 209.74111 401.89924 203.74959 405.94863 200.20746 C 409.35357 194.43995 406.11224 187.74550 408.06250 181.71875 C 408.22560 169.94848 396.84403 161.29602 385.78440 160.71233 C 371.19813 157.20897 355.60939 157.13374 340.81250 159.28125 z M 279.31250 177.78125 C 281.09634 177.53786 274.02777 181.21706 272.06043 180.40237 C 264.62149 177.90505 275.64136 176.46056 278.53388 177.73315 L 279.31250 177.78125 z M 309.68750 186.12500 C 305.27479 188.83921 300.20842 189.91009 295.18750 190.87500 C 300.46615 188.57570 305.84145 186.47624 311.15625 184.25000 C 310.66667 184.87500 310.17708 185.50000 309.68750 186.12500 z "
       id="path1050" />
  </g>
  <path
     style="fill:url(#linearGradient855);fill-opacity:0.75000000;fill-rule:evenodd;stroke-width:1.0000000pt;"
     d="M -15.053703,285.19652 L 9.7170671,280.03454 L 26.991877,290.47141 C 26.991877,290.47141 32.390257,306.30664 24.112747,310.26545 C 15.835237,314.22426 14.395667,312.06491 14.395667,312.06491 L 2.8791371,316.74350 L -19.074263,290.11152 L -15.053703,285.19652 z "
     id="path839"
     sodipodi:nodetypes="cccccccc"
     transform="matrix(0.585624,0.000000,0.000000,0.585624,127.9495,-95.55016)" />
  <path
     style="fill:url(#linearGradient852);fill-opacity:0.75000000;fill-rule:evenodd;stroke-width:1.0000000pt;"
     d="M -117.32470,311.70502 L -71.978343,370.00748 C -69.290343,373.46348 -62.954203,374.09269 -59.022243,372.16683 L 11.516537,337.61723 C 18.946357,333.97814 25.152527,319.06008 18.714367,313.86437 L -22.313283,280.75433 C -27.964193,276.19394 -36.817062,276.30499 -43.906793,277.87519 L -109.03174,292.29875 C -112.44133,293.05389 -113.51688,297.90170 -114.44556,301.26816 L -117.32470,311.70502 z "
     id="path832"
     sodipodi:nodetypes="czzzzzzzzc"
     transform="matrix(0.585624,0.000000,0.000000,0.585624,127.9495,-95.55016)" />
  <path
     style="fill:url(#linearGradient903);fill-opacity:0.14876033;fill-rule:evenodd;stroke:#000000;stroke-width:1.0000000pt;stroke-opacity:0.22314049;"
     d="M -116.18916,310.22462 L -71.351764,370.81742 C -68.747426,374.33689 -62.444446,372.70685 -59.565312,371.89709 C -56.596205,370.99737 -42.937801,351.96984 -58.784990,340.63146 L -108.69663,292.28580 C -110.68057,290.36411 -113.19637,296.55759 -113.97704,299.38755 L -116.18916,310.22462 z "
     id="path906"
     sodipodi:nodetypes="czzcccc"
     transform="matrix(0.585624,0.000000,0.000000,0.585624,127.9495,-95.55016)" />
  <path
     style="fill:url(#linearGradient853);fill-opacity:0.75000000;fill-rule:evenodd;stroke-width:1.0000000pt;"
     d="M -130.96736,384.39864 L -67.426193,362.55376 C -64.698743,361.61609 -57.866263,350.57891 -59.868463,348.50300 L -107.48525,299.13351 C -108.80203,297.76826 -170.01831,312.88801 -170.66653,314.67061 L -174.73824,325.86781 C -175.67311,328.43871 -175.31241,331.78666 -173.72031,334.01123 L -136.56596,385.92553 C -135.44018,387.49854 -132.79664,385.02753 -130.96736,384.39864 z "
     id="path835"
     sodipodi:nodetypes="czzzzzzzz"
     transform="matrix(0.585624,0.000000,0.000000,0.585624,127.9495,-95.55016)" />
  <path
     style="fill:url(#linearGradient858);fill-opacity:0.75000000;fill-rule:evenodd;stroke-width:1.0000000pt;"
     d="M -170.42152,313.75896 L -107.60762,300.18849 L -105.80816,295.50989 L -59.382133,342.65571 L -59.742023,349.49365 L -125.47872,372.54855 L -126.34757,365.85968 L -166.10282,315.55842 C -167.06983,314.33489 -171.94588,314.08829 -170.42152,313.75896 z "
     id="path830"
     sodipodi:nodetypes="ccccccczz"
     transform="matrix(0.585624,0.000000,0.000000,0.585624,127.9495,-95.55016)" />
  <path
     style="fill:#0f0f0f;fill-rule:evenodd;stroke-width:1.0000000pt;"
     d="M -131.32725,384.75854 L -125.72865,374.07030 C -124.39039,371.51545 -123.92130,367.66552 -125.72865,365.41792 L -165.42782,316.04843 C -166.61645,314.57026 -170.37821,313.24791 -171.02642,315.03051 L -175.09813,326.22771 C -176.03300,328.79861 -175.67230,332.14656 -174.08020,334.37113 L -136.92585,386.28543 C -135.80007,387.85844 -132.22481,386.47206 -131.32725,384.75854 z "
     id="path826"
     sodipodi:nodetypes="czzzzzzzz"
     transform="matrix(0.585624,0.000000,0.000000,0.585624,127.9495,-95.55016)" />
  <path
     style="fill:url(#linearGradient859);fill-opacity:0.75000000;fill-rule:evenodd;stroke-width:1.0000000pt;"
     d="M -123.80275,366.04867 L -59.400220,344.07345 C -58.891256,344.70965 -56.259116,348.15575 -61.297596,349.95521 C -66.336076,351.75466 -122.29769,371.67970 -123.44286,371.80694 C -122.54490,368.86959 -122.79210,367.58637 -123.80275,366.04867 z "
     id="path827"
     sodipodi:nodetypes="ccccc"
     transform="matrix(0.585624,0.000000,0.000000,0.585624,127.9495,-95.55016)" />
  <path
     style="fill:url(#linearGradient904);fill-rule:evenodd;stroke-width:3.5000000;stroke-linecap:round;stroke-linejoin:round;stroke-opacity:0.22314049;fill-opacity:1.0000000;"
     d="M -110.48676,339.05679 L -102.20925,350.93322 L -91.412493,348.05408 L -101.51504,335.81777 L -110.48676,339.05679 z "
     id="path828"
     sodipodi:nodetypes="ccccc"
     transform="matrix(0.585624,0.000000,0.000000,0.585624,127.9495,-95.55016)" />
  <path
     style="fill:url(#linearGradient863);fill-rule:evenodd;stroke-width:3.5000000;stroke-linecap:round;stroke-linejoin:round;stroke-opacity:0.22314049;fill-opacity:1.0000000;"
     d="M -126.68189,322.14188 L -116.60492,319.62264 L -124.88243,309.54568 L -133.15994,312.06491 L -126.68189,322.14188 z "
     id="path829"
     sodipodi:nodetypes="ccccc"
     transform="matrix(0.585624,0.000000,0.000000,0.585624,127.9495,-95.55016)" />
  <path
     style="fill:url(#linearGradient851);fill-opacity:0.75000000;fill-rule:evenodd;stroke-width:1.0000000pt;"
     d="M -59.287513,341.84471 C -42.828503,358.43435 -62.827623,373.70551 -58.927623,371.71572 L -41.292923,362.71843 C -33.923513,358.95853 -26.836623,342.68717 -32.655533,336.80622 L -83.785723,285.13089 L -111.47181,290.38019 L -59.287513,341.84471 z "
     id="path833"
     sodipodi:nodetypes="czzzzcz"
     transform="matrix(0.585624,0.000000,0.000000,0.585624,127.9495,-95.55016)" />
  <path
     style="fill:url(#linearGradient896);fill-opacity:0.75000000;fill-rule:evenodd;stroke-width:1.0000000pt;"
     d="M -149.23157,335.71235 L -145.88714,340.70718 L -82.775093,320.70231 L -84.934443,317.82318 L -149.23157,335.71235 z "
     id="path836"
     sodipodi:nodetypes="ccccc"
     transform="matrix(0.585624,0.000000,0.000000,0.585624,127.9495,-95.55016)" />
  <path
     style="fill:url(#linearGradient865);fill-opacity:0.75000000;fill-rule:evenodd;stroke-width:1.0000000pt;"
     d="M -44.266683,335.45787 C -44.266683,335.45787 -9.3571829,314.94405 -5.3983729,319.62264 C -1.4395629,324.30123 -43.187003,341.93593 -46.426033,340.13647 C -49.665053,338.33701 -44.266683,335.45787 -44.266683,335.45787 z "
     id="path837"
     transform="matrix(0.585624,0.000000,0.000000,0.585624,127.9495,-95.55016)" />
  <path
     style="fill:url(#linearGradient864);fill-opacity:0.75000000;fill-rule:evenodd;stroke-width:1.0000000pt;"
     d="M 12.236317,315.30394 C 14.035777,314.94405 20.153937,315.30394 17.634697,316.38361 C 15.115457,317.46329 -35.269393,341.57603 -38.148523,341.93593 C -41.027653,342.29582 -35.629283,339.05679 -35.629283,339.05679 L 12.236317,315.30394 z "
     id="path838"
     transform="matrix(0.585624,0.000000,0.000000,0.585624,127.9495,-95.55016)" />
  <path
     style="fill:url(#linearGradient861);fill-opacity:0.75000000;fill-rule:evenodd;stroke-width:1.0000000pt;"
     d="M 19.434157,292.27087 C 19.434157,292.27087 24.832527,288.31206 24.472637,291.55108 C 24.112747,294.79011 7.1978371,302.70773 4.6785971,302.70773 C 2.1593471,302.70773 19.434157,292.27087 19.434157,292.27087 z "
     id="path840"
     transform="matrix(0.585624,0.000000,0.000000,0.585624,127.9495,-95.55016)" />
  <path
     style="fill:#b7b7b7;fill-rule:evenodd;stroke:#000000;stroke-width:1.0000000pt;"
     d="M -3.2390255,105.29646 C -3.2390255,105.29646 -0.71978345,99.898082 2.1593503,103.13711 C 5.0384841,106.37613 39.408144,147.76368 41.027656,150.46287 C 42.647169,153.34200 40.487819,156.22114 39.048252,159.10027 C 37.608685,161.97940 -3.2390255,105.29646 -3.2390255,105.29646 z "
     id="path923"
     sodipodi:nodetypes="cczzc"
     transform="matrix(0.585624,0.000000,0.000000,0.585624,28.99315,30.82775)" />
  <path
     style="fill:url(#linearGradient854);fill-rule:evenodd;stroke:none;stroke-opacity:1;stroke-width:1pt;stroke-linejoin:miter;stroke-linecap:butt;fill-opacity:0.75;"
     d="M 81.317280,72.495536 C 81.317280,72.495536 89.714175,86.858642 99.436891,85.311846 C 109.15961,83.765050 121.97592,79.124662 125.95339,83.544079 C 129.93087,87.963497 135.67611,86.195730 135.67611,86.195730 L 114.90485,69.843885 C 111.28685,66.995672 105.69960,67.077243 101.20466,68.076118 L 81.317280,72.495536 z "
     id="path1081"
     sodipodi:nodetypes="czcczzc" />
  <text
     xml:space="preserve"
     style="fill:black;fill-opacity:1;stroke:none;font-family:helvetica;font-style:normal;font-weight:normal;font-size:12px;stroke-opacity:1;stroke-width:1pt;stroke-linejoin:miter;stroke-linecap:butt;"
     x="21.823867"
     y="-20.587088"
     id="text1232"><tspan
       id="tspan1233">USB</tspan></text>
  <text
     xml:space="preserve"
     style="fill:black;fill-opacity:1;stroke:none;font-family:helvetica;font-style:normal;font-weight:normal;font-size:12px;stroke-opacity:1;stroke-width:1pt;stroke-linejoin:miter;stroke-linecap:butt;"
     x="148.10310"
     y="-58.970419"
     id="text1235"
     transform="scale(0.246729,0.246729)"><tspan
       id="tspan1236">Created by Andrew Fitzsimon</tspan></text>
</svg>
