
<svg clip-rule="evenodd" fill-rule="evenodd" height="72"
     image-rendering="optimizeQuality" shape-rendering="geometricPrecision"
     text-rendering="geometricPrecision" viewBox="0 0 72 72" width="72"
     xmlns="http://www.w3.org/2000/svg"
     xmlns:xlink="http://www.w3.org/1999/xlink">
    <linearGradient id="a" gradientUnits="userSpaceOnUse" x1="65.3315"
                    x2="6.66969" y1="66.1937" y2="5.80748">
        <stop offset="0" stop-color="#a0a0a0"/>
        <stop offset=".619608" stop-color="#e0e0e0"/>
        <stop offset="1" stop-color="#fff"/>
    </linearGradient>
    <rect fill="url(#a)" height="66.15" rx="9.39803" stroke="#000"
          stroke-width="3" width="66.15" x="2.92559" y="2.92559"/>
    <g fill="none">
        <path d="m53.9976 16.761c-4.54488 3.4878-5.0374 11.0634-4.83189 22.6346"
              stroke="#b0b0b0" stroke-linecap="round" stroke-width="1.99961"/>
        <path d="m56.5701 22.9004c-1.37598 2.30906-2.83937 14.7496-.94252 22.5638"
              stroke="#ababab" stroke-width=".9"/>
        <path d="m56.635 22.748c-1.37362 2.31024-1.80591 6.73937-1.91102 12.2185"
              stroke="#ccc" stroke-width=".9"/>
        <path d="m54.2232 53.635c5.52047 5.10709 10.0004-5.07992 9.15709-21.9969"
              stroke="#ababab" stroke-linecap="round" stroke-width="1.99961"/>
        <path d="m56.4709 54.8457c4.05118.263386 6.0248-3.78189 6.82323-15.1618"
              stroke="#ccc" stroke-linecap="round" stroke-width="1.99961"/>
        <path d="m58.4067 54.5906c2.32087-1.16575 2.18504-2.22047 3.19134-4.92992"
              stroke="#e8e8e8" stroke-linecap="round" stroke-width="1.99961"/>
        <ellipse cx="56.3423" cy="35.4705" rx="4.15254" ry="16.5561"
                 stroke="#000" stroke-width="4.16693"/>
        <path d="m47.3114 25.0972h-26.3327" stroke="#b0b0b0"
              stroke-width="1.99961"/>
        <path d="m20.3752 31.35h27.1961" stroke="#ccc" stroke-width="1.99961"/>
        <path d="m21.5799 28.3429h25.6264" stroke="#000" stroke-linecap="round"
              stroke-width="4.16693"/>
        <path d="m20.8252 46.1539h27.1961" stroke="#e8e8e8"
              stroke-width="1.99961"/>
        <path d="m21.5799 43.3819h25.6264" stroke="#000" stroke-linecap="round"
              stroke-linejoin="round" stroke-width="4.00039"/>
        <path d="m27.9673 39.9898v-8.0752" stroke="#000" stroke-width="4.16693"/>
        <path d="m42.5528 39.9909.0011-8.0752" stroke="#000"
              stroke-width="4.16693"/>
        <path d="m35.2594 39.9472v-8.0326" stroke="#000" stroke-width="4.16693"/>
        <path d="m21.5551 39.6094-4.0016-7.0145" stroke="#000"
              stroke-width="4.16693"/>
        <path d="m16.572 42.1807-7.2283-3.6" stroke="#000"
              stroke-width="4.16693"/>
    </g>
</svg>