
<svg clip-rule="evenodd" fill-rule="evenodd" height="72"
     image-rendering="optimizeQuality" shape-rendering="geometricPrecision"
     text-rendering="geometricPrecision" viewBox="0 0 72 72" width="72"
     xmlns="http://www.w3.org/2000/svg"
     xmlns:xlink="http://www.w3.org/1999/xlink">
    <linearGradient id="a" gradientUnits="userSpaceOnUse" x1="65.3315"
                    x2="6.66969" y1="66.1937" y2="5.80748">
        <stop offset="0" stop-color="#a0a0a0"/>
        <stop offset=".619608" stop-color="#e0e0e0"/>
        <stop offset="1" stop-color="#fff"/>
    </linearGradient>
    <radialGradient id="b" cx="35.7106" cy="23.7" gradientUnits="userSpaceOnUse"
                    r="25.7539">
        <stop offset="0" stop-color="#ffd1c2"/>
        <stop offset=".211765" stop-color="#ab4968"/>
        <stop offset="1" stop-color="#da251d"/>
    </radialGradient>
    <rect fill="url(#a)" height="66.15" rx="9.39803" stroke="#000"
          stroke-width="3" width="66.15" x="2.92559" y="2.92559"/>
    <ellipse cx="35.999" cy="36" fill="url(#b)" rx="14.35" ry="15" stroke="#000"
             stroke-width="4.00039"/>
    <path d="m18.3425 36c0-10.1327 7.90866-18.3496 17.6551-18.3496" fill="none"
          stroke="#878787" stroke-width="1.99961"/>
    <path d="m35.9976 54.3496c-9.74646 0-17.6551-8.21693-17.6551-18.3496"
          fill="none" stroke="#c3c3c3" stroke-width="1.99961"/>
    <path d="m53.6551 36c0 10.1327-7.90748 18.3496-17.6575 18.3496" fill="none"
          stroke="#e0e0e0" stroke-width="1.99961"/>
    <path d="m35.9976 17.6504c9.75 0 17.6575 8.21693 17.6575 18.3496"
          fill="none" stroke="#c3c3c3" stroke-width="1.99961"/>
    <g stroke-width=".9">
        <path d="m51.8965 37.0406h5.4614v4.9807l6.6248-6.3945-6.6248-6.3945v4.9807h-5.4614z"
              stroke="#000"/>
        <path d="m51.672 38.3043 4.9241-.0496.0815 5.8748 7.735-7.5484"
              fill="none" stroke="#e0e0e0"/>
        <path d="m60.5457 40.3559 3.8657-3.7748" fill="none" stroke="#f0f0f0"/>
        <path d="m56.6776 43.4528-.0815-5.8748" fill="none" stroke="#f0f0f0"/>
        <path d="m46.6063 48.1571 3.8622 3.8622-3.522 3.522 9.2055.1618-.163-9.2055-3.5209 3.5221-3.8622-3.8622z"
              stroke="#000"/>
        <path d="m48.4654 25.4126 3.8622-3.8622 3.522 3.522.1618-9.2055-9.2055.163 3.5221 3.5209-3.8623 3.8622z"
              stroke="#000"/>
        <path d="m20.0126 37.4161h-5.4614v4.9808l-6.62482-6.3945 6.62482-6.3945v4.9807h5.4614z"
              stroke="#000"/>
        <path d="m20.237 38.6799-4.924-.0496-.0815 5.8748-7.73504-7.5484"
              fill="none" stroke="#e0e0e0"/>
        <path d="m11.3634 40.7315-3.86576-3.7748" fill="none" stroke="#f0f0f0"/>
        <path d="m15.2315 43.8283.0815-5.8748" fill="none" stroke="#f0f0f0"/>
        <path d="m37.3783 19.7492v-5.4614h4.9808l-6.3945-6.62481-6.3945 6.62481h4.9807v5.4614z"
              stroke="#000"/>
        <path d="m38.6421 19.9736-.0496-4.924 5.8748-.0815-7.5484-7.73503"
              fill="none" stroke="#e0e0e0"/>
        <path d="m40.6937 11.1-3.7748-3.86575" fill="none" stroke="#f0f0f0"/>
        <path d="m43.7906 14.9681-5.8749.0815" fill="none" stroke="#f0f0f0"/>
        <path d="m37.4539 52.2035v5.4615h4.9807l-6.3944 6.6248-6.3945-6.6248h4.9807v-5.4615z"
              stroke="#000"/>
        <path d="m38.7177 51.9791-.0496 4.924 5.8748.0815-7.5484 7.7351"
              fill="none" stroke="#e0e0e0"/>
        <path d="m40.7693 60.8528-3.7748 3.8657" fill="none" stroke="#f0f0f0"/>
        <path d="m43.8661 56.9846-5.8748-.0815" fill="none" stroke="#f0f0f0"/>
        <path d="m23.8724 25.1846-3.8622-3.861-3.522 3.5209-.1618-9.2055 9.2055.163-3.5221 3.522 3.8622 3.861z"
              stroke="#000"/>
        <path d="m26.0209 48.2445-3.8611 3.8622 3.5209 3.522-9.2055.1619.163-9.2056 3.522 3.5221 3.8611-3.8622z"
              stroke="#000"/>
    </g>
    <path d="m24.2705 36c0-2.96102 1.0063-5.67874 2.67992-7.79764 2.15079-2.7248 5.40709-4.4622 9.04843-4.4622"
          fill="none" stroke="#f99" stroke-linecap="round"
          stroke-linejoin="round" stroke-width="1.99961"/>
    <path d="m47.7272 36c0 2.00906-.461811 3.90709-1.28268 5.58071-1.94291 3.96614-5.89252 6.67913-10.4457 6.67913"
          fill="none" stroke="#f66" stroke-linecap="round"
          stroke-linejoin="round" stroke-width="1.99961"/>
    <path d="m26.9504 28.2024c2.15079-2.7248 5.40709-4.4622 9.04843-4.4622"
          fill="none" stroke="#fcc" stroke-linecap="round"
          stroke-linejoin="round" stroke-width="1.99961"/>
    <path d="m46.4445 41.5807c-1.94291 3.96614-5.89252 6.67913-10.4457 6.67913"
          fill="none" stroke="#f99" stroke-linecap="round"
          stroke-linejoin="round" stroke-width="1.99961"/>
</svg>