
<svg clip-rule="evenodd" fill-rule="evenodd" height="72"
     image-rendering="optimizeQuality" shape-rendering="geometricPrecision"
     text-rendering="geometricPrecision" viewBox="0 0 72 72" width="72"
     xmlns="http://www.w3.org/2000/svg"
     xmlns:xlink="http://www.w3.org/1999/xlink">
    <clipPath id="a">
        <path d="m43.3618 37.0524c1.12795-2.33031 11.1189 2.48268 12.4713 3.98622 1.20236 1.35354 2.40472 2.4815 3.23031 4.13622.751181 1.57913 1.87795 2.33268 2.32913 4.13622.0744094.3-4.45276-4.32283-5.49331-4.72913-2.03976-.796063 2.10945 3.15472 2.78858 4.20236.295276.453543 4.73268 6.08976 3.3815 4.7374-1.12677-1.12795-4.04646-4.45984-5.40945-5.11299-.364961-.174803 1.27677 3.38386 1.27677 4.21063 0 2.85827-2.54528-1.43504-2.92913-2.10591-.517323-.907087-1.05236-2.55827-1.95354-2.85709 0 0-.375591 1.80472-.375591 2.70709 0 4.4374-1.12677-.225591-1.50236-1.88031-.451181-1.80472-3.5315-6.16654-4.88386-7.52008-.601181-.601181-2.02795-1.88031-2.32913-2.4815-.0744094-.15-.675591-.676772-.675591-.826772 0-.526772.225591-1.20354.0744094-.602362z"/>
    </clipPath>
    <linearGradient id="b" gradientUnits="userSpaceOnUse" x1="15.7795"
                    x2="49.4457" y1="27.3697" y2="12.5563">
        <stop offset="0" stop-color="#9ab3ff"/>
        <stop offset=".290196" stop-color="#6175c1"/>
        <stop offset="1" stop-color="#a6bfff"/>
    </linearGradient>
    <linearGradient id="c" gradientUnits="userSpaceOnUse" x1="15.7795"
                    x2="49.4457" y1="27.3697" y2="12.5563">
        <stop offset="0" stop-color="#ccf"/>
        <stop offset=".290196" stop-color="#5d5387"/>
        <stop offset="1" stop-color="#e5e5ff"/>
    </linearGradient>
    <linearGradient id="d" gradientUnits="userSpaceOnUse" x1="52.6748"
                    x2="12.711" xlink:href="#b" y1="38.7531" y2="35.5063"/>
    <linearGradient id="e" gradientUnits="userSpaceOnUse" x1="52.6748"
                    x2="12.711" xlink:href="#c" y1="38.7531" y2="35.5063"/>
    <linearGradient id="f" gradientUnits="userSpaceOnUse" x1="65.3315"
                    x2="6.66969" y1="66.1937" y2="5.80748">
        <stop offset="0" stop-color="#7d96e0"/>
        <stop offset=".619608" stop-color="#7182d8"/>
        <stop offset="1" stop-color="#aac5ff"/>
    </linearGradient>
    <linearGradient id="g" gradientUnits="userSpaceOnUse" x1="65.3315"
                    x2="6.66969" y1="66.1937" y2="5.80748">
        <stop offset="0" stop-color="#a0a0a0"/>
        <stop offset=".619608" stop-color="#e0e0e0"/>
        <stop offset="1" stop-color="#fff"/>
    </linearGradient>
    <g stroke="#000">
        <rect fill="url(#g)" height="66.15" rx="9.39803" stroke-width="3"
              width="66.15" x="2.92559" y="2.92559"/>
        <path d="m13.65 20.2512c1.26496-2.48858 12.5858-2.48858 18.9602-2.48858 6.37677 0 15.8303 0 19.1268 2.20039l-6.12283 32.9752c-1.93228 2.44724-8.66575 3.55984-13.0016 3.55984-4.33346 0-11.074-1.12913-13.0016-3.55984l-5.96102-32.687z"
              fill="url(#e)" stroke-linecap="round" stroke-linejoin="round"
              stroke-width="4.00039"/>
        <ellipse cx="32.6126" cy="19.963" fill="url(#c)" rx="19.1244"
                 ry="2.20039" stroke-width="1.99961"/>
        <ellipse rx=".551575" ry="1.58386" stroke-width=".9"
                 transform="matrix(.974881 .222726 -.222726 .974881 43.3878 37.0571)"/>
    </g>
    <g clip-path="url(#a)">
        <path d="m-256.713-263.574h619.037v617.302h-619.037z" fill="#b4cdff"/>
        <g stroke="#314a7c">
            <path d="m11.7555 69.0744h48.4902c4.85669 0 8.82992-3.97323 8.82992-8.82992v-48.4902c0-4.85669-3.97323-8.82874-8.82992-8.82874h-48.4902c-4.85669 0-8.82992 3.97205-8.82992 8.82874v48.4902c0 4.85669 3.97323 8.82992 8.82992 8.82992z"
                  fill="url(#f)" stroke-width="6"/>
            <path d="m13.65 20.2512c1.26496-2.48858 12.5858-2.48858 18.9602-2.48858 6.37677 0 15.8303 0 19.1268 2.20039l-6.12283 32.9752c-1.93228 2.44724-8.66575 3.55984-13.0016 3.55984-4.33346 0-11.074-1.12913-13.0016-3.55984l-5.96102-32.687z"
                  fill="url(#d)" stroke-linecap="round" stroke-linejoin="round"
                  stroke-width="4.00039"/>
            <path d="m32.6138 22.1622c10.5331 0 19.1232-.988583 19.1232-2.20039 0-1.21181-8.59016-2.19921-19.1232-2.19921-10.5331 0-19.1244.987402-19.1244 2.19921 0 1.21181 8.59134 2.20039 19.1244 2.20039z"
                  fill="url(#b)" stroke-width="1.99961"/>
            <path d="m43.0358 38.5996c.295276.0685039.695669-.570472.88937-1.42087.194882-.850394.111024-1.59803-.184252-1.66535-.296457-.0685039-.695669.569291-.890551 1.41969-.194882.850394-.111024 1.59921.185433 1.66654z"
                  fill="#314a7c" stroke-width=".9"/>
        </g>
    </g>
    <path d="m43.3618 37.0524c1.12795-2.33031 11.1189 2.48268 12.4713 3.98622 1.20236 1.35354 2.40472 2.4815 3.23031 4.13622.751181 1.57913 1.87795 2.33268 2.32913 4.13622.0744094.3-4.45276-4.32283-5.49331-4.72913-2.03976-.796063 2.10945 3.15472 2.78858 4.20236.295276.453543 4.73268 6.08976 3.3815 4.7374-1.12677-1.12795-4.04646-4.45984-5.40945-5.11299-.364961-.174803 1.27677 3.38386 1.27677 4.21063 0 2.85827-2.54528-1.43504-2.92913-2.10591-.517323-.907087-1.05236-2.55827-1.95354-2.85709 0 0-.375591 1.80472-.375591 2.70709 0 4.4374-1.12677-.225591-1.50236-1.88031-.451181-1.80472-3.5315-6.16654-4.88386-7.52008-.601181-.601181-2.02795-1.88031-2.32913-2.4815-.0744094-.15-.675591-.676772-.675591-.826772 0-.526772.225591-1.20354.0744094-.602362z"
          fill="none" stroke="#000" stroke-width=".9"/>
    <path d="m43.924 37.1799c3.45591 0 10.878 5.51929 8.45315 3.48307-.457087-.385039-2.90669-2.26181 4.95827 3.98504"
          fill="none" stroke="#e5e5ff" stroke-width=".9"/>
    <path d="m43.924 37.1799c1.05118.526772 5.21693 3.78898 6.04961 4.76102.518504.605906 1.72795 2.10591 1.95354 2.78268.3.826772.751181 2.10591 1.12677 2.93268"
          fill="none" stroke="#e5e5ff" stroke-width=".9"/>
</svg>