
<svg clip-rule="evenodd" fill-rule="evenodd" height="72"
     image-rendering="optimizeQuality" shape-rendering="geometricPrecision"
     text-rendering="geometricPrecision" viewBox="0 0 72 72" width="72"
     xmlns="http://www.w3.org/2000/svg"
     xmlns:xlink="http://www.w3.org/1999/xlink">
    <linearGradient id="a" gradientUnits="userSpaceOnUse" x1="65.3315"
                    x2="6.66969" y1="66.1937" y2="5.80748">
        <stop offset="0" stop-color="#a0a0a0"/>
        <stop offset=".619608" stop-color="#e0e0e0"/>
        <stop offset="1" stop-color="#fff"/>
    </linearGradient>
    <rect fill="url(#a)" height="66.15" rx="9.39803" stroke="#000"
          stroke-width="3" width="66.15" x="2.92559" y="2.92559"/>
    <path d="m33.1724 21.0874h29.9717" fill="none" stroke="#000"
          stroke-width="4.00039"/>
    <path d="m33.1724 22.5071h29.9717" fill="none" stroke="#a9a99a"
          stroke-width=".9"/>
    <path d="m50.1969 22.5071h12.9472" fill="none" stroke="#d4d4d4"
          stroke-width=".9"/>
    <path d="m33.0224 42.2622h29.9717" fill="none" stroke="#000"
          stroke-width="4.00039"/>
    <path d="m33.0224 43.6819h29.9717" fill="none" stroke="#a9a99a"
          stroke-width=".9"/>
    <path d="m50.0469 43.6819h12.9472" fill="none" stroke="#d4d4d4"
          stroke-width=".9"/>
    <path d="m33.0224 63.3425h29.9717" fill="none" stroke="#000"
          stroke-width="4.00039"/>
    <path d="m33.0224 64.7622h29.9717" fill="none" stroke="#a9a99a"
          stroke-width=".9"/>
    <path d="m50.0469 64.7622h12.9472" fill="none" stroke="#d4d4d4"
          stroke-width=".9"/>
    <g stroke="#000">
        <circle cx="42.0093" cy="12.7673" fill="#f00" r="5.26283"
                stroke-width="1.99961"/>
        <path d="m50.3375 25.2862h12.4209v12.4209h-12.4209z" fill="#9f0"
              stroke-width="1.99961"/>
        <path d="m56.4272 46.4906-5.4685 13.3795h10.937zm2.73543 6.69094"
              fill="#ff0" fill-rule="nonzero" stroke-width="1.99961"/>
        <path d="m8.17205 46.1728 8.65748 8.65748-3.02362 3.0248 10.8661 3.10039-3.10039-10.8661-3.0248 3.02362-8.65748-8.65748-1.71732 1.71732zm.85866-.85866"
              fill-rule="nonzero" stroke-width=".9"/>
        <path d="m8.17087 37.2142h12.2445v4.27677l9.87638-5.49094-9.87638-5.49094v4.27677h-12.2445v2.42835zm0-1.214164"
              fill-rule="nonzero" stroke-width=".9"/>
        <path d="m10.4386 27.5469 8.65748-8.65866 3.0248 3.0248 3.10039-10.8661-10.8661 3.10039 3.0248 3.0248-8.65866 8.65748 1.71732 1.71732zm-.85866-.85866"
              fill-rule="nonzero" stroke-width=".9"/>
        <path d="m43.5909 46.4906-5.4685 13.3795h10.9382l-5.46969-13.3795zm2.73661 6.69094"
              fill="#ff0" fill-rule="nonzero" stroke-width="1.99961"/>
        <path d="m35.005 25.2862h12.4209v12.4209h-12.4209z" fill="#9f0"
              stroke-width="1.99961"/>
        <circle cx="55.6543" cy="12.7673" fill="#f00" r="5.26283"
                stroke-width="1.99961"/>
    </g>
</svg>