
<svg clip-rule="evenodd" fill-rule="evenodd" height="72"
     image-rendering="optimizeQuality" shape-rendering="geometricPrecision"
     text-rendering="geometricPrecision" viewBox="0 0 72 72" width="72"
     xmlns="http://www.w3.org/2000/svg"
     xmlns:xlink="http://www.w3.org/1999/xlink">
    <linearGradient id="a" gradientUnits="userSpaceOnUse" x1="65.3315"
                    x2="6.66969" y1="66.1937" y2="5.80748">
        <stop offset="0" stop-color="#a0a0a0"/>
        <stop offset=".619608" stop-color="#e0e0e0"/>
        <stop offset="1" stop-color="#fff"/>
    </linearGradient>
    <rect fill="url(#a)" height="66.15" rx="9.39803" stroke="#000"
          stroke-width="3" width="66.15" x="2.92559" y="2.92559"/>
    <g stroke-width=".9">
        <rect height="53.8996" rx="1.04528" stroke="#000" width="11.8004"
              x="8.55236" y="9.04961"/>
        <path d="m9.97087 63.8102 9.78307.0744094c.969685-.15 1.44213-.69685 1.41969-1.64528l-.0011811-46.1244"
              fill="none" stroke="#999"/>
        <path d="m18.8693 8.20039-9.78307-.0744094c-.969685.15-1.44213.69685-1.41969 1.64528l.0011811 46.1244"
              fill="none" stroke="#5c5c5c"/>
        <path d="m12.5102 63.8102 7.2437.0744094c.969685-.15 1.44213-.69685 1.41969-1.64528l-.0011811-6.57874"
              fill="none" stroke="#b0b0b0"/>
        <path d="m16.9157 63.8846h2.83819c.969685-.15 1.44213-.69685 1.41969-1.64528l-.0011811-2.46732"
              fill="none" stroke="#ccc"/>
        <path d="m26.935 41.8783h13.6394v8.3941l21.0992-14.2712-21.0992-14.576v8.8453h-13.6394z"
              stroke="#000"/>
    </g>
    <path d="m40.4067 52.3358 19.6287-13.337" fill="none" stroke="#999"
          stroke-width="1.99961"/>
    <path d="m26.7768 43.6205 13.0015-.1276" fill="none" stroke="#b3b3b3"
          stroke-width="1.99961"/>
    <path d="m55.5189 42.0295 6.8008-4.3488" fill="none" stroke="#ccc"
          stroke-width="1.99961"/>
</svg>