
<svg clip-rule="evenodd" fill-rule="evenodd" height="72"
     image-rendering="optimizeQuality" shape-rendering="geometricPrecision"
     text-rendering="geometricPrecision" viewBox="0 0 72 72" width="72"
     xmlns="http://www.w3.org/2000/svg"
     xmlns:xlink="http://www.w3.org/1999/xlink">
    <linearGradient id="a" gradientUnits="userSpaceOnUse" x1="65.3315"
                    x2="6.66969" y1="66.1937" y2="5.80748">
        <stop offset="0" stop-color="#a0a0a0"/>
        <stop offset=".619608" stop-color="#e0e0e0"/>
        <stop offset="1" stop-color="#fff"/>
    </linearGradient>
    <radialGradient id="b" cx="31.4244" cy="20.9598"
                    gradientUnits="userSpaceOnUse" r="17.2689">
        <stop offset="0" stop-color="#fff"/>
        <stop offset=".788235" stop-color="#2b6785"/>
        <stop offset="1" stop-color="#0093dd"/>
    </radialGradient>
    <rect fill="url(#a)" height="66.15" rx="9.39803" stroke="#000"
          stroke-width="3" width="66.15" x="2.92559" y="2.92559"/>
    <path d="m36 14.7425c2.48622 11.5134 9.94724 17.2689 9.94724 23.0244 0 5.75787-2.4874 11.5134-9.94724 11.5134-7.46102 0-9.94724-5.75551-9.94724-11.5134 0-5.75551 7.46102-11.511 9.94724-23.0244zm-5.90669 13.6713"
          fill="url(#b)" fill-rule="nonzero" stroke="#000"
          stroke-width="4.00039"/>
    <g fill="none">
        <path d="m23.9244 36.6461c0-6.55394 7.82244-11.6882 10.6535-26.2913"
              stroke="#616161" stroke-linecap="round" stroke-width=".9"/>
        <path d="m48.0791 39.502c0 6.55512-3.42992 12.3626-11.9244 12.3626"
              stroke="#999" stroke-linecap="round" stroke-width=".9"/>
        <path d="m47.2571 44.6598c-.896457 2.66811-2.53228 4.8874-6.09803 6.3815"
              stroke="#ccc" stroke-linecap="round" stroke-width=".9"/>
        <path d="m7.62165 50.9516h14.1142c6.57165 0 8.43898 9.04488 11.3516 13.4563"
              stroke="#000" stroke-width="4.00039"/>
        <path d="m64.5307 50.9516h-14.1142c-6.57165 0-8.43898 9.04488-11.3516 13.4563"
              stroke="#000" stroke-width="4.00039"/>
        <path d="m65.1319 53.0492h-12.6945c-7.37362 0-8.47913 8.19094-11.1272 12.7087"
              stroke="#a8a8a8" stroke-width=".9"/>
        <path d="m52.4374 53.0492c-7.37362 0-8.47913 8.19094-11.1272 12.7087"
              stroke="#ccc" stroke-width=".9"/>
        <path d="m25.5531 49.8295c6.62717 2.61614 7.35945 9.38622 10.0075 13.9039"
              stroke="#999" stroke-width=".9"/>
        <path d="m30.4087 53.7177c3.04252 4.48583 2.50394 5.49803 5.15197 10.0157"
              stroke="#ccc" stroke-width=".9"/>
    </g>
</svg>