
<svg clip-rule="evenodd" fill-rule="evenodd" height="72"
     image-rendering="optimizeQuality" shape-rendering="geometricPrecision"
     text-rendering="geometricPrecision" viewBox="0 0 72 72" width="72"
     xmlns="http://www.w3.org/2000/svg"
     xmlns:xlink="http://www.w3.org/1999/xlink">
    <linearGradient id="a" gradientUnits="userSpaceOnUse" x1="65.3315"
                    x2="6.66969" y1="66.1937" y2="5.80748">
        <stop offset="0" stop-color="#a0a0a0"/>
        <stop offset=".619608" stop-color="#e0e0e0"/>
        <stop offset="1" stop-color="#fff"/>
    </linearGradient>
    <rect fill="url(#a)" height="66.15" rx="9.39803" stroke="#000"
          stroke-width="3" width="66.15" x="2.92559" y="2.92559"/>
    <g stroke-linecap="round" stroke-linejoin="round">
        <path d="m36 14.3421 5.3752 16.5449 17.3976.0011811-14.074 10.2248 5.3752 16.5449-14.074-10.2248-14.074 10.2248 5.3752-16.5449-14.074-10.2248 17.3976-.0011811zm-2.68821 8.27244"
              fill="#aaaae0" fill-rule="nonzero" stroke="#000"
              stroke-width="4.00039"/>
        <path d="m53.2441 58.1421-5.1484-16.2012" fill="none" stroke="#aaa"
              stroke-width="1.99961"/>
        <path d="m36 50.9622 13.3618 9.7323" fill="none" stroke="#aaa"
              stroke-width="1.99961"/>
        <path d="m36 51.0626-11.9575 8.7094" fill="none" stroke="#949494"
              stroke-width="1.99961"/>
        <path d="m49.3618 60.6945c2.23346.452362 3.64724-.603543 3.88228-2.55236"
              fill="none" stroke="#ccc" stroke-width="1.99961"/>
        <path d="m61.2449 32.9161-13.148 9.026" fill="none" stroke="#ccc"
              stroke-width="1.99961"/>
        <path d="m35.7307 24.1807-2.4366 8.0303" fill="none" stroke="#e5e5e5"
              stroke-width="1.99961"/>
        <path d="m22.552 33.9697h9.3909" fill="none" stroke="#e5e5e5"
              stroke-width="1.99961"/>
    </g>
</svg>