
<svg enable-background="new 0 0 69.15 69.15" height="69.15"
     viewBox="0 0 69.15 69.15" width="69.15" xmlns="http://www.w3.org/2000/svg"
     xmlns:xlink="http://www.w3.org/1999/xlink">
    <linearGradient id="a" gradientUnits="userSpaceOnUse" x1="63.9038"
                    x2="5.2421" y1="64.7656" y2="4.3794">
        <stop offset="0" stop-color="#a0a0a0"/>
        <stop offset=".6196" stop-color="#e0e0e0"/>
        <stop offset="1" stop-color="#fff"/>
    </linearGradient>
    <g stroke="#000">
        <path d="m10.898 1.5h47.354c5.19 0 9.398 4.208 9.398 9.398v47.354c0 5.19-4.208 9.398-9.398 9.398h-47.354c-5.19 0-9.398-4.208-9.398-9.398v-47.354c0-5.19 4.208-9.398 9.398-9.398z"
              fill="url(#a)" stroke-width="3"/>
        <g stroke-width="4">
            <path d="m44.343 21.826c-.479 0-.937.211-1.273.586 0 0-16.247 18.021-17.241 19.123-1.361 0-15.782 0-15.782 0-.996 0-1.803.896-1.803 2s.808 2 1.803 2h16.529c.479 0 .938-.211 1.275-.586 0 0 16.246-18.02 17.239-19.123h14.018c.994 0 1.803-.896 1.803-2s-.809-2-1.803-2z"
                  fill="none"/>
            <path d="m44.009 22.827c-.479 0-.937.211-1.273.586 0 0-16.247 18.02-17.241 19.123-1.361 0-15.782 0-15.782 0-.996 0-1.803.896-1.803 2s.808 2 1.803 2h16.529c.479 0 .938-.211 1.275-.586 0 0 16.246-18.02 17.239-19.123h14.018c.994 0 1.803-.896 1.803-2s-.809-2-1.803-2z"/>
            <path d="m44.009 46.535c-.479 0-.937-.219-1.273-.607 0 0-16.247-18.684-17.241-19.829-1.361 0-15.782 0-15.782 0-.996 0-1.803-.928-1.803-2.074 0-1.145.808-2.074 1.803-2.074h16.529c.479 0 .938.219 1.275.608 0 0 16.246 18.686 17.239 19.829h14.018c.994 0 1.803.929 1.803 2.073 0 1.146-.809 2.074-1.803 2.074z"/>
        </g>
    </g>
</svg>