
<svg clip-rule="evenodd" fill-rule="evenodd" height="72"
     image-rendering="optimizeQuality" shape-rendering="geometricPrecision"
     text-rendering="geometricPrecision" viewBox="0 0 72 72" width="72"
     xmlns="http://www.w3.org/2000/svg"
     xmlns:xlink="http://www.w3.org/1999/xlink">
    <linearGradient id="a" gradientUnits="userSpaceOnUse" x1="65.3315"
                    x2="6.66969" y1="66.1937" y2="5.80748">
        <stop offset="0" stop-color="#a0a0a0"/>
        <stop offset=".619608" stop-color="#e0e0e0"/>
        <stop offset="1" stop-color="#fff"/>
    </linearGradient>
    <rect fill="url(#a)" height="66.15" rx="9.39803" stroke="#000"
          stroke-width="3" width="66.15" x="2.92559" y="2.92559"/>
    <g stroke-linecap="round" stroke-linejoin="round">
        <rect fill="none" height="8.57244" rx="5.52638" stroke="#000"
              stroke-width="1.99961" width="51.8351" x="10.083" y="39.5539"/>
        <rect fill="#aaaae0" height="10.8981" rx=".902362" stroke="#000"
              stroke-width="1.99961" width="10.8981" x="15.1334" y="26.36"/>
        <path d="m16.4043 34.6831v-7.0276h6.7288" fill="none" stroke="#ccc"
              stroke-width=".9"/>
        <path d="m27.3756 31.6087v5.857" fill="none" stroke="#ccc"
              stroke-width=".9"/>
        <path d="m27.3756 37.4657-1.2449 1.1705" fill="none" stroke="#e5e5e5"
              stroke-width=".9"/>
        <rect fill="#aaaae0" height="10.8981" rx=".902362" stroke="#000"
              stroke-width="1.99961" width="10.8981" x="45.0426" y="26.3582"/>
        <path d="m46.3134 34.6807v-7.0276h6.7287" fill="none" stroke="#ccc"
              stroke-width=".9"/>
        <path d="m57.2846 31.6063v5.8571" fill="none" stroke="#ccc"
              stroke-width=".9"/>
        <path d="m57.2846 37.4634-1.2448 1.1705" fill="none" stroke="#e5e5e5"
              stroke-width=".9"/>
        <rect fill="#aaaae0" height="10.8981" rx=".902362" stroke="#000"
              stroke-width="1.99961" width="10.8981" x="30.0432" y="26.3582"/>
        <path d="m31.3146 34.6807v-7.0276h6.7287" fill="none" stroke="#ccc"
              stroke-width=".9"/>
        <path d="m42.2846 31.6063v5.8571" fill="none" stroke="#ccc"
              stroke-width=".9"/>
        <path d="m42.2846 37.4634-1.2437 1.1705" fill="none" stroke="#e5e5e5"
              stroke-width=".9"/>
        <circle cx="35.9988" cy="43.8403" r="1.53288" stroke="#000"
                stroke-width=".9"/>
        <circle cx="46.164" cy="43.8403" r="1.53288" stroke="#000"
                stroke-width=".9"/>
        <circle cx="56.4028" cy="43.8403" r="1.53288" stroke="#000"
                stroke-width=".9"/>
        <circle cx="25.7601" cy="43.8403" r="1.53288" stroke="#000"
                stroke-width=".9"/>
        <circle cx="15.6" cy="43.8403" r="1.53288" stroke="#000"
                stroke-width=".9"/>
        <path d="m58.0878 49.7244c2.47913-.525591 4.25551-1.85315 5.33386-3.98504"
              fill="none" stroke="#ccc" stroke-width=".9"/>
        <path d="m13.6878 49.7244h44.4" fill="none" stroke="#aaa"
              stroke-width=".9"/>
    </g>
</svg>