<?xml version="1.0" encoding="UTF-8"?>
<?xml-stylesheet type="text/css" href="user.css" ?>
<!DOCTYPE svg PUBLIC "-//W3C//DTD SVG 1.1//EN" "http://www.w3.org/Graphics/SVG/1.1/DTD/svg11.dtd">
<!-- Creator: CorelDRAW -->
<svg xmlns="http://www.w3.org/2000/svg" xml:space="preserve" width="72px" height="72px" style="shape-rendering:geometricPrecision; text-rendering:geometricPrecision; image-rendering:optimizeQuality; fill-rule:evenodd; clip-rule:evenodd"
viewBox="0 0 72 72">
 <defs>
  <style type="text/css">
   <![CDATA[
    .str2 {stroke:#7C7C7C;stroke-width:1.99961;stroke-linecap:round;stroke-linejoin:round}
    .str3 {stroke:#949494;stroke-width:1.99961;stroke-linecap:round;stroke-linejoin:round}
    .str5 {stroke:#AAAAAA;stroke-width:1.99961;stroke-linecap:round;stroke-linejoin:round}
    .str4 {stroke:#CCCCCC;stroke-width:1.99961;stroke-linecap:round;stroke-linejoin:round}
    .str1 {stroke:black;stroke-width:4.00039;stroke-linecap:round;stroke-linejoin:round}
    .fil1 {fill:none}
    .fil0 {fill:url(#id0)}
   ]]>
  </style>
  <linearGradient id="id0" gradientUnits="userSpaceOnUse" x1="65.3315" y1="66.1937" x2="6.66969" y2="5.80748">
   <stop offset="0" class="background-br"/>
   <stop offset="0.619608" class="background-c"/>
   <stop offset="1" class="background-tl"/>
  </linearGradient>
 </defs>
 <g id="Layer_x0020_1">
  <metadata id="CorelCorpID_0Corel-Layer"/>
  <rect class="fil0 str0" x="2.92559" y="2.92559" width="66.15" height="66.15" rx="9.39803" ry="9.39803"/>
 </g>
 <g id="Layer_x0020_2">
  <metadata id="CorelCorpID_1Corel-Layer"/>
  <path class="fil1 str1" d="M60.0378 47.5181l-12.0815 0c2.1,-3.19134 3.25157,-7.09252 3.25157,-11.5193 0,-10.2543 -6.75,-18.5705 -15.0744,-18.5705 -8.32441,0 -15.0744,8.31614 -15.0744,18.5705 0,4.32638 1.20236,8.3622 3.21614,11.5193l-12.313 0"/>
  <path class="fil1 str2" d="M24.3591 38.498c0.451181,2.49213 1.2626,5.88189 3.57283,9.02008"/>
  <path class="fil1 str3" d="M25.8827 27.3224c-1.63228,3.11102 -2.27717,7.00512 -1.52362,11.1756"/>
  <path class="fil1 str4" d="M38.0953 20.2854c-5.32677,-0.383858 -9.82559,2.48976 -12.2126,7.03701"/>
  <path class="fil1 str3" d="M50.1732 22.2957c-2.46378,-3.67913 -5.9622,-6.32126 -10.1161,-7.01102"/>
  <path class="fil1 str5" d="M54.0614 34.6583c-0.17126,-4.53307 -1.57323,-8.90669 -3.88819,-12.3626"/>
  <path class="fil1 str4" d="M52.6831 44.8394c1.4752,-3.36969 1.54606,-5.75906 1.37835,-10.1811"/>
  <line class="fil1 str4" x1="60.1252" y1="50.6409" x2="47.2417" y2= "50.7319" />
  <line class="fil1 str5" x1="24.6248" y1="50.6409" x2="11.7413" y2= "50.7319" />
 </g>
</svg>
