
<svg clip-rule="evenodd" fill-rule="evenodd" height="72"
     image-rendering="optimizeQuality" shape-rendering="geometricPrecision"
     text-rendering="geometricPrecision" viewBox="0 0 72 72" width="72"
     xmlns="http://www.w3.org/2000/svg"
     xmlns:xlink="http://www.w3.org/1999/xlink">
    <linearGradient id="a" gradientUnits="userSpaceOnUse" x1="65.3315"
                    x2="6.66969" y1="66.1937" y2="5.80748">
        <stop offset="0" stop-color="#a0a0a0"/>
        <stop offset=".619608" stop-color="#e0e0e0"/>
        <stop offset="1" stop-color="#fff"/>
    </linearGradient>
    <rect fill="url(#a)" height="66.15" rx="9.39803" stroke="#000"
          stroke-width="3" width="66.15" x="2.92559" y="2.92559"/>
    <g fill="none" stroke-linecap="round" stroke-linejoin="round">
        <path d="m60.0378 47.5181h-12.0815c2.1-3.19134 3.25157-7.09252 3.25157-11.5193 0-10.2543-6.75-18.5705-15.0744-18.5705-8.32441 0-15.0744 8.31614-15.0744 18.5705 0 4.32638 1.20236 8.3622 3.21614 11.5193h-12.313"
              stroke="#000" stroke-width="4.00039"/>
        <path d="m24.3591 38.498c.451181 2.49213 1.2626 5.88189 3.57283 9.02008"
              stroke="#7c7c7c" stroke-width="1.99961"/>
        <path d="m25.8827 27.3224c-1.63228 3.11102-2.27717 7.00512-1.52362 11.1756"
              stroke="#949494" stroke-width="1.99961"/>
        <path d="m38.0953 20.2854c-5.32677-.383858-9.82559 2.48976-12.2126 7.03701"
              stroke="#ccc" stroke-width="1.99961"/>
        <path d="m50.1732 22.2957c-2.46378-3.67913-5.9622-6.32126-10.1161-7.01102"
              stroke="#949494" stroke-width="1.99961"/>
        <path d="m54.0614 34.6583c-.17126-4.53307-1.57323-8.90669-3.88819-12.3626"
              stroke="#aaa" stroke-width="1.99961"/>
        <path d="m52.6831 44.8394c1.4752-3.36969 1.54606-5.75906 1.37835-10.1811"
              stroke="#ccc" stroke-width="1.99961"/>
        <path d="m60.1252 50.6409-12.8835.091" stroke="#ccc"
              stroke-width="1.99961"/>
        <path d="m24.6248 50.6409-12.8835.091" stroke="#aaa"
              stroke-width="1.99961"/>
    </g>
</svg>