
<svg clip-rule="evenodd" fill-rule="evenodd" height="72"
     image-rendering="optimizeQuality" shape-rendering="geometricPrecision"
     text-rendering="geometricPrecision" viewBox="0 0 72 72" width="72"
     xmlns="http://www.w3.org/2000/svg"
     xmlns:xlink="http://www.w3.org/1999/xlink">
    <linearGradient id="a" gradientUnits="userSpaceOnUse" x1="65.3315"
                    x2="6.66969" y1="66.1937" y2="5.80748">
        <stop offset="0" stop-color="#a0a0a0"/>
        <stop offset=".619608" stop-color="#e0e0e0"/>
        <stop offset="1" stop-color="#fff"/>
    </linearGradient>
    <radialGradient id="b" cx="19.5189" cy="24.776"
                    gradientUnits="userSpaceOnUse" r="25.7539">
        <stop offset="0" stop-color="#ffd1c2"/>
        <stop offset=".211765" stop-color="#ab4968"/>
        <stop offset="1" stop-color="#da251d"/>
    </radialGradient>
    <rect fill="url(#a)" height="66.15" rx="9.39803" stroke="#000"
          stroke-width="3" width="66.15" x="2.92559" y="2.92559"/>
    <ellipse cx="19.6919" cy="37.076" fill="url(#b)" rx="8.62146" ry="15"
             stroke="#000" stroke-width="4.00039"/>
    <g fill="none">
        <path d="m13.4268 37.1197c.0472441-6.25276 3.93661-13.6831 7.19646-12.411"
              stroke="#f99" stroke-width=".9"/>
        <path d="m14.5252 31.1244c1.00866-3.97795 2.95276-6.64016 6.09921-6.41693"
              stroke="#fcc" stroke-width=".9"/>
        <path d="m25.8118 34.5319c.703937 6.28465-2.58898 15.6402-6.9189 14.8311"
              stroke="#f66" stroke-width=".9"/>
        <path d="m24.7028 43.3972c.0732283 1.06772-1.11142 3.7937-4.43976 5.88543"
              stroke="#f99" stroke-width=".9"/>
        <path d="m32.5264 37.8791h9.1275" stroke="#aaa" stroke-linecap="round"
              stroke-linejoin="round" stroke-width="1.99961"/>
        <path d="m42.1795 56.9811-9.0106-9.3366" stroke="#aaa"
              stroke-linecap="round" stroke-linejoin="round"
              stroke-width="1.99961"/>
        <path d="m43.3075 39.1476v17.9091" stroke="#ccc" stroke-linecap="round"
              stroke-linejoin="round" stroke-width="1.99961"/>
        <path d="m35.4248 16.2118 9.1134 9.1465" stroke="#aaa"
              stroke-linecap="round" stroke-linejoin="round"
              stroke-width="1.99961"/>
        <path d="m35.3787 35.1024 9.1595-9.7453" stroke="#ccc"
              stroke-linecap="round" stroke-linejoin="round"
              stroke-width="1.99961"/>
        <path d="m32.5807 36h9.1276" stroke="#000" stroke-linecap="round"
              stroke-linejoin="round" stroke-width="1.99961"/>
        <path d="m7.93583 37.076c0-10.1327 5.26535-18.3496 11.7555-18.3496"
              stroke="#5d5d5d" stroke-width="1.99961"/>
        <path d="m19.6913 55.4256c-6.49016 0-11.7555-8.21693-11.7555-18.3496"
              stroke="#949494" stroke-width="1.99961"/>
        <path d="m31.448 37.076c0 10.1327-5.26535 18.3496-11.7567 18.3496"
              stroke="#ccc" stroke-width="1.99961"/>
        <path d="m19.6913 18.7264c6.49134 0 11.7567 8.21693 11.7567 18.3496"
              stroke="#949494" stroke-width="1.99961"/>
    </g>
    <path d="m41.752 54.2575-7.8579-8.113 7.859-8.113z" stroke="#000"
          stroke-width=".9"/>
    <path d="m34.5909 33.6709 7.8579-8.113-7.859-8.113z" stroke="#000"
          stroke-width=".9"/>
    <path d="m47.7366 61.0583c-2.23346-4.42441-2.40354-9.24567.0165354-12.7311 2.42008-3.48661 6.99567-5.01142 11.922-4.46693"
          fill="none" stroke="#000" stroke-linecap="round"
          stroke-linejoin="round" stroke-width="1.99961"/>
    <path d="m59.8736 26.4283c2.23346-4.42441 2.40354-9.24567-.0165354-12.7311-2.42008-3.48661-6.99567-5.01142-11.922-4.46693"
          fill="none" stroke="#000" stroke-linecap="round"
          stroke-linejoin="round" stroke-width="1.99961"/>
    <path d="m52.2685 61.9051c-2.5063-3.75118-3.01181-8.02559-.898819-11.0681 2.06339-2.97283 6.10276-4.01811 10.3843-3.09567"
          fill="none" stroke="#000" stroke-linecap="round"
          stroke-linejoin="round" stroke-width="1.99961"/>
    <path d="m55.3417 27.2752c2.5063-3.75118 3.01181-8.02559.898819-11.0681-2.06339-2.97283-6.10276-4.01811-10.3843-3.09567"
          fill="none" stroke="#000" stroke-linecap="round"
          stroke-linejoin="round" stroke-width="1.99961"/>
    <path d="m56.2535 61.8638c-2.36457-2.78268-3.03543-6.23622-1.39252-8.60315 1.64173-2.36575 5.11299-2.94567 8.54646-1.70197"
          fill="none" stroke="#000" stroke-linecap="round"
          stroke-linejoin="round" stroke-width="1.99961"/>
    <path d="m51.3567 27.2339c2.36457-2.78268 3.03543-6.23622 1.39252-8.60315-1.64173-2.36575-5.11299-2.94567-8.54646-1.70197"
          fill="none" stroke="#000" stroke-linecap="round"
          stroke-linejoin="round" stroke-width="1.99961"/>
</svg>