<?xml version="1.0" encoding="UTF-8"?>
<?xml-stylesheet type="text/css" href="user.css" ?>
<!DOCTYPE svg PUBLIC "-//W3C//DTD SVG 1.1//EN" "http://www.w3.org/Graphics/SVG/1.1/DTD/svg11.dtd">
<!-- Creator: CorelDRAW -->
<svg xmlns="http://www.w3.org/2000/svg" xml:space="preserve" width="72px" height="72px" style="shape-rendering:geometricPrecision; text-rendering:geometricPrecision; image-rendering:optimizeQuality; fill-rule:evenodd; clip-rule:evenodd"
viewBox="0 0 72 72">
 <defs>
  <style type="text/css">
   <![CDATA[
.background-tl {stop-color:#FFFFFF}
.background-c {stop-color:#E0E0E0}
.background-br {stop-color:#A0A0A0}

.str0 {stroke:black;stroke-width:3}
    .str3 {stroke:black;stroke-width:0.9}
    .str7 {stroke:#314A7C;stroke-width:0.9}
    .str8 {stroke:#E5E5FF;stroke-width:0.9}
    .str2 {stroke:black;stroke-width:1.99961}
    .str6 {stroke:#314A7C;stroke-width:1.99961}
    .str1 {stroke:black;stroke-width:4.00039;stroke-linecap:round;stroke-linejoin:round}
    .str5 {stroke:#314A7C;stroke-width:4.00039;stroke-linecap:round;stroke-linejoin:round}
    .str4 {stroke:#314A7C;stroke-width:6}
    .fil9 {fill:none}
    .fil3 {fill:black}
    .fil8 {fill:#314A7C}
    .fil4 {fill:#B4CDFF}
    .fil7 {fill:url(#id1)}
    .fil2 {fill:url(#id2)}
    .fil6 {fill:url(#id3)}
    .fil1 {fill:url(#id4)}
    .fil5 {fill:url(#id5)}
    .fil0 {fill:url(#id6)}
   ]]>
  </style>
   <clipPath id="id0">
    <path d="M43.3618 37.0524c1.12795,-2.33031 11.1189,2.48268 12.4713,3.98622 1.20236,1.35354 2.40472,2.4815 3.23031,4.13622 0.751181,1.57913 1.87795,2.33268 2.32913,4.13622 0.0744094,0.3 -4.45276,-4.32283 -5.49331,-4.72913 -2.03976,-0.796063 2.10945,3.15472 2.78858,4.20236 0.295276,0.453543 4.73268,6.08976 3.3815,4.7374 -1.12677,-1.12795 -4.04646,-4.45984 -5.40945,-5.11299 -0.364961,-0.174803 1.27677,3.38386 1.27677,4.21063 0,2.85827 -2.54528,-1.43504 -2.92913,-2.10591 -0.517323,-0.907087 -1.05236,-2.55827 -1.95354,-2.85709 0,0 -0.375591,1.80472 -0.375591,2.70709 0,4.4374 -1.12677,-0.225591 -1.50236,-1.88031 -0.451181,-1.80472 -3.5315,-6.16654 -4.88386,-7.52008 -0.601181,-0.601181 -2.02795,-1.88031 -2.32913,-2.4815 -0.0744094,-0.15 -0.675591,-0.676772 -0.675591,-0.826772 0,-0.526772 0.225591,-1.20354 0.0744094,-0.602362z"/>
   </clipPath>
  <linearGradient id="id1" gradientUnits="userSpaceOnUse" x1="15.7795" y1="27.3697" x2="49.4457" y2="12.5563">
   <stop offset="0" style="stop-color:#9AB3FF"/>
   <stop offset="0.290196" style="stop-color:#6175C1"/>
   <stop offset="1" style="stop-color:#A6BFFF"/>
  </linearGradient>
  <linearGradient id="id2" gradientUnits="userSpaceOnUse" x1="15.7795" y1="27.3697" x2="49.4457" y2="12.5563">
   <stop offset="0" style="stop-color:#CCCCFF"/>
   <stop offset="0.290196" style="stop-color:#5D5387"/>
   <stop offset="1" style="stop-color:#E5E5FF"/>
  </linearGradient>
  <linearGradient id="id3" gradientUnits="userSpaceOnUse" xlink:href="#id1" x1="52.6748" y1="38.7531" x2="12.711" y2="35.5063">
  </linearGradient>
  <linearGradient id="id4" gradientUnits="userSpaceOnUse" xlink:href="#id2" x1="52.6748" y1="38.7531" x2="12.711" y2="35.5063">
  </linearGradient>
  <linearGradient id="id5" gradientUnits="userSpaceOnUse" x1="65.3315" y1="66.1937" x2="6.66969" y2="5.80748">
   <stop offset="0" style="stop-color:#7D96E0"/>
   <stop offset="0.619608" style="stop-color:#7182D8"/>
   <stop offset="1" style="stop-color:#AAC5FF"/>
  </linearGradient>
  <linearGradient id="id6" gradientUnits="userSpaceOnUse" x1="65.3315" y1="66.1937" x2="6.66969" y2="5.80748">
   <stop offset="0" class="background-br"/>
   <stop offset="0.619608" class="background-c"/>
   <stop offset="1" class="background-tl"/>
  </linearGradient>
 </defs>
 <g id="Layer_x0020_1">
  <metadata id="CorelCorpID_0Corel-Layer"/>
  <rect class="fil0 str0" x="2.92559" y="2.92559" width="66.15" height="66.15" rx="9.39803" ry="9.39803"/>
 </g>
 <g id="Layer_x0020_2">
  <metadata id="CorelCorpID_1Corel-Layer"/>
  <path class="fil1 str1" d="M13.65 20.2512c1.26496,-2.48858 12.5858,-2.48858 18.9602,-2.48858 6.37677,0 15.8303,0 19.1268,2.20039l-6.12283 32.9752c-1.93228,2.44724 -8.66575,3.55984 -13.0016,3.55984 -4.33346,0 -11.074,-1.12913 -13.0016,-3.55984l-5.96102 -32.687z"/>
  <ellipse class="fil2 str2" cx="32.6126" cy="19.963" rx="19.1244" ry="2.20039"/>
  <ellipse class="fil3 str3" transform="matrix(0.974881 0.222726 -0.222726 0.974881 43.3878 37.0571)" rx="0.551575" ry="1.58386"/>
  <g style="clip-path:url(#id0)">
   <polygon class="fil4" points="-256.713,-263.574 362.324,-263.574 362.324,353.728 -256.713,353.728 "/>
   <g id="Layer_x0020_1_0">
    <metadata id="CorelCorpID_2Corel-Layer"/>
    <path class="fil5 str4" d="M11.7555 69.0744l48.4902 0c4.85669,0 8.82992,-3.97323 8.82992,-8.82992l0 -48.4902c0,-4.85669 -3.97323,-8.82874 -8.82992,-8.82874l-48.4902 0c-4.85669,0 -8.82992,3.97205 -8.82992,8.82874l0 48.4902c0,4.85669 3.97323,8.82992 8.82992,8.82992z"/>
   </g>
   <g id="Layer_x0020_2_1">
    <metadata id="CorelCorpID_3Corel-Layer"/>
    <path class="fil6 str5" d="M13.65 20.2512c1.26496,-2.48858 12.5858,-2.48858 18.9602,-2.48858 6.37677,0 15.8303,0 19.1268,2.20039l-6.12283 32.9752c-1.93228,2.44724 -8.66575,3.55984 -13.0016,3.55984 -4.33346,0 -11.074,-1.12913 -13.0016,-3.55984l-5.96102 -32.687z"/>
    <path class="fil7 str6" d="M32.6138 22.1622c10.5331,0 19.1232,-0.988583 19.1232,-2.20039 0,-1.21181 -8.59016,-2.19921 -19.1232,-2.19921 -10.5331,0 -19.1244,0.987402 -19.1244,2.19921 0,1.21181 8.59134,2.20039 19.1244,2.20039z"/>
    <path class="fil8 str7" d="M43.0358 38.5996c0.295276,0.0685039 0.695669,-0.570472 0.88937,-1.42087 0.194882,-0.850394 0.111024,-1.59803 -0.184252,-1.66535 -0.296457,-0.0685039 -0.695669,0.569291 -0.890551,1.41969 -0.194882,0.850394 -0.111024,1.59921 0.185433,1.66654z"/>
   </g>
  </g>
  <path class="fil9 str3" d="M43.3618 37.0524c1.12795,-2.33031 11.1189,2.48268 12.4713,3.98622 1.20236,1.35354 2.40472,2.4815 3.23031,4.13622 0.751181,1.57913 1.87795,2.33268 2.32913,4.13622 0.0744094,0.3 -4.45276,-4.32283 -5.49331,-4.72913 -2.03976,-0.796063 2.10945,3.15472 2.78858,4.20236 0.295276,0.453543 4.73268,6.08976 3.3815,4.7374 -1.12677,-1.12795 -4.04646,-4.45984 -5.40945,-5.11299 -0.364961,-0.174803 1.27677,3.38386 1.27677,4.21063 0,2.85827 -2.54528,-1.43504 -2.92913,-2.10591 -0.517323,-0.907087 -1.05236,-2.55827 -1.95354,-2.85709 0,0 -0.375591,1.80472 -0.375591,2.70709 0,4.4374 -1.12677,-0.225591 -1.50236,-1.88031 -0.451181,-1.80472 -3.5315,-6.16654 -4.88386,-7.52008 -0.601181,-0.601181 -2.02795,-1.88031 -2.32913,-2.4815 -0.0744094,-0.15 -0.675591,-0.676772 -0.675591,-0.826772 0,-0.526772 0.225591,-1.20354 0.0744094,-0.602362z"/>
  <path class="fil9 str8" d="M43.924 37.1799c3.45591,0 10.878,5.51929 8.45315,3.48307 -0.457087,-0.385039 -2.90669,-2.26181 4.95827,3.98504"/>
  <path class="fil9 str8" d="M43.924 37.1799c1.05118,0.526772 5.21693,3.78898 6.04961,4.76102 0.518504,0.605906 1.72795,2.10591 1.95354,2.78268 0.3,0.826772 0.751181,2.10591 1.12677,2.93268"/>
 </g>
</svg>
