<?xml version="1.0" encoding="UTF-8"?>
<?xml-stylesheet type="text/css" href="user.css" ?>
<!DOCTYPE svg PUBLIC "-//W3C//DTD SVG 1.1//EN" "http://www.w3.org/Graphics/SVG/1.1/DTD/svg11.dtd">
<!-- Creator: CorelDRAW -->
<svg xmlns="http://www.w3.org/2000/svg" xml:space="preserve" width="72px" height="72px" style="shape-rendering:geometricPrecision; text-rendering:geometricPrecision; image-rendering:optimizeQuality; fill-rule:evenodd; clip-rule:evenodd"
viewBox="0 0 72 72">
 <defs>
  <style type="text/css">
   <![CDATA[
    .str1 {stroke:black;stroke-width:0.9}
    .str3 {stroke:#5C5C5C;stroke-width:0.9}
    .str2 {stroke:#999999;stroke-width:0.9}
    .str4 {stroke:#B0B0B0;stroke-width:0.9}
    .str5 {stroke:#CCCCCC;stroke-width:0.9}
    .str6 {stroke:#999999;stroke-width:1.99961}
    .str7 {stroke:#B3B3B3;stroke-width:1.99961}
    .str8 {stroke:#CCCCCC;stroke-width:1.99961}
    .fil2 {fill:none}
    .fil1 {fill:black}
    .fil0 {fill:url(#id0)}
   ]]>
  </style>
  <linearGradient id="id0" gradientUnits="userSpaceOnUse" x1="65.3315" y1="66.1937" x2="6.66969" y2="5.80748">
   <stop offset="0" class="background-br"/>
   <stop offset="0.619608" class="background-c"/>
   <stop offset="1" class="background-tl"/>
  </linearGradient>
 </defs>
 <g id="Layer_x0020_1">
  <metadata id="CorelCorpID_0Corel-Layer"/>
  <rect class="fil0 str0" x="2.92559" y="2.92559" width="66.15" height="66.15" rx="9.39803" ry="9.39803"/>
 </g>
 <g id="Layer_x0020_2">
  <metadata id="CorelCorpID_1Corel-Layer"/>
  <rect class="fil1 str1" x="8.55236" y="9.04961" width="11.8004" height="53.8996" rx="1.04528" ry="1.04528"/>
  <path class="fil2 str2" d="M9.97087 63.8102l9.78307 0.0744094c0.969685,-0.15 1.44213,-0.69685 1.41969,-1.64528l-0.0011811 -46.1244"/>
  <path class="fil2 str3" d="M18.8693 8.20039l-9.78307 -0.0744094c-0.969685,0.15 -1.44213,0.69685 -1.41969,1.64528l0.0011811 46.1244"/>
  <path class="fil2 str4" d="M12.5102 63.8102l7.2437 0.0744094c0.969685,-0.15 1.44213,-0.69685 1.41969,-1.64528l-0.0011811 -6.57874"/>
  <path class="fil2 str5" d="M16.9157 63.8846l2.83819 0c0.969685,-0.15 1.44213,-0.69685 1.41969,-1.64528l-0.0011811 -2.46732"/>
  <polygon class="fil1 str1" points="26.935,41.8783 40.5744,41.8783 40.5744,50.2724 61.6736,36.0012 40.5744,21.4252 40.5744,30.2705 26.935,30.2705 "/>
  <line class="fil2 str6" x1="40.4067" y1="52.3358" x2="60.0354" y2= "38.9988" />
  <line class="fil2 str7" x1="26.7768" y1="43.6205" x2="39.7783" y2= "43.4929" />
  <line class="fil2 str8" x1="55.5189" y1="42.0295" x2="62.3197" y2= "37.6807" />
 </g>
</svg>
