<?xml version="1.0" encoding="UTF-8"?>
<?xml-stylesheet type="text/css" href="user.css" ?>
<!DOCTYPE svg PUBLIC "-//W3C//DTD SVG 1.1//EN" "http://www.w3.org/Graphics/SVG/1.1/DTD/svg11.dtd">
<!-- Creator: CorelDRAW -->
<svg xmlns="http://www.w3.org/2000/svg" xml:space="preserve" width="72px" height="72px" style="shape-rendering:geometricPrecision; text-rendering:geometricPrecision; image-rendering:optimizeQuality; fill-rule:evenodd; clip-rule:evenodd"
viewBox="0 0 72 72">
 <defs>
  <style type="text/css">
   <![CDATA[
    .str3 {stroke:#5D5D5D;stroke-width:1.99961}
    .str4 {stroke:#949494;stroke-width:1.99961}
    .str2 {stroke:#AAAAAA;stroke-width:1.99961}
    .str1 {stroke:black;stroke-width:4.00039}
    .fil1 {fill:none}
    .fil0 {fill:url(#id0)}
   ]]>
  </style>
  <linearGradient id="id0" gradientUnits="userSpaceOnUse" x1="65.3315" y1="66.1937" x2="6.66969" y2="5.80748">
   <stop offset="0" class="background-br"/>
   <stop offset="0.619608" class="background-c"/>
   <stop offset="1" class="background-tl"/>
  </linearGradient>
 </defs>
 <g id="Layer_x0020_1">
  <metadata id="CorelCorpID_0Corel-Layer"/>
  <rect class="fil0 str0" x="2.92559" y="2.92559" width="66.15" height="66.15" rx="9.39803" ry="9.39803"/>
 </g>
 <g id="Layer_x0020_2">
  <metadata id="CorelCorpID_1Corel-Layer"/>
  <polyline class="fil1 str1" points="7.33937,37.9394 17.2642,37.9394 17.2642,26.5795 30.5563,26.5795 30.5563,37.9394 42.424,37.9382 42.424,26.5795 55.422,26.5795 55.422,37.9394 64.6606,37.9394 "/>
  <line class="fil1 str1" x1="7.33937" y1="45.4193" x2="64.6606" y2= "45.4193" />
  <line class="fil1 str2" x1="52.4173" y1="41.3398" x2="64.6606" y2= "41.3398" />
  <line class="fil1 str3" x1="52.4173" y1="29.9799" x2="52.4173" y2= "41.3398" />
  <line class="fil1 str2" x1="45.5764" y1="29.9799" x2="52.4173" y2= "29.9799" />
  <line class="fil1 str4" x1="45.5752" y1="41.3398" x2="45.5764" y2= "29.9799" />
  <line class="fil1 str2" x1="27.626" y1="41.3398" x2="45.5752" y2= "41.3398" />
  <line class="fil1 str3" x1="27.6272" y1="29.9799" x2="27.626" y2= "41.3398" />
  <line class="fil1 str2" x1="20.2689" y1="29.9799" x2="27.6272" y2= "29.9799" />
  <line class="fil1 str4" x1="20.2689" y1="41.3398" x2="20.2689" y2= "29.9799" />
  <line class="fil1 str2" x1="8.09055" y1="41.3398" x2="20.2689" y2= "41.3398" />
  <line class="fil1 str2" x1="7.33937" y1="48.7087" x2="64.6606" y2= "48.7087" />
 </g>
</svg>
