<?xml version="1.0" encoding="UTF-8"?>
<?xml-stylesheet type="text/css" href="user.css" ?>
<!DOCTYPE svg PUBLIC "-//W3C//DTD SVG 1.1//EN" "http://www.w3.org/Graphics/SVG/1.1/DTD/svg11.dtd">
<!-- Creator: CorelDRAW -->
<svg xmlns="http://www.w3.org/2000/svg" xml:space="preserve" width="72px" height="72px" style="shape-rendering:geometricPrecision; text-rendering:geometricPrecision; image-rendering:optimizeQuality; fill-rule:evenodd; clip-rule:evenodd"
viewBox="0 0 72 72">

 <defs>
  <style type="text/css">
   <![CDATA[
    .str4 {stroke:#ABABAB;stroke-width:0.9}
    .str5 {stroke:#CCCCCC;stroke-width:0.9}
    .str1 {stroke:#808080;stroke-width:1.99961}
    .str3 {stroke:#808080;stroke-width:1.99961;stroke-linecap:round}
    .str10 {stroke:#999999;stroke-width:1.99961}
    .str6 {stroke:#ABABAB;stroke-width:1.99961;stroke-linecap:round}
    .str2 {stroke:#CCCCCC;stroke-width:1.99961}
    .str7 {stroke:#CCCCCC;stroke-width:1.99961;stroke-linecap:round}
    .str8 {stroke:#E0E0E0;stroke-width:1.99961;stroke-linecap:round}
    .str12 {stroke:black;stroke-width:4.00039;stroke-linecap:round;stroke-linejoin:round}
    .str11 {stroke:black;stroke-width:4.16693}
    .str9 {stroke:black;stroke-width:4.16693;stroke-linecap:round}
    .fil1 {fill:none}
    .fil0 {fill:url(#id0)}
   ]]>
  </style>
  <linearGradient id="id0" gradientUnits="userSpaceOnUse" x1="65.3315" y1="66.1937" x2="6.66969" y2="5.80748">
   <stop offset="0" class="background-br"/>
   <stop offset="0.619608" class="background-c"/>
   <stop offset="1" class="background-tl"/>
  </linearGradient>
 </defs>
 <g id="Layer_x0020_1">
  <metadata id="CorelCorpID_0Corel-Layer"/>
  <rect class="fil0 str0" x="2.92559" y="2.92559" width="66.15" height="66.15" rx="9.39803" ry="9.39803"/>
 </g>
 <g id="Layer_x0020_2">
  <metadata id="CorelCorpID_1Corel-Layer"/>
  <line class="fil1 str1" x1="41.7756" y1="17.7024" x2="9.49134" y2= "17.7024" />
  <line class="fil1 str2" x1="9.11811" y1="23.8748" x2="42.4606" y2= "23.8748" />
  <path class="fil1 str3" d="M52.1433 8.2311c-6.66142,5.11063 -7.38425,16.2142 -7.08307,33.1748"/>
  <path class="fil1 str4" d="M54.3035 14.0185c-2.16614,3.29055 -5.1248,21.4098 -2.86063,32.9752"/>
  <path class="fil1 str5" d="M54.3035 14.0185c-2.16614,3.29055 -3.09803,9.74528 -3.62126,17.7602"/>
  <path class="fil1 str6" d="M49.8295 60.9508c8.09173,7.48583 14.6575,-7.44567 13.422,-32.2394"/>
  <path class="fil1 str7" d="M53.1236 62.726c5.93858,0.38622 8.82992,-5.54409 10.0004,-22.2224"/>
  <path class="fil1 str8" d="M55.9606 62.3516c3.40157,-1.70787 3.20315,-3.25394 4.67835,-7.2248"/>
  <line class="fil1 str9" x1="10.3205" y1="20.8736" x2="41.7378" y2= "20.8736" />
  <line class="fil1 str10" x1="9.11811" y1="54" x2="42.4606" y2= "54" />
  <ellipse class="fil1 str11" cx="54.0366" cy="35.4308" rx="6.08622" ry="24.2657"/>
  <line class="fil1 str12" x1="10.3205" y1="50.8724" x2="41.7378" y2= "50.8724" />
  <line class="fil1 str11" x1="17.4685" y1="46.5413" x2="17.4685" y2= "25.5685" />
  <line class="fil1 str11" x1="36.072" y1="46.5413" x2="36.0744" y2= "25.5709" />
  <line class="fil1 str11" x1="26.7094" y1="46.4291" x2="26.7106" y2= "25.5697" />
 </g>
</svg>
