<?xml version="1.0" encoding="UTF-8"?>
<?xml-stylesheet type="text/css" href="user.css" ?>
<!DOCTYPE svg PUBLIC "-//W3C//DTD SVG 1.1//EN" "http://www.w3.org/Graphics/SVG/1.1/DTD/svg11.dtd">
<!-- Creator: CorelDRAW -->
<svg xmlns="http://www.w3.org/2000/svg" xml:space="preserve" width="72px" height="72px" style="shape-rendering:geometricPrecision; text-rendering:geometricPrecision; image-rendering:optimizeQuality; fill-rule:evenodd; clip-rule:evenodd"
viewBox="0 0 72 72">
 <defs>
  <style type="text/css">
   <![CDATA[
    .str11 {stroke:black;stroke-width:0.9}
    .str4 {stroke:#FF6666;stroke-width:0.9}
    .str2 {stroke:#FF9999;stroke-width:0.9}
    .str3 {stroke:#FFCCCC;stroke-width:0.9}
    .str7 {stroke:black;stroke-width:1.99961;stroke-linecap:round;stroke-linejoin:round}
    .str8 {stroke:#5D5D5D;stroke-width:1.99961}
    .str9 {stroke:#949494;stroke-width:1.99961}
    .str5 {stroke:#AAAAAA;stroke-width:1.99961;stroke-linecap:round;stroke-linejoin:round}
    .str10 {stroke:#CCCCCC;stroke-width:1.99961}
    .str6 {stroke:#CCCCCC;stroke-width:1.99961;stroke-linecap:round;stroke-linejoin:round}
    .str1 {stroke:black;stroke-width:4.00039}
    .fil2 {fill:none}
    .fil3 {fill:black}
    .fil0 {fill:url(#id0)}
    .fil1 {fill:url(#id1)}
   ]]>
  </style>
  <linearGradient id="id0" gradientUnits="userSpaceOnUse" x1="65.3315" y1="66.1937" x2="6.66969" y2="5.80748">
   <stop offset="0" class="background-br"/>
   <stop offset="0.619608" class="background-c"/>
   <stop offset="1" class="background-tl"/>
  </linearGradient>
  <radialGradient id="id1" gradientUnits="userSpaceOnUse" cx="23.4437" cy="24.776" r="25.7539" fx="23.4437" fy="24.776">
   <stop offset="0" style="stop-color:#FFD1C2"/>
   <stop offset="0.211765" style="stop-color:#AB4968"/>
   <stop offset="1" style="stop-color:#DA251D"/>
  </radialGradient>
 </defs>
 <g id="Layer_x0020_1">
  <metadata id="CorelCorpID_0Corel-Layer"/>
  <rect class="fil0 str0" x="2.92559" y="2.92559" width="66.15" height="66.15" rx="9.39803" ry="9.39803"/>
 </g>
 <g id="Layer_x0020_2">
  <metadata id="CorelCorpID_1Corel-Layer"/>
  <g id="_127258736">
   <ellipse id="_127261976" class="fil1 str1" cx="23.6167" cy="37.076" rx="8.62146" ry="15"/>
   <path id="_127261264" class="fil2 str2" d="M17.3516 37.1197c0.0472441,-6.25276 3.93661,-13.6831 7.19646,-12.411"/>
   <path id="_127260552" class="fil2 str3" d="M18.45 31.1244c1.00866,-3.97795 2.95276,-6.64016 6.09921,-6.41693"/>
   <path id="_127259840" class="fil2 str4" d="M29.7366 34.5319c0.703937,6.28465 -2.58898,15.6402 -6.9189,14.8311"/>
   <path id="_127259128" class="fil2 str2" d="M28.6276 43.3972c0.0732283,1.06772 -1.11142,3.7937 -4.43976,5.88543"/>
  </g>
  <line class="fil2 str5" x1="36.4512" y1="37.8791" x2="61.7646" y2= "37.8791" />
  <line class="fil2 str5" x1="50.2087" y1="55.461" x2="42.535" y2= "47.6445" />
  <line class="fil2 str6" x1="52.6736" y1="39.1476" x2="52.6736" y2= "54.9142" />
  <line class="fil2 str5" x1="44.7909" y1="16.2118" x2="53.9043" y2= "25.3583" />
  <line class="fil2 str6" x1="45.3697" y1="34.3878" x2="53.9043" y2= "25.3571" />
  <line class="fil2 str7" x1="36.6012" y1="36" x2="61.9146" y2= "36" />
  <g id="_127252984">
   <path id="_127255096" class="fil2 str8" d="M11.8606 37.076c0,-10.1327 5.26535,-18.3496 11.7555,-18.3496"/>
   <path id="_127254520" class="fil2 str9" d="M23.6161 55.4256c-6.49016,0 -11.7555,-8.21693 -11.7555,-18.3496"/>
   <path id="_127253944" class="fil2 str10" d="M35.3728 37.076c0,10.1327 -5.26535,18.3496 -11.7567,18.3496"/>
   <path id="_127253376" class="fil2 str9" d="M23.6161 18.7264c6.49134,0 11.7567,8.21693 11.7567,18.3496"/>
  </g>
  <polygon class="fil3 str11" points="51.1181,54.2575 43.2602,46.1445 51.1193,38.0315 "/>
  <polygon class="fil3 str11" points="43.9571,33.6709 51.815,25.5579 43.9559,17.4449 "/>
 </g>
</svg>
