<?xml version="1.0" encoding="UTF-8" standalone="no"?>
<!DOCTYPE svg PUBLIC "-//W3C//DTD SVG 20010904//EN"
"http://www.w3.org/TR/2001/REC-SVG-20010904/DTD/svg10.dtd">
<!-- Created with Sodipodi ("http://www.sodipodi.com/") -->
<svg
   i:viewOrigin="178 524"
   i:rulerOrigin="-178 -268"
   i:pageBounds="178 524 434 268"
   width="48pt"
   height="48pt"
   viewBox="0 0 256 256"
   style="overflow:visible;enable-background:new 0 0 256 256"
   xml:space="preserve"
   xmlns="http://www.w3.org/2000/svg"
   xmlns:ns="&amp;ns_vars;"
   xmlns:i="&amp;ns_ai;"
   xmlns:xml="http://www.w3.org/XML/1998/namespace"
   xmlns:sodipodi="http://sodipodi.sourceforge.net/DTD/sodipodi-0.dtd"
   xmlns:xlink="http://www.w3.org/1999/xlink"
   id="svg153"
   sodipodi:version="0.32pre"
   sodipodi:docname="/home/cschalle/gnome-themes-extras/Lush/icons/scalable/filesystems/gnome-fs-exec.svgz"
   sodipodi:docbase="/home/cschalle/gnome-themes-extras/Lush/icons/scalable/filesystems/">
  <defs
     id="defs210" />
  <sodipodi:namedview
     id="base" />
  <metadata
     id="metadata154">
    <ns:variableSets>
      <ns:variableSet
         varSetName="binding1"
         locked="none">
        <ns:variables />
        <ns:sampleDataSets />
      </ns:variableSet>
    </ns:variableSets>
  </metadata>
  <g
     id="Layer_2"
     i:layer="yes"
     i:editable="no"
     i:dimmedPercent="50"
     i:rgbTrio="#FFFF4F004F00"
     style="stroke:#000000;">
    <path
       i:knockout="Off"
       style="fill:none;stroke:none;"
       d="M256,256H0V0h256V256z"
       id="path156" />
  </g>
  <g
     id="Layer_1"
     i:layer="yes"
     i:dimmedPercent="50"
     i:rgbTrio="#4F008000FFFF"
     style="stroke:#000000;">
    <path
       i:knockout="Off"
       style="opacity:0.2;stroke:none;"
       d="M133.229,45.849c0,0-1.484,3.806-1.543,3.959c-0.086,0.182-5.326,11.402-6.926,14.831    c-4.814,0.441-9.546,1.283-14.147,2.52c-3.371-2.901-20.303-17.476-20.303-17.476L61.975,67.515l-8.12,17.096    c0,0,7.048,14.074,9.233,18.435c-6.236-0.007-24.358-0.029-24.358-0.029l-9.163,19.052l-3.883,27.557    c0,0,19.993,7.94,23.825,9.463c0.631,3.971,1.61,7.922,2.926,11.805c-1.507,1.52-5.759,5.805-5.759,5.805l-8.309,16.474    l20.099,25.416c0,0,18.669-6.818,23.03-8.411c4.949,3.72,10.287,6.933,15.942,9.597c0.302,3.509,2.021,23.464,2.021,23.464    l33.818,6.646l9.896-15.919c0,0,1.865-4.695,2.336-5.877c4.656-0.496,9.215-1.367,13.627-2.607    c3.379,2.91,19.508,16.797,19.508,16.797l25.535-16.073l11.605-17.724c0,0-7.408-14.787-9.563-19.089    c6.551,0.041,22.281,0.144,22.281,0.144l10.801-16.144l4.291-30.511c0,0-20.404-8.227-24.195-9.756    c-0.791-4.897-2.119-9.759-3.969-14.514c2.049-2.629,15.643-19.301,15.643-19.301l-1.963-2.487L210.63,73.453    c0,0-19.32,7.055-23.688,8.649c-4.73-3.488-9.775-6.504-15.07-9.009c-0.322-3.503-2.209-23.892-2.209-23.892l-35.053-6.894    L133.229,45.849z M134.618,115.938c21.188,4.167,37.426,22.576,37.426,42.189c0,0.025-0.002,0.051-0.002,0.074    c-2.697,4.436-6.469,8.182-11.016,10.825c-7.49,4.355-16.688,5.755-25.902,3.943c-19.313-3.801-33.879-20.314-33.879-38.415    c0-1.538,0.109-3.085,0.321-4.596c0.447-3.174,1.44-6.205,2.826-9.074C113.102,115.579,123.774,113.807,134.618,115.938z"
       id="path158" />
    <path
       i:knockout="Off"
       style="stroke:none;"
       d="M125.546,28.209c0,0-1.482,3.806-1.542,3.959c-0.085,0.183-5.326,11.403-6.928,14.832    c-4.813,0.44-9.545,1.283-14.146,2.521c-3.371-2.902-20.303-17.476-20.303-17.476L54.291,49.876l-8.12,17.096    c0,0,7.049,14.074,9.233,18.436c-6.236-0.007-24.357-0.03-24.357-0.03l-9.163,19.053L18,131.986c0,0,19.993,7.942,23.825,9.465    c0.63,3.971,1.61,7.921,2.926,11.804c-1.507,1.52-5.759,5.804-5.759,5.804l-8.309,16.474l20.099,25.417    c0,0,18.669-6.818,23.031-8.411c4.949,3.719,10.287,6.933,15.942,9.597c0.302,3.508,2.021,23.465,2.021,23.465l33.817,6.646    l9.898-15.921c0,0,1.867-4.693,2.337-5.875c4.656-0.495,9.215-1.367,13.627-2.608c3.38,2.91,19.506,16.797,19.506,16.797    l25.536-16.072l11.604-17.724c0,0-7.406-14.786-9.561-19.089c6.55,0.042,22.281,0.142,22.281,0.142l10.801-16.143l4.29-30.51    c0,0-20.403-8.227-24.196-9.756c-0.79-4.896-2.119-9.759-3.966-14.515c2.047-2.628,15.64-19.299,15.64-19.299l-1.961-2.486    l-18.483-23.371c0,0-19.32,7.054-23.688,8.649c-4.729-3.488-9.773-6.504-15.068-9.009c-0.323-3.503-2.208-23.893-2.208-23.893    l-35.054-6.893L125.546,28.209z M126.936,98.299c21.187,4.167,37.424,22.577,37.424,42.189c0,0.025-0.001,0.05-0.001,0.074    c-2.698,4.436-6.468,8.183-11.016,10.826c-7.489,4.353-16.688,5.754-25.9,3.942c-19.316-3.801-33.881-20.314-33.881-38.414    c0-1.54,0.108-3.086,0.321-4.598c0.448-3.173,1.44-6.204,2.826-9.074C105.418,97.94,116.091,96.167,126.936,98.299z"
       id="path159" />
    <linearGradient
       id="XMLID_1_"
       gradientUnits="userSpaceOnUse"
       x1="208.3008"
       y1="206.4785"
       x2="73.0559"
       y2="55.4251">
      <stop
         offset="0"
         style="stop-color:#01835E"
         id="stop161" />
      <stop
         offset="1"
         style="stop-color:#87CFA3"
         id="stop162" />
    </linearGradient>
    <path
       i:knockout="Off"
       style="fill:url(#XMLID_1_);stroke:none;"
       d="M128.859,32.812c0,0-5.517,14.155-6.967,17.873c-7,0.265-13.799,1.432-20.334,3.466    c-3.143-2.704-19.435-16.728-19.435-16.728L60.22,51.206c0,0,9.34,18.651,10.91,21.787c-4.573,4.935-8.224,10.448-10.945,16.455    c-4.59-0.005-24.815-0.03-24.815-0.03l-3.39,24.064c0,0,19.635,7.801,23.184,9.212c0.851,6.965,2.829,13.816,5.902,20.462    c-2.573,2.593-16.042,16.17-16.042,16.17l16.231,20.52c0,0,18.327-6.692,22.422-8.189c5.917,4.741,12.404,8.675,19.401,11.722    c0.282,3.259,1.97,22.818,1.97,22.818l27.228,5.354c0,0,6.902-17.364,8.363-21.041c7.108-0.278,14.006-1.476,20.62-3.567    c3.136,2.699,19.01,16.364,19.01,16.364l21.906-13.793c0,0-9.169-18.306-10.729-21.421c4.588-4.975,8.234-10.522,10.939-16.56    c4.631,0.03,24.915,0.161,24.915,0.161l3.389-24.074c0,0-19.919-8.029-23.434-9.447c-0.891-6.999-2.914-13.862-6.026-20.5    c2.586-2.609,16.14-16.273,16.14-16.273L201.141,60.88c0,0-18.682,6.822-22.782,8.318c-5.759-4.554-12.052-8.35-18.816-11.311    c-0.301-3.25-2.136-23.079-2.136-23.079l-27.236-5.356L128.859,32.812z M88.703,116.917c0-1.682,0.116-3.373,0.354-5.066    c1.491-10.587,7.788-19.822,17.274-25.339c8.644-5.024,19.232-6.645,29.815-4.565c23.578,4.637,40.294,25.901,37.264,47.404    c-1.491,10.588-7.791,19.825-17.28,25.342c-8.641,5.022-19.229,6.644-29.808,4.563C104.602,154.983,88.703,136.596,88.703,116.917    z"
       id="path166" />
    <path
       i:knockout="Off"
       style="fill:#006648;stroke:none;"
       d="M201.228,97.671c0.421,0.896,0.817,1.799,1.199,2.705l14.241-18.271    C213.868,84.926,203.461,95.418,201.228,97.671z"
       id="path167" />
    <path
       i:knockout="Off"
       style="fill:#336699;stroke:none;"
       d="M120.533,50.758c0.454-0.024,0.904-0.057,1.36-0.073    c1.256-3.22,5.559-14.261,6.689-17.163L120.533,50.758z"
       id="path168" />
    <path
       i:knockout="Off"
       style="fill:#1B7157;stroke:none;"
       d="M60.671,50.922l-0.037-0.001l-0.022,0.038L60.671,50.922z"
       id="path169" />
    <linearGradient
       id="XMLID_2_"
       gradientUnits="userSpaceOnUse"
       x1="92.6372"
       y1="111.3433"
       x2="173.6465"
       y2="111.3433">
      <stop
         offset="0"
         style="stop-color:#1B9F80"
         id="stop171" />
      <stop
         offset="1"
         style="stop-color:#50B796"
         id="stop172" />
    </linearGradient>
    <path
       i:knockout="Off"
       style="fill:url(#XMLID_2_);stroke:none;"
       d="M173.41,129.352c3.03-21.502-13.686-42.767-37.264-47.404    c-10.583-2.08-21.171-0.459-29.815,4.565c-5.957,3.463-10.653,8.395-13.694,14.204c9.63-6.302,22.243-8.933,35.419-6.343    c24.183,4.757,41.777,25.408,41.146,47.236C171.346,137.863,172.795,133.727,173.41,129.352z"
       id="path176" />
    <path
       i:knockout="Off"
       style="fill:#50B796;stroke:none;"
       d="M178.957,202.177c-3.824-3.293-14.896-12.823-17.614-15.164    c-2.933,5.321-5.422,11.012-8.442,16.261l18.004,15.503C173.205,213.033,176.563,207.748,178.957,202.177z"
       id="path177" />
    <path
       i:knockout="Off"
       style="fill:#2BA475;stroke:none;"
       d="M161.258,186.94c-6.614,2.092-13.512,3.289-20.62,3.567    c-0.965,2.426-4.299,10.816-6.455,16.239c6.479-0.439,12.725-1.649,18.608-3.567l0.109,0.094    c3.021-5.249,5.51-10.939,8.442-16.261C161.318,186.99,161.281,186.96,161.258,186.94z"
       id="path178" />
    <path
       i:knockout="Off"
       style="fill:#87CFA3;stroke:none;"
       d="M201.733,189.789c0,0-21.959,13.092-22.776,12.388c-2.394,5.571-5.752,10.856-8.053,16.6    l0.561,0.483l21.145-13.31l9.15-16.147C201.751,189.799,201.741,189.794,201.733,189.789z"
       id="path179" />
    <path
       i:knockout="Off"
       style="fill:#64BE88;stroke:none;"
       d="M105.047,206.195c0,0-0.021-0.25-0.058-0.68c-2.901,5.298-5.801,10.597-8.703,15.894    l0.082,0.947l26.507,5.209l9.111-16.075L105.047,206.195z"
       id="path180" />
    <path
       i:knockout="Off"
       style="fill:#2BA475;stroke:none;"
       d="M61.253,179.845l-0.103-0.131c-3.25,5.155-6.781,10.38-8.632,16.081l0.069,0.088    l22.038-8.049c2.127-5.225,4.625-10.286,6.881-15.386C75.242,174.735,61.253,179.845,61.253,179.845z"
       id="path181" />
    <path
       i:knockout="Off"
       style="fill:#009272;stroke:none;"
       d="M45.146,159.481l-8.908,15.725l16.281,20.589c1.851-5.701,5.382-10.926,8.632-16.081    L45.146,159.481z"
       id="path182" />
    <path
       i:knockout="Off"
       style="fill:#6AC29F;stroke:none;"
       d="M103.077,183.377c-6.998-3.047-13.484-6.98-19.401-11.722    c-0.518,0.189-1.263,0.461-2.169,0.793c-2.256,5.1-4.753,10.161-6.881,15.386l0.112-0.041c5.729,4.622,12.146,8.557,19.108,11.652    c3.924-4.409,6.849-9.109,9.401-14.103C103.172,184.476,103.113,183.791,103.077,183.377z"
       id="path183" />
    <path
       i:knockout="Off"
       style="fill:#50B796;stroke:none;"
       d="M93.846,199.445c0.192,0.086,0.379,0.177,0.572,0.262l1.869,21.702    c2.901-5.297,5.802-10.596,8.703-15.894c-0.255-2.959-1.292-14.974-1.742-20.173C100.695,190.336,97.77,195.036,93.846,199.445z"
       id="path184" />
    <path
       i:knockout="Off"
       style="fill:#50B796;stroke:none;"
       d="M71.129,72.992c-1.466-2.929-9.712-19.396-10.791-21.55l-8.855,15.63l9.931,19.83    C63.975,81.877,67.21,77.221,71.129,72.992z"
       id="path185" />
    <path
       i:knockout="Off"
       style="fill:#64BE88;stroke:none;"
       d="M202.384,151.531c-2.705,6.037-6.352,11.585-10.939,16.56    c0.224,0.445,0.606,1.212,1.092,2.183c0.118-0.938,0.337-1.813,0.678-2.588l24.535,0.155l9.152-16.151    C224.084,151.672,206.637,151.559,202.384,151.531z"
       id="path186" />
    <path
       i:knockout="Off"
       style="fill:#009272;stroke:none;"
       d="M55.163,122.693c-3.212-1.276-19.609-7.791-22.685-9.014    c-3.161,4.233-6.287,8.529-8.837,12.998l-0.411,2.915l22.812,9.061c2.766-4.82,6.277-9.33,9.401-14    C55.343,124,55.243,123.349,55.163,122.693z"
       id="path187" />
    <path
       i:knockout="Off"
       style="fill:#018B71;stroke:none;"
       d="M31.979,113.481l3.21-22.788c-0.005,0.001-0.013,0.002-0.019,0.002l-8.555,14.869    l-2.975,21.113c2.55-4.468,5.677-8.764,8.837-12.998C32.156,113.552,31.979,113.481,31.979,113.481z"
       id="path188" />
    <path
       i:knockout="Off"
       style="fill:#1B9F80;stroke:none;"
       d="M55.442,124.652c-3.124,4.67-6.635,9.18-9.401,14l0.263,0.105    c0.658,5.27,1.95,10.438,3.814,15.432c4.102-4.135,9.426-9.502,10.947-11.034C58.28,137.134,56.405,130.943,55.442,124.652z"
       id="path189" />
    <linearGradient
       id="XMLID_3_"
       gradientUnits="userSpaceOnUse"
       x1="185.8926"
       y1="190.4326"
       x2="97.1308"
       y2="76.7254">
      <stop
         offset="0"
         style="stop-color:#6AC29F"
         id="stop191" />
      <stop
         offset="1"
         style="stop-color:#87CFA3"
         id="stop192" />
    </linearGradient>
    <path
       i:knockout="Off"
       style="fill:url(#XMLID_3_);stroke:none;"
       d="M223.2,147.839l2.529-17.965l-22.631-9.124c-0.759-8.301-3.201-16.381-7.039-23.891    l15.592-15.717l-12.224-15.456l-21.867,7.984c-6.546-5.57-14.106-10.196-22.435-13.537l-2.059-22.246l-19.82-3.898l-7.9,20.26    c-8.87-0.041-17.361,1.455-25.141,4.25L81.647,42.525L65.844,52.47l10.49,20.947c-5.66,5.626-10.165,12.319-13.146,19.861    L39.47,93.25l-2.53,17.961l22.39,8.896c0.71,8.29,3.109,16.357,6.893,23.868L50.74,159.583l12.227,15.456l21.521-7.859    c6.684,5.765,14.447,10.542,23.019,13.956l1.897,21.983l19.819,3.895l7.974-20.064c8.972,0.033,17.558-1.502,25.405-4.368    l18.143,15.621l15.805-9.951l-10.308-20.579c5.668-5.662,10.176-12.396,13.135-19.987L223.2,147.839z M125.261,162.98    c-25.783-5.072-44.076-28.202-40.782-51.574c3.29-23.365,26.947-38.252,52.731-33.182c25.777,5.069,44.072,28.204,40.779,51.569    C174.694,153.161,151.042,168.051,125.261,162.98z"
       id="path196" />
    <linearGradient
       id="XMLID_4_"
       gradientUnits="userSpaceOnUse"
       x1="152.2617"
       y1="144.8682"
       x2="95.2391"
       y2="87.8455">
      <stop
         offset="0"
         style="stop-color:#91D3AE"
         id="stop198" />
      <stop
         offset="1"
         style="stop-color:#FFFFFF"
         id="stop199" />
    </linearGradient>
    <path
       i:knockout="Off"
       style="opacity:0.8;fill:url(#XMLID_4_);stroke:none;"
       d="M103.839,153.567c-13.636-10.045-21.632-26.044-19.36-42.161    c3.29-23.365,26.947-38.252,52.731-33.182c13.29,2.613,24.58,10.036,31.959,19.809c10.166-9.079,18.377-19.482,25.218-30.506    l-16.826,6.144c-6.546-5.57-14.106-10.196-22.435-13.537l-2.059-22.246l-19.82-3.898l-7.9,20.26    c-8.87-0.041-17.361,1.455-25.141,4.25L81.647,42.525L65.844,52.47l10.49,20.947c-5.66,5.626-10.165,12.319-13.146,19.861    L39.47,93.25l-2.53,17.961l22.39,8.896c0.71,8.29,3.109,16.357,6.893,23.868L50.74,159.583l12.227,15.456l21.521-7.859    c4.983,4.297,10.567,8.044,16.638,11.089C100.995,169.731,101.698,161.342,103.839,153.567z"
       id="path203" />
    <path
       i:knockout="Off"
       style="fill:#FFFFFF;stroke:none;"
       d="M76.334,73.417L65.844,52.47l13.036-8.203l-0.148-0.128l-15.803,9.944l10.49,20.948    c-5.25,5.22-9.488,11.365-12.457,18.245l2.226,0.003C66.17,85.736,70.675,79.043,76.334,73.417z"
       id="path204" />
    <path
       i:knockout="Off"
       style="fill:#FFFFFF;stroke:none;"
       d="M107.506,181.136c-8.572-3.414-16.335-8.191-23.019-13.956l-21.521,7.859L50.74,159.583    l15.483-15.608c-3.783-7.511-6.182-15.578-6.893-23.868l-22.39-8.896l2.302-16.344l-2.688-0.003l-2.529,17.961l22.39,8.896    c0.71,8.29,3.11,16.355,6.894,23.868l-15.483,15.607l12.226,15.455l21.522-7.857c6.684,5.763,14.447,10.542,23.018,13.956    l1.897,21.983l19.82,3.895l0.805-2.028l-17.709-3.48L107.506,181.136z"
       id="path205" />
    <path
       i:knockout="Off"
       style="fill:#FFFFFF;stroke:none;"
       d="M137.21,78.224c-12.551-2.468-24.591-0.197-34.03,5.47    c8.942-4.47,19.825-6.077,31.114-3.856c25.778,5.069,44.072,28.205,40.78,51.57c-1.691,11.995-8.755,21.745-18.708,27.719    c11.483-5.736,19.77-16.193,21.623-29.333C181.282,106.428,162.987,83.293,137.21,78.224z"
       id="path206" />
    <path
       i:knockout="Off"
       style="fill:#FFFFFF;stroke:none;"
       d="M137.196,186.949l-0.625,1.572c8.142-0.214,15.939-1.705,23.114-4.327l18.144,15.622    l2.766-1.742l-17.993-15.493C154.754,185.447,146.168,186.982,137.196,186.949z"
       id="path207" />
    <path
       i:knockout="Off"
       style="fill:#FFFFFF;stroke:none;"
       d="M198.69,149.312l21.595,0.14l0.229-1.631l-21.139-0.136    C199.16,148.234,198.922,148.771,198.69,149.312z"
       id="path208" />
  </g>
</svg>
