
<svg enable-background="new 0 0 256 256" height="48pt" viewBox="0 0 256 256"
     width="48pt" xmlns="http://www.w3.org/2000/svg"
     xmlns:xlink="http://www.w3.org/1999/xlink">
    <linearGradient id="a" gradientUnits="userSpaceOnUse" x1="208.3008"
                    x2="73.0559" y1="206.4785" y2="55.4251">
        <stop offset="0" stop-color="#01835e"/>
        <stop offset="1" stop-color="#87cfa3"/>
    </linearGradient>
    <linearGradient id="b" gradientUnits="userSpaceOnUse" x1="92.6372"
                    x2="173.6465" y1="111.3433" y2="111.3433">
        <stop offset="0" stop-color="#1b9f80"/>
        <stop offset="1" stop-color="#50b796"/>
    </linearGradient>
    <linearGradient id="c" gradientUnits="userSpaceOnUse" x1="185.8926"
                    x2="97.1308" y1="190.4326" y2="76.7254">
        <stop offset="0" stop-color="#6ac29f"/>
        <stop offset="1" stop-color="#87cfa3"/>
    </linearGradient>
    <linearGradient id="d" gradientUnits="userSpaceOnUse" x1="152.2617"
                    x2="95.2391" y1="144.8682" y2="87.8455">
        <stop offset="0" stop-color="#91d3ae"/>
        <stop offset="1" stop-color="#fff"/>
    </linearGradient>
    <path d="m256 256h-256v-256h256z" fill="none"/>
    <g stroke="none">
        <path d="m133.229 45.849s-1.484 3.806-1.543 3.959c-.086.182-5.326 11.402-6.926 14.831-4.814.441-9.546 1.283-14.147 2.52-3.371-2.901-20.303-17.476-20.303-17.476l-28.335 17.832-8.12 17.096s7.048 14.074 9.233 18.435c-6.236-.007-24.358-.029-24.358-.029l-9.163 19.052-3.883 27.557s19.993 7.94 23.825 9.463c.631 3.971 1.61 7.922 2.926 11.805-1.507 1.52-5.759 5.805-5.759 5.805l-8.309 16.474 20.099 25.416s18.669-6.818 23.03-8.411c4.949 3.72 10.287 6.933 15.942 9.597.302 3.509 2.021 23.464 2.021 23.464l33.818 6.646 9.896-15.919s1.865-4.695 2.336-5.877c4.656-.496 9.215-1.367 13.627-2.607 3.379 2.91 19.508 16.797 19.508 16.797l25.535-16.073 11.605-17.724s-7.408-14.787-9.563-19.089c6.551.041 22.281.144 22.281.144l10.801-16.144 4.291-30.511s-20.404-8.227-24.195-9.756c-.791-4.897-2.119-9.759-3.969-14.514 2.049-2.629 15.643-19.301 15.643-19.301l-1.963-2.487-18.48-23.371s-19.32 7.055-23.688 8.649c-4.73-3.488-9.775-6.504-15.07-9.009-.322-3.503-2.209-23.892-2.209-23.892l-35.053-6.894zm1.389 70.089c21.188 4.167 37.426 22.576 37.426 42.189 0 .025-.002.051-.002.074-2.697 4.436-6.469 8.182-11.016 10.825-7.49 4.355-16.688 5.755-25.902 3.943-19.313-3.801-33.879-20.314-33.879-38.415 0-1.538.109-3.085.321-4.596.447-3.174 1.44-6.205 2.826-9.074 8.71-5.305 19.382-7.077 30.226-4.946z"
              opacity=".2"/>
        <path d="m125.546 28.209s-1.482 3.806-1.542 3.959c-.085.183-5.326 11.403-6.928 14.832-4.813.44-9.545 1.283-14.146 2.521-3.371-2.902-20.303-17.476-20.303-17.476l-28.336 17.831-8.12 17.096s7.049 14.074 9.233 18.436c-6.236-.007-24.357-.03-24.357-.03l-9.163 19.053-3.884 27.555s19.993 7.942 23.825 9.465c.63 3.971 1.61 7.921 2.926 11.804-1.507 1.52-5.759 5.804-5.759 5.804l-8.309 16.474 20.099 25.417s18.669-6.818 23.031-8.411c4.949 3.719 10.287 6.933 15.942 9.597.302 3.508 2.021 23.465 2.021 23.465l33.817 6.646 9.898-15.921s1.867-4.693 2.337-5.875c4.656-.495 9.215-1.367 13.627-2.608 3.38 2.91 19.506 16.797 19.506 16.797l25.536-16.072 11.604-17.724s-7.406-14.786-9.561-19.089c6.55.042 22.281.142 22.281.142l10.801-16.143 4.29-30.51s-20.403-8.227-24.196-9.756c-.79-4.896-2.119-9.759-3.966-14.515 2.047-2.628 15.64-19.299 15.64-19.299l-1.961-2.486-18.483-23.371s-19.32 7.054-23.688 8.649c-4.729-3.488-9.773-6.504-15.068-9.009-.323-3.503-2.208-23.893-2.208-23.893l-35.054-6.893zm1.39 70.09c21.187 4.167 37.424 22.577 37.424 42.189 0 .025-.001.05-.001.074-2.698 4.436-6.468 8.183-11.016 10.826-7.489 4.353-16.688 5.754-25.9 3.942-19.316-3.801-33.881-20.314-33.881-38.414 0-1.54.108-3.086.321-4.598.448-3.173 1.44-6.204 2.826-9.074 8.709-5.304 19.382-7.077 30.227-4.945z"/>
        <path d="m128.859 32.812s-5.517 14.155-6.967 17.873c-7 .265-13.799 1.432-20.334 3.466-3.143-2.704-19.435-16.728-19.435-16.728l-21.903 13.783s9.34 18.651 10.91 21.787c-4.573 4.935-8.224 10.448-10.945 16.455-4.59-.005-24.815-.03-24.815-.03l-3.39 24.064s19.635 7.801 23.184 9.212c.851 6.965 2.829 13.816 5.902 20.462-2.573 2.593-16.042 16.17-16.042 16.17l16.231 20.52s18.327-6.692 22.422-8.189c5.917 4.741 12.404 8.675 19.401 11.722.282 3.259 1.97 22.818 1.97 22.818l27.228 5.354s6.902-17.364 8.363-21.041c7.108-.278 14.006-1.476 20.62-3.567 3.136 2.699 19.01 16.364 19.01 16.364l21.906-13.793s-9.169-18.306-10.729-21.421c4.588-4.975 8.234-10.522 10.939-16.56 4.631.03 24.915.161 24.915.161l3.389-24.074s-19.919-8.029-23.434-9.447c-.891-6.999-2.914-13.862-6.026-20.5 2.586-2.609 16.14-16.273 16.14-16.273l-16.228-20.52s-18.682 6.822-22.782 8.318c-5.759-4.554-12.052-8.35-18.816-11.311-.301-3.25-2.136-23.079-2.136-23.079l-27.236-5.356zm-40.156 84.105c0-1.682.116-3.373.354-5.066 1.491-10.587 7.788-19.822 17.274-25.339 8.644-5.024 19.232-6.645 29.815-4.565 23.578 4.637 40.294 25.901 37.264 47.404-1.491 10.588-7.791 19.825-17.28 25.342-8.641 5.022-19.229 6.644-29.808 4.563-21.72-4.273-37.619-22.66-37.619-42.339z"
              fill="url(#a)"/>
        <path d="m201.228 97.671c.421.896.817 1.799 1.199 2.705l14.241-18.271c-2.8 2.821-13.207 13.313-15.44 15.566z"
              fill="#006648"/>
        <path d="m120.533 50.758c.454-.024.904-.057 1.36-.073 1.256-3.22 5.559-14.261 6.689-17.163z"
              fill="#369"/>
        <path d="m60.671 50.922-.037-.001-.022.038z" fill="#1b7157"/>
        <path d="m173.41 129.352c3.03-21.502-13.686-42.767-37.264-47.404-10.583-2.08-21.171-.459-29.815 4.565-5.957 3.463-10.653 8.395-13.694 14.204 9.63-6.302 22.243-8.933 35.419-6.343 24.183 4.757 41.777 25.408 41.146 47.236 2.144-3.747 3.593-7.883 4.208-12.258z"
              fill="url(#b)"/>
        <path d="m178.957 202.177c-3.824-3.293-14.896-12.823-17.614-15.164-2.933 5.321-5.422 11.012-8.442 16.261l18.004 15.503c2.3-5.744 5.658-11.029 8.052-16.6z"
              fill="#50b796"/>
        <path d="m161.258 186.94c-6.614 2.092-13.512 3.289-20.62 3.567-.965 2.426-4.299 10.816-6.455 16.239 6.479-.439 12.725-1.649 18.608-3.567l.109.094c3.021-5.249 5.51-10.939 8.442-16.261-.024-.022-.061-.052-.084-.072z"
              fill="#2ba475"/>
        <path d="m201.733 189.789s-21.959 13.092-22.776 12.388c-2.394 5.571-5.752 10.856-8.053 16.6l.561.483 21.145-13.31 9.15-16.147c-.009-.004-.019-.009-.027-.014z"
              fill="#87cfa3"/>
        <path d="m105.047 206.195s-.021-.25-.058-.68c-2.901 5.298-5.801 10.597-8.703 15.894l.082.947 26.507 5.209 9.111-16.075z"
              fill="#64be88"/>
        <path d="m61.253 179.845-.103-.131c-3.25 5.155-6.781 10.38-8.632 16.081l.069.088 22.038-8.049c2.127-5.225 4.625-10.286 6.881-15.386-6.264 2.287-20.253 7.397-20.253 7.397z"
              fill="#2ba475"/>
        <path d="m45.146 159.481-8.908 15.725 16.281 20.589c1.851-5.701 5.382-10.926 8.632-16.081z"
              fill="#009272"/>
        <path d="m103.077 183.377c-6.998-3.047-13.484-6.98-19.401-11.722-.518.189-1.263.461-2.169.793-2.256 5.1-4.753 10.161-6.881 15.386l.112-.041c5.729 4.622 12.146 8.557 19.108 11.652 3.924-4.409 6.849-9.109 9.401-14.103-.075-.866-.134-1.551-.17-1.965z"
              fill="#6ac29f"/>
        <path d="m93.846 199.445c.192.086.379.177.572.262l1.869 21.702c2.901-5.297 5.802-10.596 8.703-15.894-.255-2.959-1.292-14.974-1.742-20.173-2.553 4.994-5.478 9.694-9.402 14.103z"
              fill="#50b796"/>
        <path d="m71.129 72.992c-1.466-2.929-9.712-19.396-10.791-21.55l-8.855 15.63 9.931 19.83c2.561-5.025 5.796-9.681 9.715-13.91z"
              fill="#50b796"/>
        <path d="m202.384 151.531c-2.705 6.037-6.352 11.585-10.939 16.56.224.445.606 1.212 1.092 2.183.118-.938.337-1.813.678-2.588l24.535.155 9.152-16.151c-2.818-.018-20.265-.131-24.518-.159z"
              fill="#64be88"/>
        <path d="m55.163 122.693c-3.212-1.276-19.609-7.791-22.685-9.014-3.161 4.233-6.287 8.529-8.837 12.998l-.411 2.915 22.812 9.061c2.766-4.82 6.277-9.33 9.401-14-.1-.653-.2-1.304-.28-1.96z"
              fill="#009272"/>
        <path d="m31.979 113.481 3.21-22.788c-.005.001-.013.002-.019.002l-8.555 14.869-2.975 21.113c2.55-4.468 5.677-8.764 8.837-12.998-.321-.127-.498-.198-.498-.198z"
              fill="#018b71"/>
        <path d="m55.442 124.652c-3.124 4.67-6.635 9.18-9.401 14l.263.105c.658 5.27 1.95 10.438 3.814 15.432 4.102-4.135 9.426-9.502 10.947-11.034-2.785-6.021-4.66-12.212-5.623-18.503z"
              fill="#1b9f80"/>
        <path d="m223.2 147.839 2.529-17.965-22.631-9.124c-.759-8.301-3.201-16.381-7.039-23.891l15.592-15.717-12.224-15.456-21.867 7.984c-6.546-5.57-14.106-10.196-22.435-13.537l-2.059-22.246-19.82-3.898-7.9 20.26c-8.87-.041-17.361 1.455-25.141 4.25l-18.558-15.974-15.803 9.945 10.49 20.947c-5.66 5.626-10.165 12.319-13.146 19.861l-23.718-.028-2.53 17.961 22.39 8.896c.71 8.29 3.109 16.357 6.893 23.868l-15.483 15.608 12.227 15.456 21.521-7.859c6.684 5.765 14.447 10.542 23.019 13.956l1.897 21.983 19.819 3.895 7.974-20.064c8.972.033 17.558-1.502 25.405-4.368l18.143 15.621 15.805-9.951-10.308-20.579c5.668-5.662 10.176-12.396 13.135-19.987zm-97.939 15.141c-25.783-5.072-44.076-28.202-40.782-51.574 3.29-23.365 26.947-38.252 52.731-33.182 25.777 5.069 44.072 28.204 40.779 51.569-3.295 23.368-26.947 38.258-52.728 33.187z"
              fill="url(#c)"/>
        <path d="m103.839 153.567c-13.636-10.045-21.632-26.044-19.36-42.161 3.29-23.365 26.947-38.252 52.731-33.182 13.29 2.613 24.58 10.036 31.959 19.809 10.166-9.079 18.377-19.482 25.218-30.506l-16.826 6.144c-6.546-5.57-14.106-10.196-22.435-13.537l-2.059-22.246-19.82-3.898-7.9 20.26c-8.87-.041-17.361 1.455-25.141 4.25l-18.559-15.975-15.803 9.945 10.49 20.947c-5.66 5.626-10.165 12.319-13.146 19.861l-23.718-.028-2.53 17.961 22.39 8.896c.71 8.29 3.109 16.357 6.893 23.868l-15.483 15.608 12.227 15.456 21.521-7.859c4.983 4.297 10.567 8.044 16.638 11.089-.131-8.538.572-16.927 2.713-24.702z"
              fill="url(#d)" opacity=".8"/>
        <g fill="#fff">
            <path d="m76.334 73.417-10.49-20.947 13.036-8.203-.148-.128-15.803 9.944 10.49 20.948c-5.25 5.22-9.488 11.365-12.457 18.245l2.226.003c2.982-7.543 7.487-14.236 13.146-19.862z"/>
            <path d="m107.506 181.136c-8.572-3.414-16.335-8.191-23.019-13.956l-21.521 7.859-12.226-15.456 15.483-15.608c-3.783-7.511-6.182-15.578-6.893-23.868l-22.39-8.896 2.302-16.344-2.688-.003-2.529 17.961 22.39 8.896c.71 8.29 3.11 16.355 6.894 23.868l-15.483 15.607 12.226 15.455 21.522-7.857c6.684 5.763 14.447 10.542 23.018 13.956l1.897 21.983 19.82 3.895.805-2.028-17.709-3.48z"/>
            <path d="m137.21 78.224c-12.551-2.468-24.591-.197-34.03 5.47 8.942-4.47 19.825-6.077 31.114-3.856 25.778 5.069 44.072 28.205 40.78 51.57-1.691 11.995-8.755 21.745-18.708 27.719 11.483-5.736 19.77-16.193 21.623-29.333 3.293-23.366-15.002-46.501-40.779-51.57z"/>
            <path d="m137.196 186.949-.625 1.572c8.142-.214 15.939-1.705 23.114-4.327l18.144 15.622 2.766-1.742-17.993-15.493c-7.848 2.866-16.434 4.401-25.406 4.368z"/>
            <path d="m198.69 149.312 21.595.14.229-1.631-21.139-.136c-.215.549-.453 1.086-.685 1.627z"/>
        </g>
    </g>
</svg>