
<svg height="400pt" width="400pt" xmlns="http://www.w3.org/2000/svg">
    <path d="m35.6127 215.946c-2.258 178.912 425.6573 176.367 426.5043-.848-1.695-123.7967-426.5043-122.9487-426.5043.848z"
          fill="#f3f3f3" fill-rule="evenodd" stroke="#000"
          stroke-linejoin="round" stroke-width="8.892954"
          transform="matrix(1.071685 0 0 1.179888 -15.65985 -40.02636)"/>
    <path d="m267.398 249.406c-4.336 39.635 16.133 77.964 24.559 97.293 31.373.521 103.1-28.176 114.238-38.659 3.75-23.48-32.195-73.147-44.643-74.458-24.85 12.425-71.834 15.489-94.154 15.824z"
          fill="#f00" fill-rule="evenodd" stroke="#000" stroke-linejoin="bevel"
          stroke-width="3.33486"
          transform="matrix(1.071685 0 0 1.179888 -15.65985 -40.02636)"/>
    <path d="m170.273 128.089c-9.172 32.757 9.105 99.808 27.449 121.428 43.781 4.031 69.084 1.473 86.044 1.308 11.138-40.619-12.901-113.678-28.625-128.747-34.179-1.521-49.266.448-84.868 6.011z"
          fill="#f00" fill-rule="evenodd" stroke="#000" stroke-linejoin="round"
          stroke-width="8.892954"
          transform="matrix(1.071685 0 0 1.179888 -15.65985 -40.02636)"/>
    <path d="m23.3409 180.142c18.1541-6.051 76.0742 12.103 81.2611 15.561 12.103 4.322 23.341 10.374 30.257 37.173-17.29 6.051-55.3269 23.341-50.14 84.719-19.883-1.729-90.77035-69.158-61.3781-137.453z"
          fill="#f00" fill-rule="evenodd" stroke="#000" stroke-linejoin="round"
          stroke-width="9.883457"
          transform="matrix(.980286 0 0 1.04431 6.238736 -2.630577)"/>
    <path d="m482.34 212.993c-9.509-13.832-25.03-32.851-85.544-6.916.128-3.089-2.961 9.656-9.509 12.103-21.613-8.645-27.664-90.789-5.187-98.569 44.953 15.56 101.105 34.597 100.24 93.382z"
          fill="#f00" fill-rule="evenodd" stroke="#000" stroke-linejoin="round"
          stroke-width="9.883457"
          transform="matrix(.980286 0 0 1.04431 6.238736 -2.630577)"/>
    <path d="m128.844 199.68c-32.9508 7.014-22.01 52.155 121.982 52.653 138.095-2.121 141.8-45.754 125.421-50.34"
          fill="none" stroke="#000" stroke-linejoin="round"
          stroke-width="8.892954"
          transform="matrix(1.071685 0 0 1.179888 -15.65985 -40.02636)"/>
    <g fill-rule="evenodd">
        <path d="m14.1421 222.461s-26.5165 10.606.8839 36.238c30.9359 30.053 88.388 52.15 121.092 51.266 127.279 25.633 274.004-2.652 315.547-40.659 5.303-10.606 1.767 8.839 21.213-19.446 19.445-28.284 24.714-52.148 21.213-66.29-2.724-14.104-25.633-22.982-25.633-18.562 0 0 6.188 13.258 8.822 17.678.901 10.607 14.16 34.471-29.151 70.71-69.827 63.64-235.113 53.033-275.771 48.614-103.4147-7.071-149.377-49.498-155.5642-61.872-1.7678-7.071-2.6517-14.142-2.6517-17.677z"
              fill="#bfbfbf" stroke="#000" stroke-linejoin="round"
              stroke-width="9.883457"
              transform="matrix(.980286 0 0 1.04431 6.238736 -2.630577)"/>
        <path d="m77.7818 320.572c38.8912 29.168 134.3502 50.38 187.3832 47.73 95.46-5.304 171.473-53.918 185.615-78.667-50.381 29.169-91.039 47.731-159.982 55.686s-177.661-10.608-213.0162-24.749z"
              fill-opacity=".25"/>
        <path d="m105.182 237.487s110.486 22.98 147.609 23.865c53.916 5.302 161.75-31.82 159.983-44.195 12.374-4.419-98.995 125.512-307.592 20.33z"
              fill="#fff" fill-opacity=".496296"/>
        <path d="m182.5 352.5c-13.258-5.303-17.223-96.982 6.036-107.286 10-5-25.455-7.714-25.455-7.714-15.026 11.49-37.526 98.447-9.331 112.5 10.518 6.098 24.331 7.5 28.75 2.5z"
              fill="#735931" stroke="#000" stroke-width="3.7063"
              transform="matrix(.980286 0 0 1.04431 6.238736 -2.630577)"/>
        <path d="m382.722 218.041c11.491 2.652 79.549 13.259 72.478 67.176 9.723-3.536 14.143-10.607 16.794-18.562.883-37.123-49.498-62.756-80.433-58.337-5.304 0-8.839 11.491-8.839 9.723z"
              fill="#735931" stroke="#000" stroke-linejoin="round"
              stroke-width="9.883457"
              transform="matrix(.980286 0 0 1.04431 6.238736 -2.630577)"/>
        <path d="m144.073 238.37s28.285-33.587 118.44-32.703c76.014-.884 110.486 24.748 110.486 24.748-15.91 16.794-184.731 42.427-228.926 7.955z"
              fill-opacity=".247059"/>
        <path d="m63.6397 157.937c104.2983-45.079 258.9773-30.936 347.3663-18.562-56.569-34.471-274.004-49.497-347.3663 18.562z"
              fill="#fff" fill-opacity=".498039"/>
        <path d="m295.217 101.368c30.052 14.142 44.194 100.763 21.213 140.538-1.768 3.535 22.097-2.652 23.865-3.535 22.097-49.498 1.768-121.977-17.677-134.351-10.607-8.8388-27.401-2.652-27.401-2.652z"
              fill="#735931" stroke="#000" stroke-linejoin="round"
              stroke-width="9.883457"
              transform="matrix(.980286 0 0 1.04431 6.238736 -2.630577)"/>
        <path d="m61.8719 139.375c56.5691 9.723 93.6921 78.666 93.6921 96.344 0 2.651 19.445 1.768 26.517 3.536-14.143-59.221-66.292-105.183-98.1121-110.486-9.7227 0-19.4454 4.419-22.097 10.606z"
              fill="#735931" stroke="#000" stroke-linejoin="round"
              stroke-width="9.883457"
              transform="matrix(.980286 0 0 1.04431 6.238736 -2.630577)"/>
        <path d="m165.286 251.629c-2.651 7.071-16.794 38.89-16.794 68.943 13.258-44.195 23.865-66.292 30.936-66.292 3.536-.884-8.839-8.839-14.142-2.651z"
              fill="#fff" fill-opacity=".498039"/>
        <path d="m387.277 222.731c2.176-2.787 2.245-3.466 4.487-5.234 13.259-1.768 45.759 4.963 59.901 25.292-28.284-18.56-49.362-20.058-64.388-20.058z"
              fill="#fff" fill-opacity=".498039"/>
        <path d="m304.149 104.443s11.97-2.176 17.955 5.441c15.779 9.794 25.572 56.586 22.852 70.733-1.088-15.779-12.515-69.644-40.807-76.174z"
              fill="#fff" fill-opacity=".498039"/>
        <path d="m72.9086 139.81s8.7056-5.441 17.9552-4.353c15.2342-.544 46.7922 31.013 57.1302 43.528 10.337 12.514-35.366-39.719-75.0854-39.175z"
              fill="#fff" fill-opacity=".498039"/>
    </g>
</svg>