<?xml version="1.0" encoding="UTF-8" standalone="no"?>
<!DOCTYPE svg PUBLIC "-//W3C//DTD SVG 20010904//EN"
"http://www.w3.org/TR/2001/REC-SVG-20010904/DTD/svg10.dtd">
<!-- Created with Sodipodi ("http://www.sodipodi.com/") -->
<svg
   id="svg548"
   sodipodi:version="0.32"
   width="400pt"
   height="400pt"
   sodipodi:docbase="/var/www/html/svg_gallery/svg/misc"
   sodipodi:docname="help.svg"
   xmlns="http://www.w3.org/2000/svg"
   xmlns:sodipodi="http://sodipodi.sourceforge.net/DTD/sodipodi-0.dtd"
   xmlns:inkscape="http://www.inkscape.org/namespaces/inkscape"
   xmlns:xlink="http://www.w3.org/1999/xlink"
   inkscape:version="0.38.1">
  <defs
     id="defs550" />
  <sodipodi:namedview
     id="base"
     showgrid="true"
     inkscape:zoom="0.90750000"
     inkscape:cx="200.00000"
     inkscape:cy="200.00000"
     inkscape:window-width="640"
     inkscape:window-height="500"
     inkscape:window-x="0"
     inkscape:window-y="24" />
  <g
     id="g844">
    <path
       style="fill:#f3f3f3;fill-rule:evenodd;stroke:black;stroke-opacity:1;stroke-width:8.8929537;stroke-linejoin:round;stroke-linecap:butt;fill-opacity:1;stroke-dasharray:none;"
       d="M 35.6127 215.946 C 33.3547 394.858 461.27 392.313 462.117 215.098 C 460.422 91.3013 35.6127 92.1493 35.6127 215.946 z "
       id="path1065"
       sodipodi:nodetypes="ccc"
       transform="matrix(1.071685,0.000000,0.000000,1.179888,-15.65985,-40.02636)" />
    <path
       style="fill:#ff0000;fill-rule:evenodd;stroke:black;stroke-opacity:1;stroke-width:3.33486;stroke-linejoin:bevel;stroke-linecap:butt;fill-opacity:1;stroke-dasharray:none;"
       d="M 267.398 249.406 C 263.062 289.041 283.531 327.37 291.957 346.699 C 323.33 347.22 395.057 318.523 406.195 308.04 C 409.945 284.56 374 234.893 361.552 233.582 C 336.702 246.007 289.718 249.071 267.398 249.406 z "
       id="path1068"
       sodipodi:nodetypes="ccccc"
       transform="matrix(1.071685,0.000000,0.000000,1.179888,-15.65985,-40.02636)" />
    <path
       style="fill:#ff0000;fill-rule:evenodd;stroke:black;stroke-opacity:1;stroke-width:8.8929537;stroke-linejoin:round;stroke-linecap:butt;fill-opacity:1;stroke-dasharray:none;"
       d="M 170.273 128.089 C 161.101 160.846 179.378 227.897 197.722 249.517 C 241.503 253.548 266.806 250.99 283.766 250.825 C 294.904 210.206 270.865 137.147 255.141 122.078 C 220.962 120.557 205.875 122.526 170.273 128.089 z "
       id="path1067"
       sodipodi:nodetypes="ccccc"
       transform="matrix(1.071685,0.000000,0.000000,1.179888,-15.65985,-40.02636)" />
    <path
       style="fill:#ff0000;fill-rule:evenodd;stroke:black;stroke-opacity:1;stroke-width:9.8834571;stroke-linejoin:round;stroke-linecap:butt;fill-opacity:1;stroke-dasharray:none;"
       d="M 23.3409 180.142 C 41.495 174.091 99.4151 192.245 104.602 195.703 C 116.705 200.025 127.943 206.077 134.859 232.876 C 117.569 238.927 79.5321 256.217 84.719 317.595 C 64.836 315.866 -6.05135 248.437 23.3409 180.142 z "
       id="path1069"
       sodipodi:nodetypes="ccccc"
       transform="matrix(0.980286,0.000000,0.000000,1.044310,6.238736,-2.630577)" />
    <path
       style="fill:#ff0000;fill-rule:evenodd;stroke:black;stroke-opacity:1;stroke-width:9.8834571;stroke-linejoin:round;stroke-linecap:butt;fill-opacity:1;stroke-dasharray:none;"
       d="M 482.34 212.993 C 472.831 199.161 457.31 180.142 396.796 206.077 C 396.924 202.988 393.835 215.733 387.287 218.18 C 365.674 209.535 359.623 127.391 382.1 119.611 C 427.053 135.171 483.205 154.208 482.34 212.993 z "
       id="path1070"
       sodipodi:nodetypes="ccccc"
       transform="matrix(0.980286,0.000000,0.000000,1.044310,6.238736,-2.630577)" />
    <path
       style="fill:none;fill-rule:evenodd;stroke:black;stroke-opacity:1;stroke-width:8.8929537;stroke-linejoin:round;stroke-linecap:butt;fill-opacity:1;stroke-dasharray:none;"
       d="M 128.844 199.68 C 95.8932 206.694 106.834 251.835 250.826 252.333 C 388.921 250.212 392.626 206.579 376.247 201.993 "
       id="path1066"
       sodipodi:nodetypes="ccc"
       transform="matrix(1.071685,0.000000,0.000000,1.179888,-15.65985,-40.02636)" />
    <path
       style="fill:#bfbfbf;fill-rule:evenodd;stroke:black;stroke-opacity:1;stroke-width:9.8834571;stroke-linejoin:round;stroke-linecap:butt;fill-opacity:1;stroke-dasharray:none;"
       d="M 14.1421 222.461 C 14.1421 222.461 -12.3744 233.067 15.026 258.699 C 45.9619 288.752 103.414 310.849 136.118 309.965 C 263.397 335.598 410.122 307.313 451.665 269.306 C 456.968 258.7 453.432 278.145 472.878 249.86 C 492.323 221.576 497.592 197.712 494.091 183.57 C 491.367 169.466 468.458 160.588 468.458 165.008 C 468.458 165.008 474.646 178.266 477.28 182.686 C 478.181 193.293 491.44 217.157 448.129 253.396 C 378.302 317.036 213.016 306.429 172.358 302.01 C 68.9433 294.939 22.981 252.512 16.7938 240.138 C 15.026 233.067 14.1421 225.996 14.1421 222.461 z "
       id="path1076"
       sodipodi:nodetypes="cccccccccccc"
       transform="matrix(0.980286,0.000000,0.000000,1.044310,6.238736,-2.630577)" />
    <path
       style="fill:#000000;fill-rule:evenodd;stroke:none;stroke-opacity:1;stroke-width:1pt;stroke-linejoin:miter;stroke-linecap:butt;fill-opacity:0.25;"
       d="M 77.7818 320.572 C 116.673 349.74 212.132 370.952 265.165 368.302 C 360.625 362.998 436.638 314.384 450.78 289.635 C 400.399 318.804 359.741 337.366 290.798 345.321 C 221.855 353.276 113.137 334.713 77.7818 320.572 z "
       id="path1077"
       sodipodi:nodetypes="ccccc" />
    <path
       style="fill:#ffffff;fill-rule:evenodd;stroke:none;stroke-opacity:1;stroke-width:1pt;stroke-linejoin:miter;stroke-linecap:butt;fill-opacity:0.496296;"
       d="M 105.182 237.487 C 105.182 237.487 215.668 260.467 252.791 261.352 C 306.707 266.654 414.541 229.532 412.774 217.157 C 425.148 212.738 313.779 342.669 105.182 237.487 z "
       id="path1079"
       sodipodi:nodetypes="cccc" />
    <path
       style="fill:#735931;fill-rule:evenodd;stroke:black;stroke-opacity:1;stroke-width:3.7063;stroke-linejoin:miter;stroke-linecap:butt;fill-opacity:1;stroke-dasharray:none;"
       d="M 182.5 352.5 C 169.242 347.197 165.277 255.518 188.536 245.214 C 198.536 240.214 163.081 237.5 163.081 237.5 C 148.055 248.99 125.555 335.947 153.75 350 C 164.268 356.098 178.081 357.5 182.5 352.5 z "
       id="path1071"
       sodipodi:nodetypes="ccccc"
       transform="matrix(0.980286,0.000000,0.000000,1.044310,6.238736,-2.630577)" />
    <path
       style="fill:#735931;fill-rule:evenodd;stroke:black;stroke-opacity:1;stroke-width:9.8834571;stroke-linejoin:round;stroke-linecap:butt;fill-opacity:1;stroke-dasharray:none;"
       d="M 382.722 218.041 C 394.213 220.693 462.271 231.3 455.2 285.217 C 464.923 281.681 469.343 274.61 471.994 266.655 C 472.877 229.532 422.496 203.899 391.561 208.318 C 386.257 208.318 382.722 219.809 382.722 218.041 z "
       id="path1072"
       sodipodi:nodetypes="ccccc"
       transform="matrix(0.980286,0.000000,0.000000,1.044310,6.238736,-2.630577)" />
    <path
       style="fill:#000000;fill-rule:evenodd;stroke:none;stroke-opacity:1;stroke-width:1pt;stroke-linejoin:miter;stroke-linecap:butt;fill-opacity:0.247059;"
       d="M 144.073 238.37 C 144.073 238.37 172.358 204.783 262.513 205.667 C 338.527 204.783 372.999 230.415 372.999 230.415 C 357.089 247.209 188.268 272.842 144.073 238.37 z "
       id="path1078"
       sodipodi:nodetypes="cccc" />
    <path
       style="fill:#ffffff;fill-rule:evenodd;stroke:none;stroke-opacity:1;stroke-width:1pt;stroke-linejoin:miter;stroke-linecap:butt;fill-opacity:0.498039;"
       d="M 63.6397 157.937 C 167.938 112.858 322.617 127.001 411.006 139.375 C 354.437 104.904 137.002 89.878 63.6397 157.937 z "
       id="path1080"
       sodipodi:nodetypes="ccc" />
    <path
       style="fill:#735931;fill-rule:evenodd;stroke:black;stroke-opacity:1;stroke-width:9.8834571;stroke-linejoin:round;stroke-linecap:butt;fill-opacity:1;stroke-dasharray:none;"
       d="M 295.217 101.368 C 325.269 115.51 339.411 202.131 316.43 241.906 C 314.662 245.441 338.527 239.254 340.295 238.371 C 362.392 188.873 342.063 116.394 322.618 104.02 C 312.011 95.1812 295.217 101.368 295.217 101.368 z "
       id="path1073"
       sodipodi:nodetypes="ccccc"
       transform="matrix(0.980286,0.000000,0.000000,1.044310,6.238736,-2.630577)" />
    <path
       style="fill:#735931;fill-rule:evenodd;stroke:black;stroke-opacity:1;stroke-width:9.8834571;stroke-linejoin:round;stroke-linecap:butt;fill-opacity:1;stroke-dasharray:none;"
       d="M 61.8719 139.375 C 118.441 149.098 155.564 218.041 155.564 235.719 C 155.564 238.37 175.009 237.487 182.081 239.255 C 167.938 180.034 115.789 134.072 83.9689 128.769 C 74.2462 128.769 64.5235 133.188 61.8719 139.375 z "
       id="path1074"
       sodipodi:nodetypes="ccccc"
       transform="matrix(0.980286,0.000000,0.000000,1.044310,6.238736,-2.630577)" />
    <path
       style="fill:#ffffff;fill-rule:evenodd;stroke:none;stroke-opacity:1;stroke-width:1pt;stroke-linejoin:miter;stroke-linecap:butt;fill-opacity:0.498039;"
       d="M 165.286 251.629 C 162.635 258.7 148.492 290.519 148.492 320.572 C 161.75 276.377 172.357 254.28 179.428 254.28 C 182.964 253.396 170.589 245.441 165.286 251.629 z "
       id="path1083"
       sodipodi:nodetypes="cccc" />
    <path
       style="fill:#ffffff;fill-rule:evenodd;stroke:none;stroke-opacity:1;stroke-width:1pt;stroke-linejoin:miter;stroke-linecap:butt;fill-opacity:0.498039;"
       d="M 387.277 222.731 C 389.453 219.944 389.522 219.265 391.764 217.497 C 405.023 215.729 437.523 222.46 451.665 242.789 C 423.381 224.229 402.303 222.731 387.277 222.731 z "
       id="path1084"
       sodipodi:nodetypes="cccc" />
    <path
       style="fill:#ffffff;fill-rule:evenodd;stroke:none;stroke-opacity:1;stroke-width:1pt;stroke-linejoin:miter;stroke-linecap:butt;fill-opacity:0.498039;"
       d="M 304.149 104.443 C 304.149 104.443 316.119 102.267 322.104 109.884 C 337.883 119.678 347.676 166.47 344.956 180.617 C 343.868 164.838 332.441 110.973 304.149 104.443 z "
       id="path1085"
       sodipodi:nodetypes="cccc" />
    <path
       style="fill:#ffffff;fill-rule:evenodd;stroke:none;stroke-opacity:1;stroke-width:1pt;stroke-linejoin:miter;stroke-linecap:butt;fill-opacity:0.498039;"
       d="M 72.9086 139.81 C 72.9086 139.81 81.6142 134.369 90.8638 135.457 C 106.098 134.913 137.656 166.47 147.994 178.985 C 158.331 191.499 112.628 139.266 72.9086 139.81 z "
       id="path1086"
       sodipodi:nodetypes="cccc" />
  </g>

  <rdf:RDF 
   xmlns="http://web.resource.org/cc/"
   xmlns:dc="http://purl.org/dc/elements/1.1/"
   xmlns:rdf="http://www.w3.org/1999/02/22-rdf-syntax-ns#">
  <Work rdf:about="">
    <dc:title>Clipart by Nicu Buculei - nosmoke</dc:title>
    <dc:rights>
       <Agent>
         <dc:title>Nicu Buculei</dc:title>
       </Agent>
    </dc:rights>
    <dc:type rdf:resource="http://purl.org/dc/dcmitype/StillImage" />
    <license rdf:resource="http://web.resource.org/cc/PublicDomain" />
  </Work>
   
  <License rdf:about="http://web.resource.org/cc/PublicDomain">
     <permits rdf:resource="http://web.resource.org/cc/Reproduction" />
     <permits rdf:resource="http://web.resource.org/cc/Distribution" />
     <permits rdf:resource="http://web.resource.org/cc/DerivativeWorks" />
  </License>

</rdf:RDF>
</svg>
