
<svg height="400pt" width="400pt" xmlns="http://www.w3.org/2000/svg"
     xmlns:xlink="http://www.w3.org/1999/xlink">
    <radialGradient id="a" cx=".540672" cy=".34639"
                    gradientTransform="scale(.867801 1.152339)" r=".812568">
        <stop offset="0" stop-color="#7f0000"/>
        <stop offset="1" stop-color="#f00"/>
    </radialGradient>
    <g fill-rule="evenodd">
        <path d="m259.66416 56.890625c-15.19944.559541-32.24863 5.653306-41.34375 16.5625-13.22926 28.187735 18.90771 15.172915 22.6875 34.687495 3.77979 19.51459-18.90625 20.59375-18.90625 20.59375h-97.75s.125 96.93751.125 96.9375c0 0 1.07917 22.68603 20.59375 18.90625 19.51459-3.77979 6.49977-35.91676 34.6875-22.6875 10.9092 9.09512 16.00296 26.14431 16.5625 41.34375.20656 5.61095-.2833 10.88794-1.25 15.5-.02481.20469-.06729.42017-.09375.625-1.69391 13.11441-6.7618 26.4178-15.96875 34.09375-28.18774 13.22927-15.17291-18.90772-34.6875-22.6875-14.2217-2.75461-18.61163 8.51258-19.96875 14.84375v102.875h101.59375c6.20122 1.21826 18.24109 5.48907 15.40625 20.125-3.77979 19.5146-35.88552 6.49976-22.65625 34.6875 7.67594 9.20696 20.97934 14.27484 34.09375 15.96875.20482.02647.42031.06894.625.09375 4.61204.96671 9.88905 1.45656 15.5 1.25 15.19944-.55953 32.24863-5.6533 41.34375-16.5625 13.22926-28.18772-18.90771-15.17291-22.6875-34.6875-3.7798-19.51457 18.90625-20.59375 18.90625-20.59375l97.1875-.28125v-102.09375c1.38641-6.35211 5.80273-17.45652 19.9375-14.71875 19.51458 3.77979 6.49976 35.91677 34.6875 22.6875 9.20694-7.67594 14.27484-21.01059 15.96875-34.125.02645-.20482.06894-.38906.09375-.59375.96669-4.61205 1.45656-9.88905 1.25-15.5-.55955-15.19944-5.6533-32.24863-16.5625-41.34375-28.18774-13.22926-15.17291 18.90771-34.6875 22.6875-19.51459 3.7798-20.59375-18.90625-20.59375-18.90625l-.09375-97.84375h-102.15625c-6.40559-1.48194-16.96423-5.99188-14.28125-19.84375 3.77978-19.51458 35.88552-6.49976 22.65625-34.6875-7.67595-9.206939-20.97934-14.274829-34.09375-15.968745-.20483-.026455-.42031-.068938-.625-.09375-4.61205-.966697-9.88905-1.456557-15.5-1.25z"
              fill-opacity=".5" stroke-width="2.867997pt"/>
        <path d="m243.9375 40.625c-15.19944.559541-32.24863 5.653306-41.34375 16.5625-13.22926 28.187733 18.90771 15.172914 22.6875 34.6875 3.77979 19.51459-18.90625 20.59375-18.90625 20.59375h-97.75s.125 96.93751.125 96.9375c0 0 1.07917 22.68603 20.59375 18.90625 19.51459-3.77979 6.49977-35.91676 34.6875-22.6875 10.9092 9.09512 16.00296 26.14431 16.5625 41.34375.20656 5.61095-.2833 10.88794-1.25 15.5-.02481.20469-.06729.42017-.09375.625-1.69391 13.11441-6.7618 26.4178-15.96875 34.09375-28.18774 13.22927-15.17291-18.90772-34.6875-22.6875-14.2217-2.75461-18.61163 8.51258-19.96875 14.84375v102.875h101.59375c6.20122 1.21826 18.24109 5.48907 15.40625 20.125-3.77979 19.5146-35.88552 6.49976-22.65625 34.6875 7.67594 9.20696 20.97934 14.27484 34.09375 15.96875.20482.02647.42031.06894.625.09375 4.61204.96671 9.88905 1.45656 15.5 1.25 15.19944-.55953 32.24863-5.6533 41.34375-16.5625 13.22926-28.18772-18.90771-15.17291-22.6875-34.6875-3.7798-19.51457 18.90625-20.59375 18.90625-20.59375l97.1875-.28125v-102.09375c1.38641-6.35211 5.80273-17.45652 19.9375-14.71875 19.51458 3.77979 6.49976 35.91677 34.6875 22.6875 9.20694-7.67594 14.27484-21.01059 15.96875-34.125.02645-.20482.06894-.38906.09375-.59375.96669-4.61205 1.45656-9.88905 1.25-15.5-.55955-15.19944-5.6533-32.24863-16.5625-41.34375-28.18774-13.22926-15.17291 18.90771-34.6875 22.6875-19.51459 3.7798-20.59375-18.90625-20.59375-18.90625l-.09375-97.84375h-102.15625c-6.40559-1.48194-16.96423-5.99188-14.28125-19.84375 3.77978-19.514589 35.88552-6.49976 22.65625-34.6875-7.67595-9.206944-20.97934-14.274834-34.09375-15.96875-.20483-.026455-.42031-.068938-.625-.09375-4.61205-.966697-9.88905-1.456557-15.5-1.25z"
              fill="url(#a)" fill-opacity=".75" stroke="#000"
              stroke-linejoin="round" stroke-width="12.5"/>
    </g>
</svg>