
<svg height="400pt" width="400pt" xmlns="http://www.w3.org/2000/svg"
     xmlns:xlink="http://www.w3.org/1999/xlink">
    <radialGradient id="a" cx=".264814" cy=".268215"
                    gradientTransform="scale(.867801 1.152339)" r=".665347">
        <stop offset="0" stop-color="#00009f"/>
        <stop offset="1" stop-color="#00f"/>
    </radialGradient>
    <g fill-rule="evenodd">
        <path d="m260.90625 55.47647c-15.19944.559541-32.24863 5.653306-41.34375 16.5625-13.22926 28.18773 18.90771 15.17291 22.6875 34.6875s-18.90625 20.59375-18.90625 20.59375h-97.75v99.15625c-.2722 3.12958-2.53487 21.21757-20.4375 17.75-19.51458-3.77979-6.49976-35.88552-34.6875-22.65625-9.20695 7.67594-14.27484 20.97934-15.96875 34.09375-.02646.20482-.06894.42031-.09375.625-.9667 4.61204-1.45656 9.88905-1.25 15.5.55954 15.19944 5.6533 32.24863 16.5625 41.34375 28.18773 13.22926 15.17291-18.90771 34.6875-22.6875 19.51458-3.7798 20.59375 18.90625 20.59375 18.90625l.59375 97.71875s98.09376-.78126 98.09375-.78125c0 0 22.68603-1.07918 18.90625-20.59375-3.77979-19.51459-35.88551-6.49978-22.65625-34.6875 9.09512-10.9092 26.11306-16.00297 41.3125-16.5625 5.61095-.20656 10.88796.28329 15.5 1.25.20469.02481.42018.06728.625.09375 13.11441 1.69391 26.44906 6.76179 34.125 15.96875 13.22927 28.18774-18.90771 15.1729-22.6875 34.6875-3.77979 19.51458 18.90625 20.59374 18.90625 20.59375l97.1875.03125v-102.09375c1.38641-6.35211 5.80273-17.45652 19.9375-14.71875 19.51458 3.77979 6.49976 35.91677 34.6875 22.6875 9.20694-7.67594 14.27484-21.01059 15.96875-34.125.02645-.20482.06894-.38906.09375-.59375.96669-4.61205 1.45656-9.88905 1.25-15.5-.55955-15.19944-5.6533-32.24863-16.5625-41.34375-28.18774-13.22926-15.17291 18.90771-34.6875 22.6875-19.51459 3.7798-20.59375-18.90625-20.59375-18.90625l-.09375-97.84375h-102.15625c-6.40559-1.48194-16.96423-5.99188-14.28125-19.84375 3.77978-19.51459 35.88552-6.49976 22.65625-34.6875-7.67595-9.206944-20.97934-14.274834-34.09375-15.96875-.20483-.026455-.42031-.068938-.625-.09375-4.61205-.966697-9.88905-1.456557-15.5-1.25z"
              fill-opacity=".5" stroke-width="2.867997pt"/>
        <path d="m243.9375 40.625c-15.19944.559541-32.24863 5.653306-41.34375 16.5625-13.22926 28.187733 18.90771 15.172914 22.6875 34.6875 3.77979 19.51459-18.90625 20.59375-18.90625 20.59375h-97.75v99.15625c-.2722 3.12958-2.53487 21.21757-20.4375 17.75-19.514587-3.77979-6.49976-35.88552-34.6875-22.65625-9.206951 7.67594-14.27484 20.97934-15.96875 34.09375-.026461.20482-.06894.42031-.09375.625-.966701 4.61204-1.45656 9.88905-1.25 15.5.559539 15.19944 5.6533 32.24863 16.5625 41.34375 28.187729 13.22926 15.17291-18.90771 34.6875-22.6875 19.51458-3.7798 20.59375 18.90625 20.59375 18.90625l.59375 97.71875s98.09376-.78126 98.09375-.78125c0 0 22.68603-1.07918 18.90625-20.59375-3.77979-19.51459-35.88551-6.49978-22.65625-34.6875 9.09512-10.9092 26.11306-16.00297 41.3125-16.5625 5.61095-.20656 10.88796.28329 15.5 1.25.20469.02481.42018.06728.625.09375 13.11441 1.69391 26.44906 6.76179 34.125 15.96875 13.22927 28.18774-18.90771 15.1729-22.6875 34.6875-3.77979 19.51458 18.90625 20.59374 18.90625 20.59375l97.1875.03125v-102.09375c1.38641-6.35211 5.80273-17.45652 19.9375-14.71875 19.51458 3.77979 6.49976 35.91677 34.6875 22.6875 9.20694-7.67594 14.27484-21.01059 15.96875-34.125.02645-.20482.06894-.38906.09375-.59375.96669-4.61205 1.45656-9.88905 1.25-15.5-.55955-15.19944-5.6533-32.24863-16.5625-41.34375-28.18774-13.22926-15.17291 18.90771-34.6875 22.6875-19.51459 3.7798-20.59375-18.90625-20.59375-18.90625l-.09375-97.84375h-102.15625c-6.40559-1.48194-16.96423-5.99188-14.28125-19.84375 3.77978-19.514589 35.88552-6.49976 22.65625-34.6875-7.67595-9.206944-20.97934-14.274834-34.09375-15.96875-.20483-.026455-.42031-.068938-.625-.09375-4.61205-.966697-9.88905-1.456557-15.5-1.25z"
              fill="url(#a)" fill-opacity=".75" stroke="#000"
              stroke-linejoin="round" stroke-width="12.5"/>
    </g>
</svg>