<?xml version="1.0" encoding="UTF-8" standalone="no"?>
<!DOCTYPE svg PUBLIC "-//W3C//DTD SVG 20010904//EN"
"http://www.w3.org/TR/2001/REC-SVG-20010904/DTD/svg10.dtd">
<!-- Created with Inkscape (http://www.inkscape.org/) -->
<svg
   id="svg1"
   sodipodi:version="0.32"
   inkscape:version="0.38.1"
   width="400.00000pt"
   height="400.00000pt"
   sodipodi:docbase="/var/www/html/svg_gallery/svg/jigsaw"
   sodipodi:docname="jigsaw_blue_08.svg"
   xmlns="http://www.w3.org/2000/svg"
   xmlns:inkscape="http://www.inkscape.org/namespaces/inkscape"
   xmlns:sodipodi="http://sodipodi.sourceforge.net/DTD/sodipodi-0.dtd"
   xmlns:xlink="http://www.w3.org/1999/xlink">
  <defs
     id="defs3">
    <linearGradient
       id="linearGradient1085">
      <stop
         style="stop-color:#00009f;stop-opacity:1.0000000;"
         offset="0.0000000"
         id="stop1086" />
      <stop
         style="stop-color:#0000ff;stop-opacity:1.0000000;"
         offset="1.0000000"
         id="stop1087" />
    </linearGradient>
    <radialGradient
       xlink:href="#linearGradient1085"
       id="radialGradient1088"
       cx="1.7995006"
       cy="-0.033503532"
       r="2.1367373"
       fx="1.7995006"
       fy="-0.033503532" />
    <radialGradient
       xlink:href="#linearGradient1085"
       id="radialGradient1089"
       cx="-1.8538072"
       cy="-0.028270273"
       r="2.1367373"
       fx="-1.8538072"
       fy="-0.028270273" />
    <radialGradient
       xlink:href="#linearGradient1085"
       id="radialGradient1090"
       cx="-0.34090281"
       cy="-1.8841810"
       r="2.1367373"
       fx="-0.34090281"
       fy="-1.8841810"
       gradientTransform="scale(0.751916,1.329935)" />
    <radialGradient
       xlink:href="#linearGradient1085"
       id="radialGradient1091"
       cx="-0.33888963"
       cy="0.86286521"
       r="2.1367373"
       fx="-0.33888963"
       fy="0.86286521"
       gradientTransform="scale(0.751916,1.329935)" />
    <radialGradient
       xlink:href="#linearGradient1085"
       id="radialGradient1092"
       cx="0.86051458"
       cy="-0.022911092"
       r="2.1367371"
       fx="0.86051458"
       fy="-0.022911092" />
    <radialGradient
       xlink:href="#linearGradient1085"
       id="radialGradient1093"
       cx="-2.7927938"
       cy="-0.031800985"
       r="2.1367373"
       fx="-2.7927938"
       fy="-0.031800985" />
    <radialGradient
       xlink:href="#linearGradient1085"
       id="radialGradient1094"
       cx="-0.34090281"
       cy="-1.1746118"
       r="2.1367373"
       fx="-0.34090281"
       fy="-1.1746118"
       gradientTransform="scale(0.751916,1.329935)" />
    <radialGradient
       xlink:href="#linearGradient1085"
       id="radialGradient1095"
       cx="-0.33623907"
       cy="1.5691054"
       r="2.1367371"
       fx="-0.33623907"
       fy="1.5691054"
       gradientTransform="scale(0.751916,1.329935)" />
    <radialGradient
       xlink:href="#linearGradient1085"
       id="radialGradient1096"
       cx="0.26481381"
       cy="0.26821491"
       r="0.66534734"
       fx="0.26481381"
       fy="0.26821491"
       gradientTransform="scale(0.867801,1.152339)" />
  </defs>
  <sodipodi:namedview
     id="base"
     pagecolor="#ffffff"
     bordercolor="#666666"
     borderopacity="1.0"
     inkscape:pageopacity="0.0"
     inkscape:pageshadow="2"
     inkscape:zoom="1.00000000"
     inkscape:cx="-92.195374"
     inkscape:cy="163.60373"
     inkscape:window-width="854"
     inkscape:window-height="696"
     showgrid="true"
     inkscape:window-x="44"
     inkscape:window-y="31" />
  <g
     id="g842">
    <path
       style="fill-opacity:0.49999997;fill-rule:evenodd;stroke-width:2.8679966pt;"
       d="M 260.90625,55.476470 C 245.70681,56.036011 228.65762,61.129776 219.56250,72.038970 C 206.33324,100.22670 238.47021,87.211880 242.25000,106.72647 C 246.02979,126.24106 223.34375,127.32022 223.34375,127.32022 L 223.34375,127.32022 L 125.59375,127.32022 L 125.59375,226.47647 C 125.32155,229.60605 123.05888,247.69404 105.15625,244.22647 C 85.641670,240.44668 98.656490,208.34095 70.468750,221.57022 C 61.261800,229.24616 56.193910,242.54956 54.500000,255.66397 C 54.473540,255.86879 54.431060,256.08428 54.406250,256.28897 C 53.439550,260.90101 52.949690,266.17802 53.156250,271.78897 C 53.715790,286.98841 58.809550,304.03760 69.718750,313.13272 C 97.906480,326.36198 84.891660,294.22501 104.40625,290.44522 C 123.92083,286.66542 125.00000,309.35147 125.00000,309.35147 L 125.59375,407.07022 C 125.59375,407.07022 223.68751,406.28896 223.68750,406.28897 C 223.68750,406.28897 246.37353,405.20979 242.59375,385.69522 C 238.81396,366.18063 206.70824,379.19544 219.93750,351.00772 C 229.03262,340.09852 246.05056,335.00475 261.25000,334.44522 C 266.86095,334.23866 272.13796,334.72851 276.75000,335.69522 C 276.95469,335.72003 277.17018,335.76250 277.37500,335.78897 C 290.48941,337.48288 303.82406,342.55076 311.50000,351.75772 C 324.72927,379.94546 292.59229,366.93062 288.81250,386.44522 C 285.03271,405.95980 307.71875,407.03896 307.71875,407.03897 L 404.90625,407.07022 L 404.90625,304.97647 C 406.29266,298.62436 410.70898,287.51995 424.84375,290.25772 C 444.35833,294.03751 431.34351,326.17449 459.53125,312.94522 C 468.73819,305.26928 473.80609,291.93463 475.50000,278.82022 C 475.52645,278.61540 475.56894,278.43116 475.59375,278.22647 C 476.56044,273.61442 477.05031,268.33742 476.84375,262.72647 C 476.28420,247.52703 471.19045,230.47784 460.28125,221.38272 C 432.09351,208.15346 445.10834,240.29043 425.59375,244.07022 C 406.07916,247.85002 405.00000,225.16397 405.00000,225.16397 L 404.90625,127.32022 L 302.75000,127.32022 C 296.34441,125.83828 285.78577,121.32834 288.46875,107.47647 C 292.24853,87.961880 324.35427,100.97671 311.12500,72.788970 C 303.44905,63.582026 290.14566,58.514136 277.03125,56.820220 C 276.82642,56.793765 276.61094,56.751282 276.40625,56.726470 C 271.79420,55.759773 266.51720,55.269913 260.90625,55.476470 z "
       id="path1452"
       sodipodi:nodetypes="cccccccccccccccccccccccccccccccccccccccccc" />
    <path
       style="fill:url(#radialGradient1096);fill-opacity:0.75000000;fill-rule:evenodd;stroke:#000000;stroke-width:12.500000;stroke-dasharray:none;stroke-linejoin:round;"
       d="M 243.93750,40.625000 C 228.73806,41.184541 211.68887,46.278306 202.59375,57.187500 C 189.36449,85.375233 221.50146,72.360414 225.28125,91.875000 C 229.06104,111.38959 206.37500,112.46875 206.37500,112.46875 L 206.37500,112.46875 L 108.62500,112.46875 L 108.62500,211.62500 C 108.35280,214.75458 106.09013,232.84257 88.187500,229.37500 C 68.672913,225.59521 81.687740,193.48948 53.500000,206.71875 C 44.293049,214.39469 39.225160,227.69809 37.531250,240.81250 C 37.504789,241.01732 37.462310,241.23281 37.437500,241.43750 C 36.470799,246.04954 35.980940,251.32655 36.187500,256.93750 C 36.747039,272.13694 41.840800,289.18613 52.750000,298.28125 C 80.937729,311.51051 67.922910,279.37354 87.437500,275.59375 C 106.95208,271.81395 108.03125,294.50000 108.03125,294.50000 L 108.62500,392.21875 C 108.62500,392.21875 206.71876,391.43749 206.71875,391.43750 C 206.71875,391.43750 229.40478,390.35832 225.62500,370.84375 C 221.84521,351.32916 189.73949,364.34397 202.96875,336.15625 C 212.06387,325.24705 229.08181,320.15328 244.28125,319.59375 C 249.89220,319.38719 255.16921,319.87704 259.78125,320.84375 C 259.98594,320.86856 260.20143,320.91103 260.40625,320.93750 C 273.52066,322.63141 286.85531,327.69929 294.53125,336.90625 C 307.76052,365.09399 275.62354,352.07915 271.84375,371.59375 C 268.06396,391.10833 290.75000,392.18749 290.75000,392.18750 L 387.93750,392.21875 L 387.93750,290.12500 C 389.32391,283.77289 393.74023,272.66848 407.87500,275.40625 C 427.38958,279.18604 414.37476,311.32302 442.56250,298.09375 C 451.76944,290.41781 456.83734,277.08316 458.53125,263.96875 C 458.55770,263.76393 458.60019,263.57969 458.62500,263.37500 C 459.59169,258.76295 460.08156,253.48595 459.87500,247.87500 C 459.31545,232.67556 454.22170,215.62637 443.31250,206.53125 C 415.12476,193.30199 428.13959,225.43896 408.62500,229.21875 C 389.11041,232.99855 388.03125,210.31250 388.03125,210.31250 L 387.93750,112.46875 L 285.78125,112.46875 C 279.37566,110.98681 268.81702,106.47687 271.50000,92.625000 C 275.27978,73.110411 307.38552,86.125240 294.15625,57.937500 C 286.48030,48.730556 273.17691,43.662666 260.06250,41.968750 C 259.85767,41.942295 259.64219,41.899812 259.43750,41.875000 C 254.82545,40.908303 249.54845,40.418443 243.93750,40.625000 z "
       id="path1175"
       sodipodi:nodetypes="cccccccccccccccccccccccccccccccccccccccccc" />
  </g>

  <rdf:RDF 
   xmlns="http://web.resource.org/cc/"
   xmlns:dc="http://purl.org/dc/elements/1.1/"
   xmlns:rdf="http://www.w3.org/1999/02/22-rdf-syntax-ns#">
  <Work rdf:about="">
    <dc:title>Clipart by Nicu Buculei - jigsaw_red_10</dc:title>
    <dc:rights>
       <Agent>
         <dc:title>Nicu Buculei</dc:title>
       </Agent>
    </dc:rights>
    <dc:type rdf:resource="http://purl.org/dc/dcmitype/StillImage" />
    <license rdf:resource="http://web.resource.org/cc/PublicDomain" />
  </Work>
   
  <License rdf:about="http://web.resource.org/cc/PublicDomain">
     <permits rdf:resource="http://web.resource.org/cc/Reproduction" />
     <permits rdf:resource="http://web.resource.org/cc/Distribution" />
     <permits rdf:resource="http://web.resource.org/cc/DerivativeWorks" />
  </License>

</rdf:RDF>
</svg>
