<?xml version="1.0" encoding="UTF-8" standalone="no"?>
<!DOCTYPE svg PUBLIC "-//W3C//DTD SVG 20010904//EN"
"http://www.w3.org/TR/2001/REC-SVG-20010904/DTD/svg10.dtd">
<!-- Created with Inkscape (http://www.inkscape.org/) -->
<svg
   id="svg1"
   sodipodi:version="0.32"
   inkscape:version="0.38.1"
   width="400.00000pt"
   height="400.00000pt"
   sodipodi:docbase="/var/www/html/svg_gallery/svg/jigsaw"
   sodipodi:docname="jigsaw_red_05.svg"
   xmlns="http://www.w3.org/2000/svg"
   xmlns:inkscape="http://www.inkscape.org/namespaces/inkscape"
   xmlns:sodipodi="http://sodipodi.sourceforge.net/DTD/sodipodi-0.dtd"
   xmlns:xlink="http://www.w3.org/1999/xlink">
  <defs
     id="defs3">
    <linearGradient
       id="linearGradient1085">
      <stop
         style="stop-color:#7f0000;stop-opacity:1.0000000;"
         offset="0.0000000"
         id="stop1086" />
      <stop
         style="stop-color:#ff0000;stop-opacity:1.0000000;"
         offset="1.0000000"
         id="stop1087" />
    </linearGradient>
    <radialGradient
       xlink:href="#linearGradient1085"
       id="radialGradient1088"
       cx="2.6854086"
       cy="0.21755335"
       r="2.6095297"
       fx="2.6854086"
       fy="0.21755335" />
    <radialGradient
       xlink:href="#linearGradient1085"
       id="radialGradient1089"
       cx="-0.96789926"
       cy="0.22278659"
       r="2.6095295"
       fx="-0.96789926"
       fy="0.22278659" />
    <radialGradient
       xlink:href="#linearGradient1085"
       id="radialGradient1090"
       cx="0.54500526"
       cy="-1.6331241"
       r="2.6095297"
       fx="0.54500526"
       fy="-1.6331241"
       gradientTransform="scale(0.751916,1.329935)" />
    <radialGradient
       xlink:href="#linearGradient1085"
       id="radialGradient1091"
       cx="0.54701841"
       cy="1.1139221"
       r="2.6095297"
       fx="0.54701841"
       fy="1.1139221"
       gradientTransform="scale(0.751916,1.329935)" />
    <radialGradient
       xlink:href="#linearGradient1085"
       id="radialGradient1092"
       cx="1.7464225"
       cy="0.22814576"
       r="2.6095295"
       fx="1.7464225"
       fy="0.22814576" />
    <radialGradient
       xlink:href="#linearGradient1085"
       id="radialGradient1093"
       cx="-1.9068856"
       cy="0.21925589"
       r="2.6095297"
       fx="-1.9068856"
       fy="0.21925589" />
    <radialGradient
       xlink:href="#linearGradient1085"
       id="radialGradient1094"
       cx="0.54500526"
       cy="-0.92355484"
       r="2.6095297"
       fx="0.54500526"
       fy="-0.92355484"
       gradientTransform="scale(0.751916,1.329935)" />
    <radialGradient
       xlink:href="#linearGradient1085"
       id="radialGradient1095"
       cx="0.54966885"
       cy="1.8201622"
       r="2.6095295"
       fx="0.54966885"
       fy="1.8201622"
       gradientTransform="scale(0.751916,1.329935)" />
    <radialGradient
       xlink:href="#linearGradient1085"
       id="radialGradient1096"
       cx="0.54067200"
       cy="0.34639019"
       r="0.81256765"
       fx="0.54067200"
       fy="0.34639019"
       gradientTransform="scale(0.867801,1.152339)" />
  </defs>
  <sodipodi:namedview
     id="base"
     pagecolor="#ffffff"
     bordercolor="#666666"
     borderopacity="1.0"
     inkscape:pageopacity="0.0"
     inkscape:pageshadow="2"
     inkscape:zoom="1.00000000"
     inkscape:cx="314.24684"
     inkscape:cy="163.60373"
     inkscape:window-width="854"
     inkscape:window-height="696"
     showgrid="true"
     inkscape:window-x="325"
     inkscape:window-y="24" />
  <g
     id="g842">
    <path
       style="fill-opacity:0.49999997;fill-rule:evenodd;stroke-width:2.8679966pt;"
       d="M 259.66416,56.890625 C 244.46472,57.450166 227.41553,62.543931 218.32041,73.453125 C 205.09115,101.64086 237.22812,88.626040 241.00791,108.14062 C 244.78770,127.65521 222.10166,128.73437 222.10166,128.73437 L 222.10166,128.73437 L 124.35166,128.73437 C 124.35166,128.73437 124.47666,225.67188 124.47666,225.67187 C 124.47666,225.67187 125.55583,248.35790 145.07041,244.57812 C 164.58500,240.79833 151.57018,208.66136 179.75791,221.89062 C 190.66711,230.98574 195.76087,248.03493 196.32041,263.23437 C 196.52697,268.84532 196.03711,274.12231 195.07041,278.73437 C 195.04560,278.93906 195.00312,279.15454 194.97666,279.35937 C 193.28275,292.47378 188.21486,305.77717 179.00791,313.45312 C 150.82017,326.68239 163.83500,294.54540 144.32041,290.76562 C 130.09871,288.01101 125.70878,299.27820 124.35166,305.60937 L 124.35166,408.48437 L 225.94541,408.48437 C 232.14663,409.70263 244.18650,413.97344 241.35166,428.60937 C 237.57187,448.12397 205.46614,435.10913 218.69541,463.29687 C 226.37135,472.50383 239.67475,477.57171 252.78916,479.26562 C 252.99398,479.29209 253.20947,479.33456 253.41416,479.35937 C 258.02620,480.32608 263.30321,480.81593 268.91416,480.60937 C 284.11360,480.04984 301.16279,474.95607 310.25791,464.04687 C 323.48717,435.85915 291.35020,448.87396 287.57041,429.35937 C 283.79061,409.84480 306.47666,408.76562 306.47666,408.76562 L 403.66416,408.48437 L 403.66416,306.39062 C 405.05057,300.03851 409.46689,288.93410 423.60166,291.67187 C 443.11624,295.45166 430.10142,327.58864 458.28916,314.35937 C 467.49610,306.68343 472.56400,293.34878 474.25791,280.23437 C 474.28436,280.02955 474.32685,279.84531 474.35166,279.64062 C 475.31835,275.02857 475.80822,269.75157 475.60166,264.14062 C 475.04211,248.94118 469.94836,231.89199 459.03916,222.79687 C 430.85142,209.56761 443.86625,241.70458 424.35166,245.48437 C 404.83707,249.26417 403.75791,226.57812 403.75791,226.57812 L 403.66416,128.73437 L 301.50791,128.73437 C 295.10232,127.25243 284.54368,122.74249 287.22666,108.89062 C 291.00644,89.376040 323.11218,102.39086 309.88291,74.203120 C 302.20696,64.996181 288.90357,59.928291 275.78916,58.234375 C 275.58433,58.207920 275.36885,58.165437 275.16416,58.140625 C 270.55211,57.173928 265.27511,56.684068 259.66416,56.890625 z "
       id="path1512"
       sodipodi:nodetypes="cccccccccccccccccccccccccccccccccccccccccc" />
    <path
       style="fill:url(#radialGradient1096);fill-opacity:0.75000000;fill-rule:evenodd;stroke:#000000;stroke-width:12.500000;stroke-dasharray:none;stroke-linejoin:round;"
       d="M 243.93750,40.625000 C 228.73806,41.184541 211.68887,46.278306 202.59375,57.187500 C 189.36449,85.375233 221.50146,72.360414 225.28125,91.875000 C 229.06104,111.38959 206.37500,112.46875 206.37500,112.46875 L 206.37500,112.46875 L 108.62500,112.46875 C 108.62500,112.46875 108.75000,209.40626 108.75000,209.40625 C 108.75000,209.40625 109.82917,232.09228 129.34375,228.31250 C 148.85834,224.53271 135.84352,192.39574 164.03125,205.62500 C 174.94045,214.72012 180.03421,231.76931 180.59375,246.96875 C 180.80031,252.57970 180.31045,257.85669 179.34375,262.46875 C 179.31894,262.67344 179.27646,262.88892 179.25000,263.09375 C 177.55609,276.20816 172.48820,289.51155 163.28125,297.18750 C 135.09351,310.41677 148.10834,278.27978 128.59375,274.50000 C 114.37205,271.74539 109.98212,283.01258 108.62500,289.34375 L 108.62500,392.21875 L 210.21875,392.21875 C 216.41997,393.43701 228.45984,397.70782 225.62500,412.34375 C 221.84521,431.85835 189.73948,418.84351 202.96875,447.03125 C 210.64469,456.23821 223.94809,461.30609 237.06250,463.00000 C 237.26732,463.02647 237.48281,463.06894 237.68750,463.09375 C 242.29954,464.06046 247.57655,464.55031 253.18750,464.34375 C 268.38694,463.78422 285.43613,458.69045 294.53125,447.78125 C 307.76051,419.59353 275.62354,432.60834 271.84375,413.09375 C 268.06395,393.57918 290.75000,392.50000 290.75000,392.50000 L 387.93750,392.21875 L 387.93750,290.12500 C 389.32391,283.77289 393.74023,272.66848 407.87500,275.40625 C 427.38958,279.18604 414.37476,311.32302 442.56250,298.09375 C 451.76944,290.41781 456.83734,277.08316 458.53125,263.96875 C 458.55770,263.76393 458.60019,263.57969 458.62500,263.37500 C 459.59169,258.76295 460.08156,253.48595 459.87500,247.87500 C 459.31545,232.67556 454.22170,215.62637 443.31250,206.53125 C 415.12476,193.30199 428.13959,225.43896 408.62500,229.21875 C 389.11041,232.99855 388.03125,210.31250 388.03125,210.31250 L 387.93750,112.46875 L 285.78125,112.46875 C 279.37566,110.98681 268.81702,106.47687 271.50000,92.625000 C 275.27978,73.110411 307.38552,86.125240 294.15625,57.937500 C 286.48030,48.730556 273.17691,43.662666 260.06250,41.968750 C 259.85767,41.942295 259.64219,41.899812 259.43750,41.875000 C 254.82545,40.908303 249.54845,40.418443 243.93750,40.625000 z "
       id="path1139"
       sodipodi:nodetypes="cccccccccccccccccccccccccccccccccccccccccc" />
  </g>

  <rdf:RDF 
   xmlns="http://web.resource.org/cc/"
   xmlns:dc="http://purl.org/dc/elements/1.1/"
   xmlns:rdf="http://www.w3.org/1999/02/22-rdf-syntax-ns#">
  <Work rdf:about="">
    <dc:title>Clipart by Nicu Buculei - jigsaw_red_10</dc:title>
    <dc:rights>
       <Agent>
         <dc:title>Nicu Buculei</dc:title>
       </Agent>
    </dc:rights>
    <dc:type rdf:resource="http://purl.org/dc/dcmitype/StillImage" />
    <license rdf:resource="http://web.resource.org/cc/PublicDomain" />
  </Work>
   
  <License rdf:about="http://web.resource.org/cc/PublicDomain">
     <permits rdf:resource="http://web.resource.org/cc/Reproduction" />
     <permits rdf:resource="http://web.resource.org/cc/Distribution" />
     <permits rdf:resource="http://web.resource.org/cc/DerivativeWorks" />
  </License>

</rdf:RDF>
</svg>
