
<svg enable-background="new 0 0 70.994 59.043" height="59.043"
     viewBox="0 0 70.994 59.043" width="70.994"
     xmlns="http://www.w3.org/2000/svg">
    <path d="m70.494 56.543c0 1.1-.9 2-2 2h-65.994c-1.1 0-2-.9-2-2v-54.043c0-1.1.9-2 2-2h65.994c1.1 0 2 .9 2 2z"/>
    <path d="m70.494 56.543c0 1.1-.9 2-2 2h-65.994c-1.1 0-2-.9-2-2v-54.043c0-1.1.9-2 2-2h65.994c1.1 0 2 .9 2 2z"
          fill="none" stroke="#000"/>
    <path d="m70.494 6.379c0 1.1-.9 2-2 2h-65.994c-1.1 0-2-.9-2-2v-3.879c0-1.1.9-2 2-2h65.994c1.1 0 2 .9 2 2z"
          fill="#0fff00"/>
    <path d="m70.494 6.379c0 1.1-.9 2-2 2h-65.994c-1.1 0-2-.9-2-2v-3.879c0-1.1.9-2 2-2h65.994c1.1 0 2 .9 2 2z"
          fill="none" stroke="#000"/>
    <g fill="#0fff00" stroke="#0fff00">
        <path d="m8.797 21.785-5.568 2.845v-.828l4.728-2.34v-.024l-4.728-2.352v-.828l5.567 2.855v.672z"/>
        <path d="m14.605 24.426c-.276.132-.889.336-1.668.336-1.752 0-2.893-1.188-2.893-2.977 0-1.787 1.225-3.096 3.12-3.096.624 0 1.176.156 1.464.313l-.24.804c-.252-.132-.647-.276-1.224-.276-1.332 0-2.052.996-2.052 2.208 0 1.345.864 2.172 2.016 2.172.601 0 .996-.144 1.296-.275z"/>
        <path d="m18.134 24.762c-1.561 0-2.784-1.152-2.784-2.988 0-1.943 1.284-3.084 2.88-3.084 1.668 0 2.796 1.212 2.796 2.977 0 2.159-1.5 3.096-2.88 3.096h-.012zm.035-.792c1.009 0 1.765-.948 1.765-2.269 0-.983-.492-2.22-1.74-2.22-1.236 0-1.776 1.152-1.776 2.256 0 1.272.721 2.232 1.74 2.232h.011z"/>
        <path d="m22.357 20.394c0-.612-.013-1.092-.048-1.572h.936l.061.948h.023c.288-.54.96-1.08 1.92-1.08.805 0 2.052.48 2.052 2.472v3.469h-1.056v-3.349c0-.936-.348-1.728-1.344-1.728-.685 0-1.225.492-1.416 1.08-.048.132-.072.324-.072.492v3.504h-1.056z"/>
        <path d="m29.017 20.394c0-.612-.012-1.092-.048-1.572h.937l.06.948h.024c.288-.54.96-1.08 1.92-1.08.804 0 2.052.48 2.052 2.472v3.469h-1.056v-3.349c0-.936-.348-1.728-1.345-1.728-.684 0-1.224.492-1.416 1.08-.048.132-.071.324-.071.492v3.504h-1.057z"/>
        <path d="m36.276 21.905c.024 1.429.925 2.017 1.98 2.017.756 0 1.224-.132 1.608-.288l.191.744c-.372.168-1.02.372-1.943.372-1.776 0-2.856-1.188-2.856-2.929 0-1.764 1.044-3.144 2.736-3.144 1.896 0 2.388 1.668 2.388 2.736 0 .216-.012.384-.036.504zm3.084-.756c.013-.66-.275-1.716-1.451-1.716-1.08 0-1.536.984-1.62 1.716z"/>
        <path d="m45.829 24.426c-.275.132-.888.336-1.668.336-1.752 0-2.892-1.188-2.892-2.977 0-1.787 1.224-3.096 3.12-3.096.624 0 1.176.156 1.464.313l-.24.804c-.252-.132-.647-.276-1.224-.276-1.332 0-2.052.996-2.052 2.208 0 1.345.863 2.172 2.016 2.172.6 0 .996-.144 1.296-.275z"/>
        <path d="m48.493 17.43v1.392h1.512v.805h-1.512v3.132c0 .72.203 1.128.792 1.128.287 0 .456-.024.611-.072l.048.804c-.203.072-.527.145-.936.145-.492 0-.888-.168-1.14-.444-.288-.324-.408-.84-.408-1.523v-3.168h-.9v-.805h.9v-1.067z"/>
    </g>
    <path d="m63.064 1.455.828 1.235c.216.337.396.624.588.948h.036c.191-.336.384-.636.588-.948l.804-1.235h1.152l-1.98 2.808 2.028 3h-1.2l-.852-1.308c-.229-.336-.42-.66-.624-1.008h-.024c-.192.348-.396.659-.612 1.008l-.84 1.308h-1.164l2.064-2.964-1.968-2.844z"/>
</svg>