
<svg height="80pt" width="80pt" xmlns="http://www.w3.org/2000/svg">
    <path d="m3.195737 3.614837h92.682152v92.645332h-92.682152z" fill="none"
          stroke="#000" stroke-linejoin="round" stroke-width="1.25"/>
    <path d="m34.891465 3.2492137-.708172 92.9131013" fill="none" stroke="#000"
          stroke-linejoin="round" stroke-width="1.25"/>
    <path d="m66.074542 3.3776834-.575461 93.0010076" fill="none" stroke="#000"
          stroke-linejoin="round" stroke-width="1.25"/>
    <path d="m95.99673 65.206833-92.9198395-.575449" fill="none" stroke="#000"
          stroke-linejoin="round" stroke-width="1.25"/>
    <path d="m96.037334 33.940882-93.0010422-.543254" fill="none" stroke="#000"
          stroke-linejoin="round" stroke-width="1.25"/>
    <g fill-rule="evenodd">
        <path d="m25.028328 7.5040026a15.234634 14.69054 0 1 0 -30.4692689 0 15.234634 14.69054 0 1 0 30.4692689 0z"
              stroke-width="1pt"
              transform="matrix(.820499 0 0 .850888 42.1261 12.13403)"/>
        <path d="m25.028328 7.5040026a15.234634 14.69054 0 1 0 -30.4692689 0 15.234634 14.69054 0 1 0 30.4692689 0z"
              stroke-width="1pt"
              transform="matrix(.820499 0 0 .850888 73.3761 43.55828)"/>
        <path d="m25.028328 7.5040026a15.234634 14.69054 0 1 0 -30.4692689 0 15.234634 14.69054 0 1 0 30.4692689 0z"
              stroke-width="1pt"
              transform="matrix(.820499 0 0 .850888 73.3761 74.15903)"/>
        <path d="m25.028328 7.5040026a15.234634 14.69054 0 1 0 -30.4692689 0 15.234634 14.69054 0 1 0 30.4692689 0z"
              stroke-width="1pt"
              transform="matrix(.820499 0 0 .850888 42.1261 74.15903)"/>
        <path d="m25.028328 7.5040026a15.234634 14.69054 0 1 0 -30.4692689 0 15.234634 14.69054 0 1 0 30.4692689 0z"
              stroke-width="1pt"
              transform="matrix(.820499 0 0 .850888 10.8761 74.15903)"/>
        <path d="m5.2693693 4.7385958c-.32055.03224-.56409.302837-.5625.625v92.6562502c.00003.345162.27984.624965.625.625h92.6874997c.34517-.000036.62497-.279836.625-.625v-92.6562502c-.00003-.345165-.27984-.624965-.625-.625h-92.6874997c-.02082-.001044-.04168-.001042-.0625 0zm.6875 1.25h30.4374997l-.21875 28.7500002-30.2187497-.1875zm31.6874997 0h29.9375l-.1875 28.9062502-29.96875-.15625zm31.1875 0h28.5625v29.0937502l-28.75-.15625zm-16.53125 1.78125c-6.9 0-12.5 5.5999972-12.5 12.5000002 0 6.900002 5.6 12.5 12.5 12.5s12.49999-5.599998 12.5-12.5c0-6.900002-5.59999-12.5000012-12.5-12.5000002zm-46.3437497 28.0312502 30.2187497.1875-.21875 29.96875-29.9999997-.1875zm31.4687497.1875 29.96875.15625-.1875 30-30-.1875zm31.21875.1875 28.75.15625v30l-28.9375-.1875zm14.90625 3.03125c-6.9 0-12.5 5.599997-12.5 12.5 0 6.900002 5.6 12.5 12.5 12.5s12.49999-5.599998 12.5-12.5c0-6.900003-5.59999-12.5-12.5-12.5zm-77.5937497 27.8125 29.9687497.1875-.21875 30.1875h-29.7499997zm31.2187497.1875 30.03125.1875-.1875 30h-30.0625zm31.28125.1875 28.9375.1875v29.8125h-29.125zm-47.40625 2.40625c-6.9 0-12.4999997 5.599998-12.4999997 12.5s5.5999997 12.499999 12.4999997 12.5c6.9 0 12.49999-5.599997 12.5-12.5 0-6.900002-5.59999-12.500001-12.5-12.5zm31.25 0c-6.9 0-12.5 5.599998-12.5 12.5s5.6 12.499999 12.5 12.5c6.9 0 12.49999-5.599997 12.5-12.5 0-6.900002-5.59999-12.500001-12.5-12.5zm31.25 0c-6.9 0-12.5 5.599998-12.5 12.5s5.6 12.499999 12.5 12.5c6.9 0 12.49999-5.599997 12.5-12.5 0-6.900002-5.59999-12.500001-12.5-12.5z"
              fill-opacity=".25"/>
    </g>
</svg>