<?xml version="1.0" encoding="UTF-8" standalone="no"?>
<!DOCTYPE svg PUBLIC "-//W3C//DTD SVG 1.0//EN"
"http://www.w3.org/TR/2001/REC-SVG-20010904/DTD/svg10.dtd">
<!-- Created with Inkscape (http://www.inkscape.org/) -->
<svg
   id="svg1"
   sodipodi:version="0.32"
   inkscape:version="0.38.1"
   xmlns="http://www.w3.org/2000/svg"
   xmlns:sodipodi="http://sodipodi.sourceforge.net/DTD/sodipodi-0.dtd"
   xmlns:inkscape="http://www.inkscape.org/namespaces/inkscape"
   xmlns:xlink="http://www.w3.org/1999/xlink"
   width="80.000000pt"
   height="80.000000pt"
   sodipodi:docbase="/var/www/html/svg_gallery/svg/computers"
   sodipodi:docname="hacker_emblem.svg">
  <defs
     id="defs3" />
  <sodipodi:namedview
     id="base"
     pagecolor="#ffffff"
     bordercolor="#666666"
     borderopacity="1.0"
     inkscape:pageopacity="0.0"
     inkscape:pageshadow="2"
     inkscape:zoom="1.7411011"
     inkscape:cx="77.825269"
     inkscape:cy="45.616467"
     inkscape:window-width="640"
     inkscape:window-height="500"
     showgrid="false"
     inkscape:window-x="56"
     inkscape:window-y="32"
     showguides="false"
     showborder="false" />
  <g
     id="g922">
    <rect
       style="fill:#ffffff;fill-opacity:0.0000000;fill-rule:evenodd;stroke:#000000;stroke-width:1.2500000;stroke-dasharray:none;stroke-linejoin:round;"
       id="rect826"
       width="92.682152"
       height="92.645332"
       x="3.1957373"
       y="3.6148372" />
    <path
       style="fill:none;fill-opacity:0.75000000;fill-rule:evenodd;stroke:#000000;stroke-width:1.2500000;stroke-dasharray:none;stroke-linejoin:round;"
       d="M 34.891465,3.2492137 L 34.183293,96.162315"
       id="path828"
       sodipodi:nodetypes="cc" />
    <path
       style="fill:none;fill-opacity:0.75000000;fill-rule:evenodd;stroke:#000000;stroke-width:1.2500000;stroke-dasharray:none;stroke-linejoin:round;"
       d="M 66.074542,3.3776834 L 65.499081,96.378691"
       id="path829"
       sodipodi:nodetypes="cc" />
    <path
       style="fill:none;fill-opacity:0.75000000;fill-rule:evenodd;stroke:#000000;stroke-width:1.2500000;stroke-dasharray:none;stroke-linejoin:round;"
       d="M 95.996730,65.206833 L 3.0768905,64.631384"
       id="path830"
       sodipodi:nodetypes="cc" />
    <path
       style="fill:none;fill-opacity:0.75000000;fill-rule:evenodd;stroke:#000000;stroke-width:1.2500000;stroke-dasharray:none;stroke-linejoin:round;"
       d="M 96.037334,33.940882 L 3.0362918,33.397628"
       id="path831"
       sodipodi:nodetypes="cc" />
    <path
       sodipodi:type="arc"
       style="fill-rule:evenodd;stroke-width:1.0000000pt;"
       id="path832"
       sodipodi:cx="9.7936935"
       sodipodi:cy="7.5040026"
       sodipodi:rx="15.234634"
       sodipodi:ry="14.690540"
       d="M 25.028328 7.5040026 A 15.234634 14.690540 0 1 0 -5.4409409,7.5040026 A 15.234634 14.690540 0 1 0 25.028328 7.5040026 z"
       transform="matrix(0.820499,0.000000,0.000000,0.850888,42.12610,12.13403)" />
    <path
       sodipodi:type="arc"
       style="fill-rule:evenodd;stroke-width:1.0000000pt;"
       id="path833"
       sodipodi:cx="9.7936935"
       sodipodi:cy="7.5040026"
       sodipodi:rx="15.234634"
       sodipodi:ry="14.690540"
       d="M 25.028328 7.5040026 A 15.234634 14.690540 0 1 0 -5.4409409,7.5040026 A 15.234634 14.690540 0 1 0 25.028328 7.5040026 z"
       transform="matrix(0.820499,0.000000,0.000000,0.850888,73.37610,43.55828)" />
    <path
       sodipodi:type="arc"
       style="fill-rule:evenodd;stroke-width:1.0000000pt;"
       id="path834"
       sodipodi:cx="9.7936935"
       sodipodi:cy="7.5040026"
       sodipodi:rx="15.234634"
       sodipodi:ry="14.690540"
       d="M 25.028328 7.5040026 A 15.234634 14.690540 0 1 0 -5.4409409,7.5040026 A 15.234634 14.690540 0 1 0 25.028328 7.5040026 z"
       transform="matrix(0.820499,0.000000,0.000000,0.850888,73.37610,74.15903)" />
    <path
       sodipodi:type="arc"
       style="fill-rule:evenodd;stroke-width:1.0000000pt;"
       id="path835"
       sodipodi:cx="9.7936935"
       sodipodi:cy="7.5040026"
       sodipodi:rx="15.234634"
       sodipodi:ry="14.690540"
       d="M 25.028328 7.5040026 A 15.234634 14.690540 0 1 0 -5.4409409,7.5040026 A 15.234634 14.690540 0 1 0 25.028328 7.5040026 z"
       transform="matrix(0.820499,0.000000,0.000000,0.850888,42.12610,74.15903)" />
    <path
       sodipodi:type="arc"
       style="fill-rule:evenodd;stroke-width:1.0000000pt;"
       id="path836"
       sodipodi:cx="9.7936935"
       sodipodi:cy="7.5040026"
       sodipodi:rx="15.234634"
       sodipodi:ry="14.690540"
       d="M 25.028328 7.5040026 A 15.234634 14.690540 0 1 0 -5.4409409,7.5040026 A 15.234634 14.690540 0 1 0 25.028328 7.5040026 z"
       transform="matrix(0.820499,0.000000,0.000000,0.850888,10.87610,74.15903)" />
  </g>
  <path
     style="fill:#000000;fill-opacity:0.24999996;fill-rule:evenodd;stroke:none;stroke-width:1.2500000;stroke-linejoin:round;stroke-opacity:1.0;"
     d="M 5.2693693,4.7385958 C 4.9488193,4.7708358 4.7052793,5.0414328 4.7068693,5.3635958 L 4.7068693,98.019846 C 4.7068993,98.365008 4.9867093,98.644811 5.3318693,98.644846 L 98.019369,98.644846 C 98.364539,98.644810 98.644339,98.365010 98.644369,98.019846 L 98.644369,5.3635958 C 98.644339,5.0184308 98.364529,4.7386308 98.019369,4.7385958 L 5.3318693,4.7385958 C 5.3110493,4.7375518 5.2901893,4.7375538 5.2693693,4.7385958 z M 5.9568693,5.9885958 L 36.394369,5.9885958 L 36.175619,34.738596 L 5.9568693,34.551096 L 5.9568693,5.9885958 z M 37.644369,5.9885958 L 67.581869,5.9885958 L 67.394369,34.894846 L 37.425619,34.738596 L 37.644369,5.9885958 z M 68.831869,5.9885958 L 97.394369,5.9885958 L 97.394369,35.082346 L 68.644369,34.926096 L 68.831869,5.9885958 z M 52.300619,7.7698458 C 45.400619,7.7698458 39.800619,13.369843 39.800619,20.269846 C 39.800619,27.169848 45.400619,32.769846 52.300619,32.769846 C 59.200619,32.769846 64.800609,27.169848 64.800619,20.269846 C 64.800619,13.369844 59.200629,7.7698448 52.300619,7.7698458 z M 5.9568693,35.801096 L 36.175619,35.988596 L 35.956869,65.957346 L 5.9568693,65.769846 L 5.9568693,35.801096 z M 37.425619,35.988596 L 67.394369,36.144846 L 67.206869,66.144846 L 37.206869,65.957346 L 37.425619,35.988596 z M 68.644369,36.176096 L 97.394369,36.332346 L 97.394369,66.332346 L 68.456869,66.144846 L 68.644369,36.176096 z M 83.550619,39.207346 C 76.650619,39.207346 71.050619,44.807343 71.050619,51.707346 C 71.050619,58.607348 76.650619,64.207346 83.550619,64.207346 C 90.450619,64.207346 96.050609,58.607348 96.050619,51.707346 C 96.050619,44.807343 90.450629,39.207346 83.550619,39.207346 z M 5.9568693,67.019846 L 35.925619,67.207346 L 35.706869,97.394846 L 5.9568693,97.394846 L 5.9568693,67.019846 z M 37.175619,67.207346 L 67.206869,67.394846 L 67.019369,97.394846 L 36.956869,97.394846 L 37.175619,67.207346 z M 68.456869,67.394846 L 97.394369,67.582346 L 97.394369,97.394846 L 68.269369,97.394846 L 68.456869,67.394846 z M 21.050619,69.801096 C 14.150619,69.801096 8.5506193,75.401094 8.5506193,82.301096 C 8.5506193,89.201098 14.150619,94.801095 21.050619,94.801096 C 27.950619,94.801096 33.550609,89.201099 33.550619,82.301096 C 33.550619,75.401094 27.950629,69.801095 21.050619,69.801096 z M 52.300619,69.801096 C 45.400619,69.801096 39.800619,75.401094 39.800619,82.301096 C 39.800619,89.201098 45.400619,94.801095 52.300619,94.801096 C 59.200619,94.801096 64.800609,89.201099 64.800619,82.301096 C 64.800619,75.401094 59.200629,69.801095 52.300619,69.801096 z M 83.550619,69.801096 C 76.650619,69.801096 71.050619,75.401094 71.050619,82.301096 C 71.050619,89.201098 76.650619,94.801095 83.550619,94.801096 C 90.450619,94.801096 96.050609,89.201099 96.050619,82.301096 C 96.050619,75.401094 90.450629,69.801095 83.550619,69.801096 z "
     id="path979" />

  <rdf:RDF 
   xmlns="http://web.resource.org/cc/"
   xmlns:dc="http://purl.org/dc/elements/1.1/"
   xmlns:rdf="http://www.w3.org/1999/02/22-rdf-syntax-ns#">
  <Work rdf:about="">
    <dc:title>Clipart by Nicu Buculei - antenna</dc:title>
    <dc:rights>
       <Agent>
         <dc:title>Nicu Buculei</dc:title>
       </Agent>
    </dc:rights>
    <dc:type rdf:resource="http://purl.org/dc/dcmitype/StillImage" />
    <license rdf:resource="http://web.resource.org/cc/PublicDomain" />
  </Work>
   
  <License rdf:about="http://web.resource.org/cc/PublicDomain">
     <permits rdf:resource="http://web.resource.org/cc/Reproduction" />
     <permits rdf:resource="http://web.resource.org/cc/Distribution" />
     <permits rdf:resource="http://web.resource.org/cc/DerivativeWorks" />
  </License>

</rdf:RDF>
</svg>
