
<svg enable-background="new 0 0 54.769 68.01" height="68.01"
     viewBox="0 0 54.769 68.01" width="54.769"
     xmlns="http://www.w3.org/2000/svg"
     xmlns:xlink="http://www.w3.org/1999/xlink">
    <linearGradient id="a" gradientTransform="matrix(1 0 0 -1 9.3828 65.123)"
                    gradientUnits="userSpaceOnUse" x1="18.0015" x2="18.0015"
                    y1="-1.8867" y2="54.7231">
        <stop offset=".5778" stop-color="#c7d4ff"/>
        <stop offset="1" stop-color="#8b94b2"/>
    </linearGradient>
    <linearGradient id="b">
        <stop offset=".0056" stop-color="#595f72"/>
        <stop offset="1" stop-color="#8b94b2"/>
    </linearGradient>
    <linearGradient id="c" gradientUnits="userSpaceOnUse" x1="18.7388"
                    x2="40.0796" xlink:href="#b" y1="11.585" y2="23.5771"/>
    <linearGradient id="d" gradientTransform="matrix(1 0 0 -1 9.3828 65.123)"
                    gradientUnits="userSpaceOnUse" x1="-8.3149" x2="18.397"
                    y1="23.5723" y2="23.5723">
        <stop offset=".0056" stop-color="#a9b4d8"/>
        <stop offset="1" stop-color="#8b94b2"/>
    </linearGradient>
    <linearGradient id="e" gradientTransform="matrix(1 0 0 -1 9.3828 65.123)"
                    gradientUnits="userSpaceOnUse" x1="18.0469" x2="44.3979"
                    xlink:href="#b" y1="21.5166" y2="21.5166"/>
    <linearGradient id="f" gradientUnits="userSpaceOnUse" x1="19.5083"
                    x2="53.189" xlink:href="#b" y1="15.1523" y2="15.1523"/>
    <path d="m24.991 66.37c-3.908-1.623-17.706-14.246-17.706-14.246s-1.136-.64-1.918-3.479c-.817-2.975-4.29-29.823-4.29-29.823s-.639-3.552 1.775-4.191c4.88-1.292 24.449-3.999 24.449-3.999s2.171-.608 4.83.143c2.771.781 19.394 4.722 19.394 4.722s2.842 1.197 2.131 5.529c-.712 4.333-2.646 25.288-2.646 25.288s-.346 2.273-1.767 4.333c-1.511 2.191-18.863 15.369-18.863 15.369s-1.482 1.977-5.389.354z"
          fill="url(#a)"/>
    <path d="m24.991 66.37c-3.908-1.623-17.706-14.246-17.706-14.246s-1.136-.64-1.918-3.479c-.817-2.975-4.29-29.823-4.29-29.823s-.639-3.552 1.775-4.191c4.88-1.292 24.449-3.999 24.449-3.999s2.171-.608 4.83.143c2.771.781 19.394 4.722 19.394 4.722s2.842 1.197 2.131 5.529c-.712 4.333-2.646 25.288-2.646 25.288s-.346 2.273-1.767 4.333c-1.511 2.191-18.863 15.369-18.863 15.369s-1.482 1.977-5.389.354z"
          fill="none" stroke="#000" stroke-miterlimit="3.8637"
          stroke-width="1.6217"/>
    <path d="m28.461 10.709c1.183-.307 1.396-.307 2.746.112l19.638 5.172c1.536.848 2.572 2.069 2.313 2.731l-24.166 9.81c-1.351.42-1.804.57-3.403-.312l-21.743-11.373c-1.6-.882-1.392-1.528-.995-2.171z"
          fill="url(#c)"/>
    <path d="m1.07 18.487c-.057-1.74.933-2.628 2.212-1.979l21.616 11.165c1.382.702 2.505 2.721 2.506 4.506l.375 32.576c0 1.712-1.097 2.508-2.447 1.783l-17.704-14.193c-1.775-1.261-1.988-1.849-2.362-4.242z"
          fill="url(#d)"/>
    <path d="m27.43 32.629c0-1.636 1.045-3.162 1.846-3.443l23.883-9.559c.993.671.566.839.282 2.771l-2.434 25.278c-.346 1.932-.488 2.518-1.456 3.637l-19.955 16.216c-.82.275-1.771-.473-1.771-2.182z"
          fill="url(#e)"/>
    <path d="m27.812 59.286-.284-27.542c0-1.636 1.046-3.161 1.848-3.443l19.426-7.791"
          fill="none" stroke="#8791aa" stroke-miterlimit="3.8637"
          stroke-width=".8109"/>
    <path d="m24.991 66.37c-3.908-1.623-17.706-14.246-17.706-14.246s-1.136-.64-1.918-3.479c-.817-2.975-4.29-29.823-4.29-29.823s-.639-3.552 1.775-4.191c4.88-1.292 24.449-3.999 24.449-3.999s2.171-.608 4.83.143c2.771.781 19.394 4.722 19.394 4.722s2.842 1.197 2.131 5.529c-.712 4.333-2.646 25.288-2.646 25.288s-.346 2.273-1.767 4.333c-1.511 2.191-18.863 15.369-18.863 15.369s-1.482 1.977-5.389.354z"
          fill="none" stroke="#333" stroke-miterlimit="3.8637" stroke-width="2"/>
    <path d="m13.816 22.084 11.073 5.648c1.383.702 2.505 2.722 2.506 4.506l.417 21.064"
          fill="none" stroke="#d2e2ff" stroke-miterlimit="3.8637"
          stroke-width=".8109"/>
    <path d="m20.967 3.406c-1.095.11-1.708 1.054-1.362 2.099l7.447 22.508c.346 1.044 1.463 1.562 2.483 1.151l22.371-9.025c1.02-.411 1.541-1.592 1.157-2.623l-5.514-14.83c-.384-1.031-1.593-1.785-2.688-1.675z"
          fill="url(#f)"/>
    <path d="m20.967 3.406c-1.095.11-1.708 1.054-1.362 2.099l7.447 22.508c.346 1.044 1.463 1.562 2.483 1.151l22.371-9.025c1.02-.411 1.541-1.592 1.157-2.623l-5.514-14.83c-.384-1.031-1.593-1.785-2.688-1.675z"
          fill="none" stroke="#333" stroke-width="2"/>
    <path d="m29.499 29.178 23.022-9.296" fill="none" stroke="#848fb7"
          stroke-width="2"/>
    <g stroke-miterlimit="3.8637">
        <path d="m25.436 45.864v-6.146l-2.896 5.726zm10.902 9.066-7.838 1.568v4.25l9.834-1.966zm-2.238-4.324-5.6 1.11v4.138l7.536-1.508zm-2.392-4.621-3.208.469v4.622l5.298-1.053zm-3.208-.13 2.92-.424-2.92-5.638zm-3.064 15.547-9.959-1.992-.624 1.225c-1.297.29-2.234.126-2.813-.493l14.514-27.642c-6.488-.136-11.691-4.009-11.691-5.151 0-1.163 5.39-2.105 12.04-2.105 6.648 0 12.042.942 12.042 2.105 0 1.157-5.337 5.113-11.94 5.153l14.762 27.45c-.442.569-1.293.748-2.551.53l-.579-1.119-10.137 2.029v2.778c-1.164.405-2.187.405-3.064 0zm0-4.893-7.712-1.543-1.952 3.859 9.664 1.934zm-5.226-6.46 5.226 1.038v-4.626l-3.177-.462zm5.226 1.68-5.521-1.097-1.896 3.751 7.417 1.482z"
              fill="#a7ff7f" stroke="#333" stroke-width="1.0872"/>
        <path d="m39.371 14.739-5.638 4.846" fill="none" stroke="#333"
              stroke-width="1.0872"/>
        <ellipse cx="26.904" cy="27.349" fill="none" rx="12.041" ry="2.105"
                 stroke="#333" stroke-linejoin="round" stroke-width="1.0872"/>
        <path d="m45.798 17.008s-9.437 4.582-8.855 5.822c.58 1.24 9.541 1.24 9.541 1.24"
              fill="none" stroke="#333" stroke-width="1.0872"/>
        <path d="m13.864 14.739 5.637 4.846" fill="none" stroke="#333"
              stroke-width="1.0872"/>
        <path d="m7.435 17.008s9.437 4.582 8.855 5.822c-.58 1.24-9.541 1.24-9.541 1.24"
              fill="none" stroke="#333" stroke-width="1.0872"/>
        <path d="m18.65 27.565 7.861-11.751 9.112 11.592" fill="none"
              stroke="#333" stroke-linejoin="round" stroke-width="1.0872"/>
        <path d="m18.703 27.459 7.861-11.645.157 13.282" fill="none"
              stroke="#333" stroke-linejoin="round" stroke-width="1.0872"/>
        <path d="m16.562 59.385 4.741.901" fill="none" stroke="#b3aeaf"
              stroke-width=".7159"/>
        <path d="m19.115 54.936 3.191.583" fill="none" stroke="#b3aeaf"
              stroke-width=".7159"/>
        <path d="m21.577 50.759 1.64.37" fill="none" stroke="#b3aeaf"
              stroke-width=".7159"/>
        <path d="m23.673 45.885.547.158" fill="none" stroke="#b3aeaf"
              stroke-width=".7159"/>
    </g>
</svg>