
<svg height="400pt" width="400pt" xmlns="http://www.w3.org/2000/svg"
     xmlns:xlink="http://www.w3.org/1999/xlink">
    <linearGradient id="a">
        <stop offset="0"/>
        <stop offset="1" stop-color="#fff"/>
    </linearGradient>
    <linearGradient id="b" gradientUnits="objectBoundingBox"
                    spreadMethod="repeat" x1=".508001" x2=".508" xlink:href="#a"
                    y1="1.076923" y2="1.038462"/>
    <linearGradient id="c" gradientUnits="objectBoundingBox"
                    spreadMethod="repeat" x1="1.222227" x2="1.166668"
                    xlink:href="#a" y1=".460938" y2=".460938"/>
    <g fill-rule="evenodd">
        <g stroke="#000" stroke-linejoin="round">
            <path d="m71.2025 75.1581 299.0505 1.5823 2.374 386.8676-303.0067 1.582z"
                  fill="#122466" stroke-width="10"
                  transform="translate(55.37975 -36.3924)"/>
            <path d="m128.956 38.7657c-10.285-1.5823-58.5446 4.7469-58.5446 37.1835 8.7025 31.6458 63.2916-10.2847 64.0826-20.5696.791-10.2848-5.538-17.405-5.538-16.6139z"
                  fill="#12242b" stroke-width="10"/>
            <path d="m71.2026 64.8733c-12.6583 4.7468-11.8671 379.7467-7.1203 390.0317s3.9557 10.285 3.9557 10.285l3.1645-390.823z"
                  fill="#122466" stroke-width="10"/>
            <path d="m125.791 42.7214 281.646 3.9557s-15.031 7.1202-30.064 11.8671c-11.076 6.3291-25.316 18.9874-25.316 18.1962l-275.3165-2.3734s3.9557-11.8672 19.7785-20.5697c17.405-10.2848 28.481-10.2848 29.272-11.0759z"
                  fill="url(#b)" stroke-width="10"/>
            <path d="m408.228 45.8859v373.4181c-.791.791-15.823 0-27.69 7.912-11.076 4.746-22.943 24.525-26.899 30.063l-.791-382.1209s21.361-18.9873 27.69-19.7785c6.329-.7911 28.482-9.4936 27.69-9.4937z"
                  fill="url(#c)" stroke-width="9.90521"
                  transform="matrix(1 0 0 1.019231 0 -.882416)"/>
            <path d="m71.2025 75.1581 299.0505 1.5823 2.374 386.8676-303.0067 1.582z"
                  fill="#122466" stroke-width="10"/>
        </g>
        <path d="m167.7215 458.8608s184.92171.61457 194.41541-5.71453.20489-253.77917.20489-253.77917 31.6456 264.2405-194.6203 259.4937z"
              fill-opacity=".498"/>
    </g>
</svg>