
<svg height="400pt" width="400pt" xmlns="http://www.w3.org/2000/svg">
    <g fill-rule="evenodd">
        <path d="m52.5712 53.9929h354.4318l36.46 35.6127-1.695 357.8234-388.3489-1.696z"
              fill="#00007b" stroke="#000" stroke-width="3.75"/>
        <path d="m371.39 53.9929v91.5761s-2.544 13.566-16.111 17.806c-13.566.847-198.413.848-198.413.848-.848.848-11.871-6.784-12.719-11.871-.848-5.088-1.696-6.783-1.696-6.783s1.696-92.424.848-92.424 228.939.8479 228.091.8479z"
              fill="#a3a6a6" stroke="#000" stroke-width="2.32865"
              transform="matrix(1 0 0 1.152582 0 -6.413116)"/>
        <path d="m89.879768 249.862976h321.362518v185.694977h-321.362518z"
              fill="#fff" stroke-width="1pt"/>
        <path d="m334.929 76.0389c-.848 0-52.571 0-52.571 0v89.0321h52.571z"
              fill="#00007b" stroke="#000" stroke-width="2.5"/>
        <g stroke-width="1pt">
            <path d="m89.879761 249.862946h321.362549v55.114929h-321.362549z"
                  fill="#dd8080"/>
            <path d="m105.142365 335.503052h287.445648v6.783386h-287.445648z"
                  fill="#dd8080"/>
            <path d="m104.294426 371.115822h287.445648v5.935455h-287.445648z"
                  fill="#dd8080"/>
            <path d="m105.142365 406.728516h286.597717v5.935455h-286.597717z"
                  fill="#df8080"/>
            <path d="m159.409393 75.190964h78.856766v5.087509h-78.856766z"/>
            <path d="m161.105225 87.909775h58.506653v5.087547h-58.506653z"/>
            <path d="m161.105225 100.628624h76.313004v5.087509h-76.313004z"
                  fill="#180003"/>
            <path d="m105.990288 261.733826h114.46949v5.935486h-114.46949z"
                  fill="#fff"/>
            <path d="m106.838211 277.84436h44.09195v5.087524h-44.09195z"
                  fill="#fff"/>
            <path d="m178.063675 277.844386h33.916901v5.087512h-33.916901z"
                  fill="#fff"/>
        </g>
        <path d="m150.317 158.228c1.582-4.747-1.583-94.9369 4.746-94.9369s137.659-1.5822 137.659-1.5822c-60.127 6.3291-128.165 4.7468-142.405 96.5191z"
              fill="#fff" fill-opacity=".5"/>
    </g>
</svg>