
<svg enable-background="new 0 0 71.095 64.807" height="64.807"
     viewBox="0 0 71.095 64.807" width="71.095"
     xmlns="http://www.w3.org/2000/svg"
     xmlns:xlink="http://www.w3.org/1999/xlink">
    <linearGradient id="a" gradientUnits="userSpaceOnUse" x1="1.0161"
                    x2="70.0854" y1="32.4033" y2="32.4033">
        <stop offset="0" stop-color="#fff"/>
        <stop offset=".065" stop-color="#fefffa"/>
        <stop offset=".3324" stop-color="#fcfde9"/>
        <stop offset=".6272" stop-color="#fafcdf"/>
        <stop offset="1" stop-color="#fafcdc"/>
    </linearGradient>
    <linearGradient id="b" gradientUnits="userSpaceOnUse" x1="1.0098"
                    x2="68.1929" y1="33.1709" y2="33.1709">
        <stop offset="0" stop-color="#e3d29f"/>
        <stop offset=".0959" stop-color="#dbc990"/>
        <stop offset=".2871" stop-color="#ceba79"/>
        <stop offset=".4914" stop-color="#c4af68"/>
        <stop offset=".716" stop-color="#bfa95e"/>
        <stop offset="1" stop-color="#bda75b"/>
    </linearGradient>
    <g stroke-miterlimit="3.8637">
        <path d="m6.208 14.755c.496-3.45 2.643-6.461 4.801-6.732l55.54-6.99c2.351-.296 3.905 2.381 3.462 5.987l-6.205 50.676c-.459 3.739-2.91 5.892-5.297 6.084l-54.354.01c-2.19.177-3.542-2.584-3.029-6.157z"
              fill="url(#a)" stroke="#333" stroke-width="2.0198"/>
        <path d="m6.201 14.746c.496-3.451 2.643-6.462 4.801-6.733l43.364-5.458c-.732 1.01-1.381 2.132-1.923 3.354-3.254 7.341-1.395 15.497 4.152 18.218 3.702 1.814 8.107.755 11.597-2.33l-4.396 35.89c-.459 3.74-2.911 5.901-5.297 6.094h-54.353c-2.189.177-3.542-2.583-3.028-6.157z"
              fill="url(#b)" stroke="#333" stroke-width="2.0198"/>
        <path d="m4.873 45.563 3.712-30.95c.388-3.578 2.02-4.108 3.314-4.651-2.782.517 31.572-3.96 31.572-3.96"
              fill="none" stroke="#ffffd1" stroke-linejoin="round"
              stroke-width="1.9017"/>
    </g>
    <path d="m65.443 27.396-2.99 28.25c-.406 3.734-2.451 6.927-4.563 7.119l-24.79-.619"
          fill="none"/>
    <path d="m65.443 27.396-3.226 28.485c-.406 3.734-2.216 5.652-4.327 5.845h-24.79"
          fill="none" stroke="#bfbfa0" stroke-miterlimit="3.8637"
          stroke-width="1.9017"/>
    <path d="m18.803 48.32c-.485 2.463-1.765 4.914-4.085 6.221-2.108 1.18-4.948 1.107-7.051.5l1.001-4.467c.491-.1.892.281 1.295.459.504.22 1.122.227 1.688.173 1.51-.146 2.437-1.167 2.929-2.581.469-1.354.667-2.801.952-4.191.515-2.522 1.027-5.044 1.536-7.566l-3.464.216c.226-1.07.45-2.14.674-3.21.017-.082.124-.819.197-.824.342-.025.684-.049 1.026-.074 2.112-.154 4.223-.307 6.332-.46z"
          fill="#333"/>
    <path d="m39.813 42.78c-.663 4.78-2.991 10.443-8.095 12.033-2.247.696-4.944.619-6.786-.736-1.781-1.319-2.514-3.616-2.653-5.827-.295-4.87 1.359-11.022 5.142-14.537 3.413-3.219 9.271-3.667 11.512.715 1.293 2.48 1.262 5.557.88 8.352m-6.754 6.151c1.898-2.558 2.622-6.462 2.348-9.497-.128-1.437-.539-3.132-1.927-3.705-1.574-.651-3.231.367-4.267 1.701-1.911 2.455-2.683 6.448-2.5 9.395.09 1.448.458 3.14 1.855 3.779 1.631.745 3.445-.285 4.491-1.673"
          fill="#333"/>
    <path d="m58.347 46.663c-.247 2.847-1.721 5.447-4.293 6.789-1.564.813-3.308.899-5.026.931-2.444.045-4.889.09-7.334.135.612-4.638 1.216-9.276 1.811-13.914.342-2.701.681-5.402 1.016-8.104.067-.542.135-1.085.201-1.628.016-.131 2.079-.188 2.26-.201 1.432-.105 2.862-.21 4.292-.315 2.15-.158 5.05-.454 6.302 1.888 1.493 2.756.068 6.739-2.367 8.374-.675.452.404.477.802.675.567.284 1.063.703 1.447 1.224.872 1.178 1.014 2.713.889 4.146m-5.166-9.72c.281-2.86-2.708-2.207-4.491-2.095l-.571 5.046c2.265-.118 4.763-.011 5.062-2.951m.145 9.796c.165-1.628-.427-2.737-2.098-2.835-1.185-.069-2.396.053-3.584.1l-.705 6.013c2.635-.067 6.032.215 6.387-3.278"
          fill="#333"/>
</svg>