
<svg enable-background="new 0 0 54.769 71.143" height="71.143"
     viewBox="0 0 54.769 71.143" width="54.769"
     xmlns="http://www.w3.org/2000/svg"
     xmlns:xlink="http://www.w3.org/1999/xlink">
    <linearGradient id="a" gradientUnits="userSpaceOnUse" x1="27.3843"
                    x2="27.3843" y1="70.1426" y2="13.5327">
        <stop offset=".5778" stop-color="#c7d4ff"/>
        <stop offset="1" stop-color="#8b94b2"/>
    </linearGradient>
    <linearGradient id="b" gradientUnits="userSpaceOnUse" x1="1.0684"
                    x2="27.7803" y1="44.6836" y2="44.6836">
        <stop offset=".0056" stop-color="#a9b4d8"/>
        <stop offset="1" stop-color="#8b94b2"/>
    </linearGradient>
    <linearGradient id="c" gradientUnits="userSpaceOnUse" x1="27.4297"
                    x2="53.7803" y1="45.8369" y2="45.8369">
        <stop offset=".0056" stop-color="#595f72"/>
        <stop offset="1" stop-color="#8b94b2"/>
    </linearGradient>
    <path d="m24.991 69.503c-3.907-1.623-17.706-14.246-17.706-14.246s-1.136-.64-1.918-3.479c-.817-2.974-4.29-29.823-4.29-29.823s-.639-3.552 1.775-4.191c4.88-1.292 24.449-3.999 24.449-3.999s2.171-.608 4.83.143c2.771.781 19.393 4.722 19.393 4.722s2.842 1.197 2.131 5.529c-.712 4.333-2.646 25.288-2.646 25.288s-.346 2.274-1.767 4.333c-1.511 2.192-18.863 15.369-18.863 15.369s-1.481 1.977-5.388.354z"
          fill="url(#a)"/>
    <path d="m24.991 69.503c-3.907-1.623-17.706-14.246-17.706-14.246s-1.136-.64-1.918-3.479c-.817-2.974-4.29-29.823-4.29-29.823s-.639-3.552 1.775-4.191c4.88-1.292 24.449-3.999 24.449-3.999s2.171-.608 4.83.143c2.771.781 19.393 4.722 19.393 4.722s2.842 1.197 2.131 5.529c-.712 4.333-2.646 25.288-2.646 25.288s-.346 2.274-1.767 4.333c-1.511 2.192-18.863 15.369-18.863 15.369s-1.481 1.977-5.388.354z"
          fill="none" stroke="#000" stroke-miterlimit="3.8637"
          stroke-width="1.6217"/>
    <path d="m28.462 13.842c1.183-.307 1.396-.307 2.746.112l19.638 5.172c1.536.848 2.572 2.069 2.313 2.731l-24.166 9.81c-1.35.42-1.804.57-3.403-.312l-21.744-11.373c-1.6-.882-1.392-1.528-.995-2.171z"
          fill="none"/>
    <path d="m1.071 21.62c-.057-1.74.933-2.628 2.212-1.979l21.616 11.165c1.382.702 2.505 2.721 2.506 4.506l.375 32.576c0 1.712-1.097 2.508-2.447 1.783l-17.704-14.193c-1.775-1.261-1.988-1.849-2.362-4.243z"
          fill="url(#b)"/>
    <path d="m27.43 34.859c0-1.636 1.046-3.162 1.846-3.443l23.883-9.559c.993.671.567.839.282 2.771l-2.433 25.277c-.346 1.933-.488 2.519-1.456 3.637l-19.955 16.218c-.821.275-1.771-.473-1.771-2.183z"
          fill="url(#c)"/>
    <path d="m27.813 62.419-.284-27.542c0-1.636 1.046-3.161 1.848-3.443l19.426-7.791"
          fill="none" stroke="#8791aa" stroke-miterlimit="3.8637"
          stroke-width=".8109"/>
    <path d="m15.852 15.312 24.659 8.685c1.571.394 2.483.547 2.404 3.302l-2.351 34.356 2.98-2.675 3.373-34.103c0-1.635-1.17-1.977-1.97-2.258l-24.532-7.937z"
          fill="#ba0000" stroke="#333" stroke-width=".8109"/>
    <path d="m42.549 16.533-27.634 6.638c-1.57.394-2.357 1.731-2.279 4.486l2.349 34.357-2.979-2.676-3.374-34.101c0-1.636 1.046-3.162 1.847-3.443l26.924-6.403z"
          fill="#ba0000" stroke="#333" stroke-width=".8109"/>
    <g stroke-miterlimit="3.8637">
        <path d="m24.991 69.503c-3.907-1.623-17.706-14.246-17.706-14.246s-1.136-.64-1.918-3.479c-.817-2.974-4.29-29.823-4.29-29.823s-.639-3.552 1.775-4.191c4.88-1.292 24.449-3.999 24.449-3.999s2.171-.608 4.83.143c2.771.781 19.393 4.722 19.393 4.722s2.842 1.197 2.131 5.529c-.712 4.333-2.646 25.288-2.646 25.288s-.346 2.274-1.767 4.333c-1.511 2.192-18.863 15.369-18.863 15.369s-1.481 1.977-5.388.354z"
              fill="none" stroke="#333" stroke-width="2"/>
        <path d="m13.817 25.217 11.073 5.648c1.383.702 2.505 2.722 2.506 4.506l.417 21.065"
              fill="none" stroke="#d2e2ff" stroke-width=".8109"/>
        <path d="m33.094 14.392 5.157-2.461 3.113-.955c1.534-.47 2.621-.967 3.592-1.596l-.366-.514c-1.147-1.62-3.734-2.859-6.198-2.104-3.151.966-4.203 2.529-5.601 4.418-.06.329-.107.677-.148 1.052-.075.756-.039 1.471.451 2.16zm-3.207 4.697c-.487-.688-.561-1.337-.484-2.093.143-1.355.383-2.349.963-3.394l2.851-5.15c.287-.518.657-1.049 1.141-1.643 1.957-2.407 2.718-4.423 6.496-5.582 2.465-.755 5.049.483 6.199 2.104l.592.834c.481.679.468 1.312.127 1.926l-2.851 5.15c-.206.369-.527.732-.932 1.095-1.793 1.624-3.107 2.559-5.866 3.404l-3.113.955z"
              fill="#ba0000" stroke="#333" stroke-width="2"/>
        <path d="m25.17 14.392-5.157-2.461-3.114-.955c-1.534-.47-2.621-.967-3.592-1.596l.365-.515c1.149-1.62 3.734-2.859 6.199-2.104 3.15.966 4.203 2.529 5.602 4.418.06.329.107.677.147 1.052.075.757.038 1.472-.45 2.161zm3.206 4.697c.488-.688.561-1.337.486-2.093-.145-1.355-.385-2.349-.963-3.394l-2.852-5.15c-.287-.518-.657-1.049-1.14-1.643-1.958-2.407-2.719-4.423-6.497-5.582-2.464-.755-5.05.483-6.199 2.104l-.592.834c-.481.679-.468 1.312-.127 1.926l2.852 5.15c.205.369.527.732.93 1.095 1.794 1.624 3.107 2.559 5.867 3.404l3.113.955z"
              fill="#ba0000" stroke="#333" stroke-width="2"/>
    </g>
</svg>