
<svg xmlns="http://www.w3.org/2000/svg" height="48pt" viewBox="0 0 52 48"
     width="52pt" xmlns:xlink="http://www.w3.org/1999/xlink">
    <linearGradient id="a">
        <stop offset="0" stop-color="#989c9c"/>
        <stop offset="1"/>
    </linearGradient>
    <linearGradient id="b" gradientUnits="userSpaceOnUse" x1="21.8149"
                    x2="21.8149" xlink:href="#a" y1="19.791" y2="12.4975"/>
    <linearGradient id="c" gradientUnits="userSpaceOnUse" x1="14.271"
                    x2="19.2548" y1="28.6201" y2="41.3968">
        <stop offset="0" stop-color="#dedfdf"/>
        <stop offset="1" stop-color="#c2c4c4"/>
    </linearGradient>
    <linearGradient id="d" gradientUnits="userSpaceOnUse" x1="41.3486"
                    x2="14.9041" y1="37.627" y2="11.1823">
        <stop offset="0" stop-color="#989c9c"/>
        <stop offset=".1523" stop-color="#919595"/>
        <stop offset=".3784" stop-color="#7d8181"/>
        <stop offset=".6506" stop-color="#5d6060"/>
        <stop offset=".9562" stop-color="#313232"/>
        <stop offset="1" stop-color="#2a2b2b"/>
    </linearGradient>
    <linearGradient id="e" gradientUnits="userSpaceOnUse" x1="17.2153"
                    x2="17.9305" y1="12.0313" y2="14.5714">
        <stop offset="0" stop-color="#efefef"/>
        <stop offset="1" stop-color="#fff"/>
    </linearGradient>
    <linearGradient id="f" gradientUnits="userSpaceOnUse" x1="39.6064"
                    x2="38.4829" xlink:href="#a" y1="13.7388" y2="12.6152"/>
    <linearGradient id="g" gradientUnits="userSpaceOnUse" x1="33.5479"
                    x2="2.1251" xlink:href="#a" y1="18.6792" y2="-9.9314"/>
    <linearGradient id="h" gradientUnits="userSpaceOnUse" x1="29.2852"
                    x2="22.3922" y1="16.0757" y2="8.4817">
        <stop offset="0" stop-color="#f2f2f2"/>
        <stop offset="1" stop-color="#fff"/>
    </linearGradient>
    <linearGradient id="i" gradientUnits="userSpaceOnUse" x1="33.6191"
                    x2="24.3933" y1="18.5991" y2="23.116">
        <stop offset="0" stop-color="#919191"/>
        <stop offset="1" stop-color="#f3f4f4"/>
    </linearGradient>
    <linearGradient id="j" gradientUnits="userSpaceOnUse" x1="23.7305"
                    x2="23.0389" y1="42.209" y2="41.0667">
        <stop offset="0" stop-color="#636363"/>
        <stop offset="1" stop-color="#f3f4f4"/>
    </linearGradient>
    <g stroke="none">
        <path d="m21.5 44.2s1.3 1.1 4.1 0 20-6.2 23.9-9.1c1.5-1.1.8-2.5-.5-3.4-4.1-2.8-21.5-5.8-21.5-5.8s-18.6 7.8-20.1 8.5c-1.4.6-1.8 2.5-.2 3.1l14.3 6.8z"
              opacity=".35"/>
        <path d="m30.9 3.4s-4.3 2.3-4.9 2.6c-.2 0-5 .1-5 .1l-17.5 7.3c-.6.2-1.7 1-1.7 3v.3s1.1 17.6 1.1 17.7c0 .5.1 1.4.7 2.2s1.4 1.2 1.7 1.3c6.3 2.5 15.9 6.3 16.4 6.5.8.4 1.7.4 2 .4h.1c.3 0 1.1-.1 2-.6l14.2-8.4c.5-.3 1.5-.9 1.9-1.9.3-.8.4-1.5.4-1.8l.5-17.5c0-1.3-.5-2.2-1-2.6 0 0-.5-.6-.5-.6s0 0-.1-.1l-6.7-7.3c-.5-.6-1.3-1-2.1-1-.7 0-1.3.3-1.5.4z"/>
        <path d="m4 15.3 19.4 6.5 16.3-8.4-.3-.1-18.3-5.1z" fill="url(#b)"/>
        <path d="m5.7 35.5s16 6.3 16.5 6.5 1.1.2 1.1.2v-20.4l-19.3-6.5s-.4.1-.3 1.1l1.1 17.7s0 .5.2.9c.3.4.7.5.7.5z"
              fill="url(#c)"/>
        <path d="m39.7 13.4s.3.2.3 1l-.5 17.4s0 .5-.2.9-.9.8-.9.8l-14.2 8.4c-.4.3-.9.3-.9.3v-20.4l16.3-8.4z"
              fill="url(#d)"/>
        <path d="m4 15.3 10.7.9 15.5-8.2-9.2.3z" fill="url(#e)"/>
        <path d="m39.1 12.8-.1.9.6-.3z" fill="url(#f)"/>
        <path d="m39 13.7-14.6 7.5s-.6.3-1 .2c-.4 0-.7-.4-.7-.4l-6.9-6.8s-.1-.1-.1-.4.4-.4.4-.4l15.4-8.3s.2-.1.5-.1c.2 0 .3.2.3.2l6.7 7.4s.3.3.3.6c0 .2-.3.4-.3.4z"
              fill="url(#g)"/>
        <path d="m24.7 21s-.6.5-1.1 0l-6.7-6.7c-.2-.2-.2-.4.1-.5l14.4-8.5s-15.1 8-15.3 8.2c-.4.2-.5.6-.2 1 .2.2 5.2 5.1 7 6.8.4.4-.4.3-.4.3s1.9.6 2.3-.5z"
              fill="url(#h)"/>
        <path d="m23.8 41c.2-4.8.1-16.5.1-16.9 0-.5-.1-2.1 1.2-2.9l14.2-7.8-15.3 8c-1.1.5-2-.1-3.9-.7.1.1-15.7-5.4-15.7-5.4s-.9-.4-.8.8l1.2 18.2c0 .5.4 1 .9 1.2-.4-.3-.6-.8-.7-1.1l-1.1-18.1c0-.3.1-.4.3-.3 0 0 16.9 5.8 17.4 5.9 1.1.4.9 1.8 1 2.2 0 .3.5 17.1.5 17.1s.7 1.3.8-.2z"
              fill="url(#i)"/>
        <path d="m6.3 14.9 14.7-6.6-17 7 1.3.1 9.4.8-8.3-1.3z" fill="#fff"/>
        <path d="m39.5 31.8.4-14.8-1 14.9c0 .3-.1.5-.3.6l-4.3 3.5s4.2-2.5 4.5-2.7.7-.6.7-1.5z"
              fill="#a6a6a6"/>
        <path d="m22 41.9c1.1.6 1.8.3 2.9-.3 0 0-1.1-.1-1.1-1.2-.1-.1-.8.1-.8 0 0 1-.5 1.6-1 1.6z"
              fill="url(#j)"/>
    </g>
    <path d="m52 48h-52v-48h52z" fill="none"/>
</svg>