
<svg height="400pt" width="400pt" xmlns="http://www.w3.org/2000/svg">
    <g fill-rule="evenodd">
        <path d="m260.23309 13.159219c-6.41184.000114-13.12671.110777-19.88509.339945-13.51676.458336-27.11844 1.370076-38.61895 2.781372s-20.06998 2.293187-27.80424 6.860718c-15.93289 9.409407-27.52995 20.094981-29.9323 37.115865l-.06977.556275v.556274l-1.04658 256.164372 20.93167.0618 1.04659-255.422665c1.71414-11.370768 6.37819-15.160194 20.68747-23.610758-.12518.073922 8.5775-2.639949 19.04783-3.924825 10.47032-1.284876 23.57304-2.155554 36.56066-2.595947 12.98762-.440394 25.91491-.431875 36.10714 0 5.09612.215937 9.51576.534145 12.76832.927124s5.69315 1.223697 4.74452.803507c11.99619 6.113095 17.15053 6.901456 24.66449 20.953003.00001 16.449744 0 350.125201 0 372.456621.00001 18.64477-3.60083 24.4253-7.57029 31.08956-15.48124 8.11894-24.72347 12.95656-58.71335 16.25558-23.73233-.45383-41.51405-1.37701-51.14307-3.80121-4.88224-1.22914-7.35014-2.69501-8.37267-3.7394-1.02252-1.04439-1.59745-1.96674-1.43033-5.2228l.03489-.58718-.03489-.58718c-1.3457-14.69911-2.00127-86.01179-2.12805-151.92472-.12617-65.59389.13711-126.48408.13954-127.0778 1.81384-14.03502 4.92663-17.46015 13.3265-26.54665 8.26613-6.56829 9.0425-8.05803 26.44369-8.86949l.2442-.0309h.2442c19.6068-1.73631 26.29483-2.55906 43.92164 1.94696 11.93333 8.29498 17.2556 18.78696 16.64068 25.86676-.23865 2.74764-.23726 6.96669-.27909 14.46313-.04183 7.49645-.02381 17.53353 0 29.23531.04761 23.40357.19344 53.50461.38375 83.22484.38062 59.44046.87215 117.4048.87215 117.4048l20.93168-.15452s-.4917-57.95854-.87215-117.3739c-.19023-29.70768-.33623-59.77415-.38375-83.13212-.02376-11.67898-.04141-21.6915 0-29.11169.0414-7.4202.19428-12.96109.20931-13.13426 1.38951-15.99769-9.10312-31.90205-26.54834-43.23488l-1.46522-.95803-1.70942-.46356c-21.23744-5.64422-33.33293-4.82096-53.27111-3.05951-.1762.01556-.31097.01519-.48841.0309-20.29333 1.03411-30.19046 6.72771-39.38644 13.96867l-.62795.49446-.52329.55628c-9.30556 10.07472-16.35246 19.60776-18.55942 37.20858l-.03488.49446v.49447s-.26646 61.81381-.13955 127.78859c.12691 65.97479.49924 134.85439 2.19783 153.40813-.04803 6.23892 1.99322 12.46738 6.48882 17.05908 4.77924 4.88142 11.28956 7.62185 18.45476 9.42576 14.3304 3.60781 32.82585 4.02962 57.28302 4.4811l.69772.0309.66284-.06181c38.61421-3.69788 53.01319-11.20246 70.12111-20.11859l2.65135-1.39068 1.39545-2.44143c3.59139-6.36119 11.26823-17.95428 11.26821-41.90601 0-22.46854.00002-362.161158 0-374.743527v-2.008769l-.94192-1.792439c-10.04142-19.76732-23.37975-25.326788-34.7117-31.182272l-.27909-.15452-.31397-.123617c-3.9921-1.768278-7.08234-2.090203-11.26822-2.595947-4.18588-.505745-9.10853-.848223-14.61729-1.081645s-11.5894-.34006-18.00124-.339945z"
              fill="#939292" stroke="#000" stroke-linejoin="round"
              stroke-width="10"/>
        <g fill="#fff" fill-opacity=".4">
            <path d="m149.74925 53.7888-1.817 259.0022s8.179.909 7.27 0 1.817-259.911 1.817-259.911 3.22423-7.2703 9.58523-16.3581c6.362-9.0877-16.85523 6.3615-16.85523 17.2669z"/>
            <path d="m179.7959 464.99759-2.726-291.718s9.088-24.50918 17.267-29.96218c5.452-5.452-13.632 23.60018-12.723 31.77918 0 4.544 3.635 289.901 3.635 289.901z"/>
            <path d="m298.52059 168.295.908 244.462 2.726.909.001-245.371z"/>
            <path d="m325.81241 51.9712 1.817 384.4138s0 9.997-3.635 15.45c-3.635 5.452-4.544 9.087-4.544 9.087s11.815-14.54 12.723-23.628c.909-6.361-2.726-386.2316 0-384.414z"/>
        </g>
    </g>
</svg>