
<svg enable-background="new 0 0 54.769 68.01" height="68.01"
     viewBox="0 0 54.769 68.01" width="54.769"
     xmlns="http://www.w3.org/2000/svg"
     xmlns:xlink="http://www.w3.org/1999/xlink">
    <linearGradient id="a" gradientTransform="matrix(1 0 0 -1 9.3828 65.123)"
                    gradientUnits="userSpaceOnUse" x1="18.0015" x2="18.0015"
                    y1="-1.8867" y2="54.7231">
        <stop offset=".5778" stop-color="#c7d4ff"/>
        <stop offset="1" stop-color="#8b94b2"/>
    </linearGradient>
    <linearGradient id="b">
        <stop offset=".0056" stop-color="#595f72"/>
        <stop offset="1" stop-color="#8b94b2"/>
    </linearGradient>
    <linearGradient id="c" gradientUnits="userSpaceOnUse" x1="18.7402"
                    x2="40.082" xlink:href="#b" y1="11.5859" y2="23.5787"/>
    <linearGradient id="d" gradientTransform="matrix(1 0 0 -1 9.3828 65.123)"
                    gradientUnits="userSpaceOnUse" x1="-8.3149" x2="18.397"
                    y1="23.5723" y2="23.5723">
        <stop offset=".0056" stop-color="#a9b4d8"/>
        <stop offset="1" stop-color="#8b94b2"/>
    </linearGradient>
    <linearGradient id="e" gradientTransform="matrix(1 0 0 -1 9.3828 65.123)"
                    gradientUnits="userSpaceOnUse" x1="18.0469" x2="44.3979"
                    xlink:href="#b" y1="21.5171" y2="21.5171"/>
    <linearGradient id="f" gradientUnits="userSpaceOnUse" x1="19.5083"
                    x2="53.189" xlink:href="#b" y1="15.1523" y2="15.1523"/>
    <linearGradient id="g">
        <stop offset="0" stop-color="#98d81a"/>
        <stop offset=".3549" stop-color="#77ae24"/>
        <stop offset=".7835" stop-color="#558130"/>
        <stop offset="1" stop-color="#477034"/>
    </linearGradient>
    <linearGradient id="h" gradientTransform="matrix(1 0 0 -1 .9346 65.4463)"
                    gradientUnits="userSpaceOnUse" x1="26.0044" x2="25.5405"
                    xlink:href="#g" y1="59.7627" y2="20.9953"/>
    <radialGradient id="i" cx="23.8066" cy="15.2314"
                    gradientTransform="matrix(1 0 0 -1 .9346 65.4463)"
                    gradientUnits="userSpaceOnUse" r="9.7666" xlink:href="#g"/>
    <path d="m24.991 66.37c-3.908-1.623-17.706-14.246-17.706-14.246s-1.136-.64-1.918-3.479c-.817-2.975-4.29-29.823-4.29-29.823s-.639-3.552 1.775-4.191c4.88-1.292 24.449-3.999 24.449-3.999s2.171-.608 4.83.143c2.771.781 19.394 4.722 19.394 4.722s2.842 1.197 2.131 5.529c-.712 4.333-2.646 25.288-2.646 25.288s-.346 2.273-1.767 4.333c-1.511 2.191-18.863 15.369-18.863 15.369s-1.482 1.977-5.389.354z"
          fill="url(#a)"/>
    <path d="m24.991 66.37c-3.908-1.623-17.706-14.246-17.706-14.246s-1.136-.64-1.918-3.479c-.817-2.975-4.29-29.823-4.29-29.823s-.639-3.552 1.775-4.191c4.88-1.292 24.449-3.999 24.449-3.999s2.171-.608 4.83.143c2.771.781 19.394 4.722 19.394 4.722s2.842 1.197 2.131 5.529c-.712 4.333-2.646 25.288-2.646 25.288s-.346 2.273-1.767 4.333c-1.511 2.191-18.863 15.369-18.863 15.369s-1.482 1.977-5.389.354z"
          fill="none" stroke="#000" stroke-miterlimit="3.8637"
          stroke-width="1.6217"/>
    <path d="m28.461 10.709c1.183-.307 1.396-.307 2.746.112l19.638 5.172c1.536.848 2.572 2.069 2.313 2.731l-24.166 9.81c-1.351.42-1.804.57-3.403-.312l-21.743-11.373c-1.6-.882-1.392-1.528-.995-2.171z"
          fill="url(#c)"/>
    <path d="m1.07 18.487c-.057-1.74.933-2.628 2.212-1.979l21.616 11.165c1.382.702 2.505 2.721 2.506 4.506l.375 32.576c0 1.712-1.097 2.508-2.447 1.783l-17.704-14.193c-1.775-1.261-1.988-1.849-2.362-4.242z"
          fill="url(#d)"/>
    <path d="m27.43 32.629c0-1.636 1.045-3.162 1.846-3.443l23.883-9.559c.993.671.566.839.282 2.771l-2.434 25.278c-.346 1.932-.488 2.518-1.456 3.637l-19.955 16.216c-.82.275-1.771-.473-1.771-2.182z"
          fill="url(#e)"/>
    <path d="m27.812 59.286-.284-27.542c0-1.636 1.046-3.161 1.848-3.443l19.426-7.791"
          fill="none" stroke="#8791aa" stroke-miterlimit="3.8637"
          stroke-width=".8109"/>
    <path d="m24.991 66.37c-3.908-1.623-17.706-14.246-17.706-14.246s-1.136-.64-1.918-3.479c-.817-2.975-4.29-29.823-4.29-29.823s-.639-3.552 1.775-4.191c4.88-1.292 24.449-3.999 24.449-3.999s2.171-.608 4.83.143c2.771.781 19.394 4.722 19.394 4.722s2.842 1.197 2.131 5.529c-.712 4.333-2.646 25.288-2.646 25.288s-.346 2.273-1.767 4.333c-1.511 2.191-18.863 15.369-18.863 15.369s-1.482 1.977-5.389.354z"
          fill="none" stroke="#333" stroke-miterlimit="3.8637" stroke-width="2"/>
    <path d="m13.816 22.084 11.073 5.648c1.383.702 2.505 2.722 2.506 4.506l.417 21.064"
          fill="none" stroke="#d2e2ff" stroke-miterlimit="3.8637"
          stroke-width=".8109"/>
    <path d="m20.967 3.406c-1.095.11-1.708 1.054-1.362 2.099l7.447 22.508c.346 1.044 1.463 1.562 2.483 1.151l22.371-9.025c1.02-.411 1.541-1.592 1.157-2.623l-5.514-14.83c-.384-1.031-1.593-1.785-2.688-1.675z"
          fill="url(#f)"/>
    <g stroke-width="2">
        <path d="m20.967 3.406c-1.095.11-1.708 1.054-1.362 2.099l7.447 22.508c.346 1.044 1.463 1.562 2.483 1.151l22.371-9.025c1.02-.411 1.541-1.592 1.157-2.623l-5.514-14.83c-.384-1.031-1.593-1.785-2.688-1.675z"
              fill="none" stroke="#333"/>
        <path d="m29.499 29.178 23.022-9.296" fill="none" stroke="#848fb7"/>
        <path d="m21.772 44.198-.156-2.031c-.469-4.219.938-8.829 4.844-13.517 3.516-4.141 5.469-7.188 5.469-10.626 0-3.985-2.5-6.72-7.422-6.72-2.813 0-5.938.86-7.892 2.422l-1.875-4.921c2.656-1.953 7.032-3.204 11.173-3.204 8.985 0 13.048 5.625 13.048 11.564 0 5.235-2.969 9.141-6.72 13.517-3.438 4.063-4.688 7.501-4.453 11.484l.155 2.031z"
              fill="url(#h)" stroke="#000"/>
        <path d="m24.663 59.981c-2.657 0-4.532-2.109-4.532-4.844 0-2.893 1.953-4.923 4.61-4.923 2.813 0 4.61 2.03 4.61 4.923 0 2.733-1.797 4.844-4.61 4.844z"
              fill="url(#i)" stroke="#000"/>
    </g>
</svg>