<?xml version="1.0" encoding="UTF-8"?>
<svg width="744.09" height="1052.4" version="1.1" xmlns="http://www.w3.org/2000/svg" xmlns:cc="http://creativecommons.org/ns#" xmlns:dc="http://purl.org/dc/elements/1.1/" xmlns:rdf="http://www.w3.org/1999/02/22-rdf-syntax-ns#">
 <defs>
  <clipPath id="clipPath2855">
   <path d="m0 566.93v-566.93h1133.9v566.93"/>
  </clipPath>
 </defs>
 <metadata>
  <rdf:RDF>
   <cc:Work rdf:about="">
    <dc:format>image/svg+xml</dc:format>
    <dc:type rdf:resource="http://purl.org/dc/dcmitype/StillImage"/>
    <dc:title/>
   </cc:Work>
  </rdf:RDF>
 </metadata>
 <g transform="matrix(1.2951 0 0 -1.158 2.8399 1052.2)">
  <g transform="matrix(.10077 0 0 .12661 -2.2095 -.047819)">
   <g fill="none" stroke="#858585" stroke-width="2.5">
    <path d="m15.219 5.5078s-200.89 3410.6 1241.2 2955.7c1065.7-336.19 1484.2-2474.2 2797.3-1874.8 816.8 372.88 1654.9-1080.9 1654.9-1080.9"/>
    <path d="m5708.6 78.418s-811.38 1367.9-1631.6 998.51c-1289.3-584.74-1700.7 1515-2776.8 1816.1-56.89 15.92-110.81 27.78-162.63 32.52-1267.5 115.79-1122.1-2884-1122.1-2884"/>
    <path d="m5708.6 151.33s-785.59 1284.2-1608.3 916.11c-1266.9-566.84-1668.5 1491.7-2756.4 1757.4-56.07 13.69-108.95 25.32-160.05 28.53-1274.6 80.03-1168.2-2775.8-1168.2-2775.8"/>
    <path d="m5708.6 224.23s-759.3 1199.3-1585 833.73c-1243.8-550.73-1635.1 1468.6-2735.9 1698.7-55.18 11.54-107.09 22.85-157.45 24.56-1282.3 43.69-1214.3-2667.6-1214.3-2667.6"/>
    <path d="m5708.6 297.14s-732.96 1114.4-1561.7 751.33c-1220.5-534.77-1600.5 1446-2715.5 1640-54.24 9.43-105.25 20.31-154.84 20.57-1290.6 6.84-1260.5-2559.4-1260.5-2559.4"/>
    <path d="m5708.6 370.05s-706.61 1029.5-1538.4 668.93c-1197.2-518.93-1564.8 1424.1-2695 1581.4-53.27 7.41-103.45 17.74-152.26 16.59-1299.5-30.73-1306.6-2451.2-1306.6-2451.2"/>
    <path d="m5708.6 442.96s-680.22 944.45-1515.1 586.54c-1173.8-503.24-1528 1402.9-2674.6 1522.7-52.24 5.46-101.64 15.14-149.65 12.61-1308.7-68.94-1352.8-2343-1352.8-2343"/>
    <path d="m5708.6 515.87s-653.78 859.38-1491.8 504.14c-1150.4-487.67-1490.4 1382.6-2654.1 1464-51.18 3.57-99.85 12.49-147.07 8.62-1318.4-107.92-1398.9-2234.8-1398.9-2234.8"/>
    <path d="m5708.6 588.77s-627.32 774.25-1468.4 421.76c-1126.9-472.26-1451.9 1363.4-2633.7 1405.3-50.09 1.78-98.07 9.81-144.46 4.65-1328.3-147.81-1445-2126.6-1445-2126.6"/>
    <path d="m5708.6 661.68s-600.84 689.05-1445.2 339.37c-1103.3-456.96-1412.8 1345.4-2613.2 1346.6-48.98 0.05-96.3 7.09-141.87 0.66-1338.4-188.52-1491.2-2018.4-1491.2-2018.4"/>
    <path d="m5708.6 734.59s-574.29 603.77-1421.8 256.96c-1079.7-441.8-1373.2 1328.7-2592.8 1288-47.84-1.6-94.51 4.33-139.27-3.32-1348.6-230.3-1537.3-1910.1-1537.3-1910.1"/>
    <path d="m5708.6 807.5s-547.73 518.42-1398.5 174.57c-1056-426.76-1333.3 1313.5-2572.3 1229.3-46.7-3.17-92.74 1.51-136.68-7.31-1358.8-272.83-1583.4-1801.9-1583.4-1801.9"/>
    <path d="m5708.6 880.41s-521.12 432.97-1375.2 92.168c-1032.2-411.88-1293.2 1299.9-2551.9 1170.6-45.55-4.68-90.95-1.32-134.07-11.29-1369-316.52-1629.6-1693.7-1629.6-1693.7"/>
    <path d="m5708.6 953.31s-494.47 347.45-1351.9 9.786c-1008.4-397.12-1253.1 1288.1-2531.4 1111.9-44.4-6.12-89.16-4.18-131.48-15.26-1378.9-361.09-1675.7-1585.6-1675.7-1585.6"/>
    <path d="m5708.6 1026.2s-467.79 261.82-1328.6-72.607c-984.56-382.48-1213.3 1277.8-2511 1053.2-43.26-7.49-87.36-7.07-128.88-19.24-1388.6-406.85-1721.8-1477.3-1721.8-1477.3"/>
    <path d="m5708.6 1099.1s-441.05 176.07-1305.3-155.01c-960.64-368-1174 1269.7-2490.5 994.55-42.14-8.81-85.56-10.01-126.28-23.22-1397.9-453.51-1768-1369.1-1768-1369.1"/>
    <path d="m5708.6 1172s-414.27 90.21-1282-237.4c-936.67-353.63-1135.3 1263.4-2470.1 935.87-41.03-10.07-83.73-12.97-123.69-27.21-1406.7-501.37-1814.1-1260.9-1814.1-1260.9"/>
    <path d="m5708.6 1245s-387.44 4.21-1258.7-319.8c-912.65-339.4-1097.4 1259-2449.6 877.2-39.95-11.29-81.9-15.95-121.1-31.19-1414.8-550.25-1860.2-1152.7-1860.2-1152.7"/>
    <path d="m5708.6 1317.8s-360.56-81.91-1235.4-402.19c-888.58-325.3-1060.7 1256.9-2429.2 818.51-38.91-12.46-80.05-18.94-118.5-35.17-1422.5-600-1906.4-1044.5-1906.4-1044.5"/>
    <path d="m5708.6 1390.8s-333.64-168.2-1212.1-484.58c-864.5-311.35-1025.2 1256.6-2408.7 759.83-37.89-13.61-78.18-21.98-115.91-39.15-1429.2-650.9-1952.5-936.33-1952.5-936.33"/>
    <path d="m5708.5 1463.7s-306.63-254.67-1188.8-566.98c-840.35-297.51-991.1 1258-2388.3 701.14-36.91-14.72-76.28-25.01-113.3-43.13-1435.2-702.73-1998.7-828.12-1998.7-828.12"/>
    <path d="m5708.5 1536.6s-279.58-341.31-1165.5-649.37c-816.16-283.81-958.71 1261.5-2367.8 642.46-35.97-15.8-74.38-28.07-110.71-47.12-1440.3-755.43-2044.8-719.91-2044.8-719.91"/>
    <path d="m5708.5 1609.5s-252.49-428.16-1142.2-731.76c-791.94-270.25-927.99 1266.6-2347.4 583.77-35.07-16.87-72.44-31.12-108.11-51.1-1444.4-808.97-2090.9-611.72-2090.9-611.72"/>
    <path d="m5708.5 1682.4s-225.31-515.25-1118.9-814.17c-767.69-256.8-899.26 1273.4-2326.9 525.1-34.21-17.93-70.48-34.2-105.51-55.08-1447.7-863.14-2137.1-503.52-2137.1-503.52"/>
    <path d="m5708.5 1755.3s-198.08-602.57-1095.6-896.55c-743.41-243.51-872.62 1281.8-2306.5 466.42-33.4-19-68.51-37.28-102.91-59.06-1449.8-918.15-2183.2-395.32-2183.2-395.32"/>
    <path d="m5708.5 1828.2s-170.77-690.19-1072.2-978.95c-719.11-230.34-847.83 1291.1-2286 407.73-32.64-20.05-66.51-40.35-100.32-63.03-1451-973.64-2229.3-287.11-2229.3-287.11"/>
    <path d="m5708.5 1901.1s-143.38-778.13-1049-1061.3c-710.2-222.12-830.74 1369.8-2363.3 282.04-1451-1029.9-2275.5-178.91-2275.5-178.91"/>
   </g>
   <g fill="#4f4f4f">
    <path d="m5219.3 1810.6c-9.53-1.23-19.05-2.63-28.58-3.75 10.24 0.5 20.45 0.8 30.67 1.22-0.73 0.83-1.39 1.66-2.09 2.53"/>
    <path d="m79.106 3635.6c-15.703-6.4-31.363-12.96-46.957-19.68 4.8282-0.75 9.6719-1.47 14.484-2.28 14.938 6.38 29.945 12.63 45 18.73-4.1875 1.07-8.3555 2.16-12.527 3.23"/>
    <path d="m2257.2 3311.7c-43.38 31.73-87.98 62.01-133.47 91.01 96.91-63.03 189.84-131.95 280.16-204.67-48.07 38.92-96.73 77.1-146.69 113.66"/>
    <path d="m4624.7 1797.4c-144.65 16.66-284.9 46.97-420.74 89.92-2.58-1.13-5.18-2.18-7.76-3.34 132.52-41.73 269.12-70.81 408.83-84.96 6.54-0.66 13.11-1.02 19.67-1.62"/>
    <path d="m5431.2 1844.2c-54.37-10.37-108.96-19.51-163.71-27.29 3.54-1.63 7.09-3.31 10.65-4.96 37.57 5.42 75.07 11.57 112.51 18.27 13.56 4.58 27.06 9.15 40.55 13.98"/>
    <path d="m5245.5 1809c5.27 0.18 10.51 0.48 15.78 0.64 4.51 0.63 9.02 1.18 13.5 1.84-3.62 1.65-7.25 3.3-10.86 4.92-7.37-1.03-14.81-1.9-22.21-2.9 1.25-1.5 2.52-2.99 3.79-4.5"/>
    <path d="m4091.1 1920.1c25.49-9.49 51.12-18.55 76.92-27.06 2.62 1.2 5.29 2.32 7.93 3.49-24.47 8.08-48.85 16.46-73.07 25.39-3.9-0.63-7.83-1.19-11.78-1.82"/>
    <path d="m4624.7 1797.4c104.2-12.06 210.78-16.92 319.65-14.27 18.43 2.62 36.87 5.35 55.39 7.57-124.65-6.59-249.83-4.95-375.04 6.7"/>
    <path d="m5409 1833.5c23.77 4.38 47.48 9.07 71.16 13.91-3.99 1.38-7.99 2.79-11.98 4.14-6.52-1.32-12.99-2.71-19.47-3.98-13.2-4.84-26.45-9.46-39.71-14.07"/>
    <path d="m2424 3181.9c9.99-8.12 19.9-16.36 29.81-24.57-9.89 8.25-19.84 16.39-29.81 24.57"/>
    <path d="m3360.9 2348.7c-0.41-0.06-0.8-0.1-1.19-0.14 75.02-59.84 152.01-117.07 232.09-170.52 1.42 0.11 2.89 0.19 4.31 0.31-80.21 52.23-158.61 109.16-235.21 170.35"/>
    <path d="m5224.3 1804.6c-0.18 0.19-0.31 0.41-0.51 0.61-84.24-3.46-168.22-10.27-251.7-21.3 3.2 0.09 6.37 0.13 9.57 0.23 81.19 3.26 162.11 10.24 242.64 20.46"/>
    <path d="m3997.1 1957.4c17.95-7.63 35.96-14.98 54.08-22.12 3.77 0.64 7.52 1.36 11.31 1.98-19.28 7.5-38.48 15.21-57.56 23.2-2.62-1.02-5.21-2.04-7.83-3.06"/>
    <path d="m5500.8 1851.7c69.65 14.68 138.95 31.25 207.74 49.42v6.27c-72.66-19.11-145.81-36.38-219.32-51.58 3.83-1.41 7.77-2.7 11.58-4.11"/>
    <path d="m31.172 3615.5c-8.4297-3.62-16.856-7.26-25.27-11.01v-8.55c13.277 5.93 26.621 11.69 39.988 17.42-4.8945 0.73-9.8125 1.43-14.719 2.14"/>
    <path d="m1501.4 3689.5c-201.42 60.89-410.36 95.32-620.08 98.64 7.356-3.65 14.606-7.51 21.945-11.18 202.41-4.02 403.43-32.37 598.13-87.46"/>
    <path d="m95.82 3642.4c-2.8867-1.16-5.7656-2.38-8.6523-3.55 4.1367-1.05 8.207-2.25 12.34-3.35 3.1682 1.28 6.3202 2.57 9.5192 3.83-4.394 1.08-8.824 2-13.207 3.07"/>
    <path d="m3595 2176c17.38-11.54 34.98-22.81 52.68-34 1.32 0.36 2.67 0.71 3.98 1.08-17.5 10.81-34.92 21.92-52.26 33.16-1.47-0.08-2.93-0.14-4.4-0.24"/>
    <path d="m3726 2093.8c87.03-50.88 176.95-96.25 269.25-135.5 2.6 0.98 5.18 2.04 7.78 3.05-92.23 38.78-182.27 83.54-270.29 133.74-2.25-0.44-4.5-0.86-6.74-1.29"/>
    <path d="m3719.1 2097.9c2.21 0.44 4.4 0.79 6.58 1.22-24 13.79-47.89 27.88-71.58 42.48-1.36-0.37-2.71-0.71-4.06-1.12 8.69-5.46 17.15-11.29 25.92-16.72 14.28-8.81 28.69-17.36 43.14-25.86"/>
    <path d="m902.06 3777c-7.535 3.82-15.184 7.43-22.762 11.2-179.8 2.64-360.11-17.4-536.62-63.59-70.348-18.41-139.48-41.12-207.54-66.94 4.226-1.1 8.43-2.26 12.66-3.4 154.22 57.96 313.99 99.3 479.77 113.52 91.468 7.84 183.12 10.94 274.5 9.21"/>
    <path d="m2703.2 2937.9c0.41 0.06 0.82 0.13 1.21 0.18-82.18 74.97-165.34 148.64-250.58 219.25 84.98-70.8 167.71-144.45 249.37-219.43"/>
    <path d="m2403.9 3198.1c6.68-5.4 13.48-10.72 20.11-16.19-6.66 5.41-13.4 10.79-20.11 16.19"/>
    <path d="m1715.7 3617c-70.36 28.06-141.91 52.07-214.28 72.56 219.35-66.3 429.68-163.92 622.28-286.77-127.99 83.24-262.87 156.34-408 214.21"/>
    <path d="m3355.5 2353.1c-9.04 7.21-18.05 14.4-27.03 21.75-178.54 146.5-347.85 307.53-518.99 466.4-0.58-0.11-1.19-0.18-1.77-0.28 178.94-166.95 356.28-335.7 546.62-488.05 0.37 0.06 0.78 0.1 1.17 0.18"/>
   </g>
   <g>
    <path d="m601.24 3455.8c29.324-13.19 58.457-26.92 87.516-40.86 242.56-109.48 471.68-251.13 689.57-409.78-243.7 178.57-501.14 336.82-777.08 450.64"/>
    <path d="m4249.4 934.56c137.63-48.285 277.63-88.167 419.57-119.66 7.44-0.672 14.88-1.386 22.28-2.019-141.23 30.64-280.51 69.461-417.52 116.54-8.1 1.699-16.19 3.394-24.33 5.136"/>
    <path d="m4747.3 801.17c-6.21 0.39-12.44 0.664-18.65 1.062 318.56-65.093 646.62-87.793 979.89-66.328v2.063c-328.21-21.258-649.42 0.676-961.24 63.203"/>
    <path d="m1439 2960.4c-20.11 15.08-40.34 30.03-60.67 44.84 17.79-13.04 35.51-26.13 53.16-39.38 2.51-1.81 5-3.65 7.51-5.46"/>
    <path d="m3292.2 1430.2c22.83-15.61 45.97-30.84 69.08-46.11 0.02 0 0.02 0 0.02 0.02-23.03 15.33-46.07 30.63-68.87 46.27-0.08-0.06-0.13-0.1-0.23-0.18"/>
    <path d="m4267.9 931.5c-143.01 49.426-283.63 107.63-421.54 174.46-1.1-0.39-2.13-0.82-3.21-1.24 131.16-64.16 264.95-120.32 401.1-168.32 7.89-1.598 15.78-3.336 23.65-4.891"/>
    <path d="m2625.9 1949.2c0.04 0.02 0.08 0.07 0.16 0.07-8.64 7.39-17.34 14.66-25.9 22.07 8.56-7.37 17.14-14.78 25.74-22.14"/>
    <path d="m3635.3 1214.3c65.98-37.44 132.74-72.74 200.22-105.91 1.09 0.4 2.2 0.87 3.3 1.31-67.81 33.05-134.96 68.09-201.43 105.23-0.7-0.22-1.4-0.42-2.09-0.63"/>
    <path d="m3409 1352.7c-9.45 6.1-18.77 12.33-28.18 18.49-0.06-0.06-0.12-0.1-0.22-0.13 9.42-6.2 18.81-12.37 28.21-18.49 0.08 0.03 0.15 0.09 0.19 0.13"/>
    <path d="m3153.6 1528.1c43.91-32 88.24-63.42 133.13-94.18 0.11 0.05 0.19 0.11 0.27 0.19-44.71 30.84-88.83 62.43-132.71 94.43-0.22-0.15-0.45-0.3-0.69-0.44"/>
    <path d="m1573.5 2856.7c-10.02 7.95-20.12 15.81-30.18 23.69-6.54 4.94-13.03 9.87-19.61 14.8 75.41-58.74 149.5-118.95 222.47-179.98 0.35-0.06 0.69-0.11 1.03-0.19-57.42 47.84-115.16 95.27-173.71 141.68"/>
    <path d="m2629.7 1946.2c-0.04-0.02-0.08-0.04-0.1-0.04 7.55-6.46 15.2-12.84 22.8-19.26-7.56 6.42-15.14 12.84-22.7 19.3"/>
    <path d="m2784.5 1816c0.14 0.04 0.27 0.11 0.4 0.17-44.45 36.56-88.6 73.48-132.52 110.72 43.78-37.3 87.81-74.28 132.12-110.89"/>
    <path d="m2598.9 1972.4c0.43-0.34 0.84-0.72 1.3-1.06-0.46 0.34-0.87 0.72-1.3 1.06"/>
    <path d="m60.27 3611.2c186.1-32.02 364.7-85.96 536.61-156.64-26.234 11.62-52.613 23-79.172 34.01-147.02 55.01-299.22 97.15-457.43 122.63"/>
    <path d="m2065.4 2440c11.09-9.76 22.17-19.48 33.24-29.26 1.74-0.98 3.49-1.96 5.26-2.92-11.47 10.12-22.9 20.21-34.39 30.28-1.36 0.62-2.73 1.29-4.11 1.9"/>
    <path d="m2115.9 2395.5c122.08-107.72 243.88-215.9 366.72-322.83 0.13 0.09 0.29 0.15 0.41 0.23-121.14 105.98-241.29 213.26-362.02 319.84-1.7 0.95-3.41 1.84-5.11 2.76"/>
    <path d="m2056.7 2447.7c1.34-0.6 2.7-1.21 4.04-1.8-55.88 49.11-111.99 97.93-168.38 146.38-0.36-0.14-0.67-0.28-1.01-0.42 31.97-27.55 63.79-55.16 95.37-82.75 23.35-20.44 46.67-40.92 69.98-61.41"/>
    <path d="m1790.1 2678.3h1.14c-13.13 11.09-26.39 21.98-39.56 32.98-0.34 0.06-0.67 0.14-1.01 0.2 13.18-11.04 26.33-22.09 39.43-33.18"/>
    <path d="m3151.1 1530.9c-28.26 20.65-56.34 41.45-84.29 62.49-0.38-0.19-0.71-0.38-1.12-0.58 27.97-21.12 56.37-41.69 84.69-62.36 0.25 0.15 0.49 0.29 0.72 0.45"/>
    <path d="m3452.2 1325c-9.83 6.24-19.65 12.45-29.44 18.77 4.85-3.08 9.55-6.36 14.4-9.42 5-3.19 10.04-6.23 15.04-9.35"/>
    <path d="m2792.1 1809.7c2.66-2.19 5.27-4.41 7.95-6.59 0.16 0.06 0.27 0.12 0.43 0.19-2.66 2.19-5.34 4.39-8 6.6-0.11-0.07-0.27-0.12-0.38-0.2"/>
    <path d="m3497.7 1295.9c35.44-22.04 71.21-43.3 107.12-64.08 0.47 0.29 0.92 0.57 1.39 0.86-51.76 29.54-103.08 60.24-154 92.24 15.17-9.65 30.17-19.54 45.49-29.02"/>
    <path d="m2598.9 1972.4c-36.26 31.21-72.36 62.6-108.39 94.1-0.12-0.09-0.29-0.15-0.42-0.2 36.17-31.42 72.43-62.74 108.81-93.9"/>
    <path d="m3634 1216.9c-8.1 4.54-16.15 9.2-24.25 13.81-0.47-0.29-0.92-0.59-1.43-0.89 7.87-4.51 15.65-9.15 23.54-13.6 0.7 0.21 1.44 0.44 2.14 0.68"/>
    <path d="m2802.8 1800.8c79.32-65.25 159.69-129.23 241.45-191.43 0.29 0.18 0.6 0.33 0.92 0.51-81.82 62.2-162.43 125.97-241.95 191.11-0.15-0.06-0.29-0.12-0.42-0.19"/>
    <path d="m3412.4 1350.5c-0.04-0.02-0.11-0.08-0.15-0.08 3.49-2.28 7.03-4.45 10.52-6.74-3.49 2.25-6.89 4.56-10.37 6.82"/>
    <path d="m45.891 3613.4c4.7891-0.75 9.6133-1.37 14.379-2.12-4.5507 0.79-9.0703 1.68-13.637 2.41-4.8125 0.81-9.6562 1.53-14.484 2.28-8.7304 1.39-17.484 2.68-26.246 3.98v-0.72c8.4493-1.11 16.863-2.43 25.27-3.69 4.9062-0.71 9.8242-1.41 14.719-2.14"/>
   </g>
   <g fill="#b3b3b3">
    <path d="m1137 2590.3c59.8-42.93 119.4-86.22 178.9-129.74 0.62 0.31 1.23 0.61 1.85 0.93-59.24 43.38-118.61 86.53-178.28 129.22-0.83-0.14-1.63-0.29-2.47-0.41"/>
    <path d="m826.4 2807.9c-150.62 100.88-303.9 197.74-461.75 287.61-114.74 65.32-234.81 128.02-358.75 186.15v-0.2c284.45-133.69 556.09-297.32 818.38-473.38 0.707-0.06 1.422-0.1 2.121-0.18"/>
    <path d="m1122.9 2600.5c0.83 0.13 1.63 0.3 2.41 0.46-32.59 23.27-65.34 46.34-98.11 69.32-0.87 0-1.73 0-2.61-0.02 30.09-21.16 60.1-42.38 89.95-63.75 2.8-1.99 5.57-4.03 8.36-6.01"/>
    <path d="m2134.3 1864.2c42.26-29.65 84.7-59.02 127.31-88.11 0.14 0.06 0.3 0.16 0.45 0.24-42.63 29.08-85.09 58.44-127.36 88.1-0.13-0.1-0.27-0.15-0.4-0.23"/>
    <path d="m2452.2 1649.6c-35.98 23.32-71.87 46.82-107.53 70.66-27.23 18.19-54.25 36.72-81.31 55.19-0.15-0.1-0.3-0.15-0.48-0.24 62.5-42.67 125.48-84.62 188.86-125.86 0.16 0.09 0.32 0.14 0.46 0.25"/>
    <path d="m3403.7 1131c8.67-3.7 17.34-7.4 26.04-11.07 0.37 0.24 0.72 0.49 1.11 0.72-8.73 3.61-17.48 7.09-26.21 10.72-0.31-0.12-0.63-0.22-0.94-0.37"/>
    <path d="m1126 2598.2c2.07-1.46 4.13-2.95 6.2-4.44 0.83 0.13 1.66 0.25 2.46 0.4-2.07 1.51-4.16 3.03-6.26 4.55-0.78-0.18-1.59-0.33-2.4-0.51"/>
    <path d="m3433.2 1118.4c73.19-30.9 147.15-60.18 221.99-87.32 1.72 0.79 3.46 1.66 5.18 2.45-75.8 26.37-151.11 54.94-226 85.64-0.41-0.25-0.78-0.5-1.17-0.77"/>
    <path d="m2004.7 1956.6c-194.17 139.4-385.69 282.82-578.15 424.88-0.59-0.29-1.17-0.57-1.74-0.86 191.25-140.83 382.02-283 575.27-421.43 1.54-0.87 3.06-1.72 4.62-2.59"/>
    <path d="m3097 1274.2c25.34-12.79 50.45-25.84 75.98-38.24 2.07-1 4.18-1.94 6.29-2.97 0.17 0.19 0.37 0.32 0.55 0.51-27.56 13.43-54.98 27.2-82.33 41.07-0.15-0.12-0.31-0.23-0.49-0.37"/>
    <path d="m5520.9 821.74c62.66 7.207 125.23 15.567 187.68 25.383v2.254c-68.46-10.684-136.84-19.609-205.06-26.961 5.74-0.285 11.58-0.422 17.38-0.676"/>
    <path d="m3202.3 1222.8c-0.18-0.17-0.36-0.33-0.55-0.47 43.55-20.78 87.28-40.95 131.19-60.21-43.81 19.64-87.38 39.84-130.64 60.68"/>
    <path d="m3398.5 1133.2c0.31 0.11 0.62 0.26 0.93 0.36-22.2 9.33-44.37 18.8-66.52 28.53 21.8-9.79 43.65-19.42 65.59-28.89"/>
    <path d="m2019.1 1946.4c-1.47 0.82-2.9 1.62-4.36 2.45 36.53-26.11 73.11-52.14 109.87-77.94 0.12 0.12 0.27 0.19 0.41 0.29-35.41 24.88-70.7 49.97-105.92 75.2"/>
    <path d="m2461.5 1642.9c0.76-0.51 1.52-0.97 2.25-1.48 0.2 0.1 0.41 0.19 0.57 0.27-0.76 0.52-1.53 0.98-2.29 1.49-0.18-0.08-0.34-0.18-0.53-0.28"/>
    <path d="m5381.8 807.94c-5.53 0.531-11.04 1.195-16.55 1.781-226.29-17.043-451.25-15.871-674.04 3.164-7.4 0.633-14.84 1.347-22.28 2.019-339.57 30.84-673.95 103.12-1e3 215.75-1.86-0.85-3.68-1.77-5.53-2.62 69.47-25.07 139.63-48.51 210.59-70.061 279.76-84.949 566.17-135.61 854.7-155.74 6.21-0.398 12.44-0.672 18.65-1.062 211-13.731 423.07-11.004 634.5 6.766"/>
    <path d="m857.98 2785.4c54.532-36.92 108.65-74.37 162.4-112.15 0.87 0.02 1.77-0.02 2.64 0-53.989 37.86-108.23 75.29-162.84 112.19-0.731-0.02-1.473-0.04-2.2-0.04"/>
    <path d="m2910.1 1372.5c59.61-32.89 119.98-64.5 180.82-95.32 0.15 0.12 0.31 0.24 0.47 0.38-60.57 30.84-120.63 62.78-180.16 95.66-0.37-0.26-0.76-0.49-1.13-0.72"/>
    <path d="m2467.5 1639c99.86-64.67 200.87-127.52 303.54-187.52 0.4 0.25 0.79 0.5 1.19 0.74-102.75 59.95-204.09 122.51-304.13 187.1-0.21-0.11-0.39-0.2-0.6-0.32"/>
    <path d="m2907 1375.6c-36.23 20.02-72.3 40.31-108.16 61.02-0.27-0.17-0.56-0.33-0.82-0.5 35.8-20.72 71.64-41.25 107.83-61.25 0.37 0.23 0.76 0.47 1.15 0.73"/>
   </g>
   <g>
    <path d="m2607 2585.8c-66.15 50.35-131.84 100.97-197.15 151.5-8.17 6.34-16.37 12.73-24.55 19.11-0.19-0.08-0.37-0.13-0.58-0.16 72.32-56.5 145.03-113.17 218.44-169.4 1.28-0.34 2.57-0.66 3.84-1.05"/>
    <path d="m4331.7 1718.4c-109.1 14.83-218.52 38.07-327.95 70.57-0.57-0.31-1.15-0.64-1.74-0.92 106.27-32.63 212.72-56.32 319.03-71.58 3.57 0.68 7.12 1.27 10.66 1.93"/>
    <path d="m5300.8 1801.3c1.31-0.63 2.62-1.22 3.95-1.84 8.75 2.65 17.52 5.34 26.25 8.12-3.32-0.02-6.64-0.04-9.98-0.08-6.74-2.07-13.48-4.18-20.22-6.2"/>
    <path d="m3436.8 2030.4c-16.8 9.09-33.34 18.62-49.96 27.96-0.98-0.32-1.86-0.66-2.8-0.98 16.74-9.35 33.56-18.56 50.41-27.63 0.78 0.2 1.55 0.44 2.35 0.65"/>
    <path d="m3868.7 1833.4c0.06 0.04 0.16 0.11 0.23 0.15-12.36 4.45-24.66 9.03-36.97 13.65 12.21-4.69 24.47-9.27 36.74-13.8"/>
    <path d="m2606.3 2584.5c135.2-103.51 272.68-205.27 413.74-301.05 1.03 0.29 2.07 0.6 3.1 0.89-140.64 95.38-277.79 196.37-412.74 298.97-1.37 0.35-2.73 0.8-4.1 1.19"/>
    <path d="m3876.2 1830.8c-0.02-0.02-0.02-0.04-0.06-0.04 26.88-9.84 53.81-19.67 81.1-28.69 5.6-1.86 11.23-3.48 16.81-5.29 0.57 0.31 1.14 0.58 1.68 0.87-12.77 3.99-25.54 7.84-38.34 12.09-20.48 6.77-40.86 13.8-61.19 21.06"/>
    <path d="m5261.5 1789.9c0.69-0.85 1.45-1.72 2.13-2.56 13.01 3.72 25.96 7.58 38.95 11.49-1.37 0.61-2.74 1.19-4.06 1.83-12.33-3.69-24.67-7.26-37.02-10.76"/>
    <path d="m3814 1854.4c-6.38 2.5-12.73 5.06-19.08 7.58-0.27-0.05-0.53-0.11-0.8-0.16 7.01-2.77 13.99-5.61 21.04-8.33-0.39 0.33-0.78 0.59-1.16 0.91"/>
    <path d="m792.18 3830.5c-16.946 7.86-33.961 15.65-51.051 23.24 17.051-7.69 34.141-15.3 51.051-23.24"/>
    <path d="m5686.5 1946.6c7.37 3.46 14.73 6.95 22.08 10.47v3.09c-8.64-4.14-17.25-8.21-25.9-12.25 1.25-0.44 2.54-0.87 3.82-1.31"/>
    <path d="m741.13 3853.8c-51.633 23.32-103.64 45.92-156.51 66.91-190.23 75.53-383.75 128.48-578.71 160.66v-3.31c215.29-35.84 428.49-96.19 637.21-181.87 32.977-13.54 65.536-27.91 98.02-42.39"/>
    <path d="m3828.3 1848.6c0.1-0.06 0.18-0.11 0.25-0.17 1.16-0.45 2.27-0.83 3.4-1.27-1.21 0.47-2.44 0.97-3.65 1.44"/>
    <path d="m5479.8 1859.1c68.29 25.85 135.88 54.43 202.72 85.65-1.31 0.41-2.6 0.84-3.91 1.28-67.01-31.21-134.66-59.76-202.89-85.46 1.35-0.48 2.74-0.97 4.08-1.47"/>
    <path d="m4966.9 1722c92.86 14.44 185.02 34.48 276.29 59.68-0.66 0.83-1.38 1.66-2.05 2.46-93.83-25.74-188.53-45.9-283.9-60.18 3.26-0.61 6.42-1.34 9.66-1.96"/>
    <path d="m4333.1 1714.6c72.71-10 145.39-15.89 217.87-18.33 3.4 1.04 6.83 2.22 10.25 3.24-71.93 2.06-144.1 7.8-216.39 17.17-3.94-0.71-7.85-1.35-11.73-2.08"/>
    <path d="m3439.3 2027.1c104.61-56.2 211.62-107.5 321.52-152.18 0.31 0.07 0.6 0.15 0.92 0.21-109.44 45.2-215.98 96.4-320.08 152.62-0.78-0.21-1.56-0.45-2.36-0.65"/>
    <path d="m3382.5 2060.8c-42.69 23.94-85.04 48.53-126.95 73.94-1.15-0.23-2.33-0.41-3.5-0.63 42.15-25.54 84.71-50.27 127.62-74.3 0.94 0.34 1.87 0.66 2.83 0.99"/>
    <path d="m4954.6 1720c-3.55 0.64-7.07 1.24-10.6 1.85-123.15-17.72-247.41-25.54-372.31-22.63-3.73-1.08-7.42-2.14-11.11-3.25 132.18-3.79 263.75 4.49 394.02 24.03"/>
    <path d="m823.94 3815.4c-10.579 5.06-21.149 10.1-31.758 15.06 10.636-4.92 21.179-10.06 31.758-15.06"/>
    <path d="m3027.8 2278.2c72.46-49.04 145.86-96.52 220.41-141.77 1.18 0.21 2.33 0.43 3.48 0.64-74.69 45.39-148.22 92.96-220.8 142.03-1.06-0.3-2.05-0.61-3.09-0.9"/>
    <path d="m881.37 3788.2c-18.973 9.38-38.289 18.18-57.433 27.29 18.558-8.92 36.941-18.09 55.355-27.27 7.578-3.77 15.227-7.38 22.762-11.2 471.98-238.83 896.7-564.68 1313.5-888.66 18.83-14.63 37.7-29.34 56.56-44.07 0.04 0.02 0.07 0.02 0.11 0.04-435.03 338.92-875.48 684.88-1368.9 932.69-7.339 3.67-14.589 7.53-21.945 11.18"/>
    <path d="m5390.6 1830.2c-20.19-6.85-40.44-13.48-60.68-19.84 3.28 0.02 6.6 0.11 9.92 0.11 23.15 7.35 46.19 15.04 69.18 23.04 13.26 4.61 26.51 9.23 39.71 14.07 4.96 1.81 9.9 3.71 14.86 5.56-1.4 0.46-2.81 0.96-4.22 1.45-9.41-3.47-18.77-7.05-28.22-10.41-13.49-4.83-26.99-9.4-40.55-13.98"/>
    <path d="m1794.7 2550.5c-0.77 0.25-1.5 0.52-2.25 0.79-1.93-0.81-3.8-1.68-5.73-2.48 20.14-6.7 40.25-13.56 60.23-20.74-17.36 7.65-34.79 15.09-52.25 22.43"/>
    <path d="m3930.5 1296c-37.46 20.13-74.67 40.7-111.57 61.81-0.17-0.1-0.35-0.22-0.52-0.34 36.35-21.19 73.06-41.77 110.08-61.91 0.66 0.13 1.34 0.31 2.01 0.44"/>
    <path d="m2124.1 2416.8c3.23-2.7 6.44-5.39 9.64-8.11 167.21-79.02 329.32-171.25 488.53-270.06 0.61 0.26 1.2 0.55 1.81 0.8-54.95 34.42-110.17 68.25-166.14 100.86-109 63.48-220.23 122.99-333.84 176.51"/>
    <path d="m5682.5 1209.9c-0.7-0.23-1.43-0.5-2.15-0.76 0.1-0.11 0.18-0.24 0.22-0.34 0.66 0.37 1.29 0.73 1.93 1.1"/>
    <path d="m1400.6 2646.8c-42.64 6.4-85.65 11.17-128.99 14.92 40.82-4.16 81.18-9.63 121.21-15.96 2.59 0.35 5.18 0.69 7.78 1.04"/>
    <path d="m3814.6 1359.7c0.14 0.07 0.29 0.16 0.45 0.25-22.83 13.07-45.47 26.5-68.07 39.89 22.42-13.53 44.96-26.92 67.62-40.14"/>
    <path d="m3631.9 1471c-22.05 13.89-43.94 27.87-65.76 41.87-0.43-0.3-0.88-0.66-1.33-0.96 21.92-13.96 43.93-27.75 65.94-41.46 0.39 0.17 0.78 0.36 1.15 0.55"/>
    <path d="m1484.4 2629.4c42.82-8.53 85.24-18.19 127.25-28.94 1.71 0.74 3.42 1.54 5.14 2.3-40.05 10.19-80.42 19.28-121.08 27.27-3.78-0.15-7.54-0.41-11.31-0.63"/>
    <path d="m5708.5 1226v3.52c-5.61-3.29-11.24-6.47-16.86-9.68 5.62 2.02 11.25 4.09 16.86 6.16"/>
    <path d="m2981 1904.8c0.04 0 0.04 0 0.06 0.02-1.18 0.8-2.39 1.59-3.58 2.39 1.19-0.8 2.38-1.59 3.52-2.41"/>
    <path d="m3356.4 1648.6c37.71-25.34 75.5-50.48 113.49-75.4 0.45 0.38 0.96 0.74 1.47 1.11-37.86 24.79-75.71 49.86-113.48 75.14-0.51-0.27-0.98-0.56-1.48-0.85"/>
    <path d="m3636.4 1468.2c-0.36-0.19-0.73-0.41-1.1-0.57 36.97-23 74.22-45.56 111.66-67.77-37.19 22.46-74 45.29-110.56 68.34"/>
    <path d="m5617.4 1174.2c14.75 7.69 29.4 15.69 43.99 23.8-0.73 1.14-1.45 2.3-2.15 3.42-16.23-8.82-32.66-17.07-49.06-25.35 2.44-0.6 4.82-1.25 7.22-1.87"/>
    <path d="m2815.4 2016c-0.3-0.09-0.61-0.21-0.92-0.3 54.56-35.79 108.83-72.06 162.95-108.54-53.81 36.64-107.8 72.91-162.03 108.84"/>
    <path d="m5530.3 1131.9c28.28 12.86 56.27 26.27 83.89 40.59-2.4 0.62-4.78 1.26-7.21 1.86-27.69-13.93-55.54-27.21-83.71-39.55 2.33-0.99 4.69-1.9 7.03-2.9"/>
    <path d="m4551 1045.7c7.95-1.85 15.91-3.71 23.9-5.49-7.97 1.82-15.95 3.59-23.9 5.49"/>
    <path d="m2988.4 1899.7c6.11-4.14 12.17-8.31 18.28-12.48 0.08 0.04 0.17 0.05 0.23 0.08-6.13 4.15-12.24 8.3-18.38 12.46-0.03-0.04-0.05-0.04-0.13-0.06"/>
    <path d="m4194 1166.8c-4.08 1.27-8.16 2.48-12.22 3.73 112.4-48.96 227.79-89.64 346.25-119.09-114.05 28.92-225.67 68.32-334.03 115.36"/>
    <path d="m3476.8 1570.8c-0.51-0.37-1.02-0.73-1.51-1.1 23.13-15.16 46.41-30.09 69.69-45.03 0.45 0.33 0.86 0.65 1.29 0.96-21.23 13.72-42.4 27.47-63.44 41.2-2.01 1.3-4.02 2.65-6.03 3.97"/>
    <path d="m4528 1051.5c7.65-1.96 15.29-3.93 22.97-5.78-7.68 1.81-15.32 3.84-22.97 5.78"/>
    <path d="m1412.7 2642.7c18.23-3.05 36.35-6.46 54.43-9.93 4.12 0.25 8.22 0.46 12.32 0.68-19.72 3.73-39.59 6.93-59.49 10.11-2.42-0.3-4.84-0.57-7.26-0.86"/>
    <path d="m602.24 2632.6c1.153 0.17 2.336 0.36 3.496 0.56 138.54 22.2 278.43 35.14 418.81 37.07 0.88 0.02 1.74 0.02 2.61 0.02 67.73 0.87 135.59-0.64 203.46-5.06 13.74-0.9 27.33-2.35 40.97-3.53-60.49 6.2-121.79 10.18-184.1 11.32-21.54 0.38-43 0.32-64.47 0.2-0.87-0.02-1.77 0.02-2.64 0-142.94-1.09-284.52-14.03-424.62-36.6-1.196-0.19-2.399-0.4-3.606-0.58-198.69-32.26-394.3-83.93-586.25-149.43v-6.82c19.527 6.69 38.859 13.79 58.469 20.28 175.67 57.79 355.6 103.11 537.87 132.57"/>
    <path d="m4642.7 1026.4c-22.75 4.08-45.33 8.84-67.85 13.8 132.09-29.93 267.17-45.589 404.05-42.019 192.85 5.039 377.48 54.829 550.37 133.27-2.35 0.98-4.67 1.94-7.01 2.9-273.81-119.73-569.67-163.68-879.56-107.95"/>
    <path d="m3355.2 1651.3c-23.06 15.46-46.15 31-69.23 46.57-0.51-0.21-1.1-0.41-1.6-0.62 23.1-15.69 46.24-31.25 69.37-46.8 0.51 0.27 1.02 0.59 1.46 0.85"/>
    <path d="m4102.2 1206.8c4.51-1.49 9.1-2.89 13.63-4.36-62.05 29.25-123.1 60.18-183.34 92.5-0.7-0.16-1.41-0.31-2.09-0.47 56.54-30.76 113.75-60.22 171.8-87.67"/>
    <path d="m3007.9 1886.4c85.39-58.32 170.57-116.99 256.02-175.19 0.48 0.21 0.97 0.43 1.46 0.63-85.6 57.92-171.21 116.49-257.23 174.64-0.07-0.02-0.15-0.06-0.25-0.08"/>
    <path d="m2069.6 2438.1c18.12-8.11 36.16-16.39 54.15-24.83-3.36 2.86-6.74 5.69-10.11 8.5-17.54 8.18-35.16 16.2-52.82 24.08-1.34 0.59-2.7 1.2-4.04 1.8-53.71 23.92-107.99 46.36-162.82 67.12 15.2-7.1 30.32-14.42 45.44-21.75 42.36-16.81 84.41-34.4 126.09-53.02 1.38-0.61 2.75-1.28 4.11-1.9"/>
    <path d="m2664.2 2114.4c-10.44 6.63-20.98 13.07-31.44 19.62-0.63-0.24-1.21-0.49-1.8-0.76 16-9.96 31.97-20.03 47.94-30.14 17.01-10.76 34.02-21.54 51-32.44 26.29-16.91 52.54-33.96 78.73-51.13 0.31 0.12 0.62 0.23 0.93 0.35-30.9 20.45-61.91 40.67-93.01 60.75-17.45 11.28-34.84 22.64-52.35 33.75"/>
    <path d="m3627.8 1677.4c21.66-16.81 43.52-33.38 65.53-49.81 0.24 0.16 0.51 0.35 0.78 0.53-22.13 16.3-44.1 32.84-65.9 49.57-0.13-0.08-0.25-0.16-0.41-0.29"/>
    <path d="m3800.6 1550c0.76 0.33 1.52 0.69 2.32 1.03-30.45 20.68-60.66 41.75-90.51 63.47-0.23-0.15-0.47-0.33-0.7-0.47 16.87-12.49 33.53-25.23 50.64-37.41 12.66-9.04 25.43-17.86 38.25-26.62"/>
    <path d="m2923.4 2239.8c-2.07 1.47-4.12 2.98-6.23 4.46 0-0.02-0.06-0.02-0.1-0.03 2.11-1.47 4.24-2.98 6.33-4.43"/>
    <path d="m4189.5 1336.2c70.96-29.95 144.14-55.34 219.83-75.14 0.13 0.02 0.25 0.03 0.41 0.05-74.85 20.36-147.89 45.64-219.18 75.21-0.34-0.02-0.71-0.09-1.06-0.12"/>
    <path d="m4189.9 1336.7c-28.06 11.66-55.92 23.89-83.42 36.86 27.06-13.08 54.59-25.28 82.31-36.99 0.37 0.05 0.72 0.09 1.11 0.13"/>
    <path d="m5249.3 1233.6c12.54 2.11 25 4.45 37.48 6.7-3.62 0.58-7.23 1.28-10.84 1.86-11.92-2.08-23.83-3.84-35.75-5.77 3.03-0.93 6.06-1.84 9.11-2.79"/>
    <path d="m5247.8 1233.4c-3.06 0.93-6.11 1.89-9.14 2.81-253.47-40.6-510.99-45.46-765.78 9.48-16.74 3.6-33.14 7.92-49.67 12.08-0.17-0.02-0.41-0.09-0.6-0.1 53.65-14.15 108.18-25.84 163.67-34.76 219.73-35.35 442.32-25.92 661.52 10.49"/>
    <path d="m2909.2 2249.8c-6 4.13-11.93 8.33-17.97 12.4 6-4.16 12.03-8.18 17.97-12.4"/>
    <path d="m2891.2 2262.2c-47.61 33.2-95.94 65.54-145.55 96.13-2.83 1.72-5.72 3.3-8.54 5.02-19.06 10.49-38.21 20.8-57.6 30.72-2.31 1.17-4.62 2.29-6.95 3.45-13.03 6.59-26.26 12.89-39.48 19.25-1.7 0.81-3.45 1.56-5.18 2.37 89.59-46.62 177.25-98.72 263.3-156.94"/>
    <path d="m2923.4 2239.8c60.35-43.03 119.37-87.84 177.62-133.7 0.29 0.08 0.58 0.14 0.89 0.22-45.54 35.84-91.46 71.29-138.43 105.32-13.3 9.62-26.7 18.82-40.08 28.16"/>
    <path d="m3805 1546.9c52.85-36.03 106.95-69.76 162.17-101.09 0.45 0.25 0.9 0.49 1.33 0.72-54.91 31.63-108.46 65.78-161.14 101.43-0.78-0.35-1.56-0.72-2.36-1.06"/>
    <path d="m3227.6 2005c-39.79 32.77-79.91 65.12-120.37 97.06-0.3-0.08-0.61-0.14-0.9-0.22 40.54-31.94 80.7-64.34 120.64-97.09 0.22 0.09 0.43 0.19 0.63 0.25"/>
    <path d="m3356.8 1897.3c16.68-13.89 33.36-27.78 50-41.66 24.96-20.79 50.06-41.42 75.27-62.05 0.12 0.04 0.2 0.06 0.27 0.09-43.22 35.56-86.31 71.31-129.25 107.19 1.25-1.18 2.46-2.37 3.71-3.57"/>
    <path d="m3263.1 1975.9c-0.23-0.06-0.46-0.16-0.72-0.22 29.81-24.6 59.53-49.24 89.2-73.97-1.54 1.43-3.1 2.86-4.63 4.29-27.93 23.36-55.84 46.68-83.85 69.9"/>
    <path d="m3261.4 1977.4c-9.75 8.08-19.57 16.01-29.32 24.06-0.21-0.09-0.41-0.17-0.62-0.24 9.72-8 19.51-15.99 29.21-24.03 0.26 0.08 0.47 0.15 0.73 0.21"/>
    <path d="m5610.1 1316.6c32.97 9.47 65.82 19.22 98.42 29.43v2.84c-33.21-10.34-66.59-20.26-100.04-29.77 0.52-0.83 1.07-1.66 1.62-2.5"/>
    <path d="m1770.6 2707.6c10.52-2.05 21.02-3.94 31.56-6.06 11.01-2.22 21.83-4.67 32.78-6.97 1.79 0.69 3.58 1.39 5.35 2.11-24.81 5.15-49.66 10.08-74.57 14.81 1.65-1.3 3.26-2.59 4.88-3.89"/>
    <path d="m2633.1 2416.7c13.26-6.24 26.36-12.77 39.48-19.25 2.29-1.16 4.65-2.27 6.95-3.45 14.17-7.08 28.28-14.32 42.3-21.69-211.18 126.41-441.02 214.14-678.42 276.86-2.37-0.84-4.76-1.7-7.13-2.55 206.2-55.63 401.49-128.87 588.45-225.85 2.8-1.33 5.57-2.73 8.37-4.07"/>
    <path d="m3536.8 1749.4c-12.07 9.74-24.09 19.57-36.08 29.4-0.12-0.02-0.15-0.04-0.25-0.08 12.07-9.8 24.16-19.6 36.29-29.33 0.04 0 0.04 0.01 0.04 0.01"/>
    <path d="m3538.7 1747.8c27.7-22.38 55.69-44.39 83.81-66.28 0.14 0.08 0.23 0.18 0.37 0.25-28.28 21.76-56.33 43.74-84.18 66.03"/>
    <path d="m3972.5 1444.3c-0.41-0.24-0.82-0.47-1.23-0.68 44.34-25.01 89.36-48.51 135.23-70.1-45.5 21.9-90.11 45.62-134 70.78"/>
    <path d="m1751.7 2711.3c4.06-0.79 8.16-1.58 12.21-2.35-1.59 1.27-3.19 2.57-4.77 3.86-3.98 0.74-7.96 1.5-11.93 2.22-0.34 0.08-0.68 0.13-1.03 0.19-92.79 17.23-185.99 31.83-278.94 44.3-170.77 22.91-340.35 33.67-508.69 33.78 16.18-2.18 32.309-4.69 48.44-7.14 246.57-3 494.71-27.47 743.7-74.66 0.34-0.06 0.67-0.14 1.01-0.2"/>
    <path d="m256.78 2729.9c199.01 32.27 399.53 50.88 601.2 55.46 0.727 0 1.469 0.02 2.2 0.04 2.925 0.06 5.867 0.14 8.797 0.2-19.114 1.81-38.219 3.66-57.356 5.13-189.53-6.87-377.34-27.19-563.38-59.11-3.051-0.56-6.133-1.1-9.191-1.63-78.047-13.54-155.78-29.18-233.15-46.73v-1.32c80.137 17.64 160.54 33.11 241.21 46.37 3.242 0.53 6.446 1.09 9.672 1.59"/>
    <path d="m5444.3 1276.5c-53.22-12.4-106.68-23.27-160.31-32.79 3.65-0.6 7.32-1.28 11.01-1.9 56.15 10.34 112.03 22.31 167.58 35.73 3.65 0.91 7.28 1.68 10.96 2.61 38.79 9.52 77.32 19.79 115.72 30.57-0.57 0.89-1.15 1.8-1.74 2.68-44.45-12.35-89.08-24.01-133.94-34.61-3.09-0.74-6.18-1.57-9.28-2.29"/>
    <path d="m4014.4 1312c-40.68 28.35-80.46 58.22-119.61 89.38-1.73-0.97-3.45-1.95-5.21-2.93 37.93-30.6 76.7-59.97 116.33-87.87 2.81 0.52 5.66 0.92 8.49 1.42"/>
    <path d="m5493.8 1146.9c32.73 9.98 65.25 20.43 97.58 31.3-3.87 0.96-7.78 1.81-11.62 2.76-31.61-10.49-63.36-20.6-95.3-30.2 3.13-1.27 6.23-2.61 9.34-3.86"/>
    <path d="m3747.2 1526.4c-23.56 21.05-46.98 42.41-70.28 64.02-0.84-0.55-1.7-1.16-2.55-1.72 22.73-21.61 45.64-43.01 68.86-64.15 1.31 0.58 2.62 1.23 3.97 1.85"/>
    <path d="m3601.3 1659.3c11.74-11.47 23.51-23.01 35.29-34.42 7.17-6.93 14.4-13.79 21.58-20.68 0.82 0.53 1.57 1.07 2.33 1.59-19.3 18.04-38.56 36.2-57.76 54.51-0.5-0.32-0.95-0.66-1.44-1"/>
    <path d="m2930.2 2248.4c-1.25-0.39-2.48-0.77-3.7-1.16 64.22-43.41 126.7-89.67 187.58-138.31 1.15 0.24 2.29 0.49 3.46 0.75-23.28 18.88-46.72 37.55-70.63 55.68-38.28 29-77.2 56.63-116.71 83.04"/>
    <path d="m1596.4 2637.2c4.22-1.51 8.42-3.05 12.64-4.57 24.79 0.06 49.59-0.22 74.38-0.82 3.49 1.52 6.97 3.04 10.46 4.55-32.54 0.86-65.02 1.17-97.48 0.84"/>
    <path d="m5595.6 1179.6c21.29 7.17 42.46 14.52 63.53 22.02-1.11 1.77-2.24 3.56-3.34 5.36-23.81-8.44-47.69-16.65-71.7-24.63 3.85-0.93 7.7-1.81 11.51-2.75"/>
    <path d="m4304.6 1147.7c-43.63 18.85-86 39.89-127.4 62.67-2.78-0.68-5.55-1.45-8.34-2.14 34.94-19.2 70.72-36.81 107.19-53.06 9.47-2.52 19.02-5.02 28.55-7.47"/>
    <path d="m4404.9 1109c-11.83 2.81-23.59 5.73-35.37 8.66 54.49-19.38 110.8-34.97 169.08-46.41-45.86 10.37-90.41 22.98-133.71 37.75"/>
    <path d="m5093.2 1061.3c-23.9-3.17-47.75-5.53-71.68-7.53-154.68-16.19-310.56-14.16-465.56 13.76-5.86 1.06-11.51 2.54-17.31 3.67 73.36-16.58 150.22-27.43 231.29-31.18 244.08-11.28 487.66 34.89 722.87 106.53-3.12 1.26-6.21 2.63-9.31 3.87-90.98-27.38-183.19-50.81-276.12-68.73-37.67-8.34-75.7-15.31-114.18-20.39"/>
    <path d="m3519.4 1740.4c-11.38 10.99-22.75 22-34.14 33.04-0.09-0.04-0.23-0.11-0.35-0.15 11.29-11.06 22.6-22.11 33.87-33.21 0.19 0.12 0.41 0.23 0.62 0.32"/>
    <path d="m3468.6 1789.2c0.12 0.02 0.14 0.04 0.26 0.06-10 9.67-20 19.32-30 29.01 9.94-9.69 19.84-19.37 29.74-29.07"/>
    <path d="m3747.2 1520.9c45.35-41.25 91.62-81.49 139.18-119.91 1.72 1 3.43 1.95 5.13 2.94-47.56 37.98-94.25 77.71-140.29 118.79-1.33-0.62-2.68-1.23-4.02-1.82"/>
    <path d="m4007.1 1309.7c49.82-35.05 101.13-67.6 154.06-97.12 2.64 0.68 5.29 1.43 7.93 2.09-52.79 29.41-103.9 61.89-153.75 96.62-2.75-0.51-5.51-1.09-8.24-1.59"/>
    <path d="m3347 1906c1.53-1.43 3.09-2.86 4.63-4.29 5.22-4.95 10.51-9.8 15.74-14.76 23.97-22.81 47.78-45.72 71.53-68.63-27.19 26.49-54.53 52.89-82.07 79.04-1.25 1.2-2.46 2.39-3.71 3.57-27.43 26.02-55.08 51.73-83.01 77.15-0.39-0.12-0.78-0.23-1.19-0.36 26.29-23.55 52.32-47.47 78.08-71.72"/>
    <path d="m3268.4 1979.6c-9.24 8.42-18.65 16.62-27.97 24.96-0.41-0.17-0.82-0.31-1.21-0.46 9.37-8.25 18.71-16.53 28.03-24.88 0.37 0.15 0.76 0.25 1.15 0.38"/>
    <path d="m5677 1214.5c1.14-1.79 2.27-3.6 3.4-5.39 0.72 0.26 1.45 0.53 2.15 0.76 8.71 3.17 17.34 6.45 26.04 9.63v6.53c-5.61-2.07-11.24-4.14-16.86-6.16-4.9-1.79-9.82-3.61-14.73-5.37"/>
    <path d="m3236.2 2008.3c-37.28 33.21-74.98 65.91-113.71 97.44-1.13-0.24-2.25-0.53-3.4-0.78 39.24-31.48 77.81-63.91 115.82-97.16 0.43 0.17 0.86 0.36 1.29 0.5"/>
    <path d="m3520.5 1738.4c25.35-24.9 50.7-49.75 76.09-74.53 0.47 0.29 0.92 0.6 1.39 0.92-25.65 24.5-51.25 49.19-76.86 73.94-0.21-0.13-0.41-0.21-0.62-0.33"/>
    <path d="m2035 2599.4c93.97-15.2 187.2-35.49 279.15-61.29 18.75-5.28 37.22-11.11 55.69-16.91-101.16 33.03-205.1 59.34-311.89 78.43-9.89 1.76-19.8 3.2-29.7 4.87-0.6 0.07-1.19 0.17-1.8 0.29-24.45 4.04-48.91 7.67-73.39 10.93-2.95-1.15-5.89-2.28-8.85-3.44 29.74-3.69 59.43-7.88 89.04-12.63 0.59-0.1 1.15-0.18 1.75-0.25"/>
    <path d="m868.75 2533c88.531 22.51 177.95 41.68 268.29 57.31 0.84 0.12 1.64 0.27 2.47 0.41 29 5 58.09 9.77 87.29 13.97 85.49 12.36 171.48 20.56 257.62 24.76 3.77 0.22 7.53 0.48 11.31 0.63 27.65 1.27 55.32 2.01 82.99 2.42-4.13 1.39-8.23 2.9-12.38 4.28-29-0.61-57.95-1.77-86.89-3.33-4.1-0.22-8.2-0.43-12.32-0.68-111.4-6.42-222.33-19.61-332.5-38.55-0.8-0.15-1.63-0.27-2.46-0.4-90.61-15.67-180.65-35.19-270.04-58.1-0.145-0.07-0.332-0.11-0.477-0.14-294.76-75.68-581.99-187.98-855.75-318.4v-5.32c277.81 133.34 565 245.45 862.28 320.99 0.172 0.06 0.375 0.12 0.57 0.15"/>
    <path d="m2672.6 2397.5c2.33-1.16 4.64-2.28 6.95-3.45-2.3 1.18-4.66 2.29-6.95 3.45"/>
    <path d="m2633.1 2416.7c-2.8 1.34-5.57 2.74-8.37 4.07-81.91 38.97-166.75 72.7-254.81 100.38 88.23-28.8 174.27-62.83 258-102.08 1.73-0.81 3.48-1.56 5.18-2.37"/>
    <path d="m2633.1 2416.7c13.22-6.36 26.45-12.66 39.48-19.25-13.12 6.48-26.22 13.01-39.48 19.25"/>
    <path d="m2679.5 2394c19.39-9.92 38.54-20.23 57.6-30.72 62.05-34.08 122.35-71.19 181.24-110.63 1.21 0.39 2.4 0.73 3.57 1.13-65.01 43.08-131.76 82.54-200.11 118.53-14.02 7.37-28.13 14.61-42.3 21.69"/>
   </g>
   <g fill="#a00000">
    <path d="m4181.8 1170.6c4.06-1.25 8.14-2.46 12.22-3.73 14.65-4.44 29.24-9.04 43.97-13.37 43.59-12.9 87.46-24.83 131.58-35.83 11.78-2.93 23.54-5.85 35.37-8.66 202.27-47.79 409.1-72.66 616.58-55.18 23.93 2 47.78 4.36 71.68 7.53 38.48 5.08 76.51 12.05 114.18 20.39 85.82 19.02 169.61 45.85 251.41 78.33-13.91 5.41-27.81 10.89-41.78 16.1-86.79-33.38-175.95-60.94-268.06-80.3-242.64-51.01-491.64-27.4-731.7 24.87-38.03 8.3-75.47 17.42-112.64 26.95-9.53 2.45-19.08 4.95-28.55 7.47-49.52 13.17-98.29 27.5-146.43 42.89-6.33-1.69-12.75-3.23-19.08-4.98 0.29-0.08 0.58-0.17 0.84-0.26 23.38-7.58 46.83-14.98 70.41-22.22"/>
    <path d="m3561.2 1430.2c65.1-37.89 131.52-71.81 199.06-102.75 4.59 2.75 9.18 5.52 13.83 8.29-67.99 31.18-134.78 64.91-200.82 100.73-4.04-2.08-8.05-4.22-12.07-6.27"/>
    <path d="m2933.8 1856.8c34.24-24.82 68.44-49.65 102.63-74.45 49.01-35.53 98.19-70.85 147.64-105.81 0.57 0.28 1.15 0.52 1.74 0.8-84.47 59.09-168.14 119.3-251.7 179.59-0.12-0.03-0.18-0.07-0.31-0.13"/>
    <path d="m3411.5 1522.2c23.38-15.08 46.9-29.93 70.55-44.59 2.5 1.91 5.02 3.79 7.56 5.68-24.3 14.04-48.5 28.35-72.66 43.01-1.79-1.38-3.63-2.73-5.45-4.1"/>
    <path d="m2910.7 1873.8c-54.53 39.38-109.15 78.61-163.85 117.67-0.02-0.02-0.07-0.06-0.11-0.06 54.79-38.97 109.34-78.29 163.75-117.7 0.06 0.06 0.14 0.08 0.21 0.09"/>
    <path d="m3284.5 1610.4c-26.01 17.17-51.87 34.66-77.71 52.55-0.71-0.3-1.39-0.6-2.05-0.94 25.52-17.89 51.09-35.72 76.81-53.31 0.98 0.57 1.98 1.11 2.95 1.7"/>
    <path d="m3284.4 1606.6c40.12-27.42 80.59-54.37 121.39-80.76 1.74 1.31 3.52 2.59 5.27 3.89-41.46 25.27-82.63 51.57-123.63 78.63-1-0.61-1.99-1.17-3.03-1.76"/>
    <path d="m5459.8 1160.5c24.93 9.87 49.61 20.39 74.16 31.26-16.85 3.86-33.75 7.57-50.68 11.23-21.6-9.16-43.34-17.99-65.25-26.43 13.94-5.21 27.87-10.62 41.77-16.06"/>
    <path d="m3887.7 1286.5c-36.72 15.18-73.21 30.82-109.28 47.33-4.65-2.78-9.24-5.54-13.93-8.31 33.5-15.27 67.21-29.95 101.23-43.83 7.33 1.7 14.65 3.18 21.98 4.81"/>
    <path d="m2216.6 2339c120.51-70 237.79-145.55 353.14-224.1 0.28 0.12 0.59 0.25 0.88 0.41-120.58 83-243.36 162.8-369.94 237.09 5.3-4.46 10.61-8.92 15.92-13.4"/>
    <path d="m5537.8 1193.5c32.83 14.58 65.33 29.93 97.52 45.93-5.51 8.7-11.11 17.36-16.68 26.02-43.26-21.49-86.99-41.8-131.29-60.7 16.84-3.69 33.65-7.37 50.45-11.25"/>
    <path d="m2578.3 2109c54.77-37.42 109.13-75.44 163.2-113.84 0.05 0 0.08 0 0.14 0.02-53.91 38.47-108.02 76.61-162.5 114.21-0.29-0.15-0.56-0.28-0.84-0.39"/>
    <path d="m2917.8 1868.5c4.77-3.46 9.52-6.94 14.28-10.4 0.1 0.07 0.22 0.09 0.29 0.13-4.78 3.46-9.55 6.91-14.35 10.36-0.1-0.04-0.16-0.05-0.22-0.09"/>
    <path d="m3556.8 1432.7c3.98 2.08 7.93 4.17 11.93 6.27-19.55 10.63-39 21.5-58.44 32.52-2.71-2.04-5.49-4.03-8.22-6.1 14.04-8.56 28.09-17.23 42.23-25.62 4.12-2.46 8.34-4.63 12.5-7.07"/>
    <path d="m104.81 2756.3c102.64 19.22 207.2 32.51 313.99 38.47 131.59 7.41 262.72 5.82 392.82-4.05 19.137-1.47 38.242-3.32 57.356-5.13 213.68-20.34 424.28-63.3 629.38-127.05 5.29-1.66 10.61-3.33 15.89-5 17.37-5.51 34.79-11 52.09-16.8 4.15-1.38 8.25-2.89 12.38-4.28 19.71-6.72 39.42-13.42 59.02-20.49 4.28 1.88 8.57 3.69 12.85 5.56-13.78 5.2-27.68 10.09-41.51 15.09-4.22 1.52-8.42 3.06-12.64 4.57-18.25 6.51-36.52 12.85-54.88 19.02-5.35 1.8-10.68 3.54-16.05 5.31-168.72 55.91-341.82 97.91-518.5 124.61-16.131 2.45-32.26 4.96-48.44 7.14-43.828 5.89-87.929 10.67-132.17 14.66-0.699 0.08-1.414 0.12-2.121 0.18-19 1.71-37.972 3.55-57.054 4.9-250.33 17.59-497.29 1.39-738.61-47-1.4571-0.31-2.9453-0.62-4.4102-0.92-6.0937-1.25-12.207-2.52-18.301-3.8v-25.45c30.465 6.97 61.148 13.28 91.973 19.14 2.313 0.42 4.629 0.88 6.937 1.32"/>
    <path d="m4102.2 1206.8c-22.27 7.36-44.4 15.03-66.41 22.83-29.18 10.38-58.14 21.1-86.93 32.29-19.77 7.7-39.47 15.66-59.06 23.74-7.09-1.66-14.16-3.43-21.27-5.11 54.39-22.12 109.49-42.6 165.21-61.84 21.95-7.59 44-14.98 66.13-22.21 6.25 1.72 12.52 3.36 18.77 5.02-0.93 0.32-1.87 0.6-2.81 0.92-4.53 1.47-9.12 2.87-13.63 4.36"/>
    <path d="m1847 2528c21.47-9.46 42.94-18.85 64.24-28.78 69.54-32.35 137.65-67.14 204.74-103.71 1.7-0.92 3.41-1.81 5.11-2.76 27.46-15.01 54.75-30.24 81.84-45.85-5.62 4.72-11.24 9.43-16.84 14.12-11.28 6.59-22.3 13.5-33.64 19.97-16.05 9.16-32.28 17.93-48.46 26.84-1.77 0.96-3.52 1.94-5.26 2.92-52.54 28.81-105.66 56.23-159.33 82.28-15.12 7.33-30.24 14.65-45.44 21.75-30.09 14.08-60.36 27.64-90.81 40.83-3.5-1.47-6.99-2.85-10.48-4.33 0.71-0.27 1.38-0.56 2.08-0.85 17.46-7.34 34.89-14.78 52.25-22.43"/>
    <path d="m5681.1 1297.4c-14.41-7.59-28.94-15.09-43.45-22.45 5.68-8.65 11.46-17.24 17.09-25.89 18.02 9.13 35.93 18.5 53.79 27.99v34.98c-7.25-3.89-14.5-7.84-21.76-11.69-1.88-0.99-3.79-1.96-5.67-2.94"/>
   </g>
   <g>
    <path d="m3204 1558.9c-0.03-0.06-0.09-0.08-0.15-0.1 43.24-29.86 86.85-59.15 130.8-87.86 0.25 0.18 0.51 0.38 0.78 0.56-1.7 1.1-3.38 2.15-5.06 3.21-42.54 27.51-84.63 55.64-126.37 84.19"/>
    <path d="m3724.1 1244.7c-16.6 8.61-33.14 17.42-49.63 26.26-1.05-0.64-2.09-1.27-3.12-1.89 15.99-8.75 32.17-17.22 48.32-25.74 1.46 0.42 2.95 0.95 4.43 1.37"/>
    <path d="m2827.8 1836.1c-3.57 2.74-7.15 5.48-10.69 8.25-49.53 38.7-98.76 77.99-147.76 117.62-0.48-0.19-0.97-0.39-1.43-0.58 52.58-42.37 105.4-84.41 158.7-125.86 0.39 0.19 0.77 0.37 1.18 0.57"/>
    <path d="m3723.3 1241.4c66.45-35.01 133.89-68.32 202.4-99.57 2.19 0.77 4.42 1.5 6.62 2.27-69.12 30.82-137.34 63.81-204.57 98.68-1.46-0.48-2.95-0.96-4.45-1.38"/>
    <path d="m2834.5 1829.5c3.24-2.52 6.56-4.98 9.8-7.5 0.36 0.17 0.72 0.31 1.09 0.47-3.25 2.52-6.53 5.02-9.78 7.56-0.38-0.17-0.73-0.35-1.11-0.53"/>
    <path d="m3471 1386.9c-13.28 8-26.45 16.13-39.69 24.23-0.43-0.34-0.9-0.69-1.37-1.05 13.05-8.13 26.21-16.09 39.36-24.1 0.56 0.29 1.11 0.61 1.7 0.92"/>
    <path d="m3200.7 1561.1c-27.93 19.14-55.49 38.84-83.12 58.43-0.06-0.04-0.1-0.06-0.14-0.07 27.56-19.71 55.33-39.14 83.18-58.41 0.02 0.02 0.04 0.05 0.08 0.05"/>
    <path d="m2846.9 1820c81.78-63.2 164.53-125.06 248.69-185.12 0.06 0.03 0.12 0.05 0.2 0.11-83.75 60.23-166.27 122.25-247.83 185.47-0.37-0.15-0.71-0.3-1.06-0.46"/>
    <path d="m3473.1 1383.6c64-38.99 128.73-76.71 194.45-112.6 1.05 0.63 2.11 1.26 3.14 1.9-66.21 35.58-131.46 72.92-195.82 111.66-0.58-0.32-1.17-0.64-1.77-0.96"/>
    <path d="m5069.4 873.27c-39.86 1.718-79.72 3.964-119.53 7.199-10.6 0.847-21.21 2.004-31.81 3-6.33 0.554-12.62 1.16-18.95 1.777-152.03 14.805-303.3 40.547-453.14 78.492-173.66 44.012-342.09 104.26-505.35 176.61-2.21-0.75-4.4-1.46-6.63-2.24 49.95-22.64 100.36-44.38 151.49-64.77 241.87-96.504 492.03-159.44 745.88-191.31 8.42-1.086 16.83-1.765 25.23-2.781 54.75-6.43 109.67-11.359 164.71-14.941 45.7-2.961 91.5-5.313 137.32-6.36 182.99-4.133 366.86 7.031 549.93 32.578v16.184c-212.62-30.899-426.29-42.68-639.15-33.441"/>
    <path d="m2520.8 2081.5c47.5-39.18 95.17-78.14 143.12-116.8 0.44 0.18 0.93 0.4 1.41 0.59-47.78 38.67-95.39 77.72-142.83 117.05-0.56-0.29-1.13-0.55-1.7-0.84"/>
    <path d="m3339.9 1467.5c23.26-15.15 46.62-30.01 70.06-44.76 0.39 0.29 0.78 0.6 1.17 0.9-23.57 14.68-47.05 29.48-70.37 44.5-0.27-0.21-0.57-0.42-0.86-0.64"/>
    <path d="m91.633 3632.4c145.24-37.5 287.83-86.38 426.07-143.77 26.559-11.01 52.938-22.39 79.172-34.01 43.531-19.26 86.656-39.2 129.2-59.92 154.92-75.48 303.46-160.86 447.46-253.23-155.56 100.63-317.59 193.18-484.78 273.52-29.059 13.94-58.192 27.67-87.516 40.86-163.03 73.3-330.69 134.32-501.73 179.7-4.1328 1.1-8.2031 2.3-12.34 3.35-27.016 7.06-54.098 13.76-81.266 19.98v-5.81c24.488-5.47 48.879-11.26 73.203-17.44 4.1718-1.07 8.3398-2.16 12.527-3.23"/>
    <path d="m2123.7 2413.3c20.79-17.4 41.56-34.79 62.34-52.26 5.6-4.69 11.22-9.4 16.84-14.12 103.18-86.66 206.35-173.3 310.2-259.06 0.57 0.28 1.15 0.56 1.75 0.83-99.73 82.74-198.92 166.51-298.22 250.26-5.31 4.48-10.62 8.94-15.92 13.4-22.31 18.81-44.62 37.58-66.95 56.35-3.2 2.72-6.41 5.41-9.64 8.11-72.25 60.7-144.71 121.11-217.65 180.88-1.15-0.47-2.32-0.88-3.5-1.33 70.55-57.78 140.71-116.01 210.64-174.56 3.37-2.81 6.75-5.64 10.11-8.5"/>
    <path d="m1765.7 2711.5c-107.2 85.47-215.85 168.86-326.75 248.83-2.51 1.81-5 3.65-7.51 5.46-84.52 60.78-170.41 119.49-257.95 175.64 61.13-39.54 121.35-80.23 180.39-122.01 57.31-40.53 113.75-82.19 169.81-124.28 6.58-4.93 13.07-9.86 19.61-14.8 72.71-54.86 144.61-110.76 215.82-167.59 1.58-1.29 3.18-2.59 4.77-3.86 11.87-9.47 23.69-18.98 35.5-28.51 1.16 0.49 2.29 0.97 3.45 1.45-10.73 8.62-21.5 17.16-32.26 25.78-1.62 1.3-3.23 2.59-4.88 3.89"/>
   </g>
   <g fill="#8c0000">
    <path d="m5221.2 1837.9c-27.26 32.38-54.96 64.36-83.05 95.98-10.68 1.8-21.34 3.78-32.09 5.5 24.98-27.35 49.63-55.06 73.93-83.12 13.79-6.05 27.5-12.17 41.21-18.36"/>
    <path d="m5224.2 1808.2c7.07 0.28 14.14 0.62 21.25 0.83-1.27 1.51-2.54 3-3.79 4.5-5.78 7-11.66 13.95-17.52 20.91-13.38 5.91-26.89 11.63-40.31 17.45 11.09-12.86 22.34-25.67 33.34-38.69 2.32-1.63 4.69-3.34 7.03-5"/>
    <path d="m4984.3 2098.7c-8.83-1-17.66-2.1-26.47-3.19 10.67-0.58 21.33-1.55 31.97-2.3-1.83 1.87-3.69 3.66-5.5 5.49"/>
    <path d="m1315.2 2324.5c0.57 0.27 1.16 0.6 1.73 0.89 35.81 18.73 71.8 37.11 107.93 55.25 0.57 0.29 1.15 0.57 1.74 0.86 118.57 59.55 238.64 115.77 360.17 167.27 1.93 0.8 3.8 1.67 5.73 2.48 0.06 0.02 0.13 0.04 0.17 0.06 3.49 1.48 6.98 2.86 10.48 4.33 29.36 12.31 58.78 24.47 88.28 36.21 0.34 0.14 0.65 0.28 1.01 0.42 3.51 1.4 7.04 2.71 10.56 4.1 1.18 0.45 2.35 0.86 3.5 1.33 12.57 4.99 25.2 9.72 37.8 14.56 2.96 1.16 5.9 2.29 8.85 3.44 12.96 4.96 25.84 10.12 38.85 14.96 0.33 0.14 0.68 0.26 1.02 0.39 14.37 5.36 28.83 10.37 43.27 15.6 2.37 0.85 4.76 1.71 7.13 2.55 17.66 6.37 35.24 12.89 52.91 19 2.62 0.91 5.23 1.7 7.83 2.6 92.82 31.94 186.38 60.5 280.57 85.49 0.21 0.03 0.39 0.08 0.58 0.16 139.4 36.91 280.26 65.67 422.43 84.56 0.58 0.1 1.19 0.17 1.77 0.28 179.53 23.75 361.1 31.91 544.4 20.75 561.03-34.16 1035.1-271.47 1435.2-614 9.01-1.04 17.99-2.26 26.98-3.38 6.38-0.77 12.79-1.37 19.23-2.19-106.15 97.19-217.26 188.48-334.27 271.74-438.93 312.35-957.8 471.79-1496.4 451.75-100.72-3.75-200.84-13.39-300.2-27.89-0.39-0.05-0.8-0.12-1.21-0.18-145.43-21.27-289.19-53.45-430.96-93.6-0.04-0.02-0.07-0.02-0.11-0.04-131.61-37.29-261.46-81.54-389.23-130.87-0.54-0.22-1.08-0.43-1.63-0.62-13.68-5.29-27.31-10.67-40.94-16.04-1.77-0.72-3.56-1.42-5.35-2.11-10.71-4.28-21.42-8.42-32.08-12.75-1.16-0.48-2.29-0.96-3.45-1.45-1.69-0.66-3.36-1.37-5-2.05-5.75-2.32-11.43-4.75-17.14-7.1-27.9-11.44-55.7-23.06-83.37-34.91-3.49-1.51-6.97-3.03-10.46-4.55-11-4.75-21.93-9.48-32.87-14.27-4.28-1.87-8.57-3.68-12.85-5.56-6.98-3.06-13.97-6.11-20.93-9.2-1.72-0.76-3.43-1.56-5.14-2.3-58.79-26.21-117.1-53.13-174.83-80.74-39.86-19.05-79.53-38.54-119.05-58.27-0.62-0.32-1.23-0.62-1.85-0.93-45.14-22.52-89.99-45.56-134.72-68.89-0.42-0.23-0.84-0.46-1.29-0.68-403.87-210.9-791.47-452.99-1174-700.42v-158.05c64.336 41.8 128.74 83.44 193.34 124.8 351.4 225.05 724.98 462.67 1115.9 667.21"/>
    <path d="m5247.8 1806.2c-6.58-0.19-13.14-0.54-19.67-0.81 16.53-11.59 33.03-23.27 49.4-35.07-4.63 5.7-9.28 11.38-13.95 17.06-0.68 0.84-1.44 1.71-2.13 2.56-4.51 5.49-9.14 10.79-13.65 16.26"/>
    <path d="m5089.6 1957.4c10.76-1.72 21.52-3.43 32.28-5.28-39.49 43.94-79.55 87.34-120.68 129.61-11.39 0.72-22.75 1.47-34.14 2.03 41.7-41.11 82.58-83.2 122.54-126.36"/>
    <path d="m5704 1129c1.14-1.82 2.21-3.66 3.34-5.46 0.41-0.65 0.8-1.31 1.2-1.97v26.04c-6.37 1.76-12.7 3.61-19.07 5.35 4.89-7.98 9.67-15.97 14.53-23.96"/>
    <path d="m4885.4 2162c12.89-1.01 25.82-2.23 38.73-3.34-15.96 15.57-32.2 30.8-48.44 46.11-10.46-1.78-20.91-3.6-31.38-5.45 13.77-12.35 27.5-24.75 41.09-37.32"/>
    <path d="m4886.4 2161c18.24-16.91 36.5-33.82 54.43-51.17 9.55 1.18 19.06 2.52 28.63 3.58-14.78 14.89-29.53 29.77-44.57 44.39-12.81 1.21-25.68 2.14-38.49 3.2"/>
    <path d="m4842.6 2200.8c10.45 1.86 20.96 3.73 31.42 5.49-12.69 11.95-25.37 23.87-38.22 35.64-6.58 0.88-13.18 1.86-19.76 2.69-8.81 1.04-17.62 1.94-26.41 2.9 17.85-15.29 35.43-31.01 52.97-46.72"/>
    <path d="m5223.5 1808.1c-1.72 1.18-3.42 2.37-5.16 3.55 0.35-0.36 0.64-0.74 0.96-1.1 0.7-0.87 1.36-1.7 2.09-2.53 0.7 0 1.38 0.04 2.11 0.08"/>
    <path d="m5227.5 1805.3c-1.25-0.04-2.52-0.1-3.77-0.14 0.2-0.2 0.33-0.42 0.51-0.61 5.68-6.76 11.25-13.61 16.89-20.42 0.67-0.8 1.39-1.63 2.05-2.46 54.83-66.18 108.03-133.86 159.34-203.01 12.28-5.74 24.53-11.49 36.68-17.5-51.99 70.7-105.68 140.19-161 208.3-16.79 12.04-33.73 23.99-50.7 35.84"/>
    <path d="m5680.4 1209.1c-1.13 1.79-2.26 3.6-3.4 5.39-7.4 11.52-14.76 23.03-22.2 34.5-5.63 8.65-11.41 17.24-17.09 25.89-3.56 5.39-7.11 10.79-10.67 16.2-0.41 0.59-0.86 1.2-1.23 1.84-5.21 7.88-10.39 15.78-15.64 23.67-0.55 0.84-1.1 1.67-1.62 2.5-53.93 80.84-109.54 160.79-167.25 239.31-12.09 5.85-24.22 11.55-36.43 17.17 63.54-85.71 124.32-173.39 182.66-262.24 0.59-0.88 1.17-1.79 1.74-2.68 4.39-6.68 8.73-13.38 13.05-20.08 0.5-0.74 0.97-1.47 1.44-2.19 5-7.71 10.02-15.32 14.98-23 5.57-8.66 11.17-17.32 16.68-26.02 6.84-10.77 13.58-21.59 20.37-32.38 1.1-1.8 2.23-3.59 3.34-5.36 0.06-0.11 0.1-0.17 0.18-0.26 0.7-1.12 1.42-2.28 2.15-3.42 8.79-14.03 17.63-28.08 26.3-42.15 6.96-1.87 13.87-3.89 20.83-5.81v14.67c-9.3 14.75-18.58 29.43-27.97 44.11-0.04 0.1-0.12 0.23-0.22 0.34"/>
   </g>
   <path d="m3663.4 1028c1.85 0.85 3.67 1.77 5.53 2.62 32.52 15.11 65.35 29.48 98.38 43.37 0.78 0.32 1.56 0.65 2.32 0.97 24.39 10.22 48.89 20.2 73.53 29.73 1.08 0.42 2.11 0.85 3.21 1.24 29.04 11.23 58.26 21.91 87.65 32.15 2.23 0.78 4.42 1.49 6.63 2.24 50.97 17.61 102.46 33.73 154.45 48.29 5.17 1.46 10.29 3.02 15.45 4.41 6.33 1.75 12.75 3.29 19.08 4.98 13.07 3.45 26.13 6.91 39.24 10.17 2.79 0.69 5.56 1.46 8.34 2.14 64.55 15.83 129.82 29.23 195.8 40.05 16.5 2.7 33.05 4.88 49.59 7.24 0.19 0.01 0.43 0.08 0.6 0.1 245.45 34.86 493.56 31.23 738.89 0.46-7.15 1.91-14.3 3.63-21.43 5.52-210.44 25.09-422.98 30.38-635.99 9.12-31.76-3.17-63.36-7.22-94.86-11.69-0.16-0.02-0.28-0.03-0.41-0.05-80.96-11.48-161.12-26.93-240.26-46.41-2.64-0.66-5.29-1.41-7.93-2.09-14.24-3.53-28.4-7.24-42.56-11.05-6.25-1.66-12.52-3.3-18.77-5.02-4.43-1.21-8.82-2.58-13.28-3.81-51.89-14.62-103.32-30.89-154.24-48.64-2.2-0.77-4.43-1.5-6.62-2.27-29.12-10.25-58.1-20.92-86.89-32.1-1.1-0.44-2.21-0.91-3.3-1.31-24.98-9.73-49.79-19.91-74.49-30.34-0.75-0.32-1.51-0.66-2.25-0.96-33.03-13.97-65.86-28.4-98.36-43.55-1.72-0.79-3.46-1.66-5.18-2.45-59.57-27.95-118.35-57.711-176.19-89.281-467.63-255.31-863.56-614.11-1282.6-940.01h14.79c383.75 297.5 747.29 623.03 1165.1 873.54 93.2 55.891 188.98 106.94 287.05 152.7" fill="#4f4f4f"/>
   <path d="m5617.4 1174.2c-2.4 0.62-4.78 1.27-7.22 1.87-4.85 1.23-9.75 2.35-14.65 3.59-3.81 0.94-7.66 1.82-11.51 2.75-15.37 3.76-30.78 7.48-46.19 11.08-16.8 3.88-33.61 7.56-50.45 11.25-63.88 14-128.02 26.42-192.44 37.06-3.69 0.62-7.36 1.3-11.01 1.9-45.67 7.39-91.43 13.74-137.29 19.31 6.48-1.72 12.95-3.54 19.43-5.31 36.7-4.63 73.34-9.69 109.87-15.49 3.61-0.58 7.22-1.28 10.84-1.86 65.86-10.67 131.36-23.26 196.5-37.35 16.93-3.66 33.83-7.37 50.68-11.23 15.3-3.52 30.53-7.11 45.79-10.77 3.84-0.95 7.75-1.8 11.62-2.76 5.19-1.25 10.37-2.56 15.56-3.85 2.43-0.6 4.81-1.24 7.21-1.86 20.76-5.18 41.52-10.39 62.17-15.88 4.39-1.15 8.75-2.48 13.14-3.68 6.37-1.74 12.7-3.59 19.07-5.35v2.42c-6.96 1.92-13.87 3.94-20.83 5.81-23.39 6.33-46.83 12.39-70.29 18.35" fill="#4f4f4f"/>
   <g>
    <path d="m4438.2 2106.6c59.96 16.84 120.24 32.31 180.78 46.49-0.84 0.36-1.64 0.77-2.5 1.11-60.78-14.3-121.25-29.89-181.42-46.87 1.05-0.23 2.09-0.49 3.14-0.73"/>
    <path d="m1521.5 366.65c3.27 0.981 6.53 1.957 9.8 2.942 20.4 14.812 40.82 29.609 61.15 44.512-2.98-0.75-5.99-1.536-8.99-2.278-20.6-15.144-41.31-30.125-61.96-45.176"/>
    <path d="m1470.7 329.61c1.96 0.11 3.93 0.188 5.88 0.274 14.17 10.195 28.27 20.469 42.42 30.73-3.1-0.867-6.19-1.675-9.29-2.547-13.03-9.492-25.98-19.023-39.01-28.457"/>
    <path d="m4619.8 2155c0.82-0.36 1.62-0.74 2.42-1.11 27.36 6.37 54.72 12.45 82.19 18.29-2.43 0.09-4.81 0.13-7.21 0.21-25.88-5.54-51.64-11.33-77.4-17.39"/>
    <path d="m4970.2 2221.5c1.96-0.35 3.89-0.63 5.84-1 240.45 34.34 484.95 47 732.45 35.75v1.82c-249.91 11.5-496.25-1.56-738.29-36.57"/>
    <path d="m1467.5 323.38c-1.99-0.098-3.96-0.274-5.95-0.359-39.83-28.782-79.8-57.368-119.92-85.715-114.29-80.743-230.75-159.84-349.56-235.51h5.129c124.8 79.766 246.91 162.98 366.4 247.36 34.76 24.539 69.34 49.363 103.9 74.219"/>
    <path d="m4004.9 1960.5c137.5 54.16 276.94 101.73 418.22 141.96-1.07 0.24-2.14 0.45-3.2 0.68-140.8-40.25-279.8-87.83-416.97-141.82-2.6-1.01-5.18-2.07-7.78-3.05-51.99-20.61-103.75-42.13-155.15-64.57 2.67 0.62 5.37 1.2 8.08 1.78 49.38 21.51 99.07 42.16 148.97 61.96 2.62 1.02 5.21 2.04 7.83 3.06"/>
    <path d="m3536.8 1749.4c-5.8-2.99-11.6-5.93-17.39-8.95-0.21-0.09-0.43-0.2-0.62-0.32-52.66-27.42-105.04-55.73-157.05-85.01-2.19-1.23-4.32-2.55-6.53-3.77-0.44-0.26-0.95-0.58-1.46-0.85-6.21-3.51-12.32-7.21-18.54-10.72-3.24-1.85-6.46-3.78-9.72-5.63-13.73-7.85-27.37-15.8-41.02-23.74-0.97-0.59-1.97-1.13-2.95-1.7-27.01-15.73-54.02-31.49-80.8-47.59-0.04 0-0.06-0.03-0.08-0.05-16.56-9.93-33.02-20.05-49.51-30.11-0.23-0.16-0.47-0.3-0.72-0.45-57.4-35.08-114.47-70.73-170.96-107.25-0.66-0.43-1.31-0.83-2.01-1.28-23.59-15.29-47.05-30.84-70.49-46.34-0.39-0.26-0.78-0.5-1.15-0.73-447.96-295.98-870.28-630.39-1302.9-948.8 3.18 0.813 6.3 1.704 9.46 2.512 431.45 316.57 852.06 648.57 1297.8 943.95 0.37 0.23 0.76 0.46 1.13 0.72 23.46 15.54 46.87 31.17 70.49 46.52 0.66 0.42 1.36 0.86 2.07 1.3 56.07 36.41 112.79 71.98 169.82 107.05 0.24 0.14 0.47 0.29 0.69 0.44 16.48 10.13 32.95 20.28 49.49 30.29 0.06 0.02 0.12 0.04 0.15 0.1 26.68 16.1 53.56 31.92 80.45 47.7 1.04 0.59 2.03 1.15 3.03 1.76 13.58 7.97 27.19 15.94 40.84 23.82 3.24 1.88 6.45 3.8 9.71 5.68 6.19 3.54 12.26 7.21 18.44 10.74 0.5 0.29 0.97 0.58 1.48 0.85 2.11 1.21 4.16 2.45 6.25 3.65 51.72 29.37 103.85 57.76 156.31 85.28 0.21 0.12 0.41 0.2 0.62 0.33 5.86 3.07 11.7 6.04 17.56 9.09 69.28 35.96 139.1 70.31 209.55 102.88-3.22-0.8-6.44-1.7-9.67-2.54-67.73-31.36-134.98-64.38-201.71-98.82 0 0 0-0.01-0.04-0.01"/>
    <path d="m4842.6 2200.8c-47.83-8.48-95.45-17.82-142.93-27.96 2.25-0.1 4.45-0.24 6.72-0.33 45.8 9.72 91.77 18.65 137.91 26.79 10.47 1.85 20.92 3.67 31.38 5.45 32.29 5.42 64.65 10.61 97.11 15.25-1.75 0.32-3.53 0.75-5.29 1.09-31.25-4.54-62.4-9.54-93.48-14.8-10.46-1.76-20.97-3.63-31.42-5.49"/>
   </g>
   <g fill="#b3b3b3">
    <path d="m573.14 389.77c-0.907-0.625-1.793-1.257-2.688-1.89-36.715-25.539-73.597-50.93-110.64-76.184 2.949-0.129 5.918-0.176 8.863-0.293 37.437 25.489 74.742 51.153 111.95 76.985-2.512 0.449-5 0.918-7.488 1.382"/>
    <path d="m444.46 301.21c-43.352-29.492-86.973-58.731-130.77-87.695 3.601 0.402 7.203 0.886 10.804 1.289 43.074 28.425 85.938 57.121 128.66 86.093-2.906 0.098-5.785 0.207-8.691 0.313"/>
    <path d="m5319.8 2106.4c-20.12 3.61-40.26 6.87-60.36 10.19-2.98-0.06-5.95-0.19-8.9-0.24 23.9-3.93 47.83-7.61 71.72-11.87l-2.46 1.92"/>
    <path d="m4164.4 2156.9c134.11 12.28 268.91 18.3 404.36 17.82-1.08 0.45-2.13 0.89-3.18 1.34-139.4 1.3-278.62-4.41-417.37-16.84 5.43-0.73 10.82-1.57 16.19-2.32"/>
    <path d="m4130.8 2153.9c-5.59 0.74-11.19 1.55-16.82 2.24-130.09-12.74-259.72-31.55-388.36-57-2.18-0.43-4.37-0.78-6.58-1.22-53.63-10.69-107.03-22.75-160.29-35.72-2.91-0.71-5.8-1.48-8.69-2.19-37.87-9.32-75.67-19.14-113.3-29.6-0.8-0.21-1.57-0.45-2.35-0.65-29.53-8.27-59.08-16.47-88.51-25.43-25.98-7.89-51.76-16.34-77.56-24.69-0.39-0.13-0.78-0.23-1.15-0.38-1.96-0.62-3.91-1.23-5.86-1.87-0.26-0.06-0.47-0.13-0.73-0.21-50.7-16.59-101.03-34.03-151.05-52.29 50.76 17.87 101.74 34.79 152.85 50.8 0.26 0.06 0.49 0.16 0.72 0.22 1.94 0.62 3.87 1.23 5.77 1.82 0.41 0.13 0.8 0.24 1.19 0.36 56.19 17.48 112.61 33.83 169.24 49.04 0.8 0.2 1.58 0.44 2.36 0.65 37.58 10.04 75.23 19.65 112.97 28.7 2.97 0.7 5.88 1.33 8.85 2.03 53.96 12.8 108.1 24.61 162.44 35.29 2.24 0.43 4.49 0.85 6.74 1.29 131.81 25.77 264.57 45.51 398.12 58.81"/>
    <path d="m2467.5 1639c0.21 0.12 0.39 0.21 0.6 0.32 17.05 8.88 34.04 17.93 51.18 26.66 0.75 0.37 1.5 0.72 2.24 1.08 92.55 47.14 186.33 91.78 281.27 133.78 0.13 0.07 0.27 0.13 0.42 0.19 14.52 6.42 29.12 12.76 43.72 19.04 0.35 0.16 0.69 0.31 1.06 0.46 28.53 12.3 57.11 24.47 85.84 36.25 0.13 0.06 0.19 0.1 0.31 0.13 15.61 6.42 31.37 12.54 47.07 18.79 2.95 1.18 5.92 2.38 8.87 3.57 5.96 2.35 11.89 4.78 17.81 7.12 0.1 0.02 0.18 0.06 0.25 0.08 33.66 13.18 67.48 25.96 101.43 38.41-34.3-12.11-68.48-24.65-102.62-37.6-0.06-0.03-0.15-0.04-0.23-0.08-6.08-2.3-12.09-4.52-18.15-6.84-2.98-1.16-6.03-2.25-9.04-3.41-15.76-6.11-31.48-12.45-47.21-18.73-0.07-0.04-0.19-0.06-0.29-0.13-28.92-11.55-57.79-23.4-86.6-35.57-0.37-0.16-0.73-0.3-1.09-0.47-14.64-6.19-29.27-12.39-43.87-18.75-0.16-0.07-0.27-0.13-0.43-0.19-47.68-20.73-95.18-42.19-142.45-64.63-47.17-22.39-93.94-45.42-140.4-69.03-0.71-0.36-1.42-0.77-2.14-1.14-17.01-8.65-33.77-17.76-50.69-26.6-0.16-0.08-0.37-0.17-0.57-0.27-669.32-348.96-1268-818.2-1885.9-1248.4 2.481-0.454 4.973-0.95 7.461-1.411 389.57 270.6 768.59 557.95 1163.2 819.31 232.62 154.08 471.79 299.16 719.01 428.02"/>
    <path d="m265.86 182.03c-85.679-55.945-172.32-110.61-259.96-163.5v-5.0391c91.145 54.734 181.07 111.4 270.14 169.48-3.422-0.363-6.801-0.617-10.18-0.949"/>
    <path d="m4885.4 2162c-48.03 3.71-96.01 6.52-143.92 8.62 48.36-2.4 96.68-5.67 145-9.63 12.81-1.06 25.68-1.99 38.49-3.2 82.19-7.45 164.24-17.2 246.1-29.1 2.73 0.11 5.46 0.22 8.18 0.31-85.18 12.44-170.22 22.31-255.12 29.66-12.91 1.11-25.84 2.33-38.73 3.34"/>
    <path d="m4699.6 2172.9c-43.03 1.71-86 2.76-129.01 3.21 1.1-0.47 2.21-0.93 3.31-1.39 41.01-0.2 82.11-0.98 123.24-2.36 2.4-0.08 4.78-0.12 7.21-0.21 12.32-0.45 24.68-0.95 37.05-1.49-11.7 0.58-23.4 1.43-35.08 1.91-2.27 0.09-4.47 0.23-6.72 0.33"/>
   </g>
   <g>
    <path d="m4434.2 1351.4c20.66 0.27 41.33 0.35 61.99 0.11-20.62 0.21-41.33 0.16-61.99-0.11"/>
    <path d="m2090.1 423.46c-3.62-1.055-7.28-2.031-10.92-3.019-86.29-54.247-172.25-108.5-257.99-162.08-138.38-86.464-277.79-172.63-418.67-256.56h6.75c152.43 91.23 303.02 185.05 452.43 278.46 75.99 47.488 152.07 95.359 228.4 143.2"/>
    <path d="m4496.2 1351.5c0.94 0 1.88-0.04 2.83-0.04-0.95 0-1.89 0.04-2.83 0.04"/>
    <path d="m4434.2 1351.4c-2.09-0.04-4.16-0.02-6.23-0.06 2.07 0.04 4.14 0.02 6.23 0.06"/>
    <path d="m2099.1 429.09c196.65 123.11 395.09 245.42 597.77 359.45 4.29 4.129 8.6 8.223 12.9 12.351-211.31-118.62-417.89-246.73-622.29-375.21 3.89 1.059 7.73 2.329 11.62 3.403"/>
    <path d="m4364.4 1349.5c-1.13-0.03-2.22-0.07-3.37-0.12 1.15 0.05 2.24 0.09 3.37 0.12"/>
    <path d="m4428 1351.3c-21.15-0.32-42.36-0.96-63.54-1.82 21.18 0.87 42.39 1.5 63.54 1.82"/>
    <path d="m3404.7 1131.3c34.67 13.63 69.39 27 104.43 39.69 4.2 2.66 8.34 5.35 12.56 8.02-3.18-1.09-6.35-2.18-9.51-3.31-1-0.33-1.97-0.65-2.95-1.03-36.8-13.17-73.36-26.9-109.75-41.14-0.31-0.1-0.62-0.25-0.93-0.36-207.39-81.16-408.32-178.79-604.73-285.9-4-3.828-8-7.617-11.99-11.457 201.89 110.41 408.47 211.15 621.93 295.12 0.31 0.15 0.63 0.25 0.94 0.37"/>
    <path d="m5629.6 1087.9c-32.97 15.29-66.1 30.01-99.38 44.01-2.34 1-4.7 1.91-7.03 2.9-9.78 4.1-19.59 8.12-29.43 12.1-3.11 1.25-6.21 2.59-9.34 3.86-8.18 3.29-16.44 6.5-24.65 9.71-13.9 5.44-27.83 10.85-41.77 16.06-55.9 20.91-112.17 39.84-168.73 57.08-3.05 0.95-6.08 1.86-9.11 2.79-24.66 7.43-49.35 14.54-74.12 21.26-6.48 1.77-12.95 3.59-19.43 5.31-30.96 8.16-62.07 15.63-93.22 22.67-5.59 1.29-11.17 2.59-16.76 3.8-80.39 17.7-161.31 31.64-242.7 41.81-5.13 0.67-10.27 1.28-15.44 1.9-92.62 11.05-185.84 17.22-279.54 18.3 94.38-1.11 188.36-7.57 281.74-18.88 5.88-0.72 11.76-1.51 17.64-2.24 78.24-10.02 156.03-23.35 233.32-40.28 5.31-1.14 10.6-2.48 15.94-3.69 31.07-6.99 62.07-14.57 92.98-22.66 7.13-1.89 14.28-3.61 21.43-5.52 25.57-6.93 51.09-14.35 76.56-22.02 3.03-0.92 6.08-1.88 9.14-2.81 56.76-17.31 113.21-36.31 169.22-57.21 13.97-5.21 27.87-10.69 41.78-16.1 8.22-3.24 16.5-6.29 24.71-9.6 3.1-1.24 6.19-2.61 9.31-3.87 9.87-3.97 19.69-8.12 29.52-12.22 2.34-0.96 4.66-1.92 7.01-2.9 33.38-14.02 66.58-28.67 99.65-43.95 2.26-1.05 4.57-2.14 6.85-3.19 24.34-11.33 48.59-22.99 72.74-35v0.71c-23.91 11.91-47.93 23.42-72 34.67-2.26 1.05-4.59 2.14-6.89 3.2"/>
    <path d="m4188.8 1336.5c-58.05-6.25-116.15-14.38-174.36-24.58-2.83-0.5-5.68-0.9-8.49-1.42-25.16-4.47-50.26-9.36-75.39-14.57-0.67-0.13-1.35-0.31-2.01-0.44-4.93-1.03-9.85-2.2-14.77-3.25-5.35-1.13-10.66-2.33-15.98-3.53-3.38-0.73-6.73-1.45-10.09-2.2-7.33-1.63-14.65-3.11-21.98-4.81-45.82-10.69-91.68-22.63-137.59-35.82-1.37-0.41-2.68-0.85-4.01-1.24-1.48-0.42-2.97-0.95-4.43-1.37-28.75-8.34-57.23-17.38-85.71-26.41-0.7-0.24-1.44-0.47-2.14-0.68-32.31-10.3-64.36-21.15-96.29-32.32-4.28-2.71-8.56-5.44-12.82-8.16 37.33 13.38 74.77 26.32 112.58 38.57 0.69 0.21 1.39 0.41 2.09 0.63 28.5 9.21 57.15 17.92 85.92 26.44 1.5 0.42 2.99 0.9 4.45 1.38 7.52 2.19 14.93 4.72 22.46 6.88 39.42 11.34 78.87 21.51 118.29 30.94 7.11 1.68 14.18 3.45 21.27 5.11 3.28 0.77 6.54 1.4 9.82 2.13 5.31 1.19 10.68 2.32 16.02 3.48 4.92 1.09 9.84 2.17 14.76 3.2 0.68 0.16 1.39 0.31 2.09 0.47 24.86 5.27 49.79 10.24 74.65 14.75 2.73 0.5 5.49 1.08 8.24 1.59 58.11 10.38 116.17 18.6 174.18 24.93 0.35 0.03 0.72 0.1 1.06 0.12 56.91 6.19 113.73 10.67 170.45 13.04-56.96-2.35-113.99-6.62-171.16-12.73-0.39-0.04-0.74-0.08-1.11-0.13"/>
   </g>
   <g fill="#b3b3b3">
    <path d="m3817.6 2184.1c1.79-0.02 3.57-0.07 5.35-0.13 88.59 20.11 177.83 36.85 267.75 49.83-91.31-12.74-182.38-29.42-273.1-49.7"/>
    <path d="m380.04 430.28c-62.43-34.265-125.25-67.957-188.55-100.7 5.508-0.547 11.032-1.043 16.535-1.558 62.18 32.5 123.88 65.671 184.97 99.355-4.324 0.984-8.637 1.895-12.961 2.906"/>
    <path d="m4368.5 2261.6c-7.47-0.39-14.89-1.04-22.35-1.48 1.15-0.38 2.31-0.72 3.44-1.08 146.13 7.84 292.87 4.52 439.98-11.44 8.79-0.96 17.6-1.86 26.41-2.9-8.99 1.12-17.97 2.34-26.98 3.38-138.82 16.04-279.33 20.92-420.5 13.52"/>
    <path d="m171.99 319.58c-55.031-28.308-110.38-55.918-166.09-82.73v-10.762c61.434 29.773 122.45 60.418 182.93 91.844-5.613 0.566-11.25 1.101-16.84 1.648"/>
    <path d="m2461.5 1642.9c0.19 0.1 0.35 0.2 0.53 0.28 16.8 8.92 33.7 17.64 50.54 26.47 0.72 0.37 1.44 0.75 2.16 1.12 91.61 47.89 183.98 94.34 277.32 138.91 0.11 0.08 0.27 0.13 0.38 0.2 13.98 6.65 28.07 13.09 42.07 19.65 0.38 0.18 0.73 0.36 1.11 0.53 27.35 12.84 54.58 25.88 82.1 38.41 0.06 0.04 0.12 0.05 0.22 0.09 15.1 6.85 30.37 13.34 45.51 20.1 2.79 1.26 5.62 2.45 8.43 3.72 5.49 2.44 11.02 4.84 16.53 7.28 0.08 0.02 0.1 0.02 0.13 0.06 27.86 12.27 55.59 24.86 83.66 36.78 52.67 22.43 105.74 43.98 159.18 64.68 0.21 0.07 0.41 0.15 0.62 0.24 2.38 0.92 4.77 1.78 7.15 2.69 0.39 0.15 0.8 0.29 1.21 0.46 47.6 18.33 95.45 36 143.63 52.79 0.94 0.32 1.82 0.66 2.8 0.98 38.32 13.37 76.89 26 115.6 38.27 2.78 0.89 5.55 1.76 8.38 2.67 46.19 14.54 92.56 28.31 139.2 41.19 1.35 0.41 2.7 0.75 4.06 1.12 48.75 13.44 97.76 26.01 146.99 37.51-1.75 0.01-3.49 0.03-5.25 0.05-48.14-11.04-96.21-23.08-144.18-36.05-1.31-0.37-2.66-0.72-3.98-1.08-46.68-12.67-93.25-26.19-139.71-40.56-2.81-0.86-5.63-1.75-8.44-2.62-39.1-12.17-78.1-24.76-117.03-38.05-0.96-0.33-1.89-0.65-2.83-0.99-47.93-16.36-95.74-33.54-143.44-51.48-0.43-0.14-0.86-0.33-1.29-0.5-2.42-0.93-4.86-1.89-7.28-2.8-0.2-0.06-0.41-0.16-0.63-0.25-82.38-31.18-164.37-64.66-245.97-99.98-0.02-0.02-0.02-0.02-0.06-0.02-5.45-2.38-10.94-4.73-16.39-7.13-2.81-1.21-5.59-2.39-8.38-3.61-15.21-6.67-30.37-13.42-45.53-20.2-0.07-0.01-0.15-0.03-0.21-0.09-27.58-12.35-55.13-24.88-82.61-37.6-0.41-0.2-0.79-0.38-1.18-0.57-13.91-6.44-27.85-12.89-41.74-19.44-0.13-0.06-0.26-0.13-0.4-0.17-94.13-44.41-187.69-90.96-280.56-139.24-0.7-0.37-1.41-0.76-2.09-1.11-16.58-8.63-33.14-17.35-49.68-26.06-0.14-0.11-0.3-0.16-0.46-0.25-509.31-268.79-998.63-585.24-1458.1-861.9-198.54-119.54-401.17-240.35-608.44-354.32 4.285-0.977 8.551-1.973 12.832-2.91 128.27 70.742 254.19 143.39 377.58 215.62 562.6 329.27 1109.6 691.3 1685.9 997.11"/>
    <path d="m5685.6 1980.6c-106.6 53.64-213.21 98.74-319.73 136.23-3.05 0.04-6.15 0-9.2 0.01 115.14-40.17 227.97-87.86 337.68-143.05-3.23 1.6-5.49 5.19-8.75 6.81"/>
    <path d="m4343.2 2258.6c-1.05 0.33-2.09 0.71-3.16 1.06-83.57-5.21-166.68-13.94-249.3-25.84 83.93 11.72 168.11 20.06 252.46 24.78"/>
    <path d="m4970.2 2221.5c-45.02 8.15-90.07 15.26-135.02 20.93-6.44 0.82-12.85 1.42-19.23 2.19 6.58-0.83 13.18-1.81 19.76-2.69 44.1-5.95 88.01-12.66 131.7-20.84 1.76-0.34 3.54-0.77 5.29-1.09 115.43-21.86 229.3-51.6 341.08-88.59 3.06 0 6.11-0.09 9.2-0.11-115.8 38.5-231.45 68.05-346.94 89.2-1.95 0.37-3.88 0.65-5.84 1"/>
    <path d="m4968 1973.8c-56.96 33.84-114.77 66.13-173.42 96.66-0.84-0.16-1.66-0.29-2.5-0.44 58.65-30.34 116.52-62.36 173.46-95.95 0.82-0.08 1.66-0.19 2.46-0.27"/>
    <path d="m5104.9 1888.5c-33.85 22.09-67.95 43.75-102.42 64.72-0.84 0.1-1.66 0.18-2.5 0.28 34.34-20.75 68.38-42 102.03-63.75 0.98-0.41 1.93-0.81 2.89-1.25"/>
    <path d="m176.02 482.27c-20.797-11.277-41.414-22.937-62.454-33.804-35.828-18.547-71.706-35.688-107.66-51.789v-8.047c61.148 28.078 121.29 58.535 180.33 90.82-3.414 0.945-6.82 1.902-10.214 2.82"/>
    <path d="m4764 2084.4c1.03-0.51 2.09-1.07 3.12-1.61 0.94 0.19 1.89 0.36 2.87 0.54-0.8 0.38-1.54 0.82-2.36 1.22-1.21-0.04-2.42-0.11-3.63-0.15"/>
    <path d="m1088.2 1095.8c-16.35-8.27-32.77-16.4-49.23-24.45-14.57-11.28-29.16-22.52-43.766-33.72-260.2-199.67-526.23-395.54-814.68-552.86 3.41-0.945 6.777-1.926 10.176-2.859 71.519 39.265 141.5 81.011 209.86 123.92 238.77 149.9 464.59 318 687.65 489.97"/>
    <path d="m2134.7 1864.4c4.75 2.99 9.57 5.93 14.34 8.88 0.65 0.43 1.27 0.81 1.9 1.2 23.79 14.85 47.44 29.88 71.48 44.34 87.3 52.51 176.64 101.79 267.68 147.45 0.13 0.05 0.3 0.11 0.42 0.2 10.09 5.06 20.2 10.06 30.34 15.02 0.57 0.29 1.14 0.55 1.7 0.84 18.52 9.07 37.13 17.91 55.8 26.64 0.28 0.11 0.55 0.24 0.84 0.39 17.22 8.03 34.41 16.19 51.77 23.94 0.59 0.27 1.17 0.52 1.8 0.76 1.26 0.59 2.52 1.09 3.8 1.65 1.46 0.66 2.92 1.25 4.39 1.87 90.42 40.04 182.57 75.72 276.15 106.63 0.04 0.01 0.1 0.01 0.1 0.03 3.1 1.05 6.21 1.99 9.29 3.04 1.22 0.39 2.45 0.77 3.7 1.16 32.32 10.55 64.88 20.45 97.59 29.72 1.04 0.29 2.03 0.6 3.09 0.9 52.32 14.78 105.16 27.88 158.36 39.3 2.07 0.45 4.12 0.9 6.17 1.32 54.4 11.5 109.16 21.24 164.36 28.92 0.39 0.04 0.78 0.08 1.19 0.14 81.54 11.31 163.94 18.7 247.22 20.86 251.82 6.56 496.76-34.73 731.84-109.92 1.07-0.35 2.11-0.73 3.16-1.06 75.22-24.17 149.38-51.85 222.45-82.52 1.05-0.45 2.1-0.89 3.18-1.34 15.94-6.72 31.83-13.56 47.69-20.57 0.86-0.34 1.66-0.75 2.5-1.11 41.29-18.3 82.25-37.53 122.82-57.61 1.15 0.05 2.28 0.11 3.45 0.18-40.62 20.27-81.62 39.71-123.06 58.2-0.8 0.37-1.6 0.75-2.42 1.11-15.22 6.76-30.55 13.26-45.84 19.75-1.1 0.46-2.21 0.92-3.31 1.39-72.46 30.68-146.11 58.53-221.01 82.91-1.13 0.36-2.29 0.7-3.44 1.08-105.31 34.12-212.91 61.85-323.06 81.62-221.88 39.86-446.55 41.31-667.62 11.44-0.39-0.08-0.8-0.12-1.17-0.18-55.84-7.59-111.43-17.03-166.68-28.53-2.05-0.41-4.07-0.78-6.1-1.19-53.14-11.22-105.93-24.29-158.4-38.93-1.03-0.29-2.07-0.6-3.1-0.89-32.87-9.23-65.59-19.1-98.13-29.61-1.17-0.4-2.36-0.74-3.57-1.13-3.05-0.99-6.13-1.9-9.18-2.92-1.89-0.6-3.85-1.19-5.76-1.8-92.1-30.52-182.08-65.6-270.3-104.44-1.4-0.63-2.83-1.29-4.25-1.89-1.59-0.73-3.17-1.45-4.76-2.18-0.61-0.25-1.2-0.54-1.81-0.8-17.28-7.69-34.51-15.43-51.64-23.38-0.29-0.16-0.6-0.29-0.88-0.41-18.4-8.57-36.69-17.3-54.92-26.16-0.6-0.27-1.18-0.55-1.75-0.83-10.05-4.89-20-9.95-30.02-14.93-0.12-0.08-0.28-0.14-0.41-0.23-117.04-58.36-231.08-122.9-342.62-192.12-0.64-0.38-1.29-0.79-1.92-1.18-4.38-2.72-8.73-5.52-13.12-8.24-0.14-0.1-0.29-0.17-0.41-0.29-369.19-230.82-712.31-510.44-1053.4-774.64 12.09 6.15 24.18 12.26 36.25 18.56 5.61 2.93 11.17 5.94 16.79 8.88 330.33 255.62 656.08 517.78 1010 740.48 0.13 0.08 0.27 0.13 0.4 0.23"/>
    <path d="m5223.5 1808.1c0.23 0 0.46 0 0.7 0.01-2.34 1.66-4.71 3.37-7.03 5-32.48 22.61-65.3 44.6-98.38 66.32-0.92 0.39-1.88 0.78-2.83 1.15 34.51-22.48 68.61-45.49 102.38-68.93 1.74-1.18 3.44-2.37 5.16-3.55"/>
    <path d="m5228.2 1805.4c-0.23-0.02-0.43-0.02-0.64-0.02 16.97-11.85 33.91-23.8 50.7-35.84 4.87-3.53 9.77-6.99 14.63-10.51l-5.35 4.25c-3.32 2.38-6.66 4.68-9.94 7.05-16.37 11.8-32.87 23.48-49.4 35.07"/>
   </g>
   <g>
    <path d="m3441.5 2164.1c2.21 0.23 4.4 0.52 6.58 0.77-2.18-0.29-4.41-0.5-6.58-0.77"/>
    <path d="m1039 1071.3c16.46 8.05 32.88 16.18 49.23 24.45 401.1 203.24 776.82 470.24 1169.4 676.68 1.75 0.94 3.5 1.78 5.24 2.7 0.18 0.09 0.33 0.14 0.48 0.24 10.36 5.43 20.79 10.65 31.17 15.99 0.72 0.37 1.44 0.74 2.16 1.1 109.11 56.06 220.08 107.63 332.92 153.62 0.02 0 0.06 0.02 0.1 0.04 12.74 5.19 25.5 10.22 38.26 15.28 0.46 0.19 0.95 0.39 1.43 0.58 25.68 10.12 51.46 19.89 77.31 29.43 0.04 0 0.09 0.04 0.11 0.06 17.7 6.53 35.39 13.07 53.19 19.33 2.36 0.8 4.68 1.55 7.03 2.35 2.48 0.88 4.96 1.7 7.46 2.54 0.31 0.09 0.62 0.21 0.92 0.3 95.72 33.09 192.73 61.83 290.94 85.84 0.29 0.08 0.6 0.14 0.9 0.22 3.94 0.97 7.91 1.92 11.83 2.9 1.15 0.25 2.27 0.54 3.4 0.78 42.97 10.29 86.11 19.96 129.53 28.34 1.17 0.22 2.35 0.4 3.5 0.63 53.55 10.26 107.54 18.72 161.76 25.95 3.26 0.41 6.52 0.94 9.8 1.36 4.86 0.62 9.65 1.43 14.47 2.03-4.96-0.52-9.94-1.16-14.9-1.69-3.36-0.4-6.72-0.78-10.14-1.16-54.88-6.38-109.78-14.41-164.84-24.2-1.15-0.21-2.3-0.43-3.48-0.64-43.51-7.82-87.09-16.59-130.66-26.67-1.17-0.26-2.31-0.51-3.46-0.75-4.04-0.95-8.08-1.73-12.13-2.67-0.31-0.08-0.6-0.14-0.89-0.22-30.73-7.27-61.47-15.11-92.23-23.57-67.52-18.54-133.87-39.55-199.26-62.57-0.31-0.12-0.62-0.23-0.93-0.35-2.3-0.81-4.56-1.66-6.88-2.47-2.28-0.81-4.51-1.66-6.79-2.45-17.83-6.38-35.59-12.84-53.27-19.52-0.06-0.02-0.09-0.02-0.14-0.02-25.52-9.64-50.9-19.62-76.17-29.85-0.48-0.19-0.97-0.41-1.41-0.59-12.66-5.1-25.32-10.18-37.87-15.45-0.08 0-0.12-0.05-0.16-0.07-112.58-47.05-222.56-99.64-330.91-155.74-0.72-0.38-1.45-0.75-2.16-1.12-10.29-5.34-20.57-10.6-30.82-16.01-0.15-0.08-0.31-0.18-0.45-0.24-385.89-202.98-751.48-448.96-1137.3-652.37-5.62-2.94-11.18-5.95-16.79-8.88-12.07-6.3-24.16-12.41-36.25-18.56-293.49-149.56-598.59-256.51-927.41-295.56-45.929-5.469-91.914-9.582-137.91-12.727v-3.406c141.13 8.98 282.81 29.266 424.45 62.176 212.41 49.375 413.7 128.97 608.65 224.61"/>
    <path d="m5287.9 1807.3c-1.33-0.02-2.66 0-3.96-0.02 4.86-2.22 9.74-4.38 14.59-6.64 1.32-0.64 2.69-1.22 4.06-1.83 98.79-45.76 196.4-94.71 292.67-146.13-95.23 51.26-192.14 100.45-290.5 146.78-1.33 0.62-2.64 1.21-3.95 1.84-4.3 2-8.59 3.99-12.91 6"/>
    <path d="m5708.5 1590.4v0.42c-37.54 21.04-75.34 41.64-113.31 61.93 38.05-20.48 75.79-41.27 113.31-62.35"/>
    <path d="m4570.1 2066.8c18.32-4.86 36.64-9.64 54.94-14.76 4.04 1.01 8.09 2.08 12.13 3.08-16.64 4.8-33.3 9.47-49.96 14.03-5.72-0.73-11.43-1.55-17.11-2.35"/>
    <path d="m4860.7 1983.2c-62.65 22.19-125.72 42.9-189.25 61.9-4.03-0.95-8.03-2.07-12.09-3.03 61.13-17.77 121.97-37 182.46-57.67 6.29-0.39 12.59-0.78 18.88-1.2"/>
    <path d="m3472.1 2167.3c-7.97-0.76-15.98-1.66-23.97-2.5 7.99 0.95 16 1.62 23.97 2.5"/>
    <path d="m4435.1 2107.3c-89.47 20.33-179.73 37.03-270.63 49.62-5.37 0.75-10.76 1.59-16.19 2.32-107.6 14.32-216.09 22.76-325.29 24.75-1.78 0.06-3.56 0.11-5.35 0.13-27.68 0.47-55.39 0.64-83.17 0.26-46.34-0.66-92.38-2.97-138.28-6.01-1.42-0.12-2.89-0.2-4.31-0.31-40.1-2.72-80.04-6.27-119.75-10.73 41.02 3.92 81.97 6.62 122.87 8.68 1.47 0.1 2.93 0.16 4.4 0.24 65.66 3.22 131.15 4.19 196.44 2.89 1.76-0.02 3.5-0.04 5.25-0.05 104.83-2.26 209.2-10.01 312.95-22.99 5.63-0.69 11.23-1.5 16.82-2.24 96.97-12.63 193.36-29.65 289.14-50.73 1.06-0.23 2.13-0.44 3.2-0.68 39.22-8.67 78.36-17.76 117.37-27.73 5.68 0.91 11.36 1.65 17.09 2.48-39.67 10.5-79.46 20.27-119.42 29.37-1.05 0.24-2.09 0.5-3.14 0.73"/>
    <path d="m5118.8 1879.5c21.76-9.06 43.42-18.27 65.04-27.63 13.42-5.82 26.93-11.54 40.31-17.45 13.28-5.91 26.48-11.98 39.73-18.01 3.61-1.62 7.24-3.27 10.86-4.92 1.15-0.53 2.28-1.02 3.37-1.53 1.37 0.02 2.76 0 4.17 0.02-1.41 0.66-2.82 1.31-4.18 1.95-3.56 1.65-7.11 3.33-10.65 4.96-15.37 7.1-30.82 14.1-46.25 21.04-13.71 6.19-27.42 12.31-41.21 18.36-24.9 10.97-49.94 21.69-75.06 32.22-0.96 0.44-1.91 0.84-2.89 1.25-59.82 25.08-120.1 48.99-180.82 71.51-5.53 0.46-11.05 0.81-16.58 1.25 70.96-25.47 141.4-52.81 211.33-81.87 0.95-0.37 1.91-0.76 2.83-1.15"/>
   </g>
   <g fill="#b3b3b3">
    <path d="m3516.4 1171.7c0.66 0.45 1.38 0.91 2.07 1.34 1.4 0.91 2.79 1.79 4.19 2.68 4.26 2.72 8.54 5.45 12.82 8.16 24.22 15.42 48.45 30.69 72.75 45.92 0.51 0.3 0.96 0.6 1.43 0.89 20.5 12.85 41.05 25.63 61.64 38.34 1.03 0.62 2.07 1.25 3.12 1.89 29.91 18.43 59.91 36.6 90 54.63 4.69 2.77 9.28 5.53 13.93 8.31 5.86 3.47 11.7 7.01 17.54 10.49 3.61 2.1 7.2 4.16 10.82 6.28 3.86 2.28 7.79 4.54 11.68 6.79 0.17 0.12 0.35 0.24 0.52 0.34 23.46 13.71 46.98 27.24 70.63 40.63 1.76 0.98 3.48 1.96 5.21 2.93 25.38 14.31 50.82 28.43 76.43 42.29 0.41 0.21 0.82 0.44 1.23 0.68 81.78 44.26 164.81 86.01 249.63 124.39 0.06 0.04 0.16 0.08 0.23 0.11 16.37 7.41 32.8 14.87 49.32 22.03 95.06 41.16 191.45 76.06 288.89 105.15 3.69 1.11 7.38 2.17 11.11 3.25 59.18 17.42 118.79 32.51 178.67 45.65-4.26 0.25-8.45 0.61-12.73 0.82-59.04-13.23-117.85-28.65-176.39-46.16-3.42-1.02-6.85-2.2-10.25-3.24-24.28-7.35-48.56-14.93-72.74-23.04-88.4-29.76-174.68-64.35-259.39-102.41-0.06-0.02-0.16-0.06-0.22-0.08-84.88-38.15-168.14-79.87-250.05-124.21-0.43-0.23-0.88-0.47-1.33-0.72-25.33-13.73-50.55-27.72-75.69-41.88-1.7-0.99-3.41-1.94-5.13-2.94-23.89-13.52-47.64-27.21-71.31-41.07-0.16-0.09-0.31-0.18-0.45-0.25-3.93-2.31-7.85-4.56-11.8-6.89-3.55-2.1-7.15-4.15-10.7-6.27-6.02-3.55-12.01-7.18-17.99-10.75-4.65-2.77-9.24-5.54-13.83-8.29-30-18-59.88-36.17-89.61-54.56-1.03-0.64-2.09-1.27-3.14-1.9-20.49-12.72-40.96-25.48-61.37-38.33-0.47-0.29-0.92-0.57-1.39-0.86-27.81-17.5-55.5-35.11-83.14-52.81-4.22-2.67-8.36-5.36-12.56-8.02-26.11-16.77-52.19-33.57-78.22-50.41-0.39-0.23-0.74-0.48-1.11-0.72-9.42-6.05-18.83-12.14-28.25-18.22-283.41-183.68-567.34-367.94-873.22-510.61-2.52-2.476-5.08-4.91-7.64-7.371 319.55 147.62 614.87 343.2 912.58 534.72 0.39 0.27 0.76 0.52 1.17 0.77 27.29 17.58 54.63 35.09 82.04 52.53"/>
    <path d="m1127.5 329.65c-12.99-1.543-25.95-3.046-38.99-4.453 85.44-5 170.86-7.031 256.13-5.781 9.34 2.227 18.67 4.512 27.97 6.809-81.42-1.621-163.14-0.411-245.11 3.425"/>
    <path d="m5339.9 1810.4c-3.32 0-6.64-0.09-9.92-0.11-15.92-0.02-31.8-0.08-47.65-0.38-1.41-0.02-2.8 0-4.17-0.02-5.62-0.12-11.24-0.17-16.87-0.31-5.27-0.16-10.51-0.46-15.78-0.64-7.11-0.21-14.18-0.55-21.25-0.83-0.24-0.01-0.47-0.01-0.7-0.01-0.73-0.04-1.41-0.08-2.11-0.08-10.22-0.42-20.43-0.72-30.67-1.22-63.85-3.23-127.54-8.5-191.03-16.16-18.52-2.22-36.96-4.95-55.39-7.57-67-9.5-133.77-21.32-200.22-36.04 4.2-0.16 8.4-0.53 12.62-0.71 71.35 15.43 143.14 27.95 215.33 37.53 83.48 11.03 167.46 17.84 251.7 21.3 1.25 0.04 2.52 0.1 3.77 0.14 0.21 0 0.41 0 0.64 0.02 6.53 0.27 13.09 0.62 19.67 0.81 12.01 0.4 24.03 0.91 36.08 1.14 1.3 0.02 2.63 0 3.96 0.02 11.06 0.2 22.11 0.11 33.13 0.2 3.34 0.04 6.66 0.06 9.98 0.08 95.25 0.34 190.82-3.89 286.46-12.61-2.03 0.87-4.06 1.85-6.13 2.74-90.59 8.25-181.13 12.56-271.45 12.71"/>
    <path d="m5643.5 1792.4c21.68-2.17 43.34-4.41 65.04-7.02v1.98c-23.68 2.87-47.33 5.39-71 7.75 1.97-0.91 3.98-1.8 5.96-2.71"/>
    <path d="m1064.7 332.96c-24.7 1.543-49.42 3.184-74.139 5.164-3.129 0.254-6.231 0.605-9.328 0.852-4.782-1.614-9.586-3.184-14.387-4.766 20.121-1.848 40.264-3.496 60.404-5 12.47 1.199 24.96 2.41 37.45 3.75"/>
    <path d="m2099.1 429.09c-3.89-1.074-7.73-2.344-11.62-3.403-200.23-55.23-404.43-85.222-610.94-95.808-1.95-0.086-3.92-0.164-5.88-0.274-26.73-1.316-53.48-2.351-80.28-3.027-9.38-2.297-18.69-4.707-28.06-6.973 33.08 0.696 66.14 1.739 99.17 3.411 1.99 0.085 3.96 0.261 5.95 0.359 206.29 10.851 411 42.019 611.68 97.059 3.64 0.988 7.3 1.964 10.92 3.019 9.29 2.566 18.63 4.922 27.89 7.605 115.34 33.528 226.57 75.071 334.99 122.24 2.34 2.265 4.69 4.504 7.06 6.738-42.11-18.535-84.57-36.379-127.59-53.164-77.07-30.051-154.89-55.762-233.29-77.781"/>
    <path d="m186.23 479.45c64.231-17.59 128.85-34.082 193.8-49.172 4.324-1.011 8.637-1.922 12.961-2.906 59.82-13.723 119.88-26.223 180.14-37.602 2.488-0.464 4.976-0.933 7.488-1.382 107.12-20 214.84-36.125 322.8-47.766 4.289 1.379 8.508 2.898 12.769 4.27-111.46 11.121-221.72 26.843-330.88 46.753-2.488 0.461-4.98 0.957-7.461 1.411-60.289 11.121-120.19 23.582-179.81 37.117-4.281 0.937-8.547 1.933-12.832 2.91-65.191 14.98-130.04 31.191-194.48 48.801-3.399 0.933-6.766 1.914-10.176 2.859-58.504 16.133-116.71 33.34-174.65 51.414v-3.965c56.344-17.507 113.06-34.175 170.11-49.922 3.394-0.918 6.8-1.875 10.214-2.82"/>
   </g>
   <g>
    <path d="m1509.7 358.07c3.1 0.872 6.19 1.68 9.29 2.547 124.01 35.364 245.49 77.09 362.91 126.11 139.4 58.191 274.34 125.05 406.56 197-243.95-128.66-493.1-235.51-757.15-314.13-3.27-0.985-6.53-1.961-9.8-2.942-49.09-14.468-98.73-27.957-148.92-40.425-9.3-2.297-18.63-4.582-27.97-6.809-40.93-9.824-82.12-19.211-123.88-27.656-254.14-51.328-507.43-78.75-759.13-83.985-10.547-1.738-21.102-3.574-31.664-5.183 308.29 7.879 626.09 43.98 932.41 117.02 9.37 2.266 18.68 4.676 28.06 6.973 39.99 9.871 79.78 20.313 119.29 31.484"/>
    <path d="m5640.3 1449.2c1.64-1.05 3.3-2.1 5-3.15-1.7 1.02-3.34 2.12-5 3.15"/>
    <path d="m263.23 208.28c-85.984 2.227-171.78 6.953-257.33 14.27v-5.949c68.645-6.153 137.61-10.547 207-12.942 16.79 1.379 33.563 3 50.332 4.621"/>
    <path d="m4966.9 1722c-3.24 0.62-6.4 1.35-9.66 1.96-65.88 11.85-132.8 19.32-200.53 22.38-4.22 0.18-8.42 0.55-12.62 0.71-2.36 0.1-4.71 0.32-7.07 0.41-26.5 0.83-52.91 0.83-79.3 0.46 26.72-0.14 53.36-0.83 79.85-2.24 4.28-0.21 8.47-0.57 12.73-0.82 65.31-3.99 129.85-11.76 193.64-23.02 3.53-0.61 7.05-1.21 10.6-1.85 155.24-28.41 305.57-77.71 450.27-144.41 12.21-5.62 24.34-11.32 36.43-17.17 67.64-32.77 133.98-69.27 199.02-109.26-65.27 40.52-132.28 78.15-201.05 112.02-12.15 6.01-24.4 11.76-36.68 17.5-139.04 65.29-284.67 115.18-435.63 143.33"/>
    <path d="m5708.5 1405.3v0.21c-7.54 5-15.12 9.97-22.68 14.85 7.62-4.94 15.1-10.05 22.68-15.06"/>
    <path d="m5645.3 1446c13.58-8.4 27.11-16.98 40.59-25.69-13.4 8.75-27.01 17.21-40.59 25.69"/>
    <path d="m2563.7 838.55c184.56 110.16 366.25 226.04 550.26 337.72 4.35 3.84 8.8 7.59 13.16 11.44-278.86-168.32-552.42-348.16-838.66-503.99 92.28 48.691 183.87 100.29 275.24 154.82"/>
    <path d="m3282.5 1276.5c43.01 25.02 86.23 49.78 129.73 73.92 0.04 0 0.11 0.06 0.15 0.08 20.16 11.18 40.45 22.15 60.73 33.1 0.6 0.32 1.19 0.64 1.77 0.96 28.66 15.47 57.41 30.68 86.37 45.65 4.02 2.05 8.03 4.19 12.07 6.27 11.52 5.88 23.16 11.6 34.77 17.44 3.71 1.84 7.46 3.73 11.21 5.59 5.33 2.67 10.7 5.41 16.05 8.06 0.37 0.16 0.74 0.38 1.1 0.57 36.64 18.08 73.55 35.7 110.76 52.75 1.34 0.59 2.69 1.2 4.02 1.82 17.87 8.16 35.8 16.25 53.81 24.18 0.8 0.34 1.58 0.71 2.36 1.06 2.81 1.21 5.59 2.52 8.38 3.74 89.36 38.93 180.63 73.29 273.46 102 0.45 0.16 0.84 0.27 1.31 0.43 79.74 24.64 160.7 45 242.52 60.47 3.88 0.73 7.79 1.37 11.73 2.08 103.05 18.86 207.52 29.74 312.93 31.23-80.99 0.47-163.06-4.8-246.15-16.44-26.79-3.77-53.42-8.22-79.92-13.11-3.54-0.66-7.09-1.25-10.66-1.93-79.48-15.1-157.76-35.2-234.95-59.19-0.44-0.13-0.93-0.28-1.38-0.41-95.63-29.75-189.47-65.64-281.74-105.84-0.8-0.34-1.56-0.7-2.32-1.03-17.82-7.78-35.71-15.51-53.4-23.6-1.35-0.62-2.66-1.27-3.97-1.85-37.4-17.18-74.47-35.15-111.33-53.52-0.37-0.19-0.76-0.38-1.15-0.55-5.39-2.72-10.78-5.39-16.17-8.09-3.71-1.88-7.46-3.7-11.17-5.6-11.6-5.87-23.19-11.81-34.69-17.78-4-2.1-7.95-4.19-11.93-6.27-28.77-14.98-57.35-30.27-85.82-45.79-0.59-0.31-1.14-0.63-1.7-0.92-20.16-11.02-40.26-22.1-60.26-33.29-0.04-0.04-0.11-0.1-0.19-0.13-43.6-24.44-86.94-49.26-129.81-74.42-0.78-0.43-1.54-0.89-2.28-1.33-12.05-7.05-24.03-14.18-36.02-21.26-4.49-3.83-8.98-7.63-13.45-11.47 17.63 10.44 35.29 20.81 52.98 31.13 0.79 0.43 1.51 0.86 2.25 1.29"/>
    <path d="m5682.6 1948c-225.39 76.05-457.58 129.32-692.84 145.24-10.64 0.75-21.3 1.72-31.97 2.3-22.83-2.79-45.66-5.9-68.44-9.27 25.9-0.4 51.8-1.16 77.72-2.41 11.39-0.56 22.75-1.31 34.14-2.03 226.86-14.59 453.95-62.63 677.36-135.73 1.31-0.44 2.6-0.87 3.91-1.28 8.67-2.87 17.34-5.72 26.02-8.66v3.02c-7.35 2.53-14.71 5-22.08 7.51-1.28 0.44-2.57 0.87-3.82 1.31"/>
    <path d="m188.83 317.93c84.949-8.133 170.22-13.711 255.63-16.719 2.906-0.106 5.785-0.215 8.691-0.313 67.914-2.238 135.95-3.078 204.04-2.019 38.378 0.574 76.949 1.785 115.6 3.277 13.953 3.801 27.973 7.473 41.883 11.489-115.64-5.461-230.98-6.094-346-2.239-2.945 0.117-5.914 0.164-8.863 0.293-84.149 2.989-168.07 8.516-251.79 16.321-5.503 0.515-11.027 1.011-16.535 1.558-61.996 6.008-123.84 13.383-185.59 21.977v-12.16c55.234-7.676 110.6-14.297 166.09-19.817 5.59-0.547 11.227-1.082 16.84-1.648"/>
    <path d="m4741.8 2095.5c-61.31-3.14-122.72-9.13-184.18-18.25-5.73-0.83-11.41-1.57-17.09-2.48-7.52-1.16-14.98-1.98-22.5-3.25-149.08-25.31-291.84-70.71-428.99-129.74 8.34 1.33 16.68 2.61 25.02 3.9 149.87 60.4 302.29 99.74 456 121.18 5.68 0.8 11.39 1.62 17.11 2.35 58.79 7.69 117.71 12.71 176.78 15.27 1.21 0.04 2.42 0.11 3.63 0.15 3.92 0.18 7.87 0.42 11.81 0.55 25.88 4.77 51.82 9.12 77.8 13.14-37.29 0.2-74.59-0.8-111.94-2.64-1.17-0.07-2.3-0.13-3.45-0.18"/>
    <path d="m1127.5 329.65c153.41 18.164 306.32 45.04 455.99 82.176 3 0.742 6.01 1.528 8.99 2.278 164.03 41.171 324.1 94.55 476.22 162.96 382.77 172.09 704.65 435.75 1028.3 697.12 0.18 0.14 0.34 0.25 0.49 0.37 22.56 18.24 45.16 36.46 67.76 54.63 0.68 0.55 1.4 1.1 2.1 1.68 41.47 33.33 83.05 66.5 124.85 99.33 0.1 0.08 0.15 0.12 0.23 0.18 15.84 12.42 31.66 24.77 47.54 37.1 0.29 0.22 0.59 0.43 0.86 0.64 23.48 18.19 47.03 36.18 70.7 54.07 1.82 1.37 3.66 2.72 5.45 4.1 11.35 8.52 22.66 17.02 34.05 25.5 2.98 2.2 5.97 4.47 8.96 6.69 5.12 3.76 10.26 7.46 15.37 11.22 0.49 0.37 1 0.73 1.51 1.1 41.07 30.17 82.52 59.67 124.49 88.49 0.49 0.34 0.94 0.68 1.44 1 8.36 5.72 16.63 11.49 25 17.14 0.16 0.13 0.28 0.21 0.41 0.29 74.75 50.47 151.2 98.36 229.95 142.88 1.17 0.66 2.32 1.34 3.51 1.99 4.83 2.74 9.61 5.51 14.49 8.2 0.04 0 0.04 0.02 0.06 0.04 19.24 10.7 38.58 21.23 58.11 31.48 32.67 17.2 65.52 33.03 98.43 48.09-6.83-1.18-13.67-2.2-20.52-3.42-48.44-22.99-96.23-47.45-143.23-73.45-0.07-0.04-0.17-0.11-0.23-0.15-4.06-2.23-8.05-4.63-12.13-6.89-1.19-0.68-2.36-1.37-3.55-2.05-78.67-44.2-155.39-92.13-230.2-142.62-0.14-0.07-0.23-0.17-0.37-0.25-8.2-5.54-16.33-11.14-24.51-16.75-0.47-0.32-0.92-0.63-1.39-0.92-26.44-18.17-52.75-36.51-78.75-55.21-15.62-11.24-30.94-22.91-46.42-34.33-0.51-0.37-1.02-0.73-1.47-1.11-5.14-3.77-10.29-7.55-15.37-11.34-3.01-2.23-6.03-4.42-9-6.63-11.45-8.54-23.07-16.9-34.48-25.5-1.75-1.3-3.53-2.58-5.27-3.89-23.63-17.91-47.01-36.15-70.41-54.34-0.27-0.18-0.53-0.38-0.78-0.56-15.84-12.32-31.78-24.46-47.58-36.86-0.08-0.08-0.16-0.14-0.27-0.19-42.07-33.12-83.93-66.57-125.65-100.13-0.7-0.59-1.38-1.12-2.05-1.71-22.6-18.13-45.13-36.3-67.65-54.51-0.16-0.14-0.32-0.26-0.47-0.38-154.07-124.51-307.84-249.42-468.79-365.04-310.09-222.78-641.63-389.88-1009.8-483.58-3.16-0.808-6.28-1.699-9.46-2.512-24.69-6.179-49.54-12.031-74.54-17.554-154.84-34.16-309.44-59.094-463.63-75.547-12.49-1.34-24.98-2.551-37.45-3.75-33.947-3.32-67.861-6.281-101.76-8.762-13.511-4.344-27.14-8.406-40.742-12.578 67.813 4.231 135.79 9.91 203.74 17.324 13.04 1.407 26 2.91 38.99 4.453"/>
   </g>
   <g>
    <path d="m265.86 182.03c3.379 0.332 6.758 0.586 10.18 0.949 51.379 5.118 102.71 11.727 153.9 19.61 10.562 1.609 21.117 3.445 31.664 5.183 142.86 23.567 284.46 57.454 423.14 100.1 13.602 4.172 27.231 8.234 40.742 12.578 13.848 4.434 27.578 9.153 41.352 13.762 4.801 1.582 9.605 3.152 14.387 4.766 215.85 73.281 423.46 167.03 615.98 275.25 422.14 237.3 792.88 561.45 1200.8 821.88 0.26 0.17 0.55 0.33 0.82 0.5 22.46 14.34 44.98 28.47 67.67 42.41 0.75 0.47 1.49 0.92 2.25 1.39 64.49 39.49 130.14 77.04 197.01 112.41 0.41 0.2 0.74 0.39 1.12 0.58 16.77 8.9 33.69 17.46 50.62 26.03 0.04 0.01 0.08 0.03 0.14 0.07 25.92 13.08 51.79 26.2 78.2 38.53 2.93 1.36 5.98 2.61 8.91 3.94 0.66 0.34 1.34 0.64 2.05 0.94 15.12 6.99 30.39 13.75 45.72 20.47 3.56 1.56 7.03 3.2 10.57 4.73 7.09 3.07 14.22 6.09 21.33 9.14 0.5 0.21 1.09 0.41 1.6 0.62 64.96 27.46 131.38 52.52 198.94 75.42 0.12 0.04 0.26 0.11 0.35 0.15 5.1 1.72 10.12 3.54 15.24 5.24 0.1 0.04 0.13 0.06 0.25 0.08 78.01 26.04 157.46 49.07 237.79 69.42 3.23 0.84 6.45 1.74 9.67 2.54 15.28 3.82 30.59 7.42 45.9 11.05 0.27 0.05 0.53 0.11 0.8 0.16 2.33 0.57 4.69 1.13 7.05 1.68 1.88 0.42 3.71 0.87 5.59 1.29 67.83 15.83 136.13 29.96 204.63 42.07 6.85 1.22 13.69 2.24 20.52 3.42 19.48 3.34 38.93 6.68 58.36 9.72 3.95 0.63 7.88 1.19 11.78 1.82 64.18 9.86 128.34 18.1 192.29 25.04 26.66 10.52 53.55 20.5 80.54 30.18-87.77-7.53-175.13-18.22-261.62-31.51-8.34-1.29-16.68-2.57-25.02-3.9-3.83-0.63-7.71-1.2-11.56-1.82-5.02-0.83-9.96-1.78-14.98-2.62-3.79-0.62-7.54-1.34-11.31-1.98-68.46-11.59-136.09-24.87-203.05-39.84-2.71-0.58-5.41-1.16-8.08-1.78-17.79-4.01-35.57-8.13-53.26-12.37-1.96-0.49-3.91-0.99-5.86-1.45-6.41-1.57-12.78-3.15-19.16-4.75-0.32-0.06-0.61-0.14-0.92-0.21-94.34-23.46-187.21-50.37-278.5-81.2-0.07-0.03-0.15-0.05-0.27-0.09-4.39-1.48-8.81-2.84-13.2-4.34-0.12-0.02-0.14-0.04-0.26-0.06-68.67-23.53-136.38-49.46-203.26-77.42-0.49-0.2-0.98-0.42-1.46-0.63-7.15-2.99-14.32-5.97-21.47-9.01-3.55-1.53-7.15-2.99-10.74-4.53-15.33-6.63-30.63-13.46-45.86-20.34-0.59-0.28-1.17-0.52-1.74-0.8-29.61-13.34-59.04-27.18-88.28-41.46-0.08-0.06-0.14-0.08-0.2-0.11-16.87-8.23-33.74-16.48-50.46-25.03-0.32-0.18-0.63-0.33-0.92-0.51-69.03-35.28-136.97-73.42-203.89-114.3-0.76-0.42-1.5-0.87-2.2-1.31-22.12-13.53-44.05-27.42-65.92-41.58-0.4-0.24-0.79-0.49-1.19-0.74-9.27-6.02-18.66-11.8-27.93-17.94-349.64-231.7-675.5-496.85-1033.2-716.92-251.01-154.41-516.08-281.56-793.77-371.71-4.261-1.372-8.48-2.891-12.769-4.27-29.434-9.402-59.027-18.418-88.75-26.98-13.91-4.016-27.93-7.688-41.883-11.489-129.09-35.301-260.68-62.781-394.83-80.816-17.781-2.395-35.621-4.426-53.469-6.535-3.601-0.403-7.203-0.887-10.804-1.289-16.793-1.922-33.61-3.594-50.458-5.235-16.769-1.621-33.542-3.242-50.332-4.621-68.89-5.508-137.96-8.594-207-9.129v-24.914c86.559-0.074 173.32 4.074 259.96 12.414" fill="#a00000"/>
    <path d="m5637.5 1795.2c-45 20.62-90.55 39.53-136.74 56.54-3.81 1.41-7.75 2.7-11.58 4.11-3.15 1.14-6.29 2.21-9.42 3.31-1.34 0.5-2.73 0.99-4.08 1.47-115.17 40.68-233.53 70.77-353.79 91.58-10.76 1.85-21.52 3.56-32.28 5.28-40.35 6.4-80.9 11.89-121.62 16.32-0.8 0.08-1.64 0.19-2.46 0.27-34.87 3.79-69.85 6.78-104.87 9.15-6.29 0.42-12.59 0.81-18.88 1.2-129.98 7.95-260.9 6.84-391.27-1.58-27.58-9.09-55.1-18.45-82.5-28.5 49.78 4.56 99.41 8.4 148.59 11.28 128.89 7.56 258.81 6.77 388.01-3.1 5.53-0.44 11.05-0.79 16.58-1.25 26.29-2.17 52.56-4.79 78.79-7.76 0.84-0.1 1.66-0.18 2.5-0.28 34.61-3.97 69.18-8.43 103.55-13.82 10.75-1.72 21.41-3.7 32.09-5.5 108.99-18.67 216.45-44.8 321.23-79.32 1.41-0.49 2.82-0.99 4.22-1.45 1.55-0.5 3.05-1.08 4.61-1.58 3.99-1.35 7.99-2.76 11.98-4.14 44.21-15.09 87.98-31.47 131.11-49.66 2.07-0.89 4.1-1.87 6.13-2.74 30.72-13.11 61.04-27.17 91.1-41.88v7.91c-21.53 10.94-43.23 21.36-65.04 31.43-1.98 0.91-3.99 1.8-5.96 2.71" fill="#a00000"/>
    <path d="m2528.3 591.06c84.56 81.692 168.86 163.56 253.5 244.78 3.99 3.84 7.99 7.629 11.99 11.457 91.93 88.152 184.37 175.43 278.28 260.37 42.75 38.67 86 76.88 129.67 114.63 0.19 0.14 0.37 0.3 0.55 0.47 8.28 7.15 16.64 14.25 24.98 21.35 4.47 3.84 8.96 7.64 13.45 11.47 9.63 8.18 19.22 16.39 28.91 24.54 0.62 0.52 1.25 1.06 1.85 1.6 36.04 30.24 72.47 59.98 109.14 89.36 0.1 0.03 0.16 0.07 0.22 0.13 16.29 13.04 32.62 26.05 49.08 38.9 0.47 0.36 0.94 0.71 1.37 1.05 23.48 18.31 47.03 36.39 70.78 54.25 2.73 2.07 5.51 4.06 8.22 6.1 10.39 7.79 20.8 15.45 31.21 23.15 3.09 2.24 6.14 4.55 9.2 6.79 4.75 3.46 9.4 7.01 14.12 10.47 0.45 0.3 0.9 0.66 1.33 0.96 35.65 25.9 71.84 51.05 108.23 75.8 0.85 0.56 1.71 1.17 2.55 1.72 11.57 7.86 23.13 15.83 34.79 23.61 0.23 0.14 0.47 0.32 0.7 0.47 75.43 50.06 152.48 97.49 231.43 141.85 0.9 0.51 1.76 1.02 2.65 1.54 18.34 10.3 36.94 20.19 55.47 30.16 0.59 0.28 1.17 0.61 1.74 0.92 62.99 33.72 127.03 65.6 192.46 95 2.58 1.16 5.18 2.21 7.76 3.34 24.43 10.91 48.98 21.62 73.78 31.85 29.99 12.4 60.1 24.01 90.34 35.16 27.4 10.05 54.92 19.41 82.5 28.5 68.98 22.72 138.63 42.51 208.81 59.25 4.06 0.96 8.06 2.08 12.09 3.03 40.03 9.34 80.29 17.42 120.66 24.9 0.84 0.15 1.66 0.28 2.5 0.44 31.5 5.77 63.09 11.09 94.78 15.79 22.78 3.37 45.61 6.48 68.44 9.27 8.81 1.09 17.64 2.19 26.47 3.19 88.34 10 177.16 15.68 266.23 17.66 2.95 0.05 5.92 0.18 8.9 0.24 32.39 0.63 64.77 0.69 97.19 0.28 3.05-0.01 6.15 0.03 9.2-0.01 114.24-1.74 228.65-9.6 342.72-23.13v11.8c-128.33 15.98-257.02 24.81-385.51 25.82-3.09 0.02-6.14 0.11-9.2 0.11-44.92 0.25-89.79-0.66-134.63-2.43-2.72-0.09-5.45-0.2-8.18-0.31-67.29-2.84-134.52-7.76-201.53-15.29-9.57-1.06-19.08-2.4-28.63-3.58-27.95-3.43-55.82-7.3-83.67-11.56-25.98-4.02-51.92-8.37-77.8-13.14-3.16-0.55-6.28-1.18-9.45-1.77-0.98-0.18-1.93-0.35-2.87-0.54-43.46-8.17-86.8-17.29-129.94-27.69-4.04-1-8.09-2.07-12.13-3.08-18.73-4.62-37.48-9.13-56.19-14.17-65.35-17.62-129.69-38.03-193.13-60.74-26.99-9.68-53.88-19.66-80.54-30.18-40.14-15.86-79.87-32.73-119.22-50.43-2.64-1.17-5.31-2.29-7.93-3.49-65.18-29.49-129.26-61.4-192.29-95.38-0.54-0.29-1.11-0.56-1.68-0.87-15.31-8.28-30.48-16.81-45.7-25.32-0.9-0.52-1.87-1.03-2.77-1.54-78.89-44.3-156.06-91.8-231.49-141.8-0.27-0.18-0.54-0.37-0.78-0.53-10.96-7.24-21.93-14.49-32.77-21.84-0.76-0.52-1.51-1.06-2.33-1.59-36.44-24.73-72.56-49.98-108.18-75.78-1.25-0.89-2.44-1.88-3.71-2.78-0.43-0.31-0.84-0.63-1.29-0.96-4.84-3.53-9.57-7.21-14.41-10.74-3.03-2.24-6-4.54-9.01-6.76-10.72-7.9-21.35-15.91-31.99-23.89-2.54-1.89-5.06-3.77-7.56-5.68-23.75-17.84-47.48-35.73-70.88-53.98-0.39-0.3-0.78-0.61-1.17-0.9-16.33-12.77-32.5-25.71-48.73-38.61 0-0.02 0-0.02-0.02-0.02-37.75-30.16-75.16-60.73-112.15-91.78-0.7-0.58-1.42-1.16-2.11-1.74-22.52-18.91-44.94-37.92-67.2-57.08-0.18-0.19-0.38-0.32-0.55-0.51-17.44-15.02-34.84-30.09-52.11-45.26-4.36-3.85-8.81-7.6-13.16-11.44-137.76-121.55-271.49-247.85-404.16-375.37-4.3-4.128-8.61-8.222-12.9-12.351-79.05-76.074-157.84-152.43-236.89-228.51-2.37-2.234-4.72-4.473-7.06-6.738-198.05-190.39-398.43-378.18-611.26-551.5h37.19c223.27 182.01 433.69 380.89 641.79 581.89 2.56 2.461 5.12 4.895 7.64 7.371"/>
   </g>
  </g>
  <g transform="matrix(.73695 0 0 .82421 372.39 30.203)" clip-path="url(#clipPath2855)">
   <path d="m39.751 14.602h176v176h-176v-176z" fill="#c5c7bd"/>
   <path d="m157.34 146.93c-6.578-13.965-18.106-33.973-45.442-56.582-38.519-31.856-75.183-37.801-75.183-37.801 9.1407 1.3281 47.035 9.6562 85.555 35.574 26.593 17.902 42.117 32.148 53.878 41.117-8.937 2.211-16.074 8.973-18.808 17.692" fill="#f03c1f"/>
   <path d="m203.38 154.84c0-11.524-9.348-20.867-20.871-20.867-11.524 0-20.863 9.343-20.863 20.867 0 11.523 9.339 20.863 20.863 20.863 11.523 0 20.871-9.34 20.871-20.863" fill="#f03c1f"/>
   <path d="m176.21 129.23v-76.769h-94.488v94.508h75.605c-0.777 2.488-1.195 5.133-1.195 7.875 0 2.746 0.418 5.386 1.195 7.875h-83.48c-4.3477 0-7.8711-3.528-7.8711-7.875v-110.25c0-4.3554 3.5234-7.8789 7.8711-7.8789h110.24c4.352 0 7.871 3.5235 7.871 7.8789v85.625c-2.933-1.121-6.117-1.746-9.449-1.746-2.172 0-4.277 0.265-6.297 0.761" fill="#08607c"/>
  </g>
 </g>
</svg>
