<?xml version="1.0" encoding="UTF-8" standalone="no"?>
<!DOCTYPE svg PUBLIC "-//W3C//DTD SVG 20010904//EN"
"http://www.w3.org/TR/2001/REC-SVG-20010904/DTD/svg10.dtd">
<!-- Created with Sodipodi ("http://www.sodipodi.com/") -->
<svg
   width="48pt"
   height="48pt"
   viewBox="0 0 256 256"
   overflow="visible"
   enable-background="new 0 0 256 256"
   xml:space="preserve"
   id="svg153"
   sodipodi:version="0.32"
   sodipodi:docname="globe.svg"
   sodipodi:docbase="D:\home\OM4E30~1\icons\svg\place"
   inkscape:version="0.40"
   xmlns="http://www.w3.org/2000/svg"
   xmlns:cc="http://web.resource.org/cc/"
   xmlns:inkscape="http://www.inkscape.org/namespaces/inkscape"
   xmlns:sodipodi="http://sodipodi.sourceforge.net/DTD/sodipodi-0.dtd"
   xmlns:rdf="http://www.w3.org/1999/02/22-rdf-syntax-ns#"
   xmlns:xml="http://www.w3.org/XML/1998/namespace"
   xmlns:dc="http://purl.org/dc/elements/1.1/"
   xmlns:a="http://ns.adobe.com/AdobeSVGViewerExtensions/3.0/"
   xmlns:xlink="http://www.w3.org/1999/xlink"><metadata
   id="metadata54">
  <rdf:RDF
   id="RDF55">
    <cc:Work
   rdf:about=""
   id="Work56">
      <dc:format
   id="format57">image/svg+xml</dc:format>

      <dc:type
   id="type59"
   rdf:resource="http://purl.org/dc/dcmitype/StillImage" />

    </cc:Work>

  </rdf:RDF>

</metadata>


  <defs
   id="defs177">
    
    <radialGradient
   id="XMLID_1_"
   cx="116.8169"
   cy="47.0796"
   r="182.3371"
   fx="116.8169"
   fy="47.0796"
   gradientUnits="userSpaceOnUse">
      <stop
   offset="0"
   style="stop-color:#FFFFFF"
   id="stop157" />


      <stop
   offset="0.5955"
   style="stop-color:#99CCFF"
   id="stop158" />


      <stop
   offset="0.9944"
   style="stop-color:#3399FF"
   id="stop159" />


      <a:midPointStop
   offset="0"
   style="stop-color:#FFFFFF"
   id="midPointStop160" />


      <a:midPointStop
   offset="0.5"
   style="stop-color:#FFFFFF"
   id="midPointStop161" />


      <a:midPointStop
   offset="0.5955"
   style="stop-color:#99CCFF"
   id="midPointStop162" />


      <a:midPointStop
   offset="0.5"
   style="stop-color:#99CCFF"
   id="midPointStop163" />


      <a:midPointStop
   offset="0.9944"
   style="stop-color:#3399FF"
   id="midPointStop164" />


    </radialGradient>


    
    
    
    <linearGradient
   id="XMLID_2_"
   gradientUnits="userSpaceOnUse"
   x1="125.8564"
   y1="56.8018"
   x2="125.8564"
   y2="245.8628">
      <stop
   offset="0"
   style="stop-color:#0066CC"
   id="stop169" />


      <stop
   offset="0.9944"
   style="stop-color:#003366"
   id="stop170" />


      <a:midPointStop
   offset="0"
   style="stop-color:#0066CC"
   id="midPointStop171" />


      <a:midPointStop
   offset="0.5"
   style="stop-color:#0066CC"
   id="midPointStop172" />


      <a:midPointStop
   offset="0.9944"
   style="stop-color:#003366"
   id="midPointStop173" />


    </linearGradient>


    
    
  <linearGradient
   inkscape:collect="always"
   xlink:href="#XMLID_2_"
   id="linearGradient1776"
   gradientUnits="userSpaceOnUse"
   x1="125.8564"
   y1="56.8018"
   x2="125.8564"
   y2="245.8628"
   gradientTransform="matrix(0.996779,0.000000,0.000000,1.019239,5.157120e-2,-4.572054)" />

</defs>


  <sodipodi:namedview
   id="base"
   inkscape:zoom="7.5416667"
   inkscape:cx="24.000000"
   inkscape:cy="24.000000"
   inkscape:window-width="774"
   inkscape:window-height="612"
   inkscape:window-x="22"
   inkscape:window-y="29"
   inkscape:current-layer="svg153" />


  <path
   d="M 207.77691,48.674724 C 224.21591,68.185724 234.12891,93.319724 234.12891,120.63572 C 234.12891,182.55772 183.86491,233.03072 121.90591,233.03072 C 94.776906,233.03072 69.755906,223.21172 50.256906,206.92672 C 70.915906,231.42272 101.76691,247.03072 135.97091,247.03072 C 197.92991,247.03072 248.19391,196.55772 248.19391,134.63572 C 248.19291,100.22672 232.46991,69.276724 207.77691,48.674724 z "
   id="path166"
   style="opacity:0.20000000;stroke:none" />
<path
   opacity="0.2"
   fill="none"
   stroke="none"
   d="M256,256H0V0h256V256z"
   id="path155"
   style="stroke:none;opacity:0.20000000;fill:none;" />

<path
   fill="url(#XMLID_1_)"
   stroke="none"
   d="M126.148,237.98c61.959,0,112.223-50.473,112.223-112.395    c0-61.528-50.262-112.01-112.223-112.01c-61.52,0.003-112.213,50.482-112.213,112.01C13.936,187.508,64.629,237.98,126.148,237.98    z"
   id="path165"
   style="stroke:none;fill:url(#XMLID_1_);" />


<path
   fill="#003366"
   stroke="none"
   d="M126.148,7C60.647,7.003,7.359,60.201,7.359,125.586c0,65.6,53.288,118.971,118.789,118.971    c65.506,0,118.799-53.371,118.799-118.971C244.947,60.197,191.654,7,126.148,7z M126.148,237.98    c-61.52,0-112.213-50.473-112.213-112.395c0-61.528,50.693-112.007,112.213-112.01c61.961,0,112.223,50.482,112.223,112.01    C238.371,187.508,188.107,237.98,126.148,237.98z"
   id="path167"
   style="stroke:none;fill:#808080;fill-opacity:1.0000000;" />

<path
   d="M 88.640320,21.845590 C 88.087107,21.845590 87.482063,22.078996 86.861069,22.437768 C 88.316367,22.000514 89.001154,21.845590 88.640320,21.845590 z M 124.65395,29.031222 L 125.01678,23.644546 L 119.45575,24.002299 L 120.19137,29.032241 L 124.65395,29.032241 L 124.65395,29.031222 z M 61.907699,122.13357 C 60.790310,121.05317 61.537894,116.37895 61.537894,116.37895 C 61.537894,116.37895 44.827888,107.39843 26.635672,102.00259 C 24.391922,101.33702 25.525260,96.613872 27.744090,94.822051 L 27.003483,89.773762 C 26.635672,87.267454 30.719476,75.046784 34.803280,73.973526 C 38.889078,72.889056 34.432478,81.157119 34.432478,81.157119 L 30.348674,83.673619 C 30.348674,83.673619 35.172088,89.420086 36.291471,89.420086 C 37.401883,89.420086 39.258883,86.543795 39.258883,86.543795 L 34.062673,82.960152 L 38.891072,80.796309 L 39.193096,78.901544 L 40.003477,78.639600 L 47.993659,66.262987 C 53.516812,63.952373 60.302885,61.089332 61.167092,60.666348 C 62.652293,59.951861 73.047703,53.847642 74.903706,52.406439 C 76.764693,50.963197 80.841520,51.329103 82.322734,51.329103 C 83.814912,51.329103 86.041717,50.607482 86.410525,46.647741 C 86.781327,42.695134 88.269518,41.975551 89.384914,43.056963 C 90.497320,44.130222 88.266528,45.929178 90.868121,46.647741 C 93.466725,47.370381 95.689542,49.167298 97.550529,47.370381 C 98.908142,46.052505 97.092010,44.554225 95.867966,43.421851 L 116.48236,43.421851 L 118.71514,36.941532 L 113.88874,36.223988 L 96.060344,34.428090 L 96.060344,32.270362 L 94.638937,32.515998 C 96.569698,21.672319 108.03366,23.459045 99.404538,17.181554 C 98.880232,16.796282 91.329630,29.347186 89.408837,29.102568 C 85.928084,28.633719 81.430616,28.597026 80.469721,29.752843 C 79.204808,31.280681 83.317519,24.495610 86.861069,22.437768 C 81.207338,24.141934 63.343061,30.390886 44.456090,50.962178 C 26.402425,70.627366 19.203686,97.120433 19.203686,98.047941 C 19.203686,99.842820 22.919679,100.56444 23.291478,102.72319 C 23.663276,104.86970 16.240262,112.06655 16.240262,115.66038 C 16.240262,117.31665 14.487924,139.47081 20.688887,157.72130 C 27.934475,179.01931 43.398507,196.80706 45.196697,197.97715 L 48.905712,196.17309 C 48.905712,196.17309 40.367302,180.72144 39.996500,179.27819 C 39.628688,177.84718 49.649309,156.99662 54.478704,157.72130 C 59.302119,158.42763 58.191707,159.87699 61.162109,158.07803 C 64.130517,156.28417 65.986520,141.53681 69.327724,140.10988 C 72.671918,138.66460 76.381930,136.87074 76.017109,133.27792 C 75.639329,129.67491 63.018111,123.21090 61.903712,122.13357 L 61.907699,122.13357 z M 142.47537,16.453818 L 132.45175,12.855906 L 134.30875,18.612565 L 142.47537,16.453818 z M 104.97354,29.753862 C 106.09093,29.753862 128.36695,14.663016 126.13716,14.298129 C 123.91434,13.941395 123.53955,14.298129 117.59177,13.579565 C 111.65595,12.858964 105.33737,22.207420 103.85815,23.646585 C 102.37693,25.088807 102.87632,29.753862 104.97354,29.753862 z M 207.19823,138.13357 L 210.07394,134.31958 L 207.19823,133.28404 L 205.04220,136.05738 L 202.52932,139.85914 L 204.68435,140.90183 L 207.19823,138.13357 z M 219.77160,150.61313 L 219.05193,145.06745 L 214.38999,145.06745 L 214.02816,149.21983 L 209.70912,148.53490 L 208.63758,144.02579 L 206.48354,142.64268 L 203.96169,145.75646 L 201.45379,145.06745 L 200.73013,147.48407 L 203.60783,148.18836 L 203.60783,170.70130 L 213.77697,173.20353 C 213.54373,173.61938 213.36730,173.97000 213.30749,174.15958 C 212.58283,176.58842 216.17921,177.63518 218.68910,176.58842 C 219.62807,176.20621 222.58451,173.14849 224.44151,168.62919 C 227.03115,162.33233 229.29184,154.01943 229.74637,151.08096 L 230.91161,148.53694 L 223.72284,151.30417 L 219.76861,150.61721 L 219.77160,150.61313 z M 234.86683,108.68981 L 232.99089,104.97469 C 230.76907,92.160819 225.67154,75.753117 214.74983,58.803180 C 198.30995,33.321197 152.57075,18.622758 152.57075,18.622758 L 150.06086,21.733474 L 148.62051,19.315840 L 145.02513,17.924579 L 145.02513,21.042430 L 148.26466,23.819855 L 146.10763,24.857440 L 137.84034,25.546445 L 119.15472,35.943698 L 120.94593,44.255588 L 118.78691,44.954786 L 117.71836,46.682395 L 123.82463,56.030851 L 124.18447,59.154817 L 119.15472,60.192402 L 119.15472,66.424026 L 116.28200,67.116089 L 116.64383,71.968684 L 92.201812,89.295739 L 92.922483,98.985640 C 94.714692,101.41449 108.73638,115.96819 108.73638,115.96819 C 108.73638,115.96819 124.90215,116.65210 128.49853,114.58101 C 132.09192,112.50278 129.57505,116.65618 130.65556,117.69682 C 131.73208,118.74358 132.09192,126.00973 133.16744,126.70587 C 134.24396,127.39691 133.16744,131.55031 134.60579,132.94361 C 136.04215,134.31958 136.04215,150.95967 136.04215,150.95967 C 136.04215,150.95967 144.66728,165.84769 144.66728,169.66474 C 144.66728,173.47261 144.30745,173.12607 151.13837,172.78259 C 157.96631,172.43605 159.40068,169.66474 160.83504,168.63021 C 162.27838,167.58753 162.27838,165.16072 163.71773,163.08046 C 165.15807,160.99815 167.66398,153.03586 170.90450,150.26863 C 174.13507,147.48916 182.76119,145.40890 183.47588,140.56548 C 184.19456,135.71390 187.42911,131.89991 187.42911,131.89991 L 202.96591,115.09572 L 202.52932,117.35538 L 202.16749,126.00667 L 206.84039,124.27906 L 206.48454,114.91940 L 204.80397,113.10617 L 205.04319,112.84219 C 205.04319,112.84219 203.96169,110.76702 202.53031,110.76702 C 201.09296,110.76702 192.46185,112.84219 191.03047,112.49870 C 189.59013,112.15013 183.47688,95.520229 182.40036,94.834281 C 181.32184,94.140180 174.49789,82.706362 174.49789,82.706362 C 174.49789,82.706362 190.30681,102.10859 192.82268,109.72536 C 194.28197,114.16312 199.76625,110.03317 204.22883,105.40073 L 205.40901,108.34429 L 208.27974,107.64407 L 207.91990,104.18172 L 211.15245,104.18172 L 211.15245,109.37882 L 210.07593,112.15114 L 209.70613,116.65108 L 212.58582,119.42953 L 214.02717,117.00782 L 218.68910,112.49972 L 224.08467,109.72638 L 225.52302,112.49972 L 226.24369,116.31270 L 224.80035,120.46711 L 221.92963,122.89188 L 220.49128,129.12962 L 220.49128,132.23932 L 217.26171,130.16517 L 216.90188,123.58598 L 212.23097,123.93660 L 210.07693,129.81761 L 213.31048,134.67835 L 220.85411,135.71594 L 226.96735,129.81863 L 227.68304,118.39704 L 230.40026,114.72676 C 232.17154,119.38060 233.43645,124.25154 233.43645,128.78716 C 233.43645,133.76104 235.65927,125.34111 233.76738,110.17178 L 234.86982,108.69083 L 234.86982,108.68981 L 234.86683,108.68981 z M 144.30745,73.354848 L 124.90414,72.651574 L 133.16246,65.727886 L 137.47851,65.727886 L 144.30645,70.573346 L 144.30645,73.353829 L 144.30745,73.354848 z M 168.02979,70.931099 L 168.02979,74.048950 L 159.76550,74.048950 L 160.48318,76.130235 L 155.44845,76.827394 L 155.09160,78.552965 L 151.49921,77.865998 L 145.02812,76.471680 L 146.10863,74.745090 L 147.18814,72.657689 L 150.77953,68.851852 L 152.21988,71.625201 L 157.61245,71.276621 L 160.48418,68.156732 L 171.62019,70.235978 L 168.03079,70.935176 L 168.03079,70.931099 L 168.02979,70.931099 z M 168.74149,66.421988 L 164.43441,67.114051 L 163.71673,63.992123 L 169.09934,63.302099 L 169.82300,60.186286 L 173.78320,64.348857 L 168.74149,66.416892 L 168.74149,66.421988 L 168.74149,66.421988 z M 189.58813,174.15652 L 187.07027,176.23475 L 187.42811,181.43796 L 190.66366,181.43796 L 190.66366,176.94108 L 193.54335,173.12097 L 193.54335,165.15664 L 191.74417,164.79991 L 189.59212,174.15652 L 189.58813,174.15652 z M 165.51691,163.77558 C 165.51691,163.77558 163.00005,164.45235 165.87077,165.49911 C 168.74149,166.54383 180.24433,148.53388 180.24433,148.53388 L 170.54068,154.76041 L 165.51293,163.77456 L 165.51691,163.77456 L 165.51691,163.77558 z M 145.95413,230.17183 L 143.80507,228.07730 L 139.49101,227.37504 L 138.77532,229.47162 L 133.02789,228.78057 L 132.66706,225.98990 L 128.35699,225.98990 L 123.68708,228.78057 L 115.42776,228.78057 L 114.71108,226.68400 L 101.42401,225.28255 L 99.264989,227.37504 L 93.881385,225.98990 L 93.162707,221.09653 L 90.648830,220.73980 L 87.775116,225.98888 L 78.080441,225.63622 C 79.811847,226.47607 94.295048,235.30676 116.50129,237.15464 C 145.95313,239.58960 159.96186,232.26943 159.96186,232.26943 L 158.88335,231.21859 L 145.95313,230.17591 L 145.95313,230.17183 L 145.95413,230.17183 z "
   id="path174"
   style="fill:url(#linearGradient1776);stroke:none" />


</svg>
