<?xml version="1.0" encoding="UTF-8"?>
<!DOCTYPE svg PUBLIC "-//W3C//DTD SVG 1.1//EN" "http://www.w3.org/Graphics/SVG/1.1/DTD/svg11.dtd">
<!-- Creator: CorelDRAW -->
<svg xmlns="http://www.w3.org/2000/svg" xml:space="preserve" width="0.24in" height="0.24in" style="shape-rendering:geometricPrecision; text-rendering:geometricPrecision; image-rendering:optimizeQuality; fill-rule:evenodd; clip-rule:evenodd"
viewBox="0 0 0.24 0.24">
 <defs>
  <style type="text/css">
   <![CDATA[
    .str2 {stroke:#669966;stroke-width:0.003;stroke-linecap:round;stroke-linejoin:round}
    .str1 {stroke:#999933;stroke-width:0.003;stroke-linecap:round;stroke-linejoin:round}
    .str0 {stroke:#CC3300;stroke-width:0.003;stroke-linecap:round;stroke-linejoin:round}
    .str4 {stroke:#CCCCFF;stroke-width:0.003;stroke-linecap:round;stroke-linejoin:round}
    .str3 {stroke:#FFFF66;stroke-width:0.003;stroke-linecap:round;stroke-linejoin:round}
    .str8 {stroke:#FFFF99;stroke-width:0.003}
    .str9 {stroke:#FFFFCC;stroke-width:0.003}
    .str10 {stroke:#4C4C4C;stroke-width:0.00666535;stroke-linecap:round;stroke-linejoin:round}
    .str7 {stroke:#FF6633;stroke-width:0.00666535;stroke-linecap:round;stroke-linejoin:round}
    .str5 {stroke:#FFCC00;stroke-width:0.00666535;stroke-linecap:round;stroke-linejoin:round}
    .str6 {stroke:#FFCC99;stroke-width:0.00666535;stroke-linecap:round;stroke-linejoin:round}
    .fil7 {fill:none}
    .fil2 {fill:#99FF99}
    .fil0 {fill:#CC3300}
    .fil3 {fill:url(#id0)}
    .fil1 {fill:url(#id1)}
    .fil4 {fill:url(#id2)}
    .fil6 {fill:url(#id3)}
    .fil5 {fill:url(#id4)}
   ]]>
  </style>
  <linearGradient id="id0" gradientUnits="userSpaceOnUse" x1="0.258909" y1="0.158909" x2="0.0681614" y2="0.135067">
   <stop offset="0" style="stop-color:#FAD3A2"/>
   <stop offset="0.611765" style="stop-color:#FCE951"/>
   <stop offset="1" style="stop-color:yellow"/>
  </linearGradient>
  <linearGradient id="id1" gradientUnits="userSpaceOnUse" x1="0.00476378" y1="0.188106" x2="0.132772" y2="0.0743268">
   <stop offset="0" style="stop-color:#E1C19B"/>
   <stop offset="0.611765" style="stop-color:#E4D45B"/>
   <stop offset="1" style="stop-color:#E7E71A"/>
  </linearGradient>
  <linearGradient id="id2" gradientUnits="userSpaceOnUse" x1="0.119295" y1="0.17285" x2="0.164949" y2="0.143638">
   <stop offset="0" style="stop-color:#00CCFF"/>
   <stop offset="0.611765" style="stop-color:#4CCCE6"/>
   <stop offset="1" style="stop-color:#99CCCC"/>
  </linearGradient>
  <linearGradient id="id3" gradientUnits="userSpaceOnUse" x1="0.122669" y1="0.129988" x2="0.213173" y2="0.0207205">
   <stop offset="0" style="stop-color:#CC9933"/>
   <stop offset="1" style="stop-color:#FF9933"/>
  </linearGradient>
  <linearGradient id="id4" gradientUnits="userSpaceOnUse" xlink:href="#id2" x1="0.169465" y1="0.15828" x2="0.209732" y2="0.132516">
  </linearGradient>
 </defs>
 <g id="Layer_x0020_1">
  <metadata id="CorelCorpID_0Corel-Layer"/>
  <g id="_124429664">
   <path id="_158592640" class="fil0 str0" d="M0.0459685 0.0473543c-0.013126,0.0152559 -0.0260866,0.0303031 -0.0388661,0.0451575 0.00582677,-0.00109843 0.0117362,-0.00222441 0.0176457,-0.00335827 0.010248,-0.0143858 0.0205748,-0.0289252 0.0309843,-0.043622 -0.00325197,0.000622047 -0.00650787,0.00124016 -0.00976378,0.00182283z"/>
   <path id="_123075352" class="fil1 str1" d="M0.026748 0.167906c-0.000374016,-0.0140039 -0.000728346,-0.0282087 -0.00109055,-0.0425709 -0.000177165,-0.00724803 -0.000389764,-0.0145827 -0.000562992,-0.0219449 -0.000173228,-0.00736614 -0.000370079,-0.0147795 -0.000543307,-0.0222047 0.00442913,-0.0050748 0.00914173,-0.0104409 0.0141496,-0.0161339 0.00532677,-0.00605118 0.011,-0.0125669 0.0170315,-0.0195197 0.00662205,0.00614567 0.0136417,0.0126772 0.0210748,0.0195551 0.00792126,0.00733071 0.0164331,0.0151654 0.0254724,0.0235039 -7.08661e-005,0.010752 -0.00015748,0.0214134 -0.000216535,0.0319803 -6.29921e-005,0.0106024 -0.000137795,0.0211024 -0.000204724,0.0314803 -6.29921e-005,0.0102047 -0.000181102,0.0203228 -0.000248031,0.0303465 -7.08661e-005,0.0100354 -0.00011811,0.0199882 -0.000181102,0.029815 -0.0166181,-0.00982283 -0.0311575,-0.0184803 -0.0439646,-0.0260866 -0.0113819,-0.00675984 -0.0215748,-0.0127795 -0.0307165,-0.0182205z"/>
   <path id="_158593272" class="fil2 str2" d="M0.0472559 0.132012c0.00309055,0.00105512 0.00627953,0.00217717 0.00959449,0.00332283 0.00338976,0.00116929 0.00691339,0.00240551 0.0105945,0.00366535 0.00211811,0.000724409 0.0039252,0.00274016 0.00393307,0.0043937 5.90551e-005,0.00868504 0.000110236,0.0173583 0.000161417,0.0258858 4.33071e-005,0.00851575 9.05512e-005,0.0169528 0.000149606,0.0253268 -0.00494882,-0.00296063 -0.00968898,-0.0057874 -0.0142244,-0.00848031 -0.00434252,-0.0025748 -0.00850787,-0.00502362 -0.0124843,-0.0073937 -0.000145669,-0.00738583 -0.000283465,-0.0148386 -0.000413386,-0.0223465 -0.000133858,-0.00753543 -0.00026378,-0.0151693 -0.000385827,-0.0228031 -2.3622e-005,-0.00144488 0.00133465,-0.00216535 0.0030748,-0.00157087z"/>
   <path id="_158593672" class="fil3 str3" d="M0.102 0.212c0.0199173,-0.00782283 0.0388346,-0.0152165 0.0566929,-0.0222126 0.016937,-0.00663386 0.033063,-0.0129567 0.0483976,-0.0189646 0.000452756,-0.00844094 0.000905512,-0.0169488 0.00135827,-0.0255079 0.000452756,-0.0085315 0.000933071,-0.0171654 0.00140945,-0.0258661 0.000480315,-0.00879134 0.000956693,-0.017689 0.00142913,-0.0266654 0.000468504,-0.00893307 0.000980315,-0.0179528 0.00147638,-0.0270433 -0.0158937,0.00351969 -0.0326693,0.00724803 -0.050311,0.0111575 -0.00940157,0.00208661 -0.0190669,0.00422047 -0.0290197,0.00642126 -0.00983858,0.0021811 -0.0199606,0.00441732 -0.0303465,0.00672835 -0.00011811,0.0106339 -0.000240157,0.0211535 -0.000311024,0.0315709 -7.48031e-005,0.0104409 -0.000149606,0.0207874 -0.000251969,0.0310276 -9.84252e-005,0.0100748 -0.000192913,0.0200472 -0.000271654,0.0299331 -7.87402e-005,0.00989764 -0.000165354,0.0197165 -0.000251969,0.0294213z"/>
   <path id="_124792680" class="fil4 str4" d="M0.119539 0.130402c0.0102402,-0.00245276 0.0204685,-0.00637795 0.0310472,-0.00892913 0.00166535,-0.000397638 0.0029685,0.00114173 0.00290551,0.00338189 -0.000216535,0.00748031 -0.000492126,0.014937 -0.000708661,0.0222992 -0.000220472,0.0073189 -0.000444882,0.0146457 -0.000649606,0.0218701 -6.29921e-005,0.00218898 -0.00148425,0.00442126 -0.00309449,0.00493307 -0.0104173,0.00329921 -0.0203228,0.00806299 -0.0303858,0.0112598 -0.00179921,0.000566929 -0.00325984,-0.000830709 -0.00322835,-0.0031378 0.000102362,-0.00759843 0.000224409,-0.0153071 0.000326772,-0.0230315 0.000102362,-0.00776772 0.000255906,-0.015622 0.000370079,-0.0234803 3.54331e-005,-0.0023937 0.00158268,-0.00472835 0.00341732,-0.00516535z"/>
   <path id="_158650728" class="fil5 str4" d="M0.170787 0.115878c0.00916535,-0.00222047 0.0183976,-0.00550394 0.0277362,-0.00775984 0.00141732,-0.00034252 0.00251969,0.00112205 0.00241732,0.00322047 -0.000350394,0.0069685 -0.000677165,0.0139567 -0.00101969,0.0208701 -0.000338583,0.00684252 -0.000716535,0.0136654 -0.00103937,0.0204646 -9.44882e-005,0.00205512 -0.00133858,0.00411417 -0.00275591,0.00456693 -0.00916535,0.00292913 -0.0182559,0.00688976 -0.0272362,0.00975984 -0.00157087,0.0005 -0.00276772,-0.000834646 -0.00269685,-0.00298425 0.000251969,-0.00709843 0.000535433,-0.0142953 0.000787402,-0.0214961 0.000259843,-0.00722835 0.0005,-0.0145551 0.000779528,-0.0219055 7.87402e-005,-0.00220866 0.00147638,-0.0043622 0.00302756,-0.00473622z"/>
   <path id="_123913440" class="fil6 str0" d="M0.0459685 0.0473543c0.0107283,0.0103071 0.0216457,0.0207441 0.0327008,0.0313228 0.0112126,0.0107244 0.022622,0.021626 0.0341654,0.032685 0.0189843,-0.00467717 0.0383858,-0.00948425 0.0581575,-0.014374 0.0201811,-0.00498819 0.0408268,-0.0100945 0.0619055,-0.0153425 -0.0105354,-0.00925984 -0.0209213,-0.018378 -0.0311772,-0.0274055 -0.0101181,-0.00890157 -0.0201102,-0.0177283 -0.03,-0.0264488 -0.0222008,0.00347244 -0.0438976,0.00684646 -0.0650748,0.0101339 -0.0206654,0.0032126 -0.0408976,0.00635433 -0.0606772,0.00942913z"/>
   <path id="_124455392" class="fil7 str5" d="M0.0573307 0.0498425c0.00930315,0.00906693 0.0187598,0.0182402 0.0282992,0.0275197 0.00965354,0.00938583 0.0194646,0.0188976 0.0293858,0.0285315"/>
   <path id="_158596616" class="fil7 str6" d="M0.0837638 0.0755157c0.0102874,0.00998425 0.020689,0.0201102 0.031252,0.030378"/>
   <path id="_123385208" class="fil7 str7" d="M0.228815 0.0780748c-0.0179685,0.0043937 -0.0356339,0.00871654 -0.0529488,0.012937 -0.0170039,0.00414173 -0.0337598,0.00823622 -0.0501575,0.0122244"/>
   <path id="_158615216" class="fil7 str5" d="M0.198362 0.0847008c-0.0125118,0.00319291 -0.024874,0.00634646 -0.0370551,0.00945276 -0.0120118,0.00306299 -0.0238937,0.00610236 -0.0355984,0.00908268"/>
   <path id="_158677128" class="fil7 str6" d="M0.161331 0.0941496c-0.015685,0.00399213 -0.0311339,0.00791732 -0.046315,0.0117441"/>
   <path id="_158560936" class="fil7 str8" d="M0.102795 0.12126c-0.000141732,0.0150315 -0.000283465,0.0301339 -0.000405512,0.0452047 -0.00011811,0.0151417 -0.000244094,0.0303307 -0.000389764,0.0455354"/>
   <path id="_124473672" class="fil7 str9" d="M0.10239 0.166445c-6.29921e-005,0.00759843 -0.000122047,0.0151811 -0.000181102,0.0227559 -5.90551e-005,0.00759449 -0.000145669,0.0152047 -0.000208661,0.0227992"/>
   <path id="_124725512" class="fil7 str10" d="M0.207091 0.170823c0.000744094,-0.0140512 0.00151181,-0.0280748 0.00225197,-0.0420748 0.000732283,-0.0139764 0.00149606,-0.0279134 0.00227165,-0.0418228 0.00702362,-0.00174803 0.0141063,-0.00350394 0.0212835,-0.00527953 -0.0105354,-0.00925984 -0.0209213,-0.018378 -0.0311772,-0.0274055 -0.0101181,-0.00890157 -0.0201102,-0.0177283 -0.03,-0.0264488 -0.0222008,0.00347244 -0.0438976,0.00684646 -0.0650748,0.0101339 -0.0206654,0.0032126 -0.0408976,0.00635433 -0.0606772,0.00942913 -0.013126,0.0152559 -0.0260866,0.0303031 -0.0388661,0.0451575 0.00582677,-0.00109843 0.0117362,-0.00222441 0.0176457,-0.00335827 0.00034252,0.0130433 0.00065748,0.0261339 0.000988189,0.0392165 0.000330709,0.0131299 0.000665354,0.0263307 0.00101181,0.0395354 0.0119528,0.00711024 0.024126,0.0143346 0.036437,0.0216457 0.0125276,0.00744094 0.0252992,0.015 0.0382441,0.0226614 0.0168228,-0.00656693 0.0339764,-0.0132874 0.0514094,-0.0201142 0.0177638,-0.00694882 0.0358386,-0.0140591 0.054252,-0.0212756z"/>
  </g>
 </g>
</svg>
