<?xml version="1.0" encoding="UTF-8"?>
<!DOCTYPE svg PUBLIC "-//W3C//DTD SVG 1.1//EN" "http://www.w3.org/Graphics/SVG/1.1/DTD/svg11.dtd">
<!-- Creator: CorelDRAW -->
<svg xmlns="http://www.w3.org/2000/svg" xml:space="preserve" width="0.24in" height="0.24in" style="shape-rendering:geometricPrecision; text-rendering:geometricPrecision; image-rendering:optimizeQuality; fill-rule:evenodd; clip-rule:evenodd"
viewBox="0 0 0.24 0.24">
 <defs>
  <style type="text/css">
   <![CDATA[
    .str2 {stroke:#669966;stroke-width:0.003;stroke-linecap:round;stroke-linejoin:round}
    .str1 {stroke:#999933;stroke-width:0.003;stroke-linecap:round;stroke-linejoin:round}
    .str0 {stroke:#CC3300;stroke-width:0.003;stroke-linecap:round;stroke-linejoin:round}
    .str4 {stroke:#CCCCFF;stroke-width:0.003;stroke-linecap:round;stroke-linejoin:round}
    .str3 {stroke:#FFFF66;stroke-width:0.003;stroke-linecap:round;stroke-linejoin:round}
    .str8 {stroke:#FFFF99;stroke-width:0.003}
    .str9 {stroke:#FFFFCC;stroke-width:0.003}
    .str10 {stroke:#4C4C4C;stroke-width:0.00666535;stroke-linecap:round;stroke-linejoin:round}
    .str7 {stroke:#FF6633;stroke-width:0.00666535;stroke-linecap:round;stroke-linejoin:round}
    .str5 {stroke:#FFCC00;stroke-width:0.00666535;stroke-linecap:round;stroke-linejoin:round}
    .str6 {stroke:#FFCC99;stroke-width:0.00666535;stroke-linecap:round;stroke-linejoin:round}
    .fil7 {fill:none}
    .fil2 {fill:#99FF99}
    .fil0 {fill:#CC3300}
    .fil3 {fill:url(#id0)}
    .fil9 {fill:url(#id1)}
    .fil1 {fill:url(#id2)}
    .fil8 {fill:url(#id3)}
    .fil4 {fill:url(#id4)}
    .fil5 {fill:url(#id5)}
    .fil6 {fill:url(#id6)}
    .fil10 {fill:url(#id7)}
    .fil12 {fill:url(#id8)}
    .fil11 {fill:url(#id9)}
   ]]>
  </style>
  <linearGradient id="id0" gradientUnits="userSpaceOnUse" x1="0.159465" y1="0.098878" x2="0.0741339" y2="0.0882165">
   <stop offset="0" style="stop-color:#FAD3A2"/>
   <stop offset="0.611765" style="stop-color:#FCE951"/>
   <stop offset="1" style="stop-color:yellow"/>
  </linearGradient>
  <linearGradient id="id1" gradientUnits="userSpaceOnUse" xlink:href="#id0" x1="0.254559" y1="0.170555" x2="0.085685" y2="0.149445">
  </linearGradient>
  <linearGradient id="id2" gradientUnits="userSpaceOnUse" x1="0.014189" y1="0.115488" x2="0.0881457" y2="0.0497559">
   <stop offset="0" style="stop-color:#E1C19B"/>
   <stop offset="0.611765" style="stop-color:#E4D45B"/>
   <stop offset="1" style="stop-color:#E7E71A"/>
  </linearGradient>
  <linearGradient id="id3" gradientUnits="userSpaceOnUse" xlink:href="#id2" x1="0.0295551" y1="0.196398" x2="0.142886" y2="0.0956654">
  </linearGradient>
  <linearGradient id="id4" gradientUnits="userSpaceOnUse" x1="0.0874094" y1="0.110709" x2="0.116555" y2="0.0920591">
   <stop offset="0" style="stop-color:#00CCFF"/>
   <stop offset="0.611765" style="stop-color:#4CCCE6"/>
   <stop offset="1" style="stop-color:#99CCCC"/>
  </linearGradient>
  <linearGradient id="id5" gradientUnits="userSpaceOnUse" xlink:href="#id4" x1="0.121941" y1="0.100744" x2="0.14778" y2="0.0842126">
  </linearGradient>
  <linearGradient id="id6" gradientUnits="userSpaceOnUse" x1="0.0773543" y1="0.0786102" x2="0.128331" y2="0.0170591">
   <stop offset="0" style="stop-color:#CC9933"/>
   <stop offset="1" style="stop-color:#FF9933"/>
  </linearGradient>
  <linearGradient id="id7" gradientUnits="userSpaceOnUse" xlink:href="#id4" x1="0.130957" y1="0.18289" x2="0.171366" y2="0.157031">
  </linearGradient>
  <linearGradient id="id8" gradientUnits="userSpaceOnUse" xlink:href="#id6" x1="0.133945" y1="0.144945" x2="0.214071" y2="0.0482047">
  </linearGradient>
  <linearGradient id="id9" gradientUnits="userSpaceOnUse" xlink:href="#id4" x1="0.175374" y1="0.169992" x2="0.21102" y2="0.147181">
  </linearGradient>
 </defs>
 <g id="Layer_x0020_1">
  <metadata id="CorelCorpID_0Corel-Layer"/>
  <g id="_124541592">
   <g>
    <polygon id="_123924408" class="fil0 str0" points="0.0388189,0.0271496 0.00846457,0.0562008 0.022374,0.0547362 0.0462441,0.0265276 "/>
    <path id="_124788800" class="fil1 str1" d="M0.0237992 0.108732c-0.000251969,-0.00953543 -0.000507874,-0.0192362 -0.000767717,-0.0290709 -0.00026378,-0.00998425 -0.000531496,-0.0201457 -0.000807087,-0.0304528 0.00346063,-0.00325591 0.00711811,-0.00670866 0.0109764,-0.0103465 0.00409449,-0.00385433 0.00843307,-0.00796457 0.0130433,-0.0123346 0.00493307,0.00461811 0.010126,0.00947244 0.0155866,0.0145394 0.00575984,0.00534646 0.0118504,0.0110039 0.0182795,0.0169567 -0.000248031,0.0141732 -0.000492126,0.0280669 -0.000728346,0.0416378 -0.000232283,0.0132795 -0.000464567,0.026315 -0.000688976,0.0390512 -0.0117717,-0.00642913 -0.0222756,-0.0121654 -0.031689,-0.0173071 -0.00848425,-0.00463386 -0.0161929,-0.00884252 -0.0232047,-0.0126732z"/>
    <path id="_124456144" class="fil2 str2" d="M0.0395354 0.0849134c0.00232677,0.000818898 0.00472441,0.00166535 0.00718898,0.00252756 0.00253543,0.000889764 0.00514567,0.00181102 0.00785433,0.00275984 0.0015748,0.000551181 0.00288189,0.00192126 0.00288189,0.00302756 0,0.00577559 0,0.0115157 0,0.0171811 0,0.00562205 -3.93701e-006,0.0112047 -3.93701e-006,0.0167087 -0.00362598,-0.00198425 -0.00711024,-0.00388583 -0.0104528,-0.0057126 -0.00322441,-0.00176378 -0.00632677,-0.00345669 -0.00932677,-0.00509449 -7.48031e-005,-0.00495276 -0.000161417,-0.00997244 -0.00023622,-0.0150197 -7.87402e-005,-0.00508661 -0.000161417,-0.0102362 -0.000240157,-0.0154055 -1.5748e-005,-0.000988189 0.00102756,-0.00143307 0.00233465,-0.000972441z"/>
    <path id="_124146104" class="fil3 str3" d="M0.0790984 0.138567c0.0139606,-0.00499213 0.0269173,-0.00962992 0.0389567,-0.0139291 0.0112126,-0.00401181 0.0217047,-0.00775984 0.0315315,-0.0112677 0.000783465,-0.0103504 0.00157874,-0.0208858 0.0023937,-0.0315945 0.000822835,-0.0108858 0.00166535,-0.0219685 0.00252362,-0.033252 -0.010185,0.00144882 -0.0210984,0.003 -0.0327992,0.00466535 -0.0126299,0.00179528 -0.0262717,0.00373622 -0.0410394,0.00583465 -0.000275591,0.0139843 -0.000547244,0.0276575 -0.000811024,0.0410354 -0.000255906,0.0131063 -0.000507874,0.0259409 -0.000755906,0.0385079z"/>
    <path id="_123491584" class="fil4 str4" d="M0.0919685 0.0860276c0.00710236,-0.00128346 0.0141457,-0.00348425 0.0213346,-0.00480315 0.00112205,-0.000204724 0.00198031,0.000811024 0.00191339,0.00224803 -0.000220472,0.00475197 -0.000452756,0.00948425 -0.000673228,0.0141614 -0.000220472,0.00464567 -0.000440945,0.00927559 -0.00065748,0.0138465 -6.29921e-005,0.00138583 -0.00102362,0.00276772 -0.00211811,0.00307087 -0.00706693,0.00197244 -0.0138622,0.00490551 -0.0208268,0.00685039 -0.00125197,0.000346457 -0.00225984,-0.000570866 -0.00221654,-0.00204724 0.000133858,-0.00490157 0.00026378,-0.00987008 0.000397638,-0.0148583 0.000137795,-0.00502756 0.000279528,-0.0101102 0.000417323,-0.0152126 4.33071e-005,-0.00155118 0.00114961,-0.00302362 0.00242913,-0.00325591z"/>
    <path id="_158592848" class="fil5 str4" d="M0.126823 0.0783228c0.00602362,-0.00110236 0.0120551,-0.00285433 0.0180787,-0.00394882 0.000929134,-0.000165354 0.00161024,0.000779528 0.00151575,0.00208268 -0.00030315,0.00433465 -0.000614173,0.00865748 -0.000917323,0.0129331 -0.00030315,0.00424409 -0.000606299,0.00847244 -0.000901575,0.0126654 -9.05512e-005,0.00126378 -0.000897638,0.00251575 -0.00181496,0.00277165 -0.00591732,0.00166142 -0.0118465,0.00397638 -0.0177598,0.0056378 -0.00103543,0.000287402 -0.00181102,-0.000574803 -0.00174016,-0.00192126 0.000244094,-0.00446063 0.000492126,-0.00898031 0.000740157,-0.0135079 0.000248031,-0.00456693 0.000496063,-0.00917717 0.000748031,-0.0138071 7.48031e-005,-0.00140551 0.00100787,-0.00271654 0.00205118,-0.00290551z"/>
    <polygon id="_123479968" class="fil6 str0" points="0.0388189,0.0271496 0.087437,0.0734213 0.166866,0.0592756 0.128378,0.022252 "/>
    <line id="_123829072" class="fil7 str5" x1="0.0474213" y1="0.0295866" x2="0.0890039" y2= "0.0699252" />
    <line id="_158652624" class="fil7 str6" x1="0.0668583" y1="0.0484409" x2="0.0890039" y2= "0.0699252" />
    <line id="_124831712" class="fil7 str7" x1="0.164402" y1="0.0569094" x2="0.0964646" y2= "0.0686063" />
    <line id="_124516568" class="fil7 str5" x1="0.145091" y1="0.0597283" x2="0.0964646" y2= "0.0686063" />
    <line id="_158652840" class="fil7 str6" x1="0.120776" y1="0.0641693" x2="0.0890039" y2= "0.0699252" />
    <line id="_124303208" class="fil7 str8" x1="0.0802638" y1="0.0795433" x2="0.0790984" y2= "0.138567" />
    <line id="_158653056" class="fil7 str9" x1="0.0796811" y1="0.109055" x2="0.0790984" y2= "0.138567" />
    <polygon id="_124833200" class="fil7 str10" points="0.149587,0.11337 0.153504,0.0616575 0.166866,0.0592756 0.128378,0.022252 0.0388189,0.0271496 0.00846457,0.0562008 0.022374,0.0547362 0.0237992,0.108732 0.0786929,0.138713 "/>
   </g>
   <g>
    <path id="_158592640" class="fil0 str0" d="M0.0660354 0.0717874c-0.011622,0.0135079 -0.0230945,0.0268307 -0.0344094,0.0399803 0.00515748,-0.000972441 0.0103898,-0.0019685 0.015622,-0.00297244 0.0090748,-0.0127362 0.0182165,-0.0256102 0.0274331,-0.038622 -0.00288189,0.000551181 -0.00576378,0.00109843 -0.00864567,0.00161417z"/>
    <path id="_123075352" class="fil8 str1" d="M0.0490197 0.178516c-0.000330709,-0.0123976 -0.000645669,-0.0249724 -0.000964567,-0.037689 -0.00015748,-0.00641732 -0.000346457,-0.0129094 -0.0005,-0.0194291 -0.000153543,-0.00651969 -0.000326772,-0.0130827 -0.000480315,-0.0196575 0.00392126,-0.00449213 0.00809449,-0.00924409 0.0125276,-0.0142835 0.00471654,-0.00535827 0.00973622,-0.011126 0.0150787,-0.0172835 0.0058622,0.00544094 0.0120748,0.0112244 0.0186575,0.017315 0.00701181,0.00648819 0.0145472,0.0134252 0.0225512,0.0208071 -6.29921e-005,0.00951969 -0.000137795,0.0189606 -0.000192913,0.028315 -5.51181e-005,0.00938583 -0.000122047,0.0186811 -0.000181102,0.0278701 -5.51181e-005,0.00903543 -0.00015748,0.0179921 -0.000216535,0.0268661 -6.29921e-005,0.00888583 -0.000106299,0.0176969 -0.000161417,0.0263976 -0.0147126,-0.00869685 -0.0275866,-0.0163622 -0.0389252,-0.0230945 -0.0100748,-0.00598425 -0.0190984,-0.011315 -0.0271929,-0.0161339z"/>
    <path id="_158593272" class="fil2 str2" d="M0.0671772 0.14674c0.00273622,0.000933071 0.00555906,0.0019252 0.00849213,0.00294094 0.003,0.00103543 0.00612205,0.00212992 0.00938189,0.00324409 0.00187402,0.000641732 0.00347244,0.0024252 0.00348031,0.00388976 5.11811e-005,0.00768898 9.84252e-005,0.0153701 0.000141732,0.0229173 3.93701e-005,0.00753937 8.26772e-005,0.0150118 0.000133858,0.0224252 -0.00438189,-0.00262205 -0.00857874,-0.00512598 -0.0125945,-0.00750787 -0.00384252,-0.00227953 -0.0075315,-0.00444882 -0.0110512,-0.00654724 -0.000129921,-0.00653937 -0.000251969,-0.0131378 -0.000366142,-0.0197835 -0.00011811,-0.00667323 -0.000232283,-0.0134291 -0.00034252,-0.020189 -1.9685e-005,-0.00127953 0.0011811,-0.00191732 0.00272441,-0.00138976z"/>
    <path id="_158593672" class="fil9 str3" d="M0.115642 0.217555c0.0176339,-0.0069252 0.0343819,-0.0134724 0.0501929,-0.0196654 0.0149961,-0.00587402 0.0292717,-0.0114724 0.0428504,-0.0167913 0.000397638,-0.00747244 0.000799213,-0.0150039 0.00120079,-0.0225827 0.000401575,-0.00755118 0.000826772,-0.0151969 0.00124803,-0.0228976 0.000425197,-0.00778346 0.000846457,-0.0156614 0.00126378,-0.0236102 0.000417323,-0.00790945 0.000870079,-0.0158937 0.00130709,-0.0239409 -0.0140709,0.00311417 -0.0289213,0.00641732 -0.0445394,0.00987795 -0.00832677,0.00184646 -0.0168819,0.00373622 -0.0256929,0.00568504 -0.0087126,0.00192913 -0.0176732,0.00390945 -0.0268661,0.00595669 -0.000106299,0.00941339 -0.000212598,0.0187283 -0.000275591,0.0279488 -6.69291e-005,0.00924409 -0.000133858,0.0184055 -0.000224409,0.0274724 -8.66142e-005,0.00891732 -0.000169291,0.017748 -0.000240157,0.0265 -7.08661e-005,0.00876378 -0.000145669,0.0174567 -0.000224409,0.0260472z"/>
    <path id="_124792680" class="fil10 str4" d="M0.131169 0.145315c0.00906693,-0.00217323 0.018122,-0.00564961 0.0274882,-0.00790551 0.00147638,-0.000354331 0.00262992,0.00100787 0.0025748,0.00299213 -0.000192913,0.00662205 -0.000437008,0.0132244 -0.000629921,0.0197441 -0.000192913,0.00648031 -0.000393701,0.0129646 -0.000574803,0.0193622 -5.51181e-005,0.00193701 -0.00131496,0.00391339 -0.00274016,0.00436614 -0.00922047,0.00292126 -0.0179921,0.0071378 -0.0269016,0.0099685 -0.00159055,0.000503937 -0.00288583,-0.00073622 -0.00285827,-0.00277559 9.05512e-005,-0.00672835 0.000200787,-0.0135551 0.000291339,-0.0203937 9.05512e-005,-0.00687402 0.000224409,-0.0138307 0.000326772,-0.0207874 3.14961e-005,-0.00211811 0.00140157,-0.00418504 0.00302362,-0.00457087z"/>
    <path id="_158650728" class="fil11 str4" d="M0.176543 0.132457c0.00811417,-0.0019685 0.0162874,-0.00487402 0.0245551,-0.00687008 0.00125591,-0.00030315 0.00223228,0.000992126 0.00214173,0.00285039 -0.000311024,0.00616929 -0.000602362,0.0123543 -0.000905512,0.0184764 -0.000299213,0.00605906 -0.000633858,0.0120984 -0.000917323,0.0181181 -8.66142e-005,0.0018189 -0.00118504,0.00364173 -0.00244094,0.00404331 -0.00811417,0.00259449 -0.0161614,0.00609843 -0.0241142,0.00864173 -0.00138976,0.000440945 -0.00244882,-0.000740157 -0.00238583,-0.00264173 0.000220472,-0.0062874 0.000472441,-0.0126575 0.00069685,-0.0190315 0.000228346,-0.00640157 0.000440945,-0.0128858 0.000688976,-0.0193937 7.08661e-005,-0.00195669 0.00130709,-0.0038622 0.0026811,-0.00419291z"/>
    <path id="_123913440" class="fil12 str0" d="M0.0660354 0.0717874c0.0095,0.00912598 0.0191654,0.0183661 0.0289528,0.0277323 0.0099252,0.00949606 0.0200276,0.0191457 0.030248,0.028937 0.0168071,-0.00414173 0.0339843,-0.00839764 0.0514882,-0.0127244 0.0178661,-0.00441732 0.0361457,-0.00893701 0.0548071,-0.0135827 -0.00932677,-0.00820079 -0.0185236,-0.0162717 -0.0276024,-0.0242638 -0.00895669,-0.00788189 -0.0178031,-0.0156969 -0.0265591,-0.0234173 -0.0196575,0.0030748 -0.0388661,0.00606299 -0.0576142,0.00897244 -0.0182953,0.00284252 -0.0362087,0.00562598 -0.0537205,0.00834646z"/>
    <path id="_124455392" class="fil7 str5" d="M0.0760945 0.0739921c0.00823622,0.00802756 0.0166102,0.0161496 0.0250551,0.0243622 0.00854724,0.00831102 0.0172323,0.0167323 0.0260157,0.0252598"/>
    <path id="_158596616" class="fil7 str6" d="M0.0994961 0.0967205c0.00911024,0.00883858 0.0183189,0.0178031 0.0276693,0.0268937"/>
    <path id="_123385208" class="fil7 str7" d="M0.227917 0.0989882c-0.0159094,0.00388976 -0.0315472,0.00771654 -0.046878,0.0114528 -0.0150551,0.00366535 -0.0298898,0.00729134 -0.0444055,0.0108228"/>
    <path id="_158615216" class="fil7 str5" d="M0.200957 0.104854c-0.0110787,0.00282677 -0.0220236,0.00561811 -0.0328071,0.00836614 -0.0106339,0.0027126 -0.0211535,0.00540551 -0.0315157,0.00804331"/>
    <path id="_158677128" class="fil7 str6" d="M0.168169 0.113217c-0.0138858,0.00353543 -0.027563,0.00701181 -0.0410039,0.0103976"/>
    <path id="_158560936" class="fil7 str8" d="M0.116346 0.13722c-0.000125984,0.0133071 -0.000251969,0.0266772 -0.000358268,0.0400197 -0.000106299,0.0134055 -0.000216535,0.0268543 -0.000346457,0.040315"/>
    <path id="_124473672" class="fil7 str9" d="M0.115988 0.177224c-5.51181e-005,0.00672835 -0.000110236,0.0134409 -0.000161417,0.0201457 -5.11811e-005,0.00672441 -0.000129921,0.0134606 -0.000185039,0.020185"/>
    <path id="_124725512" class="fil7 str10" d="M0.208685 0.181098c0.00065748,-0.012437 0.00133858,-0.0248543 0.00199213,-0.037248 0.000649606,-0.012374 0.00132283,-0.0247126 0.00201181,-0.0370276 0.00621654,-0.00154724 0.0124882,-0.00310236 0.0188425,-0.00467323 -0.00932677,-0.00820079 -0.0185236,-0.0162717 -0.0276024,-0.0242638 -0.00895669,-0.00788189 -0.0178031,-0.0156969 -0.0265591,-0.0234173 -0.0196575,0.0030748 -0.0388661,0.00606299 -0.0576142,0.00897244 -0.0182953,0.00284252 -0.0362087,0.00562598 -0.0537205,0.00834646 -0.011622,0.0135079 -0.0230945,0.0268307 -0.0344094,0.0399803 0.00515748,-0.000972441 0.0103898,-0.0019685 0.015622,-0.00297244 0.00030315,0.0115472 0.000582677,0.0231378 0.000874016,0.0347205 0.000295276,0.011622 0.000590551,0.023311 0.000897638,0.035 0.0105827,0.00629528 0.0213583,0.0126929 0.0322598,0.0191654 0.0110906,0.00658661 0.0223976,0.0132795 0.0338583,0.020063 0.0148937,-0.00581496 0.0300787,-0.0117638 0.0455157,-0.0178071 0.0157244,-0.00615354 0.0317283,-0.0124488 0.0480315,-0.0188386z"/>
   </g>
  </g>
 </g>
</svg>
