#define ball1_width 9
#define ball1_height 9
static unsigned char ball1_bits[] = {
   0x10, 0x00, 0x7c, 0x00, 0xfe, 0x00, 0xfe, 0x00, 0xff, 0x01, 0xbe, 0x00,
   0x9e, 0x00, 0x7c, 0x00, 0x10, 0x00};
