#define ball2_width 15
#define ball2_height 15
static unsigned char ball2_bits[] = {
   0xf0, 0x07, 0xf8, 0x0f, 0xfc, 0x1f, 0xfe, 0x3f, 0xff, 0x7f, 0xff, 0x7f,
   0xff, 0x7f, 0xff, 0x7f, 0xff, 0x7f, 0xff, 0x6f, 0xff, 0x67, 0xfe, 0x33,
   0xfc, 0x19, 0xf8, 0x0f, 0xf0, 0x07};
