#define box1_width 16
#define box1_height 16
static unsigned char box1_bits[] = {
   0xfe, 0x7f, 0xff, 0xff, 0x03, 0xc0, 0xfb, 0xdf, 0x5b, 0xd5, 0xab, 0xda,
   0x5b, 0xd5, 0xab, 0xda, 0x5b, 0xd5, 0xab, 0xda, 0x5b, 0xd5, 0xab, 0xda,
   0xfb, 0xdf, 0x03, 0xc0, 0xff, 0xff, 0xfe, 0x7f};
