#define box3_width 16
#define box3_height 16
static unsigned char box3_bits[] = {
   0xfe, 0x7f, 0xff, 0xff, 0x03, 0xc0, 0xfb, 0xdf, 0xfb, 0xdf, 0xfb, 0xdf,
   0xfb, 0xdf, 0xfb, 0xdf, 0xfb, 0xdf, 0xfb, 0xdf, 0xfb, 0xdf, 0xfb, 0xdf,
   0xfb, 0xdf, 0x03, 0xc0, 0xff, 0xff, 0xfe, 0x7f};
