#define wks1_width 18
#define wks1_height 16
static unsigned char wks1_bits[] = {
   0xfe, 0xff, 0x01, 0x02, 0x00, 0x01, 0x02, 0x00, 0x01, 0x02, 0x00, 0x01,
   0x02, 0x00, 0x01, 0x02, 0x00, 0x01, 0x02, 0x00, 0x01, 0x02, 0x00, 0x01,
   0x02, 0x00, 0x01, 0x02, 0x00, 0x01, 0xfe, 0xff, 0x01, 0x00, 0x00, 0x00,
   0xfc, 0xff, 0x00, 0xaa, 0xaa, 0x01, 0x55, 0x55, 0x03, 0xff, 0xff, 0x03};
