#define gen_width 17
#define gen_height 17
static unsigned char gen_bits[] = {
   0x3f, 0xf9, 0x01, 0x81, 0x03, 0x01, 0xc1, 0x07, 0x01, 0x01, 0x01, 0x01,
   0x01, 0x01, 0x01, 0x01, 0x00, 0x01, 0x84, 0x43, 0x00, 0xc6, 0xc7, 0x00,
   0xdf, 0xf7, 0x01, 0xc6, 0xc7, 0x00, 0x84, 0x43, 0x00, 0x00, 0x00, 0x01,
   0x01, 0x01, 0x01, 0x01, 0x01, 0x01, 0xc1, 0x07, 0x01, 0x81, 0x03, 0x01,
   0x3f, 0xf9, 0x01};
