#define sink_width 17
#define sink_height 17
static unsigned char sink_bits[] = {
   0x3f, 0xf9, 0x01, 0x01, 0x01, 0x01, 0xc1, 0x07, 0x01, 0x81, 0x03, 0x01,
   0x01, 0x01, 0x01, 0x01, 0x00, 0x01, 0x84, 0x43, 0x00, 0xcc, 0x67, 0x00,
   0xdf, 0xf7, 0x01, 0xcc, 0x67, 0x00, 0x84, 0x43, 0x00, 0x00, 0x00, 0x01,
   0x01, 0x01, 0x01, 0x81, 0x03, 0x01, 0xc1, 0x07, 0x01, 0x01, 0x01, 0x01,
   0x3f, 0xf9, 0x01};
