#define xconn_width 16
#define xconn_height 15
static unsigned char xconn_bits[] = {
   0xff, 0xff, 0x01, 0x80, 0x01, 0x80, 0x01, 0x80, 0x3f, 0xfc, 0x7f, 0xfe,
   0xc1, 0x83, 0x81, 0x81, 0xc1, 0x83, 0x7f, 0xfe, 0x3f, 0xfc, 0x01, 0x80,
   0x01, 0x80, 0x01, 0x80, 0xff, 0xff};
