<?xml version="1.0" encoding="iso-8859-1"?>
<!-- Generator: Adobe Illustrator 9.0, SVG Export Plug-In  -->
<!DOCTYPE svg PUBLIC "-//W3C//DTD SVG 20000303 Stylable//EN"   "http://www.w3.org/TR/2000/03/WD-SVG-20000303/DTD/svg-20000303-stylable.dtd" [
	<!ENTITY st0 "fill:#A6A6A6;stroke:none;">
	<!ENTITY st1 "fill:url(#aigrd1);stroke:none;">
	<!ENTITY st2 "fill:url(#aigrd9);stroke:none;">
	<!ENTITY st3 "fill:url(#aigrd6);stroke:none;">
	<!ENTITY st4 "fill:url(#aigrd3);stroke:none;">
	<!ENTITY st5 "opacity:0.35;stroke:none;">
	<!ENTITY st6 "fill:url(#aigrd8);stroke:none;">
	<!ENTITY st7 "fill:#FFFFFF;stroke:none;">
	<!ENTITY st8 "fill:url(#aigrd5);stroke:none;">
	<!ENTITY st9 "fill:url(#aigrd2);stroke:none;">
	<!ENTITY st10 "fill:none;stroke:none;">
	<!ENTITY st11 "fill-rule:nonzero;clip-rule:nonzero;stroke:#000000;stroke-miterlimit:4;">
	<!ENTITY st12 "fill:url(#aigrd7);stroke:none;">
	<!ENTITY st13 "stroke:none;">
	<!ENTITY st14 "fill:url(#aigrd4);stroke:none;">
]>
<svg  width="52pt" height="48pt" viewBox="0 0 52 48" xml:space="preserve">
	<g id="Layer_x0020_2" style="&st11;">
		<path style="&st5;" d="M21.5,44.2c0,0,1.3,1.1,4.1,0c2.8-1.1,20-6.2,23.9-9.1c1.5-1.1,0.8-2.5-0.5-3.4c-4.1-2.8-21.5-5.8-21.5-5.8S8.9,33.7,7.4,34.4C6,35,5.6,36.9,7.2,37.5l14.3,6.8z"/>
		<path style="&st13;" d="M30.9,3.4l0,0c0,0-4.3,2.3-4.9,2.6c-0.2,0-5,0.1-5,0.1L3.5,13.4l0,0c-0.6,0.2-1.7,1-1.7,3l0,0.3c0,0,1.1,17.6,1.1,17.7c0,0.5,0.1,1.4,0.7,2.2c0.6,0.8,1.4,1.2,1.7,1.3c6.3,2.5,15.9,6.3,16.4,6.5c0.8,0.4,1.7,0.4,2,0.4h0l0.1,0
			c0.3,0,1.1-0.1,2-0.6L40,35.8c0.5-0.3,1.5-0.9,1.9-1.9c0.3-0.8,0.4-1.5,0.4-1.8h0l0.5-17.5l0,0c0-1.3-0.5-2.2-1-2.6c0,0-0.5-0.6-0.5-0.6l0,0c0,0,0,0-0.1-0.1l0,0L34.5,4c-0.5-0.6-1.3-1-2.1-1c-0.7,0-1.3,0.3-1.5,0.4z"/>
		<linearGradient id="aigrd1" gradientUnits="userSpaceOnUse" x1="21.8149" y1="19.791" x2="21.8149" y2="12.4975">
			<stop  offset="0" style="stop-color:#989C9C"/>
			<stop  offset="1" style="stop-color:#000000"/>
		</linearGradient>
		<path style="&st1;" d="M4,15.3l19.4,6.5l16.3-8.4l-0.3-0.1L21.1,8.2L4,15.3z"/>
		<linearGradient id="aigrd2" gradientUnits="userSpaceOnUse" x1="14.271" y1="28.6201" x2="19.2548" y2="41.3968">
			<stop  offset="0" style="stop-color:#DEDFDF"/>
			<stop  offset="1" style="stop-color:#C2C4C4"/>
		</linearGradient>
		<path style="&st9;" d="M5.7,35.5c0,0,16,6.3,16.5,6.5c0.5,0.2,1.1,0.2,1.1,0.2V21.8L4,15.3c0,0-0.4,0.1-0.3,1.1l1.1,17.7c0,0,0,0.5,0.2,0.9c0.3,0.4,0.7,0.5,0.7,0.5z"/>
		<linearGradient id="aigrd3" gradientUnits="userSpaceOnUse" x1="41.3486" y1="37.627" x2="14.9041" y2="11.1823">
			<stop  offset="0" style="stop-color:#989C9C"/>
			<stop  offset="0.1523" style="stop-color:#919595"/>
			<stop  offset="0.3784" style="stop-color:#7D8181"/>
			<stop  offset="0.6506" style="stop-color:#5D6060"/>
			<stop  offset="0.9562" style="stop-color:#313232"/>
			<stop  offset="1" style="stop-color:#2A2B2B"/>
		</linearGradient>
		<path style="&st4;" d="M39.7,13.4c0,0,0.3,0.2,0.3,1l-0.5,17.4c0,0,0,0.5-0.2,0.9s-0.9,0.8-0.9,0.8l-14.2,8.4c-0.4,0.3-0.9,0.3-0.9,0.3V21.8l16.3-8.4z"/>
		<linearGradient id="aigrd4" gradientUnits="userSpaceOnUse" x1="17.2153" y1="12.0313" x2="17.9305" y2="14.5714">
			<stop  offset="0" style="stop-color:#EFEFEF"/>
			<stop  offset="1" style="stop-color:#FFFFFF"/>
		</linearGradient>
		<path style="&st14;" d="M4,15.3l10.7,0.9L30.2,8l-9.2,0.3L4,15.3z"/>
		<linearGradient id="aigrd5" gradientUnits="userSpaceOnUse" x1="39.6064" y1="13.7388" x2="38.4829" y2="12.6152">
			<stop  offset="0" style="stop-color:#989C9C"/>
			<stop  offset="1" style="stop-color:#000000"/>
		</linearGradient>
		<path style="&st8;" d="M39.1,12.8l-0.1,0.9l0.6-0.3l-0.5-0.6z"/>
		<linearGradient id="aigrd6" gradientUnits="userSpaceOnUse" x1="33.5479" y1="18.6792" x2="2.1251" y2="-9.9314">
			<stop  offset="0" style="stop-color:#989C9C"/>
			<stop  offset="1" style="stop-color:#000000"/>
		</linearGradient>
		<path style="&st3;" d="M39,13.7l-14.6,7.5c0,0-0.6,0.3-1,0.2c-0.4,0-0.7-0.4-0.7-0.4l-6.9-6.8c0,0-0.1-0.1-0.1-0.4c0-0.3,0.4-0.4,0.4-0.4l15.4-8.3c0,0,0.2-0.1,0.5-0.1c0.2,0,0.3,0.2,0.3,0.2l6.7,7.4c0,0,0.3,0.3,0.3,0.6c0,0.2-0.3,0.4-0.3,0.4z"/>
		<linearGradient id="aigrd7" gradientUnits="userSpaceOnUse" x1="29.2852" y1="16.0757" x2="22.3922" y2="8.4817">
			<stop  offset="0" style="stop-color:#F2F2F2"/>
			<stop  offset="1" style="stop-color:#FFFFFF"/>
		</linearGradient>
		<path style="&st12;" d="M24.7,21c0,0-0.6,0.5-1.1,0l-6.7-6.7c-0.2-0.2-0.2-0.4,0.1-0.5l14.4-8.5c0,0-15.1,8-15.3,8.2c-0.4,0.2-0.5,0.6-0.2,1c0.2,0.2,5.2,5.1,7,6.8c0.4,0.4-0.4,0.3-0.4,0.3s1.9,0.6,2.3-0.5z"/>
		<linearGradient id="aigrd8" gradientUnits="userSpaceOnUse" x1="33.6191" y1="18.5991" x2="24.3933" y2="23.116">
			<stop  offset="0" style="stop-color:#919191"/>
			<stop  offset="1" style="stop-color:#F3F4F4"/>
		</linearGradient>
		<path style="&st6;" d="M23.8,41c0.2-4.8,0.1-16.5,0.1-16.9c0-0.5-0.1-2.1,1.2-2.9l14.2-7.8L24,21.4c-1.1,0.5-2-0.1-3.9-0.7c0.1,0.1-15.7-5.4-15.7-5.4s-0.9-0.4-0.8,0.8l1.2,18.2c0,0.5,0.4,1,0.9,1.2c-0.4-0.3-0.6-0.8-0.7-1.1L3.9,16.3C3.9,16,4,15.9,4.2,16
			c0,0,16.9,5.8,17.4,5.9c1.1,0.4,0.9,1.8,1,2.2c0,0.3,0.5,17.1,0.5,17.1s0.7,1.3,0.8-0.2z"/>
		<path style="&st7;" d="M6.3,14.9l14.7-6.6L4,15.3l1.3,0.1l9.4,0.8l-8.3-1.3z"/>
		<path style="&st0;" d="M39.5,31.8L39.9,17l-1,14.9c0,0.3-0.1,0.5-0.3,0.6L34.3,36c0,0,4.2-2.5,4.5-2.7c0.3-0.2,0.7-0.6,0.7-1.5z"/>
		<linearGradient id="aigrd9" gradientUnits="userSpaceOnUse" x1="23.7305" y1="42.209" x2="23.0389" y2="41.0667">
			<stop  offset="0" style="stop-color:#636363"/>
			<stop  offset="1" style="stop-color:#F3F4F4"/>
		</linearGradient>
		<path style="&st2;" d="M22,41.9c1.1,0.6,1.8,0.3,2.9-0.3c0,0-1.1-0.1-1.1-1.2c-0.1-0.1-0.8,0.1-0.8,0c0,1-0.5,1.6-1,1.6z"/>
	</g>
	<g id="Layer_x0020_3" style="&st11;">
		<path style="&st10;" d="M52,48H0V0h52v48z"/>
	</g>
</svg>
