<?xml version="1.0" encoding="UTF-8" standalone="no"?>
<!DOCTYPE svg PUBLIC "-//W3C//DTD SVG 20010904//EN"
"http://www.w3.org/TR/2001/REC-SVG-20010904/DTD/svg10.dtd">
<!-- Created with Sodipodi ("http://www.sodipodi.com/") -->
<svg
   id="svg548"
   sodipodi:version="0.32"
   width="400pt"
   height="400pt"
   sodipodi:docbase="/var/www/html/svg_gallery/svg/office"
   sodipodi:docname="paperclip.svg"
   inkscape:version="0.38.1"
   xmlns="http://www.w3.org/2000/svg"
   xmlns:inkscape="http://www.inkscape.org/namespaces/inkscape"
   xmlns:sodipodi="http://sodipodi.sourceforge.net/DTD/sodipodi-0.dtd"
   xmlns:xlink="http://www.w3.org/1999/xlink">
  <defs
     id="defs550" />
  <sodipodi:namedview
     id="base"
     inkscape:zoom="0.90750000"
     inkscape:cx="200.00000"
     inkscape:cy="200.00000"
     inkscape:window-width="640"
     inkscape:window-height="500"
     inkscape:window-x="0"
     inkscape:window-y="24" />
  <path
     style="fill:#939292;fill-rule:evenodd;stroke:#000000;stroke-width:10.000000;stroke-dasharray:none;stroke-linejoin:round;"
     d="M 260.23309,13.159219 C 253.82125,13.159333 247.10638,13.269996 240.34800,13.499164 C 226.83124,13.957500 213.22956,14.869240 201.72905,16.280536 C 190.22854,17.691832 181.65907,18.573723 173.92481,23.141254 C 157.99192,32.550661 146.39486,43.236235 143.99251,60.257119 L 143.92274,60.813394 L 143.92274,61.369668 L 142.87616,317.53404 L 163.80783,317.59584 L 164.85442,62.173175 C 166.56856,50.802407 171.23261,47.012981 185.54189,38.562417 C 185.41671,38.636339 194.11939,35.922468 204.58972,34.637592 C 215.06004,33.352716 228.16276,32.482038 241.15038,32.041645 C 254.13800,31.601251 267.06529,31.609770 277.25752,32.041645 C 282.35364,32.257582 286.77328,32.575790 290.02584,32.968769 C 293.27840,33.361748 295.71899,34.192466 294.77036,33.772276 C 306.76655,39.885371 311.92089,40.673732 319.43485,54.725279 C 319.43486,71.175023 319.43485,404.85048 319.43485,427.18190 C 319.43486,445.82667 315.83402,451.60720 311.86456,458.27146 C 296.38332,466.39040 287.14109,471.22802 253.15121,474.52704 C 229.41888,474.07321 211.63716,473.15003 202.00814,470.72583 C 197.12590,469.49669 194.65800,468.03082 193.63547,466.98643 C 192.61295,465.94204 192.03802,465.01969 192.20514,461.76363 L 192.24003,461.17645 L 192.20514,460.58927 C 190.85944,445.89016 190.20387,374.57748 190.07709,308.66455 C 189.95092,243.07066 190.21420,182.18047 190.21663,181.58675 C 192.03047,167.55173 195.14326,164.12660 203.54313,155.04010 C 211.80926,148.47181 212.58563,146.98207 229.98682,146.17061 L 230.23102,146.13971 L 230.47522,146.13971 C 250.08202,144.40340 256.77005,143.58065 274.39686,148.08667 C 286.33019,156.38165 291.65246,166.87363 291.03754,173.95343 C 290.79889,176.70107 290.80028,180.92012 290.75845,188.41656 C 290.71662,195.91301 290.73464,205.95009 290.75845,217.65187 C 290.80606,241.05544 290.95189,271.15648 291.14220,300.87671 C 291.52282,360.31717 292.01435,418.28151 292.01435,418.28151 L 312.94603,418.12699 C 312.94603,418.12699 312.45433,360.16845 312.07388,300.75309 C 311.88365,271.04541 311.73765,240.97894 311.69013,217.62097 C 311.66637,205.94199 311.64872,195.92947 311.69013,188.50928 C 311.73153,181.08908 311.88441,175.54819 311.89944,175.37502 C 313.28895,159.37733 302.79632,143.47297 285.35110,132.14014 L 283.88588,131.18211 L 282.17646,130.71855 C 260.93902,125.07433 248.84353,125.89759 228.90535,127.65904 C 228.72915,127.67460 228.59438,127.67423 228.41694,127.68994 C 208.12361,128.72405 198.22648,134.41765 189.03050,141.65861 L 188.40255,142.15307 L 187.87926,142.70935 C 178.57370,152.78407 171.52680,162.31711 169.31984,179.91793 L 169.28496,180.41239 L 169.28496,180.90686 C 169.28496,180.90686 169.01850,242.72067 169.14541,308.69545 C 169.27232,374.67024 169.64465,443.54984 171.34324,462.10358 C 171.29521,468.34250 173.33646,474.57096 177.83206,479.16266 C 182.61130,484.04408 189.12162,486.78451 196.28682,488.58842 C 210.61722,492.19623 229.11267,492.61804 253.56984,493.06952 L 254.26756,493.10042 L 254.93040,493.03861 C 293.54461,489.34073 307.94359,481.83615 325.05151,472.92002 L 327.70286,471.52934 L 329.09831,469.08791 C 332.68970,462.72672 340.36654,451.13363 340.36652,427.18190 C 340.36652,404.71336 340.36654,65.020742 340.36652,52.438373 L 340.36652,50.429604 L 339.42460,48.637165 C 329.38318,28.869845 316.04485,23.310377 304.71290,17.454893 L 304.43381,17.300373 L 304.11984,17.176756 C 300.12774,15.408478 297.03750,15.086553 292.85162,14.580809 C 288.66574,14.075064 283.74309,13.732586 278.23433,13.499164 C 272.72557,13.265742 266.64493,13.159104 260.23309,13.159219 z "
     id="path830" />
  <g
     id="g830">
    <path
       style="fill:#ffffff;fill-rule:evenodd;stroke:none;stroke-opacity:1;stroke-width:1pt;stroke-linejoin:miter;stroke-linecap:butt;fill-opacity:0.4;"
       d="M 149.74925,53.788800 L 147.93225,312.79100 C 147.93225,312.79100 156.11125,313.70000 155.20225,312.79100 C 154.29325,311.88200 157.01925,52.880000 157.01925,52.880000 C 157.01925,52.880000 160.24348,45.609700 166.60448,36.521900 C 172.96648,27.434200 149.74925,42.883400 149.74925,53.788800 z "
       id="path615"
       sodipodi:nodetypes="cccccc" />
    <path
       style="fill:#ffffff;fill-rule:evenodd;stroke:none;stroke-opacity:1;stroke-width:1pt;stroke-linejoin:miter;stroke-linecap:butt;fill-opacity:0.4;"
       d="M 179.79590,464.99759 L 177.06990,173.27959 C 177.06990,173.27959 186.15790,148.77041 194.33690,143.31741 C 199.78890,137.86541 180.70490,166.91759 181.61390,175.09659 C 181.61390,179.64059 185.24890,464.99759 185.24890,464.99759 L 179.79590,464.99759 z "
       id="path616"
       sodipodi:nodetypes="cccccc" />
    <path
       style="fill:#ffffff;fill-rule:evenodd;stroke:none;stroke-opacity:1;stroke-width:1pt;stroke-linejoin:miter;stroke-linecap:butt;fill-opacity:0.4;"
       d="M 298.52059,168.29500 L 299.42859,412.75700 L 302.15459,413.66600 L 302.15559,168.29500 L 298.52059,168.29500 z "
       id="path617"
       sodipodi:nodetypes="ccccc" />
    <path
       style="fill:#ffffff;fill-rule:evenodd;stroke:none;stroke-opacity:1;stroke-width:1pt;stroke-linejoin:miter;stroke-linecap:butt;fill-opacity:0.4;"
       d="M 325.81241,51.971200 L 327.62941,436.38500 C 327.62941,436.38500 327.62941,446.38200 323.99441,451.83500 C 320.35941,457.28700 319.45041,460.92200 319.45041,460.92200 C 319.45041,460.92200 331.26541,446.38200 332.17341,437.29400 C 333.08241,430.93300 329.44741,51.062400 332.17341,52.880000 L 325.81241,51.971200 z "
       id="path618"
       sodipodi:nodetypes="ccccccc" />
  </g>

  <rdf:RDF 
   xmlns="http://web.resource.org/cc/"
   xmlns:dc="http://purl.org/dc/elements/1.1/"
   xmlns:rdf="http://www.w3.org/1999/02/22-rdf-syntax-ns#">
  <Work rdf:about="">
    <dc:title>Clipart by Nicu Buculei - book_01</dc:title>
    <dc:rights>
       <Agent>
         <dc:title>Nicu Buculei</dc:title>
       </Agent>
    </dc:rights>
    <dc:type rdf:resource="http://purl.org/dc/dcmitype/StillImage" />
    <license rdf:resource="http://web.resource.org/cc/PublicDomain" />
  </Work>
   
  <License rdf:about="http://web.resource.org/cc/PublicDomain">
     <permits rdf:resource="http://web.resource.org/cc/Reproduction" />
     <permits rdf:resource="http://web.resource.org/cc/Distribution" />
     <permits rdf:resource="http://web.resource.org/cc/DerivativeWorks" />
  </License>

</rdf:RDF>
</svg>
