<svg height="5.6587mm" viewBox="0 0 20.049 20.051" width="5.6581mm" xmlns="http://www.w3.org/2000/svg" xmlns:xlink="http://www.w3.org/1999/xlink"><linearGradient id="a" gradientTransform="matrix(.1875 0 0 -.1875 52.969 78.656)" gradientUnits="userSpaceOnUse" x1="-269.83" x2="-36.832" y1="291.5" y2="291.5"><stop offset="0" stop-color="#999"/><stop offset="1" stop-color="#666"/></linearGradient><linearGradient id="b" gradientTransform="matrix(.1875 0 0 -.1875 52.969 78.656)" gradientUnits="userSpaceOnUse" x1="-259.91" x2="-46.585" y1="392.08" y2="190.75"><stop offset="0" stop-color="#fff"/><stop offset="1" stop-color="#d4ccbf"/></linearGradient><linearGradient id="c" gradientTransform="matrix(.1875 0 0 -.1875 52.969 78.656)" gradientUnits="userSpaceOnUse" x1="-130.43" x2="-269.76" y1="269.4" y2="405.4"><stop offset="0" stop-color="#fff"/><stop offset="1" stop-color="#666"/></linearGradient><linearGradient id="d" gradientTransform="matrix(.1875 0 0 -.1875 52.969 78.656)" gradientUnits="userSpaceOnUse" x1="-218.13" x2="-117.47" y1="380.66" y2="273.33"><stop offset="0" stop-color="#fff"/><stop offset="1" stop-color="#39f"/></linearGradient><g transform="translate(-328.23 -343.15)"><path d="m331.36675 345.29894c-.54298 0-.98243.43949-.98243.98437v13.78321c0 .54443.43945.98437.98243.98437h13.78125c.543 0 .98437-.43994.98437-.98437v-10.70508c-.36775.14113-.76414.2207-1.18164.2207-.271 0-.53474-.0346-.78711-.0957v.008c-.003-.003-.005-.007-.008-.01-1.11662-.27588-2.00981-1.12018-2.35156-2.21093-.005-.002-.009-.004-.0137-.006h.0137c-.0976-.31063-.1504-.64251-.1504-.98438 0-.34225.0528-.67424.1504-.98437h-10.4375z" fill="#c5c7bd"/><path d="m341.8 347.27c-.82275 1.7455-2.2632 4.2475-5.6788 7.0727-4.8169 3.9829-9.3994 4.7275-9.3994 4.7275 1.1426-.16601 5.8804-1.2085 10.694-4.4497 3.3242-2.2358 5.2652-4.018 6.7349-5.1392-1.1166-.27588-2.0092-1.1206-2.351-2.2114" fill="#f03c1f"/><path d="m347.56 346.28c0 1.44-1.1685 2.6099-2.6084 2.6099-1.441 0-2.608-1.1699-2.608-2.6099 0-1.4409 1.167-2.6079 2.608-2.6079 1.4399 0 2.6084 1.167 2.6084 2.6079" fill="#f03c1f"/><path d="m344.16312 349.48594v9.59577h-11.81153v-11.81489h9.45215c-.0976-.31063-.15037-.64213-.15037-.984 0-.34225.0528-.67375.15037-.98388h-10.43603c-.54298 0-.98389.439-.98389.98388v13.78277c0 .54443.44091.98388.98389.98388h13.78078c.543 0 .98388-.43945.98388-.98388v-10.70415c-.36775.14113-.76413.21925-1.18163.21925-.271 0-.53525-.0336-.78762-.0947" fill="#08607c"/></g><g transform="matrix(.21049 0 0 .21049 9.2955 10.173)"><path d="m46.063 42.375c0 .414-.336.75-.75.75h-42.188c-.414 0-.75-.336-.75-.75v-36.75c0-.414.336-.75.75-.75h42.188c.414 0 .75.336.75.75z" fill="url(#a)"/><path d="m3.313 5.813v36.375h41.813v-36.375h-41.813z" fill="url(#b)"/><path d="m40.375 35.938c0 .414-.336.75-.75.75h-32.125c-.414 0-.75-.336-.75-.75v-25.25c0-.414.336-.75.75-.75h32.125c.414 0 .75.336.75.75z" fill="url(#c)"/><path d="m41.688 37.25c0 .414-.336.75-.75.75l-32.938-.437c-.415 0-.5-.461-.5-.875l.563-24.688c0-.414.336-.75.75-.75l30.687-.562c.414 0 1.625.086 1.625.5z" fill="#fff"/><path d="m40.938 36.5c0 .414-.336.75-.75.75h-32.125c-.414 0-.75-.336-.75-.75v-25.25c0-.414.336-.75.75-.75h32.125c.414 0 .75.336.75.75z" fill="#036"/><path d="m8.25 11.438v24.875h31.75v-24.875z" fill="#39f"/><path d="m33.375 20.813c3.059-2.202 4.92-5.043 6.625-8.054v-1.321h-31.75v17.398c1.951-1.68 4.299-2.926 6.75-3.711 6.188-1.875 12.75-.375 18.375-4.312z" fill="url(#d)"/><path d="m11.04 33.83c-.719-.051-1.376-.268-1.972-.652l.598-1.447c.64.457 1.269.684 1.887.684.951 0 1.426-.327 1.426-.982 0-.328-.122-.637-.365-.924-.243-.289-.705-.604-1.384-.943-.68-.34-1.142-.621-1.387-.846-.245-.223-.434-.49-.564-.801s-.196-.656-.196-1.037c0-.563.177-1.06.531-1.49s.829-.718 1.425-.863v-1.129h1.421l-.006 1.065c.769.074 1.341.261 1.717.557l-.492 1.399c-.568-.413-1.168-.62-1.798-.62-.374 0-.663.101-.868.302-.206.201-.308.455-.308.762 0 .523.578 1.066 1.734 1.631.609.299 1.049.572 1.318.823s.475.542.616.876.211.705.211 1.115c0 .58-.188 1.086-.564 1.519s-.898.729-1.567.892v1.432h-1.413z"/><path d="m17.206 32.637v-1.414l3.275-1.488-3.275-1.471v-1.414l4.961 2.384v1.002z"/></g></svg>