
<svg height="5.658705mm" viewBox="0 0 20.04855 20.05053" width="5.658146mm"
     xmlns="http://www.w3.org/2000/svg">
    <g transform="translate(-328.23382 -343.14894)">
        <path d="m331.36675 345.29894c-.54298 0-.98243.43949-.98243.98437v13.78321c0 .54443.43945.98437.98243.98437h13.78125c.543 0 .98437-.43994.98437-.98437v-10.70508c-.36775.14113-.76414.2207-1.18164.2207-.271 0-.53474-.0346-.78711-.0957v.008c-.003-.003-.005-.007-.008-.01-1.11662-.27588-2.00981-1.12018-2.35156-2.21093-.005-.002-.009-.004-.0137-.006h.0137c-.0976-.31063-.1504-.64251-.1504-.98438 0-.34225.0528-.67424.1504-.98437h-10.4375z"
              fill="#c5c7bd"/>
        <path d="m341.80474 347.27169c-.82275 1.7455-2.26325 4.2475-5.67875 7.0727-4.81688 3.98292-9.3994 4.72754-9.3994 4.72754 1.14258-.16601 5.88037-1.20849 10.69428-4.4497 3.32425-2.23579 5.26525-4.01804 6.73487-5.13916-1.11662-.27588-2.00925-1.12063-2.351-2.21138"
              fill="#f03c1f"/>
        <path d="m347.55912 346.28282c0 1.44-1.1685 2.60987-2.60838 2.60987-1.441 0-2.608-1.16987-2.608-2.60987 0-1.44088 1.167-2.60788 2.608-2.60788 1.43988 0 2.60838 1.167 2.60838 2.60788"
              fill="#f03c1f"/>
        <path d="m344.16312 349.48594v9.59577h-11.81153v-11.81489h9.45215c-.0976-.31063-.15037-.64213-.15037-.984 0-.34225.0528-.67375.15037-.98388h-10.43603c-.54298 0-.98389.439-.98389.98388v13.78277c0 .54443.44091.98388.98389.98388h13.78078c.543 0 .98388-.43945.98388-.98388v-10.70415c-.36775.14113-.76413.21925-1.18163.21925-.271 0-.53525-.0336-.78762-.0947"
              fill="#08607c"/>
    </g>
    <g transform="translate(-323.39317 -338.15046)">
        <ellipse cx="338.41605" cy="353.2692" fill="#178e50" rx="4.313491"
                 ry="4.313491"/>
        <path d="m337.3576 355.60363.009-4.61585 3.11262 2.29955z"
              fill="#c5c7bd" fill-rule="evenodd" stroke="#c5c7bd"
              stroke-linejoin="round"/>
    </g>
</svg>