<svg fill="#404040" version="1.1" viewBox="0 0 24 24" xmlns="http://www.w3.org/2000/svg"><path d="M0 0h24v24H0z" fill="none"/><path d="M16 1H4c-1.1 0-2 .9-2 2v14h2V3h12V1zm3 4H8c-1.1 0-2 .9-2 2v14c0 1.1.9 2 2 2h11c1.1 0 2-.9 2-2V7c0-1.1-.9-2-2-2zm0 16H8V7h11v14z"/><path d="m6.7641 7.1862h13.488v13.488h-13.488z" fill="none" stroke-width=".56201"/><path d="m18.004 11.682h-1.5792c-0.2529-0.43837-0.60135-0.81491-1.0229-1.1015l0.91607-0.91607-0.79243-0.79243-1.2196 1.2196c-0.25852-0.06182-0.52267-0.09554-0.79805-0.09554-0.27538 0-0.53953 0.03372-0.79243 0.09554l-1.2252-1.2196-0.79243 0.79243 0.91045 0.91607c-0.41589 0.28662-0.76433 0.66317-1.0172 1.1015h-1.5792v1.124h1.1746c-0.0281 0.18546-0.05058 0.37093-0.05058 0.56201v0.56201h-1.124v1.124h1.124v0.56201c0 0.19108 0.02248 0.37655 0.05058 0.56201h-1.1746v1.124h1.5792c0.58449 1.006 1.6692 1.686 2.9168 1.686 1.2477 0 2.3323-0.68003 2.9168-1.686h1.5792v-1.124h-1.1746c0.0281-0.18546 0.05058-0.37093 0.05058-0.56201v-0.56201h1.124v-1.124h-1.124v-0.56201c0-0.19108-0.02248-0.37655-0.05058-0.56201h1.1746zm-3.372 4.4961h-2.248v-1.124h2.248zm0-2.248h-2.248v-1.124h2.248z" stroke-width=".56201"/></svg>
