<svg xmlns="http://www.w3.org/2000/svg" viewBox="0 0 24 24" fill="#379143" width="24px" height="24px">
 <path d="m4 16 8.5-6-8.5-6zm10-12v6h2v-6z"/>
 <path d="m20 13h-1.4049c-0.225-0.39-0.535-0.725-0.91-0.98l0.815-0.815-0.705-0.705-1.085 1.085c-0.23-0.055-0.465-0.085-0.71-0.085-0.245 0-0.48 0.03-0.705 0.085l-1.09-1.085-0.705 0.705 0.81 0.815c-0.37 0.255-0.68 0.59-0.905 0.98h-1.4049v1h1.045c-0.025 0.165-0.045 0.33-0.045 0.5v0.5h-1v1h1v0.5c0 0.17 0.02 0.335 0.045 0.5h-1.045v1h1.4049c0.52 0.895 1.485 1.5 2.5949 1.5 1.11 0 2.0749-0.60497 2.5949-1.5h1.4049v-1h-1.045c0.025-0.165 0.045-0.33 0.045-0.5v-0.5h1v-1h-1v-0.5c0-0.17-0.02-0.335-0.045-0.5h1.045zm-3 4h-2v-1h2zm0-2h-2v-1h2z"/>
</svg>
