<svg viewBox="0 0 72 72" xmlns="http://www.w3.org/2000/svg" fill="#404040">
  <path
     d="m 15.,9 c -0.66,0 -1.293407,0.2421743 -1.863326,0.6621254 -1.289818,1.0198819 -1.529634,2.9055639 -0.509779,4.1954149 L 27,32.244924 V 47.60858 c -0.12,0.869895 0.183167,1.794514 0.873068,2.484435 l 12.023729,12.029587 c 1.169837,1.169864 3.060741,1.169864 4.230571,0 0.69,-0.63 1,-1.590398 0.873069,-2.490294 V 32.244924 L 46.184715,30.73317 C 44.742331,29.840287 43.44,28.720877 42.37017,27.410822 42.156,27.159173 41.9549,26.897277 41.760781,26.631506 l -2.759833,3.515711 V 52.735656 L 33,46.735511 V 30.176515 L 21.12356,15 h 18.152785 c 0.446189,-2.173268 1.42271,-4.225361 2.771552,-6 z" style="stroke-width:3"/>
  <circle
     style="fill:#c00000" cx="54" cy="18" r="9" />
</svg>
