<svg version="1.1" viewBox="0 0 24 24" xmlns="http://www.w3.org/2000/svg" fill="#404040"><path d="m4 2.5c-0.83 0-1.5 0.67-1.5 1.5s0.67 1.5 1.5 1.5 1.5-0.67 1.5-1.5-0.67-1.5-1.5-1.5zm3 0.5v2h14v-2z"/><path d="m4 6.5c-0.83 0-1.5 0.67-1.5 1.5s0.67 1.5 1.5 1.5 1.5-0.67 1.5-1.5-0.67-1.5-1.5-1.5zm3 0.5v2h14v-2z"/><path d="m4 10.5c-0.83 0-1.5 0.67-1.5 1.5s0.67 1.5 1.5 1.5 1.5-0.67 1.5-1.5-0.67-1.5-1.5-1.5zm3 0.5v2h14v-2z"/><path d="m4 14.5c-0.83 0-1.5 0.67-1.5 1.5s0.67 1.5 1.5 1.5 1.5-0.67 1.5-1.5-0.67-1.5-1.5-1.5zm3 0.5v2h14v-2z"/><path d="m4 18.5c-0.83 0-1.5 0.67-1.5 1.5s0.67 1.5 1.5 1.5 1.5-0.67 1.5-1.5-0.67-1.5-1.5-1.5zm3 0.5v2h14v-2z"/></svg>
