<svg id="mdi-graph" version="1.1" viewBox="0 0 24 24" xmlns="http://www.w3.org/2000/svg" fill="#404040">
  <path d="m19.5 17c-0.13 0-0.26 0-0.39 0.04l-1.61-3.25c0.45-0.45 0.75-1.08 0.75-1.79 0-1.38-1.12-2.5-2.5-2.5-0.13 0-0.25 0-0.39 0.04l-1.63-3.25c0.48-0.45 0.77-1.08 0.77-1.79 0-1.38-1.12-2.5-2.5-2.5s-2.5 1.12-2.5 2.5c0 0.71 0.29 1.34 0.76 1.79l-1.62 3.25c-0.14-0.04-0.26-0.04-0.39-0.04-1.38 0-2.5 1.12-2.5 2.5 0 0.71 0.3 1.34 0.75 1.79l-1.61 3.25c-0.13-0.04-0.26-0.04-0.39-0.04-1.38 0-2.5 1.12-2.5 2.5s1.12 2.5 2.5 2.5 2.5-1.12 2.5-2.5c0-0.7-0.29-1.34-0.76-1.79l1.62-3.25c0.14 0.04 0.26 0.04 0.39 0.04s0.25 0 0.39-0.04l1.63 3.25c-0.47 0.45-0.77 1.09-0.77 1.79 0 1.38 1.12 2.5 2.5 2.5s2.5-1.12 2.5-2.5-1.12-2.5-2.5-2.5c-0.13 0-0.26 0-0.39 0.04l-1.61-3.25c0.46-0.45 0.75-1.08 0.75-1.79s-0.29-1.34-0.75-1.79l1.61-3.25c0.13 0.04 0.26 0.04 0.39 0.04s0.26 0 0.39-0.04l1.61 3.25c-0.45 0.45-0.75 1.09-0.75 1.79 0 1.38 1.12 2.5 2.5 2.5 0.13 0 0.25 0 0.39-0.04l1.63 3.25c-0.47 0.45-0.77 1.09-0.77 1.79 0 1.38 1.12 2.5 2.5 2.5s2.5-1.12 2.5-2.5-1.12-2.5-2.5-2.5z"/>
</svg>
