<svg enable-background="new 0 0 24 24" fill="#404040" version="1.1" viewBox="0 0 24 24" xmlns="http://www.w3.org/2000/svg"><rect width="24" height="24" fill="none"/><path d="m3 6h18v5h2v-5c0-1.1-0.9-2-2-2h-18c-1.1 0-2 0.9-2 2v12c0 1.1 0.9 2 2 2h9v-2h-9z"/><path d="m22.71 18.43c0.03-0.29 0.04-0.58 0.01-0.86l1.07-0.85c0.1-0.08 0.12-0.21 0.06-0.32l-1.03-1.79c-0.06-0.11-0.19-0.15-0.31-0.11l-1.28 0.5c-0.23-0.17-0.48-0.31-0.75-0.42l-0.2-1.36c-0.02-0.13-0.12-0.22-0.25-0.22h-2.07c-0.12 0-0.23 0.09-0.25 0.21l-0.2 1.36c-0.26 0.11-0.51 0.26-0.74 0.42l-1.28-0.5c-0.12-0.05-0.25 0-0.31 0.11l-1.03 1.79c-0.06 0.11-0.04 0.24 0.06 0.32l1.07 0.86c-0.03 0.29-0.04 0.58-0.01 0.86l-1.07 0.85c-0.1 0.08-0.12 0.21-0.06 0.32l1.03 1.79c0.06 0.11 0.19 0.15 0.31 0.11l1.27-0.5c0.23 0.17 0.48 0.31 0.75 0.42l0.2 1.36c0.02 0.12 0.12 0.21 0.25 0.21h2.07c0.12 0 0.23-0.09 0.25-0.21l0.2-1.36c0.26-0.11 0.51-0.26 0.74-0.42l1.28 0.5c0.12 0.05 0.25 0 0.31-0.11l1.03-1.79c0.06-0.11 0.04-0.24-0.06-0.32zm-3.71 1.07c-0.83 0-1.5-0.67-1.5-1.5s0.67-1.5 1.5-1.5 1.5 0.67 1.5 1.5-0.67 1.5-1.5 1.5z"/><rect x="4" y="7" width="5" height="2"/><rect x="10" y="7" width="5" height="2"/><rect x="16" y="7" width="4" height="2"/></svg>
