
<svg enable-background="new 0 0 16.725 14.055" height="14.055"
     viewBox="0 0 16.725 14.055" width="16.725"
     xmlns="http://www.w3.org/2000/svg">
    <path d="m1.153 13.8c-.556-.058-.854-.386-.895-.985l-.009-1.49c.026-.576.173-1.023.494-1.285l.982-.982c.267-.179.572-.287.965-.238l13.162-.002c.291-.01.521.061.622.311v2.291c0 .33-.083.646-.248.944l-.972.976c-.265.307-.649.428-1.088.461z"
          fill="#0086c6" stroke="#131516" stroke-width=".01"/>
    <g stroke-width=".5">
        <path d="m.259 11.537c-.046-.595.088-1.105.485-1.498l.982-.982c.321-.215.643-.263.964-.237h13.096c.31-.018.539.086.688.309l-.96.959c-.39.291-.799.439-1.228.447l-13.303-.01c-.49.207-.731.544-.724 1.012z"
              fill="#63a8da" stroke="#131516" stroke-linecap="round"
              stroke-linejoin="round"/>
        <path d="m16.475 9.129v2.069c.005.347-.052.681-.248.988l-.899.899c-.326.372-.748.529-1.236.541.677-.184 1.106-.529.989-1.234l-.007-.963c-.022-.415.041-.829.3-1.242z"
              fill="#1b3582" stroke="#131516" stroke-linecap="round"
              stroke-linejoin="round"/>
        <path d="m1.248 10.548h12.842c.545 0 .989.445.989.989v1.277c0 .545-.445.99-.989.99h-12.842c-.544 0-.989-.445-.989-.99v-1.277c0-.544.445-.989.989-.989z"
              fill="#0086c6" stroke="#131516"/>
        <path d="m13.649 4.188h.99v5.223h-.99z" fill="#0086c6" stroke="#1f1a17"/>
        <path d="m13.851.25h.589v3.938h-.589z" fill="#0086c6" stroke="#1f1a17"/>
        <path d="m3 4.188h.99v5.223h-.99z" fill="#0086c6" stroke="#1f1a17"/>
        <path d="m3.201.25h.588v3.938h-.588z" fill="#0086c6" stroke="#1f1a17"/>
    </g>
</svg>