
<svg enable-background="new 0 0 15.912 15.969" height="15.969"
     viewBox="0 0 15.912 15.969" width="15.912"
     xmlns="http://www.w3.org/2000/svg"
     xmlns:xlink="http://www.w3.org/1999/xlink">
    <linearGradient id="a"
                    gradientTransform="matrix(72 0 0 -72 20918.4961 30842.5781)"
                    gradientUnits="userSpaceOnUse" x1="-290.5356" x2="-290.317"
                    y1="428.2578" y2="428.2578">
        <stop offset="0" stop-color="#0084c4"/>
        <stop offset=".7882" stop-color="#2c4ecc"/>
        <stop offset="1" stop-color="#0086c6"/>
    </linearGradient>
    <g stroke="#131516" stroke-width=".5">
        <path d="m.272 3.199c-.352-1.3 3.455-2.935 7.727-2.919 3.887.015 7.645 1.202 7.643 2.919l.021 8.751c-.159 2.161-3.957 3.769-7.663 3.769s-7.688-1.607-7.727-3.769v-8.751z"
              fill="url(#a)"/>
        <path d="m7.967.25c2.12 0 4.038.351 5.428.917s2.252 1.348 2.252 2.21c0 .864-.861 1.646-2.252 2.213-1.391.564-3.311.915-5.428.915-2.123 0-4.044-.351-5.433-.915-1.388-.567-2.247-1.349-2.247-2.213 0-.862.859-1.644 2.248-2.21 1.388-.565 3.312-.917 5.432-.917z"
              fill="#0086c6"/>
    </g>
</svg>