
<svg enable-background="new 0 0 17.01 17" height="17" viewBox="0 0 17.01 17"
     width="17.01" xmlns="http://www.w3.org/2000/svg">
    <path d="m12.693 16.75h-11.264c-.791-.152-1.184-.568-1.179-1.245v-11.222c.009-.873.216-1.54.683-1.941l1.417-1.443c.432-.321.958-.549 1.624-.642l11.607-.007c.624.059 1.032.357 1.178.944v11.662c.031.677-.187 1.242-.575 1.729l-1.808 1.722c-.691.391-.934.401-1.683.443z"
          fill="#0086c6" stroke="#1f1a17" stroke-width=".01"/>
    <path d="m12.784 16.75c.722-.007 1.344-.189 1.825-.629l1.574-1.536c.407-.492.599-1.058.575-1.694v-11.589c-.04-.281-.184-.503-.558-.593l-1.889 1.889c-.401.497-.391.872-.433 1.494l.078 11.661z"
          fill="#1379b8" stroke="#1f1a17" stroke-linecap="round"
          stroke-linejoin="round" stroke-width=".5"/>
    <path d="m14.375 2.535 1.826-1.826c-.136-.249-.342-.402-.62-.459h-11.48c-.631.025-1.215.242-1.75.649l-1.418 1.443c-.512.619-.65 1.274-.683 1.941l1.082-1.246h11.452c.65-.022 1.18-.19 1.591-.502z"
          fill="#7cafdc" stroke="#131516" stroke-linecap="round"
          stroke-linejoin="round" stroke-width=".5"/>
    <path d="m1.251 3.038h11.711c.553 0 1 .448 1 1.001v11.711c0 .553-.447 1-1 1h-11.711c-.553 0-1.001-.447-1.001-1v-11.711c0-.553.448-1.001 1.001-1.001z"
          fill="#0086c6" stroke="#131516" stroke-linecap="round"
          stroke-linejoin="round" stroke-width=".5"/>
    <g fill="#fff" stroke="#fff" stroke-width=".003">
        <path d="m.867 10.387h2.817v.494l2.817-.987-2.817-.987v.494h-2.817z"/>
        <path d="m7.347 8.348 2.996-1.73.278.481 2.441-2.692-3.552.768.278.481-2.996 1.73z"/>
        <path d="m7.283 11.346 2.996 1.731.277-.482 2.443 2.693-3.552-.769.277-.481-2.996-1.73z"/>
        <path d="m7.026 10.387h3.075v.494l3.074-.987-3.074-.987v.494h-3.075z"/>
    </g>
</svg>