
<svg enable-background="new 0 0 17.01 17" height="17" viewBox="0 0 17.01 17"
     width="17.01" xmlns="http://www.w3.org/2000/svg"
     xmlns:xlink="http://www.w3.org/1999/xlink">
    <linearGradient id="a"
                    gradientTransform="matrix(72 0 0 -72 20884.1191 30878.1758)"
                    gradientUnits="userSpaceOnUse" x1="-289.9155" x2="-289.9188"
                    y1="428.7866" y2="428.6754">
        <stop offset="0" stop-color="#ef1411"/>
        <stop offset=".4392" stop-color="#f5eb00"/>
        <stop offset="1" stop-color="#003bc7"/>
    </linearGradient>
    <path d="m12.693 16.75h-11.264c-.791-.152-1.184-.568-1.179-1.245v-11.222c.009-.873.216-1.54.683-1.941l1.417-1.443c.432-.321.958-.549 1.624-.642l11.607-.007c.624.059 1.032.357 1.178.944v11.662c.031.677-.187 1.242-.575 1.729l-1.808 1.722c-.691.391-.934.401-1.683.443z"
          fill="#0086c6" stroke="#1f1a17" stroke-width=".01"/>
    <g stroke-linecap="round" stroke-linejoin="round" stroke-width=".5">
        <path d="m12.784 16.75c.722-.007 1.344-.189 1.825-.629l1.574-1.536c.407-.492.599-1.058.575-1.694v-11.589c-.04-.281-.184-.503-.558-.593l-1.889 1.889c-.401.497-.391.872-.433 1.494l.078 11.661z"
              fill="#1379b8" stroke="#1f1a17"/>
        <path d="m14.375 2.535 1.826-1.826c-.136-.249-.342-.402-.62-.459h-11.48c-.631.025-1.215.242-1.75.649l-1.418 1.443c-.512.619-.65 1.274-.683 1.941l1.082-1.246h11.452c.65-.022 1.18-.19 1.591-.502z"
              fill="#7cafdc" stroke="#131516"/>
        <path d="m1.251 3.038h11.711c.553 0 1 .448 1 1.001v11.711c0 .553-.447 1-1 1h-11.711c-.553 0-1.001-.447-1.001-1v-11.711c0-.553.448-1.001 1.001-1.001z"
              fill="#0086c6" stroke="#131516"/>
    </g>
    <path d="m9.337 14.605-3.781-9.627-3.296 9.627z" fill="#dbdeea"
          stroke="#babbbf" stroke-width=".4"/>
    <path d="m13.292 14.462-.06-9.815-6.5 3.199 1.728 4.529z" fill="url(#a)"
          stroke="#babbbf" stroke-width=".003"/>
    <path d="m5.591 6.433 2.965 7.626" fill="none" stroke="#c7cad8"
          stroke-width=".003"/>
    <path d="m2.963 14.043 2.628-7.61" fill="none" stroke="#ebecf3"
          stroke-width=".003"/>
    <path d="m.76 9.118 5.765-.001.476 1.517h-6.21z" fill="#fff"
          stroke="#006b6f" stroke-width=".2"/>
</svg>