
<svg enable-background="new 0 0 15.912 15.969" height="15.969"
     viewBox="0 0 15.912 15.969" width="15.912"
     xmlns="http://www.w3.org/2000/svg"
     xmlns:xlink="http://www.w3.org/1999/xlink">
    <linearGradient id="a"
                    gradientTransform="matrix(72 0 0 -72 20918.4961 30842.5781)"
                    gradientUnits="userSpaceOnUse" x1="-290.5356" x2="-290.317"
                    y1="428.2578" y2="428.2578">
        <stop offset="0" stop-color="#0084c4"/>
        <stop offset=".7882" stop-color="#1e3582"/>
        <stop offset="1" stop-color="#0086c6"/>
    </linearGradient>
    <path d="m.272 3.199c-.352-1.3 3.455-2.935 7.727-2.919 3.887.015 7.645 1.202 7.643 2.919l.021 8.751c-.159 2.161-3.957 3.769-7.663 3.769s-7.688-1.607-7.727-3.769v-8.751z"
          fill="url(#a)" stroke="#131516" stroke-width=".5"/>
    <path d="m7.967.25c2.12 0 4.038.351 5.428.917s2.252 1.348 2.252 2.21c0 .864-.861 1.646-2.252 2.213-1.391.564-3.311.915-5.428.915-2.123 0-4.044-.351-5.433-.915-1.388-.567-2.247-1.349-2.247-2.213 0-.862.859-1.644 2.248-2.21 1.388-.565 3.312-.917 5.432-.917z"
          fill="#0086c6" stroke="#131516" stroke-width=".5"/>
    <g stroke-width=".003">
        <path d="m9.124 3.036c.725-.273 1.449-.547 2.176-.821.334.127.668.252 1 .378.26-.443.517-.889.776-1.333-1.179.099-2.356.195-3.534.293.334.125.668.251 1 .377-.726.273-1.452.547-2.177.821.253.095.505.19.759.285z"
              fill="#fff" stroke="#fff"/>
        <path d="m13.308 4.861c-.725-.272-1.449-.546-2.175-.82.332-.125.667-.251 1-.377-1.177-.098-2.355-.194-3.532-.292.26.444.516.889.775 1.332.332-.126.666-.251 1-.377.725.273 1.449.547 2.175.82.251-.094.504-.189.757-.286z"
              fill="#fff" stroke="#fff"/>
        <path d="m3.373 1.114c.727.274 1.452.548 2.177.822.333-.126.667-.251 1-.378.26.445.518.89.774 1.333-1.177-.098-2.353-.195-3.532-.293.333-.125.667-.251 1-.377-.725-.273-1.45-.547-2.177-.821.253-.095.505-.191.758-.286z"
              fill="#fff" stroke="#fff"/>
        <path d="m7.732 3.584c-.726.274-1.451.548-2.176.821.333.126.667.252 1 .377-1.178.098-2.355.196-3.532.292.256-.443.515-.888.772-1.332.333.126.668.252 1 .378.725-.274 1.451-.548 2.176-.821.255.096.508.19.76.285z"
              fill="#fff" stroke="#fff"/>
        <path d="m6.12 14.213 6.153-3.553-6.152-3.552z" fill="#fff"
              stroke="#fff"/>
        <path d="m4.433 7.108h1.314v1.314h-1.314z" fill="#63a8da"
              stroke="#63a8da"/>
        <path d="m4.424 10.96h1.315v1.315h-1.315z" fill="#63a8da"
              stroke="#63a8da"/>
        <path d="m4.433 9.028h1.314v1.315h-1.314z" fill="#63a8da"
              stroke="#63a8da"/>
        <path d="m4.433 12.898h1.314v1.314h-1.314z" fill="#63a8da"
              stroke="#63a8da"/>
    </g>
</svg>