
<svg height="400pt" width="400pt" xmlns="http://www.w3.org/2000/svg">
    <g fill-rule="evenodd"
       transform="matrix(1.281037 0 0 1.246562 -26.47202 -19.81327)">
        <path d="m219.061 24.5913c33.402 2.3304 47.386 7.8671 57.465 30.5216 9.34 36.5663 3.126 67.3561 28.761 102.3131 15.536 34.18 50.493 43.501 55.931 128.174-5.438 38.841 15.535 50.493 34.179 61.368 10.099 22.527-51.308 27.315-73.797 58.035-14.504 4.336-32.228 5.437-46.987-16.314-35.733-.776-54.775-.55-84.294 1.781-13.206 3.107-22.348 15.536-34.957 15.409-38.064-12.529-68.3591-13.079-105.6461-27.061 1.5537-13.983 12.429-24.859 1.5537-48.163 3.884-25.635 17.0894 3.884 46.6086-39.617-6.2145-28.742 16.3138-43.501 18.6438-56.708 8.545-26.411 33.402-62.144 48.939-79.234 10.098-52.047-28.742-130.5046 53.6-130.5047z"/>
        <path d="m177.113 151.988c-4.661 7.768-10.876 19.421-15.536 28.742-4.661 9.322 1.553 19.42-3.108 24.858-17.09 24.082-25.634 46.609-19.42 88.557 12.429 13.205 34.18 27.966 45.056 41.948.777 6.991-8.546 13.206-8.546 13.206s7.768 1.553 10.876 1.553c3.107 0 7.768 13.206 15.536 15.536 8.545.777 63.176 5.946 77.158-23.572 5.977-37.812-9.575-47.894 17.613-51.778 3.884-27.189 0-52.823-4.661-63.699-10.875-24.858-15.536-32.626-20.974-52.046-8.545-13.982-11.652-22.528-18.643-30.296-31.85 9.322-36.51 27.966-49.716 27.965-18.644-2.33-17.867-19.42-25.635-20.974z"
              fill="#fff"/>
        <path d="m356.556 294.145s-39.617 54.377-60.591 1.554c-21.732 2.33-2.927 53.275-13.025 85.124.776 14.76 23.124 20.522 35.553 15.084 42.725-36.51 69.135-25.635 72.243-43.501-4.661-20.974-31.072 10.098-34.18-58.261z"
              fill="#ffa600"/>
        <path d="m56.7072 325.994c3.8841-5.438 35.7333-4.661 44.2778-34.956 19.421-14.76 55.154 44.278 73.021 79.234 2.33 6.215 0 32.627-31.85 27.966-62.9213-22.528-73.7966-10.876-86.2256-24.859 14.7594-23.303 5.4378-32.625.7768-47.385z"
              fill="#ffa600"/>
        <path d="m186.435 149.658c1.554 4.661 8.545 10.098 13.983 10.098 15.535-1.553 44.278-12.428 53.599-20.197 2.331-4.66 6.215-13.205.777-17.866-10.875 0-26.411-7.768-31.072-12.429-6.991-3.107-21.751-2.33-29.519-1.554-6.991 9.322-21.751 14.759-20.974 20.974 2.331 5.438 8.544 7.768 13.206 14.76 10.098 3.107 36.51 0 39.617-3.108 3.107-3.107 17.114-6.502 19.42-10.098 3.331-1.546 4.909 1.818 1.554 4.661-2.33 2.33-27.188 11.652-34.18 13.205-8.545 1.554-18.643 2.331-26.411 1.554z"
              fill="#ffa600"/>
        <g fill="#fff">
            <path d="m226.223 107.573c.499-7.361-1.539-14.882 10.003-17.1904 14.334 2.0067 12.772 10.0834 10.764 23.3374 2.816 2.848 6.656 1.055 8.965.286 1.038.246 8.233-21.6806-10.496-35.6731-19.236-2.824-28.478 2.3962-27.7 26.9311 5.093 2.452 4.149 1.564 8.464 2.309z"/>
            <path d="m194.929 105.28c-1.015-3.554.238-14.6436-10.257-13.8662-9.479-.4917-7.409 18.1902-2.309 19.2362 3.07 3.078-2.317 8.719-3.855 6.41-4.077-.531-13.811-36.1729 7.646-37.7038 12.828-1.2771 15.961 20.2755 13.907 26.1698-3.069.564-3.879.524-5.132-.246z"/>
            <path d="m236.315 92.6044c2.031-.5077 11.929 3.046 9.645 9.8996-.762 2.792-1.523 1.777-3.553.761.253-4.9916-2.285-6.6838-6.346-7.8684-.169-1.1846-.592-1.8615.254-2.7922z"
                  fill-opacity=".7"/>
            <path d="m191.641 105.55s-3.046 1.269-3.046.254c0-1.016-.254-6.3462-3.046-8.8845-.761-1.523-.508-2.0306 1.523-2.5383 2.792 1.2692 5.331 3.5536 4.569 11.1688z"
                  fill-opacity=".7"/>
            <path d="m247.483 42.8539c6.092 1.523 9.646 5.3305 10.153 8.6302-6.092.7615-12.184 5.5842-15.229 4.8227-.762-1.5229 3.045-6.3457 5.076-13.4529z"
                  fill-opacity=".25"/>
            <path d="m271.343 136.771c1.523.254 7.869 6.346 14.722 9.138 2.031-1.523.254 7.36-4.569 8.122-5.076-2.538-13.96-12.184-10.153-17.26z"
                  fill-opacity=".7"/>
            <path d="m305.864 280.438c6.6-1.015 18.022-3.554 24.875 2.792 4.315 2.792 2.538-.508 1.523-2.792-6.346-5.331-8.63-6.6-11.169-6.092-2.538.508 23.099-39.851-27.921-86.048 24.368 32.49 40.867 77.164 12.692 92.14z"
                  fill-opacity=".7"/>
            <path d="m130.721 216.473c.508-2.031 4.57-4.315 6.347-10.407-.762-1.015 4.061-4.569 4.315-1.015-1.777 7.615-6.6 17.514-10.662 11.422z"
                  fill-opacity=".7"/>
            <path d="m123.869 243.633c.508.254-6.092 28.428 6.091 43.912 2.031 7.361-7.361-4.822-10.915-13.199-1.015-10.406-4.569-24.875 4.824-30.713z"
                  fill-opacity=".7"/>
            <path d="m278.704 358.11c-.761 5.838-2.03 18.021-3.553 25.382-1.016 1.016-6.346-.253-5.838-5.837.507-5.585 5.076-19.038 9.391-19.545z"
                  fill-opacity=".7"/>
            <path d="m170.827 351.51c2.792 1.015 14.976 12.184 17.261 19.798 2.283 12.439-1.524 15.485-3.554 16.5-.762-2.539 1.523-7.615.254-13.708-2.793-9.391-16.499-20.306-13.961-22.59z"
                  fill-opacity=".7"/>
        </g>
        <path d="m192.402 202.512c1.523-1.269 28.175-1.015 31.729 1.016 3.554 2.03-1.523 4.315-3.554 4.315-2.03 0-9.645-1.269-9.899.761-.254 2.031 1.269 9.9-.254 11.169s-5.584 2.03-6.599.507c-1.27-3.553.507-10.66-1.016-11.168s-12.437-.254-10.407-6.6z"
              fill-opacity=".25"/>
        <path d="m201.794 234.495c-.508-2.284 5.33-3.046 6.092-1.269 2.031 5.837-3.553 67.264-7.614 66.757-4.316-.254.761-45.182 1.522-65.488z"
              fill-opacity=".25"/>
        <path d="m192.559 113.728c-.385.192.385-2.116 2.501-2.501.769-.384.961-2.116 3.078-1.539 1.923.193 2.693.962-.192 2.693-2.116 2.116-3.848 4.233-5.387 1.347z"
              fill-opacity=".75"/>
        <path d="m213.142 111.035c0-.192 1.924-1.539 5.963-.578 2.116.963 1.731 2.117.962 2.502-2.116 1.346-5.002.385-6.925-1.924z"
              fill-opacity=".74902"/>
    </g>
</svg>