<?xml version="1.0" encoding="UTF-8" standalone="no"?>
<!DOCTYPE svg PUBLIC "-//W3C//DTD SVG 20010904//EN"
"http://www.w3.org/TR/2001/REC-SVG-20010904/DTD/svg10.dtd">
<!-- Created with Inkscape (http://www.inkscape.org/) -->
<svg
   id="svg1"
   sodipodi:version="0.32"
   inkscape:version="0.38.1"
   width="80.000000pt"
   height="80.000000pt"
   sodipodi:docbase="/home/nicu"
   sodipodi:docname="ppls.svg"
   xmlns="http://www.w3.org/2000/svg"
   xmlns:inkscape="http://www.inkscape.org/namespaces/inkscape"
   xmlns:sodipodi="http://sodipodi.sourceforge.net/DTD/sodipodi-0.dtd"
   xmlns:xlink="http://www.w3.org/1999/xlink">
  <defs
     id="defs3" />
  <sodipodi:namedview
     id="base"
     pagecolor="#ffffff"
     bordercolor="#666666"
     borderopacity="1.0"
     inkscape:pageopacity="0.0"
     inkscape:pageshadow="2"
     inkscape:zoom="3.4822023"
     inkscape:cx="69.000443"
     inkscape:cy="34.676183"
     inkscape:window-width="950"
     inkscape:window-height="662"
     inkscape:window-x="101"
     inkscape:window-y="32" />
  <path
     style="fill:#000000;fill-rule:evenodd;stroke:none;stroke-width:2.2418876;stroke-linejoin:round;fill-opacity:0.50000000;"
     d="M 39.375000,18.125000 C 33.746800,18.125000 29.187510,21.896577 29.187500,26.531250 C 29.187500,29.713051 31.422910,32.388338 34.593750,33.812500 C 32.885850,34.144464 31.300870,34.596247 29.812500,35.156250 C 28.096480,34.075638 26.044260,33.312501 23.718750,33.312500 C 18.090550,33.312500 13.531240,37.084075 13.531250,41.718750 C 13.531250,44.907460 15.755350,47.609860 18.937500,49.031250 C 14.730300,49.849360 10.909080,51.273140 8.6562500,53.468750 C 3.9119100,59.946250 5.6798600,65.046840 5.5937500,65.968750 C 6.0201800,66.460370 8.7302200,68.347510 10.750000,68.187500 C 10.697350,67.104020 10.881480,65.959880 10.968750,64.781250 C 11.037220,63.669920 11.000580,63.100820 11.125000,61.968750 C 11.410750,59.752800 11.718750,58.031250 11.718750,58.031250 C 11.603290,58.126330 11.341500,59.998860 11.125000,61.968750 C 11.011750,62.846990 11.040770,63.808580 10.968750,64.781250 C 10.889790,66.062980 10.723670,67.602290 10.812500,68.187500 C 10.792910,68.189460 10.769720,68.185940 10.750000,68.187500 C 10.750960,68.207300 10.748980,68.230270 10.750000,68.250000 C 10.969900,71.919990 12.756170,80.353330 13.531250,81.062500 C 20.099120,82.032140 26.466810,81.932340 33.187500,81.406250 C 34.240620,81.323810 35.236660,81.357450 36.312500,81.250000 C 36.312500,81.250000 36.550200,78.780130 36.625000,78.062500 C 37.269160,75.852260 37.795690,73.212340 37.375000,70.750000 C 37.443460,70.057110 37.430620,70.089200 37.500000,69.375000 C 37.415850,68.163230 37.280550,67.480820 37.156250,66.437500 C 37.167340,66.437940 37.176410,66.468310 37.187500,66.468750 C 37.328950,67.804140 37.500000,69.375000 37.500000,69.375000 C 40.128720,68.914460 41.996280,68.461780 44.625000,66.937500 C 44.697670,66.859710 44.717140,66.575810 44.781250,66.437500 C 45.915750,66.387820 47.064530,66.334760 48.218750,66.250000 C 48.559050,67.489400 48.958040,69.165050 49.187500,69.375000 C 54.910930,70.219970 60.506960,70.206130 66.281250,69.875000 C 66.885800,72.805660 67.548950,75.397160 67.968750,75.781250 C 74.461230,76.739760 80.771920,76.663950 87.406250,76.156250 C 87.691870,76.154970 87.833550,76.139840 88.125000,76.125000 C 89.015200,76.052040 89.843380,76.059300 90.750000,75.968750 C 90.750000,75.968750 90.991370,73.557160 91.062500,72.875000 C 91.702880,70.699660 92.199120,68.074840 91.812500,65.593750 C 91.885760,64.853050 91.894350,64.890870 91.968750,64.125000 C 91.794910,61.621770 91.469220,59.770050 91.187500,58.062500 C 90.951690,56.444190 90.720390,54.667270 90.406250,53.718750 C 90.383200,53.663330 90.766440,55.510400 91.187500,58.062500 C 91.627010,61.078760 91.968750,64.125000 91.968750,64.125000 C 94.597470,63.664460 96.433770,63.180540 99.062500,61.656250 C 99.923690,60.734330 100.36722,55.473930 96.468750,48.312500 C 94.806530,45.259046 89.751100,43.603747 84.000000,43.156250 C 86.571870,41.631518 88.375000,39.275752 88.375000,36.468750 C 88.375000,36.447955 88.375180,36.427009 88.375000,36.406250 C 88.442870,36.070646 88.559530,35.629193 88.593750,35.406250 C 88.385130,35.265066 88.237300,35.290252 88.062500,35.218750 C 87.303720,31.200001 83.248130,28.062499 78.156250,28.062500 C 73.935100,28.062500 70.329770,30.174330 68.781250,33.187500 C 69.260760,32.214145 69.562500,31.145756 69.562500,30.031250 C 69.562500,30.010279 69.562690,29.989685 69.562500,29.968750 C 69.628870,29.638963 69.747490,29.188674 69.781250,28.968750 C 69.567720,28.824246 69.428170,28.852835 69.250000,28.781250 C 68.485350,24.768127 64.462040,21.656247 59.375000,21.656250 C 53.746800,21.656250 49.187500,25.396576 49.187500,30.031250 C 49.187500,31.541581 49.776220,32.900081 50.625000,34.125000 C 48.961070,33.681742 47.149890,33.401270 45.218750,33.250000 C 47.431940,31.940409 48.919440,29.981488 49.312500,27.656250 C 49.459420,27.185697 49.484520,26.910193 49.562500,26.531250 C 49.562500,26.520807 49.562550,26.510434 49.562500,26.500000 C 49.632510,26.156180 49.746380,25.695931 49.781250,25.468750 C 49.567720,25.324246 49.428170,25.352835 49.250000,25.281250 C 48.489840,21.263822 44.465740,18.124997 39.375000,18.125000 z M 68.750000,33.312500 C 68.270490,34.285854 67.968750,35.354245 67.968750,36.468750 C 67.968750,36.681085 68.106160,36.854108 68.125000,37.062500 C 67.182970,36.905816 66.219820,36.797108 65.218750,36.718750 C 66.720010,35.824389 68.018790,34.735309 68.750000,33.312500 z "
     id="path1082" />
  <g
     id="g984"
     transform="translate(0.000000,-2.500000)">
    <path
       style="fill:#ff8a00;fill-rule:evenodd;stroke:#000000;stroke-width:2.2418875;stroke-linejoin:round;stroke-dasharray:none;"
       d="M 18.815381,66.311465 C 18.972030,64.681190 15.769036,55.671840 24.399078,44.217288 C 37.415368,31.884895 77.966373,31.743657 85.057780,44.407630 C 92.149187,57.071603 91.377080,66.401160 89.810561,68.031441 C 85.028880,70.726921 81.657068,71.541315 76.875385,72.355710 C 76.875385,72.355710 75.697710,58.800506 74.061235,53.996931 C 73.991268,53.833370 76.086553,61.317549 76.875385,72.360173 C 75.784402,83.277395 74.693413,93.316769 74.693413,93.316769 C 60.247656,94.719369 47.055114,94.993311 33.235956,93.009952 C 31.826092,91.755891 28.569868,76.850028 28.169873,70.360166 C 27.769878,62.867061 29.963002,52.268028 29.963002,52.268028 C 29.493050,52.644242 27.781030,66.766013 28.326527,70.259520 C 24.642420,70.617881 19.598640,67.189306 18.815381,66.311465 z "
       id="path884"
       sodipodi:nodetypes="ccccccccccccc"
       transform="matrix(0.549747,0.000000,0.000000,0.565496,27.39579,15.90509)" />
    <path
       style="fill:#ff8a00;fill-rule:evenodd;stroke:#000000;stroke-width:2.2418875;stroke-linejoin:round;stroke-dasharray:none;"
       d="M 70.329470,23.446570 C 70.329470,31.642344 62.020523,38.293988 51.782713,38.293988 C 41.544909,38.293988 33.235956,31.642344 33.235956,23.446570 C 33.235956,15.250797 41.544909,8.5991520 51.782713,8.5991520 C 62.020523,8.5991520 70.329470,15.250797 70.329470,23.446570 z "
       id="path885"
       transform="matrix(0.549747,0.000000,0.000000,0.565496,27.39579,15.90509)" />
    <path
       style="fill:#ffffff;fill-opacity:0.24999996;fill-rule:evenodd;stroke-width:1.0000000pt;"
       d="M 51.511942,9.7194887 C 43.435157,7.0272269 24.409841,21.026988 39.486506,33.590876 C 48.640196,31.796035 31.050752,17.257821 51.511942,9.7194887 z "
       id="path886"
       sodipodi:nodetypes="ccc"
       transform="matrix(0.549747,0.000000,0.000000,0.565496,27.39579,15.90509)" />
    <path
       style="fill:#ffffff;fill-opacity:0.24999996;fill-rule:evenodd;stroke-width:1.0000000pt;"
       d="M 42.178768,37.180559 C 41.281348,37.001075 29.255912,39.154884 24.948292,45.077860 C 21.358610,47.231669 17.948412,57.462265 19.384285,65.718533 C 21.179126,67.154406 24.589324,69.487700 25.486745,68.949248 C 30.512300,58.359684 13.640793,47.411153 42.178768,37.180559 z "
       id="path887"
       sodipodi:nodetypes="ccccc"
       transform="matrix(0.549747,0.000000,0.000000,0.565496,27.39579,15.90509)" />
    <path
       style="fill:#ffffff;fill-opacity:0.24999996;fill-rule:evenodd;stroke-width:1.0000000pt;"
       d="M 30.153332,55.128970 C 26.563649,66.077501 29.973848,85.641271 33.922499,92.102698 C 37.871149,93.359087 43.435157,93.897540 44.691545,93.538572 C 45.768450,84.384881 29.794364,85.641270 30.153332,55.128970 z "
       id="path888"
       sodipodi:nodetypes="cccc"
       transform="matrix(0.549747,0.000000,0.000000,0.565496,27.39579,15.90509)" />
    <path
       style="fill-opacity:0.24999996;fill-rule:evenodd;stroke-width:1.0000000pt;"
       d="M 52.588846,37.539527 C 67.844996,33.411393 63.896346,17.078338 70.716742,21.565440 C 70.178290,24.975638 68.024480,37.001075 52.588846,37.539527 z "
       id="path889"
       sodipodi:nodetypes="ccc"
       transform="matrix(0.549747,0.000000,0.000000,0.565496,27.39579,15.90509)" />
    <path
       style="fill-opacity:0.24999996;fill-rule:evenodd;stroke-width:1.0000000pt;"
       d="M 81.306305,70.564605 C 81.306305,70.564605 89.562574,68.949248 89.921543,67.333891 C 91.895869,61.051946 86.511345,46.154765 83.998567,43.641987 C 71.793647,39.334368 97.280392,68.590279 81.306305,70.564605 z "
       id="path890"
       sodipodi:nodetypes="cccc"
       transform="matrix(0.549747,0.000000,0.000000,0.565496,27.39579,15.90509)" />
    <path
       style="fill-opacity:0.23999996;fill-rule:evenodd;stroke-width:1.0000000pt;"
       d="M 64.973251,93.538572 C 64.973251,93.538572 72.870552,94.077024 73.767972,92.641151 C 74.665393,91.205278 78.793528,78.641390 76.280750,72.538930 C 68.024480,65.718534 79.331980,93.359088 64.973251,93.538572 z "
       id="path891"
       sodipodi:nodetypes="cccc"
       transform="matrix(0.549747,0.000000,0.000000,0.565496,27.39579,15.90509)" />
    <path
       style="fill:#8400ff;fill-rule:evenodd;stroke:#000000;stroke-width:2.2418875;stroke-linejoin:round;stroke-dasharray:none;"
       d="M 18.815381,66.311465 C 18.972030,64.681190 15.769036,55.671840 24.399078,44.217288 C 37.415368,31.884895 77.966373,31.743657 85.057780,44.407630 C 92.149187,57.071603 91.377080,66.401160 89.810561,68.031441 C 85.028880,70.726921 81.657068,71.541315 76.875385,72.355710 C 76.875385,72.355710 75.697710,58.800506 74.061235,53.996931 C 73.991268,53.833370 76.086553,61.317549 76.875385,72.360173 C 75.784402,83.277395 74.693413,93.316769 74.693413,93.316769 C 60.247656,94.719369 47.055114,94.993311 33.235956,93.009952 C 31.826092,91.755891 28.569868,76.850028 28.169873,70.360166 C 27.769878,62.867061 29.963002,52.268028 29.963002,52.268028 C 29.493050,52.644242 27.781030,66.766013 28.326527,70.259520 C 24.642420,70.617881 19.598640,67.189306 18.815381,66.311465 z "
       id="path828"
       sodipodi:nodetypes="ccccccccccccc"
       transform="matrix(0.549747,0.000000,0.000000,0.565496,46.19665,22.32519)" />
    <path
       style="fill:#8400ff;fill-rule:evenodd;stroke:#000000;stroke-width:2.2418875;stroke-linejoin:round;stroke-dasharray:none;"
       d="M 70.329470,23.446570 C 70.329470,31.642344 62.020523,38.293988 51.782713,38.293988 C 41.544909,38.293988 33.235956,31.642344 33.235956,23.446570 C 33.235956,15.250797 41.544909,8.5991520 51.782713,8.5991520 C 62.020523,8.5991520 70.329470,15.250797 70.329470,23.446570 z "
       id="path827"
       transform="matrix(0.549747,0.000000,0.000000,0.565496,46.19665,22.32519)" />
    <path
       style="fill:#ffffff;fill-opacity:0.24999996;fill-rule:evenodd;stroke-width:1.0000000pt;"
       d="M 51.511942,9.7194887 C 43.435157,7.0272269 24.409841,21.026988 39.486506,33.590876 C 48.640196,31.796035 31.050752,17.257821 51.511942,9.7194887 z "
       id="path830"
       sodipodi:nodetypes="ccc"
       transform="matrix(0.549747,0.000000,0.000000,0.565496,46.19665,22.32519)" />
    <path
       style="fill:#ffffff;fill-opacity:0.24999996;fill-rule:evenodd;stroke-width:1.0000000pt;"
       d="M 42.178768,37.180559 C 41.281348,37.001075 29.255912,39.154884 24.948292,45.077860 C 21.358610,47.231669 17.948412,57.462265 19.384285,65.718533 C 21.179126,67.154406 24.589324,69.487700 25.486745,68.949248 C 30.512300,58.359684 13.640793,47.411153 42.178768,37.180559 z "
       id="path831"
       sodipodi:nodetypes="ccccc"
       transform="matrix(0.549747,0.000000,0.000000,0.565496,46.19665,22.32519)" />
    <path
       style="fill:#ffffff;fill-opacity:0.24999996;fill-rule:evenodd;stroke-width:1.0000000pt;"
       d="M 30.153332,55.128970 C 26.563649,66.077501 29.973848,85.641271 33.922499,92.102698 C 37.871149,93.359087 43.435157,93.897540 44.691545,93.538572 C 45.768450,84.384881 29.794364,85.641270 30.153332,55.128970 z "
       id="path832"
       sodipodi:nodetypes="cccc"
       transform="matrix(0.549747,0.000000,0.000000,0.565496,46.19665,22.32519)" />
    <path
       style="fill-opacity:0.24999996;fill-rule:evenodd;stroke-width:1.0000000pt;"
       d="M 52.588846,37.539527 C 67.844996,33.411393 63.896346,17.078338 70.716742,21.565440 C 70.178290,24.975638 68.024480,37.001075 52.588846,37.539527 z "
       id="path833"
       sodipodi:nodetypes="ccc"
       transform="matrix(0.549747,0.000000,0.000000,0.565496,46.19665,22.32519)" />
    <path
       style="fill-opacity:0.24999996;fill-rule:evenodd;stroke-width:1.0000000pt;"
       d="M 81.306305,70.564605 C 81.306305,70.564605 89.562574,68.949248 89.921543,67.333891 C 91.895869,61.051946 86.511345,46.154765 83.998567,43.641987 C 71.793647,39.334368 97.280392,68.590279 81.306305,70.564605 z "
       id="path834"
       sodipodi:nodetypes="cccc"
       transform="matrix(0.549747,0.000000,0.000000,0.565496,46.19665,22.32519)" />
    <path
       style="fill-opacity:0.23999996;fill-rule:evenodd;stroke-width:1.0000000pt;"
       d="M 64.973251,93.538572 C 64.973251,93.538572 72.870552,94.077024 73.767972,92.641151 C 74.665393,91.205278 78.793528,78.641390 76.280750,72.538930 C 68.024480,65.718534 79.331980,93.359088 64.973251,93.538572 z "
       id="path835"
       sodipodi:nodetypes="cccc"
       transform="matrix(0.549747,0.000000,0.000000,0.565496,46.19665,22.32519)" />
    <path
       style="fill:#008500;fill-rule:evenodd;stroke:#000000;stroke-width:2.2418875;stroke-linejoin:round;stroke-dasharray:none;"
       d="M 18.815381,66.311465 C 18.972030,64.681190 15.769036,55.671840 24.399078,44.217288 C 37.415368,31.884895 77.966373,31.743657 85.057780,44.407630 C 92.149187,57.071603 91.377080,66.401160 89.810561,68.031441 C 85.028880,70.726921 81.657068,71.541315 76.875385,72.355710 C 76.875385,72.355710 75.697710,58.800506 74.061235,53.996931 C 73.991268,53.833370 76.086553,61.317549 76.875385,72.360173 C 75.784402,83.277395 74.693413,93.316769 74.693413,93.316769 C 60.247656,94.719369 47.055114,94.993311 33.235956,93.009952 C 31.826092,91.755891 28.569868,76.850028 28.169873,70.360166 C 27.769878,62.867061 29.963002,52.268028 29.963002,52.268028 C 29.493050,52.644242 27.781030,66.766013 28.326527,70.259520 C 24.642420,70.617881 19.598640,67.189306 18.815381,66.311465 z "
       id="path875"
       sodipodi:nodetypes="ccccccccccccc"
       transform="matrix(0.549747,0.000000,0.000000,0.565496,7.407524,12.39695)" />
    <path
       style="fill:#008500;fill-rule:evenodd;stroke:#000000;stroke-width:2.2418875;stroke-linejoin:round;stroke-dasharray:none;"
       d="M 70.329470,23.446570 C 70.329470,31.642344 62.020523,38.293988 51.782713,38.293988 C 41.544909,38.293988 33.235956,31.642344 33.235956,23.446570 C 33.235956,15.250797 41.544909,8.5991520 51.782713,8.5991520 C 62.020523,8.5991520 70.329470,15.250797 70.329470,23.446570 z "
       id="path876"
       transform="matrix(0.549747,0.000000,0.000000,0.565496,7.407524,12.39695)" />
    <path
       style="fill:#ffffff;fill-opacity:0.24999996;fill-rule:evenodd;stroke-width:1.0000000pt;"
       d="M 51.511942,9.7194887 C 43.435157,7.0272269 24.409841,21.026988 39.486506,33.590876 C 48.640196,31.796035 31.050752,17.257821 51.511942,9.7194887 z "
       id="path877"
       sodipodi:nodetypes="ccc"
       transform="matrix(0.549747,0.000000,0.000000,0.565496,7.407524,12.39695)" />
    <path
       style="fill:#ffffff;fill-opacity:0.24999996;fill-rule:evenodd;stroke-width:1.0000000pt;"
       d="M 42.178768,37.180559 C 41.281348,37.001075 29.255912,39.154884 24.948292,45.077860 C 21.358610,47.231669 17.948412,57.462265 19.384285,65.718533 C 21.179126,67.154406 24.589324,69.487700 25.486745,68.949248 C 30.512300,58.359684 13.640793,47.411153 42.178768,37.180559 z "
       id="path878"
       sodipodi:nodetypes="ccccc"
       transform="matrix(0.549747,0.000000,0.000000,0.565496,7.407524,12.39695)" />
    <path
       style="fill:#ffffff;fill-opacity:0.24999996;fill-rule:evenodd;stroke-width:1.0000000pt;"
       d="M 30.153332,55.128970 C 26.563649,66.077501 29.973848,85.641271 33.922499,92.102698 C 37.871149,93.359087 43.435157,93.897540 44.691545,93.538572 C 45.768450,84.384881 29.794364,85.641270 30.153332,55.128970 z "
       id="path879"
       sodipodi:nodetypes="cccc"
       transform="matrix(0.549747,0.000000,0.000000,0.565496,7.407524,12.39695)" />
    <path
       style="fill-opacity:0.24999996;fill-rule:evenodd;stroke-width:1.0000000pt;"
       d="M 52.588846,37.539527 C 67.844996,33.411393 63.896346,17.078338 70.716742,21.565440 C 70.178290,24.975638 68.024480,37.001075 52.588846,37.539527 z "
       id="path880"
       sodipodi:nodetypes="ccc"
       transform="matrix(0.549747,0.000000,0.000000,0.565496,7.407524,12.39695)" />
    <path
       style="fill-opacity:0.24999996;fill-rule:evenodd;stroke-width:1.0000000pt;"
       d="M 81.306305,70.564605 C 81.306305,70.564605 89.562574,68.949248 89.921543,67.333891 C 91.895869,61.051946 86.511345,46.154765 83.998567,43.641987 C 71.793647,39.334368 97.280392,68.590279 81.306305,70.564605 z "
       id="path881"
       sodipodi:nodetypes="cccc"
       transform="matrix(0.549747,0.000000,0.000000,0.565496,7.407524,12.39695)" />
    <path
       style="fill-opacity:0.23999996;fill-rule:evenodd;stroke-width:1.0000000pt;"
       d="M 64.973251,93.538572 C 64.973251,93.538572 72.870552,94.077024 73.767972,92.641151 C 74.665393,91.205278 78.793528,78.641390 76.280750,72.538930 C 68.024480,65.718534 79.331980,93.359088 64.973251,93.538572 z "
       id="path882"
       sodipodi:nodetypes="cccc"
       transform="matrix(0.549747,0.000000,0.000000,0.565496,7.407524,12.39695)" />
    <path
       style="fill:#0000cc;fill-rule:evenodd;stroke:#000000;stroke-width:2.2418875;stroke-linejoin:round;stroke-dasharray:none;"
       d="M 18.815381,66.311465 C 18.972030,64.681190 15.769036,55.671840 24.399078,44.217288 C 37.415368,31.884895 77.966373,31.743657 85.057780,44.407630 C 92.149187,57.071603 91.377080,66.401160 89.810561,68.031441 C 85.028880,70.726921 81.657068,71.541315 76.875385,72.355710 C 76.875385,72.355710 75.697710,58.800506 74.061235,53.996931 C 73.991268,53.833370 76.086553,61.317549 76.875385,72.360173 C 75.784402,83.277395 74.693413,93.316769 74.693413,93.316769 C 60.247656,94.719369 47.055114,94.993311 33.235956,93.009952 C 31.826092,91.755891 28.569868,76.850028 28.169873,70.360166 C 27.769878,62.867061 29.963002,52.268028 29.963002,52.268028 C 29.493050,52.644242 27.781030,66.766013 28.326527,70.259520 C 24.642420,70.617881 19.598640,67.189306 18.815381,66.311465 z "
       id="path893"
       sodipodi:nodetypes="ccccccccccccc"
       transform="matrix(0.549747,0.000000,0.000000,0.565496,-8.255344,27.59062)" />
    <path
       style="fill:#0000cc;fill-rule:evenodd;stroke:#000000;stroke-width:2.2418875;stroke-linejoin:round;stroke-dasharray:none;"
       d="M 70.329470,23.446570 C 70.329470,31.642344 62.020523,38.293988 51.782713,38.293988 C 41.544909,38.293988 33.235956,31.642344 33.235956,23.446570 C 33.235956,15.250797 41.544909,8.5991520 51.782713,8.5991520 C 62.020523,8.5991520 70.329470,15.250797 70.329470,23.446570 z "
       id="path894"
       transform="matrix(0.549747,0.000000,0.000000,0.565496,-8.255344,27.59062)" />
    <path
       style="fill:#ffffff;fill-opacity:0.24999996;fill-rule:evenodd;stroke-width:1.0000000pt;"
       d="M 51.511942,9.7194887 C 43.435157,7.0272269 24.409841,21.026988 39.486506,33.590876 C 48.640196,31.796035 31.050752,17.257821 51.511942,9.7194887 z "
       id="path895"
       sodipodi:nodetypes="ccc"
       transform="matrix(0.549747,0.000000,0.000000,0.565496,-8.255344,27.59062)" />
    <path
       style="fill:#ffffff;fill-opacity:0.24999996;fill-rule:evenodd;stroke-width:1.0000000pt;"
       d="M 42.178768,37.180559 C 41.281348,37.001075 29.255912,39.154884 24.948292,45.077860 C 21.358610,47.231669 17.948412,57.462265 19.384285,65.718533 C 21.179126,67.154406 24.589324,69.487700 25.486745,68.949248 C 30.512300,58.359684 13.640793,47.411153 42.178768,37.180559 z "
       id="path896"
       sodipodi:nodetypes="ccccc"
       transform="matrix(0.549747,0.000000,0.000000,0.565496,-8.255344,27.59062)" />
    <path
       style="fill:#ffffff;fill-opacity:0.24999996;fill-rule:evenodd;stroke-width:1.0000000pt;"
       d="M 30.153332,55.128970 C 26.563649,66.077501 29.973848,85.641271 33.922499,92.102698 C 37.871149,93.359087 43.435157,93.897540 44.691545,93.538572 C 45.768450,84.384881 29.794364,85.641270 30.153332,55.128970 z "
       id="path897"
       sodipodi:nodetypes="cccc"
       transform="matrix(0.549747,0.000000,0.000000,0.565496,-8.255344,27.59062)" />
    <path
       style="fill-opacity:0.24999996;fill-rule:evenodd;stroke-width:1.0000000pt;"
       d="M 52.588846,37.539527 C 67.844996,33.411393 63.896346,17.078338 70.716742,21.565440 C 70.178290,24.975638 68.024480,37.001075 52.588846,37.539527 z "
       id="path898"
       sodipodi:nodetypes="ccc"
       transform="matrix(0.549747,0.000000,0.000000,0.565496,-8.255344,27.59062)" />
    <path
       style="fill-opacity:0.24999996;fill-rule:evenodd;stroke-width:1.0000000pt;"
       d="M 81.306305,70.564605 C 81.306305,70.564605 89.562574,68.949248 89.921543,67.333891 C 91.895869,61.051946 86.511345,46.154765 83.998567,43.641987 C 71.793647,39.334368 97.280392,68.590279 81.306305,70.564605 z "
       id="path899"
       sodipodi:nodetypes="cccc"
       transform="matrix(0.549747,0.000000,0.000000,0.565496,-8.255344,27.59062)" />
    <path
       style="fill-opacity:0.23999996;fill-rule:evenodd;stroke-width:1.0000000pt;"
       d="M 64.973251,93.538572 C 64.973251,93.538572 72.870552,94.077024 73.767972,92.641151 C 74.665393,91.205278 78.793528,78.641390 76.280750,72.538930 C 68.024480,65.718534 79.331980,93.359088 64.973251,93.538572 z "
       id="path900"
       sodipodi:nodetypes="cccc"
       transform="matrix(0.549747,0.000000,0.000000,0.565496,-8.255344,27.59062)" />
  </g>

  <rdf:RDF 
   xmlns="http://web.resource.org/cc/"
   xmlns:dc="http://purl.org/dc/elements/1.1/"
   xmlns:rdf="http://www.w3.org/1999/02/22-rdf-syntax-ns#">
  <Work rdf:about="">
    <dc:title>Clipart by Nicu Buculei - head1</dc:title>
    <dc:rights>
       <Agent>
         <dc:title>Nicu Buculei</dc:title>
       </Agent>
    </dc:rights>
    <dc:type rdf:resource="http://purl.org/dc/dcmitype/StillImage" />
    <license rdf:resource="http://web.resource.org/cc/PublicDomain" />
  </Work>
   
  <License rdf:about="http://web.resource.org/cc/PublicDomain">
     <permits rdf:resource="http://web.resource.org/cc/Reproduction" />
     <permits rdf:resource="http://web.resource.org/cc/Distribution" />
     <permits rdf:resource="http://web.resource.org/cc/DerivativeWorks" />
  </License>

</rdf:RDF>
</svg>
