
<svg height="80pt" width="80pt" xmlns="http://www.w3.org/2000/svg">
    <path d="m56.78125 9.03125c.529231.4571508.943539 1.059584 1.4375 1.5625-.667366-.084533-1.339595-.138203-2.03125-.15625-.615099-.351553-1.345101-.5687779-2.15625-.65625.193448-.1781223.33268-.4222248.53125-.59375-8.148623.897401-13.394744 4.309108-15.375 9.21875-.108122.224443-.191193.457954-.28125.6875-.120897.368771-.290955.709263-.375 1.09375-.224358.888508-.343573 1.781601-.25 2.71875.000433 2.772854.767333 5.815044 2.53125 9.09375.298979-.678795.609562-1.26509.90625-1.9375 2.86002 3.757848 8.014467 6.28125 13.9375 6.28125 5.972774 0 11.155525-2.564608 14-6.375.287308.651306.585508 1.217743.875 1.875 6.429426-11.950798.658935-21.225656-13.75-22.8125zm-28.1875 19.5625c.538233.464926.966966 1.08152 1.46875 1.59375-.676178-.087767-1.361198-.136807-2.0625-.15625-.616383-.361097-1.338553-.56512-2.15625-.65625.193447-.178122.33268-.422225.53125-.59375-8.137663.896194-13.388256 4.288633-15.375 9.1875-.116742.239845-.216415.473052-.3125.71875-.125605.38436-.289412.754854-.375 1.15625-.207926.861394-.30927 1.749677-.21875 2.65625.000318 2.773001.767214 5.814822 2.53125 9.09375.295312-.67047.613187-1.241995.90625-1.90625 2.865794 3.737579 8.002446 6.249999 13.90625 6.25 3.432373 0 6.620915-.840128 9.25-2.28125l-.0625 5c-2.657567-.628531-5.550406-1.062498-8.75-1.0625-10.381978.000001-18.848298 3.717267-19.34375 8.40625l-.1875 18.6875c13.169937.888073 25.655714.80048 39 .0625l-.125-18.75c-.019612-.185606-.143306-.348796-.1875-.53125 5.776461.16807 11.630214.189807 17.4375.03125-3.80059 1.535037-6.332646 3.685144-6.59375 6.15625l-.21875 18.6875c13.169937.888067 25.655717.769232 39 .03125l-.125-18.71875c-.495455-4.688982-8.961775-8.406244-19.34375-8.40625-.588109 0-1.081577.132765-1.65625.15625l-.03125-1.90625c.420645.025882.821052.09375 1.25.09375 5.991191 0 11.161509-2.607607 14-6.4375.292788.663637.611216 1.236411.90625 1.90625 6.429433-11.950799.658936-21.225656-13.75-22.8125.538233.464926.966966 1.08152 1.46875 1.59375-.676178-.087767-1.361198-.136807-2.0625-.15625-.622019-.363224-1.330188-.56717-2.15625-.65625.193447-.178122.33268-.422225.53125-.59375-5.08588.560104-9.034955 2.087718-11.8125 4.34375-2.398252-.4874-4.986546-.781248-7.78125-.78125-4.370707 0-8.230255.757887-11.46875 1.875-1.188001-6.031943-6.780041-10.262422-16.03125-11.28125z"
          fill-opacity=".5" fill-rule="evenodd"/>
    <g stroke="#000" stroke-width="1.25">
        <path d="m68.179862 20.445621c0 7.163944-7.311423 12.978165-16.320136 12.978165s-16.320133-5.814221-16.320133-12.978165c0-7.163945 7.31142-12.9781608 16.320133-12.9781608s16.320136 5.8142158 16.320136 12.9781608z"
              fill="#955900" fill-rule="evenodd" stroke-linejoin="round"/>
        <path d="m52.302792 35.068999c-10.381978 0-18.841568 3.738343-19.337019 8.427326l-.195285 18.68708c13.169936.888072 25.642462.775504 38.986751.037524l-.117435-18.724604c-.495454-4.688983-8.955033-8.42732-19.337012-8.427326z"
              fill="#0000d1" fill-rule="evenodd" stroke-linejoin="round"/>
        <path d="m50.792336 6.2558629c-6.151769 5.3139081-9.799841 13.8381571-13.75455 22.8168321-6.429431-11.9508-.654383-21.2299884 13.75455-22.8168321z"
              fill-rule="evenodd" stroke-linejoin="round"/>
        <path d="m53.006799 6.0906099c6.15177 5.3139091 9.799849 13.8381581 13.754554 22.8168321 6.429428-11.950799.654381-21.2299876-13.754554-22.8168321z"
              fill-rule="evenodd" stroke-linejoin="round"/>
        <path d="m49.71332 17.275473c0 1.357402-1.259035 2.459061-2.810346 2.459061s-2.810346-1.101659-2.810346-2.459061c0-1.3574 1.259035-2.45906 2.810346-2.45906s2.810346 1.10166 2.810346 2.45906z"
              fill="#fff" fill-rule="evenodd"/>
        <path d="m44.911034 18.869718c-.154512-1.917353 4.32632-1.769864 3.862785.147489-1.081579 1.179909-3.553762.589954-3.862785-.147489z"
              fill="none" stroke-linejoin="round"/>
        <path d="m59.309736 16.509899c0 1.357402-1.259035 2.459061-2.810346 2.459061s-2.810346-1.101659-2.810346-2.459061c0-1.3574 1.259035-2.45906 2.810346-2.45906s2.810346 1.10166 2.810346 2.45906z"
              fill="#fff" fill-rule="evenodd"/>
        <path d="m54.553125 17.963981c-.154512-1.917352 4.32632-1.769863 3.862785.147489-1.081579 1.179909-3.553762.589954-3.862785-.147489z"
              fill="none" stroke-linejoin="round"/>
        <path d="m43.983966 25.654195c2.317671 3.982193 13.597004 2.949772 15.142118-.589954"
              fill="none"/>
    </g>
    <path d="m50.93698 36.104383c-.772557-.297812-14.987606.794168-16.841743 6.750415-.309023 2.183958-.463535 18.563641-.463535 18.563641l19.468438.694896c9.116173-5.261353-25.803405 0-2.16316-26.008952z"
          fill="#fff" fill-opacity=".5" fill-rule="evenodd"/>
    <path d="m53.409162 8.2505367c-5.562411-6.3420111-31.520327 8.8493173-11.433844 21.0908733 8.034593 2.949774-6.489479-24.6306 11.433844-21.0908733z"
          fill="#fff" fill-opacity=".25" fill-rule="evenodd"/>
    <path d="m39.971703 40.031112c0 7.163944-7.311421 12.978165-16.320134 12.978165s-16.320134-5.814221-16.320134-12.978165c0-7.163945 7.311421-12.978161 16.320134-12.978161s16.320134 5.814216 16.320134 12.978161z"
          fill="#ffd5b7" fill-rule="evenodd" stroke="#000"
          stroke-linejoin="round" stroke-width="1.25"/>
    <path d="m24.094635 54.65449c-10.381978 0-18.8415685 3.738343-19.3370202 8.427326l-.1952846 18.68708c13.1699368.888072 25.6424628.775504 38.9867488.037524l-.117432-18.724604c-.495452-4.688983-8.955033-8.42732-19.337012-8.427326z"
          fill="#005900" fill-rule="evenodd" stroke="#000"
          stroke-linejoin="round" stroke-width="1.25"/>
    <path d="m22.584179 25.841354c-6.151769 5.313908-9.799841 13.838157-13.75455 22.816832-6.4294321-11.9508-.6543834-21.229988 13.75455-22.816832z"
          fill="#ffbf00" fill-rule="evenodd" stroke="#000"
          stroke-linejoin="round" stroke-width="1.25"/>
    <path d="m24.798642 25.676101c6.15177 5.313909 9.799849 13.838158 13.754554 22.816832 6.429429-11.950799.654381-21.229988-13.754554-22.816832z"
          fill="#ffbf00" fill-rule="evenodd" stroke="#000"
          stroke-linejoin="round" stroke-width="1.25"/>
    <path d="m21.505163 36.860964c0 1.357402-1.259035 2.459061-2.810346 2.459061s-2.810346-1.101659-2.810346-2.459061c0-1.3574 1.259035-2.45906 2.810346-2.45906s2.810346 1.10166 2.810346 2.45906z"
          fill="#fff" fill-rule="evenodd" stroke="#000" stroke-width="1.25"/>
    <path d="m16.702877 38.455209c-.154512-1.917353 4.32632-1.769864 3.862785.147489-1.081579 1.179909-3.553762.589954-3.862785-.147489z"
          fill="none" stroke="#000" stroke-linejoin="round" stroke-width="1.25"/>
    <path d="m31.101579 36.09539c0 1.357402-1.259035 2.459061-2.810346 2.459061s-2.810346-1.101659-2.810346-2.459061c0-1.3574 1.259035-2.45906 2.810346-2.45906s2.810346 1.10166 2.810346 2.45906z"
          fill="#fff" fill-rule="evenodd" stroke="#000" stroke-width="1.25"/>
    <path d="m26.344968 37.549472c-.154512-1.917352 4.32632-1.769863 3.862785.147489-1.081579 1.179909-3.553762.589954-3.862785-.147489z"
          fill="none" stroke="#000" stroke-linejoin="round" stroke-width="1.25"/>
    <path d="m15.775809 45.239686c2.317671 3.982193 13.597004 2.949772 15.142118-.589954"
          fill="none" stroke="#000" stroke-width="1.25"/>
    <path d="m22.728823 55.689874c-.772557-.297812-14.9876063.794168-16.8417439 6.750415-.3090226 2.183958-.4635344 18.563641-.4635344 18.563641l19.4684383.694896c9.116173-5.261353-25.8034062 0-2.16316-26.008952z"
          fill="#fff" fill-opacity=".5" fill-rule="evenodd"/>
    <path d="m25.201005 27.836028c-5.562411-6.342011-31.5203273 8.849317-11.433844 21.090874 8.034593 2.949773-6.4894796-24.630601 11.433844-21.090874z"
          fill="#fff" fill-opacity=".25" fill-rule="evenodd"/>
    <path d="m89.294926 45.685214c0 7.163944-7.311419 12.978165-16.32013 12.978165-9.008713 0-16.320134-5.814221-16.320134-12.978165 0-7.163945 7.311421-12.978161 16.320134-12.978161 9.008711 0 16.32013 5.814216 16.32013 12.978161z"
          fill="#ffeeb7" fill-rule="evenodd" stroke="#000"
          stroke-linejoin="round" stroke-width="1.25"/>
    <path d="m73.417863 60.308592c-10.381978 0-18.841569 3.738343-19.337021 8.427326l-.195284 18.68708c13.169937.88807 25.642462.775506 38.986745.037524l-.117426-18.724604c-.495454-4.688983-8.955039-8.42732-19.337014-8.427326z"
          fill="#8200d1" fill-rule="evenodd" stroke="#000"
          stroke-linejoin="round" stroke-width="1.25"/>
    <path d="m71.907406 31.495456c-6.151768 5.313908-9.79984 13.838157-13.75455 22.816832-6.429432-11.9508-.654383-21.229988 13.75455-22.816832z"
          fill-rule="evenodd" stroke="#000" stroke-linejoin="round"
          stroke-width="1.25"/>
    <path d="m74.121869 31.330203c6.151771 5.313909 9.799851 13.838158 13.754555 22.816833 6.42943-11.9508.654381-21.229989-13.754555-22.816833z"
          fill-rule="evenodd" stroke="#000" stroke-linejoin="round"
          stroke-width="1.25"/>
    <path d="m70.828391 42.515066c0 1.357402-1.259035 2.459061-2.810346 2.459061s-2.810346-1.101659-2.810346-2.459061c0-1.3574 1.259035-2.45906 2.810346-2.45906s2.810346 1.10166 2.810346 2.45906z"
          fill="#fff" fill-rule="evenodd" stroke="#000" stroke-width="1.25"/>
    <path d="m66.026105 44.109311c-.154512-1.917353 4.326319-1.769864 3.862785.147489-1.08158 1.179909-3.553763.589954-3.862785-.147489z"
          fill="none" stroke="#000" stroke-linejoin="round" stroke-width="1.25"/>
    <path d="m80.424808 41.749492c0 1.357402-1.259036 2.459061-2.810347 2.459061s-2.810346-1.101659-2.810346-2.459061c0-1.3574 1.259035-2.45906 2.810346-2.45906s2.810347 1.10166 2.810347 2.45906z"
          fill="#fff" fill-rule="evenodd" stroke="#000" stroke-width="1.25"/>
    <path d="m75.668196 43.203574c-.154512-1.917352 4.326319-1.769863 3.862785.147489-1.08158 1.17991-3.553763.589954-3.862785-.147489z"
          fill="none" stroke="#000" stroke-linejoin="round" stroke-width="1.25"/>
    <path d="m65.099037 50.893788c2.317671 3.982193 13.597004 2.949772 15.142117-.589954"
          fill="none" stroke="#000" stroke-width="1.25"/>
    <path d="m72.05205 61.343976c-.772557-.297812-14.987606.794168-16.841743 6.750415-.309023 2.183958-.463535 18.563641-.463535 18.563641l19.468438.694896c9.11617-5.261353-25.803406 0-2.16316-26.008952z"
          fill="#fff" fill-opacity=".5" fill-rule="evenodd"/>
    <path d="m74.524233 33.49013c-5.562411-6.342011-31.520328 8.849317-11.433844 21.090874 8.034592 2.949773-6.48948-24.630601 11.433844-21.090874z"
          fill="#fff" fill-opacity=".25" fill-rule="evenodd"/>
</svg>