
<svg height="80pt" width="80pt" xmlns="http://www.w3.org/2000/svg">
    <g fill-rule="evenodd">
        <path d="m55.90625 12.09375c-10.2378 0-18.53125 6.647978-18.53125 14.84375 0 5.592709 3.91411 10.40581 9.625 12.9375-7.5657 1.455956-14.40925 3.966289-18.46875 7.8125-8.63004 11.454552-5.4371 20.463474-5.59375 22.09375.77274.866056 5.70534 4.191863 9.375 3.9375-.37118-7.485894 1.78125-17.96875 1.78125-17.96875-.46995.376214-2.1705 14.506493-1.625 18-.04946.004811-.10631-.034711-.15625-.03125.00194.039184-.00208.085983 0 .125.39999 6.489862 3.65263 21.402188 5.0625 22.65625 13.81916 1.98336 27.02299 1.7151 41.46875.3125 0 0 .40188-3.805786.5-4.71875 1.20642-4.065493 2.42204-10.135611 1.46875-14.46875.09203-.909328.0948-.853626.1875-1.78125-.78883-11.042624-2.88246-18.538559-2.8125-18.375 1.63648 4.803575 2.8125 18.375001 2.8125 18.375 4.78168-.814395 8.15582-1.648274 12.9375-4.34375 1.56652-1.630281 2.3414-10.929778-4.75-23.59375-2.98088-5.323315-11.94387-8.281311-22.21875-9.125 4.51874-2.708687 7.5-6.980183 7.5-11.84375 0-.05385-.03053-.102534-.03125-.15625.11722-.569837.34594-1.336809.40625-1.71875-.25673-.168902-.39719-.138336-.625-.25-1.29449-7.185304-8.98034-12.71875-18.3125-12.71875z"
              fill-opacity=".5" stroke-width="1pt"/>
        <path d="m18.815381 66.311465c.156649-1.630275-3.046345-10.639625 5.583697-22.094177 13.01629-12.332393 53.567295-12.473631 60.658702.190342s6.3193 21.99353 4.752781 23.623811c-4.781681 2.69548-8.153493 3.509874-12.935176 4.324269 0 0-1.177675-13.555204-2.81415-18.358779-.069967-.163561 2.025318 7.320618 2.81415 18.363242-1.090983 10.917222-2.181972 20.956596-2.181972 20.956596-14.445757 1.4026-27.638299 1.676542-41.457457-.306817-1.409864-1.254061-4.666088-16.159924-5.066083-22.649786-.399995-7.493105 1.793129-18.092138 1.793129-18.092138-.469952.376214-2.181972 14.497985-1.636475 17.991492-3.684107.358361-8.727887-3.070214-9.511146-3.948055z"
              fill="#00c" stroke="#000" stroke-linejoin="round"
              stroke-width="1.25"/>
        <path d="m70.32947 23.44657c0 8.195774-8.308947 14.847418-18.546757 14.847418-10.237804 0-18.546757-6.651644-18.546757-14.847418 0-8.195773 8.308953-14.847418 18.546757-14.847418 10.23781 0 18.546757 6.651645 18.546757 14.847418z"
              fill="#00c" stroke="#000" stroke-linejoin="round"
              stroke-width="1.25"/>
        <g fill-opacity=".25">
            <path d="m51.511942 9.7194887c-8.076785-2.6922618-27.102101 11.3074993-12.025436 23.8713873 9.15369-1.794841-8.435754-16.333055 12.025436-23.8713873z"
                  fill="#fff"/>
            <path d="m42.178768 37.180559c-.89742-.179484-12.922856 1.974325-17.230476 7.897301-3.589682 2.153809-6.99988 12.384405-5.564007 20.640673 1.794841 1.435873 5.205039 3.769167 6.10246 3.230715 5.025555-10.589564-11.845952-21.538095 16.692023-31.768689z"
                  fill="#fff"/>
            <path d="m30.153332 55.12897c-3.589683 10.948531-.179484 30.512301 3.769167 36.973728 3.94865 1.256389 9.512658 1.794842 10.769046 1.435874 1.076905-9.153691-14.897181-7.897302-14.538213-38.409602z"
                  fill="#fff"/>
            <path d="m52.588846 37.539527c15.25615-4.128134 11.3075-20.461189 18.127896-15.974087-.538452 3.410198-2.692262 15.435635-18.127896 15.974087z"/>
            <path d="m81.306305 70.564605s8.256269-1.615357 8.615238-3.230714c1.974326-6.281945-3.410198-21.179126-5.922976-23.691904-12.20492-4.307619 13.281825 24.948292-2.692262 26.922618z"/>
            <path d="m64.973251 93.538572s7.897301.538452 8.794721-.897421c.897421-1.435873 5.025556-13.999761 2.512778-20.102221-8.25627-6.820396 3.05123 20.820158-11.307499 20.999642z"/>
        </g>
    </g>
</svg>