
<svg enable-background="new 0 0 15.914 12.005" height="12.005"
     viewBox="0 0 15.914 12.005" width="15.914"
     xmlns="http://www.w3.org/2000/svg"
     xmlns:xlink="http://www.w3.org/1999/xlink">
    <linearGradient id="a" gradientUnits="userSpaceOnUse" x1="-.0563"
                    x2="15.69009999999" y1="6.019" y2="6.019">
        <stop offset="0" stop-color="#0084c4"/>
        <stop offset=".7882" stop-color="#3055b5"/>
        <stop offset="1" stop-color="#0086c6"/>
    </linearGradient>
    <path d="m.272 3.2c-.351-1.302 3.456-2.935 7.728-2.919 3.887.015 7.645 1.2 7.643 2.919l.021 4.786c-.159 2.16-3.957 3.769-7.663 3.769s-7.688-1.607-7.728-3.769z"
          fill="url(#a)" stroke="#131516" stroke-width=".5"/>
    <path d="m7.968.25c2.12 0 4.038.351 5.428.917 1.391.565 2.252 1.348 2.252 2.21 0 .864-.86 1.646-2.252 2.212-1.391.566-3.31.915-5.428.915-2.123 0-4.044-.35-5.433-.915s-2.247-1.347-2.247-2.212c0-.862.858-1.645 2.248-2.21 1.388-.565 3.312-.917 5.432-.917z"
          fill="#0086c6" stroke="#131516" stroke-width=".5"/>
    <g fill="#fff" stroke="#fff" stroke-width=".003">
        <path d="m9.125 3.037c.725-.273 1.449-.547 2.176-.821.334.126.668.252 1 .378.26-.444.518-.889.776-1.333-1.18.099-2.356.195-3.534.292.334.126.668.252 1 .377-.726.274-1.452.547-2.177.82.253.096.505.19.759.287z"/>
        <path d="m13.308 4.862c-.725-.273-1.448-.548-2.175-.82.332-.126.667-.251 1-.377-1.176-.099-2.354-.195-3.532-.293.261.443.517.889.775 1.332.332-.126.666-.252 1-.377.725.272 1.449.547 2.175.819.252-.093.505-.189.757-.284z"/>
        <path d="m3.374 1.115c.727.272 1.452.547 2.177.82.333-.126.667-.251 1-.378.259.444.518.89.774 1.333-1.178-.097-2.353-.193-3.532-.292.333-.125.667-.251 1-.377-.725-.272-1.45-.547-2.177-.821.253-.096.504-.191.758-.285z"/>
        <path d="m7.732 3.584c-.726.274-1.45.548-2.176.822.333.126.667.251 1 .377-1.177.097-2.354.194-3.532.292.258-.444.516-.888.774-1.333.333.127.668.252 1 .378.724-.273 1.451-.547 2.176-.82.254.095.506.19.758.284z"/>
    </g>
</svg>