
<svg enable-background="new 0 0 16.725 8.874" height="8.874"
     viewBox="0 0 16.725 8.874" width="16.725"
     xmlns="http://www.w3.org/2000/svg">
    <g stroke="#131516" stroke-width=".5">
        <path d="m1.153 8.619c-.555-.057-.853-.386-.894-.984l-.009-4.869c.026-.576.173-1.024.494-1.286l.982-.981c.266-.179.571-.286.964-.237l13.163-.002c.291-.01.522.062.622.311v5.669c0 .331-.083.646-.248.944l-.972.976c-.265.308-.649.428-1.088.462z"
              fill="#0086c6"/>
        <path d="m.259 2.979c-.046-.595.088-1.106.485-1.499l.982-.981c.32-.215.643-.264.964-.237h13.096c.31-.018.539.086.688.309l-.96.96c-.389.29-.799.438-1.228.446l-13.302-.01c-.491.207-.732.544-.725 1.012z"
              fill="#63a8da" stroke-linecap="round" stroke-linejoin="round"/>
        <path d="m1.18 1.989h12.979c.509 0 .921.412.921.921v4.793c0 .509-.412.921-.921.921h-12.979c-.509 0-.921-.412-.921-.921v-4.793c0-.509.412-.921.921-.921z"
              fill="#0086c6"/>
        <path d="m16.475.57v5.625c.005.348-.052.682-.248.988l-.899.899c-.326.372-.749.53-1.237.541.678-.183 1.107-.529.99-1.234l-.007-4.519c-.022-.415.042-.829.3-1.242z"
              fill="#1b3582" stroke-linecap="round" stroke-linejoin="round"/>
    </g>
</svg>