
<svg enable-background="new 0 0 17.01 17" height="17" viewBox="0 0 17.01 17"
     width="17.01" xmlns="http://www.w3.org/2000/svg">
    <path d="m12.693 16.75h-11.264c-.791-.152-1.184-.568-1.179-1.245v-11.222c.009-.873.216-1.54.683-1.941l1.417-1.443c.432-.321.958-.549 1.624-.642l11.607-.007c.624.059 1.032.357 1.178.944v11.662c.031.677-.187 1.242-.575 1.729l-1.808 1.722c-.691.391-.934.401-1.683.443z"
          fill="#0086c6" stroke="#1f1a17" stroke-width=".01"/>
    <g stroke-linecap="round" stroke-linejoin="round" stroke-width=".5">
        <path d="m12.784 16.75c.722-.007 1.344-.189 1.825-.629l1.574-1.536c.407-.492.599-1.058.575-1.694v-11.589c-.04-.281-.184-.503-.558-.593l-1.889 1.889c-.401.497-.391.872-.433 1.494l.078 11.661z"
              fill="#1379b8" stroke="#1f1a17"/>
        <path d="m14.375 2.535 1.826-1.826c-.136-.249-.342-.402-.62-.459h-11.48c-.631.025-1.215.242-1.75.649l-1.418 1.443c-.512.619-.65 1.274-.683 1.941l1.082-1.246h11.452c.65-.022 1.18-.19 1.591-.502z"
              fill="#7cafdc" stroke="#131516"/>
        <path d="m1.251 3.038h11.711c.553 0 1 .448 1 1.001v11.711c0 .553-.447 1-1 1h-11.711c-.553 0-1.001-.447-1.001-1v-11.711c0-.553.448-1.001 1.001-1.001z"
              fill="#0086c6" stroke="#131516"/>
    </g>
    <path d="m1.114 6.564h3.712l4.201 5.444h3.869" fill="none"/>
    <path d="m1.681 7.971c-.371 0-.672-.301-.672-.672s.301-.672.672-.672h3.466c.234 0 .441.121.562.304l3.689 4.781h3.281c.37 0 .67.3.67.67 0 .369-.3.669-.67.669h-3.611v-.001c-.2 0-.398-.088-.53-.26l-3.719-4.819z"
          fill="#fff"/>
    <path d="m1.681 11.706c-.371 0-.672.301-.672.672s.301.672.672.672h3.466c.234 0 .441-.121.562-.303l3.689-4.781h3.281c.37 0 .67-.3.67-.669s-.3-.669-.67-.669h-3.611c-.2 0-.398.088-.53.259l-3.719 4.819z"
          fill="#fff"/>
</svg>