
<svg enable-background="new 0 0 18.695 18.684" height="18.684"
     viewBox="0 0 18.695 18.684" width="18.695"
     xmlns="http://www.w3.org/2000/svg">
    <path d="m13.962 18.434h-12.413c-.872-.168-1.304-.626-1.299-1.372v-12.368c.01-.962.238-1.697.753-2.139l1.563-1.59c.476-.354 1.057-.605 1.79-.708l12.79-.008c.688.064 1.137.394 1.297 1.041v12.851c.035.746-.206 1.369-.634 1.906l-1.992 1.896c-.76.433-1.029.444-1.855.491z"
          fill="#0086c6" stroke="#1f1a17" stroke-width=".01"/>
    <path d="m14.063 18.434c.795-.007 1.479-.209 2.011-.692l1.735-1.693c.448-.543.66-1.166.634-1.868v-12.771c-.044-.311-.202-.555-.615-.654l-2.081 2.082c-.442.548-.432.961-.478 1.646l.086 12.852z"
          fill="#1379b8" stroke="#1f1a17" stroke-linecap="round"
          stroke-linejoin="round" stroke-width=".5"/>
    <path d="m15.815 2.768 2.012-2.012c-.148-.274-.376-.443-.683-.506h-12.65c-.696.026-1.339.267-1.929.716l-1.563 1.59c-.564.681-.716 1.404-.752 2.138l1.192-1.372h12.62c.717-.025 1.302-.211 1.753-.554z"
          fill="#7cafdc" stroke="#131516" stroke-linecap="round"
          stroke-linejoin="round" stroke-width=".5"/>
    <path d="m1.354 3.322h12.905c.609 0 1.103.493 1.103 1.103v12.907c0 .608-.493 1.102-1.103 1.102h-12.905c-.609 0-1.104-.493-1.104-1.102v-12.907c0-.61.494-1.103 1.104-1.103z"
          fill="#0086c6" stroke="#131516" stroke-linecap="round"
          stroke-linejoin="round" stroke-width=".5"/>
    <g fill="none" stroke="#fff">
        <path d="m1.771 6.037h12.26"/>
        <path d="m1.84 10.926h12.261"/>
        <path d="m1.84 8.447h12.261"/>
        <path d="m1.84 13.269h12.261"/>
        <path d="m1.816 15.748h12.353"/>
    </g>
</svg>