
<svg clip-rule="evenodd" fill-rule="evenodd" height=".24in"
     image-rendering="optimizeQuality" shape-rendering="geometricPrecision"
     text-rendering="geometricPrecision" viewBox="0 0 .24 .24" width=".24in"
     xmlns="http://www.w3.org/2000/svg"
     xmlns:xlink="http://www.w3.org/1999/xlink">
    <linearGradient id="a" gradientUnits="userSpaceOnUse" x1=".240157"
                    x2=".158787" y1=".156921" y2=".190067">
        <stop offset="0" stop-color="#9a9fa7"/>
        <stop offset="1" stop-color="#7d8288"/>
    </linearGradient>
    <linearGradient id="b" gradientUnits="userSpaceOnUse" x1=".114898"
                    x2=".124709" y1=".110543" y2=".218469">
        <stop offset="0" stop-color="#b8c2ce"/>
        <stop offset="1" stop-color="#f7f8f9"/>
    </linearGradient>
    <linearGradient id="c" gradientUnits="userSpaceOnUse" x1=".007087"
                    x2=".166929" y1=".174626" y2=".174626">
        <stop offset="0" stop-color="#b8c2ce"/>
        <stop offset="1" stop-color="#9a9fa7"/>
    </linearGradient>
    <g stroke-linecap="round" stroke-linejoin="round">
        <g stroke-width=".003">
            <path d="m.0154331.180303.144531.0272677c.0057874.00106693.0115787.00027953.017378-.00235827l.0480039-.0264094c.00358268-.0022874.00624409-.00573622.00687402-.0117362l.00065354-.0231102c-.00179921-.00530315-.00433465-.00838189-.0076063-.00924409l-.127862-.0142323c-.00657874-.00011024-.012878.00035827-.0189016.00138583l-.0639409.0164567c-.00620866.00168898-.00782677.00541339-.00736614.0100591l.00114961.0228543c-.00023622.00338976.00212598.00641732.00708661.00906693z"
                  fill="url(#b)" stroke="#9fa2a7"/>
            <path d="m.166929.207957-.00085433-.032252c-.00094095-.00547244-.00447638-.00909449-.010622-.0108622l-.146339-.0235472c-.00138976.00242126-.00202756.00478346-.00191732.00708661l.00114961.0228543c.00025591.00359843.00262598.00662205.00708661.00906693l.144531.0272677.00696457.00038583z"
                  fill="url(#c)" stroke="#868b92"/>
            <path d="m.166929.207957.0104134-.00274409.0480039-.0264094c.00462992-.00362992.00691732-.00754331.00687402-.0117362l.00065354-.0231102-.00226772-.0049252-.0561575.0244134c-.00502756.00148819-.00781102.0055748-.00837402.0122598l.00085433.032252z"
                  fill="url(#a)" stroke="#4d5356"/>
            <path d="m.230606.139031-.0561575.0244134c-.00499213.00225197-.00777953.00633858-.00837402.0122598l.0004685.0175591.00038583.0146929"
                  fill="none" stroke="#8e939b"/>
            <path d="m.206551.149484-.0321024.0139606c-.00499213.00225197-.00777953.00633858-.00837402.0122598l.00052362.019752"
                  fill="none" stroke="#a6adb7"/>
            <path d="m.192559.155567-.0181102.00787795c-.00499213.00225197-.00777953.00633858-.00837402.0122598l.00025984.00987402"
                  fill="none" stroke="#b8c2ce"/>
            <path d="m.180724.160717-.00627559.00272835c-.00499213.00225197-.00777953.00633858-.00837402.0122598l.00012992.00493701"
                  fill="none" stroke="#cdd5de"/>
            <path d="m.0413819.146484.114071.0183583c.00617717.00273228.00971654.00635039.010622.0108622"
                  fill="none" stroke="#979ca5"/>
            <path d="m.0770472.152224.0784055.0126181c.00617717.00273228.00971654.00635039.010622.0108622"
                  fill="none" stroke="#a6adb7"/>
            <path d="m.103768.156528.051685.00831496c.00617717.00273228.00971654.00635039.010622.0108622"
                  fill="none" stroke="#b8c2ce"/>
            <path d="m.133335.161283.0221181.00355906c.00617717.00273228.00971654.00635039.010622.0108622"
                  fill="none" stroke="#d1d7e0"/>
            <path d="m.193772.131209.00152756-.093122c.00343307-.0042126.00621654-.00255118.00890945-.00005906l.0016811.0945276-.0121181-.00134646z"
                  fill="#6d7175" stroke="#4d5356"/>
            <path d="m.110362.121925.00168504-.0872717c.00343307-.0042126.00621654-.00254724.00890945-.00005512l.00152362.0886732-.0121181-.00134646z"
                  fill="#6d7175" stroke="#4d5356"/>
        </g>
        <path d="m.0154331.180303.144531.0272677c.0057874.00106693.0115787.00027953.017378-.00235827l.0480039-.0264094c.00358268-.0022874.00624409-.00573622.00687402-.0117362l.00065354-.0231102c-.00179921-.00530315-.00433465-.00838189-.0076063-.00924409l-.019378-.00215748-.0016811-.0945276c-.00296063-.00304331-.00593307-.00301969-.00890945.00005906l-.00152756.093122-.0712913-.00793701-.00152362-.0886732c-.0033189-.0035315-.00629134-.00350787-.00890945.00005512l-.00168504.0872717-.0129567-.00144488c-.00657874-.00011024-.012878.00035827-.0189016.00138583l-.0639409.0164567c-.00620866.00168898-.00782677.00541339-.00736614.0100591l.00114961.0228543c-.00023622.00338976.00212598.00641732.00708661.00906693z"
              fill="none" stroke="#4d5356" stroke-width=".006665"/>
    </g>
</svg>