
<svg height="48pt" width="48pt" xmlns="http://www.w3.org/2000/svg"
     xmlns:xlink="http://www.w3.org/1999/xlink">
    <linearGradient id="a" x1="-.107276" x2="1.7453" y1=".406186" y2=".421822">
        <stop offset="0" stop-color="#fff"/>
        <stop offset="1" stop-color="#fff" stop-opacity="0"/>
    </linearGradient>
    <g fill-rule="evenodd">
        <path d="m51.538498 31.489342a19.033215 19.581497 0 1 0 -38.066429 0 19.033215 19.581497 0 1 0 38.066429 0z"
              fill="#040000" fill-opacity=".387097"
              transform="matrix(1.361979 0 0 1.312826 -11.00257 -10.33036)"/>
        <g fill-opacity=".75" stroke="#000">
            <path d="m51.538498 31.489342a19.033215 19.581497 0 1 0 -38.066429 0 19.033215 19.581497 0 1 0 38.066429 0z"
                  fill="url(#a)" stroke-width="1.484105"
                  transform="matrix(1.361979 0 0 1.312826 -14.98163 -11.82263)"/>
            <rect fill="#0a0608" height="4.515427" ry=".44765"
                  stroke-width=".361288"
                  transform="matrix(.00954856 .999954 -.999954 .00954856 0 0)"
                  width="2.261849" x="27.806158" y="-10.326379"/>
            <rect fill="#0a0608" height="4.515427" ry=".44765"
                  stroke-width=".361288"
                  transform="matrix(.00954856 .999954 -.999954 .00954856 0 0)"
                  width="2.261849" x="31.252497" y="-10.326379"/>
            <rect fill="#0a0608" height="4.515429" ry=".44765"
                  stroke-width=".361288" width="2.26185" x="25.558444"
                  y="8.742613"/>
            <rect fill="#0a0608" height="4.515429" ry=".44765"
                  stroke-width=".361288" width="2.26185" x="29.004787"
                  y="8.742613"/>
            <rect fill="#0a0608" height="4.515429" ry=".44765"
                  stroke-width=".361288" width="2.26185" x="26.341704"
                  y="46.965694"/>
            <rect fill="#0a0608" height="4.515429" ry=".44765"
                  stroke-width=".361288" width="2.26185" x="29.788047"
                  y="46.965694"/>
            <rect fill="#0a0608" height="4.515427" ry=".44765"
                  stroke-width=".361288"
                  transform="matrix(.00954856 .999954 -.999954 .00954856 0 0)"
                  width="2.261849" x="28.048892" y="-52.152044"/>
            <rect fill="#0a0608" height="4.515427" ry=".44765"
                  stroke-width=".361288"
                  transform="matrix(.00954856 .999954 -.999954 .00954856 0 0)"
                  width="2.261849" x="31.495231" y="-52.152044"/>
            <path d="m44.363193 2.2659208c-3.742446 3.9470712-12.378616 16.7376462-15.500282 21.9194252-2.525545 4.7451-4.25612 7.57534-4.447045 12.371088 3.667771-2.393283 5.423096-4.408826 8.19705-9.573844 2.823606-4.96344 10.267807-19.450723 11.750277-24.7166692z"
                  fill="#060000" stroke-width=".931151pt"/>
            <path d="m48.606771 25.363257c-4.154694.129301-15.620391 2.325809-20.049679 3.407639-3.865456 1.160226-6.299312 1.738104-8.854761 4.113045 3.319414.633638 5.351872.488327 9.573655-.761892 4.147372-1.121027 15.796492-4.799024 19.330785-6.758792z"
                  fill="#060000" stroke-width=".693471pt"/>
        </g>
    </g>
</svg>