
<svg clip-rule="evenodd" fill-rule="evenodd" height=".24in"
     image-rendering="optimizeQuality" shape-rendering="geometricPrecision"
     text-rendering="geometricPrecision" viewBox="0 0 .24 .24" width=".24in"
     xmlns="http://www.w3.org/2000/svg"
     xmlns:xlink="http://www.w3.org/1999/xlink">
    <linearGradient id="a" gradientUnits="userSpaceOnUse" x1=".104996"
                    x2=".126484" y1=".037347" y2=".18774">
        <stop offset="0" stop-color="#1f1a17"/>
        <stop offset="1" stop-color="#b9c2cf"/>
    </linearGradient>
    <linearGradient id="b" gradientUnits="userSpaceOnUse" x1=".02652"
                    x2=".206843" y1=".177236" y2=".083803">
        <stop offset="0" stop-color="#1f1a17"/>
        <stop offset=".54902" stop-color="#6c6e73"/>
        <stop offset="1" stop-color="#b9c2cf"/>
    </linearGradient>
    <g stroke-width=".003">
        <path d="m.0134449.143087.00381102.0113858c.00110236.00367323.00185039.0059685.00579134.00792126l.148343.0379094c.0076811.00014567.0144724-.00148425.0190906-.00750787l.0294409-.113441-.00038976-.0187677-.0295394.11302c-.00316142.00758268-.00979921.0102913-.0204291.00898819l-.149618-.034811c-.0036811-.00096457-.00585039-.0025315-.0065-.00469685z"
              fill="url(#b)" stroke="#1f1a17" stroke-linecap="round"
              stroke-linejoin="round"/>
        <path d="m.2185.0657362c.00311417.00032284.00628346.00066535.0094685.00099213-.00073228.00298425-.0014685.00598425-.00221654.00901181-.00322047-.00037008-.00644488-.00073622-.00959843-.00109843.00078347-.00298819.0015748-.00596063.00234646-.00890551z"
              fill="#f0eb51" stroke="#9d9c37" stroke-linecap="round"
              stroke-linejoin="round"/>
        <path d="m.19902.139386c.00350394.00063386.00704724.00127559.0106063.00193307-.00094882.0038622-.00191339.00777953-.00288583.0117441-.00362598-.00069291-.00723228-.00140551-.0107795-.00208661.00103543-.00391339.00206299-.00777953.00305906-.0115906z"
              fill="#f0eb51" stroke="#9d9c37" stroke-linecap="round"
              stroke-linejoin="round"/>
        <path d="m.203441.122673c.00340157.0005748.00687795.00114173.0103504.00170866-.00090158.0036811-.00181102.00737795-.00273228.0111181-.00353937-.00061417-.00705906-.00123228-.0105236-.00185433.00098425-.00369291.00194094-.00733858.00290551-.0109724z"
              fill="#f0eb51" stroke="#9d9c37" stroke-linecap="round"
              stroke-linejoin="round"/>
        <path d="m.207433.107531c.00334252.00049213.00673622.00100394.0101339.00150394-.00085827.00348819-.00172047.00699213-.00259055.0105236-.00345669-.00054331-.0068937-.00109055-.0102756-.00162992.00091339-.0035.00183465-.00695669.00273228-.0103976z"
              fill="#f0eb51" stroke="#9d9c37" stroke-linecap="round"
              stroke-linejoin="round"/>
        <path d="m.211469.092311c.00325984.0004252.0065748.00087008.00988976.00130315-.00080709.00329528-.00162205.00660236-.00244882.00996063-.00337402-.00047638-.00672835-.00095276-.0100512-.00143701.00088583-.00331102.00175984-.0065748.00261024-.00982677z"
              fill="#f0eb51" stroke="#9d9c37" stroke-linecap="round"
              stroke-linejoin="round"/>
        <path d="m.215055.0787717c.00318898.00038189.00642913.00076772.00967323.0011378-.00077165.00314961-.00154724.00629528-.00233465.00948819-.00329528-.00041339-.00659449-.00084252-.00982283-.00124803.00084252-.00316535.00165748-.00627165.00248425-.00937795z"
              fill="#f0eb51" stroke="#9d9c37" stroke-linecap="round"
              stroke-linejoin="round"/>
        <path d="m.194398.156965c.00357087.0007126.00720079.00144882.0108465.00218504-.00100787.00408268-.0020315.00825197-.00306693.0124528-.00369685-.00079134-.00738976-.00157874-.0110276-.00234646.00108268-.00415748.00216929-.00825984.00324803-.0122913z"
              fill="#f0eb51" stroke="#9d9c37" stroke-linecap="round"
              stroke-linejoin="round"/>
        <path d="m.0566929.0488937c.00217323.00023622.00436614.00046063.00659449.00068898-.00138583.00241339-.00279134.00482677-.00419291.00726772-.00225197-.00025591-.00447244-.00050394-.00665748-.00074016.00142913-.0024252.00284252-.00482677.00425591-.00721654z"
              fill="#f0eb51" stroke="#9d9c37" stroke-linecap="round"
              stroke-linejoin="round"/>
        <path d="m.0222283.107315c.00232283.00041732.00466535.00085039.00704331.00127559-.00172835.00298031-.00346063.006-.00520472.00905512-.00240945-.00045669-.00478346-.00092126-.00711811-.00137008.00177559-.00301969.00353543-.00600787.00527953-.00896063z"
              fill="#f0eb51" stroke="#9d9c37" stroke-linecap="round"
              stroke-linejoin="round"/>
        <path d="m.0299094.0943031c.00227953.00037008.00459843.00074409.00695276.00112205-.00166142.00285433-.00331496.00574409-.00500394.00866142-.0023622-.00040945-.00469291-.00082677-.007-.00122835.00170079-.00288189.00338189-.00573228.00505118-.00855512z"
              fill="#f0eb51" stroke="#9d9c37" stroke-linecap="round"
              stroke-linejoin="round"/>
        <path d="m.0369449.0823661c.00225591.00034252.0045315.00067323.00684646.00100787-.0015748.00274016-.00315748.00550394-.00477165.00827953-.00232283-.00036614-.00462598-.00072835-.00691339-.00108661.00162598-.00275591.00323622-.00547638.00483858-.00820079z"
              fill="#f0eb51" stroke="#9d9c37" stroke-linecap="round"
              stroke-linejoin="round"/>
        <path d="m.0440827.0702717c.00223622.0002874.00448819.00058661.00675591.00087795-.0015.00261417-.00300787.00524803-.00455118.00790551-.00229921-.0003189-.00457874-.00063386-.0068189-.00096063.00155512-.00262992.00309055-.00524016.00461417-.00782283z"
              fill="#f0eb51" stroke="#9d9c37" stroke-linecap="round"
              stroke-linejoin="round"/>
        <path d="m.0504764.0594291c.00219685.00025984.0044252.00051969.00667323.0007874-.00144094.00250787-.00290945.00503543-.00437008.00759055-.00227559-.00029134-.00451575-.00057874-.00673622-.00085433.00148819-.00252756.00296457-.0050315.00443307-.00752362z"
              fill="#f0eb51" stroke="#9d9c37" stroke-linecap="round"
              stroke-linejoin="round"/>
        <path d="m.0142362.120866c.00235039.00046457.00473622.00094488.00714567.00142913-.00181496.00312205-.00363386.00629134-.00547244.00949606-.00243701-.00051969-.00483465-.0010315-.00721654-.00153937.00186614-.00316142.00371654-.00629528.00554331-.00938583z"
              fill="#f0eb51" stroke="#9d9c37" stroke-linecap="round"
              stroke-linejoin="round"/>
        <path d="m.083252.0412165c.00081102-.00149606.00162992-.00298031.00244882-.00448031.00352756.00030709.0070748.00061417.010689.0009252-.00079134.00151181-.00158268.00301969-.00238189.00454331-.00362598-.00032284-.00721654-.00065748-.0107559-.00098819z"
              fill="#f0eb51" stroke="#9d9c37" stroke-linecap="round"
              stroke-linejoin="round"/>
        <path d="m.16948.0491575c.00062992-.0016811.00125197-.00333858.00185827-.00500787.00426772.00037008.00856693.00074409.0129173.00111811-.00059055.00168898-.00116535.00337795-.00176378.00507874-.00438189-.0003937-.0087126-.00079921-.0130118-.00118898z"
              fill="#f0eb51" stroke="#9d9c37" stroke-linecap="round"
              stroke-linejoin="round"/>
        <path d="m.150453.0473976c.00067717-.0016378.00134646-.00325984.00201575-.00488189.00409843.00035433.00822835.00071654.0124134.00107874-.0006378.00165354-.00125984.00329134-.00190551.00495669-.00423228-.00037795-.0083937-.00077165-.0125236-.00115354z"
              fill="#f0eb51" stroke="#9d9c37" stroke-linecap="round"
              stroke-linejoin="round"/>
        <path d="m.132937.0457835c.00072441-.00160236.00141732-.0031811.00212992-.00477559.00394882.00034252.00792913.00068898.0119646.00103937-.00068504.00161024-.00136614.00321654-.00205906.00485433-.00404331-.00038189-.00805512-.00074409-.0120354-.00111811z"
              fill="#f0eb51" stroke="#9d9c37" stroke-linecap="round"
              stroke-linejoin="round"/>
        <path d="m.115039.0441417c.00076378-.00155906.00150394-.00311024.00225984-.00466929.00377953.00033071.00761417.00065748.0115118.00099606-.00072835.0015748-.00145669.00315354-.00219291.00474016-.00390945-.00036221-.00775197-.00070866-.0115787-.00106693z"
              fill="#f0eb51" stroke="#9d9c37" stroke-linecap="round"
              stroke-linejoin="round"/>
        <path d="m.0989606.0426693c.00079134-.00153543.00157087-.00305906.00236614-.00458268.00364567.0003189.00734252.0006378.0110748.00096063-.00075197.00155118-.00151969.00308661-.00227953.00464961-.00375984-.00035039-.00748425-.00069685-.0111614-.00102756z"
              fill="#f0eb51" stroke="#9d9c37" stroke-linecap="round"
              stroke-linejoin="round"/>
        <path d="m.189169.0509685c.00056299-.00171654.0011378-.00342126.00169291-.00512598.00445276.00038189.00893701.00077165.0134685.00116535-.00052362.00173622-.00104724.00346063-.00157874.00521654-.00456693-.00042913-.00910236-.00085039-.0135827-.00125591z"
              fill="#f0eb51" stroke="#9d9c37" stroke-linecap="round"
              stroke-linejoin="round"/>
        <path d="m.0208268.155535c.00122441-.00222441.00245276-.0044685.00364567-.00668898.00403543.00092913.00809055.00187008.0122087.00283465-.0011811.00225984-.00237402.00455512-.00356299.00682677-.00414961-.00100394-.00824016-.00199213-.0122913-.00297244z"
              fill="#f0eb51" stroke="#9d9c37" stroke-linecap="round"
              stroke-linejoin="round"/>
        <path d="m.121295.179854c.00096457-.0026063.00192913-.00523622.0028622-.00783071.00509843.0011811.0102402.00238583.015437.00359055-.00090945.00265748-.00181102.00533858-.00272835.00801181-.00524409-.00127165-.0104252-.00252756-.0155709-.00377165z"
              fill="#f0eb51" stroke="#9d9c37" stroke-linecap="round"
              stroke-linejoin="round"/>
        <path d="m.0987244.17439c.00102362-.00251575.00203543-.00506299.00305118-.00756693.00484252.00111811.00974409.00226378.0147008.00341732-.00097244.00256693-.00193701.00516142-.00292126.00774016-.00502362-.0012126-.00994488-.00240945-.0148307-.00359055z"
              fill="#f0eb51" stroke="#9d9c37" stroke-linecap="round"
              stroke-linejoin="round"/>
        <path d="m.0781535.169409c.00106299-.00243701.00214961-.00490551.00322047-.00734252.00462992.00108268.00929528.00216142.0140197.00327165-.0010315.00248425-.00207874.00499606-.00312205.00749213-.00474803-.00115354-.00945276-.00229134-.0141181-.00342126z"
              fill="#f0eb51" stroke="#9d9c37" stroke-linecap="round"
              stroke-linejoin="round"/>
        <path d="m.0573425.164374c.00114173-.00235827.00226772-.00474409.00339764-.0071063.00438976.00102756.00884252.00205906.0133504.00310236-.00109449.00241339-.00220079.00484252-.00328346.00725984-.00454724-.00109843-.00903543-.00218504-.0134646-.00325591z"
              fill="#f0eb51" stroke="#9d9c37" stroke-linecap="round"
              stroke-linejoin="round"/>
        <path d="m.0387992.159886c.00116929-.00229134.00235039-.0046063.00351181-.00689764.0042126.00097638.00846457.00197244.0127598.00296457-.00114567.00234252-.00229134.00470079-.00344488.00704331-.00431102-.00104724-.00859843-.00208268-.0128268-.00311024z"
              fill="#f0eb51" stroke="#9d9c37" stroke-linecap="round"
              stroke-linejoin="round"/>
        <path d="m.144886.185563c.00087402-.00269685.00177559-.00542126.00264173-.00810236.00535827.00125591.0107913.00251575.0162835.00378346-.0008189.00275197-.00165354.0055315-.00248425.00829921-.00553937-.00134252-.0110197-.00266929-.0164409-.00398031z"
              fill="#f0eb51" stroke="#9d9c37" stroke-linecap="round"
              stroke-linejoin="round"/>
        <path d="m.0792402.0408543c.0189961.00174409.0388661.00358268.0596654.00549213.0217717.00199606.0446142.00409843.0686339.00630709.00771654.00070866.0130827.00508268.0118386.0097874-.00416929.0157441-.00858661.0324803-.0132913.0502598-.00501575.0189528-.010378.0392126-.0160945.0609055-.0018622.00705906-.0111378.0111496-.0204291.00898819-.0287441-.00669291-.0557835-.0129843-.0812362-.0189016-.024063-.00559055-.0468268-.0108937-.0683819-.0159094-.00646063-.0015-.00908661-.00722047-.00597638-.012626.00965354-.0167835.0188071-.0326535.0274606-.0476732.00819685-.0142323.0159921-.027748.0234094-.0406063.00222835-.00386614.00866142-.00654724.0144016-.00602362z"
              fill="url(#a)" stroke="#656b6f" stroke-linecap="round"
              stroke-linejoin="round"/>
    </g>
    <path d="m.0960315.0867008c.00253937.00100394.0051378.00204331.00774409.00306693-.00138976.00164567-.00299213.0029685-.00479921.00397244-.00179134.00099213-.0037874.00162992-.00590945.00194488-.00213386.00031496-.00462205.00024803-.00744094-.00018504-.00338583-.00052362-.00597638-.00130709-.00773622-.00235039-.00174803-.0010315-.00294094-.00254724-.00353937-.00455118-.00058661-.00195669-.0001811-.00429528.00121654-.00698425.00184252-.00353937.00454331-.00606299.00811417-.00758661.00357874-.00152362.00779528-.00198819.0126732-.00137402.00384252.00048032.00664173.00141339.00837795.00279134.00174409.00138976.00262205.00332677.00265748.00577165-.00308268.00005906-.00617323.00012992-.00923228.00018504.00002756-.00070472-.00004331-.00124409-.00022441-.00159449-.00029134-.00056693-.00075197-.00105906-.00138583-.00143701-.00064567-.00038189-.00144094-.0006378-.00237795-.00075984-.00214567-.00028347-.00408661.00012205-.00581102.00116535-.00130709.00079134-.00246457.00214961-.00344094.00409449-.00121654.0024252-.00154331.00418898-.00096063.00525591.00057874.00105906.00181102.00173228.00368898.00201181.00185827.00027559.0034252.00011024.00475591-.00050394.00131102-.0006063.00250787-.00158661.00362992-.00293307zm.0171299-.0115433c.00544488.00068898.0109803.0013937.0165669.00210236.0036811.0004685.00622835.00142913.00761417.00287008.00138583.00143701.00162598.00328346.00072441.00552362-.00094095.00234252-.00272047.00403937-.00533858.0050748s-.0060315.00124803-.0102008.00064567c-.00190157-.00027559-.00375984-.00053543-.00562992-.00080315-.00124409.00287795-.00251575.00578346-.00380709.0087126-.00343701-.00053543-.00685827-.00104724-.0102402-.00157087.00352756-.00772441.00696063-.0152283.010311-.0225551zm.00577559.0107795c.00082284.0001063.00164961.00022441.00248425.00033858.00198425.00026772.00345276.00024016.00445276-.00012205.00100394-.00036614.00165748-.0009252.00196457-.00165748.00029134-.00070079.00021654-.00135827-.00025984-.00194488-.0004685-.00058268-.00168898-.00100394-.00357087-.00124803-.00095276-.00012598-.00193307-.00025591-.00288976-.00037795-.00071654.00165354-.00146063.00333071-.0021811.00501181zm.0476732-.00399213c.0036811.00048032.00738583.00094882.011122.00142126-.00156693.00474803-.00317717.00954724-.0047874.0144331-.00048425.00146457-.00129134.00281496-.00241732.00402756-.00112598.00121654-.00260236.0022126-.00442126.00299213-.00180315.00077165-.0035748.00124409-.00532677.00140551-.00240945.00022047-.00516142.00009055-.00825591-.00038976-.00174409-.00026772-.00366535-.00065354-.00566142-.00114173-.00201181-.00049213-.00361024-.0010748-.00479921-.00179528-.0011811-.0007126-.00215354-.00162205-.00293307-.00270866-.00076378-.00107087-.00116142-.00212992-.00119291-.0031378-.00005512-.00162205.00011417-.00301969.0005748-.00417717.00185827-.00466929.00368504-.00925984.00548031-.0137992.00350787.00044488.0070315.00088976.0105945.00133858-.00176772.00470472-.00357087.00948425-.00540157.0143346-.0005.00132283-.00032677.00245669.0004685.00334646.00079921.00090158.00216929.0015.00411811.00179134.00191732.00028347.00356299.00014567.00493701-.00044095.00135039-.00057874.00226772-.00156299.00275197-.00293307.00174016-.00493307.00346063-.00978346.00514961-.0145669z"
          fill="#b2b4b7" fill-rule="nonzero"/>
    <path d="m.0437087.112142c.0030315-.00170866.00608661-.00340945.00912598-.00511811-.00072047-.00215354-.00140945-.00429528-.00209055-.00640945.00077559.00013386.00155118.00025984.00232677.0003937.00036221.0011378.00075197.00227953.00112598.00342126.00023622.00072047.00037402.00126378.00044488.00162992.00055118-.00035827.00118504-.00073228.00189764-.00111417.00155906-.00083858.00312205-.00172047.00468898-.00257874.00072047.00011417.00144094.00024016.0021811.00035827-.00275591.00154331-.0055.0030748-.00824016.00460236.00079528.00242126.00162992.00487795.00248031.00733858-.00086221-.00014961-.00170866-.00029921-.00251575-.00045276-.00055512-.00165748-.00106693-.0033189-.00160236-.00494488-.00009055-.00028347-.00016535-.00058268-.00024409-.00090158-.00057874.00037008-.00097244.00061417-.00120866.00075197-.00199606.00115354-.004.00230315-.00600787.00344882-.0007874-.00014173-.0015748-.00029134-.0023622-.0004252zm.0258268.00312205c-.00025591.00047638-.00049213.0009685-.00072441.00143701-.00350787-.0006378-.00696063-.00125984-.010374-.00188583.00016535-.00036614.00042913-.00069291.00076772-.00099606.00053543-.00048819.00122441-.00094488.00206693-.00137008.00086614-.00043701.002-.00087795.00343307-.00137402.00223622-.00077165.0038189-.0014252.00472835-.00194882.0008937-.00051969.00150394-.00107087.00177559-.00161024.00029134-.0005748.00026378-.00109843-.00007874-.00160236-.00033071-.00048032-.00092913-.00080315-.00181102-.00094882-.00090945-.00015354-.00175984-.0000748-.00251969.00025591-.00074409.00032284-.00133465.00086614-.00170866.0016063-.00062205-.00016535-.00124803-.00033071-.00187008-.00048032.00070866-.00109449.00164173-.00185433.00281496-.0022874.00114173-.0004252.0024685-.00051969.00394488-.00027165.00147638.00024803.00251181.00074409.00306693.00151575.00056299.0007874.0006063.00165354.00014567.00258268-.00024016.00048032-.00061024.00092913-.00109449.00134646-.00048425.00042126-.00116929.00084252-.00202362.00125197-.00085827.00041339-.0022126.00094095-.00404331.00158661-.00153543.00054331-.0025315.00093701-.00298425.0011378-.00046457.00020866-.00088583.00042126-.00122835.00066142.00254724.00045669.00511024.00092913.00771654.0013937zm.00514961.00250394c-.00002362-.00324016-.00005512-.00643307-.00005906-.00959843.00066535.00011024.00135433.00023228.00203937.00034252-.00003543.00188189-.00003937.00379921-.00007087.00570079-.00000787.00061811-.00005512.00127559-.00014567.00193701.00041339-.00045276.00093307-.00097244.0015748-.00157874.00172835-.00163386.00345669-.00329528.00518898-.00493701.00068504.00011024.00135039.00023228.00205512.00034252-.00291339.00270866-.00582283.00540551-.00872441.00812992-.0006378-.0001063-.00125591-.00022441-.00185827-.00033858zm.0104291-.00474409c.00069291-.00146063.00143307-.00260236.00224016-.00340551.0008189-.00081102.00172441-.00138976.00274016-.00173228.00098425-.00033465.00209055-.00040158.00327165-.00020472.00088189.00014567.00160236.00041339.00213386.00077559.00054724.00037402.0009252.00085039.0011378.00142126.0002126.0005748.00027165.00124409.00019291.00201575-.00007874.00077165-.0003937.00175984-.00095669.00300787-.00065748.00144882-.00140945.00259449-.00223622.00345276-.00079921.00083465-.00174016.00144094-.00277165.00179134-.00101575.00034252-.00214961.00040945-.00337008.00018504-.00159055-.00029528-.00264567-.00094488-.00314173-.00198031-.00059055-.00123228-.00033465-.00301575.00075984-.00532677zm.00206693.00035433c-.00095276.00202362-.00127559.00344488-.00095669.00424409.00031496.00078347.00092913.0012874.0018622.00144488.00093701.00016142.00188189-.00003937.00284252-.00061417s.00190945-.00188976.00284252-.00392126c.00094488-.00205512.00123622-.00345669.00090945-.00423622-.0003189-.00075984-.00096457-.00123228-.00190157-.00138976-.0009252-.00015748-.0017874.00002362-.00262205.00051575-.00103543.0006063-.00202756.00193307-.00297638.00395669zm.0107598.00187795c.00067717-.00149606.00142913-.00262598.00223228-.00345276.00079528-.00081496.00172047-.00141339.00274409-.00176378.00101181-.00035039.0021378-.00041339.00335039-.00020866.0009252.00015354.00166929.00040945.00223622.00079528.00055512.00037795.00094488.00086614.00117323.00146063.00022835.00058661.00032677.00125984.00026378.00203937-.00006299.0007874-.00037008.00179528-.00090945.00306693-.00063386.00148819-.00135433.00266142-.00217323.00352756-.00081102.00085433-.00175591.00146063-.00281102.0018189-.00101181.00034646-.00219291.00041732-.00344882.00018504-.00164961-.00030315-.00274016-.00097638-.00327559-.0020315-.00064173-.00125984-.00044488-.00309055.00061811-.00543701zm.0021378.00037795c-.00092126.00206299-.00121654.00350787-.00086614.0043189.00034252.00079528.00097638.00131496.00195276.00148425.00098819.00016929.00194882-.00004724.00289764-.00062598.00096457-.00059055.00191339-.00191732.00281102-.00398819.00090945-.00209055.00115748-.00352362.00080315-.00431496-.00035039-.00077953-.00101181-.00127165-.00197638-.00143307-.00095669-.00016142-.00185039.00001968-.00267717.00051969-.00103937.00062992-.00201575.0019685-.00294488.00403937zm.0111142.00194488c.00065354-.00152362.00136614-.00270472.00216929-.0035315.00080315-.00082677.00170472-.00144488.00274409-.00179528.00103937-.00035039.00219291-.00039764.00344882-.00019291.00093701.00014961.00170472.0004252.00229528.00081102.00059449.00038583.00103937.00088583.0012874.00148425.00024803.00059055.00034646.00129528.00031496.00209449-.0000315.00080315-.00032677.00182283-.00085433.00311811-.00061811.00151575-.00129921.00272835-.00211417.00359843-.0008189.00087795-.00177953.00149213-.00284646.00185039-.00105906.00035433-.00224016.00042126-.00352756.00018898-.00170866-.00030709-.00287008-.00100787-.00342913-.00209055-.00066929-.0012874-.00050787-.00314961.00051181-.00553543zm.00219685.00038583c-.00087795.00209843-.00116535.00357874-.00079921.00439764.00037008.00082677.00107087.00134646.00206299.00151969.00100394.00017717.00198031-.00003543.00295276-.00062992.00097638-.00059449.00190945-.00197244.00277559-.0040748.00087008-.00211811.00110236-.00358661.00071654-.0043937-.00038189-.00079528-.00109449-.00129528-.00208661-.00145669-.00098032-.00015748-.00190157.00001575-.00274016.00052362-.00104331.0006378-.002.00200787-.00288189.00411417zm.00801181.0083189c.00222835-.00137402.00447244-.00274803.00672441-.00411417-.00088189-.00177953-.00175591-.00354331-.00258661-.0052874.00088976.00014567.00179921.00031102.00272441.00046063.00037008.00085039.00076378.00170079.0011378.00254331.00020866.00047244.00035433.00090945.00047244.00123228.00051969-.00033465.00098819-.00062992.00141732-.00088583.00101969-.0006063.00203937-.00122835.0030748-.00184646.00087008.00015748.00175984.00030315.00264961.00046457-.00208268.0012126-.0041811.00245276-.00626378.00367717.00095669.00198425.00195276.004.00295669.00600787-.00091732-.00016535-.00185827-.00033858-.00275984-.0005-.00054724-.0011811-.00105118-.00234252-.00155906-.0035-.00014173-.00032677-.00026378-.0006378-.00038583-.00094488-.00167323.00106299-.00331496.00212598-.00495669.00318504-.00088189-.00016929-.00176378-.00032284-.00264567-.00049213zm.0160669-.00411811c.00059055-.0015748.00126378-.00279528.00206693-.0036378.0008189-.00086614.00174803-.00150787.00282283-.00186614.00105906-.00035433.00228346-.00040158.00359055-.00018898.00101181.00016535.00182283.00044488.00247638.00085433.00064173.00040158.00112598.0009252.00142126.00154724.00029134.00061024.00045276.00134646.00045276.00217717s-.00023622.00190157-.0007126.00324016c-.00055512.0015748-.00122835.00280709-.00204331.00372441-.00079528.0008937-.00175984.00155512-.00286614.0019252-.00107874.00035827-.00232677.00042126-.0037126.00016535-.00179921-.00033465-.00302756-.00104724-.00370079-.00216929-.00080709-.00135433-.00072835-.00327559.00020472-.00577165zm.00232677.00041339c-.00081496.00217717-.00101181.00372441-.00056299.00458661.00044488.00085433.00120079.0013937.00223228.00157874.00106299.00019291.00208268-.00001968.00308661-.0006378.00098819-.0006063.00188976-.00203937.00266929-.00422047.00079528-.0022126.00096457-.00372835.00049606-.00457874-.00045276-.00081496-.00119685-.00134646-.00226772-.00151969-.0010315-.00016929-.00198819.00000787-.00283858.00053937-.00105906.00065748-.00199213.00206299-.00281496.00425197zm.0159882.00208268c-.00090158-.0004252-.00149213-.00090945-.00179528-.00145276-.00029528-.0005315-.00033465-.00114567-.00011024-.00179134.00033465-.00096063.00112598-.00170079.00233858-.00218504.00121654-.00048425.00264173-.00060236.00429921-.00032677.00164173.00027559.00288976.00083071.00367717.00169291.00078347.00085827.00102362.00179134.00069685.00277165-.00020472.00062205-.00061811.00114567-.00124803.00151969-.00062992.00037008-.00145276.00062205-.00250394.00070866.0011063.00048425.0018622.00107874.00227559.00180709.00041732.00072835.00050394.00150394.00021654.00237008-.00039764.00118504-.00132283.00209449-.00275591.00268504-.00146457.0006063-.0031378.00073228-.00504724.00038189-.00193307-.00035039-.00330709-.00105512-.00417323-.00205906-.00087795-.00101575-.00111024-.00211811-.00069291-.00333071.00030315-.00087402.00085827-.00157874.00170079-.00205512.00083465-.00047244.00188189-.00072441.00312205-.00073622zm.00048819-.00288583c-.00022441.00064567-.00011811.00121654.00031496.0017126.00044882.00051575.00113386.00084646.00206299.00100787.00090945.00015748.00173622.00007087.00244882-.00023228.00071654-.00030709.00118504-.00074803.00136614-.0013189.00019685-.0006063.00008268-.00116929-.00037402-.00168504-.0004685-.00052756-.00115354-.00085039-.00201575-.00099606-.00090551-.00014961-.00171654-.00008661-.00243701.00021654-.00072835.00030315-.00117717.00074409-.00136614.00129528zm-.00290551.00612598c-.00016535.0004685-.00016929.00098819-.00001575.00148425.00015748.00051575.00051969.00094882.00105512.00129921.00055512.00036614.00118504.00063386.00191732.00076378.0011378.00020472.00216535.00009449.00306299-.00029134.00092126-.00040158.00151969-.00099213.00179134-.00181102.00026772-.00080709.00011417-.0015315-.00047244-.00221654-.0005748-.00066535-.00144094-.00109055-.00257087-.0012874-.00111811-.00019685-.00210236-.00009449-.00301575.00029921-.00090158.00038583-.00148031.00098032-.00175197.00175984zm.0272559-.00201575c-.00082677-.00009055-.00165354-.00019291-.00248425-.00027953-.00000394-.00070866-.00016929-.00124016-.00047638-.00159843-.00050787-.00059055-.00122835-.00098032-.00218898-.00114173-.00075591-.00012598-.00148425-.00009449-.00216929.0001063-.00087402.00025984-.00164567.00072047-.00233465.00138583-.00066929.00064961-.00120079.00166929-.00166929.00305906.00074803-.00051575.00162205-.00087008.00256693-.00101969.00094095-.00014567.00188976-.00014961.00279528 0 .00163386.00027559.00288189.00094882.00376378.00198819.00090158.00105512.00115354.00224409.00075197.00358661-.00026378.00087795-.00080709.00167323-.00157087.00233858-.00076772.00066535-.0017126.0011378-.00279134.00136614-.00107087.00022835-.00220866.00022835-.00340945.00001181-.00206299-.00037402-.00355512-.00120866-.00449606-.00251575-.00092126-.00127559-.00098032-.0031378-.00021654-.00551969.00085039-.00264961.00217717-.00444882.00395276-.00540945.00154331-.00083465.00334252-.00106693.00542913-.00072047.00152756.00025591.00270866.00075984.00351575.00153543.00082284.00078347.00116535.00170866.0010315.00282677zm-.0118228.00424409c-.00018898.00058661-.00016142.00120079.00001181.00180315.00017717.00061024.00055512.00112205.00109843.00152362.00054724.00040158.00119685.0006811.00188976.00080709.00102756.00018504.00201969.0000315.00292913-.00041732.00094095-.00046063.00158661-.00119291.00189764-.00221654.00029528-.00097638.00015748-.00180315-.00041732-.00249213-.00056299-.00066929-.00139764-.00110236-.00250787-.00129921-.00107874-.00018898-.00211811-.00009449-.00305906.0003189-.00093701.00040945-.00155906.00108268-.00184252.00197244z"
          fill="#b2b4b7" fill-rule="nonzero"/>
    <path d="m.0208268.155535.0035039.011528.0114016.003055-.0026142-.01161z"
          fill="#f8f5c1" stroke="#cecd29" stroke-linecap="round"
          stroke-linejoin="round" stroke-width=".003"/>
    <path d="m.0387992.159886.0128268.00311.0023031.011894-.0127519-.003681z"
          fill="#f8f5c1" stroke="#cecd29" stroke-linecap="round"
          stroke-linejoin="round" stroke-width=".003"/>
    <path d="m.0573425.164374.0134646.003256.0024488.012161-.0133858-.003484z"
          fill="#f8f5c1" stroke="#cecd29" stroke-linecap="round"
          stroke-linejoin="round" stroke-width=".003"/>
    <path d="m.0781535.169409.0141182.003422.002248.012496-.0138268-.003603z"
          fill="#f8f5c1" stroke="#cecd29" stroke-linecap="round"
          stroke-linejoin="round" stroke-width=".003"/>
    <path d="m.0987244.17439.0148306.00359.002118.012851-.014047-.003654z"
          fill="#f8f5c1" stroke="#cecd29" stroke-linecap="round"
          stroke-linejoin="round" stroke-width=".003"/>
    <path d="m.121295.179854.015571.003772.002264.013311-.015063-.003921z"
          fill="#f8f5c1" stroke="#cecd29" stroke-linecap="round"
          stroke-linejoin="round" stroke-width=".003"/>
    <path d="m.144886.185563.016441.00398.002126.013725-.015918-.004146z"
          fill="#f8f5c1" stroke="#cecd29" stroke-linecap="round"
          stroke-linejoin="round" stroke-width=".003"/>
    <path d="m.202177.171602-.000338.012315.002665-.010901.00074-.013866z"
          fill="#f8f5c1" stroke="#cecd29" stroke-linecap="round"
          stroke-linejoin="round" stroke-width=".003"/>
    <path d="m.20674.153063.002886-.011744-.001299.016059-.001618.006622z"
          fill="#f8f5c1" stroke="#cecd29" stroke-linecap="round"
          stroke-linejoin="round" stroke-width=".003"/>
    <path d="m.211059.1355.002732-.011118-.001055.014968-.002382.009741z"
          fill="#f8f5c1" stroke="#cecd29" stroke-linecap="round"
          stroke-linejoin="round" stroke-width=".003"/>
    <path d="m.214976.119559.002591-.010524-.001181.015394-.001929.007882z"
          fill="#f8f5c1" stroke="#cecd29" stroke-linecap="round"
          stroke-linejoin="round" stroke-width=".003"/>
    <path d="m.221358.0936142-.002673.0214138.000224-.011453z" fill="#f8f5c1"
          stroke="#cecd29" stroke-linecap="round" stroke-linejoin="round"
          stroke-width=".003"/>
    <path d="m.222394.0893976.002334-.0094882-.002653.0212556z" fill="#f8f5c1"
          stroke="#cecd29" stroke-linecap="round" stroke-linejoin="round"
          stroke-width=".003"/>
    <path d="m.225752.0757402.002217-.0090119-.001591.0168426" fill="none"
          stroke="#cecd29" stroke-linecap="round" stroke-linejoin="round"
          stroke-width=".003"/>
    <path d="m.042311.152988.1215.0282559c.0129134.00387402.0217126.00231102.0261811-.0076378l.0188661-.0714685"
          fill="none" stroke="#8e939b" stroke-width=".003"/>
    <path d="m.0607402.157268.103071.0239764c.0129134.00387402.0217126.00231102.0261811-.0076378l.0147087-.0556772"
          fill="none" stroke="#9ea5ae" stroke-width=".003"/>
    <path d="m.0819488.162201.0818622.0190433c.0129134.00387402.0217126.00231102.0261811-.0076378l.0100984-.0386378"
          fill="none" stroke="#b3bcc8" stroke-width=".003"/>
    <path d="m.0980315.165949.0657795.0152953c.00726378.00217717.0132244.00263386.0178465.00085039.00359449-.00138976.00638189-.0041378.00833465-.00848819l.00699213-.0264803"
          fill="none" stroke="#cdd4de" stroke-width=".003"/>
    <path d="m.182937.194118-.000961-.00898" fill="none" stroke="#bec8d5"
          stroke-linecap="round" stroke-linejoin="round" stroke-width=".006665"/>
    <path d="m.167287.199335-.00299213.00858268-.142705-.036622-.0164843-.0418898.0475787-.0809331.0106024.00111024c.00309055-.00585827.00910236-.00973622.0199646-.00836614l.00266142-.00680315.120102.00963386-.0021811.00826772c.00925591.00041339.0155945.00294488.0155433.010126l.0145472.00131102-.00395276.0179252-.024122.106992-.0133819-.00353937-.00198819.00766535c-.00451969.00638583-.0112913.00802756-.0190906.00750787l-.00410236-.0009685z"
          fill="none" stroke="#4d5356" stroke-linecap="round"
          stroke-linejoin="round" stroke-width=".006665"/>
</svg>