
<svg enable-background="new 0 0 71.448 45.72" height="45.72"
     viewBox="0 0 71.448 45.72" width="71.448"
     xmlns="http://www.w3.org/2000/svg"
     xmlns:xlink="http://www.w3.org/1999/xlink">
    <linearGradient id="a" gradientUnits="userSpaceOnUse" x1="36.1157"
                    x2="35.7659" y1="26.3047" y2="1.3881">
        <stop offset="0" stop-color="#ececec"/>
        <stop offset=".2568" stop-color="#dedede"/>
        <stop offset=".5848" stop-color="#d4d4d4"/>
        <stop offset="1" stop-color="#d1d1d1"/>
    </linearGradient>
    <linearGradient id="b" gradientUnits="userSpaceOnUse" x1="68.8462"
                    x2="38.0705" y1="16.4023" y2="35.6202">
        <stop offset="0" stop-color="#707070"/>
        <stop offset=".0539" stop-color="#6c6c6c"/>
        <stop offset=".3244" stop-color="#5b5b5b"/>
        <stop offset=".6227" stop-color="#515151"/>
        <stop offset="1" stop-color="#4e4e4e"/>
    </linearGradient>
    <linearGradient id="c">
        <stop offset="0" stop-color="#d3d3d3"/>
        <stop offset=".205" stop-color="#bdbdbd"/>
        <stop offset=".4323" stop-color="#acacac"/>
        <stop offset=".683" stop-color="#a2a2a2"/>
        <stop offset="1" stop-color="#9f9f9f"/>
    </linearGradient>
    <linearGradient id="d" gradientUnits="userSpaceOnUse" x1="1.666"
                    x2="37.7086" xlink:href="#c" y1="29.8184" y2="30.0641"/>
    <linearGradient id="e" gradientUnits="userSpaceOnUse" x1="19.5552"
                    x2="19.8459" xlink:href="#c" y1="32.1582" y2="21.9841"/>
    <linearGradient id="f" gradientUnits="userSpaceOnUse" x1="19.7676"
                    x2="19.8482" y1="36.7197" y2="29.2705">
        <stop offset="0" stop-color="#d3d3d3"/>
        <stop offset=".1233" stop-color="#bfbfbf"/>
        <stop offset=".3087" stop-color="#a7a7a7"/>
        <stop offset=".5068" stop-color="#979797"/>
        <stop offset=".7246" stop-color="#8d8d8d"/>
        <stop offset="1" stop-color="#8a8a8a"/>
    </linearGradient>
    <linearGradient id="g" gradientUnits="userSpaceOnUse" x1="30.2744"
                    x2="30.2744" xlink:href="#c" y1="36.3145" y2="39.2915"/>
    <path d="m35.054 1.638c1.11-.444 2.969-.579 4.133-.304l28.645 6.834c1.162.278 1.258.976.209 1.554l-29.047 16.012c-1.047.578-2.831.738-3.963.355l-31.113-10.48c-1.133-.382-1.152-1.057-.042-1.501z"
          fill="url(#a)"/>
    <path d="m35.054 1.638c1.11-.444 2.969-.579 4.133-.304l28.645 6.834c1.162.278 1.258.976.209 1.554l-29.047 16.012c-1.047.578-2.831.738-3.963.355l-31.113-10.48c-1.133-.382-1.152-1.057-.042-1.501z"
          fill="none" stroke="#707070" stroke-width="1.0867"/>
    <path d="m39.529 25.896c-1.039.59-1.912 2.049-1.936 3.244l-.287 13.731c-.025 1.196.762 1.621 1.746.945l28.448-19.506c.986-.676 1.838-2.207 1.891-3.401l.457-10.064c.053-1.195-.752-1.689-1.793-1.101z"
          fill="url(#b)"/>
    <path d="m39.529 25.896c-1.039.59-1.912 2.049-1.936 3.244l-.287 13.731c-.025 1.196.762 1.621 1.746.945l28.448-19.506c.986-.676 1.838-2.207 1.891-3.401l.457-10.064c.053-1.195-.752-1.689-1.793-1.101z"
          fill="none" stroke="#4f4f4f" stroke-width="1.0867"/>
    <path d="m37.306 42.872c-.025 1.196-.953 1.809-2.063 1.364l-31.368-12.587c-1.109-.445-2.017-1.788-2.017-2.982v-11.578c0-1.196.926-1.861 2.06-1.479l31.66 10.664c1.132.383 2.039 1.672 2.013 2.867z"
          fill="url(#d)"/>
    <path d="m37.306 42.872c-.025 1.196-.953 1.809-2.063 1.364l-31.368-12.587c-1.109-.445-2.017-1.788-2.017-2.982v-11.578c0-1.196.926-1.861 2.06-1.479l31.66 10.664c1.132.383 2.039 1.672 2.013 2.867z"
          fill="none" stroke="#787878" stroke-width="1.1825"/>
    <path d="m34.584 33.664c-.022 1.148-.957 1.747-2.078 1.33l-25.722-9.563c-1.12-.417-2.036-1.603-2.034-2.635.002-1.034.931-1.564 2.062-1.181l5.777 1.958c1.132.383 2.062.208 2.067-.39s.933-.766 2.062-.372l6.382 2.219c1.129.393 2.046 1.221 2.037 1.841s.9 1.473 2.018 1.894l5.436 2.047c1.118.419 2.016 1.704 1.993 2.852z"
          fill="url(#e)" stroke="#5b5b5b"/>
    <path d="m34.584 33.664c-.022 1.148-.957 1.747-2.078 1.33l-25.722-9.563c-1.12-.417-2.036-1.603-2.034-2.635.002-1.034.931-1.564 2.062-1.181l5.777 1.958c1.132.383 2.062.208 2.067-.39s.933-.766 2.062-.372l6.382 2.219c1.129.393 2.046 1.221 2.037 1.841s.9 1.473 2.018 1.894l5.436 2.047c1.118.419 2.016 1.704 1.993 2.852z"
          fill="none" stroke="#5b5b5b" stroke-width="1.0867"/>
    <path d="m25.02 35.121c-.017 1.194-.941 1.817-2.054 1.383l-6.366-2.488c-1.113-.435-2.016-1.769-2.006-2.963l.006-.718c.01-1.195.934-1.832 2.055-1.418l6.373 2.365c1.121.416 2.024 1.734 2.006 2.93z"
          fill="url(#f)" stroke="#5b5b5b"/>
    <path d="m25.02 35.121c-.017 1.194-.941 1.817-2.054 1.383l-6.366-2.488c-1.113-.435-2.016-1.769-2.006-2.963l.006-.718c.01-1.195.934-1.832 2.055-1.418l6.373 2.365c1.121.416 2.024 1.734 2.006 2.93z"
          fill="none" stroke="#5b5b5b" stroke-width="1.0867"/>
    <path d="m33.048 39.219c-.02 1.097-.947 1.635-2.059 1.196l-1.496-.588c-1.113-.438-2.009-1.675-1.992-2.75.016-1.075.945-1.608 2.062-1.185l1.49.564c1.117.425 2.015 1.668 1.995 2.763z"
          fill="url(#g)" stroke="#565656"/>
    <path d="m33.048 39.219c-.02 1.097-.947 1.635-2.059 1.196l-1.496-.588c-1.113-.438-2.009-1.675-1.992-2.75.016-1.075.945-1.608 2.062-1.185l1.49.564c1.117.425 2.015 1.668 1.995 2.763z"
          fill="none" stroke="#565656" stroke-width=".5433"/>
    <path d="m9.614 29.843c-.002.326-.592.365-1.313.085-.722-.278-1.31-.771-1.309-1.095.001-.322.592-.36 1.313-.084.722.275 1.311.768 1.309 1.094z"
          fill="#1fff4a"/>
    <g fill="none">
        <path d="m9.614 29.843c-.002.326-.592.365-1.313.085-.722-.278-1.31-.771-1.309-1.095.001-.322.592-.36 1.313-.084.722.275 1.311.768 1.309 1.094z"
              stroke="#787878" stroke-width=".2717"/>
        <path d="m13.399 18.803 22.179 7.471c1.134.383 2.039 1.672 2.013 2.867l-.17 8.188"
              stroke="#999" stroke-width="1.1825"/>
        <path d="m17.747 20.329 17.831 5.945c1.134.383 2.039 1.672 2.013 2.867l-.111 5.378"
              stroke="#c4c4c4" stroke-width="1.1825"/>
        <path d="m23.958 22.399 11.62 3.875c1.134.383 2.039 1.672 2.013 2.867l-.111 2.988"
              stroke="#e0e0e0" stroke-width="1.1825"/>
        <path d="m62.234 13.039-21.988 12.006c-2.662.858-2.539 4.107-2.566 5.303l-.17 8.188"
              stroke="#999" stroke-width="1.1825"/>
        <path d="m55.255 16.771-16.561 9.142c-1.297 2.192-.988 3.24-1.016 4.436l-.111 5.378"
              stroke="#c4c4c4" stroke-width="1.1825"/>
        <path d="m48.197 20.661-9.502 5.251c-1.066 1.514-.988 3.24-1.016 4.436l-.111 2.988"
              stroke="#e0e0e0" stroke-width="1.1825"/>
    </g>
    <path d="m35.578 26.273 2.101 4.075 1.016-4.436z" fill="#fff" stroke="#fff"
          stroke-width="1.1825"/>
    <path d="m4.113 32.279c-1.705-.684-3.102-2.747-3.104-4.586l-.009-10.004c-.001-1.838 1.403-3.874 3.122-4.525l30.419-11.515c1.719-.65 4.59-.846 6.381-.432l26.359 6.086c1.791.413 3.215 2.255 3.166 4.091l-.227 8.347c-.051 1.837-1.332 4.19-2.848 5.23l-27.318 18.733c-1.516 1.04-4.151 1.329-5.857.646z"
          fill="none"/>
    <path d="m4.113 32.279c-1.705-.684-3.102-2.747-3.104-4.586l-.009-10.004c-.001-1.838 1.403-3.874 3.122-4.525l30.419-11.515c1.719-.65 4.59-.846 6.381-.432l26.359 6.086c1.791.413 3.215 2.255 3.166 4.091l-.227 8.347c-.051 1.837-1.332 4.19-2.848 5.23l-27.318 18.733c-1.516 1.04-4.151 1.329-5.857.646z"
          fill="none" stroke="#404040" stroke-width="2"/>
</svg>