
<svg enable-background="new 0 0 403.596 303.937" height="303.937"
     viewBox="0 0 403.596 303.937" width="403.596"
     xmlns="http://www.w3.org/2000/svg"
     xmlns:xlink="http://www.w3.org/1999/xlink">
    <linearGradient id="a">
        <stop offset="0" stop-color="#ccced1"/>
        <stop offset="1" stop-color="#e7e8ea"/>
    </linearGradient>
    <linearGradient id="b"
                    gradientTransform="matrix(72 0 0 -72 2469.854 51094.9453)"
                    gradientUnits="userSpaceOnUse" x1="-34.1396" x2="-32.2654"
                    xlink:href="#a" y1="709.5674" y2="707.3524"/>
    <linearGradient id="c">
        <stop offset="0" stop-color="#989b9f"/>
        <stop offset="1" stop-color="#e7e8ea"/>
    </linearGradient>
    <linearGradient id="d"
                    gradientTransform="matrix(72 0 0 -72 2469.854 51094.9453)"
                    gradientUnits="userSpaceOnUse" x1="-33.3853" x2="-32.2348"
                    xlink:href="#c" y1="708.1797" y2="708.6317"/>
    <linearGradient id="e"
                    gradientTransform="matrix(72 0 0 -72 2469.854 51094.9453)"
                    gradientUnits="userSpaceOnUse" x1="-34.3545" x2="-32.9912"
                    xlink:href="#c" y1="707.5117" y2="709.0069"/>
    <linearGradient id="f"
                    gradientTransform="matrix(72 0 0 -72 2469.854 51094.9453)"
                    gradientUnits="userSpaceOnUse" x1="-33.8613" x2="-33.6159"
                    xlink:href="#c" y1="708.7598" y2="709.2301"/>
    <linearGradient id="g"
                    gradientTransform="matrix(72 0 0 -72 2469.854 51094.9453)"
                    gradientUnits="userSpaceOnUse" x1="-33.8398" x2="-33.5934"
                    xlink:href="#c" y1="708.5068" y2="708.9792"/>
    <linearGradient id="h">
        <stop offset="0" stop-color="#f6f28b"/>
        <stop offset="1" stop-color="#009f3c"/>
    </linearGradient>
    <radialGradient id="i" cx="-31.4063" cy="707.1299"
                    gradientTransform="matrix(53.8658 -36.0734 -36.0734 -53.8658 27376.4336 37195.00390000001)"
                    gradientUnits="userSpaceOnUse" r=".1214" xlink:href="#h"/>
    <linearGradient id="j">
        <stop offset="0" stop-color="#f6f28b"/>
        <stop offset="1" stop-color="#e15520"/>
    </linearGradient>
    <radialGradient id="k" cx="-32.5083" cy="709.7324"
                    gradientTransform="matrix(34.4657 -23.0813 -23.0813 -34.4657 17609.5957 23901.2734)"
                    gradientUnits="userSpaceOnUse" r=".1216" xlink:href="#j"/>
    <linearGradient id="l"
                    gradientTransform="matrix(72 0 0 -72 2469.854 51094.9453)"
                    gradientUnits="userSpaceOnUse" x1="-32.7827" x2="-30.6568"
                    xlink:href="#a" y1="709.3896" y2="706.8772"/>
    <linearGradient id="m"
                    gradientTransform="matrix(72 0 0 -72 2469.854 51094.9453)"
                    gradientUnits="userSpaceOnUse" x1="-31.8574" x2="-30.6709"
                    xlink:href="#c" y1="707.791" y2="708.2571"/>
    <linearGradient id="n"
                    gradientTransform="matrix(72 0 0 -72 2469.854 51094.9453)"
                    gradientUnits="userSpaceOnUse" x1="-32.9546" x2="-31.3894"
                    xlink:href="#c" y1="707.002" y2="708.7187"/>
    <linearGradient id="o"
                    gradientTransform="matrix(72 0 0 -72 2469.854 51094.9453)"
                    gradientUnits="userSpaceOnUse" x1="-32.5938" x2="-32.3488"
                    xlink:href="#c" y1="708.1035" y2="708.5731"/>
    <linearGradient id="p"
                    gradientTransform="matrix(72 0 0 -72 2469.854 51094.9453)"
                    gradientUnits="userSpaceOnUse" x1="-32.5503" x2="-32.3059"
                    xlink:href="#c" y1="707.8447" y2="708.3132"/>
    <radialGradient id="q" cx="-30.3369" cy="705.5283"
                    gradientTransform="matrix(62.7611 -42.0305 -42.0305 -62.7611 31861.0781 43292.7656)"
                    gradientUnits="userSpaceOnUse" r=".1215" xlink:href="#h"/>
    <radialGradient id="r" cx="-30.8462" cy="707.1924"
                    gradientTransform="matrix(40.1574 -26.8929 -26.8929 -40.1574 20481.3867 27803.1797)"
                    gradientUnits="userSpaceOnUse" r=".1216" xlink:href="#j"/>
    <linearGradient id="s"
                    gradientTransform="matrix(72 0 0 -72 2469.854 51094.9453)"
                    gradientUnits="userSpaceOnUse" x1="-30.8955" x2="-28.5016"
                    xlink:href="#a" y1="708.9941" y2="706.165"/>
    <linearGradient id="t"
                    gradientTransform="matrix(72 0 0 -72 2469.854 51094.9453)"
                    gradientUnits="userSpaceOnUse" x1="-29.7354" x2="-28.4868"
                    xlink:href="#c" y1="707.2539" y2="707.7443"/>
    <linearGradient id="u"
                    gradientTransform="matrix(72 0 0 -72 2469.854 51094.9453)"
                    gradientUnits="userSpaceOnUse" x1="-31.0337" x2="-29.2487"
                    xlink:href="#c" y1="706.3135" y2="708.2712"/>
    <linearGradient id="v"
                    gradientTransform="matrix(72 0 0 -72 2469.854 51094.9453)"
                    gradientUnits="userSpaceOnUse" x1="-30.3066" x2="-29.983"
                    xlink:href="#c" y1="707.9785" y2="708.5988"/>
    <linearGradient id="w"
                    gradientTransform="matrix(72 0 0 -72 2469.854 51094.9453)"
                    gradientUnits="userSpaceOnUse" x1="-30.3242" x2="-29.979"
                    xlink:href="#c" y1="707.5654" y2="708.227"/>
    <radialGradient id="x" cx="-25.6792" cy="702.6309"
                    gradientTransform="matrix(73.1426 -48.983 -48.983 -73.1426 37096.3711 50409.9453)"
                    gradientUnits="userSpaceOnUse" r=".1204" xlink:href="#h"/>
    <radialGradient id="y" cx="-25.4717" cy="703.46"
                    gradientTransform="matrix(46.8 -31.3415 -31.3415 -46.8 23833.7324 32358.0313)"
                    gradientUnits="userSpaceOnUse" r=".1233" xlink:href="#j"/>
    <radialGradient id="z" cx="-29.4072" cy="709.0156"
                    gradientTransform="matrix(72 0 0 -72 2469.854 51094.9453)"
                    gradientUnits="userSpaceOnUse" r=".9634">
        <stop offset="0" stop-color="#fff"/>
        <stop offset="1" stop-color="#ccced1"/>
    </radialGradient>
    <path d="m46.231 168.25-36.231 16.584 250.76 109.103 32.768-31.668"
          fill="none" stroke="#525252" stroke-linecap="round"
          stroke-linejoin="round" stroke-width="20"/>
    <path d="m152.625 208.242-36.684 22.675" fill="none" stroke="#525252"
          stroke-width="20"/>
    <g stroke-width="6">
        <path d="m68.607 4.085c4.571-.751 8.643-1.102 12.214-1.085l49.179 3.472c3.668 2.936 2.968 3.62 3.302 7.124l5.572 120.366c-.117 4.522-1.099 9.144-5.487 13.715l-50.783 26.211c-4.914 2.57-9.827 3.438-14.741 2.603l-43.272-16.468c-2.494-1.551-4.071-4.004-4.729-7.374l-11.463-116.028c-.418-5.056-.009-10.878 3.746-14.316 16.042-9.343 38.567-12.013 56.462-18.22z"
              fill="url(#b)" stroke="#4d5356" stroke-linecap="round"
              stroke-linejoin="round"/>
        <path d="m82.448 173.956-9.503-130.177c-.16-5.573 1.359-10.962 6.583-16.051l50.472-21.256c1.017 5.688 3.193 3.437 3.31 7.124l5.564 120.382c.16 5.406-2.11 9.794-5.487 13.699z"
              fill="url(#d)" stroke="#b2b4b7"/>
        <path d="m79.159 128.888-6.214-85.109c-.16-5.573 1.377-10.962 6.599-16.051l22.049-9.495"
              fill="none" stroke="#ccced1"/>
        <path d="m24.591 160.022c-3.095-2.318-4.663-4.771-4.729-7.374l-11.463-116.027c0 1.602.734-10.411 3.746-14.316l48.804 9.311c5.346 2.002 10.084 6.24 11.996 12.164l9.66 130.108c-3.937 2.32-8.85 3.187-14.741 2.603z"
              fill="url(#e)" stroke="#ccced1"/>
        <path d="m77.458 105.097-4.513-61.317c-.16-5.573 1.359-10.962 6.583-16.051l13.122-4.756"
              fill="none" stroke="#e7e8ea"/>
        <path d="m17.867 32.416 1.343 18.57 44.632 10.363-.807-19.773z"
              fill="url(#f)" stroke="#4d5356"/>
        <path d="m19.21 50.986 1.627 18.37 43.589 12.047-.584-20.054z"
              fill="url(#g)" stroke="#4d5356"/>
        <path d="m24.842 96.486.309 3.238 22.649 6.84v-3.453z" fill="#4d5356"
              stroke="#4d5356"/>
        <path d="m52.873 142.42c2.854-1.902 7.091-.584 9.461 2.971 2.376 3.537 1.994 7.958-.86 9.878-2.846 1.902-7.083.584-9.461-2.971-2.368-3.537-1.986-7.959.86-9.878z"
              fill="url(#i)" stroke="#4d5356"/>
        <path d="m39.667 131.141c1.818-1.234 4.529-.383 6.047 1.886 1.519 2.268 1.277 5.106-.55 6.323-1.818 1.218-4.53.368-6.048-1.902-1.519-2.27-1.277-5.089.551-6.307z"
              fill="url(#k)" stroke="#4d5356"/>
        <path d="m40.701 27.077 21.35 4.773c5.354 2.019 8.983 5.99 10.895 11.93l3.761 51.49"
              fill="none" stroke="#e7e8ea"/>
        <path d="m55.618 29.864 6.432 1.986c5.354 2.019 8.983 5.99 10.895 11.93l2.153 29.416"
              fill="none" stroke="#fff"/>
        <path d="m68.607 4.103c4.478-1.052 8.643-1.103 12.214-1.085l49.179 3.454c1.709-1.836 2.843 3.304 3.31 7.124l5.564 120.366c-.106 4.522-1.099 9.144-5.487 13.715l-50.783 26.211c-4.914 2.57-9.827 3.438-14.741 2.603l-43.272-16.468c-2.494-1.551-4.071-4.004-4.729-7.374l-11.463-116.028c-.418-5.056-.009-10.878 3.746-14.316 17.453-8.776 37.423-12.58 56.462-18.202z"
              fill="none" stroke="#4d5356" stroke-linecap="round"
              stroke-linejoin="round"/>
        <path d="m174.138 12.828c5.323-.868 10.061-1.285 14.226-1.252l55.678 7.559c4.271 3.42 3.469 4.205 3.854 8.292l.817 137.735c-.135 5.272-1.303 10.662-6.408 15.984l-47.31 33.654c-5.724 2.986-11.455 4.003-17.167 3.036l-50.416-19.188c-2.909-1.801-4.747-4.672-5.514-8.593l-9.835-135.182c-.491-5.889-.008-12.681 4.364-16.686 18.686-10.877 36.856-18.117 57.711-25.359z"
              fill="url(#l)" stroke="#4d5356" stroke-linecap="round"
              stroke-linejoin="round"/>
        <path d="m195.003 214.8-6.374-151.6c-.191-6.475 1.577-12.78 7.667-18.704l47.746-25.361c4.839 3.119 3.637 9.376 3.77 13.698l.902 132.329c.167 6.307-2.471 11.412-6.408 15.984z"
              fill="url(#m)" stroke="#b2b4b7"/>
        <path d="m192.176 147.493-3.547-84.293c-.191-6.475 1.577-12.78 7.667-18.704l20.814-11.062"
              fill="none" stroke="#ccced1"/>
        <path d="m127.412 198.648c-3.602-2.702-5.439-5.556-5.514-8.593l-9.835-135.182c-.502-6.958.825-12.73 4.364-16.686l59.505 11.129c6.233 2.336 10.462 6.958 12.697 13.882l6.366 151.6c-4.579 2.703-10.311 3.703-17.167 3.036z"
              fill="url(#n)" stroke="#ccced1"/>
        <path d="m191.642 134.629-3.013-71.429c-.191-6.475 1.577-12.78 7.667-18.704l10.411-5.523"
              fill="none" stroke="#e7e8ea"/>
        <path d="m119.57 49.968 1.569 21.625 52.006 12.097-.95-23.042z"
              fill="url(#o)" stroke="#4d5356"/>
        <path d="m121.139 71.593 1.903 21.423 50.78 14.016-.677-23.342z"
              fill="url(#p)" stroke="#4d5356"/>
        <path d="m127.696 124.617.358 3.771 26.389 7.976v-4.021z" fill="#4d5356"
              stroke="#4d5356"/>
        <path d="m160.366 178.143c3.321-2.219 8.25-.685 11.02 3.454 2.771 4.139 2.32 9.276-1.001 11.513-3.321 2.22-8.258.668-11.019-3.453-2.772-4.139-2.321-9.295 1-11.514z"
              fill="url(#q)" stroke="#4d5356"/>
        <path d="m144.975 164.995c2.118-1.435 5.28-.434 7.048 2.204 1.771 2.652 1.486 5.939-.643 7.357-2.126 1.435-5.28.434-7.048-2.202-1.768-2.654-1.486-5.94.643-7.359z"
              fill="url(#r)" stroke="#4d5356"/>
        <path d="m146.182 43.762 29.75 5.556c6.233 2.336 10.462 6.975 12.697 13.882l2.527 60.065"
              fill="none" stroke="#e7e8ea"/>
        <path d="m161.059 46.532 14.874 2.786c6.233 2.336 10.462 6.975 12.697 13.882l1.102 26.313"
              fill="none" stroke="#fff"/>
        <path d="m146.182 43.762 29.75 5.556c6.233 2.336 10.462 6.975 12.697 13.882l2.527 60.065"
              fill="none" stroke="#e7e8ea"/>
        <path d="m163.562 46.999 12.37 2.319c6.233 2.336 10.462 6.975 12.697 13.882l1.444 34.287"
              fill="none" stroke="#fff"/>
        <path d="m174.138 12.828c5.323-.868 10.061-1.285 14.226-1.252l55.678 7.559c4.271 3.42 3.469 4.205 3.854 8.292l.817 137.735c-.135 5.272-1.303 10.662-6.408 15.984l-47.31 33.654c-5.724 2.986-11.455 4.003-17.167 3.036l-50.416-19.188c-2.909-1.801-4.747-4.672-5.514-8.593l-9.835-135.182c-.491-5.889-.008-12.681 4.364-16.686 18.686-10.877 36.856-18.117 57.711-25.359z"
              fill="none" stroke="#4d5356" stroke-linecap="round"
              stroke-linejoin="round"/>
        <path d="m309.511 33.3c6.207-1.018 11.731-1.501 16.586-1.468l70.01 8.66c4.988 3.988 4.038 4.923 4.489 9.677l-5.389 157.756c-.151 6.124-1.503 12.397-7.46 18.605l-40.862 44.782c-6.654 3.488-13.331 4.672-19.986 3.539l-66.723-25.146c-3.387-2.102-5.524-5.439-6.424-10.01l-2.904-155.488c-.584-6.857-.032-14.766 5.073-19.438 21.791-12.681 29.298-23.026 53.59-31.469z"
              fill="url(#s)" stroke="#4d5356" stroke-linecap="round"
              stroke-linejoin="round"/>
        <path d="m346.885 271.312-1.499-178.312c-.234-7.559 1.834-14.9 8.925-21.808l41.796-30.7c5.623 3.638 4.221 10.946 4.372 15.967l-5.271 151.466c.215 7.343-2.87 13.282-7.46 18.605z"
              fill="url(#t)" stroke="#b2b4b7"/>
        <path d="m260.176 249.704c-4.189-3.136-6.323-6.473-6.424-10.01l-2.687-155.737c-.584-8.092.95-14.834 5.089-19.438l74.798 12.33c7.258 2.736 12.198 8.126 14.8 16.201l1.133 178.262c-5.338 3.153-12.012 4.321-19.986 3.539z"
              fill="url(#u)" stroke="#ccced1"/>
        <path d="m263.728 79.135 1.035 25.21 68.977 15.668-.319-26.83z"
              fill="url(#v)" stroke="#4d5356"/>
        <path d="m264.763 104.345.234 24.962 68.743 17.935v-27.229z"
              fill="url(#w)" stroke="#4d5356"/>
        <path d="m268.4 166.998.435 4.388 30.751 9.294v-4.69z" fill="#4d5356"
              stroke="#4d5356"/>
        <path d="m310.045 229.366c3.873-2.587 9.612-.785 12.848 4.038 3.221 4.805 2.703 10.812-1.168 13.397-3.87 2.603-9.625.801-12.846-4.021-3.238-4.805-2.704-10.811 1.166-13.414z"
              fill="url(#x)" stroke="#4d5356"/>
        <path d="m292.092 214.049c2.487-1.668 6.175-.5 8.227 2.57 2.068 3.086 1.718 6.924-.751 8.576-2.469 1.668-6.141.518-8.208-2.57-2.068-3.086-1.736-6.925.732-8.576z"
              fill="url(#y)" stroke="#4d5356"/>
        <path d="m309.511 33.317c6.207-1.018 11.731-1.519 16.586-1.485l70.01 8.66c4.988 3.988 4.038 4.923 4.489 9.677l-5.389 157.756c-.151 6.124-1.503 12.397-7.46 18.605l-40.862 44.782c-6.654 3.488-13.331 4.672-19.986 3.539l-66.723-25.146c-3.387-2.102-5.524-5.439-6.424-10.01l-2.687-155.737c-.568-6.858-.016-14.766 5.089-19.438 21.773-12.683 29.065-22.777 53.357-31.203z"
              fill="none" stroke="#4d5356" stroke-linecap="round"
              stroke-linejoin="round"/>
        <path d="m280.497 69.123c85.813 5.307 58.982 31.819 66.058 148.597 2.367-111.723-1.569-139.103 25.16-159.308-29.233 27.63-31.285 17.201-91.218 10.711z"
              fill="url(#z)" stroke="#e7e8ea"/>
    </g>
</svg>