
<svg enable-background="new 0 0 447.668 362.337" height="362.337"
     viewBox="0 0 447.668 362.337" width="447.668"
     xmlns="http://www.w3.org/2000/svg"
     xmlns:xlink="http://www.w3.org/1999/xlink">
    <linearGradient id="a">
        <stop offset="0" stop-color="#ccced1"/>
        <stop offset="1" stop-color="#e7e8ea"/>
    </linearGradient>
    <linearGradient id="b"
                    gradientTransform="matrix(72 0 0 -72 7715.2422 44009.3203)"
                    gradientUnits="userSpaceOnUse" x1="-107.041" x2="-105.0068"
                    xlink:href="#a" y1="611.1602" y2="608.7562"/>
    <linearGradient id="c">
        <stop offset="0" stop-color="#989b9f"/>
        <stop offset="1" stop-color="#e7e8ea"/>
    </linearGradient>
    <linearGradient id="d"
                    gradientTransform="matrix(72 0 0 -72 7715.2422 44009.3203)"
                    gradientUnits="userSpaceOnUse" x1="-106.248" x2="-105.0014"
                    xlink:href="#c" y1="609.6563" y2="610.146"/>
    <linearGradient id="e"
                    gradientTransform="matrix(72 0 0 -72 7715.2422 44009.3203)"
                    gradientUnits="userSpaceOnUse" x1="-107.2944" x2="-105.8153"
                    xlink:href="#c" y1="608.9414" y2="610.5637"/>
    <linearGradient id="f"
                    gradientTransform="matrix(72 0 0 -72 7715.2422 44009.3203)"
                    gradientUnits="userSpaceOnUse" x1="-106.7646" x2="-106.4963"
                    xlink:href="#c" y1="610.291" y2="610.8053"/>
    <linearGradient id="g"
                    gradientTransform="matrix(72 0 0 -72 7715.2422 44009.3203)"
                    gradientUnits="userSpaceOnUse" x1="-106.7422" x2="-106.4726"
                    xlink:href="#c" y1="610.0137" y2="610.5303"/>
    <linearGradient id="h">
        <stop offset="0" stop-color="#f6f28b"/>
        <stop offset="1" stop-color="#009f3c"/>
    </linearGradient>
    <radialGradient id="i" cx="-105.0698" cy="607.8867"
                    gradientTransform="matrix(53.8658 -36.0734 -36.0734 -53.8658 27781.4238 29204.0664)"
                    gradientUnits="userSpaceOnUse" r=".1328" xlink:href="#h"/>
    <linearGradient id="j">
        <stop offset="0" stop-color="#f6f28b"/>
        <stop offset="1" stop-color="#e15520"/>
    </linearGradient>
    <radialGradient id="k" cx="-106.207" cy="609.5732"
                    gradientTransform="matrix(34.4657 -23.0813 -23.0813 -34.4657 17842.2441 18753.1016)"
                    gradientUnits="userSpaceOnUse" r=".1243" xlink:href="#j"/>
    <linearGradient id="l"
                    gradientTransform="matrix(72 0 0 -72 7715.2422 44009.3203)"
                    gradientUnits="userSpaceOnUse" x1="-106.416" x2="-103.5985"
                    xlink:href="#a" y1="609.9092" y2="606.5795"/>
    <linearGradient id="m"
                    gradientTransform="matrix(72 0 0 -72 7715.2422 44009.3203)"
                    gradientUnits="userSpaceOnUse" x1="-105.1831" x2="-103.6126"
                    xlink:href="#c" y1="607.8057" y2="608.4225"/>
    <linearGradient id="n"
                    gradientTransform="matrix(72 0 0 -72 7715.2422 44009.3203)"
                    gradientUnits="userSpaceOnUse" x1="-106.645" x2="-104.5807"
                    xlink:href="#c" y1="606.7627" y2="609.0268"/>
    <linearGradient id="o"
                    gradientTransform="matrix(72 0 0 -72 7715.2422 44009.3203)"
                    gradientUnits="userSpaceOnUse" x1="-105.689" x2="-105.4217"
                    xlink:href="#c" y1="609.1455" y2="609.6578"/>
    <linearGradient id="p"
                    gradientTransform="matrix(72 0 0 -72 7715.2422 44009.3203)"
                    gradientUnits="userSpaceOnUse" x1="-105.6152" x2="-105.3416"
                    xlink:href="#c" y1="608.834" y2="609.3583"/>
    <radialGradient id="q" cx="-104.959" cy="605.6797"
                    gradientTransform="matrix(75.9658 -50.8735 -50.8735 -75.9658 39107.00390000001 41114.7188)"
                    gradientUnits="userSpaceOnUse" r=".1333" xlink:href="#h"/>
    <radialGradient id="r" cx="-106.0454" cy="605.9629"
                    gradientTransform="matrix(48.6062 -32.5511 -32.5511 -48.6062 25088.8535 26375.5508)"
                    gradientUnits="userSpaceOnUse" r=".1329" xlink:href="#j"/>
    <linearGradient id="s"
                    gradientTransform="matrix(72 0 0 -72 7715.2422 44009.3203)"
                    gradientUnits="userSpaceOnUse" x1="-103.3301" x2="-100.7101"
                    xlink:href="#a" y1="610.6592" y2="607.5628"/>
    <linearGradient id="t"
                    gradientTransform="matrix(72 0 0 -72 7715.2422 44009.3203)"
                    gradientUnits="userSpaceOnUse" x1="-102.0562" x2="-100.7014"
                    xlink:href="#c" y1="608.7744" y2="609.3066"/>
    <linearGradient id="u"
                    gradientTransform="matrix(72 0 0 -72 7715.2422 44009.3203)"
                    gradientUnits="userSpaceOnUse" x1="-103.5054" x2="-101.5498"
                    xlink:href="#c" y1="607.7236" y2="609.8685"/>
    <linearGradient id="v"
                    gradientTransform="matrix(72 0 0 -72 7715.2422 44009.3203)"
                    gradientUnits="userSpaceOnUse" x1="-102.7129" x2="-102.3581"
                    xlink:href="#c" y1="609.5303" y2="610.2102"/>
    <linearGradient id="w"
                    gradientTransform="matrix(72 0 0 -72 7715.2422 44009.3203)"
                    gradientUnits="userSpaceOnUse" x1="-102.7217" x2="-102.3554"
                    xlink:href="#c" y1="609.0986" y2="609.8005"/>
    <radialGradient id="x" cx="-98.6631" cy="603.5518"
                    gradientTransform="matrix(73.1426 -48.983 -48.983 -73.1426 37672.582 39594.3711)"
                    gradientUnits="userSpaceOnUse" r=".1317" xlink:href="#h"/>
    <radialGradient id="y" cx="-98.4858" cy="603.6924"
                    gradientTransform="matrix(46.8 -31.3415 -31.3415 -46.8 24175.9492 25402.5313)"
                    gradientUnits="userSpaceOnUse" r=".1285" xlink:href="#j"/>
    <radialGradient id="z" cx="-101.6934" cy="610.6797"
                    gradientTransform="matrix(72 0 0 -72 7715.2422 44009.3203)"
                    gradientUnits="userSpaceOnUse" r="1.0545">
        <stop offset="0" stop-color="#fff"/>
        <stop offset="1" stop-color="#ccced1"/>
    </radialGradient>
    <ellipse cx="202.867" cy="213.867" fill="none" rx="174.5" ry="107"
             stroke="#525252" stroke-width="20"
             transform="matrix(.9863 -.1649 .1649 .9863 -32.4893 36.3803)"/>
    <g stroke-width="6">
        <path d="m69.884 4.189c5.007-.822 9.466-1.214 13.376-1.188l53.849 3.792c4.03 3.215 3.262 3.974 3.628 7.812l5.299 129.004c-.128 4.943-1.207 10.014-6.012 15.011l-55.612 28.697c-5.382 2.814-10.763 3.764-16.135 2.851l-47.398-18.035c-2.733-1.691-4.459-4.386-5.181-8.067l-12.554-127.068c-.457-5.536 0-11.905 4.102-15.678 17.568-10.224 43.031-10.333 62.638-17.131z"
              fill="url(#b)" stroke="#4d5356" stroke-linecap="round"
              stroke-linejoin="round"/>
        <path d="m84.247 187.39-10.415-142.562c-.174-6.094 1.488-12.005 7.208-17.579l56.069-20.456c1.115 6.231 3.5 3.755 3.618 7.812l5.309 129.004c.172 5.929-2.312 10.726-6.012 15.021z"
              fill="url(#d)" stroke="#b2b4b7"/>
        <path d="m80.637 138.036-6.797-93.208c-.182-6.094 1.5-11.996 7.218-17.561l23.289-8.524"
              fill="none" stroke="#ccced1"/>
        <path d="m20.878 172.133c-3.39-2.531-5.107-5.227-5.181-8.067l-12.553-127.068c0 1.746.804-11.411 4.102-15.678l53.448 10.187c5.856 2.211 11.045 6.834 13.138 13.33l10.58 142.48c-4.313 2.54-9.694 3.491-16.135 2.851z"
              fill="url(#e)" stroke="#ccced1"/>
        <path d="m78.773 111.979-4.933-67.151c-.182-6.094 1.479-12.005 7.2-17.579l14.371-5.198"
              fill="none" stroke="#e7e8ea"/>
        <path d="m13.514 32.384 1.47 20.337 48.879 11.357-.886-21.653z"
              fill="url(#f)" stroke="#4d5356"/>
        <path d="m14.984 52.721 1.791 20.127 47.727 13.184-.639-21.954z"
              fill="url(#g)" stroke="#4d5356"/>
        <path d="m21.15 102.56.339 3.544 24.806 7.492v-3.791z" fill="#4d5356"
              stroke="#4d5356"/>
        <path d="m51.849 152.864c3.125-2.092 7.766-.63 10.361 3.252 2.604 3.883 2.184 8.726-.941 10.809-3.115 2.092-7.756.64-10.361-3.244-2.595-3.882-2.175-8.724.941-10.817z"
              fill="url(#i)" stroke="#4d5356"/>
        <path d="m37.386 140.502c1.992-1.333 4.961-.411 6.625 2.074 1.672 2.485 1.397 5.582-.603 6.925-1.992 1.333-4.961.402-6.625-2.083-1.662-2.484-1.398-5.581.603-6.916z"
              fill="url(#k)" stroke="#4d5356"/>
        <path d="m38.519 26.546 23.381 5.234c5.866 2.203 9.84 6.551 11.932 13.056l4.121 56.38"
              fill="none" stroke="#e7e8ea"/>
        <path d="m54.855 29.606 7.044 2.174c5.866 2.203 9.84 6.551 11.94 13.056l2.349 32.224"
              fill="none" stroke="#fff"/>
        <path d="m69.875 4.199c4.905-1.151 9.464-1.197 13.375-1.188l53.858 3.783c1.874-2.01 3.125 3.618 3.628 7.812l5.299 129.004c-.12 4.943-1.207 10.004-6.012 15.002l-55.612 28.706c-5.382 2.814-10.763 3.764-16.135 2.851l-47.398-18.035c-2.733-1.691-4.459-4.386-5.181-8.067l-12.553-127.069c-.457-5.537-.01-11.905 4.102-15.678 19.114-9.611 41.78-10.955 62.629-17.121z"
              fill="none" stroke="#4d5356" stroke-linecap="round"
              stroke-linejoin="round"/>
        <path d="m138.357 87.118c7.053-1.151 13.338-1.699 18.848-1.671l73.804 10.022c5.683 4.532 4.604 5.592 5.115 11.009l1.079 182.571c-.202 6.98-1.718 14.125-8.488 21.178l-62.702 44.604c-7.592 3.983-15.184 5.317-22.758 4.038l-66.84-25.436c-3.856-2.394-6.296-6.194-7.31-11.384l-13.038-179.199c-.649-7.802-.01-16.793 5.792-22.109 24.76-14.427 48.843-24.02 76.498-33.623z"
              fill="url(#l)" stroke="#4d5356" stroke-linecap="round"
              stroke-linejoin="round"/>
        <path d="m166.013 354.83-8.451-200.935c-.256-8.597 2.092-16.938 10.159-24.795l63.288-33.631c6.395 4.148 4.823 12.444 5.006 18.154l1.188 175.426c.236 8.368-3.271 15.13-8.488 21.178z"
              fill="url(#m)" stroke="#b2b4b7"/>
        <path d="m162.267 265.623-4.705-111.728c-.256-8.597 2.092-16.938 10.159-24.795l27.61-14.665"
              fill="none" stroke="#ccced1"/>
        <path d="m76.414 333.414c-4.779-3.545-7.209-7.346-7.31-11.365l-13.037-179.199c-.659-9.209 1.097-16.875 5.792-22.109l78.873 14.746c8.261 3.097 13.871 9.237 16.83 18.409l8.451 200.935c-6.084 3.6-13.677 4.933-22.758 4.038z"
              fill="url(#n)" stroke="#ccced1"/>
        <path d="m161.546 248.575-3.984-94.68c-.256-8.597 2.092-16.938 10.159-24.795l13.806-7.328"
              fill="none" stroke="#e7e8ea"/>
        <path d="m66.025 136.345 2.074 28.679 68.933 16.015-1.251-30.533z"
              fill="url(#o)" stroke="#4d5356"/>
        <path d="m68.099 165.024 2.521 28.376 67.317 18.602-.905-30.963z"
              fill="url(#p)" stroke="#4d5356"/>
        <path d="m76.796 235.309.475 4.988 34.975 10.58v-5.355z" fill="#4d5356"
              stroke="#4d5356"/>
        <path d="m120.094 306.261c4.403-2.959 10.945-.913 14.609 4.568 3.672 5.482 3.077 12.316-1.326 15.258-4.404 2.941-10.945.896-14.609-4.586-3.671-5.482-3.079-12.298 1.326-15.24z"
              fill="url(#q)" stroke="#4d5356"/>
        <path d="m99.692 288.829c2.813-1.9 6.998-.584 9.346 2.924s1.964 7.856-.849 9.758c-2.814 1.882-6.999.565-9.346-2.924-2.348-3.508-1.965-7.894.849-9.758z"
              fill="url(#r)" stroke="#4d5356"/>
        <path d="m101.291 128.113 39.441 7.373c8.261 3.106 13.871 9.237 16.83 18.409l3.344 79.605"
              fill="none" stroke="#e7e8ea"/>
        <path d="m121.017 131.795 19.715 3.691c8.261 3.097 13.871 9.237 16.83 18.409l1.472 34.882"
              fill="none" stroke="#fff"/>
        <path d="m101.291 128.113 39.441 7.373c8.261 3.106 13.871 9.237 16.83 18.409l3.344 79.605"
              fill="none" stroke="#e7e8ea"/>
        <path d="m124.333 132.416 16.399 3.07c8.261 3.097 13.871 9.237 16.83 18.409l1.91 45.435"
              fill="none" stroke="#fff"/>
        <path d="m138.357 87.118c7.053-1.151 13.338-1.699 18.848-1.671l73.804 10.022c5.683 4.532 4.604 5.592 5.115 11.009l1.079 182.571c-.202 6.98-1.718 14.125-8.488 21.178l-62.702 44.604c-7.592 3.983-15.184 5.317-22.758 4.038l-66.84-25.436c-3.856-2.394-6.296-6.194-7.31-11.384l-13.038-179.199c-.649-7.802-.01-16.793 5.792-22.109 24.76-14.427 48.843-24.02 76.498-33.623z"
              fill="none" stroke="#4d5356" stroke-linecap="round"
              stroke-linejoin="round"/>
        <path d="m344.899 25.361c6.797-1.115 12.865-1.645 18.163-1.617l76.672 9.493c5.482 4.358 4.421 5.382 4.934 10.598l-5.902 172.758c-.164 6.725-1.662 13.595-8.168 20.393l-44.731 49.025c-7.308 3.818-14.617 5.116-21.927 3.874l-73.054-27.537c-3.728-2.303-6.066-5.957-7.054-10.964l-3.179-170.264c-.621-7.519-.019-16.171 5.573-21.296 23.846-13.887 32.069-25.226 58.673-34.463z"
              fill="url(#s)" stroke="#4d5356" stroke-linecap="round"
              stroke-linejoin="round"/>
        <path d="m385.848 286.011-1.661-195.279c-.257-8.268 2.01-16.308 9.794-23.873l45.754-33.622c6.175 3.983 4.642 11.978 4.806 17.478l-5.774 165.878c.238 8.041-3.143 14.546-8.168 20.393z"
              fill="url(#t)" stroke="#b2b4b7"/>
        <path d="m290.886 262.348c-4.604-3.435-6.943-7.09-7.054-10.964l-2.923-170.547c-.658-8.871 1.041-16.253 5.572-21.287l81.916 13.512c7.948 2.988 13.34 8.899 16.189 17.725l1.261 195.224c-5.846 3.453-13.155 4.732-21.908 3.874z"
              fill="url(#u)" stroke="#ccced1"/>
        <path d="m294.76 75.557 1.134 27.61 75.537 17.166-.328-29.4z"
              fill="url(#v)" stroke="#4d5356"/>
        <path d="m295.894 103.167.253 27.326 75.284 19.652v-29.812z"
              fill="url(#w)" stroke="#4d5356"/>
        <path d="m299.894 171.771.458 4.805 33.694 10.196v-5.153z"
              fill="#4d5356" stroke="#4d5356"/>
        <path d="m345.483 240.092c4.24-2.851 10.543-.877 14.071 4.403 3.544 5.281 2.959 11.859-1.279 14.691-4.239 2.832-10.525.858-14.069-4.404-3.527-5.28-2.961-11.858 1.277-14.69z"
              fill="url(#x)" stroke="#4d5356"/>
        <path d="m325.841 223.299c2.723-1.809 6.743-.548 9.01 2.832 2.265 3.363 1.899 7.565-.823 9.393-2.723 1.81-6.743.548-9.008-2.814-2.266-3.381-1.902-7.602.821-9.411z"
              fill="url(#y)" stroke="#4d5356"/>
        <path d="m344.899 25.371c6.797-1.114 12.865-1.654 18.163-1.617l76.672 9.483c5.482 4.358 4.421 5.382 4.934 10.598l-5.902 172.758c-.164 6.725-1.662 13.595-8.168 20.393l-44.731 49.025c-7.308 3.818-14.617 5.116-21.927 3.874l-73.054-27.537c-3.728-2.303-6.066-5.957-7.054-10.964l-2.923-170.547c-.622-7.519-.018-16.171 5.572-21.287 23.847-13.897 31.814-24.952 58.418-34.179z"
              fill="none" stroke="#4d5356" stroke-linecap="round"
              stroke-linejoin="round"/>
        <path d="m313.142 64.593c93.959 5.801 64.594 34.846 72.324 162.727 2.595-122.344-1.7-152.338 27.555-174.458-32.014 30.26-34.245 18.839-99.879 11.731z"
              fill="url(#z)" stroke="#e7e8ea"/>
    </g>
</svg>