
<svg clip-rule="evenodd" fill-rule="evenodd" height=".24in"
     image-rendering="optimizeQuality" shape-rendering="geometricPrecision"
     text-rendering="geometricPrecision" viewBox="0 0 .24 .24" width=".24in"
     xmlns="http://www.w3.org/2000/svg"
     xmlns:xlink="http://www.w3.org/1999/xlink">
    <linearGradient id="a" gradientUnits="userSpaceOnUse" x1=".011039"
                    x2=".084433" y1=".145965" y2=".145965">
        <stop offset="0" stop-color="#c2c8d4"/>
        <stop offset="1" stop-color="#9b9da2"/>
    </linearGradient>
    <linearGradient id="b" gradientUnits="userSpaceOnUse" x1=".02674"
                    x2=".088252" y1=".115476" y2=".062752">
        <stop offset="0" stop-color="#74757f"/>
        <stop offset="1" stop-color="#bfc0d1"/>
    </linearGradient>
    <linearGradient id="c" gradientUnits="userSpaceOnUse" x1=".109122"
                    x2=".192894" xlink:href="#b" y1=".126528" y2=".054724"/>
    <linearGradient id="d" gradientUnits="userSpaceOnUse" x1=".099673"
                    x2=".031594" y1=".11013" y2=".064744">
        <stop offset="0" stop-color="#74757f"/>
        <stop offset="1" stop-color="#c8cadb"/>
    </linearGradient>
    <linearGradient id="e" gradientUnits="userSpaceOnUse" x1=".208453"
                    x2=".115736" xlink:href="#d" y1=".119248" y2=".057437"/>
    <linearGradient id="f" gradientUnits="userSpaceOnUse" x1=".115815"
                    x2=".082933" y1=".138748" y2=".152142">
        <stop offset="0" stop-color="#9b9da2"/>
        <stop offset="1" stop-color="#7e7f81"/>
    </linearGradient>
    <linearGradient id="g" gradientUnits="userSpaceOnUse" x1=".060854"
                    x2=".064732" y1=".120012" y2=".162626">
        <stop offset="0" stop-color="#c2c8d4"/>
        <stop offset="1" stop-color="#f9fafb"/>
    </linearGradient>
    <linearGradient id="h" gradientUnits="userSpaceOnUse" x1=".072323"
                    x2=".047551" xlink:href="#d" y1=".136039" y2=".119528"/>
    <linearGradient id="i" gradientUnits="userSpaceOnUse" x1=".171209"
                    x2=".137469" xlink:href="#d" y1=".154539" y2=".132043"/>
    <g stroke-linecap="round" stroke-linejoin="round">
        <g stroke-width=".003">
            <path d="m.0148701.148571.0663622.0125197c.00265748.00049213.0053189.00012992.00798031-.00108268l.0220433-.012126c.00164173-.00105118.0028622-.00263386.00315354-.00538976l.00029921-.0106102c-.00082677-.00243307-.00198819-.00384646-.00349213-.00424409l-.0587087-.00653543c-.00301969-.00004724-.00590945.00016535-.00867717.0006378l-.0293583.00755512c-.00285039.00077559-.00359449.00248819-.00338189.00462205l.00052756.0104921c-.0001063.00155512.00097638.00294488.00325197.00416142z"
                  fill="url(#g)" stroke="#a0a0a1"/>
            <path d="m.0844331.161268-.0003937-.0148071c-.00043307-.00251181-.00205512-.00417717-.00487795-.00498819l-.067189-.010811c-.0006378.00111024-.00093307.00219685-.00088189.00325591l.00052756.0104921c.00011811.00164961.00120472.00303937.00325197.00416142l.0663622.0125197.00320079.00017717z"
                  fill="url(#a)" stroke="#87888c"/>
            <path d="m.0844331.161268.00477953-.00125984.0220433-.012126c.00212205-.00166535.00317323-.00346457.00315354-.00538976l.00029921-.0106102-.00103937-.00225984-.0257874.0112087c-.00230709.00068504-.00358268.00255906-.00384252.00562992l.0003937.0148071z"
                  fill="url(#f)" stroke="#4c4c4c"/>
            <path d="m.113669.129622-.0257874.0112087c-.00229134.00103543-.00357087.00290945-.00384252.00562992l.00021654.00806299.00017717.00674409"
                  fill="none" stroke="#8f9196"/>
            <path d="m.102622.134421-.0147402.00640945c-.00229134.00103543-.00357087.00290945-.00384252.00562992l.00024016.00906693"
                  fill="none" stroke="#a9adb5"/>
            <path d="m.0962008.137213-.0083189.00361811c-.00229134.00103543-.00357087.00290945-.00384252.00562992l.00011811.0045315"
                  fill="none" stroke="#c2c8d4"/>
            <path d="m.0907638.139579-.00288189.00125197c-.00229134.00103543-.00357087.00290945-.00384252.00562992l.00005906.00226772"
                  fill="none" stroke="#d9dfe7"/>
            <path d="m.0267874.133043.052374.00842913c.00283858.00125591.00446063.00291732.00487795.00498819"
                  fill="none" stroke="#989aa0"/>
            <path d="m.0431614.135677.036.00579528c.00283858.00125591.00446063.00291732.00487795.00498819"
                  fill="none" stroke="#a9adb5"/>
            <path d="m.0554291.137654.0237323.0038189c.00283858.00125591.00446063.00291732.00487795.00498819"
                  fill="none" stroke="#c2c8d4"/>
            <path d="m.0690079.139839.0101535.00163386c.00283858.00125591.00446063.00291732.00487795.00498819"
                  fill="none" stroke="#dce0e7"/>
        </g>
        <path d="m.0148701.148571.0663622.0125197c.00265748.00049213.0053189.00012992.00798031-.00108268l.0220433-.012126c.00164173-.00105118.0028622-.00263386.00315354-.00538976l.00029921-.0106102c-.00082677-.00243307-.00198819-.00384646-.00349213-.00424409-.0407087-.00453543.0205827.00229528-.0587087-.00653543-.00301969-.00004724-.00590945.00016535-.00867717.0006378l-.0293583.00755512c-.00285039.00077559-.00359449.00248819-.00338189.00462205l.00052756.0104921c-.0001063.00155512.00097638.00294488.00325197.00416142z"
              fill="none" stroke="#4c4c4c" stroke-width=".006665"/>
        <path d="m.0604016.136154c.00395669-.00309055.00810236-.00559055.0125394-.00708268.00443701-.00148819.00916929-.00201969.0143071-.00120079-.00742913-.0032126-.0124724-.00721654-.0122008-.0129843-.00170079.00020866-.00340551.00041732-.0051063.00062992-.00087402.00438976-.00228346.0084685-.00395276.0119764-.00166929.0035-.00362992.00647638-.00558661.00866142z"
              fill="#74757f" stroke="#4c4c4c" stroke-width=".003"/>
        <path d="m.0778386.0654173c-.0036378-.00012205-.00721654-.00024803-.0107047-.00035827-.0035-.00011024-.00693701-.00024016-.0103031-.00034646-.00322835-.00010236-.00640945-.00020079-.00952362-.00030315-.00311811-.00010236-.00617717-.00022047-.0091811-.0003189-.00241339-.00007874-.00447638.00231102-.00462205.00529528-.00028347.0056378-.00058661.0112913-.00087008.0169055-.0002874.00561811-.00058661.0112283-.00086221.0168071-.00014567.00294094.00163386.00567717.004.00608661.00295669.00051575.00598031.00104724.00903937.0015748.00305906.00052362.00620079.00106693.00938583.00161417.00330315.00057087.0066811.00116535.0101181.00175984.00342913.00059055.00694488.00119685.0105157.00181102.00302362.00051969.00572441-.00180315.0059252-.00519685.00018898-.00320472.0003937-.00643701.00058661-.00965748.00019291-.00322441.00040158-.0064685.00059055-.00970472.00019291-.00323228.00039764-.00648819.00059055-.00973622.00018898-.00324409.00039764-.00650787.00059449-.00976378.00020472-.00344488-.00220079-.0063622-.00527953-.0064685z"
              fill="url(#b)" stroke="#4c4c4c" stroke-width=".003"/>
        <path d="m.0737953.0696142c-.00296457-.00012992-.00588583-.00027559-.00875197-.00039764-.00287008-.00012205-.00570079-.00026378-.00847638-.00038976-.00268504-.00011811-.00533465-.00024409-.00794488-.00035433-.00261417-.0001063-.00518898-.00023228-.00770866-.00034646-.00203543-.00009055-.00379921.00188189-.0039252.00437795-.00024016.00473622-.00049213.00947244-.00073228.0141811-.00023622.00470079-.0005.00941339-.00074016.0141063-.00012205.00246457.00138583.00475197.00340551.00507874.00249606.00040158.00503543.00082284.0076063.00123228.00257087.00040551.00519685.00082677.00784646.00124409.00274016.00043307.00552756.00089764.00835433.00135039.00282677.00044882.00570866.00091732.00862598.00138189.00246457.00038976.00464567-.00154724.00480709-.00432677.00031102-.00526772.00063386-.0105669.00094488-.0158583.00031102-.00530315.00063386-.010626.00094882-.0159567.00016929-.00279921-.00175984-.00521654-.00425984-.00532283z"
              fill="#0cf" stroke="#333" stroke-width=".003"/>
        <path d="m.0380276.0642087c.00344882-.00105906.00688976-.00212205.0103307-.00317717.00228346-.00057874.00455118-.00089764.00683858-.00083858.00561417.0002126.0112244.00044095.0168189.00064173.00557874.00020079.0111693.00041732.0167362.00062205.00236614.00157087.00388189.00335039.0035.00555512-.00042126.00637402-.00084252.012748-.00125591.0191063-.00040945.00635433-.00083071.0127323-.00124016.0190827-.00052362.00268504-.00118504.00436614-.00322047.00561417-.00296457.00157874-.00593307.00314567-.00890551.00470866.00176378-.00137795.00272047-.00295276.00285039-.00470866.00038583-.00644488.00078347-.0129173.00117323-.0193858.00038583-.00647244.00078347-.012937.00117717-.0194213.00003543-.00333465-.00172441-.00548031-.00525591-.00646063-.00655906-.00021654-.0131378-.00045276-.0197244-.00066535-.00658661-.0002126-.0132008-.00044095-.0198228-.00067323z"
              fill="url(#d)" stroke="#4c4c4c" stroke-width=".003"/>
        <path d="m.0627126.114256c-.00171654.00867717-.00537795.0156378-.0125039.0195354.00340157.00079528.00679921.00157874.0101929.0023622.00259449-.002.00427953-.00475197.00566142-.00818898.00138583-.00344094.00247244-.00761024.00387795-.0124488-.00241732-.00041732-.0048189-.00083858-.00722835-.00125984z"
              fill="url(#h)" stroke="#4c4c4c" stroke-width=".003"/>
        <path d="m.0502126.133795c.00432677-.00404331.00746457-.00788583.00383071-.0105039.00417717-.00149606.00723228-.00430315.00866929-.00902756-.00073622.00776772-.00489764.0142835-.0125.0195315z"
              fill="#ccf" stroke="#4c4c4c" stroke-width=".003"/>
        <path d="m.0432126.0642677c.00579134.00020079.0115748.00038976.0173465.00057874.00576378.00018898.0115197.00037795.0172559.0005748.00353937.00063386.00529921.0027874.00529134.0064685-.00040158.00648425-.00079528.0129685-.00118504.0194449-.00038976.00648031-.0007874.0129567-.0011811.0194134"
              fill="none" stroke="#afb0bf" stroke-width=".003"/>
        <path d="m.0517047.0645512c.00435433.00014567.00872835.00029921.0130787.00044095.00434252.00013386.00869685.00028347.0130315.00042913.00353937.00063386.00529921.0027874.00529134.0064685-.00019685.00324016-.00040158.00649606-.00059449.00972441-.00019291.00323228-.00039764.00648031-.00058268.00971654"
              fill="none" stroke="#d2d3e2" stroke-width=".003"/>
        <path d="m.0657992.0650236c.00400787.00012992.00801575.00025984.0120157.00039764.00353937.00063386.00529921.0027874.00529134.0064685-.00025984.00416535-.00051181.00831102-.00076378.0124646"
              fill="none" stroke="#eeeffe" stroke-width=".003"/>
        <path d="m.055437.060063c.00557874.0002126.0111614.00044488.0167205.00064961.00553937.00020472.0111063.00043307.0166378.0006378.00249213.00142126.00383858.00322441.00348031.00556693-.0004252.00638189-.00083858.0127559-.00125197.0191299-.00040945.00636614-.00082284.012748-.00122835.0191102-.00011811.00230709-.00119291.00417717-.00319685.00561417-.00294882.0015748-.00590551.00314567-.00885827.00470866-.00101181.00015748-.00201969.00031496-.0030315.00047244-.00004724.00405512.00454331.0080315.0123031.0119449-.00445276-.00074409-.00890157-.00041732-.0133189.00094882-.00442913.00137008-.00884252.00381102-.0132362.00729921-.00335433-.0007874-.00670866-.0015748-.0100748-.00237402.0052126-.00439764.00700394-.00801969.00379134-.0104961.00400787-.00190157.00738976-.00438976.0085748-.00902756-.00443307-.00084252-.00888583-.00168898-.0133346-.00253543-.00444882-.00084646-.00891339-.00170866-.0133819-.00255906-.00309055-.00160236-.00440945-.0036378-.00396457-.00609055.00028347-.00561024.00057874-.0112283.00085827-.0168465.00027953-.00561417.0005748-.0112323.00085827-.0168622-.00014961-.00287795.00138189-.00464173.00458268-.0052874.00342913-.00105906.00685039-.00212205.0102677-.00317717.00226772-.00027165.0045315-.00054724.00680315-.00082677z"
              fill="none" stroke="#4c4c4c" stroke-width=".006665"/>
        <path d="m.0929646.171602.090378.0170512c.00361811.00066535.00724016.00017323.0108661-.00147638l.0300197-.0165118c.00224016-.00142913.00390157-.00358661.00429528-.00733858l.00040945-.0144528c-.00112598-.00331496-.00270866-.00524016-.00475591-.00577953l-.0799528-.00889764c-.00411417-.00007087-.00805512.00022047-.0118189.00086614l-.0399843.0102913c-.00388189.00105512-.0048937.00338189-.00460236.0062874l.00071654.0142913c-.00014567.00211811.00132677.00401181.00442913.00566929z"
              fill="url(#g)" stroke="#a0a0a1" stroke-width=".003"/>
        <path d="m.187697.188894-.00053543-.0201654c-.00058661-.00342126-.00279921-.00568898-.0066378-.00679134l-.0915079-.0147244c-.00087008.00151181-.00127165.00298819-.00119685.00442913l.00071654.0142913c.00016142.00224803.00164173.0041378.00442913.00566929l.090378.0170512.00435433.00024016z"
              fill="url(#a)" stroke="#87888c" stroke-width=".003"/>
        <path d="m.187697.188894.00651181-.00171654.0300197-.0165118c.0028937-.00227165.00432283-.00471654.00429528-.00733858l.00040945-.0144528-.00142126-.00307874-.0351142.0152677c-.00314173.00092913-.00488189.00348425-.00523622.00766535l.00053543.0201654z"
              fill="url(#f)" stroke="#4c4c4c" stroke-width=".003"/>
        <path d="m.227512.145795-.0351142.0152677c-.00312205.00140551-.0048622.00396063-.00523622.00766535l.00029528.0109803.00024016.00918504"
              fill="none" stroke="#8f9196" stroke-width=".003"/>
        <path d="m.212472.152331-.0200748.00873228c-.00312205.00140551-.0048622.00396063-.00523622.00766535l.00032677.0123504"
              fill="none" stroke="#a9adb5" stroke-width=".003"/>
        <path d="m.203724.156134-.0113268.00492913c-.00312205.00140551-.0048622.00396063-.00523622.00766535l.00016535.00617323"
              fill="none" stroke="#c2c8d4" stroke-width=".003"/>
        <path d="m.196323.159354-.0039252.00170866c-.00312205.00140551-.0048622.00396063-.00523622.00766535l.00008268.00308661"
              fill="none" stroke="#d9dfe7" stroke-width=".003"/>
        <path d="m.109193.150457.0713307.0114803c.0038622.00170472.0060748.0039685.0066378.00679134"
              fill="none" stroke="#989aa0" stroke-width=".003"/>
        <path d="m.131492.154043.0490315.0078937c.0038622.00170472.0060748.0039685.0066378.00679134"
              fill="none" stroke="#a9adb5" stroke-width=".003"/>
        <path d="m.148201.156736.0323228.00520079c.0038622.00170472.0060748.0039685.0066378.00679134"
              fill="none" stroke="#c2c8d4" stroke-width=".003"/>
        <path d="m.166693.159709.0138307.00222835c.0038622.00170472.0060748.0039685.0066378.00679134"
              fill="none" stroke="#dce0e7" stroke-width=".003"/>
        <path d="m.0929646.171602.090378.0170512c.00361811.00066535.00724016.00017323.0108661-.00147638l.0300197-.0165118c.00224016-.00142913.00390157-.00358661.00429528-.00733858l.00040945-.0144528c-.00112598-.00331496-.00270866-.00524016-.00475591-.00577953-.0554409-.00617717.0280276.00312598-.0799528-.00889764-.00411417-.00007087-.00805512.00022047-.0118189.00086614l-.0399843.0102913c-.00388189.00105512-.0048937.00338189-.00460236.0062874l.00071654.0142913c-.00014567.00211811.00132677.00401181.00442913.00566929z"
              fill="none" stroke="#4c4c4c" stroke-width=".006665"/>
        <path d="m.154972.154689c.00538583-.00420866.0110354-.00761024.0170787-.00964173.00603937-.00202756.0124843-.00275197.0194803-.0016378-.0101142-.00437402-.0169843-.00982677-.0166142-.017685-.0023189.0002874-.0046378.00057087-.00695669.00085827-.00118898.00598031-.0031063.0115354-.00538189.016311-.00227165.00476772-.00494094.00882283-.0076063.0117953z"
              fill="#74757f" stroke="#4c4c4c" stroke-width=".003"/>
        <path d="m.178717.0583583c-.00495276-.00016535-.00982677-.00033858-.0145787-.00048819-.00476378-.00014961-.00944488-.00032677-.0140276-.00047244-.00439764-.00014173-.00873228-.00027559-.0129724-.00041339-.00424409-.00014173-.00841339-.00029921-.0125039-.00043307-.0032874-.0001063-.00609449.00314567-.00629528.00720866-.00038189.0076811-.00079528.015378-.00118504.0230236-.00038976.00764961-.00079921.0152913-.00117323.0228898-.00019685.00400394.00222835.00773228.00544882.00829134.00402756.00070079.00814173.0014252.012311.00214173.00416535.00071654.00844488.00145276.0127795.00220079.0045.00077559.00909843.00158661.0137795.0023937.00467323.00080709.00946063.00162992.0143228.0024685.00411811.00070866.00779528-.00245669.00806693-.00707874.00025984-.00436614.00053937-.00876378.00079921-.0131535.00026378-.00438976.00054724-.00880709.00080709-.0132126.00026378-.00440551.00053937-.00883858.00080315-.0132598.00025984-.00442126.00054331-.00886614.00081102-.0132992.00027953-.00468898-.00299606-.00866535-.00719291-.00880709z"
              fill="url(#c)" stroke="#4c4c4c" stroke-width=".003"/>
        <path d="m.173213.0640709c-.00403543-.00017717-.00801575-.00037402-.0119213-.00053937-.00390551-.00016929-.00775984-.00036221-.0115433-.0005315-.00365748-.00016142-.00726378-.00033465-.0108189-.00048032-.00355906-.00014567-.00706693-.0003189-.0104961-.00047244-.00277559-.00012598-.00517717.00256299-.00535039.00596063-.00032677.00645276-.00066929.0128976-.00099606.019315-.00032284.00640157-.0006811.0128189-.00100394.0192087-.00016929.00335827.00188583.00647244.00463386.00691732.00340157.00054724.00685827.00112205.0103583.00167717.00350394.00055512.00707874.00112598.010689.00169685.00372835.00058661.00752756.00122047.011378.00183465.00385039.00061417.00777559.00125197.011748.00188583.00335433.0005315.00632677-.0021063.00654724-.0058937.00042126-.00717323.00086221-.0143898.00128346-.0215984.0004252-.00722047.00086221-.0144685.00129528-.0217283.00022835-.00381496-.00240157-.0071063-.00580315-.00725197z"
              fill="#0cf" stroke="#333" stroke-width=".003"/>
        <path d="m.1245.0567126c.00469685-.00144488.00938189-.0028937.0140709-.00433071.0031063-.0007874.00619685-.00122047.00931496-.0011378.00764567.0002874.0152835.00059843.0229016.00087402.00759843.00027165.0152126.00056693.0227953.00084252.00322047.00214173.00528346.00456299.00476378.00756693-.0005748.0086811-.00114567.0173622-.00170866.0260236-.00055906.00864961-.00112992.0173386-.00168898.0259843-.0007126.00365748-.00161417.00594882-.00438583.00764961-.00403543.00214567-.00808268.00427953-.012126.00640945.00239764-.00187402.00370079-.00401969.00387795-.00640945.00052756-.00877953.00107087-.0175945.00159843-.0264055.00052756-.00881496.00106693-.0176181.0016063-.0264449.00004724-.00454331-.00235039-.0074685-.00716142-.00879921-.00893307-.00029921-.0178937-.00061811-.0268622-.00090551-.0089685-.00029134-.0179764-.00060236-.0269961-.00091732z"
              fill="url(#e)" stroke="#4c4c4c" stroke-width=".003"/>
        <path d="m.158118.124866c-.00233858.0118189-.00732283.0212992-.0170276.0266063.00463386.00108661.00925984.00214961.0138819.00321654.0035315-.00272047.00582677-.0064685.00770866-.0111496.00188583-.00468898.00337008-.0103661.00527953-.0169567-.0032874-.00056693-.00656299-.00114173-.00984252-.00171654z"
              fill="url(#i)" stroke="#4c4c4c" stroke-width=".003"/>
        <path d="m.141094.15148c.0058937-.00550787.0101654-.0107402.00521654-.0143071.00568898-.00203937.00985039-.00585827.0118071-.0122953-.00100394.0105787-.00666929.0194528-.0170236.0266024z"
              fill="#ccf" stroke="#4c4c4c" stroke-width=".003"/>
        <path d="m.131563.0567913c.00788583.00027165.0157638.0005315.023622.0007874.00785039.00025591.015689.00051575.0235039.00078347.0048189.00086221.00721654.00379528.00720472.00880709-.00054724.00883465-.00108268.0176654-.00161417.0264843-.0005315.00882677-.00107087.0176457-.00161024.026437"
              fill="none" stroke="#afb0bf" stroke-width=".003"/>
        <path d="m.143126.0571772c.00593307.00020079.0118898.00040945.017811.00059843.00591732.00018504.0118465.00038583.017752.00058661.0048189.00086221.00721654.00379528.00720472.00880709-.00027165.00441339-.00054724.00884646-.00081102.013248-.00026378.00440157-.00053937.00882283-.00079528.0132283"
              fill="none" stroke="#d2d3e2" stroke-width=".003"/>
        <path d="m.162323.0578189c.00545669.0001811.0109173.00035433.0163661.00054331.0048189.00086221.00721654.00379528.00720472.00880709-.00035433.00567323-.00070079.0113228-.00104331.0169764"
              fill="none" stroke="#eeeffe" stroke-width=".003"/>
        <path d="m.148213.051063c.00759449.00029134.0151969.0006063.0227677.00088583.00754724.00027953.015126.00059055.0226614.00087008.0033937.00193701.00522441.00438976.00473622.00757874-.0005748.00869291-.0011378.017374-.00170079.0260551-.00055906.00866929-.00112205.0173583-.00167717.0260236-.00016142.00314567-.00162205.00568898-.00435433.00764961-.00401181.00214173-.00803937.00428346-.0120591.00640945-.00137795.00021654-.00275197.00042913-.00412992.00064567-.00006693.00552362.00618504.010937.016752.0162677-.00605906-.00101575-.0121181-.00057087-.0181378.00129134-.00602756.00186614-.0120394.00518898-.0180236.00994094-.00456693-.0010748-.0091378-.00214567-.0137205-.00323622.00709843-.00598819.00953543-.0109213.00516142-.0142913.00546063-.00259055.010063-.00598031.0116811-.0122953-.00603937-.00114961-.0121024-.00229921-.0181614-.00345276-.00605906-.00115354-.0121378-.00232677-.0182244-.00348425-.0042126-.0021811-.00600394-.00495669-.00539764-.00829528.00038189-.00764173.00078347-.0152913.00116535-.0229409.00038189-.00764567.00078347-.0152992.00116929-.0229685-.00020079-.00391732.00188189-.0063189.00624409-.00720079.00466535-.00144094.00932677-.00288976.0139803-.00432283.00309055-.00037402.00617323-.00074803.00926772-.00112992z"
              fill="none" stroke="#4c4c4c" stroke-width=".006665"/>
    </g>
</svg>