
<svg enable-background="new 0 0 16.237 14.401" height="14.401"
     viewBox="0 0 16.237 14.401" width="16.237"
     xmlns="http://www.w3.org/2000/svg"
     xmlns:xlink="http://www.w3.org/1999/xlink">
    <linearGradient id="a" gradientUnits="userSpaceOnUse" x1="6.975"
                    x2="15.7806" y1="9.861" y2="-.3558">
        <stop offset="0" stop-color="#7e7e9e"/>
        <stop offset="1" stop-color="#ccf"/>
    </linearGradient>
    <linearGradient id="b" gradientUnits="userSpaceOnUse" x1="13.3326"
                    x2="17.775" y1="8.7738" y2=".897">
        <stop offset="0" stop-color="#47474d"/>
        <stop offset="1" stop-color="#74757f"/>
    </linearGradient>
    <linearGradient id="c" gradientUnits="userSpaceOnUse" x1="6.86700000001"
                    x2="15.80220000001" y1="8.601" y2=".7746">
        <stop offset="0" stop-color="#009eff"/>
        <stop offset="1" stop-color="#e0deff"/>
    </linearGradient>
    <linearGradient id="d" gradientUnits="userSpaceOnUse" x1="1.0278"
                    x2="12.7854" y1="15.7002" y2="5.4186">
        <stop offset="0" stop-color="#ccf"/>
        <stop offset="1" stop-color="#8989ab"/>
    </linearGradient>
    <linearGradient id="e" gradientUnits="userSpaceOnUse" x1="8.8038"
                    x2="14.9598" y1="11.9706" y2="11.9706">
        <stop offset="0" stop-color="#4f5057"/>
        <stop offset="1" stop-color="#74757f"/>
    </linearGradient>
    <linearGradient id="f" gradientUnits="userSpaceOnUse" x1="9.2214"
                    x2="-.1674" y1="13.1658" y2="11.157">
        <stop offset="0" stop-color="#4f5057"/>
        <stop offset="1" stop-color="#8a8eba"/>
    </linearGradient>
    <linearGradient id="g" gradientUnits="userSpaceOnUse" x1="2.75580000001"
                    x2="13.6422" y1="11.3082" y2="8.889">
        <stop offset="0"/>
        <stop offset="1" stop-color="#74757f"/>
    </linearGradient>
    <g stroke-width=".003">
        <path d="m6.612 7.685.977-7.46 8.425-.222.22.162-1.277 9.359z"
              fill="url(#a)" stroke="#4c4c4c" stroke-linecap="round"
              stroke-linejoin="round"/>
        <path d="m16.014.003-1.29 9.47.233.051 1.277-9.359z" fill="url(#b)"
              stroke="#4c4c4c" stroke-linecap="round" stroke-linejoin="round"/>
        <path d="m7.81.705 7.865-.141-1.118 8.04-7.626-1.54z" fill="url(#c)"
              stroke="#333" stroke-linecap="round" stroke-linejoin="round"/>
        <path d="m14.876 10.404-6.007 3.994-8.801-3.742-.065-.733 7.019-2.148 7.935 1.749z"
              fill="url(#d)" stroke="#4c4c4c" stroke-linecap="round"
              stroke-linejoin="round"/>
        <path d="m8.792 13.248 6.165-3.724-.081.88-6.007 3.994z" fill="url(#e)"
              stroke="#8989ab" stroke-linecap="round" stroke-linejoin="round"/>
        <path d="m.068 10.656-.065-.733 8.789 3.325.077 1.15z" fill="url(#f)"
              stroke="#8d9ab0" stroke-linecap="round" stroke-linejoin="round"/>
        <path d="m5.8 8.244 7.658 1.899-2.801 1.677-7.83-2.632z" fill="url(#g)"
              stroke="#5d6c8a" stroke-linecap="round" stroke-linejoin="round"/>
        <path d="m3.346 10.613 1.422.521 1.186-.521-1.409-.508z" fill="#666"
              stroke="#7f7f7f"/>
        <path d="m5.664 12.064 3.128 1.184" fill="none" stroke="#ddf"/>
        <path d="m12.139 11.227-3.347 2.021" fill="none" stroke="#9494c7"/>
        <path d="m10.363 12.298-1.571.95" fill="none" stroke="#ddf"/>
        <path d="m6.958 10.303 3.639 1.23" fill="none" stroke="#ccf"/>
        <path d="m12.791 10.23-2.194 1.303" fill="none" stroke="#ccf"/>
    </g>
    <path d="m8.869 14.398 6.007-3.994.081-.88 1.277-9.359-.22-.162-8.425.222-.977 7.46.41.09-7.019 2.148.065.733z"
          fill="none" stroke="#4c4c4c" stroke-linecap="round"
          stroke-linejoin="round" stroke-width=".0067"/>
</svg>