
<svg clip-rule="evenodd" fill-rule="evenodd" height=".24in"
     image-rendering="optimizeQuality" shape-rendering="geometricPrecision"
     text-rendering="geometricPrecision" viewBox="0 0 .24 .24" width=".24in"
     xmlns="http://www.w3.org/2000/svg"
     xmlns:xlink="http://www.w3.org/1999/xlink">
    <linearGradient id="a" gradientUnits="userSpaceOnUse" x1=".082" x2=".08163"
                    y1=".222988" y2=".229484">
        <stop offset="0" stop-color="#1f1a17"/>
        <stop offset="1" stop-color="#999"/>
    </linearGradient>
    <linearGradient id="b" gradientUnits="userSpaceOnUse" x1=".139776"
                    x2=".139957" xlink:href="#a" y1=".228764" y2=".234976"/>
    <linearGradient id="c" gradientUnits="userSpaceOnUse" x1=".101913"
                    x2=".114744" y1=".116496" y2=".116496">
        <stop offset="0" stop-color="#fc0"/>
        <stop offset=".458824" stop-color="#900"/>
        <stop offset="1" stop-color="#f60"/>
    </linearGradient>
    <linearGradient id="d" gradientUnits="userSpaceOnUse" x1=".10385"
                    x2=".22611" xlink:href="#a" y1=".169843" y2=".062866"/>
    <linearGradient id="e" gradientUnits="userSpaceOnUse" x1=".03563"
                    x2=".125457" xlink:href="#a" y1=".19726" y2=".111709"/>
    <linearGradient id="f" gradientUnits="userSpaceOnUse" x1=".069445"
                    x2=".201555" xlink:href="#a" y1=".180126" y2=".054307"/>
    <linearGradient id="g" gradientUnits="userSpaceOnUse" x1=".080358"
                    x2=".096571" xlink:href="#a" y1=".073709" y2=".005606"/>
    <linearGradient id="h" gradientUnits="userSpaceOnUse" x1=".079878"
                    x2=".084161" xlink:href="#a" y1=".086622" y2=".068638"/>
    <linearGradient id="i" gradientUnits="userSpaceOnUse" x1=".061126"
                    x2=".078661" xlink:href="#a" y1=".081945" y2=".008291"/>
    <linearGradient id="j" gradientUnits="userSpaceOnUse" x1=".132618"
                    x2=".081193" xlink:href="#a" y1=".120512" y2=".112795"/>
    <g stroke-width=".003">
        <path d="m.0635079.082437.0340709.0002874-.00025197.143811-.0301024-.00562598c-.00244488-.00112598-.00368898-.00298425-.00371654-.00556299v-.132909z"
              fill="url(#e)" stroke="#4c4c4c"/>
        <path d="m.116173.00524803.00031102.222807.0327638.00112992c.0021811-.00034646.00412992-.00108268.00557874-.00268504l-.00140551-.220287-.037248-.00096457z"
              fill="url(#f)" stroke="#191919"/>
        <path d="m.17402.018252-.0205984-.0120394.00140551.220287.0194685-.0303504c.00130315-.00202362.00194488-.00452756.00193307-.0075l.00030709-.165693c-.00031102-.00201575-.00114961-.00358661-.00251575-.00470472z"
              fill="url(#d)" stroke="#191919"/>
        <path d="m.0973268.226535.0108152-.000566.008342.002086-.000311-.22280697-.00835.00225197-.0080277-.00096457.0007357.07081887-.0029523.0053701z"
              fill="url(#j)" stroke="#4c4c4c"/>
        <path d="m.102685.013937.0115.00002756.00055906.203819c-.0043189.00127559-.0086063.00122835-.0128307.00011417l.00077165-.203961z"
              fill="url(#c)" stroke="#4c4c4c"/>
        <path d="m.0635079.082437.0129409-.0096575.0240352-.000248.000047.0048228-.0029523.0053701z"
              fill="url(#h)" stroke="#4c4c4c"/>
        <path d="m.0766063.00821654.023189-.00168111.0006887.06599607-.0240352.000248z"
              fill="url(#g)" stroke="#4c4c4c"/>
        <path d="m.0635079.0121654v.0702717l.0129409-.00965748.00015748-.064563-.00859449-.00026772c-.00333071-.00014567-.00482677.00125984-.00450394.00421654z"
              fill="url(#i)" stroke="#4c4c4c"/>
        <path d="m.0785827.223165.00644488.00135039.00002362.00437008c-.00216535.00042126-.0042126.00038189-.00612992-.00011417z"
              fill="url(#a)" stroke="#191919"/>
        <path d="m.136335.228862.00032284.00534252c.00214567.00053937.00430709.00067323.00649213-.00005118l.00025197-.0049685-.00706693-.00032284z"
              fill="url(#b)" stroke="#191919"/>
        <path d="m.068126.0824764.0294527.000248-.0001811.1044256" fill="none"
              stroke="#666"/>
        <path d="m.0736102.0825236.0239685.0002008-.0001417.0829956" fill="none"
              stroke="#7f7f7f"/>
        <path d="m.0805433.0825827.0170354.0001417-.0001102.0635946" fill="none"
              stroke="#999"/>
        <path d="m.0855945.082626.0119842.0000984-.0000905.0537476" fill="none"
              stroke="#b2b2b2"/>
        <path d="m.153421.006213.001264.198137" fill="none" stroke="#4c4c4c"/>
        <path d="m.153421.006213.001028.161649" fill="none" stroke="#666"/>
        <path d="m.153429.007913.000799.12491" fill="none" stroke="#7f7f7f"/>
        <path d="m.153437.008858.000614.096425" fill="none" stroke="#999"/>
        <path d="m.153453.011504.000421.06598" fill="none" stroke="#b2b2b2"/>
        <path d="m.153472.014906.000197.030444" fill="none" stroke="#ccc"/>
        <path d="m.100055.007016.002177.12661" fill="none" stroke="#7f7f7f"/>
        <path d="m.100063.007961.001669.096429" fill="none" stroke="#999"/>
        <path d="m.100079.010606.001173.065985" fill="none" stroke="#b2b2b2"/>
        <path d="m.100098.014008.000591.030909" fill="none" stroke="#ccc"/>
    </g>
    <path d="m.176228.18865.00030709-.165693c-.00023622-.0017874-.00100787-.00337402-.00251575-.00470472l-.0205984-.0120394-.037248-.00096457-.00835039.00225197-.00802756-.00096457-.023189.0016811-.00859449-.00026772c-.00414567.00017717-.00437008.00130315-.00450394.00421654v.203181c.00031496.00279921.00135433.00480315.00371654.00556299l.0113583.00225591.00033858.0056063c.00211024.00080315.00416142.00061811.00612992.00011417l-.00002362-.00437008.0122992.00201969.010815-.00056693.00834252.00208661.0198504.00080709.00032284.00534252c.00216535.00075197.00433465.00073228.00649213-.00005118l.00025197-.0049685h.00584646c.0020315-.00001181.00390945-.00079134.00557874-.00268504l.0194685-.0303504c.00129134-.0024252.00201969-.00490945.00193307-.0075z"
          fill="none" stroke="#4c4c4c" stroke-linecap="round"
          stroke-linejoin="round" stroke-width=".006665"/>
</svg>