<?xml version="1.0" encoding="UTF-8"?>
<!DOCTYPE svg PUBLIC "-//W3C//DTD SVG 1.1//EN" "http://www.w3.org/Graphics/SVG/1.1/DTD/svg11.dtd">
<!-- Creator: CorelDRAW -->
<svg xmlns="http://www.w3.org/2000/svg" xml:space="preserve" width="0.24in" height="0.24in" style="shape-rendering:geometricPrecision; text-rendering:geometricPrecision; image-rendering:optimizeQuality; fill-rule:evenodd; clip-rule:evenodd"
viewBox="0 0 0.24 0.24">
 <defs>
  <style type="text/css">
   <![CDATA[
    .str0 {stroke:#1F1A17;stroke-width:0.003;stroke-linecap:round;stroke-linejoin:round}
    .str2 {stroke:#656B6F;stroke-width:0.003;stroke-linecap:round;stroke-linejoin:round}
    .str4 {stroke:#8E939B;stroke-width:0.003}
    .str1 {stroke:#9D9C37;stroke-width:0.003;stroke-linecap:round;stroke-linejoin:round}
    .str5 {stroke:#9EA5AE;stroke-width:0.003}
    .str6 {stroke:#B3BCC8;stroke-width:0.003}
    .str7 {stroke:#CDD4DE;stroke-width:0.003}
    .str3 {stroke:#CECD29;stroke-width:0.003;stroke-linecap:round;stroke-linejoin:round}
    .str9 {stroke:#4D5356;stroke-width:0.00666535;stroke-linecap:round;stroke-linejoin:round}
    .str8 {stroke:#BEC8D5;stroke-width:0.00666535;stroke-linecap:round;stroke-linejoin:round}
    .fil4 {fill:none}
    .fil1 {fill:#F0EB51}
    .fil3 {fill:#F8F5C1}
    .fil5 {fill:#B2B4B7;fill-rule:nonzero}
    .fil2 {fill:url(#id0)}
    .fil0 {fill:url(#id1)}
   ]]>
  </style>
  <linearGradient id="id0" gradientUnits="userSpaceOnUse" x1="0.104197" y1="0.0215118" x2="0.128732" y2="0.193236">
   <stop offset="0" style="stop-color:#474C4F"/>
   <stop offset="1" style="stop-color:#B9C2CF"/>
  </linearGradient>
  <linearGradient id="id1" gradientUnits="userSpaceOnUse" x1="0.0457677" y1="0.164343" x2="0.187957" y2="0.0906654">
   <stop offset="0" style="stop-color:#44494D"/>
   <stop offset="0.54902" style="stop-color:#7E858E"/>
   <stop offset="1" style="stop-color:#B9C2CF"/>
  </linearGradient>
 </defs>
 <g id="Layer_x0020_1">
  <metadata id="CorelCorpID_0Corel-Layer"/>
  <path class="fil0 str0" d="M0.0207717 0.142953c7.87402e-006,0.00504331 0.000712598,0.0106811 0.0015748,0.0157559 0.000862205,0.0050748 0.00197638,0.0091063 0.00454331,0.0111929 0.0228268,0.00740157 0.0428465,0.013937 0.0658386,0.0213976 0.0231181,0.0075 0.0463504,0.0150433 0.0697008,0.0225866 0.00747244,-0.000385827 0.014185,-0.00331102 0.0191378,-0.0125315 0.00599213,-0.027122 0.0116496,-0.052622 0.0169567,-0.0766732 0.00500787,-0.0226772 0.00980315,-0.0441457 0.0143031,-0.0644843 5.90551e-005,-0.00645669 0.00011811,-0.0128228 0.000188976,-0.0190748 -0.0043937,0.0192717 -0.00904331,0.0395906 -0.0139213,0.0609764 -0.00516535,0.0226299 -0.0106614,0.0466496 -0.0164724,0.0720787 -0.00355118,0.0107559 -0.0100394,0.015063 -0.0199528,0.0139094 -0.0230079,-0.0065748 -0.0459173,-0.013126 -0.0687795,-0.0196496 -0.0227874,-0.00650394 -0.0455315,-0.0130236 -0.0682402,-0.0195157 -0.00329921,-0.00111811 -0.00493701,-0.00311417 -0.00487795,-0.0059685z"/>
  <path class="fil1 str1" d="M0.212091 0.0463071c0.00240551,0.000251969 0.00486614,0.000562992 0.00735039,0.000814961 -0.000649606,0.00304331 -0.0012874,0.00610236 -0.00192913,0.00920472 -0.00251181,-0.000299213 -0.00505906,-0.000598425 -0.00751181,-0.000897638 0.000688976,-0.0030748 0.0013937,-0.00611024 0.00209055,-0.00912205z"/>
  <path class="fil1 str1" d="M0.192988 0.12913c0.00301575,0.000625984 0.00609843,0.00124409 0.00914567,0.00190157 -0.000988189,0.00488976 -0.0020315,0.00987402 -0.00309055,0.0150157 -0.0031811,-0.000708661 -0.00633071,-0.00146457 -0.00943701,-0.00214567 0.00114961,-0.00502756 0.00230315,-0.00996063 0.00338189,-0.0147717z"/>
  <path class="fil1 str1" d="M0.197701 0.10876c0.00285039,0.00053937 0.00578346,0.0010748 0.00870079,0.0016063 -0.000909449,0.00440157 -0.00183071,0.00888189 -0.0027874,0.0134528 -0.003,-0.000590551 -0.006,-0.00120079 -0.00899213,-0.00179921 0.00105906,-0.00451575 0.00206693,-0.00893701 0.00307874,-0.0132598z"/>
  <path class="fil1 str1" d="M0.201752 0.0911299c0.00273228,0.000448819 0.00552756,0.000913386 0.00832677,0.00137402 -0.000822835,0.00399213 -0.00165748,0.00802362 -0.0025,0.0121535 -0.00290157,-0.000503937 -0.00575591,-0.00101181 -0.00858661,-0.00151575 0.00092126,-0.00407087 0.00185433,-0.00807874 0.00275984,-0.0120118z"/>
  <path class="fil1 str1" d="M0.205661 0.074189c0.00262598,0.000374016 0.0052874,0.00076378 0.00795669,0.00112992 -0.000744094,0.0036063 -0.0015,0.00726772 -0.00227953,0.0110079 -0.00274409,-0.000429134 -0.00548031,-0.00084252 -0.00819685,-0.00127953 0.000858268,-0.00367717 0.00170472,-0.00729921 0.00251969,-0.0108583z"/>
  <path class="fil1 str1" d="M0.208988 0.0597205c0.00252362,0.000334646 0.00508268,0.000645669 0.00764567,0.000976378 -0.000677165,0.00329134 -0.00137795,0.00662598 -0.00208661,0.0100551 -0.00263386,-0.000354331 -0.00526378,-0.000712598 -0.00785433,-0.00107087 0.000795276,-0.00338583 0.00155118,-0.00667323 0.00229528,-0.00996063z"/>
  <path class="fil1 str1" d="M0.187823 0.15174c0.00312992,0.000748031 0.00635039,0.00150787 0.00957874,0.0022874 -0.00111811,0.00543307 -0.00227953,0.0110827 -0.00348031,0.016815 -0.00330315,-0.000870079 -0.00664567,-0.00170472 -0.00991339,-0.00252362 0.00129921,-0.00569685 0.00255906,-0.0112165 0.00381496,-0.0165787z"/>
  <path class="fil1 str1" d="M0.0839252 0.0322835c0.00178346,0.000200787 0.00355512,0.00038189 0.00534252,0.000586614 -0.00161811,0.0024685 -0.00324803,0.00493701 -0.00490945,0.00747244 -0.00183465,-0.00023622 -0.00365354,-0.000429134 -0.00541732,-0.000645669 0.00169291,-0.0025 0.00335827,-0.00498031 0.00498425,-0.00741339z"/>
  <path class="fil1 str1" d="M0.0399882 0.097374c0.00200787,0.000413386 0.00405118,0.00084252 0.00611417,0.00126772 -0.00241732,0.00365354 -0.00486614,0.00738976 -0.00734646,0.0112126 -0.00212205,-0.000456693 -0.00423622,-0.000937008 -0.00627559,-0.00139764 0.00253543,-0.00377165 0.00503937,-0.00748031 0.00750787,-0.0110827z"/>
  <path class="fil1 str1" d="M0.0504843 0.0818071c0.00194882,0.000362205 0.00395276,0.000720472 0.00596457,0.00106299 -0.00222047,0.00337008 -0.0044685,0.00680315 -0.00675591,0.0102835 -0.00206299,-0.000374016 -0.00407874,-0.000787402 -0.00605512,-0.00120079 0.0023189,-0.00344882 0.00461417,-0.00683071 0.00684646,-0.0101457z"/>
  <path class="fil1 str1" d="M0.059752 0.0681024c0.0018937,0.000314961 0.00380315,0.000625984 0.00575591,0.000937008 -0.00204331,0.00309055 -0.00408661,0.00626378 -0.00618504,0.00946457 -0.00198425,-0.000366142 -0.00394488,-0.000708661 -0.00590945,-0.00103543 0.00213386,-0.00318504 0.00426772,-0.00630709 0.00633858,-0.00936614z"/>
  <path class="fil1 str1" d="M0.0687913 0.0547441c0.00185433,0.000244094 0.00371654,0.000511811 0.0056063,0.000771654 -0.00186614,0.00285433 -0.00377559,0.00575197 -0.00570472,0.00869291 -0.0019252,-0.000295276 -0.00385039,-0.000594488 -0.00572047,-0.000870079 0.00198031,-0.00292913 0.00389764,-0.00577165 0.0058189,-0.00859449z"/>
  <path class="fil1 str1" d="M0.0765827 0.0431693c0.00180315,0.000212598 0.00362598,0.000444882 0.00546457,0.000677165 -0.00172441,0.00266142 -0.00349606,0.00532283 -0.0052874,0.00807087 -0.00187008,-0.00026378 -0.00372441,-0.000511811 -0.00555512,-0.000779528 0.00182283,-0.00269291 0.0036063,-0.00534252 0.00537795,-0.0079685z"/>
  <path class="fil1 str1" d="M0.0285354 0.11426c0.00208268,0.000476378 0.00420472,0.000992126 0.00632677,0.00150394 -0.00265748,0.004 -0.00533858,0.00810236 -0.00809449,0.012315 -0.0021811,-0.000562992 -0.00433071,-0.00112598 -0.00642913,-0.00165748 0.00279134,-0.00414173 0.00552362,-0.00819291 0.00819685,-0.0121614z"/>
  <path class="fil2 str2" d="M0.103819 0.0243937c0.00751969,0.00073622 0.0152244,0.00147244 0.0230551,0.0022126 0.00782283,0.000740157 0.0157992,0.00152756 0.0239724,0.00230315 0.00848031,0.000807087 0.0171693,0.00164173 0.0260354,0.00247244 0.00883465,0.000826772 0.017878,0.0017126 0.0271142,0.00259055 0.00591339,0.000562992 0.00993307,0.00473228 0.00885039,0.00942913 -0.00183858,0.00796063 -0.00377953,0.0163583 -0.00582283,0.0251929 -0.00209055,0.00905512 -0.00430315,0.0186654 -0.00663386,0.0287559 -0.00255512,0.0110827 -0.00530709,0.0228701 -0.00820079,0.0354567 -0.00298031,0.0129764 -0.00617323,0.0268189 -0.00958268,0.0416339 -0.00228346,0.00992913 -0.011378,0.0163583 -0.0199567,0.0139134 -0.0132677,-0.00377953 -0.0261142,-0.00747638 -0.038563,-0.011 -0.0124213,-0.00351969 -0.0244724,-0.00699606 -0.036126,-0.0103189 -0.0110079,-0.0031378 -0.0217047,-0.00622441 -0.0320945,-0.00916929 -0.010374,-0.00294094 -0.0204921,-0.00582677 -0.0302953,-0.00862205 -0.00586614,-0.00166929 -0.00656693,-0.0091811 -0.00179528,-0.0164528 0.00722441,-0.0110118 0.0141063,-0.0214449 0.0205748,-0.0313031 0.00630315,-0.00961024 0.0123425,-0.018748 0.0180394,-0.0274331 0.00526378,-0.00802362 0.0103031,-0.0156693 0.0150748,-0.0229488 0.00468504,-0.0071378 0.00920866,-0.0139843 0.0135039,-0.0205276 0.00254724,-0.00388583 0.00827165,-0.00662992 0.0128504,-0.00618504z"/>
  <path class="fil3 str3" d="M0.193921 0.170843c-0.000334646,0.00565354 -0.000700787,0.0113465 -0.00104724,0.0171339 0.00104724,-0.00519291 0.00205906,-0.0102913 0.00310236,-0.0153504 0.000472441,-0.00628346 0.000944882,-0.0124882 0.0014252,-0.0185984 -0.00114567,0.00555118 -0.00232283,0.0111417 -0.00348031,0.016815z"/>
  <path class="fil3 str3" d="M0.199043 0.146047c0.00103543,-0.00504331 0.00207874,-0.0100709 0.00309055,-0.0150157 -0.000614173,0.00673622 -0.00125591,0.0135827 -0.00188976,0.0205118 -0.000586614,0.0029252 -0.00117717,0.00585039 -0.00177165,0.00879528 0.000192913,-0.00482677 0.000358268,-0.00955906 0.000570866,-0.0142913z"/>
  <path class="fil3 str3" d="M0.203614 0.123819c0.000933071,-0.00451575 0.00185433,-0.00899213 0.0027874,-0.0134528 -0.000488189,0.00594488 -0.000984252,0.012 -0.00148819,0.0180984 -0.00084252,0.00407874 -0.00165354,0.0081811 -0.00248819,0.0123228 0.000385827,-0.00573622 0.000791339,-0.0113819 0.00118898,-0.0169685z"/>
  <path class="fil3 str3" d="M0.207579 0.104657c0.000822835,-0.00409449 0.00165748,-0.00812598 0.0025,-0.0121535 -0.000492126,0.00585827 -0.000996063,0.0117953 -0.0015,0.017811 -0.000645669,0.00315748 -0.00127559,0.0063189 -0.00190945,0.0095 0.000299213,-0.00510236 0.000598425,-0.0101693 0.000909449,-0.0151575z"/>
  <path class="fil3 str3" d="M0.213618 0.0753189c-0.000929134,0.00784646 -0.00185433,0.0158307 -0.00280315,0.0239646 0.000177165,-0.00435433 0.000330709,-0.00867323 0.000523622,-0.0129567 0.000759843,-0.00370079 0.00151575,-0.0073622 0.00227953,-0.0110079z"/>
  <path class="fil3 str3" d="M0.214547 0.070752c0.000688976,-0.00337008 0.00138976,-0.00672441 0.00208661,-0.0100551 -0.000877953,0.00745669 -0.00173228,0.0150827 -0.00262992,0.0228661 0.000177165,-0.00429528 0.000350394,-0.00857087 0.000543307,-0.012811z"/>
  <path class="fil4 str3" d="M0.217512 0.0563268c0.000641732,-0.00308268 0.00127953,-0.00614567 0.00192913,-0.00920472 -0.000535433,0.00570472 -0.00105906,0.0114882 -0.0015748,0.0173504"/>
  <path class="fil4 str4" d="M0.0459843 0.15487c0.0184567,0.00529134 0.0369921,0.0105787 0.0555079,0.015878 0.0185669,0.00531102 0.037189,0.0106417 0.0558661,0.0159685 0.0118346,0.00467717 0.0202874,0.00185039 0.025252,-0.0123898 0.00375984,-0.0162795 0.00734646,-0.0319606 0.010811,-0.0470551 0.00334646,-0.0145669 0.00659055,-0.0286378 0.00972047,-0.0422244"/>
  <path class="fil4 str5" d="M0.0627835 0.159657c0.015685,0.00448425 0.0314016,0.009 0.0471575,0.0135079 0.0157441,0.00450394 0.0315748,0.00904331 0.0474173,0.0135512 0.0118346,0.00467717 0.0202874,0.00185039 0.025252,-0.0123898 0.00292126,-0.0127244 0.00578346,-0.0251024 0.0085315,-0.037122 0.00265748,-0.0116339 0.00530315,-0.0230118 0.00785039,-0.034063"/>
  <path class="fil4 str6" d="M0.0821732 0.165189c0.0124724,0.00356693 0.0249685,0.00714961 0.0374843,0.0107323 0.0125433,0.00359055 0.0251102,0.00720472 0.0377008,0.0107953 0.0118346,0.00467717 0.0202874,0.00185039 0.025252,-0.0123898 0.00401575,-0.0175866 0.00785039,-0.0344528 0.0115591,-0.0506929"/>
  <path class="fil4 str7" d="M0.0968819 0.169406c0.0100551,0.00289764 0.0201102,0.00580315 0.030185,0.00866535 0.0100748,0.00285827 0.0201732,0.00577953 0.0302913,0.00864567 0.00664567,0.00264173 0.012252,0.00288976 0.0167638,3.93701e-005 0.00350787,-0.0022126 0.00632677,-0.00626378 0.00848819,-0.0124291 0.00280709,-0.012126 0.00551181,-0.0239134 0.00814173,-0.0353976"/>
  <path class="fil4 str8" d="M0.174232 0.204024c-4.33071e-005,-0.00434252 -7.87402e-005,-0.00866929 -9.44882e-005,-0.0129764"/>
  <path class="fil5" d="M0.0727677 0.0729961m0.0191102 -0.0262205c0.00370472,0.000519685 0.00743701,0.00104724 0.0112047,0.00157874 -0.000740157,0.0026811 -0.00149213,0.00540945 -0.00225591,0.00817717 -0.000771654,0.00281102 -0.00155906,0.00568898 -0.00236614,0.00861024 0.0023189,-0.00268504 0.00462598,-0.00532283 0.00687795,-0.0079252 0.00222047,-0.00256693 0.00442126,-0.00511024 0.0066063,-0.00761417 0.00387008,0.000543307 0.00776378,0.00109449 0.0117087,0.00165354 -0.00222441,0.00440157 -0.00451181,0.00890157 -0.00685433,0.0135276 -0.00240945,0.00474803 -0.00487402,0.00964567 -0.00740945,0.0146772 -0.00262992,-0.000468504 -0.00524409,-0.000925197 -0.00783858,-0.00138583 0.00201181,-0.00379134 0.00398819,-0.00751181 0.00591732,-0.0111535 0.00188976,-0.00356299 0.00374016,-0.00705118 0.00555906,-0.0104803 -0.00279134,0.00327953 -0.00562205,0.00661024 -0.00849213,0.0100039 -0.00292126,0.00346063 -0.00590945,0.00698425 -0.00894882,0.0105787 -0.00231102,-0.000409449 -0.00458661,-0.000807087 -0.00686614,-0.00120866 0.00115748,-0.00388583 0.0022874,-0.00767717 0.00338976,-0.0113819 0.00107874,-0.00362205 0.00213386,-0.00716142 0.00316535,-0.0106299 -0.00194882,0.00332677 -0.00394094,0.0067126 -0.00596457,0.0101732 -0.00207087,0.00353543 -0.00419291,0.0071378 -0.00635039,0.0108228 -0.0024685,-0.000440945 -0.00492913,-0.000870079 -0.0073622,-0.00130315 0.00288976,-0.00475197 0.0057126,-0.00938189 0.00845669,-0.0138819 0.00266929,-0.00437402 0.00527953,-0.00865748 0.00782283,-0.0128386zm0.0182874 0.0328189m0.0172126 -0.027815c0.00824016,0.00116142 0.0166457,0.00235039 0.0252008,0.00355512 -0.000807087,0.00195669 -0.00162205,0.00392913 -0.00244882,0.00592126 -0.00545276,-0.000807087 -0.0108465,-0.0016063 -0.0161732,-0.00239764 -0.000669291,0.00146063 -0.0013622,0.00293307 -0.00204724,0.00442126 0.00498425,0.00076378 0.0100354,0.00154331 0.0151535,0.00232283 -0.000826772,0.00197638 -0.00165748,0.00397244 -0.00249606,0.00598425 -0.00518898,-0.000834646 -0.010311,-0.00166142 -0.0153661,-0.00247638 -0.000897638,0.00192913 -0.00180315,0.00387402 -0.00271654,0.00584646 0.0056811,0.000952756 0.0114646,0.0019252 0.0173228,0.00290551 -0.000968504,0.00235433 -0.00196063,0.00474409 -0.00295276,0.00716535 -0.00937008,-0.00165748 -0.0185354,-0.00327953 -0.0274961,-0.0048622 0.00250394,-0.00506693 0.00492913,-0.00999213 0.00729134,-0.0147717 0.00229528,-0.00465354 0.00454331,-0.00918898 0.00672835,-0.0136142zm0.0132835 0.0332126m0.0153268 -0.0291732c0.00429528,0.000602362 0.00862992,0.0012126 0.0130157,0.00183071 -0.000181102,0.00298425 -0.000350394,0.00601575 -0.00053937,0.0091063 -0.000188976,0.0031378 -0.000362205,0.00635433 -0.000551181,0.00962992 0.00196457,-0.00298819 0.00390551,-0.00593307 0.00581496,-0.00883465 0.00187795,-0.00285433 0.00374016,-0.00566535 0.00556693,-0.00845276 0.00450394,0.000637795 0.00907087,0.00127953 0.0136693,0.00192913 -0.00139764,0.00490157 -0.00284646,0.00993701 -0.00432677,0.0151142 -0.00152756,0.00533071 -0.00309055,0.0108268 -0.0047126,0.0165 -0.00312205,-0.000559055 -0.00620079,-0.00109843 -0.00926772,-0.00164567 0.00133465,-0.00427953 0.00264567,-0.00845669 0.0039252,-0.0125433 0.00124803,-0.00398031 0.00246063,-0.00788189 0.00366535,-0.0117047 -0.00233465,0.00364567 -0.00470866,0.00736614 -0.00711024,0.0111535 -0.00245669,0.00387008 -0.00499213,0.00781496 -0.00755118,0.0118504 -0.00272835,-0.000488189 -0.00542126,-0.000968504 -0.0081063,-0.00143701 0.00034252,-0.00437402 0.000700787,-0.00862992 0.00104724,-0.0127913 0.000338583,-0.00404331 0.000661417,-0.00799606 0.000988189,-0.0118583 -0.00140551,0.00369685 -0.00283071,0.00747638 -0.00428346,0.0113307 -0.00148425,0.00394882 -0.00300787,0.00798425 -0.00456299,0.0121142 -0.00290945,-0.000511811 -0.00579528,-0.00102362 -0.00865748,-0.00152756 0.00212992,-0.00532283 0.00422047,-0.0104882 0.00624016,-0.0155079 0.00196063,-0.00487795 0.00387795,-0.00962598 0.00573622,-0.0142559zm-0.106929 0.0554961m0.00625197 -0.0085315c0.00195669,-0.00318504 0.00384252,-0.00527953 0.0056378,-0.00631102 0.00177953,-0.00102362 0.00374409,-0.00132677 0.0058622,-0.000885827 0.00101969,0.000208661 0.00179134,0.000519685 0.0022874,0.000929134 0.000496063,0.000405512 0.000830709,0.000885827 0.000988189,0.00140945 0.00015748,0.000531496 0.000224409,0.00107087 0.000181102,0.0016063 -4.33071e-005,0.000551181 -0.000188976,0.00116535 -0.00042126,0.00185827 -0.000444882,0.00133071 -0.00107874,0.00270472 -0.00188189,0.00409449 -0.00182677,0.00317323 -0.0036811,0.00541339 -0.00551575,0.00668898 -0.00185433,0.00129134 -0.0039685,0.00165748 -0.00633071,0.00111024 -0.00132283,-0.00030315 -0.00223622,-0.000787402 -0.00276378,-0.00144882 -0.000531496,-0.000665354 -0.000751969,-0.00151575 -0.000716535,-0.0025315 2.75591e-005,-0.000732283 0.000287402,-0.00166929 0.000755906,-0.00281496 0.000468504,-0.00114567 0.00111024,-0.00238583 0.00191732,-0.00370472zm0.00419685 0.000937008c-0.00131496,0.0021811 -0.00204331,0.00373622 -0.0021811,0.00462205 -0.000137795,0.000901575 0.000122047,0.00142913 0.000791339,0.00157874 0.000440945,9.84252e-005 0.000925197,7.87402e-006 0.00145276,-0.000267717 0.000531496,-0.000275591 0.00110236,-0.000775591 0.00168504,-0.00148031 0.000598425,-0.000720472 0.00136614,-0.0018622 0.0022874,-0.0034252 0.00134252,-0.00227165 0.00205906,-0.00382677 0.00216535,-0.00466535 0.000106299,-0.000834646 -0.000173228,-0.00133465 -0.000866142,-0.00147638 -0.000700787,-0.000145669 -0.00144488,0.000145669 -0.0022126,0.000846457 -0.000783465,0.000712598 -0.00183071,0.00212598 -0.00312205,0.00426772zm0.00306299 0.0107126m0.00768898 -0.0126417c0.0017126,0.000362205 0.00342913,0.000732283 0.00516535,0.00109843 -4.33071e-005,0.0012874 -9.05512e-005,0.00258661 -0.000122047,0.00389764 0.00135827,-0.00101969 0.00270866,-0.00203543 0.00406693,-0.00305512 0.00163386,0.000346457 0.0032874,0.000700787 0.00492913,0.00104724 -0.00242913,0.00172835 -0.00485433,0.00347244 -0.00729921,0.00522441 0.000185039,0.00259449 0.000385827,0.00522047 0.000594488,0.00789764 -0.00179921,-0.000413386 -0.0035748,-0.000822835 -0.00533465,-0.00123228 5.11811e-005,-0.00159449 0.000114173,-0.0031811 0.000177165,-0.00474016 -0.00161811,0.00120472 -0.00325984,0.0024252 -0.00491339,0.00364961 -0.00162598,-0.000377953 -0.00322835,-0.000748031 -0.00483071,-0.00111811 0.00270866,-0.00196063 0.00539764,-0.00390551 0.0080748,-0.00583071 -0.000188976,-0.00231496 -0.000350394,-0.00458661 -0.000507874,-0.00683858zm0.00631496 0.015874m0.00585827 -0.00896457c0.00177953,-0.00334646 0.00357874,-0.00554724 0.00538583,-0.00662598 0.00178346,-0.00106693 0.00381496,-0.0013622 0.00608268,-0.000901575 0.00109843,0.000224409 0.0019252,0.000555118 0.00247638,0.000980315 0.000559055,0.000433071 0.000964567,0.000933071 0.00117717,0.00148425 0.000216535,0.000559055 0.000338583,0.00112205 0.000338583,0.00169291 3.93701e-006,0.000574803 -0.000110236,0.00122441 -0.000295276,0.00194488 -0.000362205,0.00140551 -0.000897638,0.00284646 -0.00162205,0.0043189 -0.00164567,0.00332677 -0.00341339,0.00568504 -0.00523228,0.00702756 -0.00183858,0.00135433 -0.00402756,0.00172835 -0.00657874,0.00114567 -0.00140551,-0.000318898 -0.0024252,-0.000838583 -0.00302756,-0.00153937 -0.000598425,-0.000692913 -0.000917323,-0.00159055 -0.00096063,-0.00267323 -3.14961e-005,-0.000759843 0.000149606,-0.00175984 0.000547244,-0.00296457 0.000397638,-0.00120866 0.000972441,-0.00251181 0.00170866,-0.00388976zm0.0045 0.001c-0.00119685,0.00229921 -0.00183858,0.00392913 -0.00190945,0.00486614 -7.08661e-005,0.000944882 0.000259843,0.0015 0.000964567,0.00166142 0.000464567,0.000102362 0.000984252,0 0.00150394,-0.000279528 0.000547244,-0.000295276 0.00109449,-0.000807087 0.00166142,-0.00155118 0.000574803,-0.000755906 0.00126772,-0.00196457 0.00210236,-0.00360236 0.00121654,-0.00238976 0.00184252,-0.00401969 0.00188189,-0.00490157 3.54331e-005,-0.000877953 -0.000299213,-0.00140551 -0.00105118,-0.00155906 -0.000740157,-0.000153543 -0.00148819,0.000145669 -0.00224016,0.00088189 -0.00076378,0.000748031 -0.00174016,0.00224016 -0.00291339,0.00448425zm0.0041378 0.0113071m0.00564173 -0.00918898c0.00169291,-0.00342913 0.00343307,-0.00569685 0.00523228,-0.00679921 0.00177953,-0.00109055 0.00385433,-0.00140157 0.00620079,-0.000917323 0.00112598,0.000232283 0.00200394,0.000574803 0.00259843,0.00101575 0.000594488,0.000444882 0.00101575,0.000956693 0.00125591,0.00152362 0.000240157,0.000570866 0.000393701,0.00116535 0.000409449,0.00173622 1.9685e-005,0.000594488 -4.33071e-005,0.00125984 -0.000200787,0.00200394 -0.00030315,0.00144488 -0.000799213,0.0029252 -0.00148031,0.00442913 -0.00154331,0.00341339 -0.00326378,0.00583465 -0.00507087,0.00720472 -0.00183858,0.0013937 -0.00406693,0.00177165 -0.00670079,0.00116535 -0.00145669,-0.000334646 -0.00252362,-0.000866142 -0.00317323,-0.00158661 -0.000645669,-0.000708661 -0.00102362,-0.00164173 -0.00110236,-0.00274409 -5.51181e-005,-0.000787402 8.26772e-005,-0.00181102 0.000437008,-0.00305118 0.000354331,-0.00123622 0.000901575,-0.00257087 0.00159449,-0.00398031zm0.00465748 0.0010315c-0.00113386,0.00235039 -0.00172047,0.0040315 -0.00175197,0.00499213 -3.54331e-005,0.000964567 0.000318898,0.00154331 0.00103937,0.00170472 0.0005,0.000114173 0.00100787,1.1811e-005 0.00155118,-0.000283465 0.000535433,-0.000295276 0.0010748,-0.000838583 0.00161811,-0.00159449 0.000559055,-0.000775591 0.00123228,-0.00200394 0.00202756,-0.00369291 0.00114961,-0.00244882 0.00170472,-0.00412205 0.0017126,-0.0050315 3.93701e-006,-0.000901575 -0.000366142,-0.00143307 -0.0011378,-0.00159055 -0.000779528,-0.000161417 -0.00153543,0.000137795 -0.0022874,0.000897638 -0.000748031,0.000759843 -0.00166142,0.00229134 -0.00277165,0.00459843zm0.0047126 0.011622m0.0053937 -0.00943701c0.00159055,-0.00351969 0.00329528,-0.00583465 0.00509449,-0.00696457 0.00177953,-0.00112205 0.00388583,-0.00142913 0.00632283,-0.000929134 0.00116142,0.00023622 0.00206693,0.000586614 0.00269685,0.00104331 0.000625984,0.000452756 0.00108268,0.000988189 0.0013622,0.00157087 0.000283465,0.000586614 0.000437008,0.00119291 0.000492126,0.00179134 5.90551e-005,0.000606299 1.1811e-005,0.00129134 -0.00011811,0.00205118 -0.000251969,0.00148031 -0.000700787,0.00299606 -0.00133465,0.00453937 -0.00144094,0.00350787 -0.00308661,0.006 -0.00488189,0.00740157 -0.00183071,0.00142913 -0.00411024,0.00181102 -0.00683465,0.0011811 -0.00151575,-0.000346457 -0.00262205,-0.000897638 -0.0033189,-0.0016378 -0.000700787,-0.000740157 -0.00109843,-0.00169291 -0.00124409,-0.00282283 -0.000102362,-0.000811024 3.93701e-006,-0.0018622 0.000314961,-0.00312598 0.000311024,-0.00127559 0.000791339,-0.00264961 0.00144882,-0.00409843zm0.00483071 0.00107087c-0.00106299,0.00241339 -0.00159449,0.00413386 -0.00159449,0.00511417 3.93701e-006,0.00101181 0.000393701,0.00160236 0.00116535,0.00177165 0.000511811,0.000114173 0.00102756,7.87402e-006 0.00157087,-0.000295276 0.00053937,-0.000299213 0.00107874,-0.000846457 0.00160236,-0.00162992 0.000531496,-0.000799213 0.00115748,-0.00206299 0.0018937,-0.00379528 0.00106693,-0.00251181 0.00158268,-0.00422441 0.00154724,-0.00515748 -3.14961e-005,-0.00092126 -0.000437008,-0.00147638 -0.00122441,-0.00164173 -0.000807087,-0.000173228 -0.0015748,0.000141732 -0.00230315,0.00092126 -0.000732283,0.000779528 -0.00162205,0.00235039 -0.00265748,0.0047126zm0.00534252 0.0119528m0.00512992 -0.0096811c0.00148031,-0.00361417 0.00313386,-0.00599213 0.0049252,-0.00714567 0.0017874,-0.00114961 0.00394488,-0.00146457 0.00645276,-0.000948819 0.00122441,0.000251969 0.00215748,0.000614173 0.0028189,0.00108268 0.000673228,0.000476378 0.00116929,0.00101575 0.00147244,0.00161417 0.000311024,0.00061811 0.000511811,0.00122835 0.000598425,0.00183858 8.66142e-005,0.000625984 7.08661e-005,0.00133071 -2.3622e-005,0.00211417 -0.000185039,0.00151969 -0.000582677,0.00307874 -0.00116535,0.00465748 -0.00133071,0.0036063 -0.00290945,0.00616142 -0.00470472,0.0076063 -0.0018189,0.00146063 -0.00414961,0.00185433 -0.0069685,0.00120079 -0.00157874,-0.000362205 -0.00275591,-0.000933071 -0.00350394,-0.00169685 -0.000748031,-0.000759843 -0.0012126,-0.00173622 -0.00140157,-0.00289764 -0.000137795,-0.000838583 -7.08661e-005,-0.00191732 0.000200787,-0.00322835 0.000267717,-0.00130315 0.000688976,-0.00270472 0.00129921,-0.00419685zm0.00501181 0.00111024c-0.000976378,0.00247244 -0.00144882,0.00424409 -0.00140157,0.00525591 5.11811e-005,0.00102756 0.000476378,0.0016378 0.00127165,0.0018189 0.000507874,0.000114173 0.00105906,1.5748e-005 0.00159843,-0.000291339 0.000543307,-0.000307087 0.0010748,-0.000874016 0.00157087,-0.0016811 0.000507874,-0.000818898 0.00111024,-0.00211811 0.00179134,-0.0038937 0.000988189,-0.00258268 0.00144488,-0.00434252 0.00136614,-0.00529921 -7.48031e-005,-0.000956693 -0.000531496,-0.00151969 -0.00133858,-0.00168504 -0.000846457,-0.000173228 -0.00161024,0.000145669 -0.00232283,0.000940945 -0.000716535,0.000799213 -0.0015748,0.00240551 -0.00253543,0.00483465zm0.00604331 0.0122992m0.00484646 -0.00995276c0.00135827,-0.00370079 0.00293307,-0.0061378 0.00473228,-0.00732677 0.00177165,-0.00116929 0.00398425,-0.00149606 0.00657874,-0.000956693 0.00126772,0.000259843 0.00224409,0.000633858 0.00294882,0.00111417 0.000708661,0.000484252 0.00124016,0.00104331 0.00158268,0.00166142 0.000354331,0.000633858 0.000586614,0.00125984 0.00069685,0.00188583 0.000110236,0.000649606 0.000125984,0.00137008 5.51181e-005,0.00216929 -0.000137795,0.00155906 -0.000448819,0.00316535 -0.000976378,0.00479134 -0.00120866,0.00370866 -0.00273622,0.00632677 -0.00451181,0.00781496 -0.00179528,0.0015 -0.00416142,0.0018937 -0.00709843,0.00121654 -0.00162598,-0.000374016 -0.00286614,-0.00096063 -0.00366535,-0.00174409 -0.000799213,-0.000783465 -0.00132283,-0.00179528 -0.0015748,-0.00299606 -0.000177165,-0.000850394 -0.000169291,-0.0019685 4.72441e-005,-0.00330709 0.000216535,-0.00135039 0.000622047,-0.00279134 0.00118504,-0.00432283zm0.00519291 0.00114961c-0.000893701,0.00255118 -0.00129921,0.0043622 -0.00120472,0.00540945 9.44882e-005,0.00105512 0.000559055,0.00168898 0.0013622,0.00186614 0.000551181,0.000122047 0.00111024,1.5748e-005 0.00164173,-0.000295276 0.000547244,-0.000322835 0.00106299,-0.000889764 0.00155118,-0.00171654 0.000488189,-0.000834646 0.00103937,-0.00218504 0.00165354,-0.00400394 0.000901575,-0.00265354 0.0012874,-0.00445669 0.00116535,-0.00544094 -0.000122047,-0.000980315 -0.000602362,-0.00156299 -0.00146063,-0.00174409 -0.000846457,-0.000181102 -0.0016378,0.000145669 -0.00233071,0.00096063 -0.000704724,0.000826772 -0.00150394,0.00248031 -0.00237795,0.00496457zm0.00673622 0.0126772m0.00453937 -0.0102323c0.00122441,-0.00381102 0.00274016,-0.00631496 0.00453543,-0.00752756 0.00177953,-0.00120079 0.00402756,-0.00151181 0.00673228,-0.00096063 0.00130315,0.000267717 0.00234646,0.00065748 0.00308268,0.00114567 0.000759843,0.000503937 0.00132283,0.0010748 0.00170866,0.00171654 0.000385827,0.000637795 0.000645669,0.00129528 0.000787402,0.00194094 0.000141732,0.00065748 0.000192913,0.00140157 0.000161417,0.00223228 -5.90551e-005,0.00160236 -0.000307087,0.00325197 -0.000775591,0.0049252 -0.0010748,0.00380315 -0.00252362,0.00650394 -0.0042874,0.0080315 -0.00177559,0.00153937 -0.00420079,0.00194488 -0.00725984,0.00124016 -0.00169685,-0.000393701 -0.00298031,-0.000996063 -0.00384252,-0.00181102 -0.000858268,-0.000811024 -0.00144882,-0.00184646 -0.00175984,-0.00308268 -0.000224409,-0.000885827 -0.000255906,-0.00202756 -9.84252e-005,-0.00340945 0.000161417,-0.00138189 0.000511811,-0.00286614 0.00101575,-0.00444094zm0.00539764 0.00119685c-0.000807087,0.00262205 -0.00114173,0.00448819 -0.001,0.00556299 0.000145669,0.00108268 0.000653543,0.00173622 0.00150787,0.00192913 0.000562992,0.000125984 0.00111811,1.5748e-005 0.00165748,-0.000307087 0.00053937,-0.000326772 0.00105906,-0.00092126 0.00151181,-0.00176772 0.000464567,-0.000862205 0.000988189,-0.00223228 0.00153937,-0.00411024 0.00080315,-0.00272835 0.0011063,-0.00459055 0.000944882,-0.00559449 -0.000165354,-0.00101969 -0.000681102,-0.00161811 -0.0015748,-0.00180315 -0.000893701,-0.000185039 -0.00168898,0.000149606 -0.00237008,0.000988189 -0.000685039,0.00084252 -0.0014252,0.00253937 -0.00221654,0.00510236z"/>
  <path class="fil4 str9" d="M0.0268898 0.169902l0.135539 0.0439843c0.0076063,-0.000275591 0.0141417,-0.00394094 0.0191378,-0.0125315l0.00338583 -0.0153189 0.0129646 0.00376772 0.0238465 -0.124748 0.00118504 -0.0173504 -0.0108583 -0.00139764c0.00238583,-0.00785039 -0.000909449,-0.0115197 -0.00809449,-0.0123346l-0.100177 -0.00957874c-0.00594094,0.00038189 -0.0100315,0.00264173 -0.0128504,0.00618504l-0.00994094 -0.00137008 -0.0662559 0.097626 0.0110551 0.00283071 -0.00205118 0.00312598c-0.00179134,0.00250787 -0.00283858,0.00551969 -0.00314173,0.00901969l0.0017126 0.0168976c0.000212598,0.00398819 0.00172835,0.00772441 0.00454331,0.0111929z"/>
 </g>
</svg>
