
<svg clip-rule="evenodd" fill-rule="evenodd" height=".24in"
     image-rendering="optimizeQuality" shape-rendering="geometricPrecision"
     text-rendering="geometricPrecision" viewBox="0 0 .24 .24" width=".24in"
     xmlns="http://www.w3.org/2000/svg"
     xmlns:xlink="http://www.w3.org/1999/xlink">
    <linearGradient id="a" gradientUnits="userSpaceOnUse" x1=".104197"
                    x2=".128732" y1=".021512" y2=".193236">
        <stop offset="0" stop-color="#474c4f"/>
        <stop offset="1" stop-color="#b9c2cf"/>
    </linearGradient>
    <linearGradient id="b" gradientUnits="userSpaceOnUse" x1=".045768"
                    x2=".187957" y1=".164343" y2=".090665">
        <stop offset="0" stop-color="#44494d"/>
        <stop offset=".54902" stop-color="#7e858e"/>
        <stop offset="1" stop-color="#b9c2cf"/>
    </linearGradient>
    <g stroke-width=".003">
        <path d="m.0207717.142953c.00000787.00504331.0007126.0106811.0015748.0157559.00086221.0050748.00197638.0091063.00454331.0111929.0228268.00740157.0428465.013937.0658386.0213976.0231181.0075.0463504.0150433.0697008.0225866.00747244-.00038583.014185-.00331102.0191378-.0125315.00599213-.027122.0116496-.052622.0169567-.0766732.00500787-.0226772.00980315-.0441457.0143031-.0644843.00005906-.00645669.00011811-.0128228.00018898-.0190748-.0043937.0192717-.00904331.0395906-.0139213.0609764-.00516535.0226299-.0106614.0466496-.0164724.0720787-.00355118.0107559-.0100394.015063-.0199528.0139094-.0230079-.0065748-.0459173-.013126-.0687795-.0196496-.0227874-.00650394-.0455315-.0130236-.0682402-.0195157-.00329921-.00111811-.00493701-.00311417-.00487795-.0059685z"
              fill="url(#b)" stroke="#1f1a17" stroke-linecap="round"
              stroke-linejoin="round"/>
        <path d="m.212091.0463071c.00240551.00025197.00486614.00056299.00735039.00081496-.00064961.00304331-.0012874.00610236-.00192913.00920472-.00251181-.00029921-.00505906-.00059843-.00751181-.00089764.00068898-.0030748.0013937-.00611024.00209055-.00912205z"
              fill="#f0eb51" stroke="#9d9c37" stroke-linecap="round"
              stroke-linejoin="round"/>
        <path d="m.192988.12913c.00301575.00062598.00609843.00124409.00914567.00190157-.00098819.00488976-.0020315.00987402-.00309055.0150157-.0031811-.00070866-.00633071-.00146457-.00943701-.00214567.00114961-.00502756.00230315-.00996063.00338189-.0147717z"
              fill="#f0eb51" stroke="#9d9c37" stroke-linecap="round"
              stroke-linejoin="round"/>
        <path d="m.197701.10876c.00285039.00053937.00578346.0010748.00870079.0016063-.00090945.00440157-.00183071.00888189-.0027874.0134528-.003-.00059055-.006-.00120079-.00899213-.00179921.00105906-.00451575.00206693-.00893701.00307874-.0132598z"
              fill="#f0eb51" stroke="#9d9c37" stroke-linecap="round"
              stroke-linejoin="round"/>
        <path d="m.201752.0911299c.00273228.00044882.00552756.00091339.00832677.00137402-.00082284.00399213-.00165748.00802362-.0025.0121535-.00290157-.00050394-.00575591-.00101181-.00858661-.00151575.00092126-.00407087.00185433-.00807874.00275984-.0120118z"
              fill="#f0eb51" stroke="#9d9c37" stroke-linecap="round"
              stroke-linejoin="round"/>
        <path d="m.205661.074189c.00262598.00037402.0052874.00076378.00795669.00112992-.00074409.0036063-.0015.00726772-.00227953.0110079-.00274409-.00042913-.00548031-.00084252-.00819685-.00127953.00085827-.00367717.00170472-.00729921.00251969-.0108583z"
              fill="#f0eb51" stroke="#9d9c37" stroke-linecap="round"
              stroke-linejoin="round"/>
        <path d="m.208988.0597205c.00252362.00033465.00508268.00064567.00764567.00097638-.00067717.00329134-.00137795.00662598-.00208661.0100551-.00263386-.00035433-.00526378-.0007126-.00785433-.00107087.00079528-.00338583.00155118-.00667323.00229528-.00996063z"
              fill="#f0eb51" stroke="#9d9c37" stroke-linecap="round"
              stroke-linejoin="round"/>
        <path d="m.187823.15174c.00312992.00074803.00635039.00150787.00957874.0022874-.00111811.00543307-.00227953.0110827-.00348031.016815-.00330315-.00087008-.00664567-.00170472-.00991339-.00252362.00129921-.00569685.00255906-.0112165.00381496-.0165787z"
              fill="#f0eb51" stroke="#9d9c37" stroke-linecap="round"
              stroke-linejoin="round"/>
        <path d="m.0839252.0322835c.00178346.00020079.00355512.00038189.00534252.00058661-.00161811.0024685-.00324803.00493701-.00490945.00747244-.00183465-.00023622-.00365354-.00042913-.00541732-.00064567.00169291-.0025.00335827-.00498031.00498425-.00741339z"
              fill="#f0eb51" stroke="#9d9c37" stroke-linecap="round"
              stroke-linejoin="round"/>
        <path d="m.0399882.097374c.00200787.00041339.00405118.00084252.00611417.00126772-.00241732.00365354-.00486614.00738976-.00734646.0112126-.00212205-.00045669-.00423622-.00093701-.00627559-.00139764.00253543-.00377165.00503937-.00748031.00750787-.0110827z"
              fill="#f0eb51" stroke="#9d9c37" stroke-linecap="round"
              stroke-linejoin="round"/>
        <path d="m.0504843.0818071c.00194882.00036221.00395276.00072047.00596457.00106299-.00222047.00337008-.0044685.00680315-.00675591.0102835-.00206299-.00037402-.00407874-.0007874-.00605512-.00120079.0023189-.00344882.00461417-.00683071.00684646-.0101457z"
              fill="#f0eb51" stroke="#9d9c37" stroke-linecap="round"
              stroke-linejoin="round"/>
        <path d="m.059752.0681024c.0018937.00031496.00380315.00062598.00575591.00093701-.00204331.00309055-.00408661.00626378-.00618504.00946457-.00198425-.00036614-.00394488-.00070866-.00590945-.00103543.00213386-.00318504.00426772-.00630709.00633858-.00936614z"
              fill="#f0eb51" stroke="#9d9c37" stroke-linecap="round"
              stroke-linejoin="round"/>
        <path d="m.0687913.0547441c.00185433.00024409.00371654.00051181.0056063.00077165-.00186614.00285433-.00377559.00575197-.00570472.00869291-.0019252-.00029528-.00385039-.00059449-.00572047-.00087008.00198031-.00292913.00389764-.00577165.0058189-.00859449z"
              fill="#f0eb51" stroke="#9d9c37" stroke-linecap="round"
              stroke-linejoin="round"/>
        <path d="m.0765827.0431693c.00180315.0002126.00362598.00044488.00546457.00067717-.00172441.00266142-.00349606.00532283-.0052874.00807087-.00187008-.00026378-.00372441-.00051181-.00555512-.00077953.00182283-.00269291.0036063-.00534252.00537795-.0079685z"
              fill="#f0eb51" stroke="#9d9c37" stroke-linecap="round"
              stroke-linejoin="round"/>
        <path d="m.0285354.11426c.00208268.00047638.00420472.00099213.00632677.00150394-.00265748.004-.00533858.00810236-.00809449.012315-.0021811-.00056299-.00433071-.00112598-.00642913-.00165748.00279134-.00414173.00552362-.00819291.00819685-.0121614z"
              fill="#f0eb51" stroke="#9d9c37" stroke-linecap="round"
              stroke-linejoin="round"/>
        <path d="m.103819.0243937c.00751969.00073622.0152244.00147244.0230551.0022126.00782283.00074016.0157992.00152756.0239724.00230315.00848031.00080709.0171693.00164173.0260354.00247244.00883465.00082677.017878.0017126.0271142.00259055.00591339.00056299.00993307.00473228.00885039.00942913-.00183858.00796063-.00377953.0163583-.00582283.0251929-.00209055.00905512-.00430315.0186654-.00663386.0287559-.00255512.0110827-.00530709.0228701-.00820079.0354567-.00298031.0129764-.00617323.0268189-.00958268.0416339-.00228346.00992913-.011378.0163583-.0199567.0139134-.0132677-.00377953-.0261142-.00747638-.038563-.011-.0124213-.00351969-.0244724-.00699606-.036126-.0103189-.0110079-.0031378-.0217047-.00622441-.0320945-.00916929-.010374-.00294094-.0204921-.00582677-.0302953-.00862205-.00586614-.00166929-.00656693-.0091811-.00179528-.0164528.00722441-.0110118.0141063-.0214449.0205748-.0313031.00630315-.00961024.0123425-.018748.0180394-.0274331.00526378-.00802362.0103031-.0156693.0150748-.0229488.00468504-.0071378.00920866-.0139843.0135039-.0205276.00254724-.00388583.00827165-.00662992.0128504-.00618504z"
              fill="url(#a)" stroke="#656b6f" stroke-linecap="round"
              stroke-linejoin="round"/>
        <path d="m.193921.170843c-.00033465.00565354-.00070079.0113465-.00104724.0171339.00104724-.00519291.00205906-.0102913.00310236-.0153504.00047244-.00628346.00094488-.0124882.0014252-.0185984-.00114567.00555118-.00232283.0111417-.00348031.016815z"
              fill="#f8f5c1" stroke="#cecd29" stroke-linecap="round"
              stroke-linejoin="round"/>
        <path d="m.199043.146047c.00103543-.00504331.00207874-.0100709.00309055-.0150157-.00061417.00673622-.00125591.0135827-.00188976.0205118-.00058661.0029252-.00117717.00585039-.00177165.00879528.00019291-.00482677.00035827-.00955906.00057087-.0142913z"
              fill="#f8f5c1" stroke="#cecd29" stroke-linecap="round"
              stroke-linejoin="round"/>
        <path d="m.203614.123819c.00093307-.00451575.00185433-.00899213.0027874-.0134528-.00048819.00594488-.00098425.012-.00148819.0180984-.00084252.00407874-.00165354.0081811-.00248819.0123228.00038583-.00573622.00079134-.0113819.00118898-.0169685z"
              fill="#f8f5c1" stroke="#cecd29" stroke-linecap="round"
              stroke-linejoin="round"/>
        <path d="m.207579.104657c.00082284-.00409449.00165748-.00812598.0025-.0121535-.00049213.00585827-.00099606.0117953-.0015.017811-.00064567.00315748-.00127559.0063189-.00190945.0095.00029921-.00510236.00059843-.0101693.00090945-.0151575z"
              fill="#f8f5c1" stroke="#cecd29" stroke-linecap="round"
              stroke-linejoin="round"/>
        <path d="m.213618.0753189c-.00092913.00784646-.00185433.0158307-.00280315.0239646.00017717-.00435433.00033071-.00867323.00052362-.0129567.00075984-.00370079.00151575-.0073622.00227953-.0110079z"
              fill="#f8f5c1" stroke="#cecd29" stroke-linecap="round"
              stroke-linejoin="round"/>
        <path d="m.214547.070752c.00068898-.00337008.00138976-.00672441.00208661-.0100551-.00087795.00745669-.00173228.0150827-.00262992.0228661.00017717-.00429528.00035039-.00857087.00054331-.012811z"
              fill="#f8f5c1" stroke="#cecd29" stroke-linecap="round"
              stroke-linejoin="round"/>
        <path d="m.217512.0563268c.00064173-.00308268.00127953-.00614567.00192913-.00920472-.00053543.00570472-.00105906.0114882-.0015748.0173504"
              fill="none" stroke="#cecd29" stroke-linecap="round"
              stroke-linejoin="round"/>
        <path d="m.0459843.15487c.0184567.00529134.0369921.0105787.0555079.015878.0185669.00531102.037189.0106417.0558661.0159685.0118346.00467717.0202874.00185039.025252-.0123898.00375984-.0162795.00734646-.0319606.010811-.0470551.00334646-.0145669.00659055-.0286378.00972047-.0422244"
              fill="none" stroke="#8e939b"/>
        <path d="m.0627835.159657c.015685.00448425.0314016.009.0471575.0135079.0157441.00450394.0315748.00904331.0474173.0135512.0118346.00467717.0202874.00185039.025252-.0123898.00292126-.0127244.00578346-.0251024.0085315-.037122.00265748-.0116339.00530315-.0230118.00785039-.034063"
              fill="none" stroke="#9ea5ae"/>
        <path d="m.0821732.165189c.0124724.00356693.0249685.00714961.0374843.0107323.0125433.00359055.0251102.00720472.0377008.0107953.0118346.00467717.0202874.00185039.025252-.0123898.00401575-.0175866.00785039-.0344528.0115591-.0506929"
              fill="none" stroke="#b3bcc8"/>
        <path d="m.0968819.169406c.0100551.00289764.0201102.00580315.030185.00866535.0100748.00285827.0201732.00577953.0302913.00864567.00664567.00264173.012252.00288976.0167638.00003937.00350787-.0022126.00632677-.00626378.00848819-.0124291.00280709-.012126.00551181-.0239134.00814173-.0353976"
              fill="none" stroke="#cdd4de"/>
    </g>
    <path d="m.174232.204024c-.00004331-.00434252-.00007874-.00866929-.00009449-.0129764"
          fill="none" stroke="#bec8d5" stroke-linecap="round"
          stroke-linejoin="round" stroke-width=".006665"/>
    <path d="m.0918779.0467756c.00370472.00051969.00743701.00104724.0112047.00157874-.00074016.0026811-.00149213.00540945-.00225591.00817717-.00077165.00281102-.00155906.00568898-.00236614.00861024.0023189-.00268504.00462598-.00532283.00687795-.0079252.00222047-.00256693.00442126-.00511024.0066063-.00761417.00387008.00054331.00776378.00109449.0117087.00165354-.00222441.00440157-.00451181.00890157-.00685433.0135276-.00240945.00474803-.00487402.00964567-.00740945.0146772-.00262992-.0004685-.00524409-.0009252-.00783858-.00138583.00201181-.00379134.00398819-.00751181.00591732-.0111535.00188976-.00356299.00374016-.00705118.00555906-.0104803-.00279134.00327953-.00562205.00661024-.00849213.0100039-.00292126.00346063-.00590945.00698425-.00894882.0105787-.00231102-.00040945-.00458661-.00080709-.00686614-.00120866.00115748-.00388583.0022874-.00767717.00338976-.0113819.00107874-.00362205.00213386-.00716142.00316535-.0106299-.00194882.00332677-.00394094.0067126-.00596457.0101732-.00207087.00353543-.00419291.0071378-.00635039.0108228-.0024685-.00044095-.00492913-.00087008-.0073622-.00130315.00288976-.00475197.0057126-.00938189.00845669-.0138819.00266929-.00437402.00527953-.00865748.00782283-.0128386zm.0355.0050039c.00824016.00116142.0166457.00235039.0252008.00355512-.00080709.00195669-.00162205.00392913-.00244882.00592126-.00545276-.00080709-.0108465-.0016063-.0161732-.00239764-.00066929.00146063-.0013622.00293307-.00204724.00442126.00498425.00076378.0100354.00154331.0151535.00232283-.00082677.00197638-.00165748.00397244-.00249606.00598425-.00518898-.00083465-.010311-.00166142-.0153661-.00247638-.00089764.00192913-.00180315.00387402-.00271654.00584646.0056811.00095276.0114646.0019252.0173228.00290551-.0009685.00235433-.00196063.00474409-.00295276.00716535-.00937008-.00165748-.0185354-.00327953-.0274961-.0048622.00250394-.00506693.00492913-.00999213.00729134-.0147717.00229528-.00465354.00454331-.00918898.00672835-.0136142zm.0286103.0040394c.00429528.00060236.00862992.0012126.0130157.00183071-.0001811.00298425-.00035039.00601575-.00053937.0091063-.00018898.0031378-.00036221.00635433-.00055118.00962992.00196457-.00298819.00390551-.00593307.00581496-.00883465.00187795-.00285433.00374016-.00566535.00556693-.00845276.00450394.0006378.00907087.00127953.0136693.00192913-.00139764.00490157-.00284646.00993701-.00432677.0151142-.00152756.00533071-.00309055.0108268-.0047126.0165-.00312205-.00055906-.00620079-.00109843-.00926772-.00164567.00133465-.00427953.00264567-.00845669.0039252-.0125433.00124803-.00398031.00246063-.00788189.00366535-.0117047-.00233465.00364567-.00470866.00736614-.00711024.0111535-.00245669.00387008-.00499213.00781496-.00755118.0118504-.00272835-.00048819-.00542126-.0009685-.0081063-.00143701.00034252-.00437402.00070079-.00862992.00104724-.0127913.00033858-.00404331.00066142-.00799606.00098819-.0118583-.00140551.00369685-.00283071.00747638-.00428346.0113307-.00148425.00394882-.00300787.00798425-.00456299.0121142-.00290945-.00051181-.00579528-.00102362-.00865748-.00152756.00212992-.00532283.00422047-.0104882.00624016-.0155079.00196063-.00487795.00387795-.00962598.00573622-.0142559zm-.10067703.0469646c.00195669-.00318504.00384252-.00527953.0056378-.00631102.00177953-.00102362.00374409-.00132677.0058622-.00088583.00101969.00020866.00179134.00051969.0022874.00092913.00049606.00040551.00083071.00088583.00098819.00140945.00015748.0005315.00022441.00107087.0001811.0016063-.00004331.00055118-.00018898.00116535-.00042126.00185827-.00044488.00133071-.00107874.00270472-.00188189.00409449-.00182677.00317323-.0036811.00541339-.00551575.00668898-.00185433.00129134-.0039685.00165748-.00633071.00111024-.00132283-.00030315-.00223622-.0007874-.00276378-.00144882-.0005315-.00066535-.00075197-.00151575-.00071654-.0025315.00002756-.00073228.0002874-.00166929.00075591-.00281496.0004685-.00114567.00111024-.00238583.00191732-.00370472zm.00419685.00093701c-.00131496.0021811-.00204331.00373622-.0021811.00462205-.0001378.00090158.00012205.00142913.00079134.00157874.00044095.00009843.0009252.00000787.00145276-.00026772.0005315-.00027559.00110236-.00077559.00168504-.00148031.00059843-.00072047.00136614-.0018622.0022874-.0034252.00134252-.00227165.00205906-.00382677.00216535-.00466535.0001063-.00083465-.00017323-.00133465-.00086614-.00147638-.00070079-.00014567-.00144488.00014567-.0022126.00084646-.00078347.0007126-.00183071.00212598-.00312205.00426772zm.01075197-.0019291c.0017126.00036221.00342913.00073228.00516535.00109843-.00004331.0012874-.00009055.00258661-.00012205.00389764.00135827-.00101969.00270866-.00203543.00406693-.00305512.00163386.00034646.0032874.00070079.00492913.00104724-.00242913.00172835-.00485433.00347244-.00729921.00522441.00018504.00259449.00038583.00522047.00059449.00789764-.00179921-.00041339-.0035748-.00082284-.00533465-.00123228.00005118-.00159449.00011417-.0031811.00017717-.00474016-.00161811.00120472-.00325984.0024252-.00491339.00364961-.00162598-.00037795-.00322835-.00074803-.00483071-.00111811.00270866-.00196063.00539764-.00390551.0080748-.00583071-.00018898-.00231496-.00035039-.00458661-.00050787-.00683858zm.01217323.00690943c.00177953-.00334646.00357874-.00554724.00538583-.00662598.00178346-.00106693.00381496-.0013622.00608268-.00090158.00109843.00022441.0019252.00055512.00247638.00098032.00055906.00043307.00096457.00093307.00117717.00148425.00021654.00055906.00033858.00112205.00033858.00169291.00000394.0005748-.00011024.00122441-.00029528.00194488-.00036221.00140551-.00089764.00284646-.00162205.0043189-.00164567.00332677-.00341339.00568504-.00523228.00702756-.00183858.00135433-.00402756.00172835-.00657874.00114567-.00140551-.0003189-.0024252-.00083858-.00302756-.00153937-.00059843-.00069291-.00091732-.00159055-.00096063-.00267323-.0000315-.00075984.00014961-.00175984.00054724-.00296457.00039764-.00120866.00097244-.00251181.00170866-.00388976zm.0045.001c-.00119685.00229921-.00183858.00392913-.00190945.00486614-.00007087.00094488.00025984.0015.00096457.00166142.00046457.00010236.00098425 0 .00150394-.00027953.00054724-.00029528.00109449-.00080709.00166142-.00155118.0005748-.00075591.00126772-.00196457.00210236-.00360236.00121654-.00238976.00184252-.00401969.00188189-.00490157.00003543-.00087795-.00029921-.00140551-.00105118-.00155906-.00074016-.00015354-.00148819.00014567-.00224016.00088189-.00076378.00074803-.00174016.00224016-.00291339.00448425zm.00977953.00211812c.00169291-.00342913.00343307-.00569685.00523228-.00679921.00177953-.00109055.00385433-.00140157.00620079-.00091732.00112598.00023228.00200394.0005748.00259843.00101575.00059449.00044488.00101575.00095669.00125591.00152362.00024016.00057087.0003937.00116535.00040945.00173622.00001968.00059449-.00004331.00125984-.00020079.00200394-.00030315.00144488-.00079921.0029252-.00148031.00442913-.00154331.00341339-.00326378.00583465-.00507087.00720472-.00183858.0013937-.00406693.00177165-.00670079.00116535-.00145669-.00033465-.00252362-.00086614-.00317323-.00158661-.00064567-.00070866-.00102362-.00164173-.00110236-.00274409-.00005512-.0007874.00008268-.00181102.00043701-.00305118.00035433-.00123622.00090158-.00257087.00159449-.00398031zm.00465748.0010315c-.00113386.00235039-.00172047.0040315-.00175197.00499213-.00003543.00096457.0003189.00154331.00103937.00170472.0005.00011417.00100787.00001181.00155118-.00028347.00053543-.00029528.0010748-.00083858.00161811-.00159449.00055906-.00077559.00123228-.00200394.00202756-.00369291.00114961-.00244882.00170472-.00412205.0017126-.0050315.00000394-.00090158-.00036614-.00143307-.0011378-.00159055-.00077953-.00016142-.00153543.0001378-.0022874.00089764-.00074803.00075984-.00166142.00229134-.00277165.00459843zm.0101063.00218499c.00159055-.00351969.00329528-.00583465.00509449-.00696457.00177953-.00112205.00388583-.00142913.00632283-.00092913.00116142.00023622.00206693.00058661.00269685.00104331.00062598.00045276.00108268.00098819.0013622.00157087.00028347.00058661.00043701.00119291.00049213.00179134.00005906.0006063.00001181.00129134-.00011811.00205118-.00025197.00148031-.00070079.00299606-.00133465.00453937-.00144094.00350787-.00308661.006-.00488189.00740157-.00183071.00142913-.00411024.00181102-.00683465.0011811-.00151575-.00034646-.00262205-.00089764-.0033189-.0016378-.00070079-.00074016-.00109843-.00169291-.00124409-.00282283-.00010236-.00081102.00000394-.0018622.00031496-.00312598.00031102-.00127559.00079134-.00264961.00144882-.00409843zm.00483071.00107087c-.00106299.00241339-.00159449.00413386-.00159449.00511417.00000394.00101181.0003937.00160236.00116535.00177165.00051181.00011417.00102756.00000787.00157087-.00029528.00053937-.00029921.00107874-.00084646.00160236-.00162992.0005315-.00079921.00115748-.00206299.0018937-.00379528.00106693-.00251181.00158268-.00422441.00154724-.00515748-.0000315-.00092126-.00043701-.00147638-.00122441-.00164173-.00080709-.00017323-.0015748.00014173-.00230315.00092126-.00073228.00077953-.00162205.00235039-.00265748.0047126zm.01047244.0022717c.00148031-.00361417.00313386-.00599213.0049252-.00714567.0017874-.00114961.00394488-.00146457.00645276-.00094882.00122441.00025197.00215748.00061417.0028189.00108268.00067323.00047638.00116929.00101575.00147244.00161417.00031102.00061811.00051181.00122835.00059843.00183858.00008661.00062598.00007087.00133071-.00002362.00211417-.00018504.00151969-.00058268.00307874-.00116535.00465748-.00133071.0036063-.00290945.00616142-.00470472.0076063-.0018189.00146063-.00414961.00185433-.0069685.00120079-.00157874-.00036221-.00275591-.00093307-.00350394-.00169685-.00074803-.00075984-.0012126-.00173622-.00140157-.00289764-.0001378-.00083858-.00007087-.00191732.00020079-.00322835.00026772-.00130315.00068898-.00270472.00129921-.00419685zm.00501181.00111024c-.00097638.00247244-.00144882.00424409-.00140157.00525591.00005118.00102756.00047638.0016378.00127165.0018189.00050787.00011417.00105906.00001575.00159843-.00029134.00054331-.00030709.0010748-.00087402.00157087-.0016811.00050787-.0008189.00111024-.00211811.00179134-.0038937.00098819-.00258268.00144488-.00434252.00136614-.00529921-.0000748-.00095669-.0005315-.00151969-.00133858-.00168504-.00084646-.00017323-.00161024.00014567-.00232283.00094095-.00071654.00079921-.0015748.00240551-.00253543.00483465zm.01088977.00234644c.00135827-.00370079.00293307-.0061378.00473228-.00732677.00177165-.00116929.00398425-.00149606.00657874-.00095669.00126772.00025984.00224409.00063386.00294882.00111417.00070866.00048425.00124016.00104331.00158268.00166142.00035433.00063386.00058661.00125984.00069685.00188583.00011024.00064961.00012598.00137008.00005512.00216929-.0001378.00155906-.00044882.00316535-.00097638.00479134-.00120866.00370866-.00273622.00632677-.00451181.00781496-.00179528.0015-.00416142.0018937-.00709843.00121654-.00162598-.00037402-.00286614-.00096063-.00366535-.00174409-.00079921-.00078347-.00132283-.00179528-.0015748-.00299606-.00017717-.00085039-.00016929-.0019685.00004724-.00330709.00021654-.00135039.00062205-.00279134.00118504-.00432283zm.00519291.00114961c-.0008937.00255118-.00129921.0043622-.00120472.00540945.00009449.00105512.00055906.00168898.0013622.00186614.00055118.00012205.00111024.00001575.00164173-.00029528.00054724-.00032284.00106299-.00088976.00155118-.00171654.00048819-.00083465.00103937-.00218504.00165354-.00400394.00090158-.00265354.0012874-.00445669.00116535-.00544094-.00012205-.00098032-.00060236-.00156299-.00146063-.00174409-.00084646-.0001811-.0016378.00014567-.00233071.00096063-.00070472.00082677-.00150394.00248031-.00237795.00496457zm.01127559.0024449c.00122441-.00381102.00274016-.00631496.00453543-.00752756.00177953-.00120079.00402756-.00151181.00673228-.00096063.00130315.00026772.00234646.00065748.00308268.00114567.00075984.00050394.00132283.0010748.00170866.00171654.00038583.0006378.00064567.00129528.0007874.00194094.00014173.00065748.00019291.00140157.00016142.00223228-.00005906.00160236-.00030709.00325197-.00077559.0049252-.0010748.00380315-.00252362.00650394-.0042874.0080315-.00177559.00153937-.00420079.00194488-.00725984.00124016-.00169685-.0003937-.00298031-.00099606-.00384252-.00181102-.00085827-.00081102-.00144882-.00184646-.00175984-.00308268-.00022441-.00088583-.00025591-.00202756-.00009843-.00340945.00016142-.00138189.00051181-.00286614.00101575-.00444094zm.00539764.00119685c-.00080709.00262205-.00114173.00448819-.001.00556299.00014567.00108268.00065354.00173622.00150787.00192913.00056299.00012598.00111811.00001575.00165748-.00030709.00053937-.00032677.00105906-.00092126.00151181-.00176772.00046457-.00086221.00098819-.00223228.00153937-.00411024.00080315-.00272835.0011063-.00459055.00094488-.00559449-.00016535-.00101969-.0006811-.00161811-.0015748-.00180315s-.00168898.00014961-.00237008.00098819c-.00068504.00084252-.0014252.00253937-.00221654.00510236z"
          fill="#b2b4b7" fill-rule="nonzero"/>
    <path d="m.0268898.169902.135539.0439843c.0076063-.00027559.0141417-.00394094.0191378-.0125315l.00338583-.0153189.0129646.00376772.0238465-.124748.00118504-.0173504-.0108583-.00139764c.00238583-.00785039-.00090945-.0115197-.00809449-.0123346l-.100177-.00957874c-.00594094.00038189-.0100315.00264173-.0128504.00618504l-.00994094-.00137008-.0662559.097626.0110551.00283071-.00205118.00312598c-.00179134.00250787-.00283858.00551969-.00314173.00901969l.0017126.0168976c.0002126.00398819.00172835.00772441.00454331.0111929z"
          fill="none" stroke="#4d5356" stroke-linecap="round"
          stroke-linejoin="round" stroke-width=".006665"/>
</svg>