
<svg enable-background="new 0 0 76.147 78.717" height="48pt"
     viewBox="0 0 76.147 78.717" width="48pt" xmlns="http://www.w3.org/2000/svg"
     xmlns:xlink="http://www.w3.org/1999/xlink">
    <linearGradient id="a"
                    gradientTransform="matrix(.9622 .2723 .2723 -.9622 136.9128 439.8242)"
                    gradientUnits="userSpaceOnUse" x1="-183.6753" x2="-195.5838"
                    y1="389.4326" y2="340.7641">
        <stop offset="0" stop-color="#5e5e5e"/>
        <stop offset=".5475" stop-color="#1f1f1f"/>
        <stop offset="1" stop-color="#5e5e5e"/>
    </linearGradient>
    <linearGradient id="b"
                    gradientTransform="matrix(.9622 .2723 .2723 -.9622 136.9128 439.8242)"
                    gradientUnits="userSpaceOnUse" x1="-198.7319" x2="-211.0575"
                    y1="326.3789" y2="391.4302">
        <stop offset="0" stop-color="#d6d6d6"/>
        <stop offset=".3243" stop-color="#d2d2d2"/>
        <stop offset=".6904" stop-color="#c4c4c4"/>
        <stop offset="1" stop-color="#b3b3b3"/>
    </linearGradient>
    <g stroke="#000">
        <path d="m32.735.353-1.421-.353-.635 1.316c-.064.131-6.376 13.181-13.435 25.989-7.739 14.048-16.484 28.33-16.572 28.472l-.672 1.095.817.991c.299.363 7.458 8.957 17.49 13.644 0 0 .142.062.34.146.111.051 2.223 1.037 2.223 1.037 10.063 4.694 22.54 5.861 23.064 5.908l1.308.118.514-1.209c.061-.139 5.997-14.122 13.23-27.979 7.65-14.658 16.747-28.299 16.838-28.437l.203-.303.067-.359c.058-.297.294-1.846-.643-3.085-.013-.018-.034-.038-.049-.057.076-.117-1.497-1.279-1.497-1.279-.088-.047-2.01-1.077-5.049-2.562-.642-1.345-3.553-2.381-3.554-2.382 0 0-2.263-.84-3.175-.745-2.74-1.213-5.397-2.319-7.887-3.266-10.169-3.865-21.048-6.586-21.505-6.7z"
              stroke="none"/>
        <path d="m21.633 71.06c9.968 4.651 22.467 5.747 22.467 5.747s5.938-14.023 13.292-28.111c7.787-14.922 16.938-28.603 16.938-28.603s.415-2.144-1.54-2.241z"
              fill="url(#a)" stroke="none"/>
        <path d="m55.735 47.007c-7.354 14.089-12.988 28.655-12.988 28.655s-13.21-.894-23.677-5.785c-9.781-4.569-16.864-13.159-16.864-13.159s8.765-14.294 16.615-28.542c7.166-13.005 13.479-26.076 13.479-26.076s11.109 2.761 21.3 6.637c10.186 3.873 19.454 8.859 19.454 8.859s-9.531 14.49-17.319 29.411z"
              fill="url(#b)" stroke-linejoin="round" stroke-width="1.1413"/>
        <path d="m6.635 55.074c.354-1.248 1.651-1.974 2.899-1.62 1.247.353 1.973 1.65 1.62 2.898-.353 1.247-1.65 1.972-2.898 1.619s-1.973-1.65-1.621-2.897z"
              fill="none" stroke-width="1.1413"/>
        <path d="m7.107 54.888c.251-.886 1.172-1.401 2.058-1.151.886.251 1.402 1.173 1.151 2.06s-1.174 1.401-2.06 1.15c-.884-.25-1.399-1.172-1.149-2.059z"
              fill="#4d4d4d" stroke="none"/>
        <path d="m13.45 59.716c.25-.888 1.173-1.402 2.059-1.151.887.251 1.402 1.172 1.151 2.06-.251.887-1.173 1.401-2.06 1.15-.886-.252-1.401-1.172-1.15-2.059z"
              fill="#4d4d4d" stroke="none"/>
        <path d="m27.512 65.843c.251-.887 1.173-1.401 2.06-1.151.885.251 1.401 1.173 1.15 2.06-.25.887-1.173 1.401-2.059 1.15s-1.401-1.173-1.151-2.059z"
              fill="#4d4d4d" stroke="none"/>
        <path d="m21.388 61.614c.211-.743 1.1-1.144 1.986-.893.887.25 1.435 1.058 1.224 1.802-.211.745-1.101 1.145-1.987.893-.886-.25-1.434-1.056-1.223-1.802z"
              fill="#4d4d4d" stroke="none"/>
        <path d="m19.645 65.545c.21-.744 1.101-1.145 1.986-.894.886.25 1.435 1.058 1.224 1.802s-1.101 1.145-1.987.894-1.433-1.058-1.223-1.802z"
              fill="#4d4d4d" stroke="none"/>
        <path d="m35.987 68.494c.251-.887 1.172-1.403 2.058-1.151.886.251 1.402 1.173 1.15 2.06-.25.886-1.173 1.401-2.059 1.15s-1.4-1.173-1.149-2.059z"
              fill="#4d4d4d" stroke="none"/>
        <path d="m13.037 59.936c.353-1.247 1.651-1.973 2.899-1.619s1.973 1.65 1.62 2.898c-.353 1.247-1.651 1.972-2.898 1.619-1.248-.354-1.973-1.65-1.621-2.898z"
              fill="none" stroke-width="1.1413"/>
        <path d="m27.163 66.067c.353-1.248 1.65-1.972 2.897-1.62 1.248.354 1.973 1.651 1.62 2.899s-1.651 1.972-2.898 1.618c-1.247-.352-1.973-1.649-1.619-2.897z"
              fill="none" stroke-width="1.1413"/>
        <path d="m25.182 62.903c.73-1.072.114-2.569-1.045-3.151s-2.571-.115-3.152 1.044c-.738 1.229-1.581 3.411-1.89 4.386-.492 1.199.084 2.57 1.283 3.063 1.201.49 2.51-.111 3.062-1.283.511-1.085 1.301-3.415 1.742-4.059z"
              fill="none" stroke="#6e6e6e" stroke-width="1.1413"/>
        <path d="m35.593 68.606c.353-1.248 1.651-1.974 2.898-1.621 1.248.354 1.974 1.651 1.621 2.898-.354 1.248-1.65 1.973-2.898 1.619-1.248-.352-1.974-1.648-1.621-2.896z"
              fill="none" stroke-width="1.1413"/>
        <path d="m34.778 9.511-22.452 40.006s5.504 4.371 12.233 7.427c7.487 3.4 16.28 5.521 16.28 5.521l22.729-42.063z"
              fill="#fff" stroke-width="1.1413"/>
        <path d="m18.306 39.161-5.98 10.355s5.504 4.371 12.233 7.427c7.487 3.4 16.28 5.521 16.28 5.521l6.135-10.981z"
              fill="#bababa" stroke="none"/>
        <path d="m18.306 39.161 28.29 12.122" fill="none" stroke="#696969"
              stroke-width="1.1413"/>
        <path d="m62.044 11.924-.661.832.086-.107c-.317 1.118.778 2.34 2.549 2.841.661.188 2.859.694 3.387-.632l-.016-.908c-.314-.688-1.213-1.005-2.457-1.444l-.088-.032-.653-.242c-.878-.335-1.569-.6-2.147-.308z"
              fill="#454545" stroke="none"/>
        <path d="m62.063 12.871c.204-.72 1.281-.373 2.604.094 1.332.471 2.294 1.025 2.036 1.677-.232.588-1.489.529-2.563.225-1.351-.382-2.281-1.276-2.077-1.996z"
              fill="#ccc" stroke="none"/>
        <path d="m16.226 51.703.3.166 5.491-10.001 10.994 4.795.12 1.081 1.112-.542 6.854 2.989-5.484 10.317.302.161 5.659-10.644-19.707-8.595z"
              fill="#fff" stroke="none"/>
        <path d="m17.113 41.504c.49-1.023 1.647-1.488 2.586-1.04.938.45 1.301 1.644.811 2.667-.49 1.022-1.649 1.488-2.586 1.039-.938-.449-1.3-1.644-.811-2.666z"
              fill="#fff" stroke="none"/>
        <path d="m14.117 47.061c.491-1.023 1.647-1.487 2.586-1.038.938.45 1.301 1.643.812 2.666-.491 1.022-1.649 1.487-2.587 1.039-.938-.451-1.301-1.645-.811-2.667z"
              fill="#fff" stroke="none"/>
        <path d="m41.228 52.01c.569-1.189 1.914-1.729 3.004-1.207 1.09.521 1.511 1.908.941 3.097-.569 1.187-1.914 1.729-3.004 1.205-1.089-.52-1.51-1.909-.941-3.095z"
              fill="#fff" stroke="none"/>
        <path d="m38.161 57.533c.591-1.232 1.983-1.792 3.112-1.251 1.131.541 1.566 1.979.978 3.208-.591 1.232-1.985 1.792-3.113 1.251-1.131-.541-1.567-1.978-.977-3.208z"
              fill="#fff" stroke="none"/>
        <path d="m19.223 41.354-1.418.256-.62 1.165.677.364.429-.804.632.343-.428.804.676.367.62-1.164z"
              fill="#d1d1d1" stroke="none"/>
        <path d="m17.534 41.495 1.788-.323.717 1.679.077-.143-.718-1.679-1.788.323z"
              fill="#d1d1d1" stroke="none"/>
        <path d="m20.29 41.358-.357-.191-.297.56.207.472z" fill="#d1d1d1"
              stroke="none"/>
        <path d="m17.134 48.107-2.101-1.432.212-.357 2.102 1.432z"
              fill="#d1d1d1" stroke="none"/>
        <path d="m39.825 58.716-1.386.399-.145-.39 1.387-.399z" fill="#d1d1d1"
              stroke="none"/>
        <path d="m15.302 48.822-1.135-.772.715-1.148 1.136.773z" fill="#d1d1d1"
              stroke="none"/>
        <path d="m43.139 52.716-.952-.469.424-.958.954.47z" fill="#d1d1d1"
              stroke="none"/>
        <path d="m44.39 53.344-.953-.47.425-.958.952.47z" fill="#d1d1d1"
              stroke="none"/>
        <path d="m42.558 53.982-.954-.47.425-.957.954.469z" fill="#d1d1d1"
              stroke="none"/>
        <path d="m43.807 54.609-.953-.469.425-.958.954.469z" fill="#d1d1d1"
              stroke="none"/>
        <path d="m41.914 57.69c.059.263-.33.569-.865.688-.537.118-1.017.002-1.075-.26-.058-.264.331-.57.866-.688.535-.117 1.018 0 1.074.26z"
              fill="#d1d1d1" stroke="none"/>
        <path d="m41.884 58.121-.04.164c-.114.179-.412.344-.76.421-.523.114-.933-.011-.973-.196l-.168.037c.069.313.586.457 1.177.327.396-.088.729-.277.868-.496l.063-.293z"
              fill="#d1d1d1" stroke="none"/>
        <path d="m17.172 51.346c.063-.221.293-.35.515-.287s.35.293.288.515c-.063.221-.293.35-.515.287s-.351-.294-.288-.515z"
              fill="#fff" stroke="none"/>
        <path d="m34.772 59.256c.063-.221.292-.35.514-.287s.35.293.287.515-.293.35-.515.287c-.22-.063-.348-.293-.286-.515z"
              fill="#fff" stroke="none"/>
        <path d="m21.485 42.527c-.126.445.133.91.579 1.036.446.127.912-.134 1.037-.578.126-.446-.134-.912-.58-1.037-.445-.127-.91.134-1.036.579zm.329.093c.075-.264.351-.418.614-.343.264.074.418.35.343.613-.074.264-.35.418-.613.344-.264-.074-.418-.349-.344-.614z"
              fill="#fff" stroke="none"/>
        <path d="m40.274 50.46c.068.209.213.378.407.478l.157-.305c-.114-.058-.198-.157-.238-.278-.039-.12-.028-.249.029-.362l-.306-.156c-.098.193-.115.416-.049.623z"
              fill="#fff" stroke="none"/>
        <path d="m39.98 50.03-.472-.134.042-.156.474.136z" fill="#fff"
              stroke="none"/>
        <path d="m39.97 50.487-.478.123-.039-.155.477-.123z" fill="#fff"
              stroke="none"/>
        <path d="m40.191 50.889-.351.346-.112-.112.35-.348z" fill="#fff"
              stroke="none"/>
        <path d="m34.778 9.511-22.452 40.006s5.504 4.371 12.233 7.427c7.487 3.4 16.28 5.521 16.28 5.521l22.729-42.063z"
              fill="none" stroke="#333"/>
        <path d="m35.171 10.085-16.345 29.123" fill="none" stroke="#808080"/>
        <g stroke="none">
            <path d="m46.157 49.026.603.326 12.861-23.799-.604-.326z"
                  opacity=".3"/>
            <path d="m51.713 38.787.604.325 7.304-13.559-.604-.326z"
                  opacity=".41"/>
            <path d="m42.462 16.534.467-.801s.095-.244.026-.402c-.075-.174-.314-.265-.314-.265l-7.218-2.726s-.256-.119-.431-.079c-.192.047-.305.256-.305.256l-.854 1.464 27.075 10.164.313-.592z"
                  fill="#7f7f7f"/>
            <path d="m33.187 19.284c.78-1.216 2.315-1.623 3.431-.908 1.116.713 1.388 2.279.61 3.495-.779 1.218-2.313 1.625-3.43.911-1.115-.716-1.388-2.281-.611-3.498z"
                  fill="#c4c4c4"/>
            <path d="m41.153 22.401c.779-1.216 2.314-1.623 3.431-.909 1.116.713 1.388 2.28.61 3.496-.779 1.217-2.315 1.624-3.432.911-1.114-.717-1.387-2.28-.609-3.498z"
                  fill="#c4c4c4"/>
            <path d="m49.163 25.746c.778-1.217 2.314-1.624 3.431-.909 1.114.714 1.388 2.28.609 3.496s-2.314 1.624-3.431.911c-1.115-.715-1.389-2.282-.609-3.498z"
                  fill="#c4c4c4"/>
            <path d="m49.163 25.746 2 .997 1.431-1.906c1.114.714 1.388 2.28.609 3.496s-2.314 1.624-3.431.911c-1.115-.715-1.389-2.282-.609-3.498z"
                  fill="#a8a8a8"/>
            <path d="m29.2 26.895c.78-1.217 2.315-1.624 3.43-.909 1.116.714 1.389 2.28.61 3.496s-2.314 1.624-3.431.91c-1.115-.715-1.389-2.28-.609-3.497z"
                  fill="#d9d9d9"/>
            <path d="m37.165 30.012c.779-1.216 2.314-1.624 3.431-.909 1.116.713 1.388 2.28.609 3.496s-2.314 1.624-3.431.91c-1.115-.715-1.387-2.28-.609-3.497z"
                  fill="#b8b8b8"/>
            <path d="m45.174 33.357c.778-1.217 2.314-1.623 3.431-.909 1.114.713 1.388 2.279.608 3.496-.778 1.217-2.314 1.624-3.429.911-1.117-.717-1.389-2.281-.61-3.498z"
                  fill="#c4c4c4"/>
            <path d="m24.998 34.123c.779-1.217 2.314-1.624 3.43-.909 1.116.713 1.389 2.28.61 3.495-.779 1.217-2.315 1.625-3.431.91-1.115-.716-1.388-2.281-.609-3.496z"
                  fill="#c4c4c4"/>
            <path d="m32.963 37.238c.779-1.216 2.314-1.623 3.429-.908 1.116.713 1.389 2.28.61 3.496-.778 1.216-2.314 1.624-3.43.909-1.114-.714-1.387-2.28-.609-3.497z"
                  fill="#d9d9d9"/>
            <path d="m40.972 40.584c.778-1.217 2.313-1.624 3.43-.909 1.116.714 1.388 2.28.609 3.496-.777 1.217-2.313 1.624-3.429.91-1.117-.716-1.388-2.28-.61-3.497z"
                  fill="#bdbdbd"/>
            <path d="m58.842 21.049 1.324.587-1.264.707z" opacity=".6"/>
            <path d="m34.141 21.694c1.267.476 2.578.379 2.885-.702.306-1.082-.359-1.62-.359-1.62l-1.184 2.117z"
                  fill="#adadad"/>
            <path d="m42.6 22.336-.797 1.993 1.715.953 1.306-2.55z"
                  fill="#e3e3e3"/>
            <path d="m37.394 32.072 2.2-2.414 1.379 2.142-1.452-.645z"
                  fill="#d9d9d9"/>
            <path d="m29.695 27.091.113 3.3 3.431-.91-.61-3.496z" fill="#f5f5f5"/>
            <path d="m31.857 27.703-.834-.353.205 1.342-.941.436 1.805-.19z"
                  fill="#a1a1a1"/>
            <path d="m24.561 34.512 4.627-.676-.15 2.873-4.038.379z"
                  fill="#a1a1a1"/>
            <path d="m34.983 38.533 2.593-1.738.063.603-2.172 1.486z"
                  fill="#a1a1a1"/>
            <path d="m41.928 43.279.086-2.778 1.991-.02.237 2.869z"
                  fill="#f5f5f5"/>
            <path d="m43.665 42.508 2.594-1.739.063.603-2.172 1.486z"
                  fill="#a1a1a1"/>
            <path d="m36.111 9.1 1.652-2.751.214.075-.019.12c.197-.083.726.001.603.288l-.946 1.524s-.26.138-.45.071c-.189-.066-.255-.191-.255-.191l-.598.961zm.978-1.106s.055.146.149.18.184-.063.184-.063l.751-1.211s.104-.167-.001-.23c-.106-.063-.295.151-.295.151z"
                  opacity=".49"/>
            <path d="m38.65 7.296.146-.28s.405-.188.548-.138c.142.05.42.3.306.438l-1.06 1.612-.203-.046.063-.104s-.302.071-.409.008c-.107-.062-.306-.158-.009-.588.294-.43.502-.485 1.023-.58l.283-.361s.054-.133-.064-.174c-.119-.042-.285.179-.377.325zm-.44 1.218c-.009.202.312.06.312.06l.406-.747c-.369.225-.709.486-.718.687z"
                  opacity=".49"/>
            <path d="m40.298 6.552.452.159-1.544 2.484-.284-.101 1.361-2.191z"
                  opacity=".49"/>
            <path d="m40.695 7.404.214.076-.076.125s.208-.104.372-.047c.167.059.206.277.206.277.076-.076.281-.08.448-.022.165.06.23.234.165.339-.064.104-.974 1.616-.974 1.616l-.335-.068 1.021-1.599s-.165-.338-.31-.109l-.972 1.566-.31-.11 1.021-1.548s.018-.121-.076-.154c-.096-.034-.268.059-.268.059l-.972 1.566-.31-.109z"
                  opacity=".49"/>
            <path d="m35.861 8.8 1.651-2.752.214.075-.017.121c.195-.083.724 0 .601.288l-.945 1.524s-.261.138-.45.071-.256-.191-.256-.191l-.597.961zm.976-1.106s.055.146.149.179c.095.033.184-.063.184-.063l.752-1.21s.104-.168-.002-.231c-.104-.063-.295.15-.295.15z"
                  fill="#fff"/>
            <path d="m38.399 6.996.146-.281s.404-.187.547-.137.42.301.306.438l-1.059 1.612-.202-.046.064-.104s-.305.071-.41.008c-.108-.062-.306-.158-.01-.587.294-.432.503-.486 1.023-.582l.282-.36s.055-.133-.063-.174c-.119-.042-.285.179-.378.325zm-.44 1.218c-.008.201.312.06.312.06l.407-.748c-.372.226-.71.488-.719.688z"
                  fill="#fff"/>
            <path d="m40.047 6.252.451.159-1.543 2.484-.285-.1 1.362-2.192z"
                  fill="#fff"/>
            <path d="m40.444 7.104.214.076-.079.124s.21-.104.375-.047c.166.059.204.276.204.276.077-.075.284-.079.449-.021.165.059.23.234.166.339-.064.104-.976 1.616-.976 1.616l-.334-.067 1.021-1.6s-.165-.337-.309-.108l-.973 1.566-.31-.109 1.021-1.55s.019-.12-.076-.153c-.098-.034-.269.058-.269.058l-.972 1.566-.309-.109z"
                  fill="#fff"/>
        </g>
    </g>
</svg>