<?xml version="1.0" encoding="UTF-8" standalone="no"?>
<!DOCTYPE svg PUBLIC "-//W3C//DTD SVG 20010904//EN"
"http://www.w3.org/TR/2001/REC-SVG-20010904/DTD/svg10.dtd">
<!-- Created with Sodipodi ("http://www.sodipodi.com/") -->
<svg
   width="48pt"
   height="48pt"
   viewBox="0 0 76.147 78.717"
   overflow="visible"
   enable-background="new 0 0 76.147 78.717"
   xml:space="preserve"
   xmlns="http://www.w3.org/2000/svg"
   xmlns:xml="http://www.w3.org/XML/1998/namespace"
   xmlns:sodipodi="http://sodipodi.sourceforge.net/DTD/sodipodi-0.dtd"
   xmlns:xlink="http://www.w3.org/1999/xlink"
   id="svg153"
   sodipodi:version="0.32pre"
   sodipodi:docname="/home/cschalle/gnome-themes-extras/Wasp/icons/scalable/devices/gnome-dev-palm.svg"
   sodipodi:docbase="/home/cschalle/gnome-themes-extras/Wasp/icons/scalable/devices">
  <defs
     id="defs254" />
  <sodipodi:namedview
     id="base" />
  <g
     id="Layer_1"
     stroke="#000000">
    <g
       id="Layer_1_2_">
      <path
         stroke="none"
         d="M32.735,0.353L31.314,0l-0.635,1.316c-0.064,0.131-6.376,13.181-13.435,25.989     C9.505,41.353,0.76,55.635,0.672,55.777L0,56.872l0.817,0.991c0.299,0.363,7.458,8.957,17.49,13.644c0,0,0.142,0.062,0.34,0.146     c0.111,0.051,2.223,1.037,2.223,1.037c10.063,4.694,22.54,5.861,23.064,5.908l1.308,0.118l0.514-1.209     c0.061-0.139,5.997-14.122,13.23-27.979c7.65-14.658,16.747-28.299,16.838-28.437l0.203-0.303l0.067-0.359     c0.058-0.297,0.294-1.846-0.643-3.085c-0.013-0.018-0.034-0.038-0.049-0.057c0.076-0.117-1.497-1.279-1.497-1.279     c-0.088-0.047-2.01-1.077-5.049-2.562c-0.642-1.345-3.553-2.381-3.554-2.382c0,0-2.263-0.84-3.175-0.745     C59.387,9.106,56.73,8,54.24,7.053C44.071,3.188,33.192,0.467,32.735,0.353z"
         id="path156" />
      <linearGradient
         id="XMLID_1_"
         gradientUnits="userSpaceOnUse"
         x1="-183.6753"
         y1="389.4326"
         x2="-195.5838"
         y2="340.7641"
         gradientTransform="matrix(0.9622 0.2723 0.2723 -0.9622 136.9128 439.8242)">
        <stop
           offset="0"
           style="stop-color:#5E5E5E"
           id="stop158" />
        <stop
           offset="0.5475"
           style="stop-color:#1F1F1F"
           id="stop159" />
        <stop
           offset="1"
           style="stop-color:#5E5E5E"
           id="stop160" />
      </linearGradient>
      <path
         fill="url(#XMLID_1_)"
         stroke="none"
         d="M21.633,71.06c9.968,4.651,22.467,5.747,22.467,5.747s5.938-14.023,13.292-28.111     C65.179,33.774,74.33,20.093,74.33,20.093s0.415-2.144-1.54-2.241L21.633,71.06z"
         id="path166" />
      <linearGradient
         id="XMLID_2_"
         gradientUnits="userSpaceOnUse"
         x1="-198.7319"
         y1="326.3789"
         x2="-211.0575"
         y2="391.4302"
         gradientTransform="matrix(0.9622 0.2723 0.2723 -0.9622 136.9128 439.8242)">
        <stop
           offset="0"
           style="stop-color:#D6D6D6"
           id="stop168" />
        <stop
           offset="0.3243"
           style="stop-color:#D2D2D2"
           id="stop169" />
        <stop
           offset="0.6904"
           style="stop-color:#C4C4C4"
           id="stop170" />
        <stop
           offset="1"
           style="stop-color:#B3B3B3"
           id="stop171" />
      </linearGradient>
      <path
         fill="url(#XMLID_2_)"
         stroke-width="1.1413"
         stroke-linejoin="round"
         d="M55.735,47.007     c-7.354,14.089-12.988,28.655-12.988,28.655s-13.21-0.894-23.677-5.785C9.289,65.308,2.206,56.718,2.206,56.718     s8.765-14.294,16.615-28.542C25.987,15.171,32.3,2.1,32.3,2.1s11.109,2.761,21.3,6.637c10.186,3.873,19.454,8.859,19.454,8.859     S63.523,32.086,55.735,47.007z"
         id="path179" />
      <path
         fill="none"
         stroke-width="1.1413"
         d="M6.635,55.074c0.354-1.248,1.651-1.974,2.899-1.62c1.247,0.353,1.973,1.65,1.62,2.898     c-0.353,1.247-1.65,1.972-2.898,1.619C7.008,57.618,6.283,56.321,6.635,55.074z"
         id="path180" />
      <path
         fill="#4D4D4D"
         stroke="none"
         d="M7.107,54.888c0.251-0.886,1.172-1.401,2.058-1.151c0.886,0.251,1.402,1.173,1.151,2.06     c-0.251,0.887-1.174,1.401-2.06,1.15C7.372,56.697,6.857,55.775,7.107,54.888z"
         id="path181" />
      <path
         fill="#4D4D4D"
         stroke="none"
         d="M13.45,59.716c0.25-0.888,1.173-1.402,2.059-1.151c0.887,0.251,1.402,1.172,1.151,2.06     c-0.251,0.887-1.173,1.401-2.06,1.15C13.714,61.523,13.199,60.603,13.45,59.716z"
         id="path182" />
      <path
         fill="#4D4D4D"
         stroke="none"
         d="M27.512,65.843c0.251-0.887,1.173-1.401,2.06-1.151c0.885,0.251,1.401,1.173,1.15,2.06     c-0.25,0.887-1.173,1.401-2.059,1.15C27.777,67.651,27.262,66.729,27.512,65.843z"
         id="path183" />
      <path
         fill="#4D4D4D"
         stroke="none"
         d="M21.388,61.614c0.211-0.743,1.1-1.144,1.986-0.893c0.887,0.25,1.435,1.058,1.224,1.802     c-0.211,0.745-1.101,1.145-1.987,0.893C21.725,63.166,21.177,62.36,21.388,61.614z"
         id="path184" />
      <path
         fill="#4D4D4D"
         stroke="none"
         d="M19.645,65.545c0.21-0.744,1.101-1.145,1.986-0.894c0.886,0.25,1.435,1.058,1.224,1.802     c-0.211,0.744-1.101,1.145-1.987,0.894C19.982,67.096,19.435,66.289,19.645,65.545z"
         id="path185" />
      <path
         fill="#4D4D4D"
         stroke="none"
         d="M35.987,68.494c0.251-0.887,1.172-1.403,2.058-1.151c0.886,0.251,1.402,1.173,1.15,2.06     c-0.25,0.886-1.173,1.401-2.059,1.15S35.736,69.38,35.987,68.494z"
         id="path186" />
      <path
         fill="none"
         stroke-width="1.1413"
         d="M13.037,59.936c0.353-1.247,1.651-1.973,2.899-1.619s1.973,1.65,1.62,2.898     c-0.353,1.247-1.651,1.972-2.898,1.619C13.41,62.48,12.685,61.184,13.037,59.936z"
         id="path187" />
      <path
         fill="none"
         stroke-width="1.1413"
         d="M27.163,66.067c0.353-1.248,1.65-1.972,2.897-1.62     c1.248,0.354,1.973,1.651,1.62,2.899c-0.353,1.248-1.651,1.972-2.898,1.618C27.535,68.612,26.809,67.315,27.163,66.067z"
         id="path188" />
      <path
         fill="none"
         stroke="#6E6E6E"
         stroke-width="1.1413"
         d="M25.182,62.903c0.73-1.072,0.114-2.569-1.045-3.151     s-2.571-0.115-3.152,1.044c-0.738,1.229-1.581,3.411-1.89,4.386c-0.492,1.199,0.084,2.57,1.283,3.063     c1.201,0.49,2.51-0.111,3.062-1.283C23.951,65.877,24.741,63.547,25.182,62.903z"
         id="path189" />
      <path
         fill="none"
         stroke-width="1.1413"
         d="M35.593,68.606c0.353-1.248,1.651-1.974,2.898-1.621     c1.248,0.354,1.974,1.651,1.621,2.898c-0.354,1.248-1.65,1.973-2.898,1.619C35.966,71.15,35.24,69.854,35.593,68.606z"
         id="path190" />
      <path
         fill="#FFFFFF"
         stroke-width="1.1413"
         d="M34.778,9.511L12.326,49.517c0,0,5.504,4.371,12.233,7.427     c7.487,3.4,16.28,5.521,16.28,5.521l22.729-42.063L34.778,9.511z"
         id="path191" />
      <path
         fill="#BABABA"
         stroke="none"
         d="M18.306,39.161l-5.98,10.355c0,0,5.504,4.371,12.233,7.427     c7.487,3.4,16.28,5.521,16.28,5.521l6.135-10.981L18.306,39.161z"
         id="path192" />
      <path
         fill="none"
         stroke="#696969"
         stroke-width="1.1413"
         d="M18.306,39.161l28.29,12.122"
         id="path193" />
      <path
         fill="#454545"
         stroke="none"
         d="M62.044,11.924l-0.661,0.832l0.086-0.107c-0.317,1.118,0.778,2.34,2.549,2.841     c0.661,0.188,2.859,0.694,3.387-0.632l-0.016-0.908c-0.314-0.688-1.213-1.005-2.457-1.444l-0.088-0.032l-0.653-0.242     C63.313,11.897,62.622,11.632,62.044,11.924z"
         id="path194" />
      <path
         fill="#CCCCCC"
         stroke="none"
         d="M62.063,12.871c0.204-0.72,1.281-0.373,2.604,0.094c1.332,0.471,2.294,1.025,2.036,1.677     c-0.232,0.588-1.489,0.529-2.563,0.225C62.789,14.485,61.859,13.591,62.063,12.871z"
         id="path195" />
      <path
         fill="#FFFFFF"
         stroke="none"
         d="M16.226,51.703l0.3,0.166l5.491-10.001l10.994,4.795l0.12,1.081l1.112-0.542l6.854,2.989     l-5.484,10.317l0.302,0.161l5.659-10.644L21.867,41.43L16.226,51.703z"
         id="path196" />
      <path
         fill="#FFFFFF"
         stroke="none"
         d="M17.113,41.504c0.49-1.023,1.647-1.488,2.586-1.04c0.938,0.45,1.301,1.644,0.811,2.667     c-0.49,1.022-1.649,1.488-2.586,1.039C16.986,43.721,16.624,42.526,17.113,41.504z"
         id="path197" />
      <path
         fill="#FFFFFF"
         stroke="none"
         d="M14.117,47.061c0.491-1.023,1.647-1.487,2.586-1.038c0.938,0.45,1.301,1.643,0.812,2.666     c-0.491,1.022-1.649,1.487-2.587,1.039C13.99,49.277,13.627,48.083,14.117,47.061z"
         id="path198" />
      <path
         fill="#FFFFFF"
         stroke="none"
         d="M41.228,52.01c0.569-1.189,1.914-1.729,3.004-1.207c1.09,0.521,1.511,1.908,0.941,3.097     c-0.569,1.187-1.914,1.729-3.004,1.205C41.08,54.585,40.659,53.196,41.228,52.01z"
         id="path199" />
      <path
         fill="#FFFFFF"
         stroke="none"
         d="M38.161,57.533c0.591-1.232,1.983-1.792,3.112-1.251c1.131,0.541,1.566,1.979,0.978,3.208     c-0.591,1.232-1.985,1.792-3.113,1.251C38.007,60.2,37.571,58.763,38.161,57.533z"
         id="path200" />
      <path
         fill="#D1D1D1"
         stroke="none"
         d="M19.223,41.354l-1.418,0.256l-0.62,1.165l0.677,0.364l0.429-0.804l0.632,0.343     l-0.428,0.804l0.676,0.367l0.62-1.164L19.223,41.354z"
         id="path201" />
      <path
         fill="#D1D1D1"
         stroke="none"
         d="M17.534,41.495l1.788-0.323l0.717,1.679l0.077-0.143l-0.718-1.679l-1.788,0.323     L17.534,41.495z"
         id="path202" />
      <path
         fill="#D1D1D1"
         stroke="none"
         d="M20.29,41.358l-0.357-0.191l-0.297,0.56l0.207,0.472L20.29,41.358z"
         id="path203" />
      <path
         fill="#D1D1D1"
         stroke="none"
         d="M17.134,48.107l-2.101-1.432l0.212-0.357l2.102,1.432L17.134,48.107z"
         id="path204" />
      <path
         fill="#D1D1D1"
         stroke="none"
         d="M39.825,58.716l-1.386,0.399l-0.145-0.39l1.387-0.399L39.825,58.716z"
         id="path205" />
      <path
         fill="#D1D1D1"
         stroke="none"
         d="M15.302,48.822l-1.135-0.772l0.715-1.148l1.136,0.773L15.302,48.822z"
         id="path206" />
      <path
         fill="#D1D1D1"
         stroke="none"
         d="M43.139,52.716l-0.952-0.469l0.424-0.958l0.954,0.47L43.139,52.716z"
         id="path207" />
      <path
         fill="#D1D1D1"
         stroke="none"
         d="M44.39,53.344l-0.953-0.47l0.425-0.958l0.952,0.47L44.39,53.344z"
         id="path208" />
      <path
         fill="#D1D1D1"
         stroke="none"
         d="M42.558,53.982l-0.954-0.47l0.425-0.957l0.954,0.469L42.558,53.982z"
         id="path209" />
      <path
         fill="#D1D1D1"
         stroke="none"
         d="M43.807,54.609l-0.953-0.469l0.425-0.958l0.954,0.469L43.807,54.609z"
         id="path210" />
      <path
         fill="#D1D1D1"
         stroke="none"
         d="M41.914,57.69c0.059,0.263-0.33,0.569-0.865,0.688c-0.537,0.118-1.017,0.002-1.075-0.26     c-0.058-0.264,0.331-0.57,0.866-0.688C41.375,57.313,41.858,57.43,41.914,57.69z"
         id="path211" />
      <path
         fill="#D1D1D1"
         stroke="none"
         d="M41.884,58.121l-0.04,0.164c-0.114,0.179-0.412,0.344-0.76,0.421     c-0.523,0.114-0.933-0.011-0.973-0.196l-0.168,0.037c0.069,0.313,0.586,0.457,1.177,0.327c0.396-0.088,0.729-0.277,0.868-0.496     l0.063-0.293L41.884,58.121z"
         id="path212" />
      <path
         fill="#FFFFFF"
         stroke="none"
         d="M17.172,51.346c0.063-0.221,0.293-0.35,0.515-0.287s0.35,0.293,0.288,0.515     c-0.063,0.221-0.293,0.35-0.515,0.287C17.238,51.798,17.109,51.567,17.172,51.346z"
         id="path213" />
      <path
         fill="#FFFFFF"
         stroke="none"
         d="M34.772,59.256c0.063-0.221,0.292-0.35,0.514-0.287s0.35,0.293,0.287,0.515     c-0.063,0.222-0.293,0.35-0.515,0.287C34.838,59.708,34.71,59.478,34.772,59.256z"
         id="path214" />
      <path
         fill="#FFFFFF"
         stroke="none"
         d="M21.485,42.527c-0.126,0.445,0.133,0.91,0.579,1.036c0.446,0.127,0.912-0.134,1.037-0.578     c0.126-0.446-0.134-0.912-0.58-1.037C22.076,41.821,21.611,42.082,21.485,42.527z M21.814,42.62     c0.075-0.264,0.351-0.418,0.614-0.343c0.264,0.074,0.418,0.35,0.343,0.613c-0.074,0.264-0.35,0.418-0.613,0.344     C21.894,43.16,21.74,42.885,21.814,42.62z"
         id="path215" />
      <path
         fill="#FFFFFF"
         stroke="none"
         d="M40.274,50.46c0.068,0.209,0.213,0.378,0.407,0.478l0.157-0.305     c-0.114-0.058-0.198-0.157-0.238-0.278c-0.039-0.12-0.028-0.249,0.029-0.362l-0.306-0.156     C40.225,50.03,40.208,50.253,40.274,50.46z"
         id="path216" />
      <path
         fill="#FFFFFF"
         stroke="none"
         d="M39.98,50.03l-0.472-0.134l0.042-0.156l0.474,0.136L39.98,50.03z"
         id="path217" />
      <path
         fill="#FFFFFF"
         stroke="none"
         d="M39.97,50.487l-0.478,0.123l-0.039-0.155l0.477-0.123L39.97,50.487z"
         id="path218" />
      <path
         fill="#FFFFFF"
         stroke="none"
         d="M40.191,50.889l-0.351,0.346l-0.112-0.112l0.35-0.348L40.191,50.889z"
         id="path219" />
      <path
         fill="none"
         stroke="#333333"
         d="M34.778,9.511L12.326,49.517c0,0,5.504,4.371,12.233,7.427     c7.487,3.4,16.28,5.521,16.28,5.521l22.729-42.063L34.778,9.511z"
         id="path220" />
      <path
         fill="none"
         stroke="#808080"
         d="M35.171,10.085L18.826,39.208"
         id="path221" />
      <path
         opacity="0.3"
         stroke="none"
         d="M46.157,49.026l0.603,0.326l12.861-23.799l-0.604-0.326L46.157,49.026z"
         id="path222" />
      <path
         opacity="0.41"
         stroke="none"
         d="M51.713,38.787l0.604,0.325l7.304-13.559l-0.604-0.326L51.713,38.787z"
         id="path223" />
      <path
         fill="#7F7F7F"
         stroke="none"
         d="M42.462,16.534l0.467-0.801c0,0,0.095-0.244,0.026-0.402     c-0.075-0.174-0.314-0.265-0.314-0.265l-7.218-2.726c0,0-0.256-0.119-0.431-0.079c-0.192,0.047-0.305,0.256-0.305,0.256     l-0.854,1.464l27.075,10.164l0.313-0.592L42.462,16.534z"
         id="path224" />
      <path
         fill="#C4C4C4"
         stroke="none"
         d="M33.187,19.284c0.78-1.216,2.315-1.623,3.431-0.908c1.116,0.713,1.388,2.279,0.61,3.495     c-0.779,1.218-2.313,1.625-3.43,0.911C32.683,22.066,32.41,20.501,33.187,19.284z"
         id="path225" />
      <path
         fill="#C4C4C4"
         stroke="none"
         d="M41.153,22.401c0.779-1.216,2.314-1.623,3.431-0.909c1.116,0.713,1.388,2.28,0.61,3.496     c-0.779,1.217-2.315,1.624-3.432,0.911C40.648,25.182,40.375,23.619,41.153,22.401z"
         id="path226" />
      <path
         fill="#C4C4C4"
         stroke="none"
         d="M49.163,25.746c0.778-1.217,2.314-1.624,3.431-0.909c1.114,0.714,1.388,2.28,0.609,3.496     c-0.779,1.216-2.314,1.624-3.431,0.911C48.657,28.529,48.383,26.962,49.163,25.746z"
         id="path227" />
      <path
         fill="#A8A8A8"
         stroke="none"
         d="M49.163,25.746l2,0.997l1.431-1.906c1.114,0.714,1.388,2.28,0.609,3.496     c-0.779,1.216-2.314,1.624-3.431,0.911C48.657,28.529,48.383,26.962,49.163,25.746z"
         id="path228" />
      <path
         fill="#D9D9D9"
         stroke="none"
         d="M29.2,26.895c0.78-1.217,2.315-1.624,3.43-0.909c1.116,0.714,1.389,2.28,0.61,3.496     c-0.779,1.216-2.314,1.624-3.431,0.91C28.694,29.677,28.42,28.112,29.2,26.895z"
         id="path229" />
      <path
         fill="#B8B8B8"
         stroke="none"
         d="M37.165,30.012c0.779-1.216,2.314-1.624,3.431-0.909c1.116,0.713,1.388,2.28,0.609,3.496     s-2.314,1.624-3.431,0.91C36.659,32.794,36.387,31.229,37.165,30.012z"
         id="path230" />
      <path
         fill="#C4C4C4"
         stroke="none"
         d="M45.174,33.357c0.778-1.217,2.314-1.623,3.431-0.909c1.114,0.713,1.388,2.279,0.608,3.496     c-0.778,1.217-2.314,1.624-3.429,0.911C44.667,36.138,44.395,34.574,45.174,33.357z"
         id="path231" />
      <path
         fill="#C4C4C4"
         stroke="none"
         d="M24.998,34.123c0.779-1.217,2.314-1.624,3.43-0.909c1.116,0.713,1.389,2.28,0.61,3.495     c-0.779,1.217-2.315,1.625-3.431,0.91C24.492,36.903,24.219,35.338,24.998,34.123z"
         id="path232" />
      <path
         fill="#D9D9D9"
         stroke="none"
         d="M32.963,37.238c0.779-1.216,2.314-1.623,3.429-0.908c1.116,0.713,1.389,2.28,0.61,3.496     c-0.778,1.216-2.314,1.624-3.43,0.909C32.458,40.021,32.185,38.455,32.963,37.238z"
         id="path233" />
      <path
         fill="#BDBDBD"
         stroke="none"
         d="M40.972,40.584c0.778-1.217,2.313-1.624,3.43-0.909c1.116,0.714,1.388,2.28,0.609,3.496     c-0.777,1.217-2.313,1.624-3.429,0.91C40.465,43.365,40.194,41.801,40.972,40.584z"
         id="path234" />
      <path
         opacity="0.6"
         stroke="none"
         d="M58.842,21.049l1.324,0.587l-1.264,0.707L58.842,21.049z"
         id="path235" />
      <path
         fill="#ADADAD"
         stroke="none"
         d="M34.141,21.694c1.267,0.476,2.578,0.379,2.885-0.702c0.306-1.082-0.359-1.62-0.359-1.62     l-1.184,2.117L34.141,21.694z"
         id="path236" />
      <path
         fill="#E3E3E3"
         stroke="none"
         d="M42.6,22.336l-0.797,1.993l1.715,0.953l1.306-2.55L42.6,22.336z"
         id="path237" />
      <path
         fill="#D9D9D9"
         stroke="none"
         d="M37.394,32.072l2.2-2.414l1.379,2.142l-1.452-0.645L37.394,32.072z"
         id="path238" />
      <path
         fill="#F5F5F5"
         stroke="none"
         d="M29.695,27.091l0.113,3.3l3.431-0.91l-0.61-3.496L29.695,27.091z"
         id="path239" />
      <path
         fill="#A1A1A1"
         stroke="none"
         d="M31.857,27.703l-0.834-0.353l0.205,1.342l-0.941,0.436l1.805-0.19L31.857,27.703z"
         id="path240" />
      <path
         fill="#A1A1A1"
         stroke="none"
         d="M24.561,34.512l4.627-0.676l-0.15,2.873L25,37.088L24.561,34.512z"
         id="path241" />
      <path
         fill="#A1A1A1"
         stroke="none"
         d="M34.983,38.533l2.593-1.738l0.063,0.603l-2.172,1.486L34.983,38.533z"
         id="path242" />
      <path
         fill="#F5F5F5"
         stroke="none"
         d="M41.928,43.279l0.086-2.778l1.991-0.02l0.237,2.869L41.928,43.279z"
         id="path243" />
      <path
         fill="#A1A1A1"
         stroke="none"
         d="M43.665,42.508l2.594-1.739l0.063,0.603l-2.172,1.486L43.665,42.508z"
         id="path244" />
      <path
         opacity="0.49"
         stroke="none"
         d="M36.111,9.1l1.652-2.751l0.214,0.075l-0.019,0.12c0.197-0.083,0.726,0.001,0.603,0.288     l-0.946,1.524c0,0-0.26,0.138-0.45,0.071c-0.189-0.066-0.255-0.191-0.255-0.191l-0.598,0.961L36.111,9.1z M37.089,7.994     c0,0,0.055,0.146,0.149,0.18s0.184-0.063,0.184-0.063l0.751-1.211c0,0,0.104-0.167-0.001-0.23     c-0.106-0.063-0.295,0.151-0.295,0.151L37.089,7.994z"
         id="path245" />
      <path
         opacity="0.49"
         stroke="none"
         d="M38.65,7.296l0.146-0.28c0,0,0.405-0.188,0.548-0.138c0.142,0.05,0.42,0.3,0.306,0.438     l-1.06,1.612l-0.203-0.046l0.063-0.104c0,0-0.302,0.071-0.409,0.008c-0.107-0.062-0.306-0.158-0.009-0.588     c0.294-0.43,0.502-0.485,1.023-0.58l0.283-0.361c0,0,0.054-0.133-0.064-0.174c-0.119-0.042-0.285,0.179-0.377,0.325L38.65,7.296z      M38.21,8.514c-0.009,0.202,0.312,0.06,0.312,0.06l0.406-0.747C38.559,8.052,38.219,8.313,38.21,8.514z"
         id="path246" />
      <path
         opacity="0.49"
         stroke="none"
         d="M40.298,6.552l0.452,0.159l-1.544,2.484l-0.284-0.101l1.361-2.191L40.298,6.552z"
         id="path247" />
      <path
         opacity="0.49"
         stroke="none"
         d="M40.695,7.404l0.214,0.076l-0.076,0.125c0,0,0.208-0.104,0.372-0.047     c0.167,0.059,0.206,0.277,0.206,0.277c0.076-0.076,0.281-0.08,0.448-0.022c0.165,0.06,0.23,0.234,0.165,0.339     C41.96,8.256,41.05,9.768,41.05,9.768L40.715,9.7l1.021-1.599c0,0-0.165-0.338-0.31-0.109l-0.972,1.566l-0.31-0.11L41.165,7.9     c0,0,0.018-0.121-0.076-0.154c-0.096-0.034-0.268,0.059-0.268,0.059l-0.972,1.566l-0.31-0.109L40.695,7.404z"
         id="path248" />
      <path
         fill="#FFFFFF"
         stroke="none"
         d="M35.861,8.8l1.651-2.752l0.214,0.075l-0.017,0.121c0.195-0.083,0.724,0,0.601,0.288     l-0.945,1.524c0,0-0.261,0.138-0.45,0.071c-0.189-0.067-0.256-0.191-0.256-0.191l-0.597,0.961L35.861,8.8z M36.837,7.694     c0,0,0.055,0.146,0.149,0.179c0.095,0.033,0.184-0.063,0.184-0.063L37.922,6.6c0,0,0.104-0.168-0.002-0.231     c-0.104-0.063-0.295,0.15-0.295,0.15L36.837,7.694z"
         id="path249" />
      <path
         fill="#FFFFFF"
         stroke="none"
         d="M38.399,6.996l0.146-0.281c0,0,0.404-0.187,0.547-0.137s0.42,0.301,0.306,0.438     l-1.059,1.612l-0.202-0.046l0.064-0.104c0,0-0.305,0.071-0.41,0.008c-0.108-0.062-0.306-0.158-0.01-0.587     c0.294-0.432,0.503-0.486,1.023-0.582l0.282-0.36c0,0,0.055-0.133-0.063-0.174c-0.119-0.042-0.285,0.179-0.378,0.325     L38.399,6.996z M37.959,8.214c-0.008,0.201,0.312,0.06,0.312,0.06l0.407-0.748C38.306,7.752,37.968,8.014,37.959,8.214z"
         id="path250" />
      <path
         fill="#FFFFFF"
         stroke="none"
         d="M40.047,6.252l0.451,0.159l-1.543,2.484l-0.285-0.1l1.362-2.192L40.047,6.252z"
         id="path251" />
      <path
         fill="#FFFFFF"
         stroke="none"
         d="M40.444,7.104l0.214,0.076l-0.079,0.124c0,0,0.21-0.104,0.375-0.047     c0.166,0.059,0.204,0.276,0.204,0.276c0.077-0.075,0.284-0.079,0.449-0.021c0.165,0.059,0.23,0.234,0.166,0.339     c-0.064,0.104-0.976,1.616-0.976,1.616L40.463,9.4l1.021-1.6c0,0-0.165-0.337-0.309-0.108l-0.973,1.566l-0.31-0.109l1.021-1.55     c0,0,0.019-0.12-0.076-0.153c-0.098-0.034-0.269,0.058-0.269,0.058L39.596,9.07l-0.309-0.109L40.444,7.104z"
         id="path252" />
    </g>
  </g>
</svg>
