
<svg enable-background="new 0 0 8.405 10.342" height="10.342"
     viewBox="0 0 8.405 10.342" width="8.405" xmlns="http://www.w3.org/2000/svg"
     xmlns:xlink="http://www.w3.org/1999/xlink">
    <linearGradient id="a"
                    gradientTransform="matrix(72 0 0 -72 21116.5195 30471.9863)"
                    gradientUnits="userSpaceOnUse" x1="-293.2578" x2="-293.1753"
                    y1="423.1401" y2="423.2108">
        <stop offset="0" stop-color="#74757f"/>
        <stop offset="1" stop-color="#bebfcd"/>
    </linearGradient>
    <linearGradient id="b" gradientUnits="userSpaceOnUse" x1="6.7354"
                    x2="3.2242" y1="1.3335" y2="4.8447">
        <stop offset=".0056" stop-color="#fff"/>
        <stop offset=".9663" stop-color="#17a7ca"/>
        <stop offset="1" stop-color="#c9c9c8"/>
    </linearGradient>
    <linearGradient id="c">
        <stop offset="0" stop-color="#74757f"/>
        <stop offset="1" stop-color="#c8c9d5"/>
    </linearGradient>
    <linearGradient id="d"
                    gradientTransform="matrix(72 0 0 -72 21116.5195 30471.9863)"
                    gradientUnits="userSpaceOnUse" x1="-293.1533" x2="-293.2448"
                    xlink:href="#c" y1="423.1567" y2="423.2177"/>
    <linearGradient id="e"
                    gradientTransform="matrix(72 0 0 -72 21116.5195 30471.9863)"
                    gradientUnits="userSpaceOnUse" x1="-293.1953" x2="-293.2288"
                    xlink:href="#c" y1="423.1128" y2="423.1351"/>
    <linearGradient id="f"
                    gradientTransform="matrix(72 0 0 -72 21116.5195 30471.9863)"
                    gradientUnits="userSpaceOnUse" x1="-293.2417" x2="-293.2209"
                    y1="423.0698" y2="423.1448">
        <stop offset="0" stop-color="#9a9999"/>
        <stop offset="1" stop-color="#e5e4e4"/>
    </linearGradient>
    <linearGradient id="g">
        <stop offset="0" stop-color="#525151"/>
        <stop offset="1" stop-color="#c9c9c8"/>
    </linearGradient>
    <linearGradient id="h"
                    gradientTransform="matrix(72 0 0 -72 21116.5195 30471.9863)"
                    gradientUnits="userSpaceOnUse" x1="-293.249" x2="-293.2369"
                    xlink:href="#g" y1="423.0884" y2="423.1321"/>
    <linearGradient id="i"
                    gradientTransform="matrix(72 0 0 -72 21116.5195 30471.9863)"
                    gradientUnits="userSpaceOnUse" x1="-293.2104" x2="-293.2026"
                    xlink:href="#g" y1="423.0835" y2="423.1116"/>
    <g stroke-linecap="round" stroke-linejoin="round">
        <path d="m5.226 8.225c.776-.563 1.625-.854 2.636-.543-.73-.441-1.225-.937-1.196-1.553l-.502.002c-.173.921-.554 1.674-.938 2.094z"
              fill="#74757f" stroke="#4c4c4c" stroke-width=".003"/>
        <path d="m6.949.86c-.712-.112-1.396-.221-2.053-.324-.629-.1-1.235-.195-1.817-.288-.234-.036-.435.193-.451.509-.03.596-.062 1.194-.092 1.789-.029.594-.06 1.187-.091 1.779-.015.312.157.626.387.699.573.184 1.17.374 1.79.572.646.205 1.319.42 2.02.644.297.095.563-.122.583-.483.04-.687.08-1.376.12-2.064.04-.69.081-1.383.121-2.077.02-.366-.215-.708-.517-.756z"
              fill="url(#a)" stroke="#4c4c4c" stroke-width=".003"/>
        <path d="m6.555 1.261c-.58-.1-1.14-.196-1.682-.289-.522-.09-1.029-.177-1.52-.262-.198-.034-.369.156-.382.42-.026.501-.051 1.002-.077 1.501-.025.498-.051.995-.078 1.494-.012.262.133.524.329.584.484.147.985.301 1.501.458.534.164 1.087.332 1.659.505.241.075.455-.107.471-.403.033-.561.065-1.126.097-1.689.032-.564.065-1.13.098-1.698.016-.299-.172-.579-.416-.621z"
              fill="url(#b)" stroke="#333" stroke-width=".003"/>
        <path d="m3.079.249 1.008-.217c.223-.035.445-.042.669-.009l3.297.532c.233.198.382.406.344.638l-.254 4.076c-.052.282-.118.456-.319.564l-.881.394c.174-.126.268-.283.281-.471l.241-4.141c.005-.356-.168-.607-.516-.755z"
              fill="url(#d)" stroke="#4c4c4c" stroke-width=".003"/>
        <path d="m5.458 5.905c-.171.908-.53 1.608-1.227 1.935l.994.385c.508-.363.663-1.09.938-2.094z"
              fill="url(#e)" stroke="#4c4c4c" stroke-width=".003"/>
        <path d="m4.231 7.84c.424-.379.73-.75.377-1.077.408-.107.707-.37.85-.858-.074.824-.483 1.47-1.227 1.935z"
              fill="#cecbe3" stroke="#4c4c4c" stroke-width=".003"/>
        <path d="m3.578.328 3.371.532c.346.11.518.362.517.755l-.241 4.141"
              fill="none" stroke="#afb0be" stroke-width=".003"/>
        <path d="m4.401.458 2.548.402c.346.11.518.362.517.755l-.12 2.07"
              fill="none" stroke="#d1d3db" stroke-width=".003"/>
        <path d="m5.774.675 1.175.185c.346.11.518.362.517.755l-.078 1.328"
              fill="none" stroke="#f0f0f3" stroke-width=".003"/>
        <path d="m4.756.023 3.297.532c.247.183.379.392.343.638l-.253 4.076c-.012.247-.12.435-.319.564l-.881.394-.301.013c-.006.435.449.921 1.22 1.442-.886-.275-1.765-.094-2.636.543l-.995-.385c.516-.405.694-.77.377-1.077.396-.151.731-.376.85-.858l-2.626-.881c-.304-.209-.432-.443-.387-.699l.183-3.568c-.013-.308.137-.477.451-.508l1.008-.217z"
              fill="none" stroke="#4c4c4c" stroke-width=".0067"/>
    </g>
    <path d="m.272 8.397 5.029 1.932c.217.028.435-.001.651-.097l1.719-1.511c.136-.215-.023-.43-.14-.645l-5.527-1.812c-.276-.028-.479.07-.607.295-.21.47-.745.943-1.394 1.415-.002.187.033.324.269.423z"
          fill="url(#f)" stroke="#4c4c4c" stroke-width=".003"/>
    <path d="m1.84 6.78c.556.185 1.13.38 1.722.578.613.205 1.248.418 1.905.638-.215.212-.43.424-.647.637-.217.212-.434.429-.652.642-.64-.244-1.258-.482-1.855-.709-.577-.22-1.136-.433-1.677-.64.203-.192.404-.384.606-.575.199-.191.399-.381.598-.571z"
          fill="url(#h)" stroke="#4c4c4c" stroke-width=".003"/>
    <path d="m5.853 8.127c.312.104.624.209.946.314-.222.22-.442.44-.664.662-.221.223-.446.446-.669.668-.311-.118-.619-.237-.921-.352.22-.217.439-.433.658-.649.217-.215.434-.43.65-.643z"
          fill="url(#i)" stroke="#4c4c4c" stroke-width=".003"/>
    <path d="m2.243 8.708 2.882 1.148c.241.1.468.058.688-.079l1.449-1.261"
          fill="none" stroke="#e5e4e4" stroke-width=".003"/>
    <path d="m.272 8.397 5.029 1.932c.217.028.435-.001.651-.097l1.719-1.511c.136-.215-.023-.43-.14-.645l-5.527-1.812c-.276-.028-.479.07-.607.295-.21.47-.745.943-1.394 1.415-.002.187.033.324.269.423z"
          fill="none" stroke="#4c4c4c" stroke-width=".0067"/>
</svg>