
<svg clip-rule="evenodd" fill-rule="evenodd" height=".24in"
     image-rendering="optimizeQuality" shape-rendering="geometricPrecision"
     text-rendering="geometricPrecision" viewBox="0 0 .24 .24" width=".24in"
     xmlns="http://www.w3.org/2000/svg"
     xmlns:xlink="http://www.w3.org/1999/xlink">
    <linearGradient id="a">
        <stop offset="0" stop-color="#999"/>
        <stop offset="1" stop-color="#e5e5e5"/>
    </linearGradient>
    <linearGradient id="b" gradientUnits="userSpaceOnUse" x1=".164669"
                    x2=".155614" xlink:href="#a" y1=".143409" y2=".207654"/>
    <linearGradient id="c" gradientUnits="userSpaceOnUse" x1="-.005228"
                    x2=".124366" y1=".011654" y2=".164803">
        <stop offset="0" stop-color="#ccc"/>
        <stop offset="1" stop-color="#e5e5e5"/>
    </linearGradient>
    <linearGradient id="d" gradientUnits="userSpaceOnUse" x1=".042532"
                    x2=".13924" xlink:href="#b" y1=".108677" y2=".070689"/>
    <linearGradient id="e" gradientUnits="userSpaceOnUse" x1="-.014146"
                    x2=".089618" xlink:href="#b" y1=".155846" y2=".042039"/>
    <linearGradient id="f" gradientUnits="userSpaceOnUse" x1=".021827"
                    x2=".042386" xlink:href="#b" y1=".068626" y2=".029224"/>
    <linearGradient id="g" gradientUnits="userSpaceOnUse" x1=".022532"
                    x2=".043508" xlink:href="#b" y1=".087311" y2=".047106"/>
    <linearGradient id="h" gradientUnits="userSpaceOnUse" x1=".084201"
                    x2=".092335" xlink:href="#a" y1=".230839" y2=".201571"/>
    <linearGradient id="i" gradientUnits="userSpaceOnUse" x1=".055228"
                    x2=".077524" xlink:href="#h" y1=".246902" y2=".166642"/>
    <linearGradient id="j" gradientUnits="userSpaceOnUse" x1=".049008"
                    x2=".062598" xlink:href="#h" y1=".22735" y2=".178413"/>
    <linearGradient id="k" gradientUnits="userSpaceOnUse" x1=".180114"
                    x2=".065382" xlink:href="#b" y1=".065693" y2=".180425"/>
    <linearGradient id="l" gradientUnits="userSpaceOnUse" x1=".186197"
                    x2=".17437" xlink:href="#b" y1=".15452" y2=".048047"/>
    <linearGradient id="m" gradientUnits="userSpaceOnUse" x1=".153783"
                    x2=".125823" xlink:href="#b" y1=".188933" y2=".04913"/>
    <linearGradient id="n" gradientUnits="userSpaceOnUse" x1=".123122"
                    x2=".119461" xlink:href="#b" y1=".192378" y2=".159394"/>
    <radialGradient id="o" cx=".044634" cy=".144291"
                    gradientUnits="userSpaceOnUse" r=".00698">
        <stop offset="0" stop-color="#ff9"/>
        <stop offset="1" stop-color="#0f0"/>
    </radialGradient>
    <radialGradient id="p" cx=".031713" cy=".131843"
                    gradientUnits="userSpaceOnUse" r=".00698">
        <stop offset="0" stop-color="#ff9"/>
        <stop offset="1" stop-color="#f60"/>
    </radialGradient>
    <radialGradient id="q" cx=".160043" cy=".089087"
                    gradientUnits="userSpaceOnUse" r=".050209">
        <stop offset="0" stop-color="#fff"/>
        <stop offset=".988235" stop-color="#7fe5ff"/>
        <stop offset="1" stop-color="#0cf"/>
    </radialGradient>
    <g stroke-width=".003">
        <g visibility="hidden">
            <path d="m.0879843.0587087c-.00005118-.00517717.00361811-.010189.00646457-.0119764.0131181-.00662598.0464331-.0229331.0464488-.0238228 0 0-.00239764.117083-.00266535.123051-.00062598.00070866-.023315.0214488-.0418661.0294646-.00174803.00109449-.00383071-.00022835-.00387402-.00459843"
                  fill="none" stroke="#999" stroke-linejoin="bevel"/>
            <path d="m.092492.170827-.004508-.112118" fill="none" stroke="#999"
                  stroke-linejoin="bevel"/>
            <path d="m.088689.118331-.001087-.057083" fill="none"
                  stroke="#e0e0e0" stroke-linecap="round"
                  stroke-linejoin="round"/>
            <path d="m.0876024.061248c-.00094882-.00509055.00120079-.0100945.00369685-.0123465.00538583-.0033937.016815-.00889764.0219252-.0116535"
                  fill="none" stroke="#e0e0e0" stroke-linecap="round"
                  stroke-linejoin="round"/>
            <path d="m.09035.172531-.003023-.111858" fill="none"
                  stroke="#f4f4f4" stroke-linecap="round"
                  stroke-linejoin="round"/>
            <path d="m.0873268.0606732c.00005118-.00517717-.0046378-.0102362-.00748819-.0120236-.0104094-.00263386-.0207087-.0050315-.0207087-.0050315"
                  fill="none" stroke="#f4f4f4" stroke-linecap="round"
                  stroke-linejoin="round"/>
            <path d="m.043752.154181-.007618-.104756" fill="none" stroke="#333"/>
            <path d="m.0361339.0494252s-.00058661-.00772047.00334646-.0129291c.00356299-.00470866.0468268-.0207717.0468268-.0207717.00537402-.00238189.0110197-.0009685.0110197-.0009685"
                  fill="none" stroke="#333"/>
            <path d="m.097327.014756.038614.004689" fill="none" stroke="#333"/>
            <path d="m.135941.0194449c.00409055.00049606.00543307.00873622.00543307.00873622"
                  fill="none" stroke="#333"/>
            <path d="m.141374.028181-.003378.109878" fill="none" stroke="#333"/>
            <path d="m.137996.138059s.00042126.00862205-.00494882.0123858c-.00122835.00308661-.0326693.0229016-.0326693.0229016s-.00479134.00412205-.0132953.00235827c-.0085-.00175984-.0392795-.0146614-.0390827-.0148898-.00164173-.0011811-.0030315-.00331102-.00424803-.00663386"
                  fill="none" stroke="#333"/>
            <path d="m.072.151157c-.00072441-.00357874.00111811-.00666142.00411024-.00688583.00299606-.00022047.00601181.00249606.00673228.00607874.00072441.00357874-.00111417.00666142-.00411024.00688583-.00299213.00022047-.00600787-.0025-.00673228-.00607874"
                  fill="none" stroke="#666"/>
            <path d="m.0398583.0450551.0428582.0088622.0007166.0178347-.042378-.0099331z"
                  fill="none" stroke="#1f1a17"/>
            <path d="m.0415354.0637362.0416575.0099331.0007165.0178346-.0411771-.0106496z"
                  fill="none" stroke="#1f1a17"/>
            <path d="m.0482402.10348.0207086.005989v.00311l-.0207086-.005988z"
                  fill="#333" stroke="#1f1a17"/>
            <path d="m.0482402.10348.0207086.005989v.00311l-.0207086-.005988z"
                  fill="none" stroke="#1f1a17"/>
            <path d="m.0606024.139685c-.00044882-.00223228.00069685-.00415748.00256693-.00429528.00186614-.0001378.00374803.00155906.00419685.00379134.00045276.00223228-.00069685.00415354-.00256299.00429528-.00186614.0001378-.00374803-.00155906-.00420079-.00379134z"
                  fill="#c30" stroke="#000"/>
            <path d="m.0671772.141665c-.00079528.00064173-.00181102.0010315-.00291339.0010315-.00098819 0-.00190551-.00031102-.00265748-.00084252-.00047638-.00061024-.00083858-.00135039-.00100394-.00216929-.00044882-.00223228.00069685-.00415748.00256693-.00429528.00186614-.0001378.00374803.00155906.00419685.00379134.00018504.00091339.0001063.00177559-.00018898.00248425z"
                  fill="#c30" stroke="#000"/>
            <path d="m.0607835.138055c0-.0005.00011024-.00097638.00029921-.00140551.00046457-.00072047.00119291-.00119291.00208661-.00125984.00186614-.0001378.00374803.00155906.00419685.00379134.00002362.00011024.00004331.00022047.00005906.00033071-.00055118.00119291-.00175984.00202362-.00316142.00202362-.00192126 0-.00348031-.00155906-.00348031-.00348031z"
                  fill="#c30" stroke="#000"/>
            <path d="m.0625236.138055c0-.00096063.00077953-.00174016.00174016-.00174016s.00174016.00077953.00174016.00174016-.00077953.00174016-.00174016.00174016-.00174016-.00077953-.00174016-.00174016z"
                  fill="#f60" stroke="#000"/>
            <path d="m.0606024.139685c-.00044882-.00223228.00069685-.00415748.00256693-.00429528.00186614-.0001378.00374803.00155906.00419685.00379134.00045276.00223228-.00069685.00415354-.00256299.00429528-.00186614.0001378-.00374803-.00155906-.00420079-.00379134"
                  fill="none" stroke="#666"/>
            <path d="m.155425.14239-.00088189.0252638-.0204252.0112283s-.0028937.00202362-.00294094.00343307c-.00005118.00140945.00588976.00316929.00588976.00316929l.0255591-.00623622.0228031.0100669.00540551-.00366142s.00085827-.00209449-.0009685-.00372835c-.00182283-.00163386-.0159252-.0117126-.0159252-.0117126l.00035827-.0217441-.018874-.00607874z"
                  fill="#069" stroke="#1f1a17"/>
            <path d="m.155425.14239-.000882.025264-.020425.011228" fill="none"
                  stroke="#1f1a17"/>
            <path d="m.134118.178882s-.0028937.00202362-.00294094.00343307c-.00005118.00140945.00588976.00316929.00588976.00316929"
                  fill="none" stroke="#1f1a17"/>
            <path d="m.137067.185484.025559-.006236.022803.010067.005406-.003661"
                  fill="none" stroke="#1f1a17"/>
            <path d="m.190835.185654s.00085827-.00209449-.0009685-.00372835c-.00182283-.00163386-.0159252-.0117126-.0159252-.0117126"
                  fill="none" stroke="#1f1a17"/>
            <path d="m.173941.170213.000358-.021744-.018874-.006079" fill="none"
                  stroke="#1f1a17"/>
            <path d="m.13135.182201c.00004724-.00140945.00294094-.00343307.00294094-.00343307l.0200906-.0110512.00387008.00137008-.0213622.0117283s-.00021654.00273228-.00026378.00414173c-.00005118.00140945-.00527559-.00275591-.00527559-.00275591z"
                  fill="#6693ab" stroke="#1f1a17"/>
            <path d="m.13135.182201c.00004724-.00140945.00294094-.00343307.00294094-.00343307"
                  fill="none" stroke="#4c819d"/>
            <path d="m.134291.178768.020091-.011051.00387.00137-.021362.011728"
                  fill="none" stroke="#4c819d"/>
            <path d="m.13689.180815s-.00021654.00273228-.00026378.00414173c-.00005118.00140945-.00527559-.00275591-.00527559-.00275591"
                  fill="none" stroke="#4c819d"/>
            <path d="m.185992.189181s.00046457-.00392126-.0013622-.00555512-.0159252-.0117126-.0159252-.0117126l.00035827-.0217441.00530709-.00122441-.00035827.0217402s.0141024.0100827.0159252.0117165c.00182677.00162992.00090945.00294094.00090945.00294094l-.00485433.00383858z"
                  fill="#a3c8da" stroke="#1f1a17"/>
            <path d="m.185992.189181s.00046457-.00392126-.0013622-.00555512-.0159252-.0117126-.0159252-.0117126"
                  fill="none" stroke="#7fa4b9"/>
            <path d="m.168705.171913.000358-.021744.005307-.001224-.000358.02174"
                  fill="none" stroke="#7fa4b9"/>
            <path d="m.174012.170685s.0141024.0100827.0159252.0117165c.00182677.00162992.00090945.00294094.00090945.00294094"
                  fill="none" stroke="#7fa4b9"/>
            <path d="m.190846.185343-.004854.003838" fill="none"
                  stroke="#7fa4b9"/>
            <path d="m.155425.14239-.000882.025264-.020425.011228" fill="none"
                  stroke="#333"/>
            <path d="m.134118.178882s-.0028937.00202362-.00294094.00343307c-.00005118.00140945.00588976.00316929.00588976.00316929"
                  fill="none" stroke="#333"/>
            <path d="m.137067.185484.025559-.006236.022803.010067.005406-.003661"
                  fill="none" stroke="#333"/>
            <path d="m.190835.185654s.00085827-.00209449-.0009685-.00372835c-.00182283-.00163386-.0159252-.0117126-.0159252-.0117126"
                  fill="none" stroke="#333"/>
            <path d="m.173941.170213.000358-.021744-.018874-.006079" fill="none"
                  stroke="#333"/>
            <g stroke="#000">
                <path d="m.201126.0835984.00400394.00616535c-.00000394.00011417-.00000394.00023228-.00001575.00035039l-.00018504.00272047-.00628346-.00967323.00185039.0002874c.00021654.00003543.0004252.00008661.00062992.00014961z"
                      fill="#fff"/>
                <path d="m.20513.0897598-.00400394-.00616142c.00234252.00072441.00405512.00331102.00400394.00616142z"
                      fill="#fff"/>
                <path d="m.125465.135067.00474409.00730709-.0013189-.00042126c-.00201969-.00064173-.00355906-.00329921-.00346063-.00594882l.00003543-.00093701z"
                      fill="#069"/>
                <path d="m.125638.130409.008598.013248-.004027-.001283-.004744-.007307z"
                      fill="#005776"/>
                <path d="m.125811.125756.012457.019181-.004028-.00128-.008602-.013248z"
                      fill="#025a78"/>
                <path d="m.125984.121094.016315.025126-.004031-.001283-.012457-.019181z"
                      fill="#195d7b"/>
                <path d="m.126157.116441.020174.031059-.004032-.00128-.016315-.025126z"
                      fill="#25607d"/>
                <path d="m.126331.111783.024031.037-.004031-.001279-.020174-.031063z"
                      fill="#2e637f"/>
                <path d="m.126508.107126.027886.042941-.004032-.001284-.024031-.037z"
                      fill="#366683"/>
                <path d="m.126681.102469.03174.048881-.004027-.001283-.027886-.042941z"
                      fill="#3d6985"/>
                <path d="m.126854.097811.035599.054819-.004032-.00128-.03174-.048881z"
                      fill="#446d88"/>
                <path d="m.127028.0931575.039456.0607555-.004031-.001283-.035599-.054819z"
                      fill="#4a708b"/>
                <path d="m.127201.0884961.043315.0667009-.004032-.001284-.039456-.0607595z"
                      fill="#4f738e"/>
                <path d="m.127374.0838425.047169.0726335-.004027-.001279-.043315-.0667009z"
                      fill="#557691"/>
                <path d="m.127776.0795354.0507992.0782244-.0040315-.00128346-.0471693-.0726339.00012205-.00330315c.00000787-.00023622.00009843-.00058268.00027953-.00100394z"
                      fill="#5b7a95"/>
                <path d="m.129441.0771732.0531654.0818701-.0040315-.00128346-.0507992-.0782244c.00029528-.00067323.00083071-.00152756.00166535-.0023622z"
                      fill="#607e97"/>
                <path d="m.131587.0755512.0548622.0844843c-.00045276.00000394-.00082677-.00003543-.00109843-.00012205l-.00274409-.00087008-.0531654-.0818701c.00056693-.00056693.00127953-.00112992.00214567-.00162205z"
                      fill="#66829b"/>
                <path d="m.134102.0745039.055311.0851732c-.00114567.00022441-.00217323.00035433-.00296457.00035827l-.0548622-.0844843c.00072441-.00040945.00155906-.00077165.00251575-.00104724z"
                      fill="#6b859e"/>
                <path d="m.136976.0740039.0552008.0850039c-.00094882.00027165-.00188976.0005-.00276378.00066929l-.055311-.0851732c.00085827-.00024409.00181496-.00042126.00287402-.0005z"
                      fill="#718aa1"/>
                <path d="m.140197.0740433.054622.0841063c-.00086221.0003189-.00175591.0006063-.00264173.00085827l-.0552008-.0850039c.00098032-.0000748.00205118-.00007087.00322047.00003937z"
                      fill="#768da5"/>
                <path d="m.143724.0745472.0536063.0825433c-.00076772.00037402-.00162205.00073228-.00251181.00105906l-.054622-.0841063c.0004685.00004331.00095669.00010236.00145669.00017717l.00207087.00032677z"
                      fill="#7b91a9"/>
                <path d="m.147283.0751063.0523386.0805906c-.00059055.00047638-.00138189.00094882-.00229134.0013937l-.0536063-.0825433.00355906.00055906z"
                      fill="#8196ac"/>
                <path d="m.150846.0756654.0499724.0769528-.00009843.00148031c-.00003543.00052756-.00044488.00106693-.00109843.00159843l-.0523386-.0805906.00356299.00055906z"
                      fill="#869ab0"/>
                <path d="m.154406.0762244.04672.0719406-.000307.004453-.049973-.0769526z"
                      fill="#8d9fb5"/>
                <path d="m.157969.0767795.043464.0669335-.000307.004452-.04672-.0719406z"
                      fill="#94a4b8"/>
                <path d="m.161528.0773386.040212.0619214-.000307.004453-.043464-.0669335z"
                      fill="#9aa9bd"/>
                <path d="m.165087.0778976.036956.0569094-.000303.004453-.040212-.0619214z"
                      fill="#a1afc2"/>
                <path d="m.16865.0784567.0337.0518933-.000307.004457-.036956-.0569094z"
                      fill="#a7b4c6"/>
                <path d="m.172209.0790157.030448.0468863-.000307.004448-.0337-.0518933z"
                      fill="#afbacc"/>
                <path d="m.175768.0795748.027197.0418702-.000308.004457-.030448-.0468863z"
                      fill="#b8c2d1"/>
                <path d="m.179331.0801299.023937.0368621-.000303.004453-.027193-.0418702z"
                      fill="#c0c9d7"/>
                <path d="m.18289.080689.020685.03185-.000307.004453-.023937-.0368621z"
                      fill="#c9d1de"/>
                <path d="m.186453.081248.017429.026839-.000307.004452-.020685-.03185z"
                      fill="#d4d9e4"/>
                <path d="m.190012.0818071.014173.0218269-.000303.004453-.017429-.026839z"
                      fill="#dee3eb"/>
                <path d="m.193575.0823661.010917.016815-.000307.0044529-.014173-.0218269z"
                      fill="#eaedf3"/>
                <path d="m.197134.0829213.007665.0118031-.000307.0044567-.010917-.016815z"
                      fill="#f5f7f9"/>
                <path d="m.200701.0834921.00440551.00678346-.00030709.00444882-.00766535-.0118031.0033622.00052756c.00007087.00001181.0001378.00002756.00020472.00004331z"
                      fill="#fff"/>
            </g>
            <path d="m.141654.074221.058842.009228" fill="none" stroke="#666"/>
            <path d="m.200496.0834488c.00275984.00043307.00484252.0034252.00461811.00666535"
                  fill="none" stroke="#666"/>
            <path d="m.205114.090114-.004394.063984" fill="none" stroke="#666"/>
            <path d="m.20072.154098c-.00020866.00304331-.0127323.00665748-.0153701.00581496"
                  fill="none" stroke="#666"/>
            <path d="m.18535.159913-.05646-.01796" fill="none" stroke="#666"/>
            <path d="m.12889.141953c-.00201969-.00064173-.00355906-.00329921-.00346063-.00594882"
                  fill="none" stroke="#666"/>
            <path d="m.125429.136004.002067-.055465" fill="none" stroke="#666"/>
            <path d="m.127496.0805394c.00005906-.00152362.0035-.00798819.0141575-.0063189"
                  fill="none" stroke="#666"/>
            <path d="m.127323.0839646c-.00003543-.00344882.00197638-.00590157.0047126-.00545276l.0576732.00947638c.00327559.00053937.00327953.00377953.0031063.00755906l-.00405118.0590276c-.00015748.0034252-.00279921.00552756-.00588189.00472441l-.0523543-.016752c-.00260236-.0006811-.00472047-.00377165-.00475591-.0069252l.00155118-.0516575z"
                  fill="#069" stroke="#1f1a17"/>
            <path d="m.127323.0839646c-.00003543-.00344882.00197638-.00590157.0047126-.00545276"
                  fill="none" stroke="#6693ab"/>
            <path d="m.132035.078512.057674.009476" fill="none" stroke="#6693ab"/>
            <path d="m.189709.0879882c.00327559.00053937.00327953.00377953.0031063.00755906"
                  fill="none" stroke="#6693ab"/>
            <path d="m.192815.095547-.004051.059028" fill="none"
                  stroke="#6693ab"/>
            <path d="m.188764.154575c-.00015748.0034252-.00279921.00552756-.00588189.00472441"
                  fill="none" stroke="#6693ab"/>
            <path d="m.182882.159299-.052354-.016752" fill="none"
                  stroke="#6693ab"/>
            <path d="m.130528.142547c-.00260236-.0006811-.00472047-.00377165-.00475591-.0069252"
                  fill="none" stroke="#6693ab"/>
            <path d="m.125772.135622.001551-.051657" fill="none"
                  stroke="#6693ab"/>
            <path d="m.141654.074221.058842.009228" fill="none" stroke="#333"/>
            <path d="m.200496.0834488c.00275984.00043307.00484252.0034252.00461811.00666535"
                  fill="none" stroke="#333"/>
            <path d="m.205114.090114-.004394.063984" fill="none" stroke="#333"/>
            <path d="m.20072.154098c-.00020866.00304331-.0127323.00665748-.0153701.00581496"
                  fill="none" stroke="#333"/>
            <path d="m.18535.159913-.05646-.01796" fill="none" stroke="#333"/>
            <path d="m.12889.141953c-.00201969-.00064173-.00355906-.00329921-.00346063-.00594882"
                  fill="none" stroke="#333"/>
            <path d="m.125429.136004.002067-.055465" fill="none" stroke="#333"/>
            <path d="m.127496.0805394c.00005906-.00152362.0035-.00798819.0141575-.0063189"
                  fill="none" stroke="#333"/>
            <path d="m.202941.086626-.005063.001236" fill="none"
                  stroke="#7fa4b9"/>
            <path d="m.197878.0878622c-.00278346.00024016-.00507087.0030748-.0050748.00632283"
                  fill="none" stroke="#7fa4b9"/>
            <path d="m.192803.094185-.003457.04876" fill="none" stroke="#7fa4b9"/>
            <path d="m.148543.080874.039555.00639" fill="none" stroke="#b2c8d5"/>
            <path d="m.188098.0872638c.00563386.00088583.00462598.00655118.00461811.00666142"
                  fill="none" stroke="#b2c8d5"/>
            <path d="m.192717.093925-.003784.056398" fill="none"
                  stroke="#b2c8d5"/>
            <path d="m.130039.0865906c-.0000315-.00302362.00173228-.00517323.00412992-.00477953"
                  fill="none" stroke="#1f1a17"/>
            <path d="m.134169.081811.050504.008949" fill="none" stroke="#1f1a17"/>
            <path d="m.184673.0907598c.00287402.00047638.00287402.00331496.00272441.00662992"
                  fill="none" stroke="#1f1a17"/>
            <path d="m.187398.09739-.003555.051748" fill="none" stroke="#1f1a17"/>
            <path d="m.183843.149138c-.00013386.003-.00244882.00484252-.00515354.0041378"
                  fill="none" stroke="#1f1a17"/>
            <path d="m.178689.153276-.046016-.013878" fill="none"
                  stroke="#1f1a17"/>
            <path d="m.132673.139398c-.00227559-.00059449-.00413386-.00330709-.00416535-.00607087"
                  fill="none" stroke="#1f1a17"/>
            <path d="m.128508.133327.001531-.046736" fill="none"
                  stroke="#1f1a17"/>
            <path d="m.0517087.175906c.00119685-.00239764.00522835-.0048189.0071811-.0040748l.0652441.0250236c.00204724.00077953.00168898.00646063.00170079.00888189l-.0197323.0179173c-.00330315.00275984-.00567717.00213386-.00770866.00133465l-.0599646-.0237205c-.00193701-.00076378-.00456693-.00282283-.0031811-.00585039.00744488-.00663386.0129331-.0131417.0164606-.0195118z"
                  fill="#ccc" stroke="#1f1a17"/>
            <path d="m.0517087.175906c.00119685-.00239764.00522835-.0048189.0071811-.0040748"
                  fill="none" stroke="#1f1a17"/>
            <path d="m.05889.171831.065244.025023" fill="none" stroke="#1f1a17"/>
            <path d="m.124134.196854c.00204724.00077953.00168898.00646063.00170079.00888189"
                  fill="none" stroke="#1f1a17"/>
            <path d="m.125835.205736-.019733.017918" fill="none"
                  stroke="#1f1a17"/>
            <path d="m.106102.223654c-.00330315.00275984-.00567717.00213386-.00770866.00133465"
                  fill="none" stroke="#1f1a17"/>
            <path d="m.098394.224988-.059965-.02372" fill="none"
                  stroke="#1f1a17"/>
            <path d="m.0384291.201268c-.00193701-.00076378-.00456693-.00282283-.0031811-.00585039.00744488-.00663386.0129331-.0131417.0164606-.0195118"
                  fill="none" stroke="#1f1a17"/>
            <path d="m.122457.20087-.018457.019039" fill="none" stroke="#b2b2b2"
                  stroke-linecap="round"/>
            <path d="m.104.219909c-.00330315.00276378-.00567717.0021378-.00770472.00133465"
                  fill="none" stroke="#b2b2b2" stroke-linecap="round"/>
            <path d="m.096295.221244-.054539-.021933" fill="none"
                  stroke="#b2b2b2" stroke-linecap="round"/>
            <path d="m.115346.208331-.011346.011578" fill="none" stroke="#fff"
                  stroke-linecap="round" stroke-linejoin="round"/>
            <path d="m.104.219909c-.00330315.00276378-.00567717.0021378-.00770472.00133465"
                  fill="none" stroke="#fff" stroke-linecap="round"
                  stroke-linejoin="round"/>
            <path d="m.096295.221244-.016362-.006425" fill="none" stroke="#fff"
                  stroke-linecap="round" stroke-linejoin="round"/>
            <path d="m.0517087.175906c.00119685-.00239764.00522835-.0048189.0071811-.0040748"
                  fill="none" stroke="#333"/>
            <path d="m.05889.171831.065244.025023" fill="none" stroke="#333"/>
            <path d="m.124134.196854c.00204724.00077953.00168898.00646063.00170079.00888189"
                  fill="none" stroke="#333"/>
            <path d="m.125835.205736-.019733.017918" fill="none" stroke="#333"/>
            <path d="m.106102.223654c-.00330315.00275984-.00567717.00213386-.00770866.00133465"
                  fill="none" stroke="#333"/>
            <path d="m.098394.224988-.059965-.02372" fill="none" stroke="#333"/>
            <path d="m.0384291.201268c-.00193701-.00076378-.00456693-.00282283-.0031811-.00585039.0081063-.00765748.0135945-.0141654.0164606-.0195118"
                  fill="none" stroke="#333"/>
            <path d="m.0846299.209547-.0426142-.016638.0000945.000052z"
                  fill="#515151" stroke="#1f1a17"/>
            <path d="m.0846299.209547-.0426142-.016638.0000945.000052z"
                  fill="none" stroke="#515151"/>
            <path d="m.0846299.209547-.0425197-.016586.0425315.016602z"
                  fill="#515151" stroke="#1f1a17"/>
            <path d="m.0846299.209547-.0425197-.016586.0425315.016602z"
                  fill="none" stroke="#515151"/>
            <path d="m.100551.192909-.0034132.004083-.0000158.000043z"
                  fill="#909090" stroke="#1f1a17"/>
            <path d="m.100551.192909-.0034132.004083-.0000158.000043z"
                  fill="none" stroke="#909090"/>
            <path d="m.100551.192909-.003429.004126.003406-.004074z"
                  fill="#909090" stroke="#1f1a17"/>
            <path d="m.100551.192909-.003429.004126.003406-.004074z" fill="none"
                  stroke="#909090"/>
            <path d="m.0971378.196992-.0032992.003709-.0000079.000031z"
                  fill="#8e8e8e" stroke="#1f1a17"/>
            <path d="m.0971378.196992-.0032992.003709-.0000079.000031z"
                  fill="none" stroke="#8e8e8e"/>
            <path d="m.0971378.196992-.0033071.00374.0032913-.003697z"
                  fill="#8e8e8e" stroke="#1f1a17"/>
            <path d="m.0971378.196992-.0033071.00374.0032913-.003697z"
                  fill="none" stroke="#8e8e8e"/>
            <path d="m.0938386.200701-.0031851.003327v.000027z" fill="#8c8c8c"
                  stroke="#1f1a17"/>
            <path d="m.0938386.200701-.0031851.003327v.000027z" fill="none"
                  stroke="#8c8c8c"/>
            <path d="m.0938386.200701-.0031851.003354.0031772-.003323z"
                  fill="#8c8c8c" stroke="#1f1a17"/>
            <path d="m.0938386.200701-.0031851.003354.0031772-.003323z"
                  fill="none" stroke="#8c8c8c"/>
            <path d="m.0906535.204028-.0030669.002948.000004.000024z"
                  fill="#8a8a8a" stroke="#1f1a17"/>
            <path d="m.0906535.204028-.0030669.002948.000004.000024z"
                  fill="none" stroke="#8a8a8a"/>
            <path d="m.0906535.204028-.0030629.002972.0030629-.002945z"
                  fill="#8a8a8a" stroke="#1f1a17"/>
            <path d="m.0906535.204028-.0030629.002972.0030629-.002945z"
                  fill="none" stroke="#8a8a8a"/>
            <path d="m.0875866.206976-.0029567.002571.0000118.000016z"
                  fill="#878787" stroke="#1f1a17"/>
            <path d="m.0875866.206976-.0029567.002571.0000118.000016z"
                  fill="none" stroke="#878787"/>
            <path d="m.0875866.206976-.0029449.002587.0029489-.002563z"
                  fill="#878787" stroke="#1f1a17"/>
            <path d="m.0875866.206976-.0029449.002587.0029489-.002563z"
                  fill="none" stroke="#878787"/>
            <path d="m.100551.192909c-.00483071.00594882-.00998819.0117598-.0159213.0166378"
                  fill="none" stroke="#1f1a17"/>
            <path d="m.08463.209547-.042614-.016638" fill="none"
                  stroke="#1f1a17"/>
            <path d="m.0420157.192909c.00554331-.00493307.0104173-.0106378.0142402-.0170039"
                  fill="none" stroke="#1f1a17"/>
            <path d="m.056256.175906.044295.017003" fill="none" stroke="#1f1a17"/>
            <path d="m.100035.215382-.0127515-.004976.0000748.000051z"
                  fill="#3d3d3d" stroke="#1f1a17"/>
            <path d="m.100035.215382-.0127515-.004976.0000748.000051z"
                  fill="none" stroke="#3d3d3d"/>
            <path d="m.100035.215382-.0126767-.004925.0127247.004968z"
                  fill="#3d3d3d" stroke="#1f1a17"/>
            <path d="m.100035.215382-.0126767-.004925.0127247.004968z"
                  fill="none" stroke="#3d3d3d"/>
            <path d="m.116756.198925-.002264.002418.000016.00007z"
                  fill="#696969" stroke="#1f1a17"/>
            <path d="m.116756.198925-.002264.002418.000016.00007z" fill="none"
                  stroke="#696969"/>
            <path d="m.116756.198925-.002248.002488.002264-.002413z"
                  fill="#696969" stroke="#1f1a17"/>
            <path d="m.116756.198925-.002248.002488.002264-.002413z" fill="none"
                  stroke="#696969"/>
            <path d="m.114492.201343-.003953.003952.000028.000063z"
                  fill="#686868" stroke="#1f1a17"/>
            <path d="m.114492.201343-.003953.003952.000028.000063z" fill="none"
                  stroke="#686868"/>
            <path d="m.114492.201343-.003925.004015.003941-.003945z"
                  fill="#686868" stroke="#1f1a17"/>
            <path d="m.114492.201343-.003925.004015.003941-.003945z" fill="none"
                  stroke="#686868"/>
            <path d="m.110539.205295-.004492.004394.000036.000055z"
                  fill="#676767" stroke="#1f1a17"/>
            <path d="m.110539.205295-.004492.004394.000036.000055z" fill="none"
                  stroke="#676767"/>
            <path d="m.110539.205295-.004456.004449.004484-.004386z"
                  fill="#676767" stroke="#1f1a17"/>
            <path d="m.110539.205295-.004456.004449.004484-.004386z" fill="none"
                  stroke="#676767"/>
            <path d="m.106047.209689-.003882.003732.00004.000044z"
                  fill="#676767" stroke="#1f1a17"/>
            <path d="m.106047.209689-.003882.003732.00004.000044z" fill="none"
                  stroke="#676767"/>
            <path d="m.106047.209689-.003842.003776.003878-.003721z"
                  fill="#676767" stroke="#1f1a17"/>
            <path d="m.106047.209689-.003842.003776.003878-.003721z" fill="none"
                  stroke="#676767"/>
            <path d="m.102165.213421-.00213.001961.000048.000043z" fill="#666"
                  stroke="#1f1a17"/>
            <path d="m.102165.213421-.00213.001961.000048.000043z" fill="none"
                  stroke="#666"/>
            <path d="m.102165.213421-.002082.002004.002122-.00196z" fill="#666"
                  stroke="#1f1a17"/>
            <path d="m.102165.213421-.002082.002004.002122-.00196z" fill="none"
                  stroke="#666"/>
            <path d="m.116756.198925c-.00462205.00566929-.0110709.0117913-.0167205.0164567"
                  fill="none" stroke="#1f1a17"/>
            <path d="m.100035.215382-.012751-.004976" fill="none"
                  stroke="#1f1a17"/>
            <path d="m.0872835.210406c.00607874-.00475197.011374-.0105945.0162205-.0165669"
                  fill="none" stroke="#1f1a17"/>
            <path d="m.103504.193839.013252.005086" fill="none" stroke="#1f1a17"/>
        </g>
        <path d="m.0546929.00503543c.00432677-.00070866.0081811-.00104724.011563-.00102756l.0452638.00614567c.00347638.00277953.0028189.00342913.00312992.00674803l.00065748.111969c-.00011024.00427953-.00104724.00865748-.00520472.0129882l-.0384528.0273543c-.00465354.00243701-.00931102.00325591-.0139567.0024685l-.0409882-.0155984c-.00236614-.00146457-.00385827-.00379134-.00448031-.00697638l-.00799213-.109898c-.00040158-.00478346-.00000787-.0102992.00354724-.0135591.015185-.00884646.0299567-.0147323.0469134-.0206142z"
              fill="url(#c)" stroke="#4c4c4c" stroke-linecap="round"
              stroke-linejoin="round"/>
        <path d="m.0716496.169213-.00517717-.123228c-.00015748-.00527165.00128346-.0103898.00622835-.0152087l.0388189-.020622c.00392126.00253937.00294882.00763386.00305512.0111339l.00073228.107583c.00014961.00512205-.00200394.00927165-.00520472.0129882l-.0384528.0273543z"
              fill="url(#d)" stroke="#b2b2b2"/>
        <path d="m.0693543.114504-.00288189-.0685197c-.00015748-.00527165.00128346-.0103898.00622835-.0152087l.0169331-.00899213"
              fill="none" stroke="#ccc"/>
        <path d="m.0167047.156083c-.00292913-.00218898-.00442126-.00451575-.00448031-.00697638l-.00799213-.109898c-.00040945-.00564961.00066929-.0103504.00354724-.0135591l.0483701.00904331c.00506693.00190157.00850787.00566535.0103228.0112913l.00517717.123228c-.00372835.00220079-.00838583.00301969-.0139567.0024685l-.0409882-.0155984z"
              fill="url(#e)" stroke="#ccc"/>
        <path d="m.0689173.104043-.00244488-.0580591c-.00015748-.00527165.00128346-.0103898.00622835-.0152087l.00846457-.00449213"
              fill="none" stroke="#e5e5e5"/>
        <path d="m.0103346.0352205.0012717.0175866.0422756.0098228-.0007677-.0187244z"
              fill="url(#f)" stroke="#4c4c4c"/>
        <path d="m.0116063.0528071.0015472.0174055.0412835.0114016-.0005551-.0189843z"
              fill="url(#g)" stroke="#4c4c4c"/>
        <path d="m.0169409.0959094.0002874.003067.0214528.0064806v-.003276z"
              fill="#4c4c4c" stroke="#4c4c4c"/>
        <ellipse fill="url(#o)" rx=".005606" ry=".006976" stroke="#4c4c4c"
                 transform="matrix(.871682 -.583757 .583757 .871682 .047566 .145499)"/>
        <ellipse fill="url(#p)" rx=".005606" ry=".006976" stroke="#4c4c4c"
                 transform="matrix(.557741 -.373513 .373513 .557741 .033587 .132617)"/>
        <path d="m.0319646.0301732.024185.00451969c.00506693.00190157.00850787.00566535.0103228.0112913l.00205118.0488228"
              fill="none" stroke="#e5e5e5"/>
        <path d="m.0440591.0324331.0120906.00225984c.00506693.00190157.00850787.00566535.0103228.0112913l.00089764.0213898"
              fill="none" stroke="#fff"/>
        <path d="m.0319646.0301732.024185.00451969c.00506693.00190157.00850787.00566535.0103228.0112913l.00205118.0488228"
              fill="none" stroke="#e5e5e5"/>
        <path d="m.0460906.032811.0100591.00188189c.00506693.00190157.00850787.00566535.0103228.0112913l.00117323.0278622"
              fill="none" stroke="#fff"/>
    </g>
    <path d="m.0546929.00503543c.00432677-.00070866.0081811-.00104724.011563-.00102756l.0452638.00614567c.00347638.00277953.0028189.00342913.00312992.00674803l.00065748.111969c-.00011024.00427953-.00104724.00865748-.00520472.0129882l-.0384528.0273543c-.00465354.00243701-.00931102.00325591-.0139567.0024685l-.0409882-.0155984c-.00236614-.00146457-.00385827-.00379134-.00448031-.00697638l-.00799213-.109898c-.00040158-.00478346-.00000787-.0102992.00354724-.0135591.015185-.00884646.0299567-.0147323.0469134-.0206142z"
          fill="none" stroke="#4c4c4c" stroke-linecap="round"
          stroke-linejoin="round" stroke-width=".006665"/>
    <path d="m.0213661.208228.062315.0279252c.00268504.00040945.00537795-.00000787.0080748-.00140157l.0212953-.0218346c.00168898-.00311811-.00029528-.00620866-.00174803-.00932283l-.0684764-.0262126c-.00341732-.00040158-.00592913.00101969-.0075315.00425591-.0026063.00682283-.0092126.0136496-.0172598.0204724-.00002756.00270866.00040945.00468504.00333071.00611811z"
          fill="url(#i)" stroke="#4c4c4c" stroke-width=".003"/>
    <path d="m.0407953.184839c.00687795.00269291.014.00548425.0213386.00835827.00759055.0029685.0154606.00605512.0235906.00923622-.00265748.00306299-.00533071.00612992-.00800787.00920472-.00268504.00308268-.00537795.00618504-.0080748.0092874-.00793307-.00353937-.0155945-.00696457-.0229961-.0102598-.00714173-.00318504-.0140748-.00627165-.0207677-.00925984.00250787-.00277953.005-.00555512.00749213-.0083189.00247638-.00275197.00496063-.0055.0074252-.00824803z"
          fill="url(#j)" stroke="#4c4c4c" stroke-width=".003"/>
    <path d="m.0905157.204315c.00383465.0015.00773228.00302362.0117047.00457874-.00272835.00317717-.0054685.0063622-.00820866.00955512-.00275591.00320472-.00552362.0064252-.00829134.00964567-.0038622-.00172441-.00766929-.00341732-.0114094-.00508661.00272441-.00313386.00543701-.00627165.00814173-.00938976.00269291-.00311024.00538189-.00620866.00806299-.00930315z"
          fill="url(#h)" stroke="#4c4c4c" stroke-width=".003"/>
    <path d="m.0457835.21272.0357087.0166181c.00299213.00144094.00581102.00083858.00852362-.00115748l.0179724-.0182323"
          fill="none" stroke="#e5e5e5" stroke-width=".003"/>
    <path d="m.0213661.208228.062315.0279252c.00268504.00040945.00537795-.00000787.0080748-.00140157l.0212953-.0218346c.00168898-.00311811-.00029528-.00620866-.00174803-.00932283l-.0684764-.0262126c-.00341732-.00040158-.00592913.00101969-.0075315.00425591-.0026063.00682283-.0092126.0136496-.0172598.0204724-.00002756.00270866.00040945.00468504.00333071.00611811z"
          fill="none" stroke="#4c4c4c" stroke-width=".006665"/>
    <ellipse cx=".160142" cy=".175531" fill="url(#b)" rx=".057224" ry=".024496"
             stroke="#4c4c4c" stroke-width=".003"/>
    <path d="m.0744055.0576496c.0137598.00209843.028248.00431496.0434843.00664173.0160748.00245276.0330748.00505512.0510472.00779921.00411417.00062598.00747244.00503937.00740945.00978346-.00023228.0168386-.00046457.0336142-.00069291.0502795-.00022835.0165906-.00046063.0331339-.00068504.0495551-.00006299.00458661-.00346457.00720866-.00750787.00585827-.0176378-.0058937-.0343465-.0114921-.0501496-.0167756-.0150079-.00501575-.0292717-.00979134-.0428228-.0143228-.00291339-.00097244-.00526772-.00490945-.00527165-.00875197-.00001181-.0137992-.00004331-.0276732-.00005906-.0415827-.00001968-.0139606-.00004724-.028-.00006299-.0420827-.00000394-.00396063.00237402-.00685039.00531102-.00640157z"
          fill="url(#k)" stroke="#4c4c4c" stroke-width=".003"/>
    <path d="m.0814134.0714567c.0116063.00203937.023752.0041811.0363937.00640157.0132362.00232283.0270787.00476772.0415748.00731496.00329134.0005748.00597244.00390551.00593307.00737402-.00014173.0123701-.00030315.0247047-.00044882.0369685-.00014567.0122441-.00029528.0244409-.00044882.0365827-.00003937.00340157-.00275197.00533071-.00600394.0043189-.0143071-.00445669-.0279685-.00873622-.0410315-.0128031-.0125079-.0038937-.0245039-.00764567-.0359882-.0112244-.00247244-.00077165-.00448819-.00379528-.00448819-.00673622 0-.0105118-.00001575-.0210512-.00001968-.0316299-.00000787-.0106102.00000394-.0212362 0-.0319252 0-.00298819.00202362-.00508268.00452756-.00464173z"
          fill="url(#q)" stroke="#4c4c4c" stroke-width=".003"/>
    <path d="m.0862008.160386-.0001457.005535.0704729.025465-.000016-.007484z"
          fill="url(#n)" stroke="#4c4c4c" stroke-width=".003"/>
    <path d="m.0745945.0576299.0323504-.00633465.0904252.0125984c.00477953.00215748.00650787.00291339.00764173.00975591l-.00155512.0918465c-.00031496.0036378-.00227953.00617323-.00588583.0076063l-.0247441.0136654c.00171654-.00185039.00242913-.00353937.00214173-.00505906l.00137795-.0998346c-.00060236-.00541732-.00307087-.00867717-.00740945-.00978346l-.0943425-.0144606z"
          fill="url(#m)" stroke="#4c4c4c" stroke-width=".003"/>
    <path d="m.203654.153744.0296496-.0193425.00204724-.0766732-.0713307-.00890551-.0388071.00501969.0721575.0100512c.00483858.00115354.00738583.00440551.00764173.00975591l-.00135827.0800945z"
          fill="url(#l)" stroke="#4c4c4c" stroke-width=".003"/>
    <path d="m.156528.191386s.00779921-.00486614.00761024-.00492913c-.00018898-.00006299-.00762598-.00255512-.00762598-.00255512l.00001575.00748425z"
          fill="#999" stroke="#4c4c4c" stroke-width=".003"/>
    <path d="m.0866102.0595157.0823268.0125748c.00492126.00198031.00738976.00523622.00740945.00978346l-.00137795.0998346"
          fill="none" stroke="#b2b2b2" stroke-width=".003"/>
    <path d="m.110996.0632126.0579409.00887795c.00492126.00198031.00738976.00523622.00740945.00978346l-.00103937.0750551"
          fill="none" stroke="#ccc" stroke-width=".003"/>
    <path d="m.133677.0667087.0352598.00538189c.00492126.00198031.00738976.00523622.00740945.00978346l-.00062598.0451457"
          fill="none" stroke="#e5e5e5" stroke-width=".003"/>
    <path d="m.155276.0700079.0136614.00208268c.00492126.00198031.00738976.00523622.00740945.00978346l-.00027953.0200591"
          fill="none" stroke="#fff" stroke-width=".003"/>
    <path d="m.174354.075642.024292-.007925" fill="none" stroke="#e5e5e5"
          stroke-width=".003"/>
    <path d="m.174354.075642.016181-.00528" fill="none" stroke="#fff"
          stroke-width=".003"/>
    <path d="m.207319.067343.021197-.007268" fill="none" stroke="#fff"
          stroke-width=".003"/>
    <path d="m.116433.187862c.0243622.0127992.0662244.0116811.0874606-.00011417"
          fill="none" stroke="#fff" stroke-width=".003"/>
    <path d="m.0692165.147717-.00012205-.0836654c.0006378-.0033189.00056299-.00570079.0055-.00642126l.0323504-.00633465.0182677.00254724.0388071-.00501969.0713307.00890551-.00204724.0766732-.0296496.0193425-.00009843.00582677c.00858268.00497244.0137126.0102441.013811.0159606-.00192126.0157835-.0257087.0231535-.0572244.0245-.0357559-.0010315-.0557008-.0106457-.0572244-.0245l.00052756-.00332677-.0173898-.00628346.00014567-.00553543-.0117126-.00391732c-.00381102-.00136614-.00556299-.00428346-.00527165-.00875197z"
          fill="none" stroke="#4c4c4c" stroke-width=".006665"/>
</svg>