
<svg clip-rule="evenodd" fill-rule="evenodd" height=".24in"
     image-rendering="optimizeQuality" shape-rendering="geometricPrecision"
     text-rendering="geometricPrecision" viewBox="0 0 .24 .24" width=".24in"
     xmlns="http://www.w3.org/2000/svg"
     xmlns:xlink="http://www.w3.org/1999/xlink">
    <linearGradient id="a" gradientUnits="userSpaceOnUse" x1=".021764"
                    x2=".151358" y1=".012307" y2=".165457">
        <stop offset="0" stop-color="#ccc"/>
        <stop offset="1" stop-color="#e5e5e5"/>
    </linearGradient>
    <linearGradient id="b">
        <stop offset="0" stop-color="#999"/>
        <stop offset="1" stop-color="#e5e5e5"/>
    </linearGradient>
    <linearGradient id="c" gradientUnits="userSpaceOnUse" x1=".069524"
                    x2=".166232" xlink:href="#b" y1=".109331" y2=".071343"/>
    <linearGradient id="d" gradientUnits="userSpaceOnUse" x1=".119823"
                    x2=".202323" y1=".147268" y2=".076547">
        <stop offset="0" stop-color="#74757f"/>
        <stop offset="1" stop-color="#bfc0d1"/>
    </linearGradient>
    <linearGradient id="e" gradientUnits="userSpaceOnUse" x1=".012847"
                    x2=".11661" xlink:href="#c" y1=".1565" y2=".042693"/>
    <linearGradient id="f" gradientUnits="userSpaceOnUse" x1=".048819"
                    x2=".069378" xlink:href="#c" y1=".06928" y2=".029878"/>
    <linearGradient id="g" gradientUnits="userSpaceOnUse" x1=".049524"
                    x2=".0705" xlink:href="#c" y1=".087965" y2=".04776"/>
    <linearGradient id="h" gradientUnits="userSpaceOnUse" x1=".102941"
                    x2=".111075" xlink:href="#b" y1=".229878" y2=".20061"/>
    <linearGradient id="i" gradientUnits="userSpaceOnUse" x1=".073969"
                    x2=".096264" xlink:href="#h" y1=".245941" y2=".165681"/>
    <linearGradient id="j" gradientUnits="userSpaceOnUse" x1=".067748"
                    x2=".081339" xlink:href="#h" y1=".22639" y2=".177453"/>
    <linearGradient id="k" gradientUnits="userSpaceOnUse" x1=".181134"
                    x2=".147677" y1=".175728" y2=".153425">
        <stop offset="0" stop-color="#74757f"/>
        <stop offset="1" stop-color="#c8cadb"/>
    </linearGradient>
    <linearGradient id="l" gradientUnits="userSpaceOnUse" x1=".217894"
                    x2=".126421" xlink:href="#k" y1=".140114" y2=".079134"/>
    <radialGradient id="m" cx=".071626" cy=".144945"
                    gradientUnits="userSpaceOnUse" r=".00698">
        <stop offset="0" stop-color="#ff9"/>
        <stop offset="1" stop-color="#0f0"/>
    </radialGradient>
    <radialGradient id="n" cx=".058705" cy=".132496"
                    gradientUnits="userSpaceOnUse" r=".00698">
        <stop offset="0" stop-color="#ff9"/>
        <stop offset="1" stop-color="#f60"/>
    </radialGradient>
    <g stroke-width=".003">
        <g visibility="hidden">
            <path d="m.0879843.0587087c-.00005118-.00517717.00361811-.010189.00646457-.0119764.0131181-.00662598.0464331-.0229331.0464488-.0238228 0 0-.00239764.117083-.00266535.123051-.00062598.00070866-.023315.0214488-.0418661.0294646-.00174803.00109449-.00383071-.00022835-.00387402-.00459843"
                  fill="none" stroke="#999" stroke-linejoin="bevel"/>
            <path d="m.092492.170827-.004508-.112118" fill="none" stroke="#999"
                  stroke-linejoin="bevel"/>
            <path d="m.088689.118331-.001087-.057083" fill="none"
                  stroke="#e0e0e0" stroke-linecap="round"
                  stroke-linejoin="round"/>
            <path d="m.0876024.061248c-.00094882-.00509055.00120079-.0100945.00369685-.0123465.00538583-.0033937.016815-.00889764.0219252-.0116535"
                  fill="none" stroke="#e0e0e0" stroke-linecap="round"
                  stroke-linejoin="round"/>
            <path d="m.09035.172531-.003023-.111858" fill="none"
                  stroke="#f4f4f4" stroke-linecap="round"
                  stroke-linejoin="round"/>
            <path d="m.0873268.0606732c.00005118-.00517717-.0046378-.0102362-.00748819-.0120236-.0104094-.00263386-.0207087-.0050315-.0207087-.0050315"
                  fill="none" stroke="#f4f4f4" stroke-linecap="round"
                  stroke-linejoin="round"/>
            <path d="m.043752.154181-.007618-.104756" fill="none" stroke="#333"/>
            <path d="m.0361339.0494252s-.00058661-.00772047.00334646-.0129291c.00356299-.00470866.0468268-.0207717.0468268-.0207717.00537402-.00238189.0110197-.0009685.0110197-.0009685"
                  fill="none" stroke="#333"/>
            <path d="m.097327.014756.038614.004689" fill="none" stroke="#333"/>
            <path d="m.135941.0194449c.00409055.00049606.00543307.00873622.00543307.00873622"
                  fill="none" stroke="#333"/>
            <path d="m.141374.028181-.003378.109878" fill="none" stroke="#333"/>
            <path d="m.137996.138059s.00042126.00862205-.00494882.0123858c-.00122835.00308661-.0326693.0229016-.0326693.0229016s-.00479134.00412205-.0132953.00235827c-.0085-.00175984-.0392795-.0146614-.0390827-.0148898-.00164173-.0011811-.0030315-.00331102-.00424803-.00663386"
                  fill="none" stroke="#333"/>
            <path d="m.072.151157c-.00072441-.00357874.00111811-.00666142.00411024-.00688583.00299606-.00022047.00601181.00249606.00673228.00607874.00072441.00357874-.00111417.00666142-.00411024.00688583-.00299213.00022047-.00600787-.0025-.00673228-.00607874"
                  fill="none" stroke="#666"/>
            <path d="m.0398583.0450551.0428582.0088622.0007166.0178347-.042378-.0099331z"
                  fill="none" stroke="#1f1a17"/>
            <path d="m.0415354.0637362.0416575.0099331.0007165.0178346-.0411771-.0106496z"
                  fill="none" stroke="#1f1a17"/>
            <path d="m.0482402.10348.0207086.005989v.00311l-.0207086-.005988z"
                  fill="#333" stroke="#1f1a17"/>
            <path d="m.0482402.10348.0207086.005989v.00311l-.0207086-.005988z"
                  fill="none" stroke="#1f1a17"/>
            <path d="m.0606024.139685c-.00044882-.00223228.00069685-.00415748.00256693-.00429528.00186614-.0001378.00374803.00155906.00419685.00379134.00045276.00223228-.00069685.00415354-.00256299.00429528-.00186614.0001378-.00374803-.00155906-.00420079-.00379134z"
                  fill="#c30" stroke="#000"/>
            <path d="m.0671772.141665c-.00079528.00064173-.00181102.0010315-.00291339.0010315-.00098819 0-.00190551-.00031102-.00265748-.00084252-.00047638-.00061024-.00083858-.00135039-.00100394-.00216929-.00044882-.00223228.00069685-.00415748.00256693-.00429528.00186614-.0001378.00374803.00155906.00419685.00379134.00018504.00091339.0001063.00177559-.00018898.00248425z"
                  fill="#c30" stroke="#000"/>
            <path d="m.0607835.138055c0-.0005.00011024-.00097638.00029921-.00140551.00046457-.00072047.00119291-.00119291.00208661-.00125984.00186614-.0001378.00374803.00155906.00419685.00379134.00002362.00011024.00004331.00022047.00005906.00033071-.00055118.00119291-.00175984.00202362-.00316142.00202362-.00192126 0-.00348031-.00155906-.00348031-.00348031z"
                  fill="#c30" stroke="#000"/>
            <path d="m.0625236.138055c0-.00096063.00077953-.00174016.00174016-.00174016s.00174016.00077953.00174016.00174016-.00077953.00174016-.00174016.00174016-.00174016-.00077953-.00174016-.00174016z"
                  fill="#f60" stroke="#000"/>
            <path d="m.0606024.139685c-.00044882-.00223228.00069685-.00415748.00256693-.00429528.00186614-.0001378.00374803.00155906.00419685.00379134.00045276.00223228-.00069685.00415354-.00256299.00429528-.00186614.0001378-.00374803-.00155906-.00420079-.00379134"
                  fill="none" stroke="#666"/>
            <path d="m.155425.14239-.00088189.0252638-.0204252.0112283s-.0028937.00202362-.00294094.00343307c-.00005118.00140945.00588976.00316929.00588976.00316929l.0255591-.00623622.0228031.0100669.00540551-.00366142s.00085827-.00209449-.0009685-.00372835c-.00182283-.00163386-.0159252-.0117126-.0159252-.0117126l.00035827-.0217441-.018874-.00607874z"
                  fill="#069" stroke="#1f1a17"/>
            <path d="m.155425.14239-.000882.025264-.020425.011228" fill="none"
                  stroke="#1f1a17"/>
            <path d="m.134118.178882s-.0028937.00202362-.00294094.00343307c-.00005118.00140945.00588976.00316929.00588976.00316929"
                  fill="none" stroke="#1f1a17"/>
            <path d="m.137067.185484.025559-.006236.022803.010067.005406-.003661"
                  fill="none" stroke="#1f1a17"/>
            <path d="m.190835.185654s.00085827-.00209449-.0009685-.00372835c-.00182283-.00163386-.0159252-.0117126-.0159252-.0117126"
                  fill="none" stroke="#1f1a17"/>
            <path d="m.173941.170213.000358-.021744-.018874-.006079" fill="none"
                  stroke="#1f1a17"/>
            <path d="m.13135.182201c.00004724-.00140945.00294094-.00343307.00294094-.00343307l.0200906-.0110512.00387008.00137008-.0213622.0117283s-.00021654.00273228-.00026378.00414173c-.00005118.00140945-.00527559-.00275591-.00527559-.00275591z"
                  fill="#6693ab" stroke="#1f1a17"/>
            <path d="m.13135.182201c.00004724-.00140945.00294094-.00343307.00294094-.00343307"
                  fill="none" stroke="#4c819d"/>
            <path d="m.134291.178768.020091-.011051.00387.00137-.021362.011728"
                  fill="none" stroke="#4c819d"/>
            <path d="m.13689.180815s-.00021654.00273228-.00026378.00414173c-.00005118.00140945-.00527559-.00275591-.00527559-.00275591"
                  fill="none" stroke="#4c819d"/>
            <path d="m.185992.189181s.00046457-.00392126-.0013622-.00555512-.0159252-.0117126-.0159252-.0117126l.00035827-.0217441.00530709-.00122441-.00035827.0217402s.0141024.0100827.0159252.0117165c.00182677.00162992.00090945.00294094.00090945.00294094l-.00485433.00383858z"
                  fill="#a3c8da" stroke="#1f1a17"/>
            <path d="m.185992.189181s.00046457-.00392126-.0013622-.00555512-.0159252-.0117126-.0159252-.0117126"
                  fill="none" stroke="#7fa4b9"/>
            <path d="m.168705.171913.000358-.021744.005307-.001224-.000358.02174"
                  fill="none" stroke="#7fa4b9"/>
            <path d="m.174012.170685s.0141024.0100827.0159252.0117165c.00182677.00162992.00090945.00294094.00090945.00294094"
                  fill="none" stroke="#7fa4b9"/>
            <path d="m.190846.185343-.004854.003838" fill="none"
                  stroke="#7fa4b9"/>
            <path d="m.155425.14239-.000882.025264-.020425.011228" fill="none"
                  stroke="#333"/>
            <path d="m.134118.178882s-.0028937.00202362-.00294094.00343307c-.00005118.00140945.00588976.00316929.00588976.00316929"
                  fill="none" stroke="#333"/>
            <path d="m.137067.185484.025559-.006236.022803.010067.005406-.003661"
                  fill="none" stroke="#333"/>
            <path d="m.190835.185654s.00085827-.00209449-.0009685-.00372835c-.00182283-.00163386-.0159252-.0117126-.0159252-.0117126"
                  fill="none" stroke="#333"/>
            <path d="m.173941.170213.000358-.021744-.018874-.006079" fill="none"
                  stroke="#333"/>
            <g stroke="#000">
                <path d="m.201126.0835984.00400394.00616535c-.00000394.00011417-.00000394.00023228-.00001575.00035039l-.00018504.00272047-.00628346-.00967323.00185039.0002874c.00021654.00003543.0004252.00008661.00062992.00014961z"
                      fill="#fff"/>
                <path d="m.20513.0897598-.00400394-.00616142c.00234252.00072441.00405512.00331102.00400394.00616142z"
                      fill="#fff"/>
                <path d="m.125465.135067.00474409.00730709-.0013189-.00042126c-.00201969-.00064173-.00355906-.00329921-.00346063-.00594882l.00003543-.00093701z"
                      fill="#069"/>
                <path d="m.125638.130409.008598.013248-.004027-.001283-.004744-.007307z"
                      fill="#005776"/>
                <path d="m.125811.125756.012457.019181-.004028-.00128-.008602-.013248z"
                      fill="#025a78"/>
                <path d="m.125984.121094.016315.025126-.004031-.001283-.012457-.019181z"
                      fill="#195d7b"/>
                <path d="m.126157.116441.020174.031059-.004032-.00128-.016315-.025126z"
                      fill="#25607d"/>
                <path d="m.126331.111783.024031.037-.004031-.001279-.020174-.031063z"
                      fill="#2e637f"/>
                <path d="m.126508.107126.027886.042941-.004032-.001284-.024031-.037z"
                      fill="#366683"/>
                <path d="m.126681.102469.03174.048881-.004027-.001283-.027886-.042941z"
                      fill="#3d6985"/>
                <path d="m.126854.097811.035599.054819-.004032-.00128-.03174-.048881z"
                      fill="#446d88"/>
                <path d="m.127028.0931575.039456.0607555-.004031-.001283-.035599-.054819z"
                      fill="#4a708b"/>
                <path d="m.127201.0884961.043315.0667009-.004032-.001284-.039456-.0607595z"
                      fill="#4f738e"/>
                <path d="m.127374.0838425.047169.0726335-.004027-.001279-.043315-.0667009z"
                      fill="#557691"/>
                <path d="m.127776.0795354.0507992.0782244-.0040315-.00128346-.0471693-.0726339.00012205-.00330315c.00000787-.00023622.00009843-.00058268.00027953-.00100394z"
                      fill="#5b7a95"/>
                <path d="m.129441.0771732.0531654.0818701-.0040315-.00128346-.0507992-.0782244c.00029528-.00067323.00083071-.00152756.00166535-.0023622z"
                      fill="#607e97"/>
                <path d="m.131587.0755512.0548622.0844843c-.00045276.00000394-.00082677-.00003543-.00109843-.00012205l-.00274409-.00087008-.0531654-.0818701c.00056693-.00056693.00127953-.00112992.00214567-.00162205z"
                      fill="#66829b"/>
                <path d="m.134102.0745039.055311.0851732c-.00114567.00022441-.00217323.00035433-.00296457.00035827l-.0548622-.0844843c.00072441-.00040945.00155906-.00077165.00251575-.00104724z"
                      fill="#6b859e"/>
                <path d="m.136976.0740039.0552008.0850039c-.00094882.00027165-.00188976.0005-.00276378.00066929l-.055311-.0851732c.00085827-.00024409.00181496-.00042126.00287402-.0005z"
                      fill="#718aa1"/>
                <path d="m.140197.0740433.054622.0841063c-.00086221.0003189-.00175591.0006063-.00264173.00085827l-.0552008-.0850039c.00098032-.0000748.00205118-.00007087.00322047.00003937z"
                      fill="#768da5"/>
                <path d="m.143724.0745472.0536063.0825433c-.00076772.00037402-.00162205.00073228-.00251181.00105906l-.054622-.0841063c.0004685.00004331.00095669.00010236.00145669.00017717l.00207087.00032677z"
                      fill="#7b91a9"/>
                <path d="m.147283.0751063.0523386.0805906c-.00059055.00047638-.00138189.00094882-.00229134.0013937l-.0536063-.0825433.00355906.00055906z"
                      fill="#8196ac"/>
                <path d="m.150846.0756654.0499724.0769528-.00009843.00148031c-.00003543.00052756-.00044488.00106693-.00109843.00159843l-.0523386-.0805906.00356299.00055906z"
                      fill="#869ab0"/>
                <path d="m.154406.0762244.04672.0719406-.000307.004453-.049973-.0769526z"
                      fill="#8d9fb5"/>
                <path d="m.157969.0767795.043464.0669335-.000307.004452-.04672-.0719406z"
                      fill="#94a4b8"/>
                <path d="m.161528.0773386.040212.0619214-.000307.004453-.043464-.0669335z"
                      fill="#9aa9bd"/>
                <path d="m.165087.0778976.036956.0569094-.000303.004453-.040212-.0619214z"
                      fill="#a1afc2"/>
                <path d="m.16865.0784567.0337.0518933-.000307.004457-.036956-.0569094z"
                      fill="#a7b4c6"/>
                <path d="m.172209.0790157.030448.0468863-.000307.004448-.0337-.0518933z"
                      fill="#afbacc"/>
                <path d="m.175768.0795748.027197.0418702-.000308.004457-.030448-.0468863z"
                      fill="#b8c2d1"/>
                <path d="m.179331.0801299.023937.0368621-.000303.004453-.027193-.0418702z"
                      fill="#c0c9d7"/>
                <path d="m.18289.080689.020685.03185-.000307.004453-.023937-.0368621z"
                      fill="#c9d1de"/>
                <path d="m.186453.081248.017429.026839-.000307.004452-.020685-.03185z"
                      fill="#d4d9e4"/>
                <path d="m.190012.0818071.014173.0218269-.000303.004453-.017429-.026839z"
                      fill="#dee3eb"/>
                <path d="m.193575.0823661.010917.016815-.000307.0044529-.014173-.0218269z"
                      fill="#eaedf3"/>
                <path d="m.197134.0829213.007665.0118031-.000307.0044567-.010917-.016815z"
                      fill="#f5f7f9"/>
                <path d="m.200701.0834921.00440551.00678346-.00030709.00444882-.00766535-.0118031.0033622.00052756c.00007087.00001181.0001378.00002756.00020472.00004331z"
                      fill="#fff"/>
            </g>
            <path d="m.141654.074221.058842.009228" fill="none" stroke="#666"/>
            <path d="m.200496.0834488c.00275984.00043307.00484252.0034252.00461811.00666535"
                  fill="none" stroke="#666"/>
            <path d="m.205114.090114-.004394.063984" fill="none" stroke="#666"/>
            <path d="m.20072.154098c-.00020866.00304331-.0127323.00665748-.0153701.00581496"
                  fill="none" stroke="#666"/>
            <path d="m.18535.159913-.05646-.01796" fill="none" stroke="#666"/>
            <path d="m.12889.141953c-.00201969-.00064173-.00355906-.00329921-.00346063-.00594882"
                  fill="none" stroke="#666"/>
            <path d="m.125429.136004.002067-.055465" fill="none" stroke="#666"/>
            <path d="m.127496.0805394c.00005906-.00152362.0035-.00798819.0141575-.0063189"
                  fill="none" stroke="#666"/>
            <path d="m.127323.0839646c-.00003543-.00344882.00197638-.00590157.0047126-.00545276l.0576732.00947638c.00327559.00053937.00327953.00377953.0031063.00755906l-.00405118.0590276c-.00015748.0034252-.00279921.00552756-.00588189.00472441l-.0523543-.016752c-.00260236-.0006811-.00472047-.00377165-.00475591-.0069252l.00155118-.0516575z"
                  fill="#069" stroke="#1f1a17"/>
            <path d="m.127323.0839646c-.00003543-.00344882.00197638-.00590157.0047126-.00545276"
                  fill="none" stroke="#6693ab"/>
            <path d="m.132035.078512.057674.009476" fill="none" stroke="#6693ab"/>
            <path d="m.189709.0879882c.00327559.00053937.00327953.00377953.0031063.00755906"
                  fill="none" stroke="#6693ab"/>
            <path d="m.192815.095547-.004051.059028" fill="none"
                  stroke="#6693ab"/>
            <path d="m.188764.154575c-.00015748.0034252-.00279921.00552756-.00588189.00472441"
                  fill="none" stroke="#6693ab"/>
            <path d="m.182882.159299-.052354-.016752" fill="none"
                  stroke="#6693ab"/>
            <path d="m.130528.142547c-.00260236-.0006811-.00472047-.00377165-.00475591-.0069252"
                  fill="none" stroke="#6693ab"/>
            <path d="m.125772.135622.001551-.051657" fill="none"
                  stroke="#6693ab"/>
            <path d="m.141654.074221.058842.009228" fill="none" stroke="#333"/>
            <path d="m.200496.0834488c.00275984.00043307.00484252.0034252.00461811.00666535"
                  fill="none" stroke="#333"/>
            <path d="m.205114.090114-.004394.063984" fill="none" stroke="#333"/>
            <path d="m.20072.154098c-.00020866.00304331-.0127323.00665748-.0153701.00581496"
                  fill="none" stroke="#333"/>
            <path d="m.18535.159913-.05646-.01796" fill="none" stroke="#333"/>
            <path d="m.12889.141953c-.00201969-.00064173-.00355906-.00329921-.00346063-.00594882"
                  fill="none" stroke="#333"/>
            <path d="m.125429.136004.002067-.055465" fill="none" stroke="#333"/>
            <path d="m.127496.0805394c.00005906-.00152362.0035-.00798819.0141575-.0063189"
                  fill="none" stroke="#333"/>
            <path d="m.202941.086626-.005063.001236" fill="none"
                  stroke="#7fa4b9"/>
            <path d="m.197878.0878622c-.00278346.00024016-.00507087.0030748-.0050748.00632283"
                  fill="none" stroke="#7fa4b9"/>
            <path d="m.192803.094185-.003457.04876" fill="none" stroke="#7fa4b9"/>
            <path d="m.148543.080874.039555.00639" fill="none" stroke="#b2c8d5"/>
            <path d="m.188098.0872638c.00563386.00088583.00462598.00655118.00461811.00666142"
                  fill="none" stroke="#b2c8d5"/>
            <path d="m.192717.093925-.003784.056398" fill="none"
                  stroke="#b2c8d5"/>
            <path d="m.130039.0865906c-.0000315-.00302362.00173228-.00517323.00412992-.00477953"
                  fill="none" stroke="#1f1a17"/>
            <path d="m.134169.081811.050504.008949" fill="none" stroke="#1f1a17"/>
            <path d="m.184673.0907598c.00287402.00047638.00287402.00331496.00272441.00662992"
                  fill="none" stroke="#1f1a17"/>
            <path d="m.187398.09739-.003555.051748" fill="none" stroke="#1f1a17"/>
            <path d="m.183843.149138c-.00013386.003-.00244882.00484252-.00515354.0041378"
                  fill="none" stroke="#1f1a17"/>
            <path d="m.178689.153276-.046016-.013878" fill="none"
                  stroke="#1f1a17"/>
            <path d="m.132673.139398c-.00227559-.00059449-.00413386-.00330709-.00416535-.00607087"
                  fill="none" stroke="#1f1a17"/>
            <path d="m.128508.133327.001531-.046736" fill="none"
                  stroke="#1f1a17"/>
            <path d="m.0517087.175906c.00119685-.00239764.00522835-.0048189.0071811-.0040748l.0652441.0250236c.00204724.00077953.00168898.00646063.00170079.00888189l-.0197323.0179173c-.00330315.00275984-.00567717.00213386-.00770866.00133465l-.0599646-.0237205c-.00193701-.00076378-.00456693-.00282283-.0031811-.00585039.00744488-.00663386.0129331-.0131417.0164606-.0195118z"
                  fill="#ccc" stroke="#1f1a17"/>
            <path d="m.0517087.175906c.00119685-.00239764.00522835-.0048189.0071811-.0040748"
                  fill="none" stroke="#1f1a17"/>
            <path d="m.05889.171831.065244.025023" fill="none" stroke="#1f1a17"/>
            <path d="m.124134.196854c.00204724.00077953.00168898.00646063.00170079.00888189"
                  fill="none" stroke="#1f1a17"/>
            <path d="m.125835.205736-.019733.017918" fill="none"
                  stroke="#1f1a17"/>
            <path d="m.106102.223654c-.00330315.00275984-.00567717.00213386-.00770866.00133465"
                  fill="none" stroke="#1f1a17"/>
            <path d="m.098394.224988-.059965-.02372" fill="none"
                  stroke="#1f1a17"/>
            <path d="m.0384291.201268c-.00193701-.00076378-.00456693-.00282283-.0031811-.00585039.00744488-.00663386.0129331-.0131417.0164606-.0195118"
                  fill="none" stroke="#1f1a17"/>
            <path d="m.122457.20087-.018457.019039" fill="none" stroke="#b2b2b2"
                  stroke-linecap="round"/>
            <path d="m.104.219909c-.00330315.00276378-.00567717.0021378-.00770472.00133465"
                  fill="none" stroke="#b2b2b2" stroke-linecap="round"/>
            <path d="m.096295.221244-.054539-.021933" fill="none"
                  stroke="#b2b2b2" stroke-linecap="round"/>
            <path d="m.115346.208331-.011346.011578" fill="none" stroke="#fff"
                  stroke-linecap="round" stroke-linejoin="round"/>
            <path d="m.104.219909c-.00330315.00276378-.00567717.0021378-.00770472.00133465"
                  fill="none" stroke="#fff" stroke-linecap="round"
                  stroke-linejoin="round"/>
            <path d="m.096295.221244-.016362-.006425" fill="none" stroke="#fff"
                  stroke-linecap="round" stroke-linejoin="round"/>
            <path d="m.0517087.175906c.00119685-.00239764.00522835-.0048189.0071811-.0040748"
                  fill="none" stroke="#333"/>
            <path d="m.05889.171831.065244.025023" fill="none" stroke="#333"/>
            <path d="m.124134.196854c.00204724.00077953.00168898.00646063.00170079.00888189"
                  fill="none" stroke="#333"/>
            <path d="m.125835.205736-.019733.017918" fill="none" stroke="#333"/>
            <path d="m.106102.223654c-.00330315.00275984-.00567717.00213386-.00770866.00133465"
                  fill="none" stroke="#333"/>
            <path d="m.098394.224988-.059965-.02372" fill="none" stroke="#333"/>
            <path d="m.0384291.201268c-.00193701-.00076378-.00456693-.00282283-.0031811-.00585039.0081063-.00765748.0135945-.0141654.0164606-.0195118"
                  fill="none" stroke="#333"/>
            <path d="m.0846299.209547-.0426142-.016638.0000945.000052z"
                  fill="#515151" stroke="#1f1a17"/>
            <path d="m.0846299.209547-.0426142-.016638.0000945.000052z"
                  fill="none" stroke="#515151"/>
            <path d="m.0846299.209547-.0425197-.016586.0425315.016602z"
                  fill="#515151" stroke="#1f1a17"/>
            <path d="m.0846299.209547-.0425197-.016586.0425315.016602z"
                  fill="none" stroke="#515151"/>
            <path d="m.100551.192909-.0034132.004083-.0000158.000043z"
                  fill="#909090" stroke="#1f1a17"/>
            <path d="m.100551.192909-.0034132.004083-.0000158.000043z"
                  fill="none" stroke="#909090"/>
            <path d="m.100551.192909-.003429.004126.003406-.004074z"
                  fill="#909090" stroke="#1f1a17"/>
            <path d="m.100551.192909-.003429.004126.003406-.004074z" fill="none"
                  stroke="#909090"/>
            <path d="m.0971378.196992-.0032992.003709-.0000079.000031z"
                  fill="#8e8e8e" stroke="#1f1a17"/>
            <path d="m.0971378.196992-.0032992.003709-.0000079.000031z"
                  fill="none" stroke="#8e8e8e"/>
            <path d="m.0971378.196992-.0033071.00374.0032913-.003697z"
                  fill="#8e8e8e" stroke="#1f1a17"/>
            <path d="m.0971378.196992-.0033071.00374.0032913-.003697z"
                  fill="none" stroke="#8e8e8e"/>
            <path d="m.0938386.200701-.0031851.003327v.000027z" fill="#8c8c8c"
                  stroke="#1f1a17"/>
            <path d="m.0938386.200701-.0031851.003327v.000027z" fill="none"
                  stroke="#8c8c8c"/>
            <path d="m.0938386.200701-.0031851.003354.0031772-.003323z"
                  fill="#8c8c8c" stroke="#1f1a17"/>
            <path d="m.0938386.200701-.0031851.003354.0031772-.003323z"
                  fill="none" stroke="#8c8c8c"/>
            <path d="m.0906535.204028-.0030669.002948.000004.000024z"
                  fill="#8a8a8a" stroke="#1f1a17"/>
            <path d="m.0906535.204028-.0030669.002948.000004.000024z"
                  fill="none" stroke="#8a8a8a"/>
            <path d="m.0906535.204028-.0030629.002972.0030629-.002945z"
                  fill="#8a8a8a" stroke="#1f1a17"/>
            <path d="m.0906535.204028-.0030629.002972.0030629-.002945z"
                  fill="none" stroke="#8a8a8a"/>
            <path d="m.0875866.206976-.0029567.002571.0000118.000016z"
                  fill="#878787" stroke="#1f1a17"/>
            <path d="m.0875866.206976-.0029567.002571.0000118.000016z"
                  fill="none" stroke="#878787"/>
            <path d="m.0875866.206976-.0029449.002587.0029489-.002563z"
                  fill="#878787" stroke="#1f1a17"/>
            <path d="m.0875866.206976-.0029449.002587.0029489-.002563z"
                  fill="none" stroke="#878787"/>
            <path d="m.100551.192909c-.00483071.00594882-.00998819.0117598-.0159213.0166378"
                  fill="none" stroke="#1f1a17"/>
            <path d="m.08463.209547-.042614-.016638" fill="none"
                  stroke="#1f1a17"/>
            <path d="m.0420157.192909c.00554331-.00493307.0104173-.0106378.0142402-.0170039"
                  fill="none" stroke="#1f1a17"/>
            <path d="m.056256.175906.044295.017003" fill="none" stroke="#1f1a17"/>
            <path d="m.100035.215382-.0127515-.004976.0000748.000051z"
                  fill="#3d3d3d" stroke="#1f1a17"/>
            <path d="m.100035.215382-.0127515-.004976.0000748.000051z"
                  fill="none" stroke="#3d3d3d"/>
            <path d="m.100035.215382-.0126767-.004925.0127247.004968z"
                  fill="#3d3d3d" stroke="#1f1a17"/>
            <path d="m.100035.215382-.0126767-.004925.0127247.004968z"
                  fill="none" stroke="#3d3d3d"/>
            <path d="m.116756.198925-.002264.002418.000016.00007z"
                  fill="#696969" stroke="#1f1a17"/>
            <path d="m.116756.198925-.002264.002418.000016.00007z" fill="none"
                  stroke="#696969"/>
            <path d="m.116756.198925-.002248.002488.002264-.002413z"
                  fill="#696969" stroke="#1f1a17"/>
            <path d="m.116756.198925-.002248.002488.002264-.002413z" fill="none"
                  stroke="#696969"/>
            <path d="m.114492.201343-.003953.003952.000028.000063z"
                  fill="#686868" stroke="#1f1a17"/>
            <path d="m.114492.201343-.003953.003952.000028.000063z" fill="none"
                  stroke="#686868"/>
            <path d="m.114492.201343-.003925.004015.003941-.003945z"
                  fill="#686868" stroke="#1f1a17"/>
            <path d="m.114492.201343-.003925.004015.003941-.003945z" fill="none"
                  stroke="#686868"/>
            <path d="m.110539.205295-.004492.004394.000036.000055z"
                  fill="#676767" stroke="#1f1a17"/>
            <path d="m.110539.205295-.004492.004394.000036.000055z" fill="none"
                  stroke="#676767"/>
            <path d="m.110539.205295-.004456.004449.004484-.004386z"
                  fill="#676767" stroke="#1f1a17"/>
            <path d="m.110539.205295-.004456.004449.004484-.004386z" fill="none"
                  stroke="#676767"/>
            <path d="m.106047.209689-.003882.003732.00004.000044z"
                  fill="#676767" stroke="#1f1a17"/>
            <path d="m.106047.209689-.003882.003732.00004.000044z" fill="none"
                  stroke="#676767"/>
            <path d="m.106047.209689-.003842.003776.003878-.003721z"
                  fill="#676767" stroke="#1f1a17"/>
            <path d="m.106047.209689-.003842.003776.003878-.003721z" fill="none"
                  stroke="#676767"/>
            <path d="m.102165.213421-.00213.001961.000048.000043z" fill="#666"
                  stroke="#1f1a17"/>
            <path d="m.102165.213421-.00213.001961.000048.000043z" fill="none"
                  stroke="#666"/>
            <path d="m.102165.213421-.002082.002004.002122-.00196z" fill="#666"
                  stroke="#1f1a17"/>
            <path d="m.102165.213421-.002082.002004.002122-.00196z" fill="none"
                  stroke="#666"/>
            <path d="m.116756.198925c-.00462205.00566929-.0110709.0117913-.0167205.0164567"
                  fill="none" stroke="#1f1a17"/>
            <path d="m.100035.215382-.012751-.004976" fill="none"
                  stroke="#1f1a17"/>
            <path d="m.0872835.210406c.00607874-.00475197.011374-.0105945.0162205-.0165669"
                  fill="none" stroke="#1f1a17"/>
            <path d="m.103504.193839.013252.005086" fill="none" stroke="#1f1a17"/>
        </g>
        <path d="m.081685.00568898c.00432677-.00070866.0081811-.00104724.011563-.00102756l.0452638.00614567c.00347638.00277953.0028189.00342913.00312992.00674803l.00065748.111969c-.00011024.00427953-.00104724.00865748-.00520472.0129882l-.0384528.0273543c-.00465354.00243701-.00931102.00325591-.0139567.0024685l-.0409882-.0155984c-.00236614-.00146457-.00385827-.00379134-.00448031-.00697638l-.00799213-.109898c-.00040158-.00478346-.00000787-.0102992.00354724-.0135591.015185-.00884646.0299567-.0147323.0469134-.0206142z"
              fill="url(#a)" stroke="#4c4c4c" stroke-linecap="round"
              stroke-linejoin="round"/>
        <path d="m.0986417.169866-.00517717-.123228c-.00015748-.00527165.00128346-.0103898.00622835-.0152087l.0388189-.020622c.00392126.00253937.00294882.00763386.00305512.0111339l.00073228.107583c.00014961.00512205-.00200394.00927165-.00520472.0129882l-.0384528.0273543z"
              fill="url(#c)" stroke="#b2b2b2"/>
        <path d="m.0963465.115157-.00288189-.0685197c-.00015748-.00527165.00128346-.0103898.00622835-.0152087l.0169331-.00899213"
              fill="none" stroke="#ccc"/>
        <path d="m.0436969.156736c-.00292913-.00218898-.00442126-.00451575-.00448031-.00697638l-.00799213-.109898c-.00040945-.00564961.00066929-.0103504.00354724-.0135591l.0483701.00904331c.00506693.00190157.00850787.00566535.0103228.0112913l.00517717.123228c-.00372835.00220079-.00838583.00301969-.0139567.0024685l-.0409882-.0155984z"
              fill="url(#e)" stroke="#ccc"/>
        <path d="m.0959094.104697-.00244488-.0580591c-.00015748-.00527165.00128346-.0103898.00622835-.0152087l.00846457-.00449213"
              fill="none" stroke="#e5e5e5"/>
        <path d="m.0373268.035874.0012716.0175866.0422756.0098229-.0007677-.0187244z"
              fill="url(#f)" stroke="#4c4c4c"/>
        <path d="m.0385984.0534606.0015473.0174055.0412834.0114016-.0005551-.0189842z"
              fill="url(#g)" stroke="#4c4c4c"/>
        <path d="m.0439331.096563.0002874.0030669.0214527.0064801v-.003275z"
              fill="#4c4c4c" stroke="#4c4c4c"/>
        <ellipse fill="url(#m)" rx=".005606" ry=".006976" stroke="#4c4c4c"
                 transform="matrix(.871682 -.583757 .583757 .871682 .074559 .146153)"/>
        <ellipse fill="url(#n)" rx=".005606" ry=".006976" stroke="#4c4c4c"
                 transform="matrix(.557741 -.373513 .373513 .557741 .060579 .13327)"/>
        <path d="m.0589567.0308268.024185.00451969c.00506693.00190157.00850787.00566535.0103228.0112913l.00205118.0488228"
              fill="none" stroke="#e5e5e5"/>
        <path d="m.0710512.0330866.0120906.00225984c.00506693.00190157.00850787.00566535.0103228.0112913l.00089764.0213898"
              fill="none" stroke="#fff"/>
        <path d="m.0589567.0308268.024185.00451969c.00506693.00190157.00850787.00566535.0103228.0112913l.00205118.0488228"
              fill="none" stroke="#e5e5e5"/>
        <path d="m.0730827.0334646.0100591.00188189c.00506693.00190157.00850787.00566535.0103228.0112913l.00117323.0278622"
              fill="none" stroke="#fff"/>
    </g>
    <path d="m.081685.00568898c.00432677-.00070866.0081811-.00104724.011563-.00102756l.0452638.00614567c.00347638.00277953.0028189.00342913.00312992.00674803l.00065748.111969c-.00011024.00427953-.00104724.00865748-.00520472.0129882l-.0384528.0273543c-.00465354.00243701-.00931102.00325591-.0139567.0024685l-.0409882-.0155984c-.00236614-.00146457-.00385827-.00379134-.00448031-.00697638l-.00799213-.109898c-.00040158-.00478346-.00000787-.0102992.00354724-.0135591.015185-.00884646.0299567-.0147323.0469134-.0206142z"
          fill="none" stroke="#4c4c4c" stroke-linecap="round"
          stroke-linejoin="round" stroke-width=".006665"/>
    <path d="m.16478.180693c.0107835-.00782677.0225787-.0118661.0366102-.00755118-.0101378-.00612205-.017-.0130079-.0166102-.0215748l-.00695669.00002756c-.00240157.0128031-.00769685.0232638-.0130433.0290984z"
          fill="#74757f" stroke="#4c4c4c" stroke-linecap="round"
          stroke-linejoin="round" stroke-width=".003"/>
    <path d="m.188728.0783976c-.00989764-.00156299-.0194016-.00307087-.0285079-.00450787-.00874016-.00138189-.0171654-.0027126-.025252-.00399213-.00324803-.00050787-.00603937.00267717-.00625591.00705906-.00042126.00828346-.00085433.0165827-.00127559.0248465-.00041732.00824803-.00084646.0164921-.00126378.0247087-.00021654.00433071.00217323.00869685.0053622.0097126.00797244.00253937.0162598.00519291.024874.00793701.00896063.00285827.018311.00584252.0280472.00894882.00412205.00131496.00781102-.00169291.00809843-.0067126.00055118-.00953543.00111024-.0191102.00166142-.0286732.00055512-.00958268.00112205-.0192087.00167717-.0288425.00029528-.00508268-.00297638-.00982283-.00716535-.0104843z"
          fill="url(#d)" stroke="#4c4c4c" stroke-linecap="round"
          stroke-linejoin="round" stroke-width=".003"/>
    <path d="m.18324.0839606c-.00805512-.00138583-.0158307-.00273228-.0233504-.00401969-.00725197-.00124803-.0143031-.00245669-.0211142-.00362598-.00274016-.00047244-.00512205.00216142-.00530709.00582677-.00035827.00695669-.0007126.0139134-.00106693.0208465-.00035039.00691732-.00071654.0138346-.00107087.020748-.00018898.00363386.00184252.00727953.00455512.00811024.00672441.00205118.0136772.00417717.0208465.0063622.00741339.00226378.0151024.00460236.0230354.00702756.00335039.00101969.00633071-.00148819.00655906-.00561024.00044882-.00780709.00089764-.0156339.00133858-.0234606.00044882-.00783465.00090551-.0157008.00135433-.0235827.00023622-.00414961-.00238189-.00804331-.00577953-.00862205z"
          fill="#0cf" stroke="#333" stroke-linecap="round"
          stroke-linejoin="round" stroke-width=".003"/>
    <path d="m.134969.0698976.0140039-.00301575c.00309449-.00047638.0061811-.00056693.00928346-.00011417l.0457913.00738976c.00324409.00274803.00530315.0056378.00477953.00886614l-.00352362.0566024c-.00072047.00392126-.00163386.00633465-.00443307.00783858l-.0122283.0054685c.00241339-.00174803.00371654-.00393307.00391339-.00653543l.00333858-.0575157c.00005512-.00494882-.00233858-.00844094-.00716535-.0104843l-.0537598-.0085z"
          fill="url(#l)" stroke="#4c4c4c" stroke-linecap="round"
          stroke-linejoin="round" stroke-width=".003"/>
    <path d="m.168016.148461c-.00237008.0126181-.00736614.0223386-.0170354.026874l.0137992.00535827c.00705906-.00505118.00920866-.0151535.0130433-.0290984l-.00980709-.00313386z"
          fill="url(#k)" stroke="#4c4c4c" stroke-linecap="round"
          stroke-linejoin="round" stroke-width=".003"/>
    <path d="m.15098.175335c.00587795-.00524803.0101457-.0104134.00523228-.0149567.00566929-.00149213.00982677-.00512992.0118031-.0119173-.00103543.0114488-.00671654.0204134-.0170354.026874z"
          fill="#ccf" stroke="#4c4c4c" stroke-linecap="round"
          stroke-linejoin="round" stroke-width=".003"/>
    <path d="m.141898.071.0468307.00739764c.00480315.0015315.00718898.00502362.00716535.0104843l-.00333858.0575157"
          fill="none" stroke="#afb0bf" stroke-linecap="round"
          stroke-linejoin="round" stroke-width=".003"/>
    <path d="m.153343.0728071.0353858.00559055c.00480315.0015315.00718898.00502362.00716535.0104843l-.00166929.0287559"
          fill="none" stroke="#d2d3e2" stroke-linecap="round"
          stroke-linejoin="round" stroke-width=".003"/>
    <path d="m.172402.0758228.0163268.0025748c.00480315.0015315.00718898.00502362.00716535.0104843l-.0010748.0184449"
          fill="none" stroke="#eeeffe" stroke-linecap="round"
          stroke-linejoin="round" stroke-width=".003"/>
    <path d="m.158256.0667677.0457913.00738976c.00343307.00254331.00527165.00544488.00477953.00886614l-.00352362.0566024c-.00017323.00342913-.00165748.00603937-.00443307.00783858l-.0122283.0054685-.00418504.00017717c-.00008268.00603937.00623228.0127913.0169331.0200315-.0122992-.0038189-.0245079-.00130315-.0366102.00755118l-.0137992-.00535827c.00715748-.00562205.00962205-.0106929.00523228-.0149567.00550787-.00211024.0101535-.00522835.0118031-.0119173l-.0364803-.0122362c-.00420866-.00291339-.00599606-.00615354-.0053622-.0097126l.00253937-.0495551c-.00018898-.00426772.00189764-.00662598.00625591-.00705906l.0140039-.00301575.00928346-.00011417z"
          fill="none" stroke="#4c4c4c" stroke-linecap="round"
          stroke-linejoin="round" stroke-width=".006665"/>
    <path d="m.0401063.207268.062315.0279252c.00268504.00040945.00537795-.00000787.0080748-.00140157l.0212953-.0218346c.00168898-.00311811-.00029528-.00620866-.00174803-.00932283l-.0684764-.0262126c-.00341732-.00040158-.00592913.00101969-.0075315.00425591-.0026063.00682283-.0092126.0136496-.0172598.0204724-.00002756.00270866.00040945.00468504.00333071.00611811z"
          fill="url(#i)" stroke="#4c4c4c" stroke-width=".003"/>
    <path d="m.0595354.183878c.00687795.00269291.014.00548425.0213386.00835827.00759055.0029685.0154606.00605512.0235906.00923622-.00265748.00306299-.00533071.00612992-.00800787.00920472-.00268504.00308268-.00537795.00618504-.0080748.0092874-.00793307-.00353937-.0155945-.00696457-.0229961-.0102598-.00714173-.00318504-.0140748-.00627165-.0207677-.00925984.00250787-.00277953.005-.00555512.00749213-.0083189.00247638-.00275197.00496063-.0055.0074252-.00824803z"
          fill="url(#j)" stroke="#4c4c4c" stroke-width=".003"/>
    <path d="m.109256.203354c.00383465.0015.00773228.00302362.0117047.00457874-.00272835.00317717-.0054685.0063622-.00820866.00955512-.00275591.00320472-.00552362.0064252-.00829134.00964567-.0038622-.00172441-.00766929-.00341732-.0114094-.00508661.00272441-.00313386.00543701-.00627165.00814173-.00938976.00269291-.00311024.00538189-.00620866.00806299-.00930315z"
          fill="url(#h)" stroke="#4c4c4c" stroke-width=".003"/>
    <path d="m.0645236.21176.0357087.0166181c.00299213.00144094.00581102.00083858.00852362-.00115748l.0179724-.0182323"
          fill="none" stroke="#e5e5e5" stroke-width=".003"/>
    <path d="m.0401063.207268.062315.0279252c.00268504.00040945.00537795-.00000787.0080748-.00140157l.0212953-.0218346c.00168898-.00311811-.00029528-.00620866-.00174803-.00932283l-.0684764-.0262126c-.00341732-.00040158-.00592913.00101969-.0075315.00425591-.0026063.00682283-.0092126.0136496-.0172598.0204724-.00002756.00270866.00040945.00468504.00333071.00611811z"
          fill="none" stroke="#4c4c4c" stroke-width=".006665"/>
</svg>