
<svg clip-rule="evenodd" fill-rule="evenodd" height=".24in"
     image-rendering="optimizeQuality" shape-rendering="geometricPrecision"
     text-rendering="geometricPrecision" viewBox="0 0 .24 .24" width=".24in"
     xmlns="http://www.w3.org/2000/svg"
     xmlns:xlink="http://www.w3.org/1999/xlink">
    <linearGradient id="a">
        <stop offset="0" stop-color="#999"/>
        <stop offset="1" stop-color="#e5e5e5"/>
    </linearGradient>
    <linearGradient id="b" gradientUnits="userSpaceOnUse" x1=".178264"
                    x2=".058744" xlink:href="#a" y1=".033465" y2=".152984"/>
    <linearGradient id="c" gradientUnits="userSpaceOnUse" x1=".160425"
                    x2=".15137" xlink:href="#b" y1=".113575" y2=".177819"/>
    <linearGradient id="d" gradientUnits="userSpaceOnUse" x1=".096551"
                    x2=".10678" xlink:href="#a" y1=".22465" y2=".187823"/>
    <linearGradient id="e" gradientUnits="userSpaceOnUse" x1=".05226"
                    x2=".069362" xlink:href="#d" y1=".22026" y2=".158685"/>
    <linearGradient id="f" gradientUnits="userSpaceOnUse" x1=".182469"
                    x2=".16961" xlink:href="#b" y1=".129315" y2=".013583"/>
    <linearGradient id="g" gradientUnits="userSpaceOnUse" x1=".119177"
                    x2=".114917" xlink:href="#b" y1=".165228" y2=".126874"/>
    <linearGradient id="h" gradientUnits="userSpaceOnUse" x1=".151094"
                    x2=".120024" xlink:href="#b" y1=".166866" y2=".011528"/>
    <linearGradient id="i" gradientUnits="userSpaceOnUse" x1=".062614"
                    x2=".085618" xlink:href="#d" y1=".235776" y2=".152961"/>
    <radialGradient id="j" cx=".155799" cy=".059252"
                    gradientUnits="userSpaceOnUse" r=".050209">
        <stop offset="0" stop-color="#fff"/>
        <stop offset=".988235" stop-color="#7fe5ff"/>
        <stop offset="1" stop-color="#0cf"/>
    </radialGradient>
    <path d="m.0174803.196205.0784134.0351378c.00337795.00051575.00676378-.00001181.0101575-.00176772l.0267992-.0274724c.00212598-.0039252-.00037402-.00781102-.00220079-.0117283l-.0861614-.0329882c-.00430709-.00050394-.00746457.00128346-.00948031.00535827-.00327953.00858661-.0115906.0171772-.0217205.0257559-.0000315.00340945.00051575.00590157.00419291.00770472z"
          fill="url(#i)" stroke="#4c4c4c" stroke-width=".003"/>
    <path d="m.0419291.166768c.00865354.0033937.0176063.00690551.0268504.0105197.00955118.00373622.0194528.00761811.029685.011622-.00334646.00385433-.00670866.00771654-.0100787.0115827-.00337795.00388189-.00676378.00778346-.0101575.011689-.00998425-.00445669-.019626-.00875591-.0289409-.0129094-.00898425-.00400787-.0177205-.00789764-.0261299-.0116535.00315354-.00348819.00628346-.00699213.0094252-.0104685.00312205-.00346457.00624409-.00692913.00934646-.0103819z"
          fill="url(#e)" stroke="#4c4c4c" stroke-width=".003"/>
    <path d="m.104492.191283c.00483071.00187795.00973228.00379921.0147402.00575591-.00344488.00399606-.00688976.00800394-.0103425.0120236-.00346457.0040315-.00694882.00808661-.0104291.0121299-.0048622-.00216142-.00965354-.00429528-.0143622-.0063937.00343307-.00394488.00684646-.00788976.010252-.011815.0033937-.00391339.00677165-.00781496.0101417-.0117008z"
          fill="url(#d)" stroke="#4c4c4c" stroke-width=".003"/>
    <path d="m.0482008.201854.044937.0209134c.00376378.00181102.00731102.00105512.0107283-.00145669l.0226102-.0229449"
          fill="none" stroke="#e5e5e5" stroke-width=".003"/>
    <path d="m.0174803.196205.0784134.0351378c.00337795.00051575.00676378-.00001181.0101575-.00176772l.0267992-.0274724c.00212598-.0039252-.00037402-.00781102-.00220079-.0117283l-.0861614-.0329882c-.00430709-.00050394-.00746457.00128346-.00948031.00535827-.00327953.00858661-.0115906.0171772-.0217205.0257559-.0000315.00340945.00051575.00590157.00419291.00770472z"
          fill="none" stroke="#4c4c4c" stroke-width=".006665"/>
    <g stroke-width=".003">
        <ellipse cx=".155898" cy=".145697" fill="url(#c)" rx=".057224"
                 ry=".024496" stroke="#4c4c4c"/>
        <path d="m.0701614.027815c.0137598.00209843.028248.00431496.0434843.00664173.0160748.00245276.0330748.00505512.0510472.00779921.00411417.00062598.00747244.00503937.00740945.00978346-.00023228.0168386-.00046457.0336142-.00069291.0502795-.00022835.0165906-.00046063.0331339-.00068504.0495551-.00006299.00458661-.00346457.00720866-.00750787.00585827-.0176378-.0058937-.0343465-.0114921-.0501496-.0167756-.0150079-.00501575-.0292717-.00979134-.0428228-.0143228-.00291339-.00097244-.00526772-.00490945-.00527165-.00875197-.00001181-.0137992-.00004331-.0276732-.00005906-.0415827-.00001968-.0139606-.00004724-.028-.00006299-.0420827-.00000394-.00396063.00237402-.00685039.00531102-.00640157z"
              fill="url(#b)" stroke="#4c4c4c"/>
        <path d="m.0771693.041622c.0116063.00203937.023752.0041811.0363937.00640157.0132362.00232283.0270787.00476772.0415748.00731496.00329134.0005748.00597244.00390551.00593307.00737402-.00014173.0123701-.00030315.0247047-.00044882.0369685-.00014567.0122441-.00029528.0244409-.00044882.0365827-.00003937.00340157-.00275197.00533071-.00600394.0043189-.0143071-.00445669-.0279685-.00873622-.0410315-.0128031-.0125079-.0038937-.0245039-.00764567-.0359882-.0112244-.00247244-.00077165-.00448819-.00379528-.00448819-.00673622 0-.0105118-.00001575-.0210512-.00001968-.0316299-.00000787-.0106102.00000394-.0212362 0-.0319252 0-.00298819.00202362-.00508268.00452756-.00464173z"
              fill="url(#j)" stroke="#4c4c4c"/>
        <path d="m.0819567.130551-.0001457.005536.070472.025464-.000015-.007484z"
              fill="url(#g)" stroke="#4c4c4c"/>
        <path d="m.0703504.0277953.0323504-.00633465.0904252.0125984c.00477953.00215748.00650787.00291339.00764173.00975591l-.00155512.0918465c-.00031496.0036378-.00227953.00617323-.00588583.0076063l-.0247441.0136654c.00171654-.00185039.00242913-.00353937.00214173-.00505906l.00137795-.0998346c-.00060236-.00541732-.00307087-.00867717-.00740945-.00978346l-.0943425-.0144606z"
              fill="url(#h)" stroke="#4c4c4c"/>
        <path d="m.199409.123909.0296496-.0193425.00204724-.0766732-.0713307-.00890551-.0388071.00501969.0721575.0100512c.00483858.00115354.00738583.00440551.00764173.00975591l-.00135827.0800945z"
              fill="url(#f)" stroke="#4c4c4c"/>
        <path d="m.152283.161551s.00779921-.00486614.00761024-.00492913c-.00018898-.00006299-.00762598-.00255512-.00762598-.00255512l.00001575.00748425z"
              fill="#999" stroke="#4c4c4c"/>
        <path d="m.0823661.0296811.0823268.0125748c.00492126.00198031.00738976.00523622.00740945.00978346l-.00137795.0998346"
              fill="none" stroke="#b2b2b2"/>
        <path d="m.106752.033378.0579409.00887795c.00492126.00198031.00738976.00523622.00740945.00978346l-.00103937.0750551"
              fill="none" stroke="#ccc"/>
        <path d="m.129433.036874.0352598.00538189c.00492126.00198031.00738976.00523622.00740945.00978346l-.00062598.0451457"
              fill="none" stroke="#e5e5e5"/>
        <path d="m.151031.0401732.0136614.00208268c.00492126.00198031.00738976.00523622.00740945.00978346l-.00027953.0200591"
              fill="none" stroke="#fff"/>
        <path d="m.17011.045807.024292-.007925" fill="none" stroke="#e5e5e5"/>
        <path d="m.17011.045807.016181-.005279" fill="none" stroke="#fff"/>
        <path d="m.203075.037508.021197-.007268" fill="none" stroke="#fff"/>
        <path d="m.112189.158028c.0243622.0127992.0662244.0116811.0874606-.00011417"
              fill="none" stroke="#fff"/>
    </g>
    <path d="m.0649724.117882-.00012205-.0836654c.0006378-.0033189.00056299-.00570079.0055-.00642126l.0323504-.00633465.0182677.00254724.0388071-.00501969.0713307.00890551-.00204724.0766732-.0296496.0193425-.00009843.00582677c.00858268.00497244.0137126.0102441.013811.0159606-.00192126.0157835-.0257087.0231535-.0572244.0245-.0357559-.0010315-.0557008-.0106457-.0572244-.0245l.00052756-.00332677-.0173898-.00628346.00014567-.00553543-.0117126-.00391732c-.00381102-.00136614-.00556299-.00428346-.00527165-.00875197z"
          fill="none" stroke="#4c4c4c" stroke-width=".006665"/>
</svg>