<?xml version="1.0" encoding="UTF-8"?>
<!DOCTYPE svg PUBLIC "-//W3C//DTD SVG 1.1//EN" "http://www.w3.org/Graphics/SVG/1.1/DTD/svg11.dtd">
<!-- Creator: CorelDRAW -->
<svg xmlns="http://www.w3.org/2000/svg" xml:space="preserve" width="0.24in" height="0.24in" style="shape-rendering:geometricPrecision; text-rendering:geometricPrecision; image-rendering:optimizeQuality; fill-rule:evenodd; clip-rule:evenodd"
viewBox="0 0 0.24 0.24">
 <defs>
  <style type="text/css">
   <![CDATA[
    .str0 {stroke:#4C4C4C;stroke-width:0.003}
    .str3 {stroke:#B2B2B2;stroke-width:0.003}
    .str4 {stroke:#CCCCCC;stroke-width:0.003}
    .str1 {stroke:#E5E5E5;stroke-width:0.003}
    .str5 {stroke:white;stroke-width:0.003}
    .str2 {stroke:#4C4C4C;stroke-width:0.00666535}
    .fil3 {fill:none}
    .fil10 {fill:#999999}
    .fil5 {fill:url(#id0)}
    .fil4 {fill:url(#id1)}
    .fil2 {fill:url(#id2)}
    .fil1 {fill:url(#id3)}
    .fil9 {fill:url(#id4)}
    .fil7 {fill:url(#id5)}
    .fil8 {fill:url(#id6)}
    .fil0 {fill:url(#id7)}
    .fil6 {fill:url(#id8)}
   ]]>
  </style>
  <linearGradient id="id0" gradientUnits="userSpaceOnUse" x1="0.178264" y1="0.0334646" x2="0.0587441" y2="0.152984">
   <stop offset="0" style="stop-color:#999999"/>
   <stop offset="1" style="stop-color:#E5E5E5"/>
  </linearGradient>
  <linearGradient id="id1" gradientUnits="userSpaceOnUse" xlink:href="#id0" x1="0.160425" y1="0.113575" x2="0.15137" y2="0.177819">
  </linearGradient>
  <linearGradient id="id2" gradientUnits="userSpaceOnUse" x1="0.0965512" y1="0.22465" x2="0.10678" y2="0.187823">
   <stop offset="0" style="stop-color:#999999"/>
   <stop offset="1" style="stop-color:#E5E5E5"/>
  </linearGradient>
  <linearGradient id="id3" gradientUnits="userSpaceOnUse" xlink:href="#id2" x1="0.0522598" y1="0.22026" x2="0.0693622" y2="0.158685">
  </linearGradient>
  <linearGradient id="id4" gradientUnits="userSpaceOnUse" xlink:href="#id0" x1="0.182469" y1="0.129315" x2="0.16961" y2="0.0135827">
  </linearGradient>
  <linearGradient id="id5" gradientUnits="userSpaceOnUse" xlink:href="#id0" x1="0.119177" y1="0.165228" x2="0.114917" y2="0.126874">
  </linearGradient>
  <linearGradient id="id6" gradientUnits="userSpaceOnUse" xlink:href="#id0" x1="0.151094" y1="0.166866" x2="0.120024" y2="0.0115276">
  </linearGradient>
  <linearGradient id="id7" gradientUnits="userSpaceOnUse" xlink:href="#id2" x1="0.0626142" y1="0.235776" x2="0.0856181" y2="0.152961">
  </linearGradient>
  <radialGradient id="id8" gradientUnits="userSpaceOnUse" cx="0.155799" cy="0.059252" r="0.0502087" fx="0.155799" fy="0.059252">
   <stop offset="0" style="stop-color:white"/>
   <stop offset="0.988235" style="stop-color:#7FE5FF"/>
   <stop offset="1" style="stop-color:#00CCFF"/>
  </radialGradient>
 </defs>
 <g id="Layer_x0020_1">
  <metadata id="CorelCorpID_0Corel-Layer"/>
  <g id="_122904168">
   <path id="_124511856" class="fil0 str0" d="M0.0174803 0.196205l0.0784134 0.0351378c0.00337795,0.000515748 0.00676378,-1.1811e-005 0.0101575,-0.00176772l0.0267992 -0.0274724c0.00212598,-0.0039252 -0.000374016,-0.00781102 -0.00220079,-0.0117283l-0.0861614 -0.0329882c-0.00430709,-0.000503937 -0.00746457,0.00128346 -0.00948031,0.00535827 -0.00327953,0.00858661 -0.0115906,0.0171772 -0.0217205,0.0257559 -3.14961e-005,0.00340945 0.000515748,0.00590157 0.00419291,0.00770472z"/>
   <g>
    <path id="_125685776" class="fil1 str0" d="M0.0419291 0.166768c0.00865354,0.0033937 0.0176063,0.00690551 0.0268504,0.0105197 0.00955118,0.00373622 0.0194528,0.00761811 0.029685,0.011622 -0.00334646,0.00385433 -0.00670866,0.00771654 -0.0100787,0.0115827 -0.00337795,0.00388189 -0.00676378,0.00778346 -0.0101575,0.011689 -0.00998425,-0.00445669 -0.019626,-0.00875591 -0.0289409,-0.0129094 -0.00898425,-0.00400787 -0.0177205,-0.00789764 -0.0261299,-0.0116535 0.00315354,-0.00348819 0.00628346,-0.00699213 0.0094252,-0.0104685 0.00312205,-0.00346457 0.00624409,-0.00692913 0.00934646,-0.0103819z"/>
    <path id="_125670312" class="fil2 str0" d="M0.104492 0.191283c0.00483071,0.00187795 0.00973228,0.00379921 0.0147402,0.00575591 -0.00344488,0.00399606 -0.00688976,0.00800394 -0.0103425,0.0120236 -0.00346457,0.0040315 -0.00694882,0.00808661 -0.0104291,0.0121299 -0.0048622,-0.00216142 -0.00965354,-0.00429528 -0.0143622,-0.0063937 0.00343307,-0.00394488 0.00684646,-0.00788976 0.010252,-0.011815 0.0033937,-0.00391339 0.00677165,-0.00781496 0.0101417,-0.0117008z"/>
   </g>
   <path id="_125685664" class="fil3 str1" d="M0.0482008 0.201854l0.044937 0.0209134c0.00376378,0.00181102 0.00731102,0.00105512 0.0107283,-0.00145669l0.0226102 -0.0229449"/>
   <path id="_123764248" class="fil3 str2" d="M0.0174803 0.196205l0.0784134 0.0351378c0.00337795,0.000515748 0.00676378,-1.1811e-005 0.0101575,-0.00176772l0.0267992 -0.0274724c0.00212598,-0.0039252 -0.000374016,-0.00781102 -0.00220079,-0.0117283l-0.0861614 -0.0329882c-0.00430709,-0.000503937 -0.00746457,0.00128346 -0.00948031,0.00535827 -0.00327953,0.00858661 -0.0115906,0.0171772 -0.0217205,0.0257559 -3.14961e-005,0.00340945 0.000515748,0.00590157 0.00419291,0.00770472z"/>
  </g>
  <g id="_124446088">
   <ellipse id="_125263064" class="fil4 str0" cx="0.155898" cy="0.145697" rx="0.0572244" ry="0.024496"/>
   <path id="_125203056" class="fil5 str0" d="M0.0701614 0.027815c0.0137598,0.00209843 0.028248,0.00431496 0.0434843,0.00664173 0.0160748,0.00245276 0.0330748,0.00505512 0.0510472,0.00779921 0.00411417,0.000625984 0.00747244,0.00503937 0.00740945,0.00978346 -0.000232283,0.0168386 -0.000464567,0.0336142 -0.000692913,0.0502795 -0.000228346,0.0165906 -0.00046063,0.0331339 -0.000685039,0.0495551 -6.29921e-005,0.00458661 -0.00346457,0.00720866 -0.00750787,0.00585827 -0.0176378,-0.0058937 -0.0343465,-0.0114921 -0.0501496,-0.0167756 -0.0150079,-0.00501575 -0.0292717,-0.00979134 -0.0428228,-0.0143228 -0.00291339,-0.000972441 -0.00526772,-0.00490945 -0.00527165,-0.00875197 -1.1811e-005,-0.0137992 -4.33071e-005,-0.0276732 -5.90551e-005,-0.0415827 -1.9685e-005,-0.0139606 -4.72441e-005,-0.028 -6.29921e-005,-0.0420827 -3.93701e-006,-0.00396063 0.00237402,-0.00685039 0.00531102,-0.00640157z"/>
   <path id="_125463520" class="fil6 str0" d="M0.0771693 0.041622c0.0116063,0.00203937 0.023752,0.0041811 0.0363937,0.00640157 0.0132362,0.00232283 0.0270787,0.00476772 0.0415748,0.00731496 0.00329134,0.000574803 0.00597244,0.00390551 0.00593307,0.00737402 -0.000141732,0.0123701 -0.00030315,0.0247047 -0.000448819,0.0369685 -0.000145669,0.0122441 -0.000295276,0.0244409 -0.000448819,0.0365827 -3.93701e-005,0.00340157 -0.00275197,0.00533071 -0.00600394,0.0043189 -0.0143071,-0.00445669 -0.0279685,-0.00873622 -0.0410315,-0.0128031 -0.0125079,-0.0038937 -0.0245039,-0.00764567 -0.0359882,-0.0112244 -0.00247244,-0.000771654 -0.00448819,-0.00379528 -0.00448819,-0.00673622 0,-0.0105118 -1.5748e-005,-0.0210512 -1.9685e-005,-0.0316299 -7.87402e-006,-0.0106102 3.93701e-006,-0.0212362 0,-0.0319252 0,-0.00298819 0.00202362,-0.00508268 0.00452756,-0.00464173z"/>
   <polygon id="_123761792" class="fil7 str0" points="0.0819567,0.130551 0.081811,0.136087 0.152283,0.161551 0.152268,0.154067 "/>
   <path id="_124802048" class="fil8 str0" d="M0.0703504 0.0277953l0.0323504 -0.00633465 0.0904252 0.0125984c0.00477953,0.00215748 0.00650787,0.00291339 0.00764173,0.00975591l-0.00155512 0.0918465c-0.000314961,0.0036378 -0.00227953,0.00617323 -0.00588583,0.0076063l-0.0247441 0.0136654c0.00171654,-0.00185039 0.00242913,-0.00353937 0.00214173,-0.00505906l0.00137795 -0.0998346c-0.000602362,-0.00541732 -0.00307087,-0.00867717 -0.00740945,-0.00978346l-0.0943425 -0.0144606z"/>
   <path id="_124446112" class="fil9 str0" d="M0.199409 0.123909l0.0296496 -0.0193425 0.00204724 -0.0766732 -0.0713307 -0.00890551 -0.0388071 0.00501969 0.0721575 0.0100512c0.00483858,0.00115354 0.00738583,0.00440551 0.00764173,0.00975591l-0.00135827 0.0800945z"/>
   <path id="_123761840" class="fil10 str0" d="M0.152283 0.161551c0,0 0.00779921,-0.00486614 0.00761024,-0.00492913 -0.000188976,-6.29921e-005 -0.00762598,-0.00255512 -0.00762598,-0.00255512l1.5748e-005 0.00748425z"/>
   <path id="_123868984" class="fil3 str3" d="M0.0823661 0.0296811l0.0823268 0.0125748c0.00492126,0.00198031 0.00738976,0.00523622 0.00740945,0.00978346l-0.00137795 0.0998346"/>
   <path id="_125665712" class="fil3 str4" d="M0.106752 0.033378l0.0579409 0.00887795c0.00492126,0.00198031 0.00738976,0.00523622 0.00740945,0.00978346l-0.00103937 0.0750551"/>
   <path id="_126029368" class="fil3 str1" d="M0.129433 0.036874l0.0352598 0.00538189c0.00492126,0.00198031 0.00738976,0.00523622 0.00740945,0.00978346l-0.000625984 0.0451457"/>
   <path id="_125147984" class="fil3 str5" d="M0.151031 0.0401732l0.0136614 0.00208268c0.00492126,0.00198031 0.00738976,0.00523622 0.00740945,0.00978346l-0.000279528 0.0200591"/>
   <line id="_125666080" class="fil3 str1" x1="0.17011" y1="0.0458071" x2="0.194402" y2= "0.0378819" />
   <line id="_124374648" class="fil3 str5" x1="0.17011" y1="0.0458071" x2="0.186291" y2= "0.0405276" />
   <line id="_125665616" class="fil3 str5" x1="0.203075" y1="0.0375079" x2="0.224272" y2= "0.0302402" />
   <path id="_125804512" class="fil3 str5" d="M0.112189 0.158028c0.0243622,0.0127992 0.0662244,0.0116811 0.0874606,-0.000114173"/>
   <path id="_125449632" class="fil3 str2" d="M0.0649724 0.117882l-0.000122047 -0.0836654c0.000637795,-0.0033189 0.000562992,-0.00570079 0.0055,-0.00642126l0.0323504 -0.00633465 0.0182677 0.00254724 0.0388071 -0.00501969 0.0713307 0.00890551 -0.00204724 0.0766732 -0.0296496 0.0193425 -9.84252e-005 0.00582677c0.00858268,0.00497244 0.0137126,0.0102441 0.013811,0.0159606 -0.00192126,0.0157835 -0.0257087,0.0231535 -0.0572244,0.0245 -0.0357559,-0.0010315 -0.0557008,-0.0106457 -0.0572244,-0.0245l0.000527559 -0.00332677 -0.0173898 -0.00628346 0.000145669 -0.00553543 -0.0117126 -0.00391732c-0.00381102,-0.00136614 -0.00556299,-0.00428346 -0.00527165,-0.00875197z"/>
  </g>
 </g>
</svg>
