
<svg enable-background="new 0 0 73.136 62.958" height="62.958"
     viewBox="0 0 73.136 62.958" width="73.136"
     xmlns="http://www.w3.org/2000/svg"
     xmlns:xlink="http://www.w3.org/1999/xlink">
    <linearGradient id="a" gradientUnits="userSpaceOnUse" x1="62.6177"
                    x2="67.3181" y1="23.623" y2="35.2577">
        <stop offset="0" stop-color="#e4e4e4"/>
        <stop offset=".7303" stop-color="#939393"/>
        <stop offset="1" stop-color="#d8d8d8"/>
    </linearGradient>
    <linearGradient id="b">
        <stop offset="0" stop-color="#e4e4e4"/>
        <stop offset="1" stop-color="#8b8b8b"/>
    </linearGradient>
    <linearGradient id="c" gradientUnits="userSpaceOnUse" x1="18.1748"
                    x2="17.0278" xlink:href="#b" y1="35.356" y2="56.9736"/>
    <linearGradient id="d">
        <stop offset="0" stop-color="#e6e6e6"/>
        <stop offset="1" stop-color="#b8b8b8"/>
    </linearGradient>
    <linearGradient id="e" gradientUnits="userSpaceOnUse" x1="32.7344"
                    x2="37.1268" xlink:href="#d" y1="39.2461" y2="25.6584"/>
    <linearGradient id="f">
        <stop offset="0" stop-color="#c2c2c2"/>
        <stop offset="1" stop-color="#6b6b6b"/>
    </linearGradient>
    <linearGradient id="g" gradientUnits="userSpaceOnUse" x1="63.1987"
                    x2="30.5434" xlink:href="#f" y1="35.8457" y2="53.7155"/>
    <linearGradient id="h" gradientUnits="userSpaceOnUse" x1="22.0933"
                    x2="21.4881" xlink:href="#d" y1="34.4419" y2="27.6007"/>
    <linearGradient id="i" gradientUnits="userSpaceOnUse" x1="24.7622"
                    x2="49.3521" xlink:href="#d" y1="19.436" y2="19.436"/>
    <linearGradient id="j" gradientUnits="userSpaceOnUse" x1="18.0439"
                    x2="16.5199" xlink:href="#b" y1="44.0801" y2="54.1965"/>
    <linearGradient id="k" gradientUnits="userSpaceOnUse" x1="16.6768"
                    x2="15.5395" xlink:href="#b" y1="34.728" y2="56.1618"/>
    <linearGradient id="l" gradientUnits="userSpaceOnUse" x1="34.9312"
                    x2="23.0746" xlink:href="#f" y1="31.8721" y2="38.857"/>
    <path d="m12.161.566h15.872v5.332h11.437v19.195l-38.745.143-.154-19.338h11.59z"
          fill="#515151" stroke="#6d6d6d" stroke-width="1.1326"/>
    <path d="m52.75 27.102 19.386-7.821v13.466l-7.224 3.429z" fill="url(#a)"
          stroke="#a3a3a3" stroke-width="1.4583"/>
    <path d="m4.455 39.182c-.106-1.672 1.015-2.666 2.491-2.208l19.954 6.191c1.475.459 2.76 2.202 2.852 3.875l.676 12.183c.093 1.675-1.02 2.601-2.471 2.058l-19.995-7.458c-1.452-.542-2.727-2.354-2.833-4.027z"
          fill="url(#c)"/>
    <path d="m4.455 39.182c-.106-1.672 1.015-2.666 2.491-2.208l19.954 6.191c1.475.459 2.76 2.202 2.852 3.875l.676 12.183c.093 1.675-1.02 2.601-2.471 2.058l-19.995-7.458c-1.452-.542-2.727-2.354-2.833-4.027z"
          fill="none" stroke="#7b7b7b" stroke-width="1.4583"/>
    <path d="m7.353 36.974c-1.477-.458-1.474-1.199.004-1.648l31.306-9.481c1.479-.449 3.929-.589 5.442-.314l18.083 3.287c1.513.275 1.58.992.146 1.595l-29.74 12.491c-1.434.603-3.814.722-5.289.263z"
          fill="url(#e)"/>
    <path d="m7.353 36.974c-1.477-.458-1.474-1.199.004-1.648l31.306-9.481c1.479-.449 3.929-.589 5.442-.314l18.083 3.287c1.513.275 1.58.992.146 1.595l-29.74 12.491c-1.434.603-3.814.722-5.289.263z"
          fill="none" stroke="#f5f5f5" stroke-width="1.4583"/>
    <path d="m62.127 30.485c1.435-.596 2.604.289 2.597 1.965l-.039 9.592c-.008 1.678-1.152 3.624-2.546 4.324l-29.213 14.708c-1.394.702-2.611-.093-2.704-1.766l-.675-12.183c-.093-1.674 1.005-3.531 2.438-4.126z"
          fill="url(#g)"/>
    <path d="m62.333 30.4c1.435-.596 2.604.289 2.596 1.965l-.039 9.592c-.007 1.676-1.153 3.623-2.547 4.325l-29.212 14.708c-1.393.702-2.61-.093-2.703-1.768l-.676-12.182c-.092-1.673 1.005-3.529 2.438-4.125z"
          fill="none" stroke="#7c7c7c" stroke-width="1.4583"/>
    <path d="m23.231 28.068c-.759-.117-1.975.014-2.7.291l-8.897 3.396c-.725.276-1.268 1.186-1.208 2.022l.204 2.854c.06.836.712 1.708 1.45 1.936l9.343 2.901c.738.229 1.307-.27 1.265-1.107l-.172-3.359c-.042-.837.495-1.803 1.195-2.147l9.139-4.494c.701-.344.652-.721-.109-.837z"
          fill="url(#h)"/>
    <path d="m23.231 28.068c-.759-.117-1.975.014-2.7.291l-8.897 3.396c-.725.276-1.268 1.186-1.208 2.022l.204 2.854c.06.836.712 1.708 1.45 1.936l9.343 2.901c.738.229 1.307-.27 1.265-1.107l-.172-3.359c-.042-.837.495-1.803 1.195-2.147l9.139-4.494c.701-.344.652-.721-.109-.837z"
          fill="none" stroke="#f5f5f5" stroke-width="1.4583"/>
    <path d="m42.402 9.84c-6.303 11.728-17.161 17.614-17.161 17.614-.686.373-.628.776.131.898l4.066.65c.759.121 1.912-.145 2.563-.588 0 0 11.594-7.924 17.351-18.342z"
          fill="url(#i)"/>
    <path d="m42.402 9.84c-6.303 11.728-17.161 17.614-17.161 17.614-.686.373-.628.776.131.898l4.066.65c.759.121 1.912-.145 2.563-.588 0 0 11.594-7.924 17.351-18.342z"
          fill="none" stroke="#f5f5f5" stroke-width="1.4583"/>
    <path d="m11.376 55.098c-1.452-.541-2.72-2.354-2.819-4.029l-.413-7.02c-.098-1.674 1.029-2.672 2.506-2.216l11.951 3.681c1.477.455 2.763 2.196 2.859 3.869l.461 8.161c.095 1.674-1.015 2.6-2.467 2.057z"
          fill="url(#j)"/>
    <g stroke-width="1.4583">
        <path d="m11.376 55.098c-1.452-.541-2.72-2.354-2.819-4.029l-.413-7.02c-.098-1.674 1.029-2.672 2.506-2.216l11.951 3.681c1.477.455 2.763 2.196 2.859 3.869l.461 8.161c.095 1.674-1.015 2.6-2.467 2.057z"
              fill="none" stroke="#676767"/>
        <path d="m30.197 55.067-.445-8.027c-.092-1.673 1.005-3.529 2.438-4.125l17.772-7.379"
              fill="none" stroke="#a1a1a1"/>
        <path d="m29.86 48.977-.108-1.937c-.092-1.674 1.005-3.529 2.438-4.125l5.796-2.407"
              fill="none" stroke="#d1d1d1"/>
        <path d="m13.406 38.853 13.899 4.313c1.428 1.102 2.372 2.53 2.463 4.204"
              fill="none" stroke="#b5b5b5"/>
        <path d="m13.406 38.853 13.899 4.313c1.428 1.102 2.372 2.53 2.463 4.204"
              fill="none" stroke="#f2f2f2"/>
        <path d="m7.353 36.974 19.953 6.191c1.475.459 2.76 2.201 2.853 3.875"
              fill="none" stroke="#f2f2f2"/>
    </g>
    <path d="m22.688 40.36c.042.838-.525 1.331-1.264 1.1l-9.377-2.959c-.738-.232-1.386-1.106-1.442-1.943l-.187-2.779c-.056-.837.509-1.358 1.254-1.161l9.412 2.502c.746.198 1.39 1.044 1.432 1.882z"
          fill="url(#k)"/>
    <path d="m22.688 40.36c.042.838-.525 1.331-1.264 1.1l-9.377-2.959c-.738-.232-1.386-1.106-1.442-1.943l-.187-2.779c-.056-.837.509-1.358 1.254-1.161l9.412 2.502c.746.198 1.39 1.044 1.432 1.882z"
          fill="none" stroke="#7b7b7b" stroke-width="1.4583"/>
    <path d="m22.688 40.36c.042.838.663 1.272 1.376.966l3.529-1.511c.714-.308 1.284-1.243 1.267-2.081l-.026-1.429c-.016-.839.529-1.838 1.211-2.22l2.836-1.589c.682-.383 1.24-1.159 1.24-1.728.002-.569-.57-.752-1.271-.408l-9.139 4.494c-.701.344-1.237 1.31-1.195 2.147z"
          fill="url(#l)"/>
    <path d="m22.688 40.36c.042.838.663 1.272 1.376.966l3.529-1.511c.714-.308 1.284-1.243 1.267-2.081l-.026-1.429c-.016-.839.529-1.838 1.211-2.22l2.836-1.589c.682-.383 1.24-1.159 1.24-1.728.002-.569-.57-.752-1.271-.408l-9.139 4.494c-.701.344-1.237 1.31-1.195 2.147z"
          fill="none" stroke="#7c7c7c" stroke-width="1.4583"/>
    <path d="m32.851 30.36-9.139 4.494c-.701.344-1.237 1.31-1.195 2.147l.172 3.358"
          fill="none" stroke="#9e9e9e" stroke-width="1.4583"/>
    <path d="m13.595 33.128 7.489 1.991c.745.198 1.391 1.044 1.432 1.881l.137 2.66"
          fill="none" stroke="#a3a3a3" stroke-width="1.4583"/>
    <path d="m28.4 32.548-4.688 2.306c-.701.345-1.237 1.31-1.195 2.148l.09 1.751"
          fill="none" stroke="#c9c9c9" stroke-width="1.4583"/>
    <path d="m15.686 33.684 5.398 1.436c.745.198 1.391 1.044 1.432 1.881l.093 1.821"
          fill="none" stroke="#c4c4c4" stroke-width="1.4583"/>
    <path d="m72.136 32.747-7.224 3.428-.023 5.783c0 1.757-.399 3.247-2.547 4.325l-29.211 14.707s-2.173 1.97-5.174.29-19.995-7.457-19.995-7.457-2.546-.452-2.833-4.027c-.363-4.52-.673-10.614-.673-10.614s-.031-3.142 2.614-3.856 3.021-.832 3.021-.832l-.04-2.574 10.48-3.56 2.7-.291c3.378.221 18.122-13.907 19.171-18.229l6.662.222c-3.865 11.175-24.268 22.146-19.044 19.045l8.644-3.262 5.442-.314 8.646 1.571 19.385-7.82v13.465z"
          fill="none" stroke="#6d6d6d" stroke-width="2"/>
</svg>