<?xml version="1.0" encoding="UTF-8"?>
<!DOCTYPE svg PUBLIC "-//W3C//DTD SVG 1.1//EN" "http://www.w3.org/Graphics/SVG/1.1/DTD/svg11.dtd">
<!-- Creator: CorelDRAW -->
<svg xmlns="http://www.w3.org/2000/svg" xml:space="preserve" width="0.24in" height="0.24in" style="shape-rendering:geometricPrecision; text-rendering:geometricPrecision; image-rendering:optimizeQuality; fill-rule:evenodd; clip-rule:evenodd"
viewBox="0 0 0.24 0.24">
 <defs>
  <style type="text/css">
   <![CDATA[
    .str0 {stroke:#4D5356;stroke-width:0.003;stroke-linecap:round;stroke-linejoin:round}
    .str1 {stroke:#656B6F;stroke-width:0.003}
    .str2 {stroke:#ADB3C3;stroke-width:0.003}
    .str3 {stroke:#C1C7D8;stroke-width:0.003}
    .str4 {stroke:#CDD2E3;stroke-width:0.003}
    .str5 {stroke:#E7E8EA;stroke-width:0.003}
    .str6 {stroke:#4D5356;stroke-width:0.00666535;stroke-linecap:round;stroke-linejoin:round}
    .fil2 {fill:none}
    .fil6 {fill:#0BADDC}
    .fil0 {fill:#DBDEEA}
    .fil1 {fill:url(#id0)}
    .fil24 {fill:url(#id1)}
    .fil22 {fill:url(#id2)}
    .fil20 {fill:url(#id3)}
    .fil18 {fill:url(#id4)}
    .fil16 {fill:url(#id5)}
    .fil14 {fill:url(#id6)}
    .fil12 {fill:url(#id7)}
    .fil10 {fill:url(#id8)}
    .fil8 {fill:url(#id9)}
    .fil5 {fill:url(#id10)}
    .fil3 {fill:url(#id11)}
    .fil23 {fill:url(#id12)}
    .fil21 {fill:url(#id13)}
    .fil19 {fill:url(#id14)}
    .fil17 {fill:url(#id15)}
    .fil15 {fill:url(#id16)}
    .fil13 {fill:url(#id17)}
    .fil11 {fill:url(#id18)}
    .fil9 {fill:url(#id19)}
    .fil7 {fill:url(#id20)}
    .fil4 {fill:url(#id21)}
   ]]>
  </style>
  <linearGradient id="id0" gradientUnits="userSpaceOnUse" x1="0.128248" y1="0.202551" x2="0.260327" y2="0.0374488">
   <stop offset="0" style="stop-color:#737986"/>
   <stop offset="1" style="stop-color:#BBBECA"/>
  </linearGradient>
  <linearGradient id="id1" gradientUnits="userSpaceOnUse" x1="0.0565945" y1="0.0375551" x2="0.0559173" y2="0.0144843">
   <stop offset="0" style="stop-color:#8D8F9E"/>
   <stop offset="1" style="stop-color:#D4D4DE"/>
  </linearGradient>
  <linearGradient id="id2" gradientUnits="userSpaceOnUse" xlink:href="#id1" x1="0.0568228" y1="0.0572047" x2="0.0561378" y2="0.0338819">
  </linearGradient>
  <linearGradient id="id3" gradientUnits="userSpaceOnUse" xlink:href="#id1" x1="0.0570394" y1="0.076185" x2="0.0563465" y2="0.0526024">
  </linearGradient>
  <linearGradient id="id4" gradientUnits="userSpaceOnUse" xlink:href="#id1" x1="0.0572677" y1="0.0957126" x2="0.0565669" y2="0.0718228">
  </linearGradient>
  <linearGradient id="id5" gradientUnits="userSpaceOnUse" xlink:href="#id1" x1="0.0574803" y1="0.114287" x2="0.0567717" y2="0.0901535">
  </linearGradient>
  <linearGradient id="id6" gradientUnits="userSpaceOnUse" xlink:href="#id1" x1="0.0577008" y1="0.133685" x2="0.0569843" y2="0.109244">
  </linearGradient>
  <linearGradient id="id7" gradientUnits="userSpaceOnUse" xlink:href="#id1" x1="0.0579173" y1="0.152472" x2="0.0571929" y2="0.12774">
  </linearGradient>
  <linearGradient id="id8" gradientUnits="userSpaceOnUse" xlink:href="#id1" x1="0.0581417" y1="0.17172" x2="0.0574094" y2="0.146728">
  </linearGradient>
  <linearGradient id="id9" gradientUnits="userSpaceOnUse" xlink:href="#id1" x1="0.0583543" y1="0.190067" x2="0.0576142" y2="0.164791">
  </linearGradient>
  <linearGradient id="id10" gradientUnits="userSpaceOnUse" xlink:href="#id1" x1="0.0585748" y1="0.209213" x2="0.0578268" y2="0.183677">
  </linearGradient>
  <linearGradient id="id11" gradientUnits="userSpaceOnUse" xlink:href="#id1" x1="0.0960197" y1="0.236815" x2="0.0949646" y2="0.200839">
  </linearGradient>
  <linearGradient id="id12" gradientUnits="userSpaceOnUse" xlink:href="#id1" x1="0.130606" y1="0.0397874" x2="0.129913" y2="0.0162205">
  </linearGradient>
  <linearGradient id="id13" gradientUnits="userSpaceOnUse" xlink:href="#id1" x1="0.130713" y1="0.0598307" x2="0.130012" y2="0.0359646">
  </linearGradient>
  <linearGradient id="id14" gradientUnits="userSpaceOnUse" xlink:href="#id1" x1="0.130819" y1="0.0791614" x2="0.13011" y2="0.0550512">
  </linearGradient>
  <linearGradient id="id15" gradientUnits="userSpaceOnUse" xlink:href="#id1" x1="0.130925" y1="0.0990512" x2="0.130209" y2="0.0746024">
  </linearGradient>
  <linearGradient id="id16" gradientUnits="userSpaceOnUse" xlink:href="#id1" x1="0.131024" y1="0.117976" x2="0.130299" y2="0.0932677">
  </linearGradient>
  <linearGradient id="id17" gradientUnits="userSpaceOnUse" xlink:href="#id1" x1="0.13113" y1="0.137728" x2="0.130398" y2="0.112713">
  </linearGradient>
  <linearGradient id="id18" gradientUnits="userSpaceOnUse" xlink:href="#id1" x1="0.131236" y1="0.156846" x2="0.130488" y2="0.131539">
  </linearGradient>
  <linearGradient id="id19" gradientUnits="userSpaceOnUse" xlink:href="#id1" x1="0.131339" y1="0.17648" x2="0.130583" y2="0.150906">
  </linearGradient>
  <linearGradient id="id20" gradientUnits="userSpaceOnUse" xlink:href="#id1" x1="0.131441" y1="0.195165" x2="0.130677" y2="0.169291">
  </linearGradient>
  <linearGradient id="id21" gradientUnits="userSpaceOnUse" xlink:href="#id1" x1="0.131543" y1="0.214669" x2="0.130772" y2="0.188504">
  </linearGradient>
 </defs>
 <g id="Layer_x0020_1">
  <metadata id="CorelCorpID_0Corel-Layer"/>
  <g id="_153297736">
   <polygon id="_154283800" class="fil0 str0" points="0.168417,0.234689 0.217941,0.19278 0.220161,0.00531102 0.0810827,0.00531102 0.0198386,0.0155472 0.0228543,0.223335 "/>
   <polygon id="_151833928" class="fil1 str0" points="0.168417,0.0183346 0.220161,0.00531102 0.217941,0.19278 0.168417,0.234689 "/>
   <polygon id="_151698272" class="fil2 str0" points="0.0198386,0.0155472 0.168417,0.0183346 0.168417,0.234689 0.0228543,0.223335 "/>
   <g>
    <path id="_126800856" class="fil3 str1" d="M0.022563 0.202969c0.0235354,0.0017126 0.0473937,0.00344488 0.0715197,0.00519685 0.024437,0.00177559 0.0492087,0.00359843 0.0742913,0.00542126 1.1811e-005,0.00704724 2.75591e-005,0.0140945 4.33071e-005,0.0211024 -0.0250394,-0.00195276 -0.0497717,-0.00388583 -0.0741496,-0.0057874 -0.0240866,-0.00187795 -0.0479016,-0.00373228 -0.0714134,-0.00556693 -9.44882e-005,-0.00677559 -0.000192913,-0.0135512 -0.000291339,-0.0203661z"/>
    <g>
     <g>
      <path id="_154169368" class="fil4 str1" d="M0.168374 0.213587c-0.0125984,-0.000913386 -0.0250945,-0.00183465 -0.0375039,-0.00274409 -0.0123307,-0.000905512 -0.0245827,-0.00179134 -0.0367717,-0.00267323 -5.11811e-005,-0.0061811 -0.000102362,-0.0123583 -0.000153543,-0.0185787 0.0122087,0.000826772 0.0244724,0.00166535 0.0368268,0.0025 0.0124252,0.00084252 0.0249409,0.00171654 0.0375591,0.00257087 1.5748e-005,0.00631496 2.75591e-005,0.0126102 4.33071e-005,0.0189252z"/>
      <path id="_154488728" class="fil5 str1" d="M0.022563 0.202969c0.0117244,0.000854331 0.0235394,0.0017126 0.0354173,0.0025748 0.0119567,0.000866142 0.024,0.00174409 0.0361181,0.00262598 -5.11811e-005,-0.0061811 -0.000102362,-0.0123583 -0.000153543,-0.0185787 -0.0121378,-0.000826772 -0.0242047,-0.00164567 -0.0361732,-0.00245669 -0.0119016,-0.00080315 -0.0237323,-0.00161024 -0.0354724,-0.00240945 8.66142e-005,0.00609055 0.000173228,0.0121772 0.00026378,0.0182441z"/>
      <path id="_126790760" class="fil6 str1" d="M0.132776 0.201602c0.00773622,0.00053937 0.0154961,0.00109449 0.0233031,0.00164173 0.00107874,7.48031e-005 0.00195669,-0.000681102 0.00195276,-0.0017126 0,0 0,0 0,0 -3.93701e-006,-0.00101181 -0.000885827,-0.00190945 -0.00196063,-0.00198425 -0.00781102,-0.000559055 -0.0155748,-0.0011063 -0.023311,-0.0016378 -0.00107874,-7.48031e-005 -0.00193701,0.000716535 -0.00193307,0.00172047 0,0 0,0 0,0 3.93701e-006,0.00102756 0.000874016,0.00189764 0.00194882,0.00197244z"/>
      <path id="_153319376" class="fil6 str1" d="M0.0599055 0.19648c0.00770079,0.00053937 0.0154409,0.00108268 0.023185,0.00162992 0.00111024,7.48031e-005 0.00202362,-0.000744094 0.00201181,-0.0018189 0,0 0,0 0,0 -3.93701e-006,-0.00107874 -0.000937008,-0.0020315 -0.00204724,-0.0021063 -0.00775984,-0.00053937 -0.0154882,-0.00107874 -0.0231929,-0.0016063 -0.0011063,-7.48031e-005 -0.00200394,0.000744094 -0.00199213,0.00181102 0,0 0,0 0,0 1.1811e-005,0.00107087 0.000925197,0.00201575 0.00203543,0.00209055z"/>
     </g>
     <g>
      <path id="_152787552" class="fil7 str1" d="M0.168331 0.194083c-0.0126181,-0.000854331 -0.0251339,-0.00170866 -0.037563,-0.00254724 -0.0123504,-0.000834646 -0.0246181,-0.00166929 -0.0368268,-0.00251575 -5.11811e-005,-0.00617717 -0.000106299,-0.0123976 -0.000153543,-0.0186417 0.0122283,0.000771654 0.0245157,0.00153543 0.0368858,0.00232283 0.0124449,0.000795276 0.0249843,0.00159843 0.037622,0.0023937 7.87402e-006,0.00635433 2.3622e-005,0.0126732 3.54331e-005,0.0189882z"/>
      <path id="_152755184" class="fil8 str1" d="M0.0222913 0.184165c0.0117402,0.000795276 0.0235748,0.00159843 0.0354724,0.00240157 0.0119764,0.000807087 0.0240394,0.00162992 0.0361772,0.00245276 -5.11811e-005,-0.00617717 -0.000106299,-0.0123976 -0.000153543,-0.0186417 -0.0121575,-0.000767717 -0.0242402,-0.00153937 -0.0362323,-0.00230315 -0.0119173,-0.000755906 -0.0237717,-0.00149606 -0.0355315,-0.00223622 8.66142e-005,0.00612992 0.000177165,0.0122362 0.000267717,0.0183268z"/>
      <path id="_152746488" class="fil6 str1" d="M0.132665 0.182268c0.00775591,0.000507874 0.0155394,0.00101575 0.0233543,0.00152756 0.00106693,6.69291e-005 0.00195669,-0.000708661 0.00195276,-0.00174016 0,0 0,0 0,0 -3.93701e-006,-0.0010315 -0.000901575,-0.00190551 -0.00196457,-0.00197638 -0.00782283,-0.000519685 -0.0155984,-0.0010315 -0.0233622,-0.00152756 -0.00106299,-6.69291e-005 -0.0019252,0.000708661 -0.00192126,0.0017126 0,0 0,0 0,0 3.93701e-006,0.00104724 0.000874016,0.00193701 0.00194094,0.00200394z"/>
      <path id="_152741040" class="fil6 str1" d="M0.059689 0.177476c0.0077126,0.000503937 0.0154528,0.00100787 0.0232244,0.00151575 0.00111024,7.08661e-005 0.00201969,-0.000751969 0.00201575,-0.00183071 0,0 0,-3.93701e-006 0,-1.9685e-005 -7.87402e-006,-0.00107874 -0.000944882,-0.00202362 -0.00205118,-0.00209449 -0.00777953,-0.000496063 -0.0155118,-0.00100394 -0.0232323,-0.00151575 -0.0011063,-7.08661e-005 -0.00200394,0.000771654 -0.00199606,0.00184252 0,1.5748e-005 0,1.9685e-005 0,1.9685e-005 1.1811e-005,0.00107087 0.000929134,0.00201181 0.00203937,0.00208268z"/>
     </g>
     <g>
      <path id="_152902608" class="fil9 str1" d="M0.168295 0.175394c-0.0126378,-0.000795276 -0.0251772,-0.00161024 -0.037622,-0.0023937 -0.012374,-0.000775591 -0.0246575,-0.00155512 -0.0368858,-0.00232677 -5.11811e-005,-0.00622047 -0.000102362,-0.0124409 -0.00015748,-0.0186811 0.012248,0.000712598 0.0245512,0.00143307 0.0369449,0.00215354 0.0124646,0.000724409 0.0250197,0.00146063 0.0376772,0.00219685 1.5748e-005,0.00637795 2.75591e-005,0.0127165 4.33071e-005,0.0190512z"/>
      <path id="_152877864" class="fil10 str1" d="M0.0220276 0.16613c0.0117598,0.000740157 0.0236102,0.00149213 0.0355315,0.00224016 0.0119882,0.000755906 0.0240748,0.00153543 0.0362283,0.00230315 -5.11811e-005,-0.00622047 -0.000102362,-0.0124409 -0.00015748,-0.0186811 -0.0121732,-0.000732283 -0.0242717,-0.00144094 -0.0362874,-0.0021378 -0.0119331,-0.000692913 -0.0238031,-0.00138583 -0.0355827,-0.0020748 9.05512e-005,0.00612992 0.000181102,0.0122402 0.000267717,0.0183504z"/>
      <path id="_153572872" class="fil6 str1" d="M0.132571 0.163705c0.00775591,0.000468504 0.015563,0.000940945 0.0233937,0.00141732 0.00106693,6.29921e-005 0.00195669,-0.000720472 0.00195276,-0.00175197 0,0 0,0 0,0 0,-0.00100787 -0.000897638,-0.0019252 -0.00196457,-0.00198819 -0.00783071,-0.000468504 -0.0156378,-0.00096063 -0.0234016,-0.00141732 -0.00106299,-6.29921e-005 -0.0019252,0.00073622 -0.00192126,0.00176378 0,0 0,0 0,0 3.93701e-006,0.00102362 0.000874016,0.00191339 0.00194094,0.00197638z"/>
      <path id="_152619736" class="fil6 str1" d="M0.0594843 0.159244c0.00771654,0.000464567 0.0154724,0.000944882 0.0232598,0.00141339 0.00111024,6.69291e-005 0.00202756,-0.00076378 0.00201969,-0.0018622 0,0 0,0 0,0 -1.1811e-005,-0.0010748 -0.000940945,-0.00202362 -0.00205512,-0.00208661 -0.00778346,-0.000464567 -0.0155512,-0.000929134 -0.0232677,-0.00140551 -0.00111024,-6.69291e-005 -0.00201181,0.000759843 -0.00199606,0.00185039 0,0 0,0 0,0 1.1811e-005,0.00109055 0.000933071,0.00202362 0.00203937,0.00209055z"/>
     </g>
     <g>
      <path id="_152629528" class="fil11 str1" d="M0.168252 0.15576c-0.0126575,-0.00073622 -0.0252165,-0.00146457 -0.0376811,-0.00218898 -0.0123937,-0.000716535 -0.0246969,-0.00144094 -0.0369449,-0.00214961 -5.11811e-005,-0.00624409 -0.000102362,-0.0125039 -0.000153543,-0.0187913 0.012252,0.000653543 0.0245866,0.00134252 0.037,0.002 0.0124843,0.000665354 0.025063,0.00133465 0.0377402,0.00201181 1.1811e-005,0.00637795 2.75591e-005,0.0127795 3.93701e-005,0.0191181z"/>
      <path id="_152641760" class="fil12 str1" d="M0.021752 0.14722c0.0117795,0.000685039 0.0236496,0.00137008 0.0355866,0.00207087 0.0120118,0.000704724 0.0241142,0.00142126 0.0362874,0.00212992 -5.11811e-005,-0.00624409 -0.000102362,-0.0125039 -0.000153543,-0.0187913 -0.0121969,-0.000649606 -0.024315,-0.00129921 -0.0363465,-0.00193701 -0.0119567,-0.000637795 -0.0238465,-0.00127559 -0.0356417,-0.00190157 8.66142e-005,0.00614961 0.000177165,0.0122992 0.000267717,0.0184291z"/>
      <path id="_152676304" class="fil6 str1" d="M0.132472 0.144217c0.00777165,0.000429134 0.0155866,0.000874016 0.0234291,0.00130709 0.00106693,5.90551e-005 0.00196457,-0.000748031 0.00196063,-0.00177953 0,0 0,0 0,0 -3.93701e-006,-0.00103543 -0.000901575,-0.0019252 -0.00197244,-0.00198031 -0.00784252,-0.000429134 -0.0156654,-0.000858268 -0.023437,-0.00128346 -0.00107087,-5.51181e-005 -0.00192913,0.000724409 -0.0019252,0.00175197 0,0 0,0 0,0 3.93701e-006,0.00102362 0.000877953,0.0019252 0.00194488,0.00198425z"/>
      <path id="_152783480" class="fil6 str1" d="M0.0592677 0.140114c0.00772441,0.000429134 0.0155,0.000866142 0.0232835,0.00129921 0.00112598,6.29921e-005 0.00204331,-0.000771654 0.00203543,-0.00187008 0,0 0,-3.93701e-006 0,-2.3622e-005 -3.93701e-006,-0.0010748 -0.000940945,-0.00201575 -0.00207087,-0.0020748 -0.00778346,-0.000425197 -0.015563,-0.000854331 -0.0232913,-0.00127559 -0.00111024,-5.90551e-005 -0.00201181,0.000751969 -0.002,0.00184252 0,1.5748e-005 0,1.9685e-005 0,1.9685e-005 1.1811e-005,0.00109055 0.000929134,0.00202362 0.00204331,0.00208268z"/>
     </g>
    </g>
    <g>
     <g>
      <path id="_153353320" class="fil13 str1" d="M0.168213 0.136642c-0.0126772,-0.000677165 -0.0252559,-0.00134646 -0.0377402,-0.00201181 -0.0124134,-0.00065748 -0.024748,-0.00134646 -0.037,-0.002 -5.51181e-005,-0.00625984 -0.000106299,-0.0125472 -0.00015748,-0.0188268 0.0122717,0.000598425 0.0246299,0.00119291 0.0370472,0.00180315 0.0125197,0.00061811 0.0251142,0.00124016 0.037811,0.00185827 1.5748e-005,0.00639764 2.75591e-005,0.0127992 3.93701e-005,0.0191772z"/>
      <path id="_153348152" class="fil14 str1" d="M0.0214843 0.128791c0.0117953,0.000625984 0.023685,0.00126378 0.0356417,0.00190157 0.0120315,0.000637795 0.0241496,0.0012874 0.0363465,0.00193701 -5.51181e-005,-0.00625984 -0.000106299,-0.0125472 -0.00015748,-0.0188268 -0.0122126,-0.000594488 -0.0243583,-0.00118504 -0.0364055,-0.00176772 -0.0119764,-0.00057874 -0.023878,-0.00116142 -0.0356969,-0.00173622 9.05512e-005,0.00617323 0.000181102,0.0123386 0.000271654,0.0184921z"/>
      <path id="_153344344" class="fil6 str1" d="M0.132378 0.125224c0.00777953,0.000397638 0.0156142,0.000795276 0.0234646,0.00119685 0.00107087,5.11811e-005 0.00196457,-0.00073622 0.00196457,-0.00177165 0,0 0,0 0,0 -3.93701e-006,-0.00105118 -0.000901575,-0.00193701 -0.00197244,-0.00198819 -0.00785827,-0.000393701 -0.0156929,-0.000787402 -0.0234764,-0.00117323 -0.00107087,-5.11811e-005 -0.00194882,0.000732283 -0.00194488,0.00177953 0,0 0,0 0,0 7.87402e-006,0.00102756 0.000889764,0.00190551 0.00196457,0.00195669z"/>
      <path id="_153330736" class="fil6 str1" d="M0.0590591 0.121465c0.00774016,0.000389764 0.0155276,0.000791339 0.0233189,0.00118898 0.00112992,5.51181e-005 0.0020315,-0.000779528 0.00202362,-0.00187795 0,0 0,0 0,0 -7.87402e-006,-0.00109449 -0.000929134,-0.00205118 -0.00205906,-0.0021063 -0.00779528,-0.000389764 -0.0155866,-0.000783465 -0.0233268,-0.00116535 -0.00111417,-5.51181e-005 -0.00201969,0.00080315 -0.00200394,0.0018937 0,0 0,0 0,0 1.1811e-005,0.00108268 0.000937008,0.00201181 0.00204724,0.00206693z"/>
     </g>
     <g>
      <path id="_153246688" class="fil15 str1" d="M0.168173 0.116882c-0.0126969,-0.000614173 -0.0252953,-0.00124016 -0.037815,-0.00185433 -0.0124173,-0.000610236 -0.0247756,-0.00120079 -0.0370472,-0.00179528 -5.11811e-005,-0.00626378 -0.000106299,-0.0125472 -0.00015748,-0.018874 0.0122913,0.00053937 0.0246654,0.00109449 0.0371063,0.00164567 0.0125354,0.000555118 0.0251575,0.00109449 0.037874,0.00165354 1.1811e-005,0.00642126 2.75591e-005,0.0128228 3.93701e-005,0.0192244z"/>
      <path id="_153220040" class="fil16 str1" d="M0.0212047 0.10974c0.0118189,0.000570866 0.0237244,0.00114961 0.0357008,0.00172835 0.0120512,0.00057874 0.024189,0.00117323 0.0364055,0.00176378 -5.11811e-005,-0.00626378 -0.000106299,-0.0125472 -0.00015748,-0.018874 -0.0122323,-0.000535433 -0.0243937,-0.00106693 -0.0364606,-0.00159055 -0.0119961,-0.000519685 -0.0239213,-0.00104724 -0.0357559,-0.00156299 9.05512e-005,0.00619291 0.000177165,0.0123622 0.000267717,0.0185354z"/>
      <path id="_153214592" class="fil6 str1" d="M0.13228 0.105638c0.00779134,0.000358268 0.0156417,0.000720472 0.0235039,0.00108268 0.0010748,4.72441e-005 0.0019685,-0.000767717 0.00196457,-0.00182283 0,0 0,0 0,0 0,-0.0010315 -0.000901575,-0.00191339 -0.00197638,-0.00196063 -0.00786614,-0.000354331 -0.0157126,-0.000712598 -0.0235118,-0.00105906 -0.00108268,-4.72441e-005 -0.00195276,0.000744094 -0.00194488,0.00176772 0,0 0,0 0,0 3.93701e-006,0.00102756 0.000877953,0.00194488 0.00196457,0.00199213z"/>
      <path id="_153196648" class="fil6 str1" d="M0.0588268 0.102232c0.00776378,0.000358268 0.0155669,0.000716535 0.023374,0.0010748 0.00113386,5.11811e-005 0.00203543,-0.000811024 0.00202756,-0.00190945 0,0 0,0 0,0 -7.87402e-006,-0.00109843 -0.000933071,-0.00205118 -0.00206693,-0.00209843 -0.00780709,-0.000350394 -0.0156142,-0.000704724 -0.023378,-0.00105118 -0.00110236,-4.72441e-005 -0.00200394,0.000787402 -0.00199213,0.00190157 0,0 0,0 0,0 1.1811e-005,0.00109055 0.000933071,0.00203543 0.00203543,0.00208268z"/>
     </g>
     <g>
      <path id="_153116680" class="fil17 str1" d="M0.168134 0.0979567c-0.0127165,-0.000555118 -0.0253346,-0.00111024 -0.037874,-0.00165748 -0.012437,-0.00053937 -0.024811,-0.0011063 -0.0371024,-0.00164173 -5.51181e-005,-0.0062874 -0.000106299,-0.0126142 -0.00015748,-0.0189606 0.0123071,0.0005 0.0247008,0.000988189 0.0371614,0.00147244 0.0125394,0.000484252 0.0251929,0.000980315 0.0379291,0.00147638 1.5748e-005,0.00646457 3.14961e-005,0.0128898 4.33071e-005,0.019311z"/>
      <path id="_153039968" class="fil18 str1" d="M0.0209409 0.0914961c0.0118346,0.000515748 0.0237598,0.00103937 0.0357559,0.00156299 0.0120669,0.000523622 0.0242283,0.00105906 0.0364606,0.00159843 -5.51181e-005,-0.0062874 -0.000106299,-0.0126142 -0.00015748,-0.0189606 -0.012252,-0.000476378 -0.0244331,-0.000952756 -0.0365197,-0.00142126 -0.0120157,-0.000464567 -0.0239567,-0.000937008 -0.0358071,-0.00139764 8.66142e-005,0.0062126 0.000177165,0.0124252 0.000267717,0.0186181z"/>
      <path id="_153031816" class="fil6 str1" d="M0.132185 0.086815c0.00780709,0.000318898 0.0156575,0.000649606 0.0235394,0.000996063 0.00107087,4.33071e-005 0.00197244,-0.000779528 0.0019685,-0.00183071 0,0 0,0 0,0 -3.93701e-006,-0.00103543 -0.000909449,-0.00192913 -0.00198031,-0.00197244 -0.00788189,-0.000314961 -0.0157362,-0.000641732 -0.0235472,-0.000952756 -0.00108661,-4.33071e-005 -0.00195669,0.000755906 -0.00194882,0.00179921 0,0 0,0 0,0 3.93701e-006,0.00104724 0.00088189,0.00191732 0.0019685,0.00196063z"/>
      <path id="_153008696" class="fil6 str1" d="M0.058622 0.083752c0.00777165,0.000318898 0.0155906,0.000665354 0.0234055,0.000988189 0.00112205,4.33071e-005 0.00203937,-0.000822835 0.0020315,-0.00192126 0,0 0,0 0,0 -1.1811e-005,-0.00109449 -0.000948819,-0.00206693 -0.00206693,-0.00211024 -0.00783465,-0.000314961 -0.0156339,-0.000633858 -0.0234173,-0.000944882 -0.00109843,-4.33071e-005 -0.00200787,0.000822835 -0.00199606,0.00193307 0,0 0,0 0,0 1.5748e-005,0.00109055 0.000937008,0.00201181 0.00204331,0.00205512z"/>
     </g>
     <g>
      <path id="_152570224" class="fil19 str1" d="M0.168091 0.078063c-0.0127362,-0.000496063 -0.0253898,-0.000988189 -0.0379331,-0.00147244 -0.0124606,-0.000480315 -0.0248543,-0.000988189 -0.0371654,-0.00146457 -5.11811e-005,-0.00630315 -0.000102362,-0.0126299 -0.000153543,-0.0189803 0.0123268,0.00042126 0.0247323,0.00084252 0.0372205,0.00126772 0.012563,0.000425197 0.0252323,0.000858268 0.0379921,0.0013189 1.1811e-005,0.00646457 2.75591e-005,0.0129094 3.93701e-005,0.0193307z"/>
      <path id="_152557440" class="fil20 str1" d="M0.0206654 0.0722953c0.0118504,0.000480315 0.0237992,0.000948819 0.035811,0.00141339 0.0120866,0.000464567 0.0242638,0.000940945 0.0365157,0.00141732 -5.11811e-005,-0.00630315 -0.000102362,-0.0126299 -0.000153543,-0.0189803 -0.0122874,-0.000437008 -0.0244724,-0.000854331 -0.0365787,-0.00126378 -0.0120315,-0.000405512 -0.0239921,-0.000818898 -0.0358661,-0.00122441 9.05512e-005,0.00623228 0.000181102,0.0124449 0.000271654,0.0186378z"/>
      <path id="_152569408" class="fil6 str1" d="M0.132087 0.0670748c0.0078189,0.000279528 0.0156732,0.000570866 0.0235748,0.000858268 0.00107874,3.54331e-005 0.00197638,-0.000767717 0.00197244,-0.00179921 0,0 0,0 0,0 -3.93701e-006,-0.00105118 -0.000909449,-0.00194488 -0.00198425,-0.00198425 -0.00790945,-0.000295276 -0.0157598,-0.000582677 -0.0235827,-0.000858268 -0.00109055,-3.54331e-005 -0.00196063,0.000807087 -0.00195276,0.00183465 0,0 0,0 0,0 3.93701e-006,0.00104331 0.00088189,0.00190945 0.00197244,0.00194882z"/>
      <path id="_151698216" class="fil6 str1" d="M0.0584055 0.0643701c0.00778346,0.000279528 0.0155945,0.000570866 0.0234449,0.000854331 0.00111811,3.93701e-005 0.00204331,-0.000814961 0.0020315,-0.00190945 0,0 0,0 0,0 -3.93701e-006,-0.00112205 -0.000952756,-0.00206299 -0.00207087,-0.00210236 -0.00785039,-0.000271654 -0.0156614,-0.000555118 -0.0234528,-0.000830709 -0.0011063,-3.54331e-005 -0.00201181,0.000830709 -0.00199606,0.00192126 0,0 0,0 0,0 1.1811e-005,0.00111024 0.000937008,0.00202756 0.00204331,0.00206693z"/>
     </g>
    </g>
    <g>
     <path id="_151896216" class="fil21 str1" d="M0.168051 0.0587323c-0.0127598,-0.00046063 -0.0254291,-0.000893701 -0.0379921,-0.0013189 -0.0124882,-0.000425197 -0.0248937,-0.000846457 -0.0372205,-0.00126772 -5.51181e-005,-0.00634646 -0.000106299,-0.0127165 -0.000161417,-0.0190827 0.0123504,0.000358268 0.0247717,0.000728346 0.0372835,0.00109055 0.0125787,0.000366142 0.0252756,0.000759843 0.0380512,0.0011378 1.1811e-005,0.00648819 2.75591e-005,0.0129528 3.93701e-005,0.0194409z"/>
     <path id="_153243120" class="fil22 str1" d="M0.0203937 0.0536575c0.011874,0.000405512 0.0238346,0.000818898 0.0358661,0.00122441 0.0121063,0.000409449 0.0242913,0.000826772 0.0365787,0.00126378 -5.51181e-005,-0.00634646 -0.000106299,-0.0127165 -0.000161417,-0.0190827 -0.0123031,-0.000362205 -0.0245039,-0.000724409 -0.0366299,-0.0010748 -0.0120512,-0.000350394 -0.0240354,-0.000704724 -0.0359252,-0.00105118 9.05512e-005,0.00625197 0.000181102,0.0124882 0.000271654,0.0187205z"/>
     <path id="_152584368" class="fil6 str1" d="M0.131972 0.0478661c0.00783465,0.000244094 0.0157126,0.000496063 0.0236299,0.000748031 0.00107874,3.14961e-005 0.00197638,-0.000818898 0.00197638,-0.00185039 0,0 0,0 0,0 -3.93701e-006,-0.00105118 -0.000913386,-0.00191732 -0.00198819,-0.00195276 -0.00792126,-0.000259843 -0.0158031,-0.000511811 -0.0236378,-0.000748031 -0.0010748,-3.14961e-005 -0.00194488,0.000795276 -0.00194094,0.00184252 0,0 0,0 0,0 7.87402e-006,0.00102362 0.000885827,0.00192913 0.00196063,0.00196063z"/>
     <path id="_151805960" class="fil6 str1" d="M0.0581929 0.0455079c0.00779921,0.000248031 0.015622,0.000496063 0.0234803,0.000744094 0.00112205,3.54331e-005 0.00204724,-0.00084252 0.00203543,-0.00193701 0,0 0,-3.93701e-006 0,-2.3622e-005 -3.93701e-006,-0.00111811 -0.000948819,-0.00203543 -0.00207087,-0.00206693 -0.0078622,-0.000244094 -0.015689,-0.000484252 -0.0234921,-0.000720472 -0.0011063,-3.14961e-005 -0.00201181,0.000818898 -0.002,0.00192913 0,1.5748e-005 0,1.9685e-005 0,1.9685e-005 1.1811e-005,0.00109055 0.000937008,0.00202362 0.00204724,0.00205512z"/>
    </g>
    <g>
     <path id="_153357936" class="fil23 str1" d="M0.168012 0.038685c-0.0127795,-0.000374016 -0.0254724,-0.000744094 -0.0380551,-0.0011063 -0.0125118,-0.000362205 -0.0249331,-0.000728346 -0.0372835,-0.00108661 -5.11811e-005,-0.00637008 -0.000106299,-0.0127598 -0.000161417,-0.0191732 0.0123543,0.00030315 0.024815,0.000606299 0.0373268,0.000909449 0.0126181,0.00030315 0.0253307,0.000614173 0.0381299,0.000929134 1.1811e-005,0.00655512 2.75591e-005,0.0130433 4.33071e-005,0.0195276z"/>
     <path id="_152934712" class="fil24 str1" d="M0.0201142 0.0343543c0.0118898,0.000346457 0.0238701,0.000708661 0.0359252,0.00106693 0.012122,0.000362205 0.0243307,0.000708661 0.0366339,0.00107087 -5.11811e-005,-0.00637008 -0.000106299,-0.0127598 -0.000161417,-0.0191732 -0.0123228,-0.000299213 -0.0245433,-0.000602362 -0.036689,-0.000893701 -0.0120709,-0.000291339 -0.0240709,-0.000586614 -0.0359843,-0.000877953 9.44882e-005,0.00629921 0.000185039,0.0125748 0.000275591,0.0188071z"/>
     <path id="_153593496" class="fil6 str1" d="M0.131874 0.0279764c0.00784252,0.000204724 0.0157323,0.000425197 0.0236654,0.000633858 0.00107874,2.75591e-005 0.00198425,-0.000807087 0.00198031,-0.00183858 0,0 0,0 0,0 -3.93701e-006,-0.00105512 -0.000913386,-0.00196063 -0.00199213,-0.00198819 -0.00793701,-0.000200787 -0.0158268,-0.000413386 -0.0236732,-0.000610236 -0.00107874,-2.75591e-005 -0.00194882,0.000826772 -0.00194488,0.00185039 0,0 0,0 0,0 3.93701e-006,0.00104724 0.000885827,0.0019252 0.00196457,0.00195276z"/>
     <path id="_151671000" class="fil6 str1" d="M0.0579724 0.0259803c0.00781496,0.000224409 0.0156496,0.000437008 0.0235197,0.000649606 0.00112598,2.75591e-005 0.00205118,-0.000850394 0.00203937,-0.00197244 0,0 0,0 0,0 -7.87402e-006,-0.00111811 -0.000952756,-0.00205118 -0.0020748,-0.00207874 -0.00787795,-0.000200787 -0.0157087,-0.000409449 -0.0235276,-0.000606299 -0.00112205,-2.75591e-005 -0.00201969,0.000850394 -0.00200394,0.00196063 0,0 0,0 0,0 1.1811e-005,0.00111024 0.000929134,0.00201575 0.00204724,0.00204724z"/>
    </g>
   </g>
   <polyline id="_152198240" class="fil2 str2" points="0.0198386,0.0155472 0.168417,0.0183346 0.168417,0.234689 "/>
   <polyline id="_152266408" class="fil2 str2" points="0.220161,0.00531102 0.168417,0.0183346 0.168417,0.234689 "/>
   <polyline id="_153401736" class="fil2 str3" points="0.200571,0.0102441 0.168417,0.0183346 0.168417,0.181114 "/>
   <polyline id="_152252808" class="fil2 str3" points="0.0704134,0.0167795 0.168417,0.0183346 0.168417,0.181114 "/>
   <polyline id="_153418872" class="fil2 str4" points="0.11378,0.0178386 0.168417,0.0183346 0.168417,0.113193 "/>
   <polyline id="_151833848" class="fil2 str4" points="0.184492,0.0142913 0.168417,0.0183346 0.168417,0.113193 "/>
   <polyline id="_127041128" class="fil2 str5" points="0.179327,0.0155906 0.167969,0.0191575 0.168091,0.078063 "/>
   <line id="_153450424" class="fil2 str5" x1="0.141098" y1="0.0180866" x2="0.168417" y2= "0.0190197" />
   <polygon id="_126997064" class="fil2 str6" points="0.168417,0.234689 0.217941,0.19278 0.220161,0.00531102 0.0810827,0.00531102 0.0198386,0.0155472 0.0228543,0.223335 "/>
  </g>
 </g>
</svg>
