
<svg clip-rule="evenodd" fill-rule="evenodd" height=".24in"
     image-rendering="optimizeQuality" shape-rendering="geometricPrecision"
     text-rendering="geometricPrecision" viewBox="0 0 .24 .24" width=".24in"
     xmlns="http://www.w3.org/2000/svg"
     xmlns:xlink="http://www.w3.org/1999/xlink">
    <linearGradient id="a" gradientUnits="userSpaceOnUse" x1=".128248"
                    x2=".260327" y1=".202551" y2=".037449">
        <stop offset="0" stop-color="#737986"/>
        <stop offset="1" stop-color="#bbbeca"/>
    </linearGradient>
    <linearGradient id="b" gradientUnits="userSpaceOnUse" x1=".056595"
                    x2=".055917" y1=".037555" y2=".014484">
        <stop offset="0" stop-color="#8d8f9e"/>
        <stop offset="1" stop-color="#d4d4de"/>
    </linearGradient>
    <linearGradient id="c" gradientUnits="userSpaceOnUse" x1=".056823"
                    x2=".056138" xlink:href="#b" y1=".057205" y2=".033882"/>
    <linearGradient id="d" gradientUnits="userSpaceOnUse" x1=".057039"
                    x2=".056347" xlink:href="#b" y1=".076185" y2=".052602"/>
    <linearGradient id="e" gradientUnits="userSpaceOnUse" x1=".057268"
                    x2=".056567" xlink:href="#b" y1=".095713" y2=".071823"/>
    <linearGradient id="f" gradientUnits="userSpaceOnUse" x1=".05748"
                    x2=".056772" xlink:href="#b" y1=".114287" y2=".090154"/>
    <linearGradient id="g" gradientUnits="userSpaceOnUse" x1=".057701"
                    x2=".056984" xlink:href="#b" y1=".133685" y2=".109244"/>
    <linearGradient id="h" gradientUnits="userSpaceOnUse" x1=".057917"
                    x2=".057193" xlink:href="#b" y1=".152472" y2=".12774"/>
    <linearGradient id="i" gradientUnits="userSpaceOnUse" x1=".058142"
                    x2=".057409" xlink:href="#b" y1=".17172" y2=".146728"/>
    <linearGradient id="j" gradientUnits="userSpaceOnUse" x1=".058354"
                    x2=".057614" xlink:href="#b" y1=".190067" y2=".164791"/>
    <linearGradient id="k" gradientUnits="userSpaceOnUse" x1=".058575"
                    x2=".057827" xlink:href="#b" y1=".209213" y2=".183677"/>
    <linearGradient id="l" gradientUnits="userSpaceOnUse" x1=".09602"
                    x2=".094965" xlink:href="#b" y1=".236815" y2=".200839"/>
    <linearGradient id="m" gradientUnits="userSpaceOnUse" x1=".130606"
                    x2=".129913" xlink:href="#b" y1=".039787" y2=".01622"/>
    <linearGradient id="n" gradientUnits="userSpaceOnUse" x1=".130713"
                    x2=".130012" xlink:href="#b" y1=".059831" y2=".035965"/>
    <linearGradient id="o" gradientUnits="userSpaceOnUse" x1=".130819"
                    x2=".13011" xlink:href="#b" y1=".079161" y2=".055051"/>
    <linearGradient id="p" gradientUnits="userSpaceOnUse" x1=".130925"
                    x2=".130209" xlink:href="#b" y1=".099051" y2=".074602"/>
    <linearGradient id="q" gradientUnits="userSpaceOnUse" x1=".131024"
                    x2=".130299" xlink:href="#b" y1=".117976" y2=".093268"/>
    <linearGradient id="r" gradientUnits="userSpaceOnUse" x1=".13113"
                    x2=".130398" xlink:href="#b" y1=".137728" y2=".112713"/>
    <linearGradient id="s" gradientUnits="userSpaceOnUse" x1=".131236"
                    x2=".130488" xlink:href="#b" y1=".156846" y2=".131539"/>
    <linearGradient id="t" gradientUnits="userSpaceOnUse" x1=".131339"
                    x2=".130583" xlink:href="#b" y1=".17648" y2=".150906"/>
    <linearGradient id="u" gradientUnits="userSpaceOnUse" x1=".131441"
                    x2=".130677" xlink:href="#b" y1=".195165" y2=".169291"/>
    <linearGradient id="v" gradientUnits="userSpaceOnUse" x1=".131543"
                    x2=".130772" xlink:href="#b" y1=".214669" y2=".188504"/>
    <g stroke-width=".003">
        <path d="m.168417.234689.049524-.041909.00222-.18746898h-.1390783l-.0612441.01023618.0030157.2077878z"
              fill="#dbdeea" stroke="#4d5356" stroke-linecap="round"
              stroke-linejoin="round"/>
        <path d="m.168417.0183346.051744-.01302358-.00222.18746898-.049524.041909z"
              fill="url(#a)" stroke="#4d5356" stroke-linecap="round"
              stroke-linejoin="round"/>
        <path d="m.0198386.0155472.1485784.0027874v.2163544l-.1455627-.011354z"
              fill="none" stroke="#4d5356" stroke-linecap="round"
              stroke-linejoin="round"/>
        <path d="m.022563.202969c.0235354.0017126.0473937.00344488.0715197.00519685.024437.00177559.0492087.00359843.0742913.00542126.00001181.00704724.00002756.0140945.00004331.0211024-.0250394-.00195276-.0497717-.00388583-.0741496-.0057874-.0240866-.00187795-.0479016-.00373228-.0714134-.00556693-.00009449-.00677559-.00019291-.0135512-.00029134-.0203661z"
              fill="url(#l)" stroke="#656b6f"/>
        <path d="m.168374.213587c-.0125984-.00091339-.0250945-.00183465-.0375039-.00274409-.0123307-.00090551-.0245827-.00179134-.0367717-.00267323-.00005118-.0061811-.00010236-.0123583-.00015354-.0185787.0122087.00082677.0244724.00166535.0368268.0025.0124252.00084252.0249409.00171654.0375591.00257087.00001575.00631496.00002756.0126102.00004331.0189252z"
              fill="url(#v)" stroke="#656b6f"/>
        <path d="m.022563.202969c.0117244.00085433.0235394.0017126.0354173.0025748.0119567.00086614.024.00174409.0361181.00262598-.00005118-.0061811-.00010236-.0123583-.00015354-.0185787-.0121378-.00082677-.0242047-.00164567-.0361732-.00245669-.0119016-.00080315-.0237323-.00161024-.0354724-.00240945.00008661.00609055.00017323.0121772.00026378.0182441z"
              fill="url(#k)" stroke="#656b6f"/>
        <path d="m.132776.201602c.00773622.00053937.0154961.00109449.0233031.00164173.00107874.0000748.00195669-.0006811.00195276-.0017126-.00000394-.00101181-.00088583-.00190945-.00196063-.00198425-.00781102-.00055906-.0155748-.0011063-.023311-.0016378-.00107874-.0000748-.00193701.00071654-.00193307.00172047.00000394.00102756.00087402.00189764.00194882.00197244z"
              fill="#0baddc" stroke="#656b6f"/>
        <path d="m.0599055.19648c.00770079.00053937.0154409.00108268.023185.00162992.00111024.0000748.00202362-.00074409.00201181-.0018189-.00000394-.00107874-.00093701-.0020315-.00204724-.0021063-.00775984-.00053937-.0154882-.00107874-.0231929-.0016063-.0011063-.0000748-.00200394.00074409-.00199213.00181102.00001181.00107087.0009252.00201575.00203543.00209055z"
              fill="#0baddc" stroke="#656b6f"/>
        <path d="m.168331.194083c-.0126181-.00085433-.0251339-.00170866-.037563-.00254724-.0123504-.00083465-.0246181-.00166929-.0368268-.00251575-.00005118-.00617717-.0001063-.0123976-.00015354-.0186417.0122283.00077165.0245157.00153543.0368858.00232283.0124449.00079528.0249843.00159843.037622.0023937.00000787.00635433.00002362.0126732.00003543.0189882z"
              fill="url(#u)" stroke="#656b6f"/>
        <path d="m.0222913.184165c.0117402.00079528.0235748.00159843.0354724.00240157.0119764.00080709.0240394.00162992.0361772.00245276-.00005118-.00617717-.0001063-.0123976-.00015354-.0186417-.0121575-.00076772-.0242402-.00153937-.0362323-.00230315-.0119173-.00075591-.0237717-.00149606-.0355315-.00223622.00008661.00612992.00017717.0122362.00026772.0183268z"
              fill="url(#j)" stroke="#656b6f"/>
        <path d="m.132665.182268c.00775591.00050787.0155394.00101575.0233543.00152756.00106693.00006693.00195669-.00070866.00195276-.00174016-.00000394-.0010315-.00090158-.00190551-.00196457-.00197638-.00782283-.00051969-.0155984-.0010315-.0233622-.00152756-.00106299-.00006693-.0019252.00070866-.00192126.0017126.00000394.00104724.00087402.00193701.00194094.00200394z"
              fill="#0baddc" stroke="#656b6f"/>
        <path d="m.059689.177476c.0077126.00050394.0154528.00100787.0232244.00151575.00111024.00007087.00201969-.00075197.00201575-.00183071 0 0 0-.00000394 0-.00001968-.00000787-.00107874-.00094488-.00202362-.00205118-.00209449-.00777953-.00049606-.0155118-.00100394-.0232323-.00151575-.0011063-.00007087-.00200394.00077165-.00199606.00184252v.00001968c.00001181.00107087.00092913.00201181.00203937.00208268z"
              fill="#0baddc" stroke="#656b6f"/>
        <path d="m.168295.175394c-.0126378-.00079528-.0251772-.00161024-.037622-.0023937-.012374-.00077559-.0246575-.00155512-.0368858-.00232677-.00005118-.00622047-.00010236-.0124409-.00015748-.0186811.012248.0007126.0245512.00143307.0369449.00215354.0124646.00072441.0250197.00146063.0376772.00219685.00001575.00637795.00002756.0127165.00004331.0190512z"
              fill="url(#t)" stroke="#656b6f"/>
        <path d="m.0220276.16613c.0117598.00074016.0236102.00149213.0355315.00224016.0119882.00075591.0240748.00153543.0362283.00230315-.00005118-.00622047-.00010236-.0124409-.00015748-.0186811-.0121732-.00073228-.0242717-.00144094-.0362874-.0021378-.0119331-.00069291-.0238031-.00138583-.0355827-.0020748.00009055.00612992.0001811.0122402.00026772.0183504z"
              fill="url(#i)" stroke="#656b6f"/>
        <path d="m.132571.163705c.00775591.0004685.015563.00094095.0233937.00141732.00106693.00006299.00195669-.00072047.00195276-.00175197 0-.00100787-.00089764-.0019252-.00196457-.00198819-.00783071-.0004685-.0156378-.00096063-.0234016-.00141732-.00106299-.00006299-.0019252.00073622-.00192126.00176378.00000394.00102362.00087402.00191339.00194094.00197638z"
              fill="#0baddc" stroke="#656b6f"/>
        <path d="m.0594843.159244c.00771654.00046457.0154724.00094488.0232598.00141339.00111024.00006693.00202756-.00076378.00201969-.0018622-.00001181-.0010748-.00094095-.00202362-.00205512-.00208661-.00778346-.00046457-.0155512-.00092913-.0232677-.00140551-.00111024-.00006693-.00201181.00075984-.00199606.00185039.00001181.00109055.00093307.00202362.00203937.00209055z"
              fill="#0baddc" stroke="#656b6f"/>
        <path d="m.168252.15576c-.0126575-.00073622-.0252165-.00146457-.0376811-.00218898-.0123937-.00071654-.0246969-.00144094-.0369449-.00214961-.00005118-.00624409-.00010236-.0125039-.00015354-.0187913.012252.00065354.0245866.00134252.037.002.0124843.00066535.025063.00133465.0377402.00201181.00001181.00637795.00002756.0127795.00003937.0191181z"
              fill="url(#s)" stroke="#656b6f"/>
        <path d="m.021752.14722c.0117795.00068504.0236496.00137008.0355866.00207087.0120118.00070472.0241142.00142126.0362874.00212992-.00005118-.00624409-.00010236-.0125039-.00015354-.0187913-.0121969-.00064961-.024315-.00129921-.0363465-.00193701-.0119567-.0006378-.0238465-.00127559-.0356417-.00190157.00008661.00614961.00017717.0122992.00026772.0184291z"
              fill="url(#h)" stroke="#656b6f"/>
        <path d="m.132472.144217c.00777165.00042913.0155866.00087402.0234291.00130709.00106693.00005906.00196457-.00074803.00196063-.00177953-.00000394-.00103543-.00090158-.0019252-.00197244-.00198031-.00784252-.00042913-.0156654-.00085827-.023437-.00128346-.00107087-.00005512-.00192913.00072441-.0019252.00175197.00000394.00102362.00087795.0019252.00194488.00198425z"
              fill="#0baddc" stroke="#656b6f"/>
        <path d="m.0592677.140114c.00772441.00042913.0155.00086614.0232835.00129921.00112598.00006299.00204331-.00077165.00203543-.00187008 0 0 0-.00000394 0-.00002362-.00000394-.0010748-.00094095-.00201575-.00207087-.0020748-.00778346-.0004252-.015563-.00085433-.0232913-.00127559-.00111024-.00005906-.00201181.00075197-.002.00184252v.00001968c.00001181.00109055.00092913.00202362.00204331.00208268z"
              fill="#0baddc" stroke="#656b6f"/>
        <path d="m.168213.136642c-.0126772-.00067717-.0252559-.00134646-.0377402-.00201181-.0124134-.00065748-.024748-.00134646-.037-.002-.00005512-.00625984-.0001063-.0125472-.00015748-.0188268.0122717.00059843.0246299.00119291.0370472.00180315.0125197.00061811.0251142.00124016.037811.00185827.00001575.00639764.00002756.0127992.00003937.0191772z"
              fill="url(#r)" stroke="#656b6f"/>
        <path d="m.0214843.128791c.0117953.00062598.023685.00126378.0356417.00190157.0120315.0006378.0241496.0012874.0363465.00193701-.00005512-.00625984-.0001063-.0125472-.00015748-.0188268-.0122126-.00059449-.0243583-.00118504-.0364055-.00176772-.0119764-.00057874-.023878-.00116142-.0356969-.00173622.00009055.00617323.0001811.0123386.00027165.0184921z"
              fill="url(#g)" stroke="#656b6f"/>
        <path d="m.132378.125224c.00777953.00039764.0156142.00079528.0234646.00119685.00107087.00005118.00196457-.00073622.00196457-.00177165-.00000394-.00105118-.00090158-.00193701-.00197244-.00198819-.00785827-.0003937-.0156929-.0007874-.0234764-.00117323-.00107087-.00005118-.00194882.00073228-.00194488.00177953.00000787.00102756.00088976.00190551.00196457.00195669z"
              fill="#0baddc" stroke="#656b6f"/>
        <path d="m.0590591.121465c.00774016.00038976.0155276.00079134.0233189.00118898.00112992.00005512.0020315-.00077953.00202362-.00187795-.00000787-.00109449-.00092913-.00205118-.00205906-.0021063-.00779528-.00038976-.0155866-.00078347-.0233268-.00116535-.00111417-.00005512-.00201969.00080315-.00200394.0018937.00001181.00108268.00093701.00201181.00204724.00206693z"
              fill="#0baddc" stroke="#656b6f"/>
        <path d="m.168173.116882c-.0126969-.00061417-.0252953-.00124016-.037815-.00185433-.0124173-.00061024-.0247756-.00120079-.0370472-.00179528-.00005118-.00626378-.0001063-.0125472-.00015748-.018874.0122913.00053937.0246654.00109449.0371063.00164567.0125354.00055512.0251575.00109449.037874.00165354.00001181.00642126.00002756.0128228.00003937.0192244z"
              fill="url(#q)" stroke="#656b6f"/>
        <path d="m.0212047.10974c.0118189.00057087.0237244.00114961.0357008.00172835.0120512.00057874.024189.00117323.0364055.00176378-.00005118-.00626378-.0001063-.0125472-.00015748-.018874-.0122323-.00053543-.0243937-.00106693-.0364606-.00159055-.0119961-.00051969-.0239213-.00104724-.0357559-.00156299.00009055.00619291.00017717.0123622.00026772.0185354z"
              fill="url(#f)" stroke="#656b6f"/>
        <path d="m.13228.105638c.00779134.00035827.0156417.00072047.0235039.00108268.0010748.00004724.0019685-.00076772.00196457-.00182283 0-.0010315-.00090158-.00191339-.00197638-.00196063-.00786614-.00035433-.0157126-.0007126-.0235118-.00105906-.00108268-.00004724-.00195276.00074409-.00194488.00176772.00000394.00102756.00087795.00194488.00196457.00199213z"
              fill="#0baddc" stroke="#656b6f"/>
        <path d="m.0588268.102232c.00776378.00035827.0155669.00071654.023374.0010748.00113386.00005118.00203543-.00081102.00202756-.00190945-.00000787-.00109843-.00093307-.00205118-.00206693-.00209843-.00780709-.00035039-.0156142-.00070472-.023378-.00105118-.00110236-.00004724-.00200394.0007874-.00199213.00190157.00001181.00109055.00093307.00203543.00203543.00208268z"
              fill="#0baddc" stroke="#656b6f"/>
        <path d="m.168134.0979567c-.0127165-.00055512-.0253346-.00111024-.037874-.00165748-.012437-.00053937-.024811-.0011063-.0371024-.00164173-.00005512-.0062874-.0001063-.0126142-.00015748-.0189606.0123071.0005.0247008.00098819.0371614.00147244.0125394.00048425.0251929.00098032.0379291.00147638.00001575.00646457.0000315.0128898.00004331.019311z"
              fill="url(#p)" stroke="#656b6f"/>
        <path d="m.0209409.0914961c.0118346.00051575.0237598.00103937.0357559.00156299.0120669.00052362.0242283.00105906.0364606.00159843-.00005512-.0062874-.0001063-.0126142-.00015748-.0189606-.012252-.00047638-.0244331-.00095276-.0365197-.00142126-.0120157-.00046457-.0239567-.00093701-.0358071-.00139764.00008661.0062126.00017717.0124252.00026772.0186181z"
              fill="url(#e)" stroke="#656b6f"/>
        <path d="m.132185.086815c.00780709.0003189.0156575.00064961.0235394.00099606.00107087.00004331.00197244-.00077953.0019685-.00183071-.00000394-.00103543-.00090945-.00192913-.00198031-.00197244-.00788189-.00031496-.0157362-.00064173-.0235472-.00095276-.00108661-.00004331-.00195669.00075591-.00194882.00179921.00000394.00104724.00088189.00191732.0019685.00196063z"
              fill="#0baddc" stroke="#656b6f"/>
        <path d="m.058622.083752c.00777165.0003189.0155906.00066535.0234055.00098819.00112205.00004331.00203937-.00082284.0020315-.00192126-.00001181-.00109449-.00094882-.00206693-.00206693-.00211024-.00783465-.00031496-.0156339-.00063386-.0234173-.00094488-.00109843-.00004331-.00200787.00082284-.00199606.00193307.00001575.00109055.00093701.00201181.00204331.00205512z"
              fill="#0baddc" stroke="#656b6f"/>
        <path d="m.168091.078063c-.0127362-.00049606-.0253898-.00098819-.0379331-.00147244-.0124606-.00048032-.0248543-.00098819-.0371654-.00146457-.00005118-.00630315-.00010236-.0126299-.00015354-.0189803.0123268.00042126.0247323.00084252.0372205.00126772.012563.0004252.0252323.00085827.0379921.0013189.00001181.00646457.00002756.0129094.00003937.0193307z"
              fill="url(#o)" stroke="#656b6f"/>
        <path d="m.0206654.0722953c.0118504.00048032.0237992.00094882.035811.00141339.0120866.00046457.0242638.00094095.0365157.00141732-.00005118-.00630315-.00010236-.0126299-.00015354-.0189803-.0122874-.00043701-.0244724-.00085433-.0365787-.00126378-.0120315-.00040551-.0239921-.0008189-.0358661-.00122441.00009055.00623228.0001811.0124449.00027165.0186378z"
              fill="url(#d)" stroke="#656b6f"/>
        <path d="m.132087.0670748c.0078189.00027953.0156732.00057087.0235748.00085827.00107874.00003543.00197638-.00076772.00197244-.00179921-.00000394-.00105118-.00090945-.00194488-.00198425-.00198425-.00790945-.00029528-.0157598-.00058268-.0235827-.00085827-.00109055-.00003543-.00196063.00080709-.00195276.00183465.00000394.00104331.00088189.00190945.00197244.00194882z"
              fill="#0baddc" stroke="#656b6f"/>
        <path d="m.0584055.0643701c.00778346.00027953.0155945.00057087.0234449.00085433.00111811.00003937.00204331-.00081496.0020315-.00190945-.00000394-.00112205-.00095276-.00206299-.00207087-.00210236-.00785039-.00027165-.0156614-.00055512-.0234528-.00083071-.0011063-.00003543-.00201181.00083071-.00199606.00192126.00001181.00111024.00093701.00202756.00204331.00206693z"
              fill="#0baddc" stroke="#656b6f"/>
        <path d="m.168051.0587323c-.0127598-.00046063-.0254291-.0008937-.0379921-.0013189-.0124882-.0004252-.0248937-.00084646-.0372205-.00126772-.00005512-.00634646-.0001063-.0127165-.00016142-.0190827.0123504.00035827.0247717.00072835.0372835.00109055.0125787.00036614.0252756.00075984.0380512.0011378.00001181.00648819.00002756.0129528.00003937.0194409z"
              fill="url(#n)" stroke="#656b6f"/>
        <path d="m.0203937.0536575c.011874.00040551.0238346.0008189.0358661.00122441.0121063.00040945.0242913.00082677.0365787.00126378-.00005512-.00634646-.0001063-.0127165-.00016142-.0190827-.0123031-.00036221-.0245039-.00072441-.0366299-.0010748-.0120512-.00035039-.0240354-.00070472-.0359252-.00105118.00009055.00625197.0001811.0124882.00027165.0187205z"
              fill="url(#c)" stroke="#656b6f"/>
        <path d="m.131972.0478661c.00783465.00024409.0157126.00049606.0236299.00074803.00107874.0000315.00197638-.0008189.00197638-.00185039-.00000394-.00105118-.00091339-.00191732-.00198819-.00195276-.00792126-.00025984-.0158031-.00051181-.0236378-.00074803-.0010748-.0000315-.00194488.00079528-.00194094.00184252.00000787.00102362.00088583.00192913.00196063.00196063z"
              fill="#0baddc" stroke="#656b6f"/>
        <path d="m.0581929.0455079c.00779921.00024803.015622.00049606.0234803.00074409.00112205.00003543.00204724-.00084252.00203543-.00193701 0 0 0-.00000394 0-.00002362-.00000394-.00111811-.00094882-.00203543-.00207087-.00206693-.0078622-.00024409-.015689-.00048425-.0234921-.00072047-.0011063-.0000315-.00201181.0008189-.002.00192913v.00001968c.00001181.00109055.00093701.00202362.00204724.00205512z"
              fill="#0baddc" stroke="#656b6f"/>
        <path d="m.168012.038685c-.0127795-.00037402-.0254724-.00074409-.0380551-.0011063-.0125118-.00036221-.0249331-.00072835-.0372835-.00108661-.00005118-.00637008-.0001063-.0127598-.00016142-.0191732.0123543.00030315.024815.0006063.0373268.00090945.0126181.00030315.0253307.00061417.0381299.00092913.00001181.00655512.00002756.0130433.00004331.0195276z"
              fill="url(#m)" stroke="#656b6f"/>
        <path d="m.0201142.0343543c.0118898.00034646.0238701.00070866.0359252.00106693.012122.00036221.0243307.00070866.0366339.00107087-.00005118-.00637008-.0001063-.0127598-.00016142-.0191732-.0123228-.00029921-.0245433-.00060236-.036689-.0008937-.0120709-.00029134-.0240709-.00058661-.0359843-.00087795.00009449.00629921.00018504.0125748.00027559.0188071z"
              fill="url(#b)" stroke="#656b6f"/>
        <path d="m.131874.0279764c.00784252.00020472.0157323.0004252.0236654.00063386.00107874.00002756.00198425-.00080709.00198031-.00183858-.00000394-.00105512-.00091339-.00196063-.00199213-.00198819-.00793701-.00020079-.0158268-.00041339-.0236732-.00061024-.00107874-.00002756-.00194882.00082677-.00194488.00185039.00000394.00104724.00088583.0019252.00196457.00195276z"
              fill="#0baddc" stroke="#656b6f"/>
        <path d="m.0579724.0259803c.00781496.00022441.0156496.00043701.0235197.00064961.00112598.00002756.00205118-.00085039.00203937-.00197244-.00000787-.00111811-.00095276-.00205118-.0020748-.00207874-.00787795-.00020079-.0157087-.00040945-.0235276-.0006063-.00112205-.00002756-.00201969.00085039-.00200394.00196063.00001181.00111024.00092913.00201575.00204724.00204724z"
              fill="#0baddc" stroke="#656b6f"/>
        <path d="m.0198386.0155472.1485784.0027874v.2163544" fill="none"
              stroke="#adb3c3"/>
        <path d="m.220161.00531102-.051744.01302358v.2163544" fill="none"
              stroke="#adb3c3"/>
        <path d="m.200571.0102441-.032154.0080905v.1627794" fill="none"
              stroke="#c1c7d8"/>
        <path d="m.0704134.0167795.0980036.0015551v.1627794" fill="none"
              stroke="#c1c7d8"/>
        <path d="m.11378.0178386.054637.000496v.0948584" fill="none"
              stroke="#cdd2e3"/>
        <path d="m.184492.0142913-.016075.0040433v.0948584" fill="none"
              stroke="#cdd2e3"/>
        <path d="m.179327.0155906-.011358.0035669.000122.0589055" fill="none"
              stroke="#e7e8ea"/>
        <path d="m.141098.018087.027319.000933" fill="none" stroke="#e7e8ea"/>
    </g>
    <path d="m.168417.234689.049524-.041909.00222-.18746898h-.1390783l-.0612441.01023618.0030157.2077878z"
          fill="none" stroke="#4d5356" stroke-linecap="round"
          stroke-linejoin="round" stroke-width=".006665"/>
</svg>