
<svg clip-rule="evenodd" fill-rule="evenodd" height=".24in"
     image-rendering="optimizeQuality" shape-rendering="geometricPrecision"
     text-rendering="geometricPrecision" viewBox="0 0 .24 .24" width=".24in"
     xmlns="http://www.w3.org/2000/svg"
     xmlns:xlink="http://www.w3.org/1999/xlink">
    <linearGradient id="a" gradientUnits="userSpaceOnUse" x1=".114677"
                    x2=".146417" y1=".120138" y2=".120138">
        <stop offset="0" stop-color="#bec8d5"/>
        <stop offset=".588235" stop-color="#6d7175"/>
        <stop offset="1" stop-color="#b8c2ce"/>
    </linearGradient>
    <linearGradient id="b" gradientUnits="userSpaceOnUse" x1=".187661"
                    x2=".195283" y1=".137122" y2=".100933">
        <stop offset="0" stop-color="#00a5de"/>
        <stop offset="1" stop-color="#fff"/>
    </linearGradient>
    <linearGradient id="c" gradientUnits="userSpaceOnUse" x1=".057693"
                    x2=".06763" xlink:href="#b" y1=".149272" y2=".102083"/>
    <g stroke-linecap="round" stroke-linejoin="round">
        <path d="m.147803.161035c-.00520472.00244488-.0105748.00425591-.0161339.00495276-.00574016.00072047-.0116732.00027953-.0177992-.00185827-.00131496-.00045669-.00267717-.00248031-.00267717-.00579921 0-.0134843 0-.0267874 0-.0399134 0-.0129606 0-.0257402 0-.0383819 0-.00304331.00126378-.0049252.00256693-.00517323.00583071-.00112992.0114961-.00114173.0169803-.00026378.00532283.00085433.0105236.00256299.0155827.0049252.0011063.00051181.00217323.00256693.00222047.00533465.00022047.0114252.00044095.0229685.00066535.0346614.00022441.011811.00046457.0237874.00069291.0359094.00005118.00295669-.00098425.00508268-.00209843.0056063z"
              fill="url(#a)" stroke="#4d5356" stroke-width=".003"/>
        <path d="m.00655118.109563c.016874-.00039764.0329921-.00077559.0483976-.00113386.0147323-.00033858.0288858-.00066929.0424409-.00098425.00338976.00467323.00685827.00944094.010374.0143268.00358268.00498425.00725591.0100984.0110079.0153189-.014.00100787-.0286575.00206693-.044.00316929-.0160787.00115354-.0329488.00237402-.0506614.00365354-.00311417-.00609055-.00615354-.0120315-.0091063-.017815-.00288583-.00564567-.00570079-.0111614-.00845276-.0165354z"
              fill="url(#c)" stroke="#4d5356" stroke-width=".003"/>
        <path d="m.149504.106224c.0109567-.00025591.0215669-.00051181.031748-.00074409.00985433-.00022441.0193504-.00044488.028563-.00066142.00375984.00382677.00759843.00772441.0114961.011689.0039685.0040315.00801575.0081378.0121339.0123228-.00927559.00066929-.0189055.00136614-.0288465.00207874-.0103583.00074409-.021126.00152362-.0323425.00232677-.0039685-.00473622-.00788583-.00938189-.0117047-.0139173-.00375984-.00445669-.00744094-.00881496-.0110472-.0130945z"
              fill="url(#b)" stroke="#4d5356" stroke-width=".003"/>
        <path d="m.122055.076902.018665.004019" fill="none" stroke="#e7e8ea"
              stroke-width=".003"/>
        <path d="m.107622.121571.008185-.000441" fill="none" stroke="#4d5356"
              stroke-width=".003"/>
        <path d="m.159587.118177-.010748.000807" fill="none" stroke="#4d5356"
              stroke-width=".003"/>
        <path d="m.0241102.143913.0870827-.00627953v.0206969c.00055118.00330709.00038189.00462205.00267717.00579921.0103622.00337795.0214724.00325197.0339331-.00309449.00069685-.00187402.00170866-.00252756.00209843-.00561417l-.00069291-.0359016.010378-.00134252.0126693.0150591.061189-.00440551-.0236299-.0240118-.060311.00140551-.00095669-.0213661c.00004331-.00200394-.00069685-.00377953-.00222441-.00533071-.0107323-.00532283-.0215748-.00738189-.032563-.00466535-.00202362.00117717-.00288189.00290945-.00256693.00517717l-.00052362.0413661-.00290551.00036614-.010374-.0143268-.0908386.00211811.0175591.0343504z"
              fill="none" stroke="#4d5356" stroke-width=".006665"/>
    </g>
    <path d="m.143228.08335.001059.072634" fill="none" stroke="#e0e3e8"
          stroke-width=".003"/>
</svg>