
<svg clip-rule="evenodd" fill-rule="evenodd" height=".24in"
     image-rendering="optimizeQuality" shape-rendering="geometricPrecision"
     text-rendering="geometricPrecision" viewBox="0 0 .24 .24" width=".24in"
     xmlns="http://www.w3.org/2000/svg"
     xmlns:xlink="http://www.w3.org/1999/xlink">
    <linearGradient id="a" gradientUnits="userSpaceOnUse" x1=".076358"
                    x2=".11098" y1=".041437" y2=".085461">
        <stop offset="0" stop-color="#ccc"/>
        <stop offset="1" stop-color="#e5e5e5"/>
    </linearGradient>
    <linearGradient id="b" gradientUnits="userSpaceOnUse" x1=".076969"
                    x2=".111276" xlink:href="#a" y1=".059701" y2=".103323"/>
    <linearGradient id="c" gradientUnits="userSpaceOnUse" x1=".077524"
                    x2=".111547" xlink:href="#a" y1=".076622" y2=".119874"/>
    <linearGradient id="d" gradientUnits="userSpaceOnUse" x1=".078098"
                    x2=".111815" xlink:href="#a" y1=".093705" y2=".136571"/>
    <linearGradient id="e" gradientUnits="userSpaceOnUse" x1=".078638"
                    x2=".112063" xlink:href="#a" y1=".109791" y2=".152295"/>
    <linearGradient id="f" gradientUnits="userSpaceOnUse" x1=".079193"
                    x2=".112327" xlink:href="#a" y1=".126319" y2=".168445"/>
    <linearGradient id="g" gradientUnits="userSpaceOnUse" x1=".079713"
                    x2=".112563" xlink:href="#a" y1=".141646" y2=".183409"/>
    <linearGradient id="h" gradientUnits="userSpaceOnUse" x1=".027469"
                    x2=".206315" xlink:href="#a" y1=".010032" y2=".23026"/>
    <linearGradient id="i" gradientUnits="userSpaceOnUse" x1=".009787"
                    x2=".155705" y1=".196201" y2=".071547">
        <stop offset="0" stop-color="#999"/>
        <stop offset="1" stop-color="#e5e5e5"/>
    </linearGradient>
    <linearGradient id="j" gradientUnits="userSpaceOnUse" x1=".111071"
                    x2=".218803" xlink:href="#i" y1=".138823" y2=".108559"/>
    <g stroke-width=".003">
        <path d="m.114016.00499213c.00668898-.00076772.0126299-.00104724.0178268-.00085433l.0692165.0107126c.00519291.00400787.00414173.00487402.00443701.00947638l-.00520472.154693c-.00040945.00590551-.00209449.0119055-.00872047.0176811l-.0606102.0358976c-.0072874.0031378-.0144882.00404724-.0215827.00272835l-.062126-.0235591c-.00355512-.00213386-.00571654-.0054252-.00649606-.00985433l-.0061811-.152193c-.00035039-.00662992.00055906-.0142283.00620472-.0185551.0238268-.0114764.0468543-.0188819.0732362-.0261732z"
              fill="url(#h)" stroke="#4c4c4c" stroke-linecap="round"
              stroke-linejoin="round"/>
        <path d="m.130961.232598-.00111811-.170469c.00005118-.0072874.00255118-.0142835.0104173-.0207008l.0607992-.0265787c.00588583.00370079.00411024.010685.00407874.0155315l-.00484646.148638c-.00005512.00708268-.00359449.0127087-.00872047.0176811l-.0606102.0358976z"
              fill="url(#j)" stroke="#b2b2b2"/>
        <path d="m.130469.156921-.00062598-.0947913c.00005118-.0072874.00255118-.0142835.0104173-.0207008l.0265197-.0115866"
              fill="none" stroke="#ccc"/>
        <path d="m.047252.211768c-.00437795-.00316929-.00653937-.00645276-.00649606-.00985433l-.0061811-.152193c-.00031496-.00782283.00160236-.0142638.00620472-.0185551l.0738268.0148622c.00768504.00287795.0127638.00824409.0152362.0161024l.00111811.170469c-.00585433.00285827-.0130512.00375984-.0215827.00272835l-.062126-.0235591z"
              fill="url(#i)" stroke="#ccc"/>
        <path d="m.130378.142449-.00053543-.0803189c.00005118-.0072874.00255118-.0142835.0104173-.0207008l.0132598-.00579134"
              fill="none" stroke="#e5e5e5"/>
        <path d="m.0776969.0385984.0369094.00742913c.00768504.00287795.0127638.00824409.0152362.0161024l.00044488.0675433"
              fill="none" stroke="#e5e5e5"/>
        <path d="m.0961535.042315.0184528.0037126c.00768504.00287795.0127638.00824409.0152362.0161024l.00019685.0295945"
              fill="none" stroke="#fff"/>
        <path d="m.0776969.0385984.0369094.00742913c.00768504.00287795.0127638.00824409.0152362.0161024l.00044488.0675433"
              fill="none" stroke="#e5e5e5"/>
        <path d="m.0992559.042937.0153504.00309055c.00768504.00287795.0127638.00824409.0152362.0161024l.00025591.0385472"
              fill="none" stroke="#fff"/>
    </g>
    <path d="m.114016.00499213c.00668898-.00076772.0126299-.00104724.0178268-.00085433l.0692165.0107126c.00519291.00400787.00414173.00487402.00443701.00947638l-.00520472.154693c-.00040945.00590551-.00209449.0119055-.00872047.0176811l-.0606102.0358976c-.0072874.0031378-.0144882.00404724-.0215827.00272835l-.062126-.0235591c-.00355512-.00213386-.00571654-.0054252-.00649606-.00985433l-.0061811-.152193c-.00035039-.00662992.00055906-.0142283.00620472-.0185551.0238268-.0114764.0468543-.0188819.0732362-.0261732z"
          fill="none" stroke="#4c4c4c" stroke-linecap="round"
          stroke-linejoin="round" stroke-width=".006665"/>
    <path d="m.0743228.222035-.0071417-.1822122-.0291732-.005811" fill="none"
          stroke="#4c4c4c" stroke-width=".003"/>
    <path d="m.064028.042.007177.173008" fill="none" stroke="#e5e5e5"
          stroke-width=".003"/>
    <path d="m.0674921.0476772c.00848819.00222441.0170669.00446063.0257323.00672441.00874016.00227953.0175787.00459843.0265118.00692913.00003937.00601575.0000748.0119843.00011024.0178858-.0088189-.00238583-.0175512-.00475591-.0261811-.00709449-.00855512-.0023189-.0170236-.00461811-.0254055-.00689764-.00025197-.0057874-.00050787-.0116417-.00076772-.0175472z"
          fill="url(#a)" stroke="#4c4c4c" stroke-width=".003"/>
    <path d="m.0718268.147157c.00789764.00251181.015874.00504724.0239252.00760236.00811417.0025748.0163228.0051811.0245984.00779921.0000315.00516535.00006299.0102795.00009449.0153425-.0081811-.00266535-.0162913-.00530315-.024315-.00792126-.00795276-.00259055-.0158386-.00516535-.0236457-.00770472-.00021654-.00498819-.00043701-.0100276-.00065748-.0151181z"
          fill="url(#g)" stroke="#4c4c4c" stroke-width=".003"/>
    <path d="m.0711654.131941c.00798031.00246457.0160591.00495669.0242008.0074685.0082126.0025315.0165157.0051063.0248898.0076811.0000315.00527953.00006693.0105276.00009449.0157362-.00827165-.00262992-.0164764-.00523622-.0245945-.00781496-.00804331-.00255512-.0160236-.00509055-.0239173-.00759055-.00022441-.00512205-.00044882-.0102913-.00067323-.0154803z"
          fill="url(#f)" stroke="#4c4c4c" stroke-width=".003"/>
    <path d="m.0704488.115531c.00808268.0024252.0162559.00487008.0244961.00733858.00832283.00248819.0167283.00501181.0252087.00755118.0000315.00542126.00006693.0107953.00009843.0161339-.00837795-.00258661-.016685-.00514173-.0249016-.00767717-.00814567-.00251575-.0162244-.005-.0242087-.00746457-.00022835-.00525984-.00046063-.0105433-.00069291-.0158819z"
          fill="url(#e)" stroke="#4c4c4c" stroke-width=".003"/>
    <path d="m.069752.0995591c.00817323.00237795.0164488.00477953.0247874.00720079.00842126.00244488.0169291.00492126.0255157.00741339.00003543.00555118.00007087.0110709.00010236.0165394-.00848031-.00254331-.0168858-.00506299-.0252047-.00755512-.00824016-.0024685-.0164094-.00491732-.0244921-.00733858-.00023228-.00538583-.00047244-.0108071-.00070866-.0162598z"
          fill="url(#d)" stroke="#4c4c4c" stroke-width=".003"/>
    <path d="m.0690157.0825984c.00827559.00233071.0166496.0046811.0250906.00705512.00852756.0023937.0171417.00482283.0258504.00726772.00003543.00570079.00006299.0113661.00009843.0169724-.00859055-.00249213-.0171024-.00497638-.0255236-.00742126-.00834252-.00241732-.0166142-.00482283-.0247913-.00720079-.00024016-.00551181-.00048032-.0110709-.00072441-.0166732z"
          fill="url(#c)" stroke="#4c4c4c" stroke-width=".003"/>
    <path d="m.0682835.0658071c.00837795.00228346.0168465.00458268.0253976.00690157.00862598.00233858.0173543.00471654.0261693.00710236.00003543.00585039.00007087.0116535.0001063.0174016-.00870472-.00244488-.0173189-.00487008-.0258425-.00726772-.00844488-.00237402-.016811-.00473228-.0250866-.00706299-.00024409-.0056378-.00049213-.0113307-.00074409-.0170748z"
          fill="url(#b)" stroke="#4c4c4c" stroke-width=".003"/>
</svg>