
<svg height="128pt" width="128pt" xmlns="http://www.w3.org/2000/svg"
     xmlns:xlink="http://www.w3.org/1999/xlink">
    <linearGradient id="a">
        <stop offset="0" stop-color="#fff"/>
        <stop offset="1" stop-color="#fff" stop-opacity="0"/>
    </linearGradient>
    <linearGradient id="b">
        <stop offset="0" stop-color="#121212"/>
        <stop offset="1" stop-color="#3f3f3f" stop-opacity="0"/>
    </linearGradient>
    <linearGradient id="c">
        <stop offset="0" stop-color="#575757"/>
        <stop offset=".5" stop-color="#b8b8b8"/>
        <stop offset="1" stop-color="#fff"/>
    </linearGradient>
    <linearGradient id="d" x1="1.113924" x2=".537975" xlink:href="#c"
                    y1=".284024" y2=".686391"/>
    <linearGradient id="e" x1=".459016" x2=".372951" xlink:href="#c" y1=".52071"
                    y2="-.360947"/>
    <linearGradient id="f" x1=".745536" x2="-.495536" xlink:href="#c"
                    y1=".733728" y2=".911243"/>
    <linearGradient id="g" x1=".260563" x2=".43662" xlink:href="#a"
                    y1="2.514852" y2=".336634"/>
    <linearGradient id="h" x1=".6" x2=".922619" xlink:href="#c" y1=".615385"
                    y2="-.226563"/>
    <linearGradient id="i" x1=".213115" x2="1.762295" xlink:href="#c"
                    y1=".597633" y2="-.343195"/>
    <linearGradient id="j" x1="1.200704" x2=".088028" xlink:href="#c"
                    y1="1.78626" y2=".221374"/>
    <linearGradient id="k" x1="1.028169" x2=".471831" xlink:href="#b"
                    y1="5.078432" y2=".235294"/>
    <linearGradient id="l" x1="-.253788" x2=".768939" xlink:href="#c"
                    y1=".83432" y2=".372781"/>
    <linearGradient id="m" x1="-.278564" x2="1.451466" xlink:href="#a"
                    y1="2.352497" y2="1.322064"/>
    <linearGradient id="n" x1="-.735915" x2=".883803" xlink:href="#c"
                    y1=".894737" y2=".368421"/>
    <linearGradient id="o" x1=".352113" x2=".725352" xlink:href="#c"
                    y1="-.158621" y2=".449664"/>
    <linearGradient id="p" x1=".419014" x2=".570423" xlink:href="#b"
                    y1=".333333" y2=".494949"/>
    <linearGradient id="q" x1=".514706" x2="1.227941" xlink:href="#c"
                    y1=".390533" y2=".426035"/>
    <linearGradient id="r" gradientTransform="scale(1.020544 .979869)"
                    x1="-1.401655" x2=".069653" xlink:href="#a" y1=".226883"
                    y2="-.649451"/>
    <g fill-rule="evenodd">
        <g fill="url(#k)" fill-opacity=".115702"
           transform="matrix(.96108 0 0 .786809 -241.6574 -62.79527)">
            <path d="m365.49843 164.0949c-13.91923-.3279-27.92115.62736-41.33146 4.61671-15.38793 3.82235-31.00492 8.16773-44.39759 16.9432-5.66429 2.95231-15.13817 3.299-17.59958-3.96539-3.49492-9.31222 7.99831-12.51572 14.97817-10.53458 6.70518.24434 15.78638 1.82663 20.99252-2.44378-6.71552-2.80291-14.32682-.81779-21.42973-1.48378-5.31932.1525-11.20369-.48559-16.07488 1.71055-7.22059 7.46114-.94717 20.36584 7.62801 23.64356 9.87169 2.45856 17.43524-6.16572 25.96982-9.40329 17.83112-7.75436 36.76862-13.10897 55.98366-16.04912 13.01453-.92323 25.95609 1.80739 38.5504 4.75869 5.85897-.55532 11.60182 11.50411 5.44808 11.3783-2.18245-1.28197-4.24629-3.25905-6.87696-1.91353-4.1493 1.0367-8.6777 1.44525-12.5958 2.86502-2.43332-.88311-4.7035-4.40635-7.85277-4.8024-7.70202-1.45803-15.28286 1.57549-22.8701 2.60939-7.77744 1.62362-15.34171 2.52572-23.13389 4.15373-2.21224.90594-4.74277-.375-4.91321 1.94136-.20385 4.34319-2.786 6.06179-7.05843 6.08295-9.479 2.02776-19.62896 4.89673-28.60106 7.23926.33357.11115-1.82728 3.74122-2.1255 5.56244-1.96873 3.40189-.43615 7.12842 2.00936 9.81068 6.8503 9.56209 13.70063 19.12419 20.55094 28.68628 2.78122.41497 5.39528-2.43517 8.56155-2.82694 9.59407-3.30768 19.18813-6.61537 28.7822-9.92306 1.9875 3.61293 5.94559 6.19167 10.125 4.15625 14.59081-7.20688 29.27482-14.24055 43.8074-21.55563 4.18108-3.08663 7.86857-11.09813 2.5676-14.78812 7.45907.27757 8.84326-9.30808 5.33653-13.84088 5.1516-5.24895.59341-14.94775-6.40652-16.94814-8.64385-4.35866-18.49815-5.27562-28.02376-5.67973z"/>
            <path d="m340.5625 163.71875c-17.35143 3.05737-34.71143 7.48219-50.77781 14.68614-6.95102 3.07308-14.55214 9.77921-22.47219 6.59511-5.57939-2.43501-5.01115-10.91401 1.125-12.09375 10.79836-1.76787 23.49325 3.80799 32.80658-4.25815.45191-1.57657-7.40172-2.3795-10.49595-2.84996-9.27753-.11246-18.87507-1.06002-27.97096.80784-9.09119 2.6233-8.07411 15.27139-2.95468 21.17172 4.48327 7.05571 14.43571 8.79997 21.30199 4.11958 10.28178-5.6791 20.82925-10.63866 32.07251-14.02762 19.73491-6.4811 41.04457-12.02149 61.81764-7.14291 5.8198 1.96028 12.97539 1.25042 17.89162 5.02325 3.78051 4.25716 1.48832 6.44019-2.9375 3.84375-6.46781-.9025-13.47683 5.59563-19 .09375-5.11853-3.95848-12.00719-1.37589-17.87495-1.10866-12.15872 2.66028-24.55916 4.15379-36.70158 6.97905-2.82718 1.54477-2.54098 8.20273-7.76722 7.03586-9.92262 2.51284-20.43782 4.65082-29.8125 8.25-2.73491 5.39736-4.79227 12.73396.35695 17.41616 6.94822 9.68817 13.94094 19.3455 20.8618 29.05259 12.70887-3.44311 24.91007-8.5645 37.4375-12.625 3.53048 5.98697 11.79226 4.73579 16.61916 1.12786 13.4449-6.75869 27.38563-12.94636 40.26038-20.58486 3.43345-3.34986 5.96369-9.15644 3.24546-13.63675 5.93073-1.81407 7.10553-10.02929 4.21875-14.8125 5.66844-8.3084-2.81518-18.78148-11.54784-19.94427-15.7688-5.87202-33.25721-4.66306-49.70216-3.11823z"/>
            <path d="m353.0625 160.28125c-17.39007 1.46854-34.51453 5.14929-51 10.875 4.94723-2.01719-1.21209-6.52696-4.30136-6.77135-11.25255-1.4196-23.01976-2.22875-34.2274.01032-9.92404 1.41185-12.14927 14.03857-7.75249 21.63603 4.16539 9.27737 16.01764 13.74105 25.05886 8.73582 14.67137-7.14044 29.59611-14.34072 45.57313-18.06881 17.29304-4.75403 35.69497-7.13706 53.28778-2.46121 3.39032.93894 8.75686 1.79551 10.73648 3.2942-6.5028-1.77519-13.49265 4.69478-19.43764-.48677-11.73014-4.43457-24.15713 1.02339-35.99911 2.40774-6.85832 1.33228-13.94188 2.62062-20.532 4.61028-2.09675 3.80717-5.07033 6.79768-9.55034 6.95131-9.52228 2.55889-19.82759 4.07693-28.35591 8.92369-3.83863 7.14976-3.89478 16.95809 2.66223 22.5679 6.61949 9.24026 13.26622 18.46137 19.86902 27.71335 12.56364-4.22576 25.12481-8.4589 37.6875-12.6875 6.24268 6.97759 16.2292 2.03429 22.83768-1.71637 12.86369-6.66395 26.81676-11.97614 38.12625-21.0779 2.63231-3.28403 4.07476-7.84034 2.72357-11.95573 5.22376-3.19798 6.12245-10.54772 3.96875-15.875 5.25933-10.65478-5.30566-22.27792-15.94443-23.07976-11.44586-3.64279-23.52493-3.87638-35.43057-3.54524zm-78.90625 14.8125c6.20574.21876 12.48774.79601 18.65625-.15625-7.67645 2.11288-14.20368 8.50252-22.4375 8.125-6.01534-.32279-5.11158-8.19833.49875-8.20693 1.09032.05278 2.18895.16216 3.2825.23818z"/>
            <path d="m355.125 164.9375c-19.72204.59686-38.97742 6.05595-57.42239 12.70383-10.16222 2.68977-18.47727 12.87172-29.69239 10.25907-7.9746-1.27555-10.17266-14.26539-1.81243-16.75464 9.58561-3.70884 20.44348 2.51502 29.92721-2.11451-9.00041-2.08801-18.44182-.43734-27.625-.90625-5.02496-.30329-10.39436 2.37342-10.10978 8.09545-.59303 9.56218 9.59117 19.54836 19.11732 14.79543 8.91418-4.3041 17.35971-9.79826 27.0008-12.77047 15.52934-5.64851 31.69634-10.27931 48.15339-11.94857 13.32255-.48413 26.64344 2.37197 39.38031 5.65339 3.66454 1.98399 7.73803 8.05389 4.17671 11.61227-3.78782 1.29556-6.97399-3.6329-11.11159-.91361-4.70834.11095-10.20104 4.64733-13.94671.08327-7.49519-5.90203-17.64584-1.09938-26.04352-.07327-9.3335 1.68679-18.67202 3.43378-28.02318 4.96611-.30886 4.2503-3.60916 7.77633-8.09375 7.375-9.39826 2.24665-18.76775 4.59439-28.09375 7.125-2.00911 4.53248-4.53201 10.21301-.0625 14.21875 6.76042 9.42708 13.52083 18.85417 20.28125 28.28125 12.29777-4.16713 24.82089-8.6139 37.25-12.84375 2.2142 4.93911 8.26994 6.33759 12.45388 2.93671 13.6962-6.95241 27.85119-13.28254 41.26189-20.62214 4.2763-3.39984 6.35926-10.90248.72173-14.12707 6.85443 1.08351 10.39485-7.31892 6.65261-12.39583.3773-3.03662 3.47055-7.39533.64122-11.03578-4.15592-7.30586-13.70576-8.52864-21.16416-10.38989-7.88692-1.26643-15.84961-1.34498-23.81717-1.20975z"/>
            <path d="m340.8125 159.28125c-11.91923 1.88836-23.67869 4.64067-35.21875 8.1875-4.20132-7.83054-14.59715-5.80277-22.0055-6.5106-9.16573.05041-19.82247-1.11006-27.41564 4.85996-10.15603 9.90004-2.90295 28.59224 9.89096 32.30332 2.19823 1.64508 7.72202.2244 8.18643 1.37857-4.13796 7.96198-3.21232 18.20122 2.96875 24.90625 7.50441 9.16329 13.88135 19.20273 20.9375 28.71875 12.7302-4.27817 25.45816-8.56301 38.1875-12.84375 8.46109 6.84238 19.22477.31241 27.32374-3.76717 12.81611-6.7949 27.31913-11.86839 37.42672-22.59459 3.13141-4.17838.80503-10.1699 4.85442-13.71203 3.40494-5.76751.16361-12.46196 2.11387-18.48871.1631-11.77027-11.21847-20.42273-22.2781-21.00642-14.58627-3.50336-30.17501-3.57859-44.9719-1.43108zm-61.5 18.5c1.78384-.24339-5.28473 3.43581-7.25207 2.62112-7.43894-2.49732 3.58093-3.94181 6.47345-2.66922zm30.375 8.34375c-4.41271 2.71421-9.47908 3.78509-14.5 4.75 5.27865-2.2993 10.65395-4.39876 15.96875-6.625-.48958.625-.97917 1.25-1.46875 1.875z"/>
        </g>
        <path d="m-15.053703 285.19652 24.7707701-5.16198 17.2748099 10.43687s5.39838 15.83523-2.87913 19.79404-9.71708 1.79946-9.71708 1.79946l-11.5165299 4.67859-21.9534001-26.63198z"
              fill="url(#h)" fill-opacity=".75" stroke-width="1pt"
              transform="matrix(.585624 0 0 .585624 127.9495 -95.55016)"/>
        <path d="m-117.3247 311.70502 45.346357 58.30246c2.688 3.456 9.02414 4.08521 12.9561 2.15935l70.53878-34.5496c7.42982-3.63909 13.63599-18.55715 7.19783-23.75286l-41.02765-33.11004c-5.65091-4.56039-14.503779-4.44934-21.59351-2.87914l-65.124947 14.42356c-3.40959.75514-4.48514 5.60295-5.41382 8.96941z"
              fill="url(#e)" fill-opacity=".75" stroke-width="1pt"
              transform="matrix(.585624 0 0 .585624 127.9495 -95.55016)"/>
        <path d="m-116.18916 310.22462 44.837396 60.5928c2.604338 3.51947 8.907318 1.88943 11.786452 1.07967 2.969107-.89972 16.627511-19.92725.780322-31.26563l-49.91164-48.34566c-1.98394-1.92169-4.49974 4.27179-5.28041 7.10175z"
              fill="url(#q)" fill-opacity=".14876" stroke="#000"
              stroke-opacity=".22314" stroke-width="1pt"
              transform="matrix(.585624 0 0 .585624 127.9495 -95.55016)"/>
        <path d="m-130.96736 384.39864 63.541167-21.84488c2.72745-.93767 9.55993-11.97485 7.55773-14.05076l-47.616787-49.36949c-1.31678-1.36525-62.53306 13.7545-63.18128 15.5371l-4.07171 11.1972c-.93487 2.5709-.57417 5.91885 1.01793 8.14342l37.15435 51.9143c1.12578 1.57301 3.76932-.898 5.5986-1.52689z"
              fill="url(#f)" fill-opacity=".75" stroke-width="1pt"
              transform="matrix(.585624 0 0 .585624 127.9495 -95.55016)"/>
        <path d="m-170.42152 313.75896 62.8139-13.57047 1.79946-4.6786 46.426027 47.14582-.35989 6.83794-65.736697 23.0549-.86885-6.68887-39.75525-50.30126c-.96701-1.22353-5.84306-1.47013-4.3187-1.79946z"
              fill="url(#i)" fill-opacity=".75" stroke-width="1pt"
              transform="matrix(.585624 0 0 .585624 127.9495 -95.55016)"/>
        <path d="m-131.32725 384.75854 5.5986-10.68824c1.33826-2.55485 1.80735-6.40478 0-8.65238l-39.69917-49.36949c-1.18863-1.47817-4.95039-2.80052-5.5986-1.01792l-4.07171 11.1972c-.93487 2.5709-.57417 5.91885 1.01793 8.14342l37.15435 51.9143c1.12578 1.57301 4.70104.18663 5.5986-1.52689z"
              fill="#0f0f0f" stroke-width="1pt"
              transform="matrix(.585624 0 0 .585624 127.9495 -95.55016)"/>
        <path d="m-123.80275 366.04867 64.40253-21.97522c.508964.6362 3.141104 4.0823-1.897376 5.88176-5.03848 1.79945-61.000094 21.72449-62.145264 21.85173.89796-2.93735.65076-4.22057-.35989-5.75827z"
              fill="url(#j)" fill-opacity=".75" stroke-width="1pt"
              transform="matrix(.585624 0 0 .585624 127.9495 -95.55016)"/>
        <path d="m-110.48676 339.05679 8.27751 11.87643 10.796757-2.87914-10.102547-12.23631z"
              fill="url(#r)" stroke-linecap="round" stroke-linejoin="round"
              stroke-opacity=".22314" stroke-width="3.5"
              transform="matrix(.585624 0 0 .585624 127.9495 -95.55016)"/>
        <path d="m-126.68189 322.14188 10.07697-2.51924-8.27751-10.07696-8.27751 2.51923z"
              fill="url(#m)" stroke-linecap="round" stroke-linejoin="round"
              stroke-opacity=".22314" stroke-width="3.5"
              transform="matrix(.585624 0 0 .585624 127.9495 -95.55016)"/>
        <path d="m-59.287513 341.84471c16.45901 16.58964-3.54011 31.8608.35989 29.87101l17.6347-8.99729c7.36941-3.7599 14.4563-20.03126 8.63739-25.91221l-51.13019-51.67533-27.686087 5.2493z"
              fill="url(#d)" fill-opacity=".75" stroke-width="1pt"
              transform="matrix(.585624 0 0 .585624 127.9495 -95.55016)"/>
        <path d="m-149.23157 335.71235 3.34443 4.99483 63.112047-20.00487-2.15935-2.87913z"
              fill="url(#p)" fill-opacity=".75" stroke-width="1pt"
              transform="matrix(.585624 0 0 .585624 127.9495 -95.55016)"/>
        <path d="m-44.266683 335.45787s34.9095001-20.51382 38.8683101-15.83523-37.7886301 22.31329-41.0276601 20.51383c-3.23902-1.79946 2.15935-4.6786 2.15935-4.6786z"
              fill="url(#o)" fill-opacity=".75" stroke-width="1pt"
              transform="matrix(.585624 0 0 .585624 127.9495 -95.55016)"/>
        <path d="m12.236317 315.30394c1.79946-.35989 7.91762 0 5.39838 1.07967-2.51924 1.07968-52.90409 25.19242-55.78322 25.55232-2.87913.35989 2.51924-2.87914 2.51924-2.87914z"
              fill="url(#n)" fill-opacity=".75" stroke-width="1pt"
              transform="matrix(.585624 0 0 .585624 127.9495 -95.55016)"/>
        <path d="m19.434157 292.27087s5.39837-3.95881 5.03848-.71979c-.35989 3.23903-17.2747999 11.15665-19.7940399 11.15665-2.51925 0 14.7555599-10.43686 14.7555599-10.43686z"
              fill="url(#l)" fill-opacity=".75" stroke-width="1pt"
              transform="matrix(.585624 0 0 .585624 127.9495 -95.55016)"/>
        <path d="m-3.2390255 105.29646s2.51924205-5.398378 5.3983758-2.15935c2.8791338 3.23902 37.2487937 44.62657 38.8683057 47.32576 1.619513 2.87913-.539837 5.75827-1.979404 8.6374s-42.2872775-53.80381-42.2872775-53.80381z"
              fill="#b7b7b7" stroke="#000" stroke-width="1pt"
              transform="matrix(.585624 0 0 .585624 28.99315 30.82775)"/>
        <path d="m81.31728 72.495536s8.396895 14.363106 18.119611 12.81631c9.722719-1.546796 22.539029-6.187184 26.516499-1.767767 3.97748 4.419418 9.72272 2.651651 9.72272 2.651651l-20.77126-16.351845c-3.618-2.848213-9.20525-2.766642-13.70019-1.767767z"
              fill="url(#g)" fill-opacity=".75"/>
    </g>
    <text font-family="helvetica" font-size="12" stroke-width="1pt"
          x="21.823867" y="-20.587088">
        <tspan>
            USB
        </tspan>
    </text>
    <text font-family="helvetica" font-size="12" stroke-width="1pt"
          transform="scale(.246729)" x="148.1031" y="-58.970419">
        <tspan>
            Created by Andrew Fitzsimon
        </tspan>
    </text>
</svg>